<?xml version="1.0" encoding="UTF-8" standalone="no"?>
<!DOCTYPE svg PUBLIC "-//W3C//DTD SVG 1.1//EN"
 "http://www.w3.org/Graphics/SVG/1.1/DTD/svg11.dtd">
<!-- Generated by graphviz version 2.43.0 (0)
 -->
<!-- Title: imported_1688044893.8961096 Pages: 1 -->
<svg width="1254pt" height="125pt"
 viewBox="0.00 0.00 1254.00 125.00" xmlns="http://www.w3.org/2000/svg" xmlns:xlink="http://www.w3.org/1999/xlink">
<g id="graph0" class="graph" transform="scale(1 1) rotate(0) translate(4 121)">
<title>imported_1688044893.8961096</title>
<polygon fill="white" stroke="transparent" points="-4,4 -4,-121 1250,-121 1250,4 -4,4"/>
<!-- 140465201660928 -->
<g id="node1" class="node">
<title>140465201660928</title>
<polygon fill="white" stroke="black" points="434,-108 294,-108 294,-72 434,-72 434,-108"/>
<text text-anchor="middle" x="364" y="-86.9" font-family="Times,serif" font-size="12.00">Send Appeal to Prefecture</text>
</g>
<!-- 140468994104384 -->
<g id="node6" class="node">
<title>140468994104384</title>
<ellipse fill="white" stroke="black" cx="497" cy="-88" rx="27" ry="27"/>
</g>
<!-- 140465201660928&#45;&gt;140468994104384 -->
<g id="edge3" class="edge">
<title>140465201660928&#45;&gt;140468994104384</title>
<path fill="none" stroke="black" d="M434.34,-88.94C443.13,-88.81 451.82,-88.67 459.79,-88.55"/>
<polygon fill="black" stroke="black" points="459.85,-92.05 469.8,-88.4 459.75,-85.05 459.85,-92.05"/>
</g>
<!-- 140463872916928 -->
<g id="node2" class="node">
<title>140463872916928</title>
<polygon fill="white" stroke="black" points="1062,-45 887,-45 887,-9 1062,-9 1062,-45"/>
<text text-anchor="middle" x="974.5" y="-23.9" font-family="Times,serif" font-size="12.00">Notify Result Appeal to Offender</text>
</g>
<!-- 140468994038944 -->
<g id="node11" class="node">
<title>140468994038944</title>
<ellipse fill="white" stroke="black" cx="1125" cy="-31" rx="27" ry="27"/>
</g>
<!-- 140463872916928&#45;&gt;140468994038944 -->
<g id="edge2" class="edge">
<title>140463872916928&#45;&gt;140468994038944</title>
<path fill="none" stroke="black" d="M1062.31,-29.34C1071.21,-29.58 1079.87,-29.81 1087.74,-30.02"/>
<polygon fill="black" stroke="black" points="1087.85,-33.53 1097.94,-30.3 1088.04,-26.53 1087.85,-33.53"/>
</g>
<!-- 140468994039664 -->
<g id="node3" class="node">
<title>140468994039664</title>
<polygon fill="white" stroke="black" points="1246,-76 1188,-76 1188,-40 1246,-40 1246,-76"/>
<text text-anchor="middle" x="1217" y="-54.9" font-family="Times,serif" font-size="12.00">Payment</text>
</g>
<!-- 140468994039184 -->
<g id="node4" class="node">
<title>140468994039184</title>
<polygon fill="white" stroke="black" points="761,-76 560,-76 560,-40 761,-40 761,-76"/>
<text text-anchor="middle" x="660.5" y="-54.9" font-family="Times,serif" font-size="12.00">Receive Result Appeal from Prefecture</text>
</g>
<!-- 140468994104624 -->
<g id="node7" class="node">
<title>140468994104624</title>
<ellipse fill="white" stroke="black" cx="974.5" cy="-90" rx="27" ry="27"/>
</g>
<!-- 140468994039184&#45;&gt;140468994104624 -->
<g id="edge11" class="edge">
<title>140468994039184&#45;&gt;140468994104624</title>
<path fill="none" stroke="black" d="M761.08,-68.21C821.38,-74.4 894.67,-81.92 937.51,-86.31"/>
<polygon fill="black" stroke="black" points="937.15,-89.79 947.45,-87.33 937.86,-82.83 937.15,-89.79"/>
</g>
<!-- 140468994104816 -->
<g id="node8" class="node">
<title>140468994104816</title>
<ellipse fill="white" stroke="black" cx="824" cy="-31" rx="27" ry="27"/>
</g>
<!-- 140468994039184&#45;&gt;140468994104816 -->
<g id="edge12" class="edge">
<title>140468994039184&#45;&gt;140468994104816</title>
<path fill="none" stroke="black" d="M761.02,-41.36C770.23,-39.82 779.09,-38.34 787.09,-37"/>
<polygon fill="black" stroke="black" points="787.79,-40.44 797.07,-35.33 786.63,-33.53 787.79,-40.44"/>
</g>
<!-- 140468994039760 -->
<g id="node5" class="node">
<title>140468994039760</title>
<polygon fill="white" stroke="black" points="168,-76 0,-76 0,-40 168,-40 168,-76"/>
<text text-anchor="middle" x="84" y="-54.9" font-family="Times,serif" font-size="12.00">Insert Date Appeal to Prefecture</text>
</g>
<!-- 140468994104864 -->
<g id="node9" class="node">
<title>140468994104864</title>
<ellipse fill="white" stroke="black" cx="231" cy="-88" rx="27" ry="27"/>
</g>
<!-- 140468994039760&#45;&gt;140468994104864 -->
<g id="edge9" class="edge">
<title>140468994039760&#45;&gt;140468994104864</title>
<path fill="none" stroke="black" d="M168.09,-75.19C177.34,-77.1 186.36,-78.97 194.52,-80.66"/>
<polygon fill="black" stroke="black" points="193.86,-84.1 204.36,-82.69 195.28,-77.24 193.86,-84.1"/>
</g>
<!-- 140468994038896 -->
<g id="node10" class="node">
<title>140468994038896</title>
<ellipse fill="white" stroke="black" cx="364" cy="-27" rx="27" ry="27"/>
</g>
<!-- 140468994039760&#45;&gt;140468994038896 -->
<g id="edge10" class="edge">
<title>140468994039760&#45;&gt;140468994038896</title>
<path fill="none" stroke="black" d="M168.03,-48.74C220.91,-42.85 286.75,-35.5 326.79,-31.04"/>
<polygon fill="black" stroke="black" points="327.33,-34.5 336.88,-29.91 326.56,-27.54 327.33,-34.5"/>
</g>
<!-- 140468994104384&#45;&gt;140468994039184 -->
<g id="edge1" class="edge">
<title>140468994104384&#45;&gt;140468994039184</title>
<path fill="none" stroke="black" d="M523.59,-83.25C531.97,-81.69 541.86,-79.85 552.43,-77.89"/>
<polygon fill="black" stroke="black" points="553.11,-81.32 562.3,-76.06 551.83,-74.44 553.11,-81.32"/>
</g>
<!-- 140468994104624&#45;&gt;140468994039664 -->
<g id="edge4" class="edge">
<title>140468994104624&#45;&gt;140468994039664</title>
<path fill="none" stroke="black" d="M1001.53,-86.69C1035.97,-82.3 1098.57,-74.24 1152,-67 1160.38,-65.86 1169.37,-64.62 1177.89,-63.42"/>
<polygon fill="black" stroke="black" points="1178.56,-66.86 1187.97,-62 1177.58,-59.93 1178.56,-66.86"/>
</g>
<!-- 140468994104816&#45;&gt;140463872916928 -->
<g id="edge5" class="edge">
<title>140468994104816&#45;&gt;140463872916928</title>
<path fill="none" stroke="black" d="M851.21,-30.29C858.73,-30.09 867.4,-29.86 876.59,-29.61"/>
<polygon fill="black" stroke="black" points="876.82,-33.11 886.73,-29.34 876.63,-26.11 876.82,-33.11"/>
</g>
<!-- 140468994104864&#45;&gt;140465201660928 -->
<g id="edge6" class="edge">
<title>140468994104864&#45;&gt;140465201660928</title>
<path fill="none" stroke="black" d="M258.19,-88.4C265.87,-88.52 274.69,-88.65 283.89,-88.79"/>
<polygon fill="black" stroke="black" points="283.92,-92.29 293.97,-88.95 284.03,-85.29 283.92,-92.29"/>
</g>
<!-- 140468994038896&#45;&gt;140468994039184 -->
<g id="edge7" class="edge">
<title>140468994038896&#45;&gt;140468994039184</title>
<path fill="none" stroke="black" d="M390.88,-29.72C426.3,-33.45 492.05,-40.37 549.64,-46.44"/>
<polygon fill="black" stroke="black" points="549.61,-49.95 559.92,-47.52 550.34,-42.99 549.61,-49.95"/>
</g>
<!-- 140468994038944&#45;&gt;140468994039664 -->
<g id="edge8" class="edge">
<title>140468994038944&#45;&gt;140468994039664</title>
<path fill="none" stroke="black" d="M1151.07,-38.52C1159.47,-41.04 1169.04,-43.91 1178.2,-46.66"/>
<polygon fill="black" stroke="black" points="1177.31,-50.05 1187.9,-49.57 1179.32,-43.34 1177.31,-50.05"/>
</g>
</g>
</svg>
