<?xml version="1.0" encoding="UTF-8" standalone="no"?>
<!DOCTYPE svg PUBLIC "-//W3C//DTD SVG 1.1//EN"
 "http://www.w3.org/Graphics/SVG/1.1/DTD/svg11.dtd">
<!-- Generated by graphviz version 2.43.0 (0)
 -->
<!-- Title: imported_1688044893.9627619 Pages: 1 -->
<svg width="1070pt" height="134pt"
 viewBox="0.00 0.00 1070.00 134.00" xmlns="http://www.w3.org/2000/svg" xmlns:xlink="http://www.w3.org/1999/xlink">
<g id="graph0" class="graph" transform="scale(1 1) rotate(0) translate(4 130)">
<title>imported_1688044893.9627619</title>
<polygon fill="white" stroke="transparent" points="-4,4 -4,-130 1066,-130 1066,4 -4,4"/>
<!-- 140465201706560 -->
<g id="node1" class="node">
<title>140465201706560</title>
<polygon fill="white" stroke="black" points="1062,-95 887,-95 887,-59 1062,-59 1062,-95"/>
<text text-anchor="middle" x="974.5" y="-73.9" font-family="Times,serif" font-size="12.00">Notify Result Appeal to Offender</text>
</g>
<!-- 140465201705360 -->
<g id="node2" class="node">
<title>140465201705360</title>
<polygon fill="white" stroke="black" points="393,-117 335,-117 335,-81 393,-81 393,-117"/>
<text text-anchor="middle" x="364" y="-95.9" font-family="Times,serif" font-size="12.00">Payment</text>
</g>
<!-- 140465201705312 -->
<g id="node10" class="node">
<title>140465201705312</title>
<ellipse fill="white" stroke="black" cx="497" cy="-99" rx="27" ry="27"/>
</g>
<!-- 140465201705360&#45;&gt;140465201705312 -->
<g id="edge6" class="edge">
<title>140465201705360&#45;&gt;140465201705312</title>
<path fill="none" stroke="black" d="M393.1,-99C412.53,-99 438.55,-99 459.56,-99"/>
<polygon fill="black" stroke="black" points="459.73,-102.5 469.73,-99 459.73,-95.5 459.73,-102.5"/>
</g>
<!-- 140465201705840 -->
<g id="node3" class="node">
<title>140465201705840</title>
<polygon fill="white" stroke="black" points="434,-54 294,-54 294,-18 434,-18 434,-54"/>
<text text-anchor="middle" x="364" y="-32.9" font-family="Times,serif" font-size="12.00">Send Appeal to Prefecture</text>
</g>
<!-- 140465201660784 -->
<g id="node7" class="node">
<title>140465201660784</title>
<ellipse fill="white" stroke="black" cx="497" cy="-27" rx="27" ry="27"/>
</g>
<!-- 140465201705840&#45;&gt;140465201660784 -->
<g id="edge9" class="edge">
<title>140465201705840&#45;&gt;140465201660784</title>
<path fill="none" stroke="black" d="M434.34,-31.24C443.13,-30.63 451.82,-30.03 459.79,-29.49"/>
<polygon fill="black" stroke="black" points="460.06,-32.98 469.8,-28.8 459.58,-25.99 460.06,-32.98"/>
</g>
<!-- 140465201705840&#45;&gt;140465201705312 -->
<g id="edge10" class="edge">
<title>140465201705840&#45;&gt;140465201705312</title>
<path fill="none" stroke="black" d="M402.54,-54.05C421.73,-63.28 444.85,-74.4 463.3,-83.27"/>
<polygon fill="black" stroke="black" points="461.95,-86.51 472.47,-87.69 464.98,-80.2 461.95,-86.51"/>
</g>
<!-- 140465201705456 -->
<g id="node4" class="node">
<title>140465201705456</title>
<polygon fill="white" stroke="black" points="168,-54 0,-54 0,-18 168,-18 168,-54"/>
<text text-anchor="middle" x="84" y="-32.9" font-family="Times,serif" font-size="12.00">Insert Date Appeal to Prefecture</text>
</g>
<!-- 140465201706176 -->
<g id="node9" class="node">
<title>140465201706176</title>
<ellipse fill="white" stroke="black" cx="231" cy="-36" rx="27" ry="27"/>
</g>
<!-- 140465201705456&#45;&gt;140465201706176 -->
<g id="edge7" class="edge">
<title>140465201705456&#45;&gt;140465201706176</title>
<path fill="none" stroke="black" d="M168.09,-36C176.96,-36 185.62,-36 193.51,-36"/>
<polygon fill="black" stroke="black" points="193.75,-39.5 203.75,-36 193.75,-32.5 193.75,-39.5"/>
</g>
<!-- 140465201705936 -->
<g id="node5" class="node">
<title>140465201705936</title>
<polygon fill="white" stroke="black" points="761,-45 560,-45 560,-9 761,-9 761,-45"/>
<text text-anchor="middle" x="660.5" y="-23.9" font-family="Times,serif" font-size="12.00">Receive Result Appeal from Prefecture</text>
</g>
<!-- 140463896676960 -->
<g id="node8" class="node">
<title>140463896676960</title>
<ellipse fill="white" stroke="black" cx="824" cy="-50" rx="27" ry="27"/>
</g>
<!-- 140465201705936&#45;&gt;140463896676960 -->
<g id="edge8" class="edge">
<title>140465201705936&#45;&gt;140463896676960</title>
<path fill="none" stroke="black" d="M761.02,-41.17C770.23,-42.48 779.09,-43.75 787.09,-44.89"/>
<polygon fill="black" stroke="black" points="786.68,-48.36 797.07,-46.31 787.67,-41.43 786.68,-48.36"/>
</g>
<!-- 140465201708912 -->
<g id="node6" class="node">
<title>140465201708912</title>
<polygon fill="white" stroke="black" points="707.5,-99 613.5,-99 613.5,-63 707.5,-63 707.5,-99"/>
<text text-anchor="middle" x="660.5" y="-77.9" font-family="Times,serif" font-size="12.00">Appeal to Judge</text>
</g>
<!-- 140465201660784&#45;&gt;140465201705936 -->
<g id="edge1" class="edge">
<title>140465201660784&#45;&gt;140465201705936</title>
<path fill="none" stroke="black" d="M524.31,-27C531.79,-27 540.44,-27 549.68,-27"/>
<polygon fill="black" stroke="black" points="549.9,-30.5 559.9,-27 549.9,-23.5 549.9,-30.5"/>
</g>
<!-- 140463896676960&#45;&gt;140465201706560 -->
<g id="edge2" class="edge">
<title>140463896676960&#45;&gt;140465201706560</title>
<path fill="none" stroke="black" d="M850.87,-54.7C858.51,-56.09 867.37,-57.7 876.77,-59.41"/>
<polygon fill="black" stroke="black" points="876.25,-62.88 886.71,-61.22 877.5,-55.99 876.25,-62.88"/>
</g>
<!-- 140465201706176&#45;&gt;140465201705840 -->
<g id="edge3" class="edge">
<title>140465201706176&#45;&gt;140465201705840</title>
<path fill="none" stroke="black" d="M258.19,-36C265.87,-36 274.69,-36 283.89,-36"/>
<polygon fill="black" stroke="black" points="283.97,-39.5 293.97,-36 283.97,-32.5 283.97,-39.5"/>
</g>
<!-- 140465201705312&#45;&gt;140465201706560 -->
<g id="edge5" class="edge">
<title>140465201705312&#45;&gt;140465201706560</title>
<path fill="none" stroke="black" d="M523.85,-103.6C534.94,-105.36 548.07,-107.14 560,-108 649.1,-114.43 671.9,-114.46 761,-108 799.07,-105.24 840.67,-99.73 876.9,-94.11"/>
<polygon fill="black" stroke="black" points="877.63,-97.54 886.96,-92.52 876.54,-90.62 877.63,-97.54"/>
</g>
<!-- 140465201705312&#45;&gt;140465201708912 -->
<g id="edge4" class="edge">
<title>140465201705312&#45;&gt;140465201708912</title>
<path fill="none" stroke="black" d="M523.95,-96.11C545.3,-93.73 576.32,-90.27 603.3,-87.26"/>
<polygon fill="black" stroke="black" points="603.86,-90.72 613.41,-86.14 603.09,-83.77 603.86,-90.72"/>
</g>
</g>
</svg>
