<?xml version="1.0" encoding="UTF-8" standalone="no"?>
<!DOCTYPE svg PUBLIC "-//W3C//DTD SVG 1.1//EN"
 "http://www.w3.org/Graphics/SVG/1.1/DTD/svg11.dtd">
<!-- Generated by graphviz version 2.43.0 (0)
 -->
<!-- Title: imported_1688044893.2898006 Pages: 1 -->
<svg width="1070pt" height="123pt"
 viewBox="0.00 0.00 1070.00 123.00" xmlns="http://www.w3.org/2000/svg" xmlns:xlink="http://www.w3.org/1999/xlink">
<g id="graph0" class="graph" transform="scale(1 1) rotate(0) translate(4 119)">
<title>imported_1688044893.2898006</title>
<polygon fill="white" stroke="transparent" points="-4,4 -4,-119 1066,-119 1066,4 -4,4"/>
<!-- 140465201709456 -->
<g id="node1" class="node">
<title>140465201709456</title>
<polygon fill="white" stroke="black" points="168,-76 0,-76 0,-40 168,-40 168,-76"/>
<text text-anchor="middle" x="84" y="-54.9" font-family="Times,serif" font-size="12.00">Insert Date Appeal to Prefecture</text>
</g>
<!-- 140465201686944 -->
<g id="node7" class="node">
<title>140465201686944</title>
<ellipse fill="white" stroke="black" cx="231" cy="-88" rx="27" ry="27"/>
</g>
<!-- 140465201709456&#45;&gt;140465201686944 -->
<g id="edge5" class="edge">
<title>140465201709456&#45;&gt;140465201686944</title>
<path fill="none" stroke="black" d="M168.09,-75.19C177.34,-77.1 186.36,-78.97 194.52,-80.66"/>
<polygon fill="black" stroke="black" points="193.86,-84.1 204.36,-82.69 195.28,-77.24 193.86,-84.1"/>
</g>
<!-- 140465201686800 -->
<g id="node8" class="node">
<title>140465201686800</title>
<ellipse fill="white" stroke="black" cx="364" cy="-27" rx="27" ry="27"/>
</g>
<!-- 140465201709456&#45;&gt;140465201686800 -->
<g id="edge6" class="edge">
<title>140465201709456&#45;&gt;140465201686800</title>
<path fill="none" stroke="black" d="M168.03,-48.74C220.91,-42.85 286.75,-35.5 326.79,-31.04"/>
<polygon fill="black" stroke="black" points="327.33,-34.5 336.88,-29.91 326.56,-27.54 327.33,-34.5"/>
</g>
<!-- 140465201709504 -->
<g id="node2" class="node">
<title>140465201709504</title>
<polygon fill="white" stroke="black" points="1062,-76 887,-76 887,-40 1062,-40 1062,-76"/>
<text text-anchor="middle" x="974.5" y="-54.9" font-family="Times,serif" font-size="12.00">Notify Result Appeal to Offender</text>
</g>
<!-- 140465201709408 -->
<g id="node3" class="node">
<title>140465201709408</title>
<polygon fill="white" stroke="black" points="761,-76 560,-76 560,-40 761,-40 761,-76"/>
<text text-anchor="middle" x="660.5" y="-54.9" font-family="Times,serif" font-size="12.00">Receive Result Appeal from Prefecture</text>
</g>
<!-- 140465201686320 -->
<g id="node6" class="node">
<title>140465201686320</title>
<ellipse fill="white" stroke="black" cx="824" cy="-58" rx="27" ry="27"/>
</g>
<!-- 140465201709408&#45;&gt;140465201686320 -->
<g id="edge7" class="edge">
<title>140465201709408&#45;&gt;140465201686320</title>
<path fill="none" stroke="black" d="M761.02,-58C770.04,-58 778.72,-58 786.59,-58"/>
<polygon fill="black" stroke="black" points="786.77,-61.5 796.77,-58 786.77,-54.5 786.77,-61.5"/>
</g>
<!-- 140465201710032 -->
<g id="node4" class="node">
<title>140465201710032</title>
<polygon fill="white" stroke="black" points="434,-108 294,-108 294,-72 434,-72 434,-108"/>
<text text-anchor="middle" x="364" y="-86.9" font-family="Times,serif" font-size="12.00">Send Appeal to Prefecture</text>
</g>
<!-- 140465201686464 -->
<g id="node5" class="node">
<title>140465201686464</title>
<ellipse fill="white" stroke="black" cx="497" cy="-88" rx="27" ry="27"/>
</g>
<!-- 140465201710032&#45;&gt;140465201686464 -->
<g id="edge8" class="edge">
<title>140465201710032&#45;&gt;140465201686464</title>
<path fill="none" stroke="black" d="M434.34,-88.94C443.13,-88.81 451.82,-88.67 459.79,-88.55"/>
<polygon fill="black" stroke="black" points="459.85,-92.05 469.8,-88.4 459.75,-85.05 459.85,-92.05"/>
</g>
<!-- 140465201686464&#45;&gt;140465201709408 -->
<g id="edge1" class="edge">
<title>140465201686464&#45;&gt;140465201709408</title>
<path fill="none" stroke="black" d="M523.59,-83.25C531.97,-81.69 541.86,-79.85 552.43,-77.89"/>
<polygon fill="black" stroke="black" points="553.11,-81.32 562.3,-76.06 551.83,-74.44 553.11,-81.32"/>
</g>
<!-- 140465201686320&#45;&gt;140465201709504 -->
<g id="edge2" class="edge">
<title>140465201686320&#45;&gt;140465201709504</title>
<path fill="none" stroke="black" d="M851.21,-58C858.73,-58 867.4,-58 876.59,-58"/>
<polygon fill="black" stroke="black" points="876.73,-61.5 886.73,-58 876.72,-54.5 876.73,-61.5"/>
</g>
<!-- 140465201686944&#45;&gt;140465201710032 -->
<g id="edge3" class="edge">
<title>140465201686944&#45;&gt;140465201710032</title>
<path fill="none" stroke="black" d="M258.19,-88.4C265.87,-88.52 274.69,-88.65 283.89,-88.79"/>
<polygon fill="black" stroke="black" points="283.92,-92.29 293.97,-88.95 284.03,-85.29 283.92,-92.29"/>
</g>
<!-- 140465201686800&#45;&gt;140465201709408 -->
<g id="edge4" class="edge">
<title>140465201686800&#45;&gt;140465201709408</title>
<path fill="none" stroke="black" d="M390.88,-29.72C426.3,-33.45 492.05,-40.37 549.64,-46.44"/>
<polygon fill="black" stroke="black" points="549.61,-49.95 559.92,-47.52 550.34,-42.99 549.61,-49.95"/>
</g>
</g>
</svg>
