<?xml version="1.0" encoding="UTF-8" standalone="no"?>
<!DOCTYPE svg PUBLIC "-//W3C//DTD SVG 1.1//EN"
 "http://www.w3.org/Graphics/SVG/1.1/DTD/svg11.dtd">
<!-- Generated by graphviz version 2.43.0 (0)
 -->
<!-- Title: imported_1688044893.3522613 Pages: 1 -->
<svg width="1254pt" height="121pt"
 viewBox="0.00 0.00 1254.00 121.00" xmlns="http://www.w3.org/2000/svg" xmlns:xlink="http://www.w3.org/1999/xlink">
<g id="graph0" class="graph" transform="scale(1 1) rotate(0) translate(4 117)">
<title>imported_1688044893.3522613</title>
<polygon fill="white" stroke="transparent" points="-4,4 -4,-117 1250,-117 1250,4 -4,4"/>
<!-- 140465201746080 -->
<g id="node1" class="node">
<title>140465201746080</title>
<polygon fill="white" stroke="black" points="761,-46 560,-46 560,-10 761,-10 761,-46"/>
<text text-anchor="middle" x="660.5" y="-24.9" font-family="Times,serif" font-size="12.00">Receive Result Appeal from Prefecture</text>
</g>
<!-- 140465201749920 -->
<g id="node7" class="node">
<title>140465201749920</title>
<ellipse fill="white" stroke="black" cx="824" cy="-29" rx="27" ry="27"/>
</g>
<!-- 140465201746080&#45;&gt;140465201749920 -->
<g id="edge9" class="edge">
<title>140465201746080&#45;&gt;140465201749920</title>
<path fill="none" stroke="black" d="M761.02,-28.62C770.04,-28.67 778.72,-28.73 786.59,-28.77"/>
<polygon fill="black" stroke="black" points="786.75,-32.28 796.77,-28.84 786.79,-25.28 786.75,-32.28"/>
</g>
<!-- 140465201747856 -->
<g id="node2" class="node">
<title>140465201747856</title>
<polygon fill="white" stroke="black" points="1246,-74 1188,-74 1188,-38 1246,-38 1246,-74"/>
<text text-anchor="middle" x="1217" y="-52.9" font-family="Times,serif" font-size="12.00">Payment</text>
</g>
<!-- 140465201746704 -->
<g id="node3" class="node">
<title>140465201746704</title>
<polygon fill="white" stroke="black" points="1062,-74 887,-74 887,-38 1062,-38 1062,-74"/>
<text text-anchor="middle" x="974.5" y="-52.9" font-family="Times,serif" font-size="12.00">Notify Result Appeal to Offender</text>
</g>
<!-- 140465201747712 -->
<g id="node10" class="node">
<title>140465201747712</title>
<ellipse fill="white" stroke="black" cx="1125" cy="-56" rx="27" ry="27"/>
</g>
<!-- 140465201746704&#45;&gt;140465201747712 -->
<g id="edge10" class="edge">
<title>140465201746704&#45;&gt;140465201747712</title>
<path fill="none" stroke="black" d="M1062.31,-56C1071.21,-56 1079.87,-56 1087.74,-56"/>
<polygon fill="black" stroke="black" points="1087.94,-59.5 1097.94,-56 1087.94,-52.5 1087.94,-59.5"/>
</g>
<!-- 140465201746416 -->
<g id="node4" class="node">
<title>140465201746416</title>
<polygon fill="white" stroke="black" points="168,-72 0,-72 0,-36 168,-36 168,-72"/>
<text text-anchor="middle" x="84" y="-50.9" font-family="Times,serif" font-size="12.00">Insert Date Appeal to Prefecture</text>
</g>
<!-- 140465201749296 -->
<g id="node8" class="node">
<title>140465201749296</title>
<ellipse fill="white" stroke="black" cx="364" cy="-86" rx="27" ry="27"/>
</g>
<!-- 140465201746416&#45;&gt;140465201749296 -->
<g id="edge7" class="edge">
<title>140465201746416&#45;&gt;140465201749296</title>
<path fill="none" stroke="black" d="M168.03,-63.56C220.91,-69.64 286.75,-77.22 326.79,-81.83"/>
<polygon fill="black" stroke="black" points="326.55,-85.33 336.88,-82.99 327.35,-78.37 326.55,-85.33"/>
</g>
<!-- 140465201747568 -->
<g id="node9" class="node">
<title>140465201747568</title>
<ellipse fill="white" stroke="black" cx="231" cy="-27" rx="27" ry="27"/>
</g>
<!-- 140465201746416&#45;&gt;140465201747568 -->
<g id="edge8" class="edge">
<title>140465201746416&#45;&gt;140465201747568</title>
<path fill="none" stroke="black" d="M168.09,-38.53C177.34,-36.81 186.36,-35.13 194.52,-33.61"/>
<polygon fill="black" stroke="black" points="195.17,-37.05 204.36,-31.77 193.89,-30.16 195.17,-37.05"/>
</g>
<!-- 140465201748720 -->
<g id="node5" class="node">
<title>140465201748720</title>
<polygon fill="white" stroke="black" points="434,-41 294,-41 294,-5 434,-5 434,-41"/>
<text text-anchor="middle" x="364" y="-19.9" font-family="Times,serif" font-size="12.00">Send Appeal to Prefecture</text>
</g>
<!-- 140465201749056 -->
<g id="node6" class="node">
<title>140465201749056</title>
<ellipse fill="white" stroke="black" cx="497" cy="-27" rx="27" ry="27"/>
</g>
<!-- 140465201748720&#45;&gt;140465201749056 -->
<g id="edge2" class="edge">
<title>140465201748720&#45;&gt;140465201749056</title>
<path fill="none" stroke="black" d="M434.34,-25.12C443.13,-25.39 451.82,-25.65 459.79,-25.89"/>
<polygon fill="black" stroke="black" points="459.7,-29.39 469.8,-26.2 459.91,-22.4 459.7,-29.39"/>
</g>
<!-- 140465201749056&#45;&gt;140465201746080 -->
<g id="edge1" class="edge">
<title>140465201749056&#45;&gt;140465201746080</title>
<path fill="none" stroke="black" d="M524.31,-27.16C531.79,-27.21 540.44,-27.26 549.68,-27.32"/>
<polygon fill="black" stroke="black" points="549.88,-30.82 559.9,-27.38 549.92,-23.82 549.88,-30.82"/>
</g>
<!-- 140465201749920&#45;&gt;140465201746704 -->
<g id="edge3" class="edge">
<title>140465201749920&#45;&gt;140465201746704</title>
<path fill="none" stroke="black" d="M850.87,-33.7C858.51,-35.09 867.37,-36.7 876.77,-38.41"/>
<polygon fill="black" stroke="black" points="876.25,-41.88 886.71,-40.22 877.5,-34.99 876.25,-41.88"/>
</g>
<!-- 140465201749296&#45;&gt;140465201746704 -->
<g id="edge4" class="edge">
<title>140465201749296&#45;&gt;140465201746704</title>
<path fill="none" stroke="black" d="M391.09,-85.15C463.89,-82.72 675.42,-75.24 851,-65 859.34,-64.51 867.99,-63.97 876.67,-63.39"/>
<polygon fill="black" stroke="black" points="877.12,-66.86 886.86,-62.69 876.64,-59.88 877.12,-66.86"/>
</g>
<!-- 140465201747568&#45;&gt;140465201748720 -->
<g id="edge5" class="edge">
<title>140465201747568&#45;&gt;140465201748720</title>
<path fill="none" stroke="black" d="M258.19,-26.2C265.87,-25.97 274.69,-25.7 283.89,-25.42"/>
<polygon fill="black" stroke="black" points="284.08,-28.91 293.97,-25.11 283.87,-21.91 284.08,-28.91"/>
</g>
<!-- 140465201747712&#45;&gt;140465201747856 -->
<g id="edge6" class="edge">
<title>140465201747712&#45;&gt;140465201747856</title>
<path fill="none" stroke="black" d="M1152.03,-56C1160,-56 1168.95,-56 1177.56,-56"/>
<polygon fill="black" stroke="black" points="1177.82,-59.5 1187.82,-56 1177.82,-52.5 1177.82,-59.5"/>
</g>
</g>
</svg>
