<?xml version="1.0" encoding="UTF-8" standalone="no"?>
<!DOCTYPE svg PUBLIC "-//W3C//DTD SVG 1.1//EN"
 "http://www.w3.org/Graphics/SVG/1.1/DTD/svg11.dtd">
<!-- Generated by graphviz version 2.43.0 (0)
 -->
<!-- Title: imported_1692806099.790192 Pages: 1 -->
<svg width="289pt" height="134pt"
 viewBox="0.00 0.00 289.00 134.00" xmlns="http://www.w3.org/2000/svg" xmlns:xlink="http://www.w3.org/1999/xlink">
<g id="graph0" class="graph" transform="scale(1 1) rotate(0) translate(4 130)">
<title>imported_1692806099.790192</title>
<polygon fill="white" stroke="transparent" points="-4,4 -4,-130 285,-130 285,4 -4,4"/>
<!-- 140644631168432 -->
<g id="node1" class="node">
<title>140644631168432</title>
<polygon fill="white" stroke="black" points="93,-117 0,-117 0,-81 93,-81 93,-117"/>
<text text-anchor="middle" x="46.5" y="-95.9" font-family="Times,serif" font-size="12.00">O_SELECTED</text>
</g>
<!-- 140644631167232 -->
<g id="node5" class="node">
<title>140644631167232</title>
<ellipse fill="white" stroke="black" cx="156" cy="-99" rx="27" ry="27"/>
</g>
<!-- 140644631168432&#45;&gt;140644631167232 -->
<g id="edge3" class="edge">
<title>140644631168432&#45;&gt;140644631167232</title>
<path fill="none" stroke="black" d="M93.09,-99C101.7,-99 110.6,-99 118.87,-99"/>
<polygon fill="black" stroke="black" points="118.94,-102.5 128.94,-99 118.94,-95.5 118.94,-102.5"/>
</g>
<!-- 140644631170400 -->
<g id="node2" class="node">
<title>140644631170400</title>
<polygon fill="white" stroke="black" points="90,-45 3,-45 3,-9 90,-9 90,-45"/>
<text text-anchor="middle" x="46.5" y="-23.9" font-family="Times,serif" font-size="12.00">O_CREATED</text>
</g>
<!-- 140644631169920 -->
<g id="node4" class="node">
<title>140644631169920</title>
<ellipse fill="white" stroke="black" cx="156" cy="-27" rx="27" ry="27"/>
</g>
<!-- 140644631170400&#45;&gt;140644631169920 -->
<g id="edge4" class="edge">
<title>140644631170400&#45;&gt;140644631169920</title>
<path fill="none" stroke="black" d="M90.3,-27C99.64,-27 109.44,-27 118.51,-27"/>
<polygon fill="black" stroke="black" points="118.75,-30.5 128.75,-27 118.75,-23.5 118.75,-30.5"/>
</g>
<!-- 140644631167136 -->
<g id="node3" class="node">
<title>140644631167136</title>
<polygon fill="white" stroke="black" points="281,-81 219,-81 219,-45 281,-45 281,-81"/>
<text text-anchor="middle" x="250" y="-59.9" font-family="Times,serif" font-size="12.00">O_SENT</text>
</g>
<!-- 140644631169920&#45;&gt;140644631167136 -->
<g id="edge1" class="edge">
<title>140644631169920&#45;&gt;140644631167136</title>
<path fill="none" stroke="black" d="M181.65,-36.65C190.11,-39.96 199.8,-43.75 209.14,-47.4"/>
<polygon fill="black" stroke="black" points="208.1,-50.76 218.69,-51.14 210.65,-44.24 208.1,-50.76"/>
</g>
<!-- 140644631167232&#45;&gt;140644631167136 -->
<g id="edge2" class="edge">
<title>140644631167232&#45;&gt;140644631167136</title>
<path fill="none" stroke="black" d="M181.65,-89.35C190.11,-86.04 199.8,-82.25 209.14,-78.6"/>
<polygon fill="black" stroke="black" points="210.65,-81.76 218.69,-74.86 208.1,-75.24 210.65,-81.76"/>
</g>
</g>
</svg>
