<?xml version="1.0" encoding="UTF-8" standalone="no"?>
<!DOCTYPE svg PUBLIC "-//W3C//DTD SVG 1.1//EN"
 "http://www.w3.org/Graphics/SVG/1.1/DTD/svg11.dtd">
<!-- Generated by graphviz version 2.43.0 (0)
 -->
<!-- Title: imported_1692806099.9688127 Pages: 1 -->
<svg width="577pt" height="98pt"
 viewBox="0.00 0.00 577.00 98.00" xmlns="http://www.w3.org/2000/svg" xmlns:xlink="http://www.w3.org/1999/xlink">
<g id="graph0" class="graph" transform="scale(1 1) rotate(0) translate(4 94)">
<title>imported_1692806099.9688127</title>
<polygon fill="white" stroke="transparent" points="-4,4 -4,-94 573,-94 573,4 -4,4"/>
<!-- 140644630777920 -->
<g id="node1" class="node">
<title>140644630777920</title>
<polygon fill="white" stroke="black" points="338,-63 251,-63 251,-27 338,-27 338,-63"/>
<text text-anchor="middle" x="294.5" y="-41.9" font-family="Times,serif" font-size="12.00">O_CREATED</text>
</g>
<!-- 140644631167952 -->
<g id="node7" class="node">
<title>140644631167952</title>
<ellipse fill="white" stroke="black" cx="401" cy="-45" rx="27" ry="27"/>
</g>
<!-- 140644630777920&#45;&gt;140644631167952 -->
<g id="edge6" class="edge">
<title>140644630777920&#45;&gt;140644631167952</title>
<path fill="none" stroke="black" d="M338,-45C346.51,-45 355.37,-45 363.64,-45"/>
<polygon fill="black" stroke="black" points="363.73,-48.5 373.73,-45 363.73,-41.5 363.73,-48.5"/>
</g>
<!-- 140644630778016 -->
<g id="node2" class="node">
<title>140644630778016</title>
<polygon fill="white" stroke="black" points="547.5,-90 485.5,-90 485.5,-54 547.5,-54 547.5,-90"/>
<text text-anchor="middle" x="516.5" y="-68.9" font-family="Times,serif" font-size="12.00">O_SENT</text>
</g>
<!-- 140644631170736 -->
<g id="node3" class="node">
<title>140644631170736</title>
<polygon fill="white" stroke="black" points="569,-36 464,-36 464,0 569,0 569,-36"/>
<text text-anchor="middle" x="516.5" y="-14.9" font-family="Times,serif" font-size="12.00">A_CANCELLED</text>
</g>
<!-- 140644631170352 -->
<g id="node4" class="node">
<title>140644631170352</title>
<polygon fill="white" stroke="black" points="109,-90 16,-90 16,-54 109,-54 109,-90"/>
<text text-anchor="middle" x="62.5" y="-68.9" font-family="Times,serif" font-size="12.00">O_SELECTED</text>
</g>
<!-- 140644631167712 -->
<g id="node6" class="node">
<title>140644631167712</title>
<ellipse fill="white" stroke="black" cx="188" cy="-45" rx="27" ry="27"/>
</g>
<!-- 140644631170352&#45;&gt;140644631167712 -->
<g id="edge4" class="edge">
<title>140644631170352&#45;&gt;140644631167712</title>
<path fill="none" stroke="black" d="M109.14,-62.02C123.02,-58.99 138.06,-55.7 151.2,-52.83"/>
<polygon fill="black" stroke="black" points="152.24,-56.18 161.26,-50.63 150.74,-49.34 152.24,-56.18"/>
</g>
<!-- 140644631168816 -->
<g id="node5" class="node">
<title>140644631168816</title>
<polygon fill="white" stroke="black" points="125,-36 0,-36 0,0 125,0 125,-36"/>
<text text-anchor="middle" x="62.5" y="-14.9" font-family="Times,serif" font-size="12.00">W_Valideren aanvraag</text>
</g>
<!-- 140644631168816&#45;&gt;140644631167712 -->
<g id="edge5" class="edge">
<title>140644631168816&#45;&gt;140644631167712</title>
<path fill="none" stroke="black" d="M125.25,-31.5C134.24,-33.47 143.23,-35.43 151.45,-37.23"/>
<polygon fill="black" stroke="black" points="150.89,-40.69 161.41,-39.41 152.39,-33.85 150.89,-40.69"/>
</g>
<!-- 140644631167712&#45;&gt;140644630777920 -->
<g id="edge1" class="edge">
<title>140644631167712&#45;&gt;140644630777920</title>
<path fill="none" stroke="black" d="M215.1,-45C222.83,-45 231.6,-45 240.4,-45"/>
<polygon fill="black" stroke="black" points="240.68,-48.5 250.68,-45 240.68,-41.5 240.68,-48.5"/>
</g>
<!-- 140644631167952&#45;&gt;140644630778016 -->
<g id="edge3" class="edge">
<title>140644631167952&#45;&gt;140644630778016</title>
<path fill="none" stroke="black" d="M427.47,-51.06C441.52,-54.4 459.28,-58.63 475.17,-62.41"/>
<polygon fill="black" stroke="black" points="474.74,-65.9 485.28,-64.81 476.36,-59.09 474.74,-65.9"/>
</g>
<!-- 140644631167952&#45;&gt;140644631170736 -->
<g id="edge2" class="edge">
<title>140644631167952&#45;&gt;140644631170736</title>
<path fill="none" stroke="black" d="M427.47,-38.94C435.43,-37.05 444.57,-34.87 453.9,-32.65"/>
<polygon fill="black" stroke="black" points="454.72,-36.06 463.64,-30.34 453.1,-29.25 454.72,-36.06"/>
</g>
</g>
</svg>
