<?xml version="1.0" encoding="UTF-8" standalone="no"?>
<!DOCTYPE svg PUBLIC "-//W3C//DTD SVG 1.1//EN"
 "http://www.w3.org/Graphics/SVG/1.1/DTD/svg11.dtd">
<!-- Generated by graphviz version 2.43.0 (0)
 -->
<!-- Title: imported_1692806100.1848207 Pages: 1 -->
<svg width="324pt" height="134pt"
 viewBox="0.00 0.00 324.00 134.00" xmlns="http://www.w3.org/2000/svg" xmlns:xlink="http://www.w3.org/1999/xlink">
<g id="graph0" class="graph" transform="scale(1 1) rotate(0) translate(4 130)">
<title>imported_1692806100.1848207</title>
<polygon fill="white" stroke="transparent" points="-4,4 -4,-130 320,-130 320,4 -4,4"/>
<!-- 140644630779696 -->
<g id="node1" class="node">
<title>140644630779696</title>
<polygon fill="white" stroke="black" points="315,-45 222,-45 222,-9 315,-9 315,-45"/>
<text text-anchor="middle" x="268.5" y="-23.9" font-family="Times,serif" font-size="12.00">O_SELECTED</text>
</g>
<!-- 140644630779456 -->
<g id="node2" class="node">
<title>140644630779456</title>
<polygon fill="white" stroke="black" points="95,-81 0,-81 0,-45 95,-45 95,-81"/>
<text text-anchor="middle" x="47.5" y="-59.9" font-family="Times,serif" font-size="12.00">A_ACCEPTED</text>
</g>
<!-- 140644630778928 -->
<g id="node4" class="node">
<title>140644630778928</title>
<ellipse fill="white" stroke="black" cx="158" cy="-99" rx="27" ry="27"/>
</g>
<!-- 140644630779456&#45;&gt;140644630778928 -->
<g id="edge3" class="edge">
<title>140644630779456&#45;&gt;140644630778928</title>
<path fill="none" stroke="black" d="M95.14,-78.48C104.31,-81.52 113.77,-84.66 122.45,-87.54"/>
<polygon fill="black" stroke="black" points="121.62,-90.95 132.22,-90.78 123.83,-84.31 121.62,-90.95"/>
</g>
<!-- 140644630779168 -->
<g id="node5" class="node">
<title>140644630779168</title>
<ellipse fill="white" stroke="black" cx="158" cy="-27" rx="27" ry="27"/>
</g>
<!-- 140644630779456&#45;&gt;140644630779168 -->
<g id="edge4" class="edge">
<title>140644630779456&#45;&gt;140644630779168</title>
<path fill="none" stroke="black" d="M95.14,-47.52C104.31,-44.48 113.77,-41.34 122.45,-38.46"/>
<polygon fill="black" stroke="black" points="123.83,-41.69 132.22,-35.22 121.62,-35.05 123.83,-41.69"/>
</g>
<!-- 140644630779744 -->
<g id="node3" class="node">
<title>140644630779744</title>
<polygon fill="white" stroke="black" points="316,-117 221,-117 221,-81 316,-81 316,-117"/>
<text text-anchor="middle" x="268.5" y="-95.9" font-family="Times,serif" font-size="12.00">A_FINALIZED</text>
</g>
<!-- 140644630778928&#45;&gt;140644630779744 -->
<g id="edge1" class="edge">
<title>140644630778928&#45;&gt;140644630779744</title>
<path fill="none" stroke="black" d="M185.26,-99C193.01,-99 201.81,-99 210.69,-99"/>
<polygon fill="black" stroke="black" points="210.71,-102.5 220.71,-99 210.71,-95.5 210.71,-102.5"/>
</g>
<!-- 140644630779168&#45;&gt;140644630779696 -->
<g id="edge2" class="edge">
<title>140644630779168&#45;&gt;140644630779696</title>
<path fill="none" stroke="black" d="M185.26,-27C193.37,-27 202.62,-27 211.93,-27"/>
<polygon fill="black" stroke="black" points="212,-30.5 222,-27 212,-23.5 212,-30.5"/>
</g>
</g>
</svg>
