<?xml version="1.0" encoding="UTF-8" standalone="no"?>
<!DOCTYPE svg PUBLIC "-//W3C//DTD SVG 1.1//EN"
 "http://www.w3.org/Graphics/SVG/1.1/DTD/svg11.dtd">
<!-- Generated by graphviz version 2.43.0 (0)
 -->
<!-- Title: imported_1692806100.418539 Pages: 1 -->
<svg width="504pt" height="62pt"
 viewBox="0.00 0.00 504.00 62.00" xmlns="http://www.w3.org/2000/svg" xmlns:xlink="http://www.w3.org/1999/xlink">
<g id="graph0" class="graph" transform="scale(1 1) rotate(0) translate(4 58)">
<title>imported_1692806100.418539</title>
<polygon fill="white" stroke="transparent" points="-4,4 -4,-58 500,-58 500,4 -4,4"/>
<!-- 140644630780560 -->
<g id="node1" class="node">
<title>140644630780560</title>
<polygon fill="white" stroke="black" points="496,-45 434,-45 434,-9 496,-9 496,-45"/>
<text text-anchor="middle" x="465" y="-23.9" font-family="Times,serif" font-size="12.00">O_SENT</text>
</g>
<!-- 140644630780368 -->
<g id="node2" class="node">
<title>140644630780368</title>
<polygon fill="white" stroke="black" points="308,-45 221,-45 221,-9 308,-9 308,-45"/>
<text text-anchor="middle" x="264.5" y="-23.9" font-family="Times,serif" font-size="12.00">O_CREATED</text>
</g>
<!-- 140644630780224 -->
<g id="node4" class="node">
<title>140644630780224</title>
<ellipse fill="white" stroke="black" cx="371" cy="-27" rx="27" ry="27"/>
</g>
<!-- 140644630780368&#45;&gt;140644630780224 -->
<g id="edge4" class="edge">
<title>140644630780368&#45;&gt;140644630780224</title>
<path fill="none" stroke="black" d="M308,-27C316.51,-27 325.37,-27 333.64,-27"/>
<polygon fill="black" stroke="black" points="333.73,-30.5 343.73,-27 333.73,-23.5 333.73,-30.5"/>
</g>
<!-- 140644630780608 -->
<g id="node3" class="node">
<title>140644630780608</title>
<polygon fill="white" stroke="black" points="95,-45 0,-45 0,-9 95,-9 95,-45"/>
<text text-anchor="middle" x="47.5" y="-23.9" font-family="Times,serif" font-size="12.00">A_FINALIZED</text>
</g>
<!-- 140644630780320 -->
<g id="node5" class="node">
<title>140644630780320</title>
<ellipse fill="white" stroke="black" cx="158" cy="-27" rx="27" ry="27"/>
</g>
<!-- 140644630780608&#45;&gt;140644630780320 -->
<g id="edge3" class="edge">
<title>140644630780608&#45;&gt;140644630780320</title>
<path fill="none" stroke="black" d="M95.14,-27C103.61,-27 112.33,-27 120.45,-27"/>
<polygon fill="black" stroke="black" points="120.72,-30.5 130.72,-27 120.72,-23.5 120.72,-30.5"/>
</g>
<!-- 140644630780224&#45;&gt;140644630780560 -->
<g id="edge1" class="edge">
<title>140644630780224&#45;&gt;140644630780560</title>
<path fill="none" stroke="black" d="M398.12,-27C406.14,-27 415.15,-27 423.88,-27"/>
<polygon fill="black" stroke="black" points="423.92,-30.5 433.92,-27 423.92,-23.5 423.92,-30.5"/>
</g>
<!-- 140644630780320&#45;&gt;140644630780368 -->
<g id="edge2" class="edge">
<title>140644630780320&#45;&gt;140644630780368</title>
<path fill="none" stroke="black" d="M185.1,-27C192.83,-27 201.6,-27 210.4,-27"/>
<polygon fill="black" stroke="black" points="210.68,-30.5 220.68,-27 210.68,-23.5 210.68,-30.5"/>
</g>
</g>
</svg>
