<?xml version="1.0" encoding="UTF-8" standalone="no"?>
<!DOCTYPE svg PUBLIC "-//W3C//DTD SVG 1.1//EN"
 "http://www.w3.org/Graphics/SVG/1.1/DTD/svg11.dtd">
<!-- Generated by graphviz version 2.43.0 (0)
 -->
<!-- Title: imported_1692806100.6186223 Pages: 1 -->
<svg width="590pt" height="98pt"
 viewBox="0.00 0.00 590.00 98.00" xmlns="http://www.w3.org/2000/svg" xmlns:xlink="http://www.w3.org/1999/xlink">
<g id="graph0" class="graph" transform="scale(1 1) rotate(0) translate(4 94)">
<title>imported_1692806100.6186223</title>
<polygon fill="white" stroke="transparent" points="-4,4 -4,-94 586,-94 586,4 -4,4"/>
<!-- 140644630781664 -->
<g id="node1" class="node">
<title>140644630781664</title>
<polygon fill="white" stroke="black" points="338,-63 251,-63 251,-27 338,-27 338,-63"/>
<text text-anchor="middle" x="294.5" y="-41.9" font-family="Times,serif" font-size="12.00">O_CREATED</text>
</g>
<!-- 140644630781376 -->
<g id="node6" class="node">
<title>140644630781376</title>
<ellipse fill="white" stroke="black" cx="401" cy="-45" rx="27" ry="27"/>
</g>
<!-- 140644630781664&#45;&gt;140644630781376 -->
<g id="edge6" class="edge">
<title>140644630781664&#45;&gt;140644630781376</title>
<path fill="none" stroke="black" d="M338,-45C346.51,-45 355.37,-45 363.64,-45"/>
<polygon fill="black" stroke="black" points="363.73,-48.5 373.73,-45 363.73,-41.5 363.73,-48.5"/>
</g>
<!-- 140644630781856 -->
<g id="node2" class="node">
<title>140644630781856</title>
<polygon fill="white" stroke="black" points="554,-90 492,-90 492,-54 554,-54 554,-90"/>
<text text-anchor="middle" x="523" y="-68.9" font-family="Times,serif" font-size="12.00">O_SENT</text>
</g>
<!-- 140644630781808 -->
<g id="node3" class="node">
<title>140644630781808</title>
<polygon fill="white" stroke="black" points="109,-90 16,-90 16,-54 109,-54 109,-90"/>
<text text-anchor="middle" x="62.5" y="-68.9" font-family="Times,serif" font-size="12.00">O_SELECTED</text>
</g>
<!-- 140644630781568 -->
<g id="node7" class="node">
<title>140644630781568</title>
<ellipse fill="white" stroke="black" cx="188" cy="-45" rx="27" ry="27"/>
</g>
<!-- 140644630781808&#45;&gt;140644630781568 -->
<g id="edge4" class="edge">
<title>140644630781808&#45;&gt;140644630781568</title>
<path fill="none" stroke="black" d="M109.14,-62.02C123.02,-58.99 138.06,-55.7 151.2,-52.83"/>
<polygon fill="black" stroke="black" points="152.24,-56.18 161.26,-50.63 150.74,-49.34 152.24,-56.18"/>
</g>
<!-- 140644630781040 -->
<g id="node4" class="node">
<title>140644630781040</title>
<polygon fill="white" stroke="black" points="582,-36 464,-36 464,0 582,0 582,-36"/>
<text text-anchor="middle" x="523" y="-14.9" font-family="Times,serif" font-size="12.00">A_PREACCEPTED</text>
</g>
<!-- 140644630781328 -->
<g id="node5" class="node">
<title>140644630781328</title>
<polygon fill="white" stroke="black" points="125,-36 0,-36 0,0 125,0 125,-36"/>
<text text-anchor="middle" x="62.5" y="-14.9" font-family="Times,serif" font-size="12.00">W_Valideren aanvraag</text>
</g>
<!-- 140644630781328&#45;&gt;140644630781568 -->
<g id="edge5" class="edge">
<title>140644630781328&#45;&gt;140644630781568</title>
<path fill="none" stroke="black" d="M125.25,-31.5C134.24,-33.47 143.23,-35.43 151.45,-37.23"/>
<polygon fill="black" stroke="black" points="150.89,-40.69 161.41,-39.41 152.39,-33.85 150.89,-40.69"/>
</g>
<!-- 140644630781376&#45;&gt;140644630781856 -->
<g id="edge1" class="edge">
<title>140644630781376&#45;&gt;140644630781856</title>
<path fill="none" stroke="black" d="M427.45,-50.73C443.28,-54.29 463.98,-58.95 481.98,-62.99"/>
<polygon fill="black" stroke="black" points="481.4,-66.45 491.92,-65.23 482.93,-59.62 481.4,-66.45"/>
</g>
<!-- 140644630781376&#45;&gt;140644630781040 -->
<g id="edge2" class="edge">
<title>140644630781376&#45;&gt;140644630781040</title>
<path fill="none" stroke="black" d="M427.45,-39.27C435.41,-37.48 444.61,-35.41 454.08,-33.28"/>
<polygon fill="black" stroke="black" points="455.01,-36.66 464,-31.05 453.47,-29.83 455.01,-36.66"/>
</g>
<!-- 140644630781568&#45;&gt;140644630781664 -->
<g id="edge3" class="edge">
<title>140644630781568&#45;&gt;140644630781664</title>
<path fill="none" stroke="black" d="M215.1,-45C222.83,-45 231.6,-45 240.4,-45"/>
<polygon fill="black" stroke="black" points="240.68,-48.5 250.68,-45 240.68,-41.5 240.68,-48.5"/>
</g>
</g>
</svg>
