<?xml version="1.0" encoding="UTF-8" standalone="no"?>
<!DOCTYPE svg PUBLIC "-//W3C//DTD SVG 1.1//EN"
 "http://www.w3.org/Graphics/SVG/1.1/DTD/svg11.dtd">
<!-- Generated by graphviz version 2.43.0 (0)
 -->
<!-- Title: imported_1688044906.0417545 Pages: 1 -->
<svg width="1071pt" height="134pt"
 viewBox="0.00 0.00 1071.00 134.00" xmlns="http://www.w3.org/2000/svg" xmlns:xlink="http://www.w3.org/1999/xlink">
<g id="graph0" class="graph" transform="scale(1 1) rotate(0) translate(4 130)">
<title>imported_1688044906.0417545</title>
<polygon fill="white" stroke="transparent" points="-4,4 -4,-130 1067,-130 1067,4 -4,4"/>
<!-- 140465201905728 -->
<g id="node1" class="node">
<title>140465201905728</title>
<polygon fill="white" stroke="black" points="168,-117 0,-117 0,-81 168,-81 168,-117"/>
<text text-anchor="middle" x="84" y="-95.9" font-family="Times,serif" font-size="12.00">Insert Date Appeal to Prefecture</text>
</g>
<!-- 140465201906112 -->
<g id="node9" class="node">
<title>140465201906112</title>
<ellipse fill="white" stroke="black" cx="231" cy="-99" rx="27" ry="27"/>
</g>
<!-- 140465201905728&#45;&gt;140465201906112 -->
<g id="edge5" class="edge">
<title>140465201905728&#45;&gt;140465201906112</title>
<path fill="none" stroke="black" d="M168.09,-99C176.96,-99 185.62,-99 193.51,-99"/>
<polygon fill="black" stroke="black" points="193.75,-102.5 203.75,-99 193.75,-95.5 193.75,-102.5"/>
</g>
<!-- 140465201906208 -->
<g id="node2" class="node">
<title>140465201906208</title>
<polygon fill="white" stroke="black" points="796,-117 621,-117 621,-81 796,-81 796,-117"/>
<text text-anchor="middle" x="708.5" y="-95.9" font-family="Times,serif" font-size="12.00">Notify Result Appeal to Offender</text>
</g>
<!-- 140465201907168 -->
<g id="node8" class="node">
<title>140465201907168</title>
<ellipse fill="white" stroke="black" cx="859" cy="-99" rx="27" ry="27"/>
</g>
<!-- 140465201906208&#45;&gt;140465201907168 -->
<g id="edge7" class="edge">
<title>140465201906208&#45;&gt;140465201907168</title>
<path fill="none" stroke="black" d="M796.31,-99C805.21,-99 813.87,-99 821.74,-99"/>
<polygon fill="black" stroke="black" points="821.94,-102.5 831.94,-99 821.94,-95.5 821.94,-102.5"/>
</g>
<!-- 140468994173536 -->
<g id="node3" class="node">
<title>140468994173536</title>
<polygon fill="white" stroke="black" points="778.5,-45 638.5,-45 638.5,-9 778.5,-9 778.5,-45"/>
<text text-anchor="middle" x="708.5" y="-23.9" font-family="Times,serif" font-size="12.00">Send Appeal to Prefecture</text>
</g>
<!-- 140465201908224 -->
<g id="node6" class="node">
<title>140465201908224</title>
<ellipse fill="white" stroke="black" cx="859" cy="-27" rx="27" ry="27"/>
</g>
<!-- 140468994173536&#45;&gt;140465201908224 -->
<g id="edge8" class="edge">
<title>140468994173536&#45;&gt;140465201908224</title>
<path fill="none" stroke="black" d="M778.53,-27C793.33,-27 808.4,-27 821.38,-27"/>
<polygon fill="black" stroke="black" points="821.75,-30.5 831.75,-27 821.75,-23.5 821.75,-30.5"/>
</g>
<!-- 140468994172048 -->
<g id="node4" class="node">
<title>140468994172048</title>
<polygon fill="white" stroke="black" points="1063,-81 922,-81 922,-45 1063,-45 1063,-81"/>
<text text-anchor="middle" x="992.5" y="-59.9" font-family="Times,serif" font-size="12.00">Send for Credit Collection</text>
</g>
<!-- 140465201906064 -->
<g id="node5" class="node">
<title>140465201906064</title>
<polygon fill="white" stroke="black" points="495,-117 294,-117 294,-81 495,-81 495,-117"/>
<text text-anchor="middle" x="394.5" y="-95.9" font-family="Times,serif" font-size="12.00">Receive Result Appeal from Prefecture</text>
</g>
<!-- 140465201908656 -->
<g id="node7" class="node">
<title>140465201908656</title>
<ellipse fill="white" stroke="black" cx="558" cy="-99" rx="27" ry="27"/>
</g>
<!-- 140465201906064&#45;&gt;140465201908656 -->
<g id="edge6" class="edge">
<title>140465201906064&#45;&gt;140465201908656</title>
<path fill="none" stroke="black" d="M495.02,-99C504.04,-99 512.72,-99 520.59,-99"/>
<polygon fill="black" stroke="black" points="520.77,-102.5 530.77,-99 520.77,-95.5 520.77,-102.5"/>
</g>
<!-- 140465201908224&#45;&gt;140468994172048 -->
<g id="edge1" class="edge">
<title>140465201908224&#45;&gt;140468994172048</title>
<path fill="none" stroke="black" d="M885.35,-33.94C894.3,-36.39 904.88,-39.29 915.83,-42.28"/>
<polygon fill="black" stroke="black" points="914.95,-45.67 925.52,-44.94 916.8,-38.92 914.95,-45.67"/>
</g>
<!-- 140465201908656&#45;&gt;140465201906208 -->
<g id="edge2" class="edge">
<title>140465201908656&#45;&gt;140465201906208</title>
<path fill="none" stroke="black" d="M585.21,-99C592.73,-99 601.4,-99 610.59,-99"/>
<polygon fill="black" stroke="black" points="610.73,-102.5 620.73,-99 610.72,-95.5 610.73,-102.5"/>
</g>
<!-- 140465201907168&#45;&gt;140468994172048 -->
<g id="edge3" class="edge">
<title>140465201907168&#45;&gt;140468994172048</title>
<path fill="none" stroke="black" d="M885.35,-92.06C894.3,-89.61 904.88,-86.71 915.83,-83.72"/>
<polygon fill="black" stroke="black" points="916.8,-87.08 925.52,-81.06 914.95,-80.33 916.8,-87.08"/>
</g>
<!-- 140465201906112&#45;&gt;140465201906064 -->
<g id="edge4" class="edge">
<title>140465201906112&#45;&gt;140465201906064</title>
<path fill="none" stroke="black" d="M258.31,-99C265.79,-99 274.44,-99 283.68,-99"/>
<polygon fill="black" stroke="black" points="283.9,-102.5 293.9,-99 283.9,-95.5 283.9,-102.5"/>
</g>
</g>
</svg>
