<?xml version="1.0" encoding="UTF-8" standalone="no"?>
<!DOCTYPE svg PUBLIC "-//W3C//DTD SVG 1.1//EN"
 "http://www.w3.org/Graphics/SVG/1.1/DTD/svg11.dtd">
<!-- Generated by graphviz version 2.43.0 (0)
 -->
<!-- Title: imported_1688044898.4798253 Pages: 1 -->
<svg width="776pt" height="134pt"
 viewBox="0.00 0.00 776.00 134.00" xmlns="http://www.w3.org/2000/svg" xmlns:xlink="http://www.w3.org/1999/xlink">
<g id="graph0" class="graph" transform="scale(1 1) rotate(0) translate(4 130)">
<title>imported_1688044898.4798253</title>
<polygon fill="white" stroke="transparent" points="-4,4 -4,-130 772,-130 772,4 -4,4"/>
<!-- 140468994172864 -->
<g id="node1" class="node">
<title>140468994172864</title>
<polygon fill="white" stroke="black" points="450.5,-45 282.5,-45 282.5,-9 450.5,-9 450.5,-45"/>
<text text-anchor="middle" x="366.5" y="-23.9" font-family="Times,serif" font-size="12.00">Insert Date Appeal to Prefecture</text>
</g>
<!-- 140468994170944 -->
<g id="node9" class="node">
<title>140468994170944</title>
<ellipse fill="white" stroke="black" cx="530" cy="-27" rx="27" ry="27"/>
</g>
<!-- 140468994172864&#45;&gt;140468994170944 -->
<g id="edge5" class="edge">
<title>140468994172864&#45;&gt;140468994170944</title>
<path fill="none" stroke="black" d="M450.62,-27C465.47,-27 480.22,-27 492.84,-27"/>
<polygon fill="black" stroke="black" points="492.91,-30.5 502.91,-27 492.91,-23.5 492.91,-30.5"/>
</g>
<!-- 140468994171520 -->
<g id="node2" class="node">
<title>140468994171520</title>
<polygon fill="white" stroke="black" points="140,-117 0,-117 0,-81 140,-81 140,-117"/>
<text text-anchor="middle" x="70" y="-95.9" font-family="Times,serif" font-size="12.00">Send Appeal to Prefecture</text>
</g>
<!-- 140468994174736 -->
<g id="node7" class="node">
<title>140468994174736</title>
<ellipse fill="white" stroke="black" cx="203" cy="-99" rx="27" ry="27"/>
</g>
<!-- 140468994171520&#45;&gt;140468994174736 -->
<g id="edge7" class="edge">
<title>140468994171520&#45;&gt;140468994174736</title>
<path fill="none" stroke="black" d="M140.34,-99C149.13,-99 157.82,-99 165.79,-99"/>
<polygon fill="black" stroke="black" points="165.8,-102.5 175.8,-99 165.8,-95.5 165.8,-102.5"/>
</g>
<!-- 140468994173056 -->
<g id="node3" class="node">
<title>140468994173056</title>
<polygon fill="white" stroke="black" points="467,-117 266,-117 266,-81 467,-81 467,-117"/>
<text text-anchor="middle" x="366.5" y="-95.9" font-family="Times,serif" font-size="12.00">Receive Result Appeal from Prefecture</text>
</g>
<!-- 140468994171328 -->
<g id="node8" class="node">
<title>140468994171328</title>
<ellipse fill="white" stroke="black" cx="530" cy="-99" rx="27" ry="27"/>
</g>
<!-- 140468994173056&#45;&gt;140468994171328 -->
<g id="edge6" class="edge">
<title>140468994173056&#45;&gt;140468994171328</title>
<path fill="none" stroke="black" d="M467.02,-99C476.04,-99 484.72,-99 492.59,-99"/>
<polygon fill="black" stroke="black" points="492.77,-102.5 502.77,-99 492.77,-95.5 492.77,-102.5"/>
</g>
<!-- 140468994172576 -->
<g id="node4" class="node">
<title>140468994172576</title>
<polygon fill="white" stroke="black" points="133,-45 7,-45 7,-9 133,-9 133,-45"/>
<text text-anchor="middle" x="70" y="-23.9" font-family="Times,serif" font-size="12.00">Insert Fine Notification</text>
</g>
<!-- 140468994173344 -->
<g id="node6" class="node">
<title>140468994173344</title>
<ellipse fill="white" stroke="black" cx="203" cy="-27" rx="27" ry="27"/>
</g>
<!-- 140468994172576&#45;&gt;140468994173344 -->
<g id="edge8" class="edge">
<title>140468994172576&#45;&gt;140468994173344</title>
<path fill="none" stroke="black" d="M133.05,-27C144.24,-27 155.56,-27 165.71,-27"/>
<polygon fill="black" stroke="black" points="165.81,-30.5 175.81,-27 165.81,-23.5 165.81,-30.5"/>
</g>
<!-- 140468994172096 -->
<g id="node5" class="node">
<title>140468994172096</title>
<polygon fill="white" stroke="black" points="768,-81 593,-81 593,-45 768,-45 768,-81"/>
<text text-anchor="middle" x="680.5" y="-59.9" font-family="Times,serif" font-size="12.00">Notify Result Appeal to Offender</text>
</g>
<!-- 140468994173344&#45;&gt;140468994172864 -->
<g id="edge1" class="edge">
<title>140468994173344&#45;&gt;140468994172864</title>
<path fill="none" stroke="black" d="M230.31,-27C242.11,-27 256.82,-27 272.15,-27"/>
<polygon fill="black" stroke="black" points="272.29,-30.5 282.29,-27 272.29,-23.5 272.29,-30.5"/>
</g>
<!-- 140468994174736&#45;&gt;140468994173056 -->
<g id="edge2" class="edge">
<title>140468994174736&#45;&gt;140468994173056</title>
<path fill="none" stroke="black" d="M230.31,-99C237.79,-99 246.44,-99 255.68,-99"/>
<polygon fill="black" stroke="black" points="255.9,-102.5 265.9,-99 255.9,-95.5 255.9,-102.5"/>
</g>
<!-- 140468994171328&#45;&gt;140468994172096 -->
<g id="edge3" class="edge">
<title>140468994171328&#45;&gt;140468994172096</title>
<path fill="none" stroke="black" d="M556.53,-92.81C567.58,-90.13 581.21,-86.83 595.32,-83.41"/>
<polygon fill="black" stroke="black" points="596.25,-86.78 605.14,-81.03 594.6,-79.98 596.25,-86.78"/>
</g>
<!-- 140468994170944&#45;&gt;140468994172096 -->
<g id="edge4" class="edge">
<title>140468994170944&#45;&gt;140468994172096</title>
<path fill="none" stroke="black" d="M556.53,-33.19C567.58,-35.87 581.21,-39.17 595.32,-42.59"/>
<polygon fill="black" stroke="black" points="594.6,-46.02 605.14,-44.97 596.25,-39.22 594.6,-46.02"/>
</g>
</g>
</svg>
