<?xml version="1.0" encoding="UTF-8" standalone="no"?>
<!DOCTYPE svg PUBLIC "-//W3C//DTD SVG 1.1//EN"
 "http://www.w3.org/Graphics/SVG/1.1/DTD/svg11.dtd">
<!-- Generated by graphviz version 2.43.0 (0)
 -->
<!-- Title: imported_1688044907.3514805 Pages: 1 -->
<svg width="988pt" height="134pt"
 viewBox="0.00 0.00 988.00 134.00" xmlns="http://www.w3.org/2000/svg" xmlns:xlink="http://www.w3.org/1999/xlink">
<g id="graph0" class="graph" transform="scale(1 1) rotate(0) translate(4 130)">
<title>imported_1688044907.3514805</title>
<polygon fill="white" stroke="transparent" points="-4,4 -4,-130 984,-130 984,4 -4,4"/>
<!-- 140468994170944 -->
<g id="node1" class="node">
<title>140468994170944</title>
<polygon fill="white" stroke="black" points="168,-81 0,-81 0,-45 168,-45 168,-81"/>
<text text-anchor="middle" x="84" y="-59.9" font-family="Times,serif" font-size="12.00">Insert Date Appeal to Prefecture</text>
</g>
<!-- 140468994174592 -->
<g id="node8" class="node">
<title>140468994174592</title>
<ellipse fill="white" stroke="black" cx="231" cy="-99" rx="27" ry="27"/>
</g>
<!-- 140468994170944&#45;&gt;140468994174592 -->
<g id="edge7" class="edge">
<title>140468994170944&#45;&gt;140468994174592</title>
<path fill="none" stroke="black" d="M157.92,-81.11C170.78,-84.3 183.61,-87.48 194.81,-90.26"/>
<polygon fill="black" stroke="black" points="194.04,-93.68 204.59,-92.69 195.73,-86.88 194.04,-93.68"/>
</g>
<!-- 140468994174640 -->
<g id="node9" class="node">
<title>140468994174640</title>
<ellipse fill="white" stroke="black" cx="231" cy="-27" rx="27" ry="27"/>
</g>
<!-- 140468994170944&#45;&gt;140468994174640 -->
<g id="edge8" class="edge">
<title>140468994170944&#45;&gt;140468994174640</title>
<path fill="none" stroke="black" d="M157.92,-44.89C170.78,-41.7 183.61,-38.52 194.81,-35.74"/>
<polygon fill="black" stroke="black" points="195.73,-39.12 204.59,-33.31 194.04,-32.32 195.73,-39.12"/>
</g>
<!-- 140468994171232 -->
<g id="node2" class="node">
<title>140468994171232</title>
<polygon fill="white" stroke="black" points="469,-116 294,-116 294,-80 469,-80 469,-116"/>
<text text-anchor="middle" x="381.5" y="-94.9" font-family="Times,serif" font-size="12.00">Notify Result Appeal to Offender</text>
</g>
<!-- 140468994171424 -->
<g id="node10" class="node">
<title>140468994171424</title>
<ellipse fill="white" stroke="black" cx="695.5" cy="-98" rx="27" ry="27"/>
</g>
<!-- 140468994171232&#45;&gt;140468994171424 -->
<g id="edge10" class="edge">
<title>140468994171232&#45;&gt;140468994171424</title>
<path fill="none" stroke="black" d="M469.41,-98C531.64,-98 612.25,-98 658.18,-98"/>
<polygon fill="black" stroke="black" points="658.26,-101.5 668.26,-98 658.26,-94.5 658.26,-101.5"/>
</g>
<!-- 140468994171760 -->
<g id="node3" class="node">
<title>140468994171760</title>
<polygon fill="white" stroke="black" points="980,-83 922,-83 922,-47 980,-47 980,-83"/>
<text text-anchor="middle" x="951" y="-61.9" font-family="Times,serif" font-size="12.00">Payment</text>
</g>
<!-- 140468994173584 -->
<g id="node4" class="node">
<title>140468994173584</title>
<polygon fill="white" stroke="black" points="451.5,-49 311.5,-49 311.5,-13 451.5,-13 451.5,-49"/>
<text text-anchor="middle" x="381.5" y="-27.9" font-family="Times,serif" font-size="12.00">Send Appeal to Prefecture</text>
</g>
<!-- 140468994174064 -->
<g id="node6" class="node">
<title>140468994174064</title>
<ellipse fill="white" stroke="black" cx="532" cy="-33" rx="27" ry="27"/>
</g>
<!-- 140468994173584&#45;&gt;140468994174064 -->
<g id="edge2" class="edge">
<title>140468994173584&#45;&gt;140468994174064</title>
<path fill="none" stroke="black" d="M451.53,-31.93C466.33,-32.13 481.4,-32.33 494.38,-32.51"/>
<polygon fill="black" stroke="black" points="494.7,-36.01 504.75,-32.65 494.79,-29.01 494.7,-36.01"/>
</g>
<!-- 140468994173392 -->
<g id="node5" class="node">
<title>140468994173392</title>
<polygon fill="white" stroke="black" points="796,-52 595,-52 595,-16 796,-16 796,-52"/>
<text text-anchor="middle" x="695.5" y="-30.9" font-family="Times,serif" font-size="12.00">Receive Result Appeal from Prefecture</text>
</g>
<!-- 140468994172672 -->
<g id="node7" class="node">
<title>140468994172672</title>
<ellipse fill="white" stroke="black" cx="859" cy="-38" rx="27" ry="27"/>
</g>
<!-- 140468994173392&#45;&gt;140468994172672 -->
<g id="edge9" class="edge">
<title>140468994173392&#45;&gt;140468994172672</title>
<path fill="none" stroke="black" d="M796.02,-36.46C805.04,-36.69 813.72,-36.9 821.59,-37.1"/>
<polygon fill="black" stroke="black" points="821.69,-40.6 831.77,-37.35 821.86,-33.6 821.69,-40.6"/>
</g>
<!-- 140468994174064&#45;&gt;140468994173392 -->
<g id="edge1" class="edge">
<title>140468994174064&#45;&gt;140468994173392</title>
<path fill="none" stroke="black" d="M559.31,-33.16C566.79,-33.21 575.44,-33.26 584.68,-33.32"/>
<polygon fill="black" stroke="black" points="584.88,-36.82 594.9,-33.38 584.92,-29.82 584.88,-36.82"/>
</g>
<!-- 140468994172672&#45;&gt;140468994171760 -->
<g id="edge3" class="edge">
<title>140468994172672&#45;&gt;140468994171760</title>
<path fill="none" stroke="black" d="M885.07,-45.52C893.47,-48.04 903.04,-50.91 912.2,-53.66"/>
<polygon fill="black" stroke="black" points="911.31,-57.05 921.9,-56.57 913.32,-50.34 911.31,-57.05"/>
</g>
<!-- 140468994174592&#45;&gt;140468994171232 -->
<g id="edge4" class="edge">
<title>140468994174592&#45;&gt;140468994171232</title>
<path fill="none" stroke="black" d="M258.21,-98.82C265.73,-98.77 274.4,-98.71 283.59,-98.65"/>
<polygon fill="black" stroke="black" points="283.75,-102.15 293.73,-98.58 283.7,-95.15 283.75,-102.15"/>
</g>
<!-- 140468994174640&#45;&gt;140468994173584 -->
<g id="edge5" class="edge">
<title>140468994174640&#45;&gt;140468994173584</title>
<path fill="none" stroke="black" d="M258.21,-27.71C270.36,-28.03 285.53,-28.44 301.01,-28.86"/>
<polygon fill="black" stroke="black" points="301.1,-32.36 311.19,-29.13 301.29,-25.37 301.1,-32.36"/>
</g>
<!-- 140468994171424&#45;&gt;140468994171760 -->
<g id="edge6" class="edge">
<title>140468994171424&#45;&gt;140468994171760</title>
<path fill="none" stroke="black" d="M722.57,-94.81C759.12,-90.32 827.66,-81.8 886,-74 894.38,-72.88 903.37,-71.64 911.89,-70.45"/>
<polygon fill="black" stroke="black" points="912.56,-73.89 921.97,-69.03 911.58,-66.96 912.56,-73.89"/>
</g>
</g>
</svg>
