<?xml version="1.0" encoding="UTF-8" standalone="no"?>
<!DOCTYPE svg PUBLIC "-//W3C//DTD SVG 1.1//EN"
 "http://www.w3.org/Graphics/SVG/1.1/DTD/svg11.dtd">
<!-- Generated by graphviz version 2.43.0 (0)
 -->
<!-- Title: imported_1688044907.2446778 Pages: 1 -->
<svg width="1254pt" height="124pt"
 viewBox="0.00 0.00 1254.00 124.00" xmlns="http://www.w3.org/2000/svg" xmlns:xlink="http://www.w3.org/1999/xlink">
<g id="graph0" class="graph" transform="scale(1 1) rotate(0) translate(4 120)">
<title>imported_1688044907.2446778</title>
<polygon fill="white" stroke="transparent" points="-4,4 -4,-120 1250,-120 1250,4 -4,4"/>
<!-- 140465201905728 -->
<g id="node1" class="node">
<title>140465201905728</title>
<polygon fill="white" stroke="black" points="1062,-78 887,-78 887,-42 1062,-42 1062,-78"/>
<text text-anchor="middle" x="974.5" y="-56.9" font-family="Times,serif" font-size="12.00">Notify Result Appeal to Offender</text>
</g>
<!-- 140465201908224 -->
<g id="node10" class="node">
<title>140465201908224</title>
<ellipse fill="white" stroke="black" cx="1125" cy="-60" rx="27" ry="27"/>
</g>
<!-- 140465201905728&#45;&gt;140465201908224 -->
<g id="edge10" class="edge">
<title>140465201905728&#45;&gt;140465201908224</title>
<path fill="none" stroke="black" d="M1062.31,-60C1071.21,-60 1079.87,-60 1087.74,-60"/>
<polygon fill="black" stroke="black" points="1087.94,-63.5 1097.94,-60 1087.94,-56.5 1087.94,-63.5"/>
</g>
<!-- 140465201906784 -->
<g id="node2" class="node">
<title>140465201906784</title>
<polygon fill="white" stroke="black" points="168,-75 0,-75 0,-39 168,-39 168,-75"/>
<text text-anchor="middle" x="84" y="-53.9" font-family="Times,serif" font-size="12.00">Insert Date Appeal to Prefecture</text>
</g>
<!-- 140465201908704 -->
<g id="node8" class="node">
<title>140465201908704</title>
<ellipse fill="white" stroke="black" cx="364" cy="-89" rx="27" ry="27"/>
</g>
<!-- 140465201906784&#45;&gt;140465201908704 -->
<g id="edge7" class="edge">
<title>140465201906784&#45;&gt;140465201908704</title>
<path fill="none" stroke="black" d="M168.03,-66.56C220.91,-72.64 286.75,-80.22 326.79,-84.83"/>
<polygon fill="black" stroke="black" points="326.55,-88.33 336.88,-85.99 327.35,-81.37 326.55,-88.33"/>
</g>
<!-- 140465201908416 -->
<g id="node9" class="node">
<title>140465201908416</title>
<ellipse fill="white" stroke="black" cx="231" cy="-30" rx="27" ry="27"/>
</g>
<!-- 140465201906784&#45;&gt;140465201908416 -->
<g id="edge8" class="edge">
<title>140465201906784&#45;&gt;140465201908416</title>
<path fill="none" stroke="black" d="M168.09,-41.53C177.34,-39.81 186.36,-38.13 194.52,-36.61"/>
<polygon fill="black" stroke="black" points="195.17,-40.05 204.36,-34.77 193.89,-33.16 195.17,-40.05"/>
</g>
<!-- 140465201906352 -->
<g id="node3" class="node">
<title>140465201906352</title>
<polygon fill="white" stroke="black" points="1246,-78 1188,-78 1188,-42 1246,-42 1246,-78"/>
<text text-anchor="middle" x="1217" y="-56.9" font-family="Times,serif" font-size="12.00">Payment</text>
</g>
<!-- 140465201906928 -->
<g id="node4" class="node">
<title>140465201906928</title>
<polygon fill="white" stroke="black" points="761,-47 560,-47 560,-11 761,-11 761,-47"/>
<text text-anchor="middle" x="660.5" y="-25.9" font-family="Times,serif" font-size="12.00">Receive Result Appeal from Prefecture</text>
</g>
<!-- 140465201908080 -->
<g id="node7" class="node">
<title>140465201908080</title>
<ellipse fill="white" stroke="black" cx="824" cy="-33" rx="27" ry="27"/>
</g>
<!-- 140465201906928&#45;&gt;140465201908080 -->
<g id="edge9" class="edge">
<title>140465201906928&#45;&gt;140465201908080</title>
<path fill="none" stroke="black" d="M761.02,-31.46C770.04,-31.69 778.72,-31.9 786.59,-32.1"/>
<polygon fill="black" stroke="black" points="786.69,-35.6 796.77,-32.35 786.86,-28.6 786.69,-35.6"/>
</g>
<!-- 140465201908176 -->
<g id="node5" class="node">
<title>140465201908176</title>
<polygon fill="white" stroke="black" points="434,-44 294,-44 294,-8 434,-8 434,-44"/>
<text text-anchor="middle" x="364" y="-22.9" font-family="Times,serif" font-size="12.00">Send Appeal to Prefecture</text>
</g>
<!-- 140465201663952 -->
<g id="node6" class="node">
<title>140465201663952</title>
<ellipse fill="white" stroke="black" cx="497" cy="-27" rx="27" ry="27"/>
</g>
<!-- 140465201908176&#45;&gt;140465201663952 -->
<g id="edge2" class="edge">
<title>140465201908176&#45;&gt;140465201663952</title>
<path fill="none" stroke="black" d="M434.34,-26.53C443.13,-26.6 451.82,-26.66 459.79,-26.72"/>
<polygon fill="black" stroke="black" points="459.77,-30.22 469.8,-26.8 459.82,-23.22 459.77,-30.22"/>
</g>
<!-- 140465201663952&#45;&gt;140465201906928 -->
<g id="edge1" class="edge">
<title>140465201663952&#45;&gt;140465201906928</title>
<path fill="none" stroke="black" d="M524.31,-27.33C531.79,-27.42 540.44,-27.53 549.68,-27.64"/>
<polygon fill="black" stroke="black" points="549.86,-31.14 559.9,-27.77 549.94,-24.14 549.86,-31.14"/>
</g>
<!-- 140465201908080&#45;&gt;140465201905728 -->
<g id="edge3" class="edge">
<title>140465201908080&#45;&gt;140465201905728</title>
<path fill="none" stroke="black" d="M850.87,-37.7C858.51,-39.09 867.37,-40.7 876.77,-42.41"/>
<polygon fill="black" stroke="black" points="876.25,-45.88 886.71,-44.22 877.5,-38.99 876.25,-45.88"/>
</g>
<!-- 140465201908704&#45;&gt;140465201905728 -->
<g id="edge4" class="edge">
<title>140465201908704&#45;&gt;140465201905728</title>
<path fill="none" stroke="black" d="M391.09,-88.22C463.9,-85.99 675.43,-79.06 851,-69 859.34,-68.52 868,-67.98 876.67,-67.4"/>
<polygon fill="black" stroke="black" points="877.12,-70.88 886.86,-66.71 876.64,-63.9 877.12,-70.88"/>
</g>
<!-- 140465201908416&#45;&gt;140465201908176 -->
<g id="edge5" class="edge">
<title>140465201908416&#45;&gt;140465201908176</title>
<path fill="none" stroke="black" d="M258.19,-29.2C265.87,-28.97 274.69,-28.7 283.89,-28.42"/>
<polygon fill="black" stroke="black" points="284.08,-31.91 293.97,-28.11 283.87,-24.91 284.08,-31.91"/>
</g>
<!-- 140465201908224&#45;&gt;140465201906352 -->
<g id="edge6" class="edge">
<title>140465201908224&#45;&gt;140465201906352</title>
<path fill="none" stroke="black" d="M1152.03,-60C1160,-60 1168.95,-60 1177.56,-60"/>
<polygon fill="black" stroke="black" points="1177.82,-63.5 1187.82,-60 1177.82,-56.5 1177.82,-63.5"/>
</g>
</g>
</svg>
