<?xml version="1.0" encoding="UTF-8" standalone="no"?>
<!DOCTYPE svg PUBLIC "-//W3C//DTD SVG 1.1//EN"
 "http://www.w3.org/Graphics/SVG/1.1/DTD/svg11.dtd">
<!-- Generated by graphviz version 3.0.0 (20220226.1711)
 -->
<!-- Title: imported_1686809886.7357137 Pages: 1 -->
<svg width="422pt" height="134pt"
 viewBox="0.00 0.00 422.00 134.00" xmlns="http://www.w3.org/2000/svg" xmlns:xlink="http://www.w3.org/1999/xlink">
<g id="graph0" class="graph" transform="scale(1 1) rotate(0) translate(4 130)">
<title>imported_1686809886.7357137</title>
<polygon fill="white" stroke="transparent" points="-4,4 -4,-130 418,-130 418,4 -4,4"/>
<!-- 2309363110720 -->
<g id="node1" class="node">
<title>2309363110720</title>
<polygon fill="white" stroke="black" points="234,-81 180,-81 180,-45 234,-45 234,-81"/>
<text text-anchor="middle" x="207" y="-59.9" font-family="Times New Roman,serif" font-size="12.00">b</text>
</g>
<!-- 2309363113840 -->
<g id="node6" class="node">
<title>2309363113840</title>
<ellipse fill="white" stroke="black" cx="297" cy="-99" rx="27" ry="27"/>
</g>
<!-- 2309363110720&#45;&gt;2309363113840 -->
<g id="edge4" class="edge">
<title>2309363110720&#45;&gt;2309363113840</title>
<path fill="none" stroke="black" d="M234.4,-73.8C243.2,-77.4 253.11,-81.45 262.37,-85.24"/>
<polygon fill="black" stroke="black" points="261.14,-88.52 271.72,-89.07 263.79,-82.04 261.14,-88.52"/>
</g>
<!-- 2309363110912 -->
<g id="node7" class="node">
<title>2309363110912</title>
<ellipse fill="white" stroke="black" cx="297" cy="-27" rx="27" ry="27"/>
</g>
<!-- 2309363110720&#45;&gt;2309363110912 -->
<g id="edge5" class="edge">
<title>2309363110720&#45;&gt;2309363110912</title>
<path fill="none" stroke="black" d="M234.4,-52.2C243.2,-48.6 253.11,-44.55 262.37,-40.76"/>
<polygon fill="black" stroke="black" points="263.79,-43.96 271.72,-36.93 261.14,-37.48 263.79,-43.96"/>
</g>
<!-- 2309363110672 -->
<g id="node2" class="node">
<title>2309363110672</title>
<polygon fill="white" stroke="black" points="414,-117 360,-117 360,-81 414,-81 414,-117"/>
<text text-anchor="middle" x="387" y="-95.9" font-family="Times New Roman,serif" font-size="12.00">d</text>
</g>
<!-- 2309363110000 -->
<g id="node3" class="node">
<title>2309363110000</title>
<polygon fill="white" stroke="black" points="54,-81 0,-81 0,-45 54,-45 54,-81"/>
<text text-anchor="middle" x="27" y="-59.9" font-family="Times New Roman,serif" font-size="12.00">s</text>
</g>
<!-- 2309364350400 -->
<g id="node5" class="node">
<title>2309364350400</title>
<ellipse fill="white" stroke="black" cx="117" cy="-63" rx="27" ry="27"/>
</g>
<!-- 2309363110000&#45;&gt;2309364350400 -->
<g id="edge6" class="edge">
<title>2309363110000&#45;&gt;2309364350400</title>
<path fill="none" stroke="black" d="M54.4,-63C62.39,-63 71.31,-63 79.82,-63"/>
<polygon fill="black" stroke="black" points="79.92,-66.5 89.92,-63 79.92,-59.5 79.92,-66.5"/>
</g>
<!-- 2309363112928 -->
<g id="node4" class="node">
<title>2309363112928</title>
<polygon fill="white" stroke="black" points="414,-45 360,-45 360,-9 414,-9 414,-45"/>
<text text-anchor="middle" x="387" y="-23.9" font-family="Times New Roman,serif" font-size="12.00">k</text>
</g>
<!-- 2309364350400&#45;&gt;2309363110720 -->
<g id="edge1" class="edge">
<title>2309364350400&#45;&gt;2309363110720</title>
<path fill="none" stroke="black" d="M144.4,-63C152.39,-63 161.31,-63 169.82,-63"/>
<polygon fill="black" stroke="black" points="169.92,-66.5 179.92,-63 169.92,-59.5 169.92,-66.5"/>
</g>
<!-- 2309363113840&#45;&gt;2309363110672 -->
<g id="edge2" class="edge">
<title>2309363113840&#45;&gt;2309363110672</title>
<path fill="none" stroke="black" d="M324.4,-99C332.39,-99 341.31,-99 349.82,-99"/>
<polygon fill="black" stroke="black" points="349.92,-102.5 359.92,-99 349.92,-95.5 349.92,-102.5"/>
</g>
<!-- 2309363110912&#45;&gt;2309363112928 -->
<g id="edge3" class="edge">
<title>2309363110912&#45;&gt;2309363112928</title>
<path fill="none" stroke="black" d="M324.4,-27C332.39,-27 341.31,-27 349.82,-27"/>
<polygon fill="black" stroke="black" points="349.92,-30.5 359.92,-27 349.92,-23.5 349.92,-30.5"/>
</g>
</g>
</svg>
