<?xml version="1.0" encoding="UTF-8" standalone="no"?>
<!DOCTYPE svg PUBLIC "-//W3C//DTD SVG 1.1//EN"
 "http://www.w3.org/Graphics/SVG/1.1/DTD/svg11.dtd">
<!-- Generated by graphviz version 2.43.0 (0)
 -->
<!-- Title: imported_1688044905.5556917 Pages: 1 -->
<svg width="995pt" height="107pt"
 viewBox="0.00 0.00 995.00 107.00" xmlns="http://www.w3.org/2000/svg" xmlns:xlink="http://www.w3.org/1999/xlink">
<g id="graph0" class="graph" transform="scale(1 1) rotate(0) translate(4 103)">
<title>imported_1688044905.5556917</title>
<polygon fill="white" stroke="transparent" points="-4,4 -4,-103 991,-103 991,4 -4,4"/>
<!-- 140464257980352 -->
<g id="node1" class="node">
<title>140464257980352</title>
<polygon fill="white" stroke="black" points="645,-99 587,-99 587,-63 645,-63 645,-99"/>
<text text-anchor="middle" x="616" y="-77.9" font-family="Times,serif" font-size="12.00">Payment</text>
</g>
<!-- 140464257980784 -->
<g id="node9" class="node">
<title>140464257980784</title>
<ellipse fill="white" stroke="black" cx="749" cy="-54" rx="27" ry="27"/>
</g>
<!-- 140464257980352&#45;&gt;140464257980784 -->
<g id="edge5" class="edge">
<title>140464257980352&#45;&gt;140464257980784</title>
<path fill="none" stroke="black" d="M645.1,-75.21C664.74,-71.16 691.13,-65.72 712.27,-61.36"/>
<polygon fill="black" stroke="black" points="713.08,-64.77 722.17,-59.32 711.67,-57.92 713.08,-64.77"/>
</g>
<!-- 140464257980928 -->
<g id="node2" class="node">
<title>140464257980928</title>
<polygon fill="white" stroke="black" points="987,-99 812,-99 812,-63 987,-63 987,-99"/>
<text text-anchor="middle" x="899.5" y="-77.9" font-family="Times,serif" font-size="12.00">Notify Result Appeal to Offender</text>
</g>
<!-- 140464257981888 -->
<g id="node3" class="node">
<title>140464257981888</title>
<polygon fill="white" stroke="black" points="946.5,-45 852.5,-45 852.5,-9 946.5,-9 946.5,-45"/>
<text text-anchor="middle" x="899.5" y="-23.9" font-family="Times,serif" font-size="12.00">Appeal to Judge</text>
</g>
<!-- 140464257981552 -->
<g id="node4" class="node">
<title>140464257981552</title>
<polygon fill="white" stroke="black" points="686,-45 546,-45 546,-9 686,-9 686,-45"/>
<text text-anchor="middle" x="616" y="-23.9" font-family="Times,serif" font-size="12.00">Send Appeal to Prefecture</text>
</g>
<!-- 140464257981552&#45;&gt;140464257980784 -->
<g id="edge7" class="edge">
<title>140464257981552&#45;&gt;140464257980784</title>
<path fill="none" stroke="black" d="M686.34,-41.29C695.4,-43.16 704.36,-45.01 712.53,-46.69"/>
<polygon fill="black" stroke="black" points="711.9,-50.13 722.4,-48.72 713.31,-43.28 711.9,-50.13"/>
</g>
<!-- 140464257979536 -->
<g id="node5" class="node">
<title>140464257979536</title>
<polygon fill="white" stroke="black" points="420,-45 252,-45 252,-9 420,-9 420,-45"/>
<text text-anchor="middle" x="336" y="-23.9" font-family="Times,serif" font-size="12.00">Insert Date Appeal to Prefecture</text>
</g>
<!-- 140464257980880 -->
<g id="node8" class="node">
<title>140464257980880</title>
<ellipse fill="white" stroke="black" cx="483" cy="-27" rx="27" ry="27"/>
</g>
<!-- 140464257979536&#45;&gt;140464257980880 -->
<g id="edge6" class="edge">
<title>140464257979536&#45;&gt;140464257980880</title>
<path fill="none" stroke="black" d="M420.09,-27C428.96,-27 437.62,-27 445.51,-27"/>
<polygon fill="black" stroke="black" points="445.75,-30.5 455.75,-27 445.75,-23.5 445.75,-30.5"/>
</g>
<!-- 140464257980400 -->
<g id="node6" class="node">
<title>140464257980400</title>
<polygon fill="white" stroke="black" points="126,-45 0,-45 0,-9 126,-9 126,-45"/>
<text text-anchor="middle" x="63" y="-23.9" font-family="Times,serif" font-size="12.00">Insert Fine Notification</text>
</g>
<!-- 140464257981312 -->
<g id="node7" class="node">
<title>140464257981312</title>
<ellipse fill="white" stroke="black" cx="189" cy="-27" rx="27" ry="27"/>
</g>
<!-- 140464257980400&#45;&gt;140464257981312 -->
<g id="edge8" class="edge">
<title>140464257980400&#45;&gt;140464257981312</title>
<path fill="none" stroke="black" d="M126.36,-27C135.09,-27 143.8,-27 151.81,-27"/>
<polygon fill="black" stroke="black" points="151.88,-30.5 161.88,-27 151.88,-23.5 151.88,-30.5"/>
</g>
<!-- 140464257981312&#45;&gt;140464257979536 -->
<g id="edge1" class="edge">
<title>140464257981312&#45;&gt;140464257979536</title>
<path fill="none" stroke="black" d="M216.26,-27C223.81,-27 232.51,-27 241.7,-27"/>
<polygon fill="black" stroke="black" points="241.83,-30.5 251.83,-27 241.83,-23.5 241.83,-30.5"/>
</g>
<!-- 140464257980880&#45;&gt;140464257981552 -->
<g id="edge2" class="edge">
<title>140464257980880&#45;&gt;140464257981552</title>
<path fill="none" stroke="black" d="M510.19,-27C517.87,-27 526.69,-27 535.89,-27"/>
<polygon fill="black" stroke="black" points="535.97,-30.5 545.97,-27 535.97,-23.5 535.97,-30.5"/>
</g>
<!-- 140464257980784&#45;&gt;140464257980928 -->
<g id="edge3" class="edge">
<title>140464257980784&#45;&gt;140464257980928</title>
<path fill="none" stroke="black" d="M775.87,-58.7C783.51,-60.09 792.37,-61.7 801.77,-63.41"/>
<polygon fill="black" stroke="black" points="801.25,-66.88 811.71,-65.22 802.5,-59.99 801.25,-66.88"/>
</g>
<!-- 140464257980784&#45;&gt;140464257981888 -->
<g id="edge4" class="edge">
<title>140464257980784&#45;&gt;140464257981888</title>
<path fill="none" stroke="black" d="M775.87,-49.3C794.18,-45.97 819.45,-41.37 842.29,-37.22"/>
<polygon fill="black" stroke="black" points="843.03,-40.64 852.25,-35.41 841.78,-33.76 843.03,-40.64"/>
</g>
</g>
</svg>
