<?xml version="1.0" encoding="UTF-8" standalone="no"?>
<!DOCTYPE svg PUBLIC "-//W3C//DTD SVG 1.1//EN"
 "http://www.w3.org/Graphics/SVG/1.1/DTD/svg11.dtd">
<!-- Generated by graphviz version 2.43.0 (0)
 -->
<!-- Title: imported_1688044905.6564252 Pages: 1 -->
<svg width="804pt" height="179pt"
 viewBox="0.00 0.00 804.00 179.00" xmlns="http://www.w3.org/2000/svg" xmlns:xlink="http://www.w3.org/1999/xlink">
<g id="graph0" class="graph" transform="scale(1 1) rotate(0) translate(4 175)">
<title>imported_1688044905.6564252</title>
<polygon fill="white" stroke="transparent" points="-4,4 -4,-175 800,-175 800,4 -4,4"/>
<!-- 140465201749152 -->
<g id="node1" class="node">
<title>140465201749152</title>
<polygon fill="white" stroke="black" points="423.5,-171 365.5,-171 365.5,-135 423.5,-135 423.5,-171"/>
<text text-anchor="middle" x="394.5" y="-149.9" font-family="Times,serif" font-size="12.00">Payment</text>
</g>
<!-- 140465201749200 -->
<g id="node8" class="node">
<title>140465201749200</title>
<ellipse fill="white" stroke="black" cx="558" cy="-126" rx="27" ry="27"/>
</g>
<!-- 140465201749152&#45;&gt;140465201749200 -->
<g id="edge5" class="edge">
<title>140465201749152&#45;&gt;140465201749200</title>
<path fill="none" stroke="black" d="M423.63,-148.3C450.79,-143.76 492.03,-136.86 521.45,-131.94"/>
<polygon fill="black" stroke="black" points="522.03,-135.39 531.32,-130.29 520.88,-128.49 522.03,-135.39"/>
</g>
<!-- 140465201746656 -->
<g id="node2" class="node">
<title>140465201746656</title>
<polygon fill="white" stroke="black" points="168,-81 0,-81 0,-45 168,-45 168,-81"/>
<text text-anchor="middle" x="84" y="-59.9" font-family="Times,serif" font-size="12.00">Insert Date Appeal to Prefecture</text>
</g>
<!-- 140465201748144 -->
<g id="node7" class="node">
<title>140465201748144</title>
<ellipse fill="white" stroke="black" cx="231" cy="-99" rx="27" ry="27"/>
</g>
<!-- 140465201746656&#45;&gt;140465201748144 -->
<g id="edge6" class="edge">
<title>140465201746656&#45;&gt;140465201748144</title>
<path fill="none" stroke="black" d="M157.92,-81.11C170.78,-84.3 183.61,-87.48 194.81,-90.26"/>
<polygon fill="black" stroke="black" points="194.04,-93.68 204.59,-92.69 195.73,-86.88 194.04,-93.68"/>
</g>
<!-- 140465201746848 -->
<g id="node9" class="node">
<title>140465201746848</title>
<ellipse fill="white" stroke="black" cx="231" cy="-27" rx="27" ry="27"/>
</g>
<!-- 140465201746656&#45;&gt;140465201746848 -->
<g id="edge7" class="edge">
<title>140465201746656&#45;&gt;140465201746848</title>
<path fill="none" stroke="black" d="M157.92,-44.89C170.78,-41.7 183.61,-38.52 194.81,-35.74"/>
<polygon fill="black" stroke="black" points="195.73,-39.12 204.59,-33.31 194.04,-32.32 195.73,-39.12"/>
</g>
<!-- 140465201748384 -->
<g id="node3" class="node">
<title>140465201748384</title>
<polygon fill="white" stroke="black" points="464.5,-117 324.5,-117 324.5,-81 464.5,-81 464.5,-117"/>
<text text-anchor="middle" x="394.5" y="-95.9" font-family="Times,serif" font-size="12.00">Send Appeal to Prefecture</text>
</g>
<!-- 140465201748384&#45;&gt;140465201749200 -->
<g id="edge8" class="edge">
<title>140465201748384&#45;&gt;140465201749200</title>
<path fill="none" stroke="black" d="M464.93,-110.61C484.14,-113.82 504.23,-117.18 520.72,-119.94"/>
<polygon fill="black" stroke="black" points="520.56,-123.46 531,-121.65 521.71,-116.55 520.56,-123.46"/>
</g>
<!-- 140465201748192 -->
<g id="node4" class="node">
<title>140465201748192</title>
<polygon fill="white" stroke="black" points="755.5,-171 661.5,-171 661.5,-135 755.5,-135 755.5,-171"/>
<text text-anchor="middle" x="708.5" y="-149.9" font-family="Times,serif" font-size="12.00">Appeal to Judge</text>
</g>
<!-- 140465201749008 -->
<g id="node5" class="node">
<title>140465201749008</title>
<polygon fill="white" stroke="black" points="495,-45 294,-45 294,-9 495,-9 495,-45"/>
<text text-anchor="middle" x="394.5" y="-23.9" font-family="Times,serif" font-size="12.00">Receive Result Appeal from Prefecture</text>
</g>
<!-- 140465201747568 -->
<g id="node6" class="node">
<title>140465201747568</title>
<polygon fill="white" stroke="black" points="796,-117 621,-117 621,-81 796,-81 796,-117"/>
<text text-anchor="middle" x="708.5" y="-95.9" font-family="Times,serif" font-size="12.00">Notify Result Appeal to Offender</text>
</g>
<!-- 140465201748144&#45;&gt;140465201748384 -->
<g id="edge1" class="edge">
<title>140465201748144&#45;&gt;140465201748384</title>
<path fill="none" stroke="black" d="M258.31,-99C273.68,-99 293.97,-99 314.15,-99"/>
<polygon fill="black" stroke="black" points="314.34,-102.5 324.34,-99 314.34,-95.5 314.34,-102.5"/>
</g>
<!-- 140465201749200&#45;&gt;140465201748192 -->
<g id="edge3" class="edge">
<title>140465201749200&#45;&gt;140465201748192</title>
<path fill="none" stroke="black" d="M584.87,-130.7C603.18,-134.03 628.45,-138.63 651.29,-142.78"/>
<polygon fill="black" stroke="black" points="650.78,-146.24 661.25,-144.59 652.03,-139.36 650.78,-146.24"/>
</g>
<!-- 140465201749200&#45;&gt;140465201747568 -->
<g id="edge2" class="edge">
<title>140465201749200&#45;&gt;140465201747568</title>
<path fill="none" stroke="black" d="M584.87,-121.3C592.51,-119.91 601.37,-118.3 610.77,-116.59"/>
<polygon fill="black" stroke="black" points="611.5,-120.01 620.71,-114.78 610.25,-113.12 611.5,-120.01"/>
</g>
<!-- 140465201746848&#45;&gt;140465201749008 -->
<g id="edge4" class="edge">
<title>140465201746848&#45;&gt;140465201749008</title>
<path fill="none" stroke="black" d="M258.31,-27C265.79,-27 274.44,-27 283.68,-27"/>
<polygon fill="black" stroke="black" points="283.9,-30.5 293.9,-27 283.9,-23.5 283.9,-30.5"/>
</g>
</g>
</svg>
