<?xml version="1.0" encoding="UTF-8" standalone="no"?>
<!DOCTYPE svg PUBLIC "-//W3C//DTD SVG 1.1//EN"
 "http://www.w3.org/Graphics/SVG/1.1/DTD/svg11.dtd">
<!-- Generated by graphviz version 2.43.0 (0)
 -->
<!-- Title: imported_1688044900.7873764 Pages: 1 -->
<svg width="960pt" height="121pt"
 viewBox="0.00 0.00 960.00 121.00" xmlns="http://www.w3.org/2000/svg" xmlns:xlink="http://www.w3.org/1999/xlink">
<g id="graph0" class="graph" transform="scale(1 1) rotate(0) translate(4 117)">
<title>imported_1688044900.7873764</title>
<polygon fill="white" stroke="transparent" points="-4,4 -4,-117 956,-117 956,4 -4,4"/>
<!-- 140468994172912 -->
<g id="node1" class="node">
<title>140468994172912</title>
<polygon fill="white" stroke="black" points="952,-72 894,-72 894,-36 952,-36 952,-72"/>
<text text-anchor="middle" x="923" y="-50.9" font-family="Times,serif" font-size="12.00">Payment</text>
</g>
<!-- 140468994172144 -->
<g id="node2" class="node">
<title>140468994172144</title>
<polygon fill="white" stroke="black" points="140,-72 0,-72 0,-36 140,-36 140,-72"/>
<text text-anchor="middle" x="70" y="-50.9" font-family="Times,serif" font-size="12.00">Send Appeal to Prefecture</text>
</g>
<!-- 140468994174016 -->
<g id="node5" class="node">
<title>140468994174016</title>
<ellipse fill="white" stroke="black" cx="203" cy="-54" rx="27" ry="27"/>
</g>
<!-- 140468994172144&#45;&gt;140468994174016 -->
<g id="edge8" class="edge">
<title>140468994172144&#45;&gt;140468994174016</title>
<path fill="none" stroke="black" d="M140.34,-54C149.13,-54 157.82,-54 165.79,-54"/>
<polygon fill="black" stroke="black" points="165.8,-57.5 175.8,-54 165.8,-50.5 165.8,-57.5"/>
</g>
<!-- 140468994173248 -->
<g id="node3" class="node">
<title>140468994173248</title>
<polygon fill="white" stroke="black" points="467,-72 266,-72 266,-36 467,-36 467,-72"/>
<text text-anchor="middle" x="366.5" y="-50.9" font-family="Times,serif" font-size="12.00">Receive Result Appeal from Prefecture</text>
</g>
<!-- 140468994171856 -->
<g id="node6" class="node">
<title>140468994171856</title>
<ellipse fill="white" stroke="black" cx="680.5" cy="-86" rx="27" ry="27"/>
</g>
<!-- 140468994173248&#45;&gt;140468994171856 -->
<g id="edge5" class="edge">
<title>140468994173248&#45;&gt;140468994171856</title>
<path fill="none" stroke="black" d="M467.08,-64.21C527.38,-70.4 600.67,-77.92 643.51,-82.31"/>
<polygon fill="black" stroke="black" points="643.15,-85.79 653.45,-83.33 643.86,-78.83 643.15,-85.79"/>
</g>
<!-- 140468994174592 -->
<g id="node7" class="node">
<title>140468994174592</title>
<ellipse fill="white" stroke="black" cx="530" cy="-27" rx="27" ry="27"/>
</g>
<!-- 140468994173248&#45;&gt;140468994174592 -->
<g id="edge6" class="edge">
<title>140468994173248&#45;&gt;140468994174592</title>
<path fill="none" stroke="black" d="M467.02,-37.36C476.23,-35.82 485.09,-34.34 493.09,-33"/>
<polygon fill="black" stroke="black" points="493.79,-36.44 503.07,-31.33 492.63,-29.53 493.79,-36.44"/>
</g>
<!-- 140468994171712 -->
<g id="node4" class="node">
<title>140468994171712</title>
<polygon fill="white" stroke="black" points="768,-41 593,-41 593,-5 768,-5 768,-41"/>
<text text-anchor="middle" x="680.5" y="-19.9" font-family="Times,serif" font-size="12.00">Notify Result Appeal to Offender</text>
</g>
<!-- 140468994174688 -->
<g id="node8" class="node">
<title>140468994174688</title>
<ellipse fill="white" stroke="black" cx="831" cy="-27" rx="27" ry="27"/>
</g>
<!-- 140468994171712&#45;&gt;140468994174688 -->
<g id="edge7" class="edge">
<title>140468994171712&#45;&gt;140468994174688</title>
<path fill="none" stroke="black" d="M768.31,-25.34C777.21,-25.58 785.87,-25.81 793.74,-26.02"/>
<polygon fill="black" stroke="black" points="793.85,-29.53 803.94,-26.3 794.04,-22.53 793.85,-29.53"/>
</g>
<!-- 140468994174016&#45;&gt;140468994173248 -->
<g id="edge1" class="edge">
<title>140468994174016&#45;&gt;140468994173248</title>
<path fill="none" stroke="black" d="M230.31,-54C237.79,-54 246.44,-54 255.68,-54"/>
<polygon fill="black" stroke="black" points="255.9,-57.5 265.9,-54 255.9,-50.5 255.9,-57.5"/>
</g>
<!-- 140468994171856&#45;&gt;140468994172912 -->
<g id="edge2" class="edge">
<title>140468994171856&#45;&gt;140468994172912</title>
<path fill="none" stroke="black" d="M707.53,-82.69C741.97,-78.3 804.57,-70.24 858,-63 866.38,-61.86 875.37,-60.62 883.89,-59.42"/>
<polygon fill="black" stroke="black" points="884.56,-62.86 893.97,-58 883.58,-55.93 884.56,-62.86"/>
</g>
<!-- 140468994174592&#45;&gt;140468994171712 -->
<g id="edge3" class="edge">
<title>140468994174592&#45;&gt;140468994171712</title>
<path fill="none" stroke="black" d="M557.21,-26.29C564.73,-26.09 573.4,-25.86 582.59,-25.61"/>
<polygon fill="black" stroke="black" points="582.82,-29.11 592.73,-25.34 582.63,-22.11 582.82,-29.11"/>
</g>
<!-- 140468994174688&#45;&gt;140468994172912 -->
<g id="edge4" class="edge">
<title>140468994174688&#45;&gt;140468994172912</title>
<path fill="none" stroke="black" d="M857.07,-34.52C865.47,-37.04 875.04,-39.91 884.2,-42.66"/>
<polygon fill="black" stroke="black" points="883.31,-46.05 893.9,-45.57 885.32,-39.34 883.31,-46.05"/>
</g>
</g>
</svg>
