<?xml version="1.0" encoding="UTF-8" standalone="no"?>
<!DOCTYPE svg PUBLIC "-//W3C//DTD SVG 1.1//EN"
 "http://www.w3.org/Graphics/SVG/1.1/DTD/svg11.dtd">
<!-- Generated by graphviz version 2.43.0 (0)
 -->
<!-- Title: imported_1688044900.5886104 Pages: 1 -->
<svg width="960pt" height="62pt"
 viewBox="0.00 0.00 960.00 62.00" xmlns="http://www.w3.org/2000/svg" xmlns:xlink="http://www.w3.org/1999/xlink">
<g id="graph0" class="graph" transform="scale(1 1) rotate(0) translate(4 58)">
<title>imported_1688044900.5886104</title>
<polygon fill="white" stroke="transparent" points="-4,4 -4,-58 956,-58 956,4 -4,4"/>
<!-- 140468994059472 -->
<g id="node1" class="node">
<title>140468994059472</title>
<polygon fill="white" stroke="black" points="952,-45 894,-45 894,-9 952,-9 952,-45"/>
<text text-anchor="middle" x="923" y="-23.9" font-family="Times,serif" font-size="12.00">Payment</text>
</g>
<!-- 140468994059568 -->
<g id="node2" class="node">
<title>140468994059568</title>
<polygon fill="white" stroke="black" points="140,-45 0,-45 0,-9 140,-9 140,-45"/>
<text text-anchor="middle" x="70" y="-23.9" font-family="Times,serif" font-size="12.00">Send Appeal to Prefecture</text>
</g>
<!-- 140465201706320 -->
<g id="node5" class="node">
<title>140465201706320</title>
<ellipse fill="white" stroke="black" cx="203" cy="-27" rx="27" ry="27"/>
</g>
<!-- 140468994059568&#45;&gt;140465201706320 -->
<g id="edge6" class="edge">
<title>140468994059568&#45;&gt;140465201706320</title>
<path fill="none" stroke="black" d="M140.34,-27C149.13,-27 157.82,-27 165.79,-27"/>
<polygon fill="black" stroke="black" points="165.8,-30.5 175.8,-27 165.8,-23.5 165.8,-30.5"/>
</g>
<!-- 140468994059424 -->
<g id="node3" class="node">
<title>140468994059424</title>
<polygon fill="white" stroke="black" points="768,-45 593,-45 593,-9 768,-9 768,-45"/>
<text text-anchor="middle" x="680.5" y="-23.9" font-family="Times,serif" font-size="12.00">Notify Result Appeal to Offender</text>
</g>
<!-- 140465201706176 -->
<g id="node7" class="node">
<title>140465201706176</title>
<ellipse fill="white" stroke="black" cx="831" cy="-27" rx="27" ry="27"/>
</g>
<!-- 140468994059424&#45;&gt;140465201706176 -->
<g id="edge5" class="edge">
<title>140468994059424&#45;&gt;140465201706176</title>
<path fill="none" stroke="black" d="M768.31,-27C777.21,-27 785.87,-27 793.74,-27"/>
<polygon fill="black" stroke="black" points="793.94,-30.5 803.94,-27 793.94,-23.5 793.94,-30.5"/>
</g>
<!-- 140468994058944 -->
<g id="node4" class="node">
<title>140468994058944</title>
<polygon fill="white" stroke="black" points="467,-45 266,-45 266,-9 467,-9 467,-45"/>
<text text-anchor="middle" x="366.5" y="-23.9" font-family="Times,serif" font-size="12.00">Receive Result Appeal from Prefecture</text>
</g>
<!-- 140465201708720 -->
<g id="node6" class="node">
<title>140465201708720</title>
<ellipse fill="white" stroke="black" cx="530" cy="-27" rx="27" ry="27"/>
</g>
<!-- 140468994058944&#45;&gt;140465201708720 -->
<g id="edge4" class="edge">
<title>140468994058944&#45;&gt;140465201708720</title>
<path fill="none" stroke="black" d="M467.02,-27C476.04,-27 484.72,-27 492.59,-27"/>
<polygon fill="black" stroke="black" points="492.77,-30.5 502.77,-27 492.77,-23.5 492.77,-30.5"/>
</g>
<!-- 140465201706320&#45;&gt;140468994058944 -->
<g id="edge1" class="edge">
<title>140465201706320&#45;&gt;140468994058944</title>
<path fill="none" stroke="black" d="M230.31,-27C237.79,-27 246.44,-27 255.68,-27"/>
<polygon fill="black" stroke="black" points="255.9,-30.5 265.9,-27 255.9,-23.5 255.9,-30.5"/>
</g>
<!-- 140465201708720&#45;&gt;140468994059424 -->
<g id="edge2" class="edge">
<title>140465201708720&#45;&gt;140468994059424</title>
<path fill="none" stroke="black" d="M557.21,-27C564.73,-27 573.4,-27 582.59,-27"/>
<polygon fill="black" stroke="black" points="582.73,-30.5 592.73,-27 582.72,-23.5 582.73,-30.5"/>
</g>
<!-- 140465201706176&#45;&gt;140468994059472 -->
<g id="edge3" class="edge">
<title>140465201706176&#45;&gt;140468994059472</title>
<path fill="none" stroke="black" d="M858.03,-27C866,-27 874.95,-27 883.56,-27"/>
<polygon fill="black" stroke="black" points="883.82,-30.5 893.82,-27 883.82,-23.5 883.82,-30.5"/>
</g>
</g>
</svg>
