<?xml version="1.0" encoding="UTF-8" standalone="no"?>
<!DOCTYPE svg PUBLIC "-//W3C//DTD SVG 1.1//EN"
 "http://www.w3.org/Graphics/SVG/1.1/DTD/svg11.dtd">
<!-- Generated by graphviz version 2.43.0 (0)
 -->
<!-- Title: imported_1688044909.2829692 Pages: 1 -->
<svg width="1254pt" height="126pt"
 viewBox="0.00 0.00 1254.00 126.00" xmlns="http://www.w3.org/2000/svg" xmlns:xlink="http://www.w3.org/1999/xlink">
<g id="graph0" class="graph" transform="scale(1 1) rotate(0) translate(4 122)">
<title>imported_1688044909.2829692</title>
<polygon fill="white" stroke="transparent" points="-4,4 -4,-122 1250,-122 1250,4 -4,4"/>
<!-- 140468994173344 -->
<g id="node1" class="node">
<title>140468994173344</title>
<polygon fill="white" stroke="black" points="1246,-77 1188,-77 1188,-41 1246,-41 1246,-77"/>
<text text-anchor="middle" x="1217" y="-55.9" font-family="Times,serif" font-size="12.00">Payment</text>
</g>
<!-- 140468994171904 -->
<g id="node2" class="node">
<title>140468994171904</title>
<polygon fill="white" stroke="black" points="1062,-46 887,-46 887,-10 1062,-10 1062,-46"/>
<text text-anchor="middle" x="974.5" y="-24.9" font-family="Times,serif" font-size="12.00">Notify Result Appeal to Offender</text>
</g>
<!-- 140468994173728 -->
<g id="node11" class="node">
<title>140468994173728</title>
<ellipse fill="white" stroke="black" cx="1125" cy="-32" rx="27" ry="27"/>
</g>
<!-- 140468994171904&#45;&gt;140468994173728 -->
<g id="edge2" class="edge">
<title>140468994171904&#45;&gt;140468994173728</title>
<path fill="none" stroke="black" d="M1062.31,-30.34C1071.21,-30.58 1079.87,-30.81 1087.74,-31.02"/>
<polygon fill="black" stroke="black" points="1087.85,-34.53 1097.94,-31.3 1088.04,-27.53 1087.85,-34.53"/>
</g>
<!-- 140468994171616 -->
<g id="node3" class="node">
<title>140468994171616</title>
<polygon fill="white" stroke="black" points="434,-108 294,-108 294,-72 434,-72 434,-108"/>
<text text-anchor="middle" x="364" y="-86.9" font-family="Times,serif" font-size="12.00">Send Appeal to Prefecture</text>
</g>
<!-- 140468994172096 -->
<g id="node6" class="node">
<title>140468994172096</title>
<ellipse fill="white" stroke="black" cx="497" cy="-88" rx="27" ry="27"/>
</g>
<!-- 140468994171616&#45;&gt;140468994172096 -->
<g id="edge3" class="edge">
<title>140468994171616&#45;&gt;140468994172096</title>
<path fill="none" stroke="black" d="M434.34,-88.94C443.13,-88.81 451.82,-88.67 459.79,-88.55"/>
<polygon fill="black" stroke="black" points="459.85,-92.05 469.8,-88.4 459.75,-85.05 459.85,-92.05"/>
</g>
<!-- 140468994173776 -->
<g id="node4" class="node">
<title>140468994173776</title>
<polygon fill="white" stroke="black" points="761,-77 560,-77 560,-41 761,-41 761,-77"/>
<text text-anchor="middle" x="660.5" y="-55.9" font-family="Times,serif" font-size="12.00">Receive Result Appeal from Prefecture</text>
</g>
<!-- 140468994172816 -->
<g id="node7" class="node">
<title>140468994172816</title>
<ellipse fill="white" stroke="black" cx="974.5" cy="-91" rx="27" ry="27"/>
</g>
<!-- 140468994173776&#45;&gt;140468994172816 -->
<g id="edge11" class="edge">
<title>140468994173776&#45;&gt;140468994172816</title>
<path fill="none" stroke="black" d="M761.08,-69.21C821.38,-75.4 894.67,-82.92 937.51,-87.31"/>
<polygon fill="black" stroke="black" points="937.15,-90.79 947.45,-88.33 937.86,-83.83 937.15,-90.79"/>
</g>
<!-- 140468994174928 -->
<g id="node8" class="node">
<title>140468994174928</title>
<ellipse fill="white" stroke="black" cx="824" cy="-32" rx="27" ry="27"/>
</g>
<!-- 140468994173776&#45;&gt;140468994174928 -->
<g id="edge12" class="edge">
<title>140468994173776&#45;&gt;140468994174928</title>
<path fill="none" stroke="black" d="M761.02,-42.36C770.23,-40.82 779.09,-39.34 787.09,-38"/>
<polygon fill="black" stroke="black" points="787.79,-41.44 797.07,-36.33 786.63,-34.53 787.79,-41.44"/>
</g>
<!-- 140468994174064 -->
<g id="node5" class="node">
<title>140468994174064</title>
<polygon fill="white" stroke="black" points="168,-76 0,-76 0,-40 168,-40 168,-76"/>
<text text-anchor="middle" x="84" y="-54.9" font-family="Times,serif" font-size="12.00">Insert Date Appeal to Prefecture</text>
</g>
<!-- 140468994174784 -->
<g id="node9" class="node">
<title>140468994174784</title>
<ellipse fill="white" stroke="black" cx="231" cy="-88" rx="27" ry="27"/>
</g>
<!-- 140468994174064&#45;&gt;140468994174784 -->
<g id="edge9" class="edge">
<title>140468994174064&#45;&gt;140468994174784</title>
<path fill="none" stroke="black" d="M168.09,-75.19C177.34,-77.1 186.36,-78.97 194.52,-80.66"/>
<polygon fill="black" stroke="black" points="193.86,-84.1 204.36,-82.69 195.28,-77.24 193.86,-84.1"/>
</g>
<!-- 140468994171232 -->
<g id="node10" class="node">
<title>140468994171232</title>
<ellipse fill="white" stroke="black" cx="364" cy="-27" rx="27" ry="27"/>
</g>
<!-- 140468994174064&#45;&gt;140468994171232 -->
<g id="edge10" class="edge">
<title>140468994174064&#45;&gt;140468994171232</title>
<path fill="none" stroke="black" d="M168.03,-48.74C220.91,-42.85 286.75,-35.5 326.79,-31.04"/>
<polygon fill="black" stroke="black" points="327.33,-34.5 336.88,-29.91 326.56,-27.54 327.33,-34.5"/>
</g>
<!-- 140468994172096&#45;&gt;140468994173776 -->
<g id="edge1" class="edge">
<title>140468994172096&#45;&gt;140468994173776</title>
<path fill="none" stroke="black" d="M523.95,-83.34C531.56,-81.97 540.4,-80.39 549.85,-78.69"/>
<polygon fill="black" stroke="black" points="550.66,-82.1 559.89,-76.89 549.43,-75.21 550.66,-82.1"/>
</g>
<!-- 140468994172816&#45;&gt;140468994173344 -->
<g id="edge4" class="edge">
<title>140468994172816&#45;&gt;140468994173344</title>
<path fill="none" stroke="black" d="M1001.53,-87.69C1035.97,-83.3 1098.57,-75.24 1152,-68 1160.38,-66.86 1169.37,-65.62 1177.89,-64.42"/>
<polygon fill="black" stroke="black" points="1178.56,-67.86 1187.97,-63 1177.58,-60.93 1178.56,-67.86"/>
</g>
<!-- 140468994174928&#45;&gt;140468994171904 -->
<g id="edge5" class="edge">
<title>140468994174928&#45;&gt;140468994171904</title>
<path fill="none" stroke="black" d="M851.21,-31.29C858.73,-31.09 867.4,-30.86 876.59,-30.61"/>
<polygon fill="black" stroke="black" points="876.82,-34.11 886.73,-30.34 876.63,-27.11 876.82,-34.11"/>
</g>
<!-- 140468994174784&#45;&gt;140468994171616 -->
<g id="edge6" class="edge">
<title>140468994174784&#45;&gt;140468994171616</title>
<path fill="none" stroke="black" d="M258.19,-88.4C265.87,-88.52 274.69,-88.65 283.89,-88.79"/>
<polygon fill="black" stroke="black" points="283.92,-92.29 293.97,-88.95 284.03,-85.29 283.92,-92.29"/>
</g>
<!-- 140468994171232&#45;&gt;140468994173776 -->
<g id="edge7" class="edge">
<title>140468994171232&#45;&gt;140468994173776</title>
<path fill="none" stroke="black" d="M390.88,-29.81C426.3,-33.66 492.05,-40.81 549.64,-47.06"/>
<polygon fill="black" stroke="black" points="549.6,-50.58 559.92,-48.18 550.36,-43.62 549.6,-50.58"/>
</g>
<!-- 140468994173728&#45;&gt;140468994173344 -->
<g id="edge8" class="edge">
<title>140468994173728&#45;&gt;140468994173344</title>
<path fill="none" stroke="black" d="M1151.07,-39.52C1159.47,-42.04 1169.04,-44.91 1178.2,-47.66"/>
<polygon fill="black" stroke="black" points="1177.31,-51.05 1187.9,-50.57 1179.32,-44.34 1177.31,-51.05"/>
</g>
</g>
</svg>
