<?xml version="1.0" encoding="UTF-8" standalone="no"?>
<!DOCTYPE svg PUBLIC "-//W3C//DTD SVG 1.1//EN"
 "http://www.w3.org/Graphics/SVG/1.1/DTD/svg11.dtd">
<!-- Generated by graphviz version 2.43.0 (0)
 -->
<!-- Title: imported_1688044909.2051024 Pages: 1 -->
<svg width="988pt" height="134pt"
 viewBox="0.00 0.00 988.00 134.00" xmlns="http://www.w3.org/2000/svg" xmlns:xlink="http://www.w3.org/1999/xlink">
<g id="graph0" class="graph" transform="scale(1 1) rotate(0) translate(4 130)">
<title>imported_1688044909.2051024</title>
<polygon fill="white" stroke="transparent" points="-4,4 -4,-130 984,-130 984,4 -4,4"/>
<!-- 140465201747232 -->
<g id="node1" class="node">
<title>140465201747232</title>
<polygon fill="white" stroke="black" points="168,-117 0,-117 0,-81 168,-81 168,-117"/>
<text text-anchor="middle" x="84" y="-95.9" font-family="Times,serif" font-size="12.00">Insert Date Appeal to Prefecture</text>
</g>
<!-- 140465201748624 -->
<g id="node9" class="node">
<title>140465201748624</title>
<ellipse fill="white" stroke="black" cx="231" cy="-99" rx="27" ry="27"/>
</g>
<!-- 140465201747232&#45;&gt;140465201748624 -->
<g id="edge7" class="edge">
<title>140465201747232&#45;&gt;140465201748624</title>
<path fill="none" stroke="black" d="M168.09,-99C176.96,-99 185.62,-99 193.51,-99"/>
<polygon fill="black" stroke="black" points="193.75,-102.5 203.75,-99 193.75,-95.5 193.75,-102.5"/>
</g>
<!-- 140465202040448 -->
<g id="node2" class="node">
<title>140465202040448</title>
<polygon fill="white" stroke="black" points="154,-45 14,-45 14,-9 154,-9 154,-45"/>
<text text-anchor="middle" x="84" y="-23.9" font-family="Times,serif" font-size="12.00">Send Appeal to Prefecture</text>
</g>
<!-- 140469013629008 -->
<g id="node6" class="node">
<title>140469013629008</title>
<ellipse fill="white" stroke="black" cx="231" cy="-27" rx="27" ry="27"/>
</g>
<!-- 140465202040448&#45;&gt;140469013629008 -->
<g id="edge2" class="edge">
<title>140465202040448&#45;&gt;140469013629008</title>
<path fill="none" stroke="black" d="M154.1,-27C167.76,-27 181.57,-27 193.6,-27"/>
<polygon fill="black" stroke="black" points="193.67,-30.5 203.67,-27 193.67,-23.5 193.67,-30.5"/>
</g>
<!-- 140465201748960 -->
<g id="node3" class="node">
<title>140465201748960</title>
<polygon fill="white" stroke="black" points="495,-81 294,-81 294,-45 495,-45 495,-81"/>
<text text-anchor="middle" x="394.5" y="-59.9" font-family="Times,serif" font-size="12.00">Receive Result Appeal from Prefecture</text>
</g>
<!-- 140465201749632 -->
<g id="node7" class="node">
<title>140465201749632</title>
<ellipse fill="white" stroke="black" cx="708.5" cy="-95" rx="27" ry="27"/>
</g>
<!-- 140465201748960&#45;&gt;140465201749632 -->
<g id="edge8" class="edge">
<title>140465201748960&#45;&gt;140465201749632</title>
<path fill="none" stroke="black" d="M495.08,-73.21C555.38,-79.4 628.67,-86.92 671.51,-91.31"/>
<polygon fill="black" stroke="black" points="671.15,-94.79 681.45,-92.33 671.86,-87.83 671.15,-94.79"/>
</g>
<!-- 140465201749488 -->
<g id="node8" class="node">
<title>140465201749488</title>
<ellipse fill="white" stroke="black" cx="558" cy="-36" rx="27" ry="27"/>
</g>
<!-- 140465201748960&#45;&gt;140465201749488 -->
<g id="edge9" class="edge">
<title>140465201748960&#45;&gt;140465201749488</title>
<path fill="none" stroke="black" d="M495.02,-46.36C504.23,-44.82 513.09,-43.34 521.09,-42"/>
<polygon fill="black" stroke="black" points="521.79,-45.44 531.07,-40.33 520.63,-38.53 521.79,-45.44"/>
</g>
<!-- 140465201746608 -->
<g id="node4" class="node">
<title>140465201746608</title>
<polygon fill="white" stroke="black" points="980,-81 922,-81 922,-45 980,-45 980,-81"/>
<text text-anchor="middle" x="951" y="-59.9" font-family="Times,serif" font-size="12.00">Payment</text>
</g>
<!-- 140465202040592 -->
<g id="node5" class="node">
<title>140465202040592</title>
<polygon fill="white" stroke="black" points="796,-50 621,-50 621,-14 796,-14 796,-50"/>
<text text-anchor="middle" x="708.5" y="-28.9" font-family="Times,serif" font-size="12.00">Notify Result Appeal to Offender</text>
</g>
<!-- 140465201747760 -->
<g id="node10" class="node">
<title>140465201747760</title>
<ellipse fill="white" stroke="black" cx="859" cy="-36" rx="27" ry="27"/>
</g>
<!-- 140465202040592&#45;&gt;140465201747760 -->
<g id="edge10" class="edge">
<title>140465202040592&#45;&gt;140465201747760</title>
<path fill="none" stroke="black" d="M796.31,-34.34C805.21,-34.58 813.87,-34.81 821.74,-35.02"/>
<polygon fill="black" stroke="black" points="821.85,-38.53 831.94,-35.3 822.04,-31.53 821.85,-38.53"/>
</g>
<!-- 140469013629008&#45;&gt;140465201748960 -->
<g id="edge1" class="edge">
<title>140469013629008&#45;&gt;140465201748960</title>
<path fill="none" stroke="black" d="M257.59,-32.7C270.16,-35.51 286.13,-39.07 302.69,-42.76"/>
<polygon fill="black" stroke="black" points="301.95,-46.18 312.48,-44.94 303.48,-39.35 301.95,-46.18"/>
</g>
<!-- 140465201749632&#45;&gt;140465201746608 -->
<g id="edge3" class="edge">
<title>140465201749632&#45;&gt;140465201746608</title>
<path fill="none" stroke="black" d="M735.53,-91.69C769.97,-87.3 832.57,-79.24 886,-72 894.38,-70.86 903.37,-69.62 911.89,-68.42"/>
<polygon fill="black" stroke="black" points="912.56,-71.86 921.97,-67 911.58,-64.93 912.56,-71.86"/>
</g>
<!-- 140465201749488&#45;&gt;140465202040592 -->
<g id="edge4" class="edge">
<title>140465201749488&#45;&gt;140465202040592</title>
<path fill="none" stroke="black" d="M585.21,-35.29C592.73,-35.09 601.4,-34.86 610.59,-34.61"/>
<polygon fill="black" stroke="black" points="610.82,-38.11 620.73,-34.34 610.63,-31.11 610.82,-38.11"/>
</g>
<!-- 140465201748624&#45;&gt;140465201748960 -->
<g id="edge5" class="edge">
<title>140465201748624&#45;&gt;140465201748960</title>
<path fill="none" stroke="black" d="M257.59,-93.3C270.16,-90.49 286.13,-86.93 302.69,-83.24"/>
<polygon fill="black" stroke="black" points="303.48,-86.65 312.48,-81.06 301.95,-79.82 303.48,-86.65"/>
</g>
<!-- 140465201747760&#45;&gt;140465201746608 -->
<g id="edge6" class="edge">
<title>140465201747760&#45;&gt;140465201746608</title>
<path fill="none" stroke="black" d="M885.07,-43.52C893.47,-46.04 903.04,-48.91 912.2,-51.66"/>
<polygon fill="black" stroke="black" points="911.31,-55.05 921.9,-54.57 913.32,-48.34 911.31,-55.05"/>
</g>
</g>
</svg>
