<?xml version="1.0" encoding="UTF-8" standalone="no"?>
<!DOCTYPE svg PUBLIC "-//W3C//DTD SVG 1.1//EN"
 "http://www.w3.org/Graphics/SVG/1.1/DTD/svg11.dtd">
<!-- Generated by graphviz version 2.43.0 (0)
 -->
<!-- Title: imported_1688044909.1228309 Pages: 1 -->
<svg width="1254pt" height="121pt"
 viewBox="0.00 0.00 1254.00 121.00" xmlns="http://www.w3.org/2000/svg" xmlns:xlink="http://www.w3.org/1999/xlink">
<g id="graph0" class="graph" transform="scale(1 1) rotate(0) translate(4 117)">
<title>imported_1688044909.1228309</title>
<polygon fill="white" stroke="transparent" points="-4,4 -4,-117 1250,-117 1250,4 -4,4"/>
<!-- 140468994199264 -->
<g id="node1" class="node">
<title>140468994199264</title>
<polygon fill="white" stroke="black" points="434,-72 294,-72 294,-36 434,-36 434,-72"/>
<text text-anchor="middle" x="364" y="-50.9" font-family="Times,serif" font-size="12.00">Send Appeal to Prefecture</text>
</g>
<!-- 140468994198496 -->
<g id="node6" class="node">
<title>140468994198496</title>
<ellipse fill="white" stroke="black" cx="497" cy="-54" rx="27" ry="27"/>
</g>
<!-- 140468994199264&#45;&gt;140468994198496 -->
<g id="edge2" class="edge">
<title>140468994199264&#45;&gt;140468994198496</title>
<path fill="none" stroke="black" d="M434.34,-54C443.13,-54 451.82,-54 459.79,-54"/>
<polygon fill="black" stroke="black" points="459.8,-57.5 469.8,-54 459.8,-50.5 459.8,-57.5"/>
</g>
<!-- 140468994198880 -->
<g id="node2" class="node">
<title>140468994198880</title>
<polygon fill="white" stroke="black" points="761,-72 560,-72 560,-36 761,-36 761,-72"/>
<text text-anchor="middle" x="660.5" y="-50.9" font-family="Times,serif" font-size="12.00">Receive Result Appeal from Prefecture</text>
</g>
<!-- 140468994198736 -->
<g id="node7" class="node">
<title>140468994198736</title>
<ellipse fill="white" stroke="black" cx="974.5" cy="-86" rx="27" ry="27"/>
</g>
<!-- 140468994198880&#45;&gt;140468994198736 -->
<g id="edge8" class="edge">
<title>140468994198880&#45;&gt;140468994198736</title>
<path fill="none" stroke="black" d="M761.08,-64.21C821.38,-70.4 894.67,-77.92 937.51,-82.31"/>
<polygon fill="black" stroke="black" points="937.15,-85.79 947.45,-83.33 937.86,-78.83 937.15,-85.79"/>
</g>
<!-- 140468994198928 -->
<g id="node8" class="node">
<title>140468994198928</title>
<ellipse fill="white" stroke="black" cx="824" cy="-27" rx="27" ry="27"/>
</g>
<!-- 140468994198880&#45;&gt;140468994198928 -->
<g id="edge9" class="edge">
<title>140468994198880&#45;&gt;140468994198928</title>
<path fill="none" stroke="black" d="M761.02,-37.36C770.23,-35.82 779.09,-34.34 787.09,-33"/>
<polygon fill="black" stroke="black" points="787.79,-36.44 797.07,-31.33 786.63,-29.53 787.79,-36.44"/>
</g>
<!-- 140468994198400 -->
<g id="node3" class="node">
<title>140468994198400</title>
<polygon fill="white" stroke="black" points="168,-72 0,-72 0,-36 168,-36 168,-72"/>
<text text-anchor="middle" x="84" y="-50.9" font-family="Times,serif" font-size="12.00">Insert Date Appeal to Prefecture</text>
</g>
<!-- 140468994198976 -->
<g id="node9" class="node">
<title>140468994198976</title>
<ellipse fill="white" stroke="black" cx="231" cy="-54" rx="27" ry="27"/>
</g>
<!-- 140468994198400&#45;&gt;140468994198976 -->
<g id="edge7" class="edge">
<title>140468994198400&#45;&gt;140468994198976</title>
<path fill="none" stroke="black" d="M168.09,-54C176.96,-54 185.62,-54 193.51,-54"/>
<polygon fill="black" stroke="black" points="193.75,-57.5 203.75,-54 193.75,-50.5 193.75,-57.5"/>
</g>
<!-- 140468994198448 -->
<g id="node4" class="node">
<title>140468994198448</title>
<polygon fill="white" stroke="black" points="1246,-72 1188,-72 1188,-36 1246,-36 1246,-72"/>
<text text-anchor="middle" x="1217" y="-50.9" font-family="Times,serif" font-size="12.00">Payment</text>
</g>
<!-- 140468994199120 -->
<g id="node5" class="node">
<title>140468994199120</title>
<polygon fill="white" stroke="black" points="1062,-41 887,-41 887,-5 1062,-5 1062,-41"/>
<text text-anchor="middle" x="974.5" y="-19.9" font-family="Times,serif" font-size="12.00">Notify Result Appeal to Offender</text>
</g>
<!-- 140468994198784 -->
<g id="node10" class="node">
<title>140468994198784</title>
<ellipse fill="white" stroke="black" cx="1125" cy="-27" rx="27" ry="27"/>
</g>
<!-- 140468994199120&#45;&gt;140468994198784 -->
<g id="edge10" class="edge">
<title>140468994199120&#45;&gt;140468994198784</title>
<path fill="none" stroke="black" d="M1062.31,-25.34C1071.21,-25.58 1079.87,-25.81 1087.74,-26.02"/>
<polygon fill="black" stroke="black" points="1087.85,-29.53 1097.94,-26.3 1088.04,-22.53 1087.85,-29.53"/>
</g>
<!-- 140468994198496&#45;&gt;140468994198880 -->
<g id="edge1" class="edge">
<title>140468994198496&#45;&gt;140468994198880</title>
<path fill="none" stroke="black" d="M524.31,-54C531.79,-54 540.44,-54 549.68,-54"/>
<polygon fill="black" stroke="black" points="549.9,-57.5 559.9,-54 549.9,-50.5 549.9,-57.5"/>
</g>
<!-- 140468994198736&#45;&gt;140468994198448 -->
<g id="edge3" class="edge">
<title>140468994198736&#45;&gt;140468994198448</title>
<path fill="none" stroke="black" d="M1001.53,-82.69C1035.97,-78.3 1098.57,-70.24 1152,-63 1160.38,-61.86 1169.37,-60.62 1177.89,-59.42"/>
<polygon fill="black" stroke="black" points="1178.56,-62.86 1187.97,-58 1177.58,-55.93 1178.56,-62.86"/>
</g>
<!-- 140468994198928&#45;&gt;140468994199120 -->
<g id="edge4" class="edge">
<title>140468994198928&#45;&gt;140468994199120</title>
<path fill="none" stroke="black" d="M851.21,-26.29C858.73,-26.09 867.4,-25.86 876.59,-25.61"/>
<polygon fill="black" stroke="black" points="876.82,-29.11 886.73,-25.34 876.63,-22.11 876.82,-29.11"/>
</g>
<!-- 140468994198976&#45;&gt;140468994199264 -->
<g id="edge5" class="edge">
<title>140468994198976&#45;&gt;140468994199264</title>
<path fill="none" stroke="black" d="M258.19,-54C265.87,-54 274.69,-54 283.89,-54"/>
<polygon fill="black" stroke="black" points="283.97,-57.5 293.97,-54 283.97,-50.5 283.97,-57.5"/>
</g>
<!-- 140468994198784&#45;&gt;140468994198448 -->
<g id="edge6" class="edge">
<title>140468994198784&#45;&gt;140468994198448</title>
<path fill="none" stroke="black" d="M1151.07,-34.52C1159.47,-37.04 1169.04,-39.91 1178.2,-42.66"/>
<polygon fill="black" stroke="black" points="1177.31,-46.05 1187.9,-45.57 1179.32,-39.34 1177.31,-46.05"/>
</g>
</g>
</svg>
