<?xml version="1.0" encoding="UTF-8" standalone="no"?>
<!DOCTYPE svg PUBLIC "-//W3C//DTD SVG 1.1//EN"
 "http://www.w3.org/Graphics/SVG/1.1/DTD/svg11.dtd">
<!-- Generated by graphviz version 2.43.0 (0)
 -->
<!-- Title: imported_1688044894.3101246 Pages: 1 -->
<svg width="988pt" height="121pt"
 viewBox="0.00 0.00 988.00 121.00" xmlns="http://www.w3.org/2000/svg" xmlns:xlink="http://www.w3.org/1999/xlink">
<g id="graph0" class="graph" transform="scale(1 1) rotate(0) translate(4 117)">
<title>imported_1688044894.3101246</title>
<polygon fill="white" stroke="transparent" points="-4,4 -4,-117 984,-117 984,4 -4,4"/>
<!-- 140465201746608 -->
<g id="node1" class="node">
<title>140465201746608</title>
<polygon fill="white" stroke="black" points="980,-72 922,-72 922,-36 980,-36 980,-72"/>
<text text-anchor="middle" x="951" y="-50.9" font-family="Times,serif" font-size="12.00">Payment</text>
</g>
<!-- 140465201748816 -->
<g id="node2" class="node">
<title>140465201748816</title>
<polygon fill="white" stroke="black" points="796,-41 621,-41 621,-5 796,-5 796,-41"/>
<text text-anchor="middle" x="708.5" y="-19.9" font-family="Times,serif" font-size="12.00">Notify Result Appeal to Offender</text>
</g>
<!-- 140465201749392 -->
<g id="node8" class="node">
<title>140465201749392</title>
<ellipse fill="white" stroke="black" cx="859" cy="-27" rx="27" ry="27"/>
</g>
<!-- 140465201748816&#45;&gt;140465201749392 -->
<g id="edge8" class="edge">
<title>140465201748816&#45;&gt;140465201749392</title>
<path fill="none" stroke="black" d="M796.31,-25.34C805.21,-25.58 813.87,-25.81 821.74,-26.02"/>
<polygon fill="black" stroke="black" points="821.85,-29.53 831.94,-26.3 822.04,-22.53 821.85,-29.53"/>
</g>
<!-- 140465201748096 -->
<g id="node3" class="node">
<title>140465201748096</title>
<polygon fill="white" stroke="black" points="168,-72 0,-72 0,-36 168,-36 168,-72"/>
<text text-anchor="middle" x="84" y="-50.9" font-family="Times,serif" font-size="12.00">Insert Date Appeal to Prefecture</text>
</g>
<!-- 140465201748720 -->
<g id="node7" class="node">
<title>140465201748720</title>
<ellipse fill="white" stroke="black" cx="231" cy="-54" rx="27" ry="27"/>
</g>
<!-- 140465201748096&#45;&gt;140465201748720 -->
<g id="edge5" class="edge">
<title>140465201748096&#45;&gt;140465201748720</title>
<path fill="none" stroke="black" d="M168.09,-54C176.96,-54 185.62,-54 193.51,-54"/>
<polygon fill="black" stroke="black" points="193.75,-57.5 203.75,-54 193.75,-50.5 193.75,-57.5"/>
</g>
<!-- 140465201746368 -->
<g id="node4" class="node">
<title>140465201746368</title>
<polygon fill="white" stroke="black" points="495,-72 294,-72 294,-36 495,-36 495,-72"/>
<text text-anchor="middle" x="394.5" y="-50.9" font-family="Times,serif" font-size="12.00">Receive Result Appeal from Prefecture</text>
</g>
<!-- 140465201748336 -->
<g id="node5" class="node">
<title>140465201748336</title>
<ellipse fill="white" stroke="black" cx="708.5" cy="-86" rx="27" ry="27"/>
</g>
<!-- 140465201746368&#45;&gt;140465201748336 -->
<g id="edge6" class="edge">
<title>140465201746368&#45;&gt;140465201748336</title>
<path fill="none" stroke="black" d="M495.08,-64.21C555.38,-70.4 628.67,-77.92 671.51,-82.31"/>
<polygon fill="black" stroke="black" points="671.15,-85.79 681.45,-83.33 671.86,-78.83 671.15,-85.79"/>
</g>
<!-- 140465201746560 -->
<g id="node6" class="node">
<title>140465201746560</title>
<ellipse fill="white" stroke="black" cx="558" cy="-27" rx="27" ry="27"/>
</g>
<!-- 140465201746368&#45;&gt;140465201746560 -->
<g id="edge7" class="edge">
<title>140465201746368&#45;&gt;140465201746560</title>
<path fill="none" stroke="black" d="M495.02,-37.36C504.23,-35.82 513.09,-34.34 521.09,-33"/>
<polygon fill="black" stroke="black" points="521.79,-36.44 531.07,-31.33 520.63,-29.53 521.79,-36.44"/>
</g>
<!-- 140465201748336&#45;&gt;140465201746608 -->
<g id="edge1" class="edge">
<title>140465201748336&#45;&gt;140465201746608</title>
<path fill="none" stroke="black" d="M735.53,-82.69C769.97,-78.3 832.57,-70.24 886,-63 894.38,-61.86 903.37,-60.62 911.89,-59.42"/>
<polygon fill="black" stroke="black" points="912.56,-62.86 921.97,-58 911.58,-55.93 912.56,-62.86"/>
</g>
<!-- 140465201746560&#45;&gt;140465201748816 -->
<g id="edge2" class="edge">
<title>140465201746560&#45;&gt;140465201748816</title>
<path fill="none" stroke="black" d="M585.21,-26.29C592.73,-26.09 601.4,-25.86 610.59,-25.61"/>
<polygon fill="black" stroke="black" points="610.82,-29.11 620.73,-25.34 610.63,-22.11 610.82,-29.11"/>
</g>
<!-- 140465201748720&#45;&gt;140465201746368 -->
<g id="edge3" class="edge">
<title>140465201748720&#45;&gt;140465201746368</title>
<path fill="none" stroke="black" d="M258.31,-54C265.79,-54 274.44,-54 283.68,-54"/>
<polygon fill="black" stroke="black" points="283.9,-57.5 293.9,-54 283.9,-50.5 283.9,-57.5"/>
</g>
<!-- 140465201749392&#45;&gt;140465201746608 -->
<g id="edge4" class="edge">
<title>140465201749392&#45;&gt;140465201746608</title>
<path fill="none" stroke="black" d="M885.07,-34.52C893.47,-37.04 903.04,-39.91 912.2,-42.66"/>
<polygon fill="black" stroke="black" points="911.31,-46.05 921.9,-45.57 913.32,-39.34 911.31,-46.05"/>
</g>
</g>
</svg>
