<?xml version="1.0" encoding="UTF-8" standalone="no"?>
<!DOCTYPE svg PUBLIC "-//W3C//DTD SVG 1.1//EN"
 "http://www.w3.org/Graphics/SVG/1.1/DTD/svg11.dtd">
<!-- Generated by graphviz version 2.43.0 (0)
 -->
<!-- Title: imported_1688044886.925781 Pages: 1 -->
<svg width="804pt" height="134pt"
 viewBox="0.00 0.00 804.00 134.00" xmlns="http://www.w3.org/2000/svg" xmlns:xlink="http://www.w3.org/1999/xlink">
<g id="graph0" class="graph" transform="scale(1 1) rotate(0) translate(4 130)">
<title>imported_1688044886.925781</title>
<polygon fill="white" stroke="transparent" points="-4,4 -4,-130 800,-130 800,4 -4,4"/>
<!-- 140465201726080 -->
<g id="node1" class="node">
<title>140465201726080</title>
<polygon fill="white" stroke="black" points="737.5,-117 679.5,-117 679.5,-81 737.5,-81 737.5,-117"/>
<text text-anchor="middle" x="708.5" y="-95.9" font-family="Times,serif" font-size="12.00">Payment</text>
</g>
<!-- 140465201725696 -->
<g id="node2" class="node">
<title>140465201725696</title>
<polygon fill="white" stroke="black" points="154,-117 14,-117 14,-81 154,-81 154,-117"/>
<text text-anchor="middle" x="84" y="-95.9" font-family="Times,serif" font-size="12.00">Send Appeal to Prefecture</text>
</g>
<!-- 140465201725888 -->
<g id="node6" class="node">
<title>140465201725888</title>
<ellipse fill="white" stroke="black" cx="231" cy="-99" rx="27" ry="27"/>
</g>
<!-- 140465201725696&#45;&gt;140465201725888 -->
<g id="edge8" class="edge">
<title>140465201725696&#45;&gt;140465201725888</title>
<path fill="none" stroke="black" d="M154.1,-99C167.76,-99 181.57,-99 193.6,-99"/>
<polygon fill="black" stroke="black" points="193.67,-102.5 203.67,-99 193.67,-95.5 193.67,-102.5"/>
</g>
<!-- 140465201725984 -->
<g id="node3" class="node">
<title>140465201725984</title>
<polygon fill="white" stroke="black" points="495,-81 294,-81 294,-45 495,-45 495,-81"/>
<text text-anchor="middle" x="394.5" y="-59.9" font-family="Times,serif" font-size="12.00">Receive Result Appeal from Prefecture</text>
</g>
<!-- 140465201726032 -->
<g id="node7" class="node">
<title>140465201726032</title>
<ellipse fill="white" stroke="black" cx="558" cy="-99" rx="27" ry="27"/>
</g>
<!-- 140465201725984&#45;&gt;140465201726032 -->
<g id="edge6" class="edge">
<title>140465201725984&#45;&gt;140465201726032</title>
<path fill="none" stroke="black" d="M476.72,-81.11C492.47,-84.61 508.18,-88.12 521.49,-91.08"/>
<polygon fill="black" stroke="black" points="521.07,-94.58 531.59,-93.34 522.59,-87.74 521.07,-94.58"/>
</g>
<!-- 140465201726128 -->
<g id="node8" class="node">
<title>140465201726128</title>
<ellipse fill="white" stroke="black" cx="558" cy="-27" rx="27" ry="27"/>
</g>
<!-- 140465201725984&#45;&gt;140465201726128 -->
<g id="edge7" class="edge">
<title>140465201725984&#45;&gt;140465201726128</title>
<path fill="none" stroke="black" d="M476.72,-44.89C492.47,-41.39 508.18,-37.88 521.49,-34.92"/>
<polygon fill="black" stroke="black" points="522.59,-38.26 531.59,-32.66 521.07,-31.42 522.59,-38.26"/>
</g>
<!-- 140465201729344 -->
<g id="node4" class="node">
<title>140465201729344</title>
<polygon fill="white" stroke="black" points="796,-45 621,-45 621,-9 796,-9 796,-45"/>
<text text-anchor="middle" x="708.5" y="-23.9" font-family="Times,serif" font-size="12.00">Notify Result Appeal to Offender</text>
</g>
<!-- 140465201725840 -->
<g id="node5" class="node">
<title>140465201725840</title>
<polygon fill="white" stroke="black" points="168,-45 0,-45 0,-9 168,-9 168,-45"/>
<text text-anchor="middle" x="84" y="-23.9" font-family="Times,serif" font-size="12.00">Insert Date Appeal to Prefecture</text>
</g>
<!-- 140465201726176 -->
<g id="node9" class="node">
<title>140465201726176</title>
<ellipse fill="white" stroke="black" cx="231" cy="-27" rx="27" ry="27"/>
</g>
<!-- 140465201725840&#45;&gt;140465201726176 -->
<g id="edge5" class="edge">
<title>140465201725840&#45;&gt;140465201726176</title>
<path fill="none" stroke="black" d="M168.09,-27C176.96,-27 185.62,-27 193.51,-27"/>
<polygon fill="black" stroke="black" points="193.75,-30.5 203.75,-27 193.75,-23.5 193.75,-30.5"/>
</g>
<!-- 140465201725888&#45;&gt;140465201725984 -->
<g id="edge1" class="edge">
<title>140465201725888&#45;&gt;140465201725984</title>
<path fill="none" stroke="black" d="M257.59,-93.3C270.16,-90.49 286.13,-86.93 302.69,-83.24"/>
<polygon fill="black" stroke="black" points="303.48,-86.65 312.48,-81.06 301.95,-79.82 303.48,-86.65"/>
</g>
<!-- 140465201726032&#45;&gt;140465201726080 -->
<g id="edge2" class="edge">
<title>140465201726032&#45;&gt;140465201726080</title>
<path fill="none" stroke="black" d="M585.21,-99C608.51,-99 642.87,-99 669.25,-99"/>
<polygon fill="black" stroke="black" points="669.28,-102.5 679.28,-99 669.28,-95.5 669.28,-102.5"/>
</g>
<!-- 140465201726128&#45;&gt;140465201729344 -->
<g id="edge3" class="edge">
<title>140465201726128&#45;&gt;140465201729344</title>
<path fill="none" stroke="black" d="M585.21,-27C592.73,-27 601.4,-27 610.59,-27"/>
<polygon fill="black" stroke="black" points="610.73,-30.5 620.73,-27 610.72,-23.5 610.73,-30.5"/>
</g>
<!-- 140465201726176&#45;&gt;140465201725984 -->
<g id="edge4" class="edge">
<title>140465201726176&#45;&gt;140465201725984</title>
<path fill="none" stroke="black" d="M257.59,-32.7C270.16,-35.51 286.13,-39.07 302.69,-42.76"/>
<polygon fill="black" stroke="black" points="301.95,-46.18 312.48,-44.94 303.48,-39.35 301.95,-46.18"/>
</g>
</g>
</svg>
