<?xml version="1.0" encoding="UTF-8" standalone="no"?>
<!DOCTYPE svg PUBLIC "-//W3C//DTD SVG 1.1//EN"
 "http://www.w3.org/Graphics/SVG/1.1/DTD/svg11.dtd">
<!-- Generated by graphviz version 2.43.0 (0)
 -->
<!-- Title: imported_1688044886.9908338 Pages: 1 -->
<svg width="960pt" height="134pt"
 viewBox="0.00 0.00 960.00 134.00" xmlns="http://www.w3.org/2000/svg" xmlns:xlink="http://www.w3.org/1999/xlink">
<g id="graph0" class="graph" transform="scale(1 1) rotate(0) translate(4 130)">
<title>imported_1688044886.9908338</title>
<polygon fill="white" stroke="transparent" points="-4,4 -4,-130 956,-130 956,4 -4,4"/>
<!-- 140465201767232 -->
<g id="node1" class="node">
<title>140465201767232</title>
<polygon fill="white" stroke="black" points="467,-45 266,-45 266,-9 467,-9 467,-45"/>
<text text-anchor="middle" x="366.5" y="-23.9" font-family="Times,serif" font-size="12.00">Receive Result Appeal from Prefecture</text>
</g>
<!-- 140465201767520 -->
<g id="node7" class="node">
<title>140465201767520</title>
<ellipse fill="white" stroke="black" cx="530" cy="-27" rx="27" ry="27"/>
</g>
<!-- 140465201767232&#45;&gt;140465201767520 -->
<g id="edge6" class="edge">
<title>140465201767232&#45;&gt;140465201767520</title>
<path fill="none" stroke="black" d="M467.02,-27C476.04,-27 484.72,-27 492.59,-27"/>
<polygon fill="black" stroke="black" points="492.77,-30.5 502.77,-27 492.77,-23.5 492.77,-30.5"/>
</g>
<!-- 140465201767328 -->
<g id="node2" class="node">
<title>140465201767328</title>
<polygon fill="white" stroke="black" points="450.5,-117 282.5,-117 282.5,-81 450.5,-81 450.5,-117"/>
<text text-anchor="middle" x="366.5" y="-95.9" font-family="Times,serif" font-size="12.00">Insert Date Appeal to Prefecture</text>
</g>
<!-- 140465201767712 -->
<g id="node8" class="node">
<title>140465201767712</title>
<ellipse fill="white" stroke="black" cx="530" cy="-99" rx="27" ry="27"/>
</g>
<!-- 140465201767328&#45;&gt;140465201767712 -->
<g id="edge5" class="edge">
<title>140465201767328&#45;&gt;140465201767712</title>
<path fill="none" stroke="black" d="M450.62,-99C465.47,-99 480.22,-99 492.84,-99"/>
<polygon fill="black" stroke="black" points="492.91,-102.5 502.91,-99 492.91,-95.5 492.91,-102.5"/>
</g>
<!-- 140465201767904 -->
<g id="node3" class="node">
<title>140465201767904</title>
<polygon fill="white" stroke="black" points="140,-45 0,-45 0,-9 140,-9 140,-45"/>
<text text-anchor="middle" x="70" y="-23.9" font-family="Times,serif" font-size="12.00">Send Appeal to Prefecture</text>
</g>
<!-- 140465201767280 -->
<g id="node6" class="node">
<title>140465201767280</title>
<ellipse fill="white" stroke="black" cx="203" cy="-27" rx="27" ry="27"/>
</g>
<!-- 140465201767904&#45;&gt;140465201767280 -->
<g id="edge8" class="edge">
<title>140465201767904&#45;&gt;140465201767280</title>
<path fill="none" stroke="black" d="M140.34,-27C149.13,-27 157.82,-27 165.79,-27"/>
<polygon fill="black" stroke="black" points="165.8,-30.5 175.8,-27 165.8,-23.5 165.8,-30.5"/>
</g>
<!-- 140465201767568 -->
<g id="node4" class="node">
<title>140465201767568</title>
<polygon fill="white" stroke="black" points="952,-81 894,-81 894,-45 952,-45 952,-81"/>
<text text-anchor="middle" x="923" y="-59.9" font-family="Times,serif" font-size="12.00">Payment</text>
</g>
<!-- 140465201767664 -->
<g id="node5" class="node">
<title>140465201767664</title>
<polygon fill="white" stroke="black" points="768,-81 593,-81 593,-45 768,-45 768,-81"/>
<text text-anchor="middle" x="680.5" y="-59.9" font-family="Times,serif" font-size="12.00">Notify Result Appeal to Offender</text>
</g>
<!-- 140465201767760 -->
<g id="node9" class="node">
<title>140465201767760</title>
<ellipse fill="white" stroke="black" cx="831" cy="-63" rx="27" ry="27"/>
</g>
<!-- 140465201767664&#45;&gt;140465201767760 -->
<g id="edge7" class="edge">
<title>140465201767664&#45;&gt;140465201767760</title>
<path fill="none" stroke="black" d="M768.31,-63C777.21,-63 785.87,-63 793.74,-63"/>
<polygon fill="black" stroke="black" points="793.94,-66.5 803.94,-63 793.94,-59.5 793.94,-66.5"/>
</g>
<!-- 140465201767280&#45;&gt;140465201767232 -->
<g id="edge1" class="edge">
<title>140465201767280&#45;&gt;140465201767232</title>
<path fill="none" stroke="black" d="M230.31,-27C237.79,-27 246.44,-27 255.68,-27"/>
<polygon fill="black" stroke="black" points="255.9,-30.5 265.9,-27 255.9,-23.5 255.9,-30.5"/>
</g>
<!-- 140465201767520&#45;&gt;140465201767664 -->
<g id="edge2" class="edge">
<title>140465201767520&#45;&gt;140465201767664</title>
<path fill="none" stroke="black" d="M556.53,-33.19C567.58,-35.87 581.21,-39.17 595.32,-42.59"/>
<polygon fill="black" stroke="black" points="594.6,-46.02 605.14,-44.97 596.25,-39.22 594.6,-46.02"/>
</g>
<!-- 140465201767712&#45;&gt;140465201767664 -->
<g id="edge3" class="edge">
<title>140465201767712&#45;&gt;140465201767664</title>
<path fill="none" stroke="black" d="M556.53,-92.81C567.58,-90.13 581.21,-86.83 595.32,-83.41"/>
<polygon fill="black" stroke="black" points="596.25,-86.78 605.14,-81.03 594.6,-79.98 596.25,-86.78"/>
</g>
<!-- 140465201767760&#45;&gt;140465201767568 -->
<g id="edge4" class="edge">
<title>140465201767760&#45;&gt;140465201767568</title>
<path fill="none" stroke="black" d="M858.03,-63C866,-63 874.95,-63 883.56,-63"/>
<polygon fill="black" stroke="black" points="883.82,-66.5 893.82,-63 883.82,-59.5 883.82,-66.5"/>
</g>
</g>
</svg>
