<?xml version="1.0" encoding="UTF-8" standalone="no"?>
<!DOCTYPE svg PUBLIC "-//W3C//DTD SVG 1.1//EN"
 "http://www.w3.org/Graphics/SVG/1.1/DTD/svg11.dtd">
<!-- Generated by graphviz version 2.43.0 (0)
 -->
<!-- Title: imported_1688044886.7820365 Pages: 1 -->
<svg width="1070pt" height="134pt"
 viewBox="0.00 0.00 1070.00 134.00" xmlns="http://www.w3.org/2000/svg" xmlns:xlink="http://www.w3.org/1999/xlink">
<g id="graph0" class="graph" transform="scale(1 1) rotate(0) translate(4 130)">
<title>imported_1688044886.7820365</title>
<polygon fill="white" stroke="transparent" points="-4,4 -4,-130 1066,-130 1066,4 -4,4"/>
<!-- 140464257981216 -->
<g id="node1" class="node">
<title>140464257981216</title>
<polygon fill="white" stroke="black" points="168,-81 0,-81 0,-45 168,-45 168,-81"/>
<text text-anchor="middle" x="84" y="-59.9" font-family="Times,serif" font-size="12.00">Insert Date Appeal to Prefecture</text>
</g>
<!-- 140469013629440 -->
<g id="node9" class="node">
<title>140469013629440</title>
<ellipse fill="white" stroke="black" cx="231" cy="-63" rx="27" ry="27"/>
</g>
<!-- 140464257981216&#45;&gt;140469013629440 -->
<g id="edge5" class="edge">
<title>140464257981216&#45;&gt;140469013629440</title>
<path fill="none" stroke="black" d="M168.09,-63C176.96,-63 185.62,-63 193.51,-63"/>
<polygon fill="black" stroke="black" points="193.75,-66.5 203.75,-63 193.75,-59.5 193.75,-66.5"/>
</g>
<!-- 140464257982272 -->
<g id="node2" class="node">
<title>140464257982272</title>
<polygon fill="white" stroke="black" points="434,-81 294,-81 294,-45 434,-45 434,-81"/>
<text text-anchor="middle" x="364" y="-59.9" font-family="Times,serif" font-size="12.00">Send Appeal to Prefecture</text>
</g>
<!-- 140465201746128 -->
<g id="node6" class="node">
<title>140465201746128</title>
<ellipse fill="white" stroke="black" cx="497" cy="-99" rx="27" ry="27"/>
</g>
<!-- 140464257982272&#45;&gt;140465201746128 -->
<g id="edge7" class="edge">
<title>140464257982272&#45;&gt;140465201746128</title>
<path fill="none" stroke="black" d="M430.88,-81.11C441.27,-83.96 451.65,-86.81 460.96,-89.37"/>
<polygon fill="black" stroke="black" points="460.04,-92.75 470.61,-92.02 461.89,-86 460.04,-92.75"/>
</g>
<!-- 140465201748672 -->
<g id="node7" class="node">
<title>140465201748672</title>
<ellipse fill="white" stroke="black" cx="497" cy="-27" rx="27" ry="27"/>
</g>
<!-- 140464257982272&#45;&gt;140465201748672 -->
<g id="edge8" class="edge">
<title>140464257982272&#45;&gt;140465201748672</title>
<path fill="none" stroke="black" d="M430.88,-44.89C441.27,-42.04 451.65,-39.19 460.96,-36.63"/>
<polygon fill="black" stroke="black" points="461.89,-40 470.61,-33.98 460.04,-33.25 461.89,-40"/>
</g>
<!-- 140464257981312 -->
<g id="node3" class="node">
<title>140464257981312</title>
<polygon fill="white" stroke="black" points="761,-45 560,-45 560,-9 761,-9 761,-45"/>
<text text-anchor="middle" x="660.5" y="-23.9" font-family="Times,serif" font-size="12.00">Receive Result Appeal from Prefecture</text>
</g>
<!-- 140465201748288 -->
<g id="node8" class="node">
<title>140465201748288</title>
<ellipse fill="white" stroke="black" cx="824" cy="-27" rx="27" ry="27"/>
</g>
<!-- 140464257981312&#45;&gt;140465201748288 -->
<g id="edge6" class="edge">
<title>140464257981312&#45;&gt;140465201748288</title>
<path fill="none" stroke="black" d="M761.02,-27C770.04,-27 778.72,-27 786.59,-27"/>
<polygon fill="black" stroke="black" points="786.77,-30.5 796.77,-27 786.77,-23.5 786.77,-30.5"/>
</g>
<!-- 140469013629008 -->
<g id="node4" class="node">
<title>140469013629008</title>
<polygon fill="white" stroke="black" points="689.5,-117 631.5,-117 631.5,-81 689.5,-81 689.5,-117"/>
<text text-anchor="middle" x="660.5" y="-95.9" font-family="Times,serif" font-size="12.00">Payment</text>
</g>
<!-- 140464257982320 -->
<g id="node5" class="node">
<title>140464257982320</title>
<polygon fill="white" stroke="black" points="1062,-45 887,-45 887,-9 1062,-9 1062,-45"/>
<text text-anchor="middle" x="974.5" y="-23.9" font-family="Times,serif" font-size="12.00">Notify Result Appeal to Offender</text>
</g>
<!-- 140465201746128&#45;&gt;140469013629008 -->
<g id="edge1" class="edge">
<title>140465201746128&#45;&gt;140469013629008</title>
<path fill="none" stroke="black" d="M524.31,-99C550.61,-99 591.34,-99 621.23,-99"/>
<polygon fill="black" stroke="black" points="621.3,-102.5 631.3,-99 621.3,-95.5 621.3,-102.5"/>
</g>
<!-- 140465201748672&#45;&gt;140464257981312 -->
<g id="edge2" class="edge">
<title>140465201748672&#45;&gt;140464257981312</title>
<path fill="none" stroke="black" d="M524.31,-27C531.79,-27 540.44,-27 549.68,-27"/>
<polygon fill="black" stroke="black" points="549.9,-30.5 559.9,-27 549.9,-23.5 549.9,-30.5"/>
</g>
<!-- 140465201748288&#45;&gt;140464257982320 -->
<g id="edge3" class="edge">
<title>140465201748288&#45;&gt;140464257982320</title>
<path fill="none" stroke="black" d="M851.21,-27C858.73,-27 867.4,-27 876.59,-27"/>
<polygon fill="black" stroke="black" points="876.73,-30.5 886.73,-27 876.72,-23.5 876.73,-30.5"/>
</g>
<!-- 140469013629440&#45;&gt;140464257982272 -->
<g id="edge4" class="edge">
<title>140469013629440&#45;&gt;140464257982272</title>
<path fill="none" stroke="black" d="M258.19,-63C265.87,-63 274.69,-63 283.89,-63"/>
<polygon fill="black" stroke="black" points="283.97,-66.5 293.97,-63 283.97,-59.5 283.97,-66.5"/>
</g>
</g>
</svg>
