<?xml version="1.0" encoding="UTF-8" standalone="no"?>
<!DOCTYPE svg PUBLIC "-//W3C//DTD SVG 1.1//EN"
 "http://www.w3.org/Graphics/SVG/1.1/DTD/svg11.dtd">
<!-- Generated by graphviz version 2.43.0 (0)
 -->
<!-- Title: imported_1688044887.1945527 Pages: 1 -->
<svg width="988pt" height="134pt"
 viewBox="0.00 0.00 988.00 134.00" xmlns="http://www.w3.org/2000/svg" xmlns:xlink="http://www.w3.org/1999/xlink">
<g id="graph0" class="graph" transform="scale(1 1) rotate(0) translate(4 130)">
<title>imported_1688044887.1945527</title>
<polygon fill="white" stroke="transparent" points="-4,4 -4,-130 984,-130 984,4 -4,4"/>
<!-- 140465201706944 -->
<g id="node1" class="node">
<title>140465201706944</title>
<polygon fill="white" stroke="black" points="980,-84 922,-84 922,-48 980,-48 980,-84"/>
<text text-anchor="middle" x="951" y="-62.9" font-family="Times,serif" font-size="12.00">Payment</text>
</g>
<!-- 140465201707616 -->
<g id="node2" class="node">
<title>140465201707616</title>
<polygon fill="white" stroke="black" points="796,-52 621,-52 621,-16 796,-16 796,-52"/>
<text text-anchor="middle" x="708.5" y="-30.9" font-family="Times,serif" font-size="12.00">Notify Result Appeal to Offender</text>
</g>
<!-- 140465201707280 -->
<g id="node10" class="node">
<title>140465201707280</title>
<ellipse fill="white" stroke="black" cx="859" cy="-38" rx="27" ry="27"/>
</g>
<!-- 140465201707616&#45;&gt;140465201707280 -->
<g id="edge10" class="edge">
<title>140465201707616&#45;&gt;140465201707280</title>
<path fill="none" stroke="black" d="M796.31,-36.34C805.21,-36.58 813.87,-36.81 821.74,-37.02"/>
<polygon fill="black" stroke="black" points="821.85,-40.53 831.94,-37.3 822.04,-33.53 821.85,-40.53"/>
</g>
<!-- 140465201707376 -->
<g id="node3" class="node">
<title>140465201707376</title>
<polygon fill="white" stroke="black" points="495,-46 294,-46 294,-10 495,-10 495,-46"/>
<text text-anchor="middle" x="394.5" y="-24.9" font-family="Times,serif" font-size="12.00">Receive Result Appeal from Prefecture</text>
</g>
<!-- 140465201707232 -->
<g id="node7" class="node">
<title>140465201707232</title>
<ellipse fill="white" stroke="black" cx="558" cy="-30" rx="27" ry="27"/>
</g>
<!-- 140465201707376&#45;&gt;140465201707232 -->
<g id="edge9" class="edge">
<title>140465201707376&#45;&gt;140465201707232</title>
<path fill="none" stroke="black" d="M495.02,-29.23C504.04,-29.34 512.72,-29.45 520.59,-29.55"/>
<polygon fill="black" stroke="black" points="520.73,-33.05 530.77,-29.68 520.82,-26.05 520.73,-33.05"/>
</g>
<!-- 140465201706896 -->
<g id="node4" class="node">
<title>140465201706896</title>
<polygon fill="white" stroke="black" points="168,-81 0,-81 0,-45 168,-45 168,-81"/>
<text text-anchor="middle" x="84" y="-59.9" font-family="Times,serif" font-size="12.00">Insert Date Appeal to Prefecture</text>
</g>
<!-- 140465201707424 -->
<g id="node8" class="node">
<title>140465201707424</title>
<ellipse fill="white" stroke="black" cx="231" cy="-99" rx="27" ry="27"/>
</g>
<!-- 140465201706896&#45;&gt;140465201707424 -->
<g id="edge7" class="edge">
<title>140465201706896&#45;&gt;140465201707424</title>
<path fill="none" stroke="black" d="M157.92,-81.11C170.78,-84.3 183.61,-87.48 194.81,-90.26"/>
<polygon fill="black" stroke="black" points="194.04,-93.68 204.59,-92.69 195.73,-86.88 194.04,-93.68"/>
</g>
<!-- 140465201707472 -->
<g id="node9" class="node">
<title>140465201707472</title>
<ellipse fill="white" stroke="black" cx="231" cy="-27" rx="27" ry="27"/>
</g>
<!-- 140465201706896&#45;&gt;140465201707472 -->
<g id="edge8" class="edge">
<title>140465201706896&#45;&gt;140465201707472</title>
<path fill="none" stroke="black" d="M157.92,-44.89C170.78,-41.7 183.61,-38.52 194.81,-35.74"/>
<polygon fill="black" stroke="black" points="195.73,-39.12 204.59,-33.31 194.04,-32.32 195.73,-39.12"/>
</g>
<!-- 140465201707760 -->
<g id="node5" class="node">
<title>140465201707760</title>
<polygon fill="white" stroke="black" points="464.5,-116 324.5,-116 324.5,-80 464.5,-80 464.5,-116"/>
<text text-anchor="middle" x="394.5" y="-94.9" font-family="Times,serif" font-size="12.00">Send Appeal to Prefecture</text>
</g>
<!-- 140465201706992 -->
<g id="node6" class="node">
<title>140465201706992</title>
<ellipse fill="white" stroke="black" cx="708.5" cy="-97" rx="27" ry="27"/>
</g>
<!-- 140465201707760&#45;&gt;140465201706992 -->
<g id="edge2" class="edge">
<title>140465201707760&#45;&gt;140465201706992</title>
<path fill="none" stroke="black" d="M464.74,-97.78C528.6,-97.57 620.9,-97.28 671.3,-97.12"/>
<polygon fill="black" stroke="black" points="671.4,-100.62 681.39,-97.08 671.38,-93.62 671.4,-100.62"/>
</g>
<!-- 140465201706992&#45;&gt;140465201706944 -->
<g id="edge1" class="edge">
<title>140465201706992&#45;&gt;140465201706944</title>
<path fill="none" stroke="black" d="M735.7,-93.62C778.32,-88.13 862.85,-77.23 912.05,-70.89"/>
<polygon fill="black" stroke="black" points="912.52,-74.36 921.99,-69.61 911.62,-67.42 912.52,-74.36"/>
</g>
<!-- 140465201707232&#45;&gt;140465201707616 -->
<g id="edge3" class="edge">
<title>140465201707232&#45;&gt;140465201707616</title>
<path fill="none" stroke="black" d="M585.21,-30.71C592.73,-30.91 601.4,-31.14 610.59,-31.39"/>
<polygon fill="black" stroke="black" points="610.63,-34.89 620.73,-31.66 610.82,-27.89 610.63,-34.89"/>
</g>
<!-- 140465201707424&#45;&gt;140465201707760 -->
<g id="edge4" class="edge">
<title>140465201707424&#45;&gt;140465201707760</title>
<path fill="none" stroke="black" d="M258.31,-98.84C273.68,-98.74 293.97,-98.62 314.15,-98.49"/>
<polygon fill="black" stroke="black" points="314.36,-101.99 324.34,-98.43 314.32,-94.99 314.36,-101.99"/>
</g>
<!-- 140465201707472&#45;&gt;140465201707376 -->
<g id="edge5" class="edge">
<title>140465201707472&#45;&gt;140465201707376</title>
<path fill="none" stroke="black" d="M258.31,-27.16C265.79,-27.21 274.44,-27.26 283.68,-27.32"/>
<polygon fill="black" stroke="black" points="283.88,-30.82 293.9,-27.38 283.92,-23.82 283.88,-30.82"/>
</g>
<!-- 140465201707280&#45;&gt;140465201706944 -->
<g id="edge6" class="edge">
<title>140465201707280&#45;&gt;140465201706944</title>
<path fill="none" stroke="black" d="M885.07,-45.8C893.47,-48.41 903.04,-51.39 912.2,-54.24"/>
<polygon fill="black" stroke="black" points="911.31,-57.63 921.9,-57.26 913.39,-50.94 911.31,-57.63"/>
</g>
</g>
</svg>
