<?xml version="1.0" encoding="UTF-8" standalone="no"?>
<!DOCTYPE svg PUBLIC "-//W3C//DTD SVG 1.1//EN"
 "http://www.w3.org/Graphics/SVG/1.1/DTD/svg11.dtd">
<!-- Generated by graphviz version 2.43.0 (0)
 -->
<!-- Title: imported_1688044896.2814348 Pages: 1 -->
<svg width="988pt" height="134pt"
 viewBox="0.00 0.00 988.00 134.00" xmlns="http://www.w3.org/2000/svg" xmlns:xlink="http://www.w3.org/1999/xlink">
<g id="graph0" class="graph" transform="scale(1 1) rotate(0) translate(4 130)">
<title>imported_1688044896.2814348</title>
<polygon fill="white" stroke="transparent" points="-4,4 -4,-130 984,-130 984,4 -4,4"/>
<!-- 140468994058464 -->
<g id="node1" class="node">
<title>140468994058464</title>
<polygon fill="white" stroke="black" points="464.5,-116 324.5,-116 324.5,-80 464.5,-80 464.5,-116"/>
<text text-anchor="middle" x="394.5" y="-94.9" font-family="Times,serif" font-size="12.00">Send Appeal to Prefecture</text>
</g>
<!-- 140465201747520 -->
<g id="node6" class="node">
<title>140465201747520</title>
<ellipse fill="white" stroke="black" cx="708.5" cy="-97" rx="27" ry="27"/>
</g>
<!-- 140468994058464&#45;&gt;140465201747520 -->
<g id="edge2" class="edge">
<title>140468994058464&#45;&gt;140465201747520</title>
<path fill="none" stroke="black" d="M464.74,-97.78C528.6,-97.57 620.9,-97.28 671.3,-97.12"/>
<polygon fill="black" stroke="black" points="671.4,-100.62 681.39,-97.08 671.38,-93.62 671.4,-100.62"/>
</g>
<!-- 140468994058176 -->
<g id="node2" class="node">
<title>140468994058176</title>
<polygon fill="white" stroke="black" points="168,-81 0,-81 0,-45 168,-45 168,-81"/>
<text text-anchor="middle" x="84" y="-59.9" font-family="Times,serif" font-size="12.00">Insert Date Appeal to Prefecture</text>
</g>
<!-- 140465201746464 -->
<g id="node8" class="node">
<title>140465201746464</title>
<ellipse fill="white" stroke="black" cx="231" cy="-99" rx="27" ry="27"/>
</g>
<!-- 140468994058176&#45;&gt;140465201746464 -->
<g id="edge7" class="edge">
<title>140468994058176&#45;&gt;140465201746464</title>
<path fill="none" stroke="black" d="M157.92,-81.11C170.78,-84.3 183.61,-87.48 194.81,-90.26"/>
<polygon fill="black" stroke="black" points="194.04,-93.68 204.59,-92.69 195.73,-86.88 194.04,-93.68"/>
</g>
<!-- 140465201748912 -->
<g id="node9" class="node">
<title>140465201748912</title>
<ellipse fill="white" stroke="black" cx="231" cy="-27" rx="27" ry="27"/>
</g>
<!-- 140468994058176&#45;&gt;140465201748912 -->
<g id="edge8" class="edge">
<title>140468994058176&#45;&gt;140465201748912</title>
<path fill="none" stroke="black" d="M157.92,-44.89C170.78,-41.7 183.61,-38.52 194.81,-35.74"/>
<polygon fill="black" stroke="black" points="195.73,-39.12 204.59,-33.31 194.04,-32.32 195.73,-39.12"/>
</g>
<!-- 140465201749776 -->
<g id="node3" class="node">
<title>140465201749776</title>
<polygon fill="white" stroke="black" points="980,-82 922,-82 922,-46 980,-46 980,-82"/>
<text text-anchor="middle" x="951" y="-60.9" font-family="Times,serif" font-size="12.00">Payment</text>
</g>
<!-- 140468994058320 -->
<g id="node4" class="node">
<title>140468994058320</title>
<polygon fill="white" stroke="black" points="796,-51 621,-51 621,-15 796,-15 796,-51"/>
<text text-anchor="middle" x="708.5" y="-29.9" font-family="Times,serif" font-size="12.00">Notify Result Appeal to Offender</text>
</g>
<!-- 140465201747664 -->
<g id="node10" class="node">
<title>140465201747664</title>
<ellipse fill="white" stroke="black" cx="859" cy="-37" rx="27" ry="27"/>
</g>
<!-- 140468994058320&#45;&gt;140465201747664 -->
<g id="edge10" class="edge">
<title>140468994058320&#45;&gt;140465201747664</title>
<path fill="none" stroke="black" d="M796.31,-35.34C805.21,-35.58 813.87,-35.81 821.74,-36.02"/>
<polygon fill="black" stroke="black" points="821.85,-39.53 831.94,-36.3 822.04,-32.53 821.85,-39.53"/>
</g>
<!-- 140468994058416 -->
<g id="node5" class="node">
<title>140468994058416</title>
<polygon fill="white" stroke="black" points="495,-45 294,-45 294,-9 495,-9 495,-45"/>
<text text-anchor="middle" x="394.5" y="-23.9" font-family="Times,serif" font-size="12.00">Receive Result Appeal from Prefecture</text>
</g>
<!-- 140465201748864 -->
<g id="node7" class="node">
<title>140465201748864</title>
<ellipse fill="white" stroke="black" cx="558" cy="-31" rx="27" ry="27"/>
</g>
<!-- 140468994058416&#45;&gt;140465201748864 -->
<g id="edge9" class="edge">
<title>140468994058416&#45;&gt;140465201748864</title>
<path fill="none" stroke="black" d="M495.02,-29.46C504.04,-29.69 512.72,-29.9 520.59,-30.1"/>
<polygon fill="black" stroke="black" points="520.69,-33.6 530.77,-30.35 520.86,-26.6 520.69,-33.6"/>
</g>
<!-- 140465201747520&#45;&gt;140465201749776 -->
<g id="edge1" class="edge">
<title>140465201747520&#45;&gt;140465201749776</title>
<path fill="none" stroke="black" d="M735.52,-93.5C769.96,-88.86 832.55,-80.39 886,-73 894.38,-71.84 903.37,-70.59 911.88,-69.39"/>
<polygon fill="black" stroke="black" points="912.55,-72.83 921.97,-67.97 911.58,-65.9 912.55,-72.83"/>
</g>
<!-- 140465201748864&#45;&gt;140468994058320 -->
<g id="edge3" class="edge">
<title>140465201748864&#45;&gt;140468994058320</title>
<path fill="none" stroke="black" d="M585.21,-31.35C592.73,-31.45 601.4,-31.57 610.59,-31.69"/>
<polygon fill="black" stroke="black" points="610.68,-35.2 620.73,-31.83 610.77,-28.2 610.68,-35.2"/>
</g>
<!-- 140465201746464&#45;&gt;140468994058464 -->
<g id="edge4" class="edge">
<title>140465201746464&#45;&gt;140468994058464</title>
<path fill="none" stroke="black" d="M258.31,-98.84C273.68,-98.74 293.97,-98.62 314.15,-98.49"/>
<polygon fill="black" stroke="black" points="314.36,-101.99 324.34,-98.43 314.32,-94.99 314.36,-101.99"/>
</g>
<!-- 140465201748912&#45;&gt;140468994058416 -->
<g id="edge5" class="edge">
<title>140465201748912&#45;&gt;140468994058416</title>
<path fill="none" stroke="black" d="M258.31,-27C265.79,-27 274.44,-27 283.68,-27"/>
<polygon fill="black" stroke="black" points="283.9,-30.5 293.9,-27 283.9,-23.5 283.9,-30.5"/>
</g>
<!-- 140465201747664&#45;&gt;140465201749776 -->
<g id="edge6" class="edge">
<title>140465201747664&#45;&gt;140465201749776</title>
<path fill="none" stroke="black" d="M885.07,-44.52C893.47,-47.04 903.04,-49.91 912.2,-52.66"/>
<polygon fill="black" stroke="black" points="911.31,-56.05 921.9,-55.57 913.32,-49.34 911.31,-56.05"/>
</g>
</g>
</svg>
