<?xml version="1.0" encoding="UTF-8" standalone="no"?>
<!DOCTYPE svg PUBLIC "-//W3C//DTD SVG 1.1//EN"
 "http://www.w3.org/Graphics/SVG/1.1/DTD/svg11.dtd">
<!-- Generated by graphviz version 2.43.0 (0)
 -->
<!-- Title: imported_1688044889.4427543 Pages: 1 -->
<svg width="1070pt" height="154pt"
 viewBox="0.00 0.00 1070.00 154.00" xmlns="http://www.w3.org/2000/svg" xmlns:xlink="http://www.w3.org/1999/xlink">
<g id="graph0" class="graph" transform="scale(1 1) rotate(0) translate(4 150)">
<title>imported_1688044889.4427543</title>
<polygon fill="white" stroke="transparent" points="-4,4 -4,-150 1066,-150 1066,4 -4,4"/>
<!-- 140465201749824 -->
<g id="node1" class="node">
<title>140465201749824</title>
<polygon fill="white" stroke="black" points="168,-128 0,-128 0,-92 168,-92 168,-128"/>
<text text-anchor="middle" x="84" y="-106.9" font-family="Times,serif" font-size="12.00">Insert Date Appeal to Prefecture</text>
</g>
<!-- 140465201746944 -->
<g id="node9" class="node">
<title>140465201746944</title>
<ellipse fill="white" stroke="black" cx="231" cy="-110" rx="27" ry="27"/>
</g>
<!-- 140465201749824&#45;&gt;140465201746944 -->
<g id="edge7" class="edge">
<title>140465201749824&#45;&gt;140465201746944</title>
<path fill="none" stroke="black" d="M168.09,-110C176.96,-110 185.62,-110 193.51,-110"/>
<polygon fill="black" stroke="black" points="193.75,-113.5 203.75,-110 193.75,-106.5 193.75,-113.5"/>
</g>
<!-- 140465201747328 -->
<g id="node2" class="node">
<title>140465201747328</title>
<polygon fill="white" stroke="black" points="1062,-109 887,-109 887,-73 1062,-73 1062,-109"/>
<text text-anchor="middle" x="974.5" y="-87.9" font-family="Times,serif" font-size="12.00">Notify Result Appeal to Offender</text>
</g>
<!-- 140465201749632 -->
<g id="node3" class="node">
<title>140465201749632</title>
<polygon fill="white" stroke="black" points="434,-128 294,-128 294,-92 434,-92 434,-128"/>
<text text-anchor="middle" x="364" y="-106.9" font-family="Times,serif" font-size="12.00">Send Appeal to Prefecture</text>
</g>
<!-- 140465201748768 -->
<g id="node7" class="node">
<title>140465201748768</title>
<ellipse fill="white" stroke="black" cx="497" cy="-119" rx="27" ry="27"/>
</g>
<!-- 140465201749632&#45;&gt;140465201748768 -->
<g id="edge9" class="edge">
<title>140465201749632&#45;&gt;140465201748768</title>
<path fill="none" stroke="black" d="M434.34,-114.76C443.13,-115.37 451.82,-115.97 459.79,-116.51"/>
<polygon fill="black" stroke="black" points="459.58,-120.01 469.8,-117.2 460.06,-113.02 459.58,-120.01"/>
</g>
<!-- 140465201748000 -->
<g id="node10" class="node">
<title>140465201748000</title>
<ellipse fill="white" stroke="black" cx="497" cy="-47" rx="27" ry="27"/>
</g>
<!-- 140465201749632&#45;&gt;140465201748000 -->
<g id="edge10" class="edge">
<title>140465201749632&#45;&gt;140465201748000</title>
<path fill="none" stroke="black" d="M402.54,-91.95C421.73,-82.72 444.85,-71.6 463.3,-62.73"/>
<polygon fill="black" stroke="black" points="464.98,-65.8 472.47,-58.31 461.95,-59.49 464.98,-65.8"/>
</g>
<!-- 140465201746416 -->
<g id="node4" class="node">
<title>140465201746416</title>
<polygon fill="white" stroke="black" points="393,-65 335,-65 335,-29 393,-29 393,-65"/>
<text text-anchor="middle" x="364" y="-43.9" font-family="Times,serif" font-size="12.00">Payment</text>
</g>
<!-- 140465201746416&#45;&gt;140465201748000 -->
<g id="edge6" class="edge">
<title>140465201746416&#45;&gt;140465201748000</title>
<path fill="none" stroke="black" d="M393.1,-47C412.53,-47 438.55,-47 459.56,-47"/>
<polygon fill="black" stroke="black" points="459.73,-50.5 469.73,-47 459.73,-43.5 459.73,-50.5"/>
</g>
<!-- 140465201748720 -->
<g id="node5" class="node">
<title>140465201748720</title>
<polygon fill="white" stroke="black" points="761,-137 560,-137 560,-101 761,-101 761,-137"/>
<text text-anchor="middle" x="660.5" y="-115.9" font-family="Times,serif" font-size="12.00">Receive Result Appeal from Prefecture</text>
</g>
<!-- 140465201749344 -->
<g id="node8" class="node">
<title>140465201749344</title>
<ellipse fill="white" stroke="black" cx="824" cy="-119" rx="27" ry="27"/>
</g>
<!-- 140465201748720&#45;&gt;140465201749344 -->
<g id="edge8" class="edge">
<title>140465201748720&#45;&gt;140465201749344</title>
<path fill="none" stroke="black" d="M761.02,-119C770.04,-119 778.72,-119 786.59,-119"/>
<polygon fill="black" stroke="black" points="786.77,-122.5 796.77,-119 786.77,-115.5 786.77,-122.5"/>
</g>
<!-- 140465201749488 -->
<g id="node6" class="node">
<title>140465201749488</title>
<polygon fill="white" stroke="black" points="707.5,-36 613.5,-36 613.5,0 707.5,0 707.5,-36"/>
<text text-anchor="middle" x="660.5" y="-14.9" font-family="Times,serif" font-size="12.00">Appeal to Judge</text>
</g>
<!-- 140465201748768&#45;&gt;140465201748720 -->
<g id="edge1" class="edge">
<title>140465201748768&#45;&gt;140465201748720</title>
<path fill="none" stroke="black" d="M524.31,-119C531.79,-119 540.44,-119 549.68,-119"/>
<polygon fill="black" stroke="black" points="549.9,-122.5 559.9,-119 549.9,-115.5 549.9,-122.5"/>
</g>
<!-- 140465201749344&#45;&gt;140465201747328 -->
<g id="edge2" class="edge">
<title>140465201749344&#45;&gt;140465201747328</title>
<path fill="none" stroke="black" d="M850.87,-114.12C858.51,-112.68 867.37,-111.01 876.77,-109.24"/>
<polygon fill="black" stroke="black" points="877.54,-112.66 886.71,-107.36 876.24,-105.78 877.54,-112.66"/>
</g>
<!-- 140465201746944&#45;&gt;140465201749632 -->
<g id="edge3" class="edge">
<title>140465201746944&#45;&gt;140465201749632</title>
<path fill="none" stroke="black" d="M258.19,-110C265.87,-110 274.69,-110 283.89,-110"/>
<polygon fill="black" stroke="black" points="283.97,-113.5 293.97,-110 283.97,-106.5 283.97,-113.5"/>
</g>
<!-- 140465201748000&#45;&gt;140465201747328 -->
<g id="edge5" class="edge">
<title>140465201748000&#45;&gt;140465201747328</title>
<path fill="none" stroke="black" d="M523.9,-49.4C589.59,-55.47 765.32,-71.74 876.62,-82.04"/>
<polygon fill="black" stroke="black" points="876.57,-85.55 886.85,-82.98 877.22,-78.58 876.57,-85.55"/>
</g>
<!-- 140465201748000&#45;&gt;140465201749488 -->
<g id="edge4" class="edge">
<title>140465201748000&#45;&gt;140465201749488</title>
<path fill="none" stroke="black" d="M523.95,-42.34C545.3,-38.51 576.32,-32.94 603.3,-28.09"/>
<polygon fill="black" stroke="black" points="604.19,-31.49 613.41,-26.28 602.95,-24.6 604.19,-31.49"/>
</g>
</g>
</svg>
