<?xml version="1.0" encoding="UTF-8" standalone="no"?>
<!DOCTYPE svg PUBLIC "-//W3C//DTD SVG 1.1//EN"
 "http://www.w3.org/Graphics/SVG/1.1/DTD/svg11.dtd">
<!-- Generated by graphviz version 2.43.0 (0)
 -->
<!-- Title: imported_1688044892.6731298 Pages: 1 -->
<svg width="1021pt" height="170pt"
 viewBox="0.00 0.00 1021.00 170.00" xmlns="http://www.w3.org/2000/svg" xmlns:xlink="http://www.w3.org/1999/xlink">
<g id="graph0" class="graph" transform="scale(1 1) rotate(0) translate(4 166)">
<title>imported_1688044892.6731298</title>
<polygon fill="white" stroke="transparent" points="-4,4 -4,-166 1017,-166 1017,4 -4,4"/>
<!-- 140464257980736 -->
<g id="node1" class="node">
<title>140464257980736</title>
<polygon fill="white" stroke="black" points="645,-117 587,-117 587,-81 645,-81 645,-117"/>
<text text-anchor="middle" x="616" y="-95.9" font-family="Times,serif" font-size="12.00">Payment</text>
</g>
<!-- 140464257980352 -->
<g id="node11" class="node">
<title>140464257980352</title>
<ellipse fill="white" stroke="black" cx="749" cy="-99" rx="27" ry="27"/>
</g>
<!-- 140464257980736&#45;&gt;140464257980352 -->
<g id="edge7" class="edge">
<title>140464257980736&#45;&gt;140464257980352</title>
<path fill="none" stroke="black" d="M645.1,-99C664.53,-99 690.55,-99 711.56,-99"/>
<polygon fill="black" stroke="black" points="711.73,-102.5 721.73,-99 711.73,-95.5 711.73,-102.5"/>
</g>
<!-- 140464257979968 -->
<g id="node2" class="node">
<title>140464257979968</title>
<polygon fill="white" stroke="black" points="1000,-162 825,-162 825,-126 1000,-126 1000,-162"/>
<text text-anchor="middle" x="912.5" y="-140.9" font-family="Times,serif" font-size="12.00">Notify Result Appeal to Offender</text>
</g>
<!-- 140464257980256 -->
<g id="node3" class="node">
<title>140464257980256</title>
<polygon fill="white" stroke="black" points="126,-54 0,-54 0,-18 126,-18 126,-54"/>
<text text-anchor="middle" x="63" y="-32.9" font-family="Times,serif" font-size="12.00">Insert Fine Notification</text>
</g>
<!-- 140464257980640 -->
<g id="node8" class="node">
<title>140464257980640</title>
<ellipse fill="white" stroke="black" cx="189" cy="-36" rx="27" ry="27"/>
</g>
<!-- 140464257980256&#45;&gt;140464257980640 -->
<g id="edge2" class="edge">
<title>140464257980256&#45;&gt;140464257980640</title>
<path fill="none" stroke="black" d="M126.36,-36C135.09,-36 143.8,-36 151.81,-36"/>
<polygon fill="black" stroke="black" points="151.88,-39.5 161.88,-36 151.88,-32.5 151.88,-39.5"/>
</g>
<!-- 140464257979920 -->
<g id="node4" class="node">
<title>140464257979920</title>
<polygon fill="white" stroke="black" points="420,-54 252,-54 252,-18 420,-18 420,-54"/>
<text text-anchor="middle" x="336" y="-32.9" font-family="Times,serif" font-size="12.00">Insert Date Appeal to Prefecture</text>
</g>
<!-- 140464257980544 -->
<g id="node10" class="node">
<title>140464257980544</title>
<ellipse fill="white" stroke="black" cx="483" cy="-36" rx="27" ry="27"/>
</g>
<!-- 140464257979920&#45;&gt;140464257980544 -->
<g id="edge8" class="edge">
<title>140464257979920&#45;&gt;140464257980544</title>
<path fill="none" stroke="black" d="M420.09,-36C428.96,-36 437.62,-36 445.51,-36"/>
<polygon fill="black" stroke="black" points="445.75,-39.5 455.75,-36 445.75,-32.5 445.75,-39.5"/>
</g>
<!-- 140464257981840 -->
<g id="node5" class="node">
<title>140464257981840</title>
<polygon fill="white" stroke="black" points="1013,-45 812,-45 812,-9 1013,-9 1013,-45"/>
<text text-anchor="middle" x="912.5" y="-23.9" font-family="Times,serif" font-size="12.00">Receive Result Appeal from Prefecture</text>
</g>
<!-- 140464257981072 -->
<g id="node6" class="node">
<title>140464257981072</title>
<polygon fill="white" stroke="black" points="686,-54 546,-54 546,-18 686,-18 686,-54"/>
<text text-anchor="middle" x="616" y="-32.9" font-family="Times,serif" font-size="12.00">Send Appeal to Prefecture</text>
</g>
<!-- 140464257980976 -->
<g id="node9" class="node">
<title>140464257980976</title>
<ellipse fill="white" stroke="black" cx="749" cy="-27" rx="27" ry="27"/>
</g>
<!-- 140464257981072&#45;&gt;140464257980976 -->
<g id="edge9" class="edge">
<title>140464257981072&#45;&gt;140464257980976</title>
<path fill="none" stroke="black" d="M686.34,-31.24C695.13,-30.63 703.82,-30.03 711.79,-29.49"/>
<polygon fill="black" stroke="black" points="712.06,-32.98 721.8,-28.8 711.58,-25.99 712.06,-32.98"/>
</g>
<!-- 140464257981072&#45;&gt;140464257980352 -->
<g id="edge10" class="edge">
<title>140464257981072&#45;&gt;140464257980352</title>
<path fill="none" stroke="black" d="M654.54,-54.05C673.73,-63.28 696.85,-74.4 715.3,-83.27"/>
<polygon fill="black" stroke="black" points="713.95,-86.51 724.47,-87.69 716.98,-80.2 713.95,-86.51"/>
</g>
<!-- 140464257980688 -->
<g id="node7" class="node">
<title>140464257980688</title>
<polygon fill="white" stroke="black" points="959.5,-108 865.5,-108 865.5,-72 959.5,-72 959.5,-108"/>
<text text-anchor="middle" x="912.5" y="-86.9" font-family="Times,serif" font-size="12.00">Appeal to Judge</text>
</g>
<!-- 140464257980640&#45;&gt;140464257979920 -->
<g id="edge1" class="edge">
<title>140464257980640&#45;&gt;140464257979920</title>
<path fill="none" stroke="black" d="M216.26,-36C223.81,-36 232.51,-36 241.7,-36"/>
<polygon fill="black" stroke="black" points="241.83,-39.5 251.83,-36 241.83,-32.5 241.83,-39.5"/>
</g>
<!-- 140464257980976&#45;&gt;140464257981840 -->
<g id="edge3" class="edge">
<title>140464257980976&#45;&gt;140464257981840</title>
<path fill="none" stroke="black" d="M776.31,-27C783.79,-27 792.44,-27 801.68,-27"/>
<polygon fill="black" stroke="black" points="801.9,-30.5 811.9,-27 801.9,-23.5 801.9,-30.5"/>
</g>
<!-- 140464257980544&#45;&gt;140464257981072 -->
<g id="edge4" class="edge">
<title>140464257980544&#45;&gt;140464257981072</title>
<path fill="none" stroke="black" d="M510.19,-36C517.87,-36 526.69,-36 535.89,-36"/>
<polygon fill="black" stroke="black" points="535.97,-39.5 545.97,-36 535.97,-32.5 535.97,-39.5"/>
</g>
<!-- 140464257980352&#45;&gt;140464257979968 -->
<g id="edge6" class="edge">
<title>140464257980352&#45;&gt;140464257979968</title>
<path fill="none" stroke="black" d="M775.01,-106.37C786.3,-109.67 799.81,-113.58 812,-117 819.33,-119.06 826.97,-121.18 834.62,-123.28"/>
<polygon fill="black" stroke="black" points="833.72,-126.66 844.29,-125.93 835.57,-119.91 833.72,-126.66"/>
</g>
<!-- 140464257980352&#45;&gt;140464257980688 -->
<g id="edge5" class="edge">
<title>140464257980352&#45;&gt;140464257980688</title>
<path fill="none" stroke="black" d="M776.31,-97.53C797.63,-96.35 828.42,-94.63 855.24,-93.14"/>
<polygon fill="black" stroke="black" points="855.51,-96.63 865.3,-92.57 855.12,-89.64 855.51,-96.63"/>
</g>
</g>
</svg>
