<?xml version="1.0" encoding="UTF-8" standalone="no"?>
<!DOCTYPE svg PUBLIC "-//W3C//DTD SVG 1.1//EN"
 "http://www.w3.org/Graphics/SVG/1.1/DTD/svg11.dtd">
<!-- Generated by graphviz version 2.43.0 (0)
 -->
<!-- Title: imported_1688044892.606721 Pages: 1 -->
<svg width="804pt" height="179pt"
 viewBox="0.00 0.00 804.00 179.00" xmlns="http://www.w3.org/2000/svg" xmlns:xlink="http://www.w3.org/1999/xlink">
<g id="graph0" class="graph" transform="scale(1 1) rotate(0) translate(4 175)">
<title>imported_1688044892.606721</title>
<polygon fill="white" stroke="transparent" points="-4,4 -4,-175 800,-175 800,4 -4,4"/>
<!-- 140465201729440 -->
<g id="node1" class="node">
<title>140465201729440</title>
<polygon fill="white" stroke="black" points="464.5,-117 324.5,-117 324.5,-81 464.5,-81 464.5,-117"/>
<text text-anchor="middle" x="394.5" y="-95.9" font-family="Times,serif" font-size="12.00">Send Appeal to Prefecture</text>
</g>
<!-- 140465201705552 -->
<g id="node8" class="node">
<title>140465201705552</title>
<ellipse fill="white" stroke="black" cx="558" cy="-126" rx="27" ry="27"/>
</g>
<!-- 140465201729440&#45;&gt;140465201705552 -->
<g id="edge8" class="edge">
<title>140465201729440&#45;&gt;140465201705552</title>
<path fill="none" stroke="black" d="M464.93,-110.61C484.14,-113.82 504.23,-117.18 520.72,-119.94"/>
<polygon fill="black" stroke="black" points="520.56,-123.46 531,-121.65 521.71,-116.55 520.56,-123.46"/>
</g>
<!-- 140465201729344 -->
<g id="node2" class="node">
<title>140465201729344</title>
<polygon fill="white" stroke="black" points="495,-45 294,-45 294,-9 495,-9 495,-45"/>
<text text-anchor="middle" x="394.5" y="-23.9" font-family="Times,serif" font-size="12.00">Receive Result Appeal from Prefecture</text>
</g>
<!-- 140465201725888 -->
<g id="node3" class="node">
<title>140465201725888</title>
<polygon fill="white" stroke="black" points="796,-171 621,-171 621,-135 796,-135 796,-171"/>
<text text-anchor="middle" x="708.5" y="-149.9" font-family="Times,serif" font-size="12.00">Notify Result Appeal to Offender</text>
</g>
<!-- 140465201705168 -->
<g id="node4" class="node">
<title>140465201705168</title>
<polygon fill="white" stroke="black" points="423.5,-171 365.5,-171 365.5,-135 423.5,-135 423.5,-171"/>
<text text-anchor="middle" x="394.5" y="-149.9" font-family="Times,serif" font-size="12.00">Payment</text>
</g>
<!-- 140465201705168&#45;&gt;140465201705552 -->
<g id="edge5" class="edge">
<title>140465201705168&#45;&gt;140465201705552</title>
<path fill="none" stroke="black" d="M423.63,-148.3C450.79,-143.76 492.03,-136.86 521.45,-131.94"/>
<polygon fill="black" stroke="black" points="522.03,-135.39 531.32,-130.29 520.88,-128.49 522.03,-135.39"/>
</g>
<!-- 140465201706224 -->
<g id="node5" class="node">
<title>140465201706224</title>
<polygon fill="white" stroke="black" points="168,-81 0,-81 0,-45 168,-45 168,-81"/>
<text text-anchor="middle" x="84" y="-59.9" font-family="Times,serif" font-size="12.00">Insert Date Appeal to Prefecture</text>
</g>
<!-- 140465201707568 -->
<g id="node7" class="node">
<title>140465201707568</title>
<ellipse fill="white" stroke="black" cx="231" cy="-99" rx="27" ry="27"/>
</g>
<!-- 140465201706224&#45;&gt;140465201707568 -->
<g id="edge6" class="edge">
<title>140465201706224&#45;&gt;140465201707568</title>
<path fill="none" stroke="black" d="M157.92,-81.11C170.78,-84.3 183.61,-87.48 194.81,-90.26"/>
<polygon fill="black" stroke="black" points="194.04,-93.68 204.59,-92.69 195.73,-86.88 194.04,-93.68"/>
</g>
<!-- 140465201705120 -->
<g id="node9" class="node">
<title>140465201705120</title>
<ellipse fill="white" stroke="black" cx="231" cy="-27" rx="27" ry="27"/>
</g>
<!-- 140465201706224&#45;&gt;140465201705120 -->
<g id="edge7" class="edge">
<title>140465201706224&#45;&gt;140465201705120</title>
<path fill="none" stroke="black" d="M157.92,-44.89C170.78,-41.7 183.61,-38.52 194.81,-35.74"/>
<polygon fill="black" stroke="black" points="195.73,-39.12 204.59,-33.31 194.04,-32.32 195.73,-39.12"/>
</g>
<!-- 140465201725936 -->
<g id="node6" class="node">
<title>140465201725936</title>
<polygon fill="white" stroke="black" points="755.5,-117 661.5,-117 661.5,-81 755.5,-81 755.5,-117"/>
<text text-anchor="middle" x="708.5" y="-95.9" font-family="Times,serif" font-size="12.00">Appeal to Judge</text>
</g>
<!-- 140465201707568&#45;&gt;140465201729440 -->
<g id="edge1" class="edge">
<title>140465201707568&#45;&gt;140465201729440</title>
<path fill="none" stroke="black" d="M258.31,-99C273.68,-99 293.97,-99 314.15,-99"/>
<polygon fill="black" stroke="black" points="314.34,-102.5 324.34,-99 314.34,-95.5 314.34,-102.5"/>
</g>
<!-- 140465201705552&#45;&gt;140465201725888 -->
<g id="edge2" class="edge">
<title>140465201705552&#45;&gt;140465201725888</title>
<path fill="none" stroke="black" d="M584.87,-130.7C592.51,-132.09 601.37,-133.7 610.77,-135.41"/>
<polygon fill="black" stroke="black" points="610.25,-138.88 620.71,-137.22 611.5,-131.99 610.25,-138.88"/>
</g>
<!-- 140465201705552&#45;&gt;140465201725936 -->
<g id="edge3" class="edge">
<title>140465201705552&#45;&gt;140465201725936</title>
<path fill="none" stroke="black" d="M584.87,-121.3C603.18,-117.97 628.45,-113.37 651.29,-109.22"/>
<polygon fill="black" stroke="black" points="652.03,-112.64 661.25,-107.41 650.78,-105.76 652.03,-112.64"/>
</g>
<!-- 140465201705120&#45;&gt;140465201729344 -->
<g id="edge4" class="edge">
<title>140465201705120&#45;&gt;140465201729344</title>
<path fill="none" stroke="black" d="M258.31,-27C265.79,-27 274.44,-27 283.68,-27"/>
<polygon fill="black" stroke="black" points="283.9,-30.5 293.9,-27 283.9,-23.5 283.9,-30.5"/>
</g>
</g>
</svg>
