<?xml version="1.0" encoding="UTF-8" standalone="no"?>
<!DOCTYPE svg PUBLIC "-//W3C//DTD SVG 1.1//EN"
 "http://www.w3.org/Graphics/SVG/1.1/DTD/svg11.dtd">
<!-- Generated by graphviz version 2.43.0 (0)
 -->
<!-- Title: imported_1688044919.306584 Pages: 1 -->
<svg width="1021pt" height="62pt"
 viewBox="0.00 0.00 1021.00 62.00" xmlns="http://www.w3.org/2000/svg" xmlns:xlink="http://www.w3.org/1999/xlink">
<g id="graph0" class="graph" transform="scale(1 1) rotate(0) translate(4 58)">
<title>imported_1688044919.306584</title>
<polygon fill="white" stroke="transparent" points="-4,4 -4,-58 1017,-58 1017,4 -4,4"/>
<!-- 140465202007920 -->
<g id="node1" class="node">
<title>140465202007920</title>
<polygon fill="white" stroke="black" points="420,-45 252,-45 252,-9 420,-9 420,-45"/>
<text text-anchor="middle" x="336" y="-23.9" font-family="Times,serif" font-size="12.00">Insert Date Appeal to Prefecture</text>
</g>
<!-- 140465202007872 -->
<g id="node7" class="node">
<title>140465202007872</title>
<ellipse fill="white" stroke="black" cx="483" cy="-27" rx="27" ry="27"/>
</g>
<!-- 140465202007920&#45;&gt;140465202007872 -->
<g id="edge4" class="edge">
<title>140465202007920&#45;&gt;140465202007872</title>
<path fill="none" stroke="black" d="M420.09,-27C428.96,-27 437.62,-27 445.51,-27"/>
<polygon fill="black" stroke="black" points="445.75,-30.5 455.75,-27 445.75,-23.5 445.75,-30.5"/>
</g>
<!-- 140465202007584 -->
<g id="node2" class="node">
<title>140465202007584</title>
<polygon fill="white" stroke="black" points="126,-45 0,-45 0,-9 126,-9 126,-45"/>
<text text-anchor="middle" x="63" y="-23.9" font-family="Times,serif" font-size="12.00">Insert Fine Notification</text>
</g>
<!-- 140465202007440 -->
<g id="node5" class="node">
<title>140465202007440</title>
<ellipse fill="white" stroke="black" cx="189" cy="-27" rx="27" ry="27"/>
</g>
<!-- 140465202007584&#45;&gt;140465202007440 -->
<g id="edge6" class="edge">
<title>140465202007584&#45;&gt;140465202007440</title>
<path fill="none" stroke="black" d="M126.36,-27C135.09,-27 143.8,-27 151.81,-27"/>
<polygon fill="black" stroke="black" points="151.88,-30.5 161.88,-27 151.88,-23.5 151.88,-30.5"/>
</g>
<!-- 140465202007392 -->
<g id="node3" class="node">
<title>140465202007392</title>
<polygon fill="white" stroke="black" points="686,-45 546,-45 546,-9 686,-9 686,-45"/>
<text text-anchor="middle" x="616" y="-23.9" font-family="Times,serif" font-size="12.00">Send Appeal to Prefecture</text>
</g>
<!-- 140465202007680 -->
<g id="node6" class="node">
<title>140465202007680</title>
<ellipse fill="white" stroke="black" cx="749" cy="-27" rx="27" ry="27"/>
</g>
<!-- 140465202007392&#45;&gt;140465202007680 -->
<g id="edge5" class="edge">
<title>140465202007392&#45;&gt;140465202007680</title>
<path fill="none" stroke="black" d="M686.34,-27C695.13,-27 703.82,-27 711.79,-27"/>
<polygon fill="black" stroke="black" points="711.8,-30.5 721.8,-27 711.8,-23.5 711.8,-30.5"/>
</g>
<!-- 140465202007728 -->
<g id="node4" class="node">
<title>140465202007728</title>
<polygon fill="white" stroke="black" points="1013,-45 812,-45 812,-9 1013,-9 1013,-45"/>
<text text-anchor="middle" x="912.5" y="-23.9" font-family="Times,serif" font-size="12.00">Receive Result Appeal from Prefecture</text>
</g>
<!-- 140465202007440&#45;&gt;140465202007920 -->
<g id="edge1" class="edge">
<title>140465202007440&#45;&gt;140465202007920</title>
<path fill="none" stroke="black" d="M216.26,-27C223.81,-27 232.51,-27 241.7,-27"/>
<polygon fill="black" stroke="black" points="241.83,-30.5 251.83,-27 241.83,-23.5 241.83,-30.5"/>
</g>
<!-- 140465202007680&#45;&gt;140465202007728 -->
<g id="edge2" class="edge">
<title>140465202007680&#45;&gt;140465202007728</title>
<path fill="none" stroke="black" d="M776.31,-27C783.79,-27 792.44,-27 801.68,-27"/>
<polygon fill="black" stroke="black" points="801.9,-30.5 811.9,-27 801.9,-23.5 801.9,-30.5"/>
</g>
<!-- 140465202007872&#45;&gt;140465202007392 -->
<g id="edge3" class="edge">
<title>140465202007872&#45;&gt;140465202007392</title>
<path fill="none" stroke="black" d="M510.19,-27C517.87,-27 526.69,-27 535.89,-27"/>
<polygon fill="black" stroke="black" points="535.97,-30.5 545.97,-27 535.97,-23.5 535.97,-30.5"/>
</g>
</g>
</svg>
