<?xml version="1.0" encoding="UTF-8" standalone="no"?>
<!DOCTYPE svg PUBLIC "-//W3C//DTD SVG 1.1//EN"
 "http://www.w3.org/Graphics/SVG/1.1/DTD/svg11.dtd">
<!-- Generated by graphviz version 2.43.0 (0)
 -->
<!-- Title: imported_1688044916.0199976 Pages: 1 -->
<svg width="804pt" height="134pt"
 viewBox="0.00 0.00 804.00 134.00" xmlns="http://www.w3.org/2000/svg" xmlns:xlink="http://www.w3.org/1999/xlink">
<g id="graph0" class="graph" transform="scale(1 1) rotate(0) translate(4 130)">
<title>imported_1688044916.0199976</title>
<polygon fill="white" stroke="transparent" points="-4,4 -4,-130 800,-130 800,4 -4,4"/>
<!-- 140465202039776 -->
<g id="node1" class="node">
<title>140465202039776</title>
<polygon fill="white" stroke="black" points="168,-81 0,-81 0,-45 168,-45 168,-81"/>
<text text-anchor="middle" x="84" y="-59.9" font-family="Times,serif" font-size="12.00">Insert Date Appeal to Prefecture</text>
</g>
<!-- 140469013163648 -->
<g id="node6" class="node">
<title>140469013163648</title>
<ellipse fill="white" stroke="black" cx="231" cy="-99" rx="27" ry="27"/>
</g>
<!-- 140465202039776&#45;&gt;140469013163648 -->
<g id="edge4" class="edge">
<title>140465202039776&#45;&gt;140469013163648</title>
<path fill="none" stroke="black" d="M157.92,-81.11C170.78,-84.3 183.61,-87.48 194.81,-90.26"/>
<polygon fill="black" stroke="black" points="194.04,-93.68 204.59,-92.69 195.73,-86.88 194.04,-93.68"/>
</g>
<!-- 140465202040592 -->
<g id="node7" class="node">
<title>140465202040592</title>
<ellipse fill="white" stroke="black" cx="231" cy="-27" rx="27" ry="27"/>
</g>
<!-- 140465202039776&#45;&gt;140465202040592 -->
<g id="edge5" class="edge">
<title>140465202039776&#45;&gt;140465202040592</title>
<path fill="none" stroke="black" d="M157.92,-44.89C170.78,-41.7 183.61,-38.52 194.81,-35.74"/>
<polygon fill="black" stroke="black" points="195.73,-39.12 204.59,-33.31 194.04,-32.32 195.73,-39.12"/>
</g>
<!-- 140465202040064 -->
<g id="node2" class="node">
<title>140465202040064</title>
<polygon fill="white" stroke="black" points="796,-45 595,-45 595,-9 796,-9 796,-45"/>
<text text-anchor="middle" x="695.5" y="-23.9" font-family="Times,serif" font-size="12.00">Receive Result Appeal from Prefecture</text>
</g>
<!-- 140465202039872 -->
<g id="node3" class="node">
<title>140465202039872</title>
<polygon fill="white" stroke="black" points="451.5,-45 311.5,-45 311.5,-9 451.5,-9 451.5,-45"/>
<text text-anchor="middle" x="381.5" y="-23.9" font-family="Times,serif" font-size="12.00">Send Appeal to Prefecture</text>
</g>
<!-- 140468994104288 -->
<g id="node5" class="node">
<title>140468994104288</title>
<ellipse fill="white" stroke="black" cx="532" cy="-27" rx="27" ry="27"/>
</g>
<!-- 140465202039872&#45;&gt;140468994104288 -->
<g id="edge6" class="edge">
<title>140465202039872&#45;&gt;140468994104288</title>
<path fill="none" stroke="black" d="M451.53,-27C466.33,-27 481.4,-27 494.38,-27"/>
<polygon fill="black" stroke="black" points="494.75,-30.5 504.75,-27 494.75,-23.5 494.75,-30.5"/>
</g>
<!-- 140465202040736 -->
<g id="node4" class="node">
<title>140465202040736</title>
<polygon fill="white" stroke="black" points="469,-117 294,-117 294,-81 469,-81 469,-117"/>
<text text-anchor="middle" x="381.5" y="-95.9" font-family="Times,serif" font-size="12.00">Notify Result Appeal to Offender</text>
</g>
<!-- 140468994104288&#45;&gt;140465202040064 -->
<g id="edge1" class="edge">
<title>140468994104288&#45;&gt;140465202040064</title>
<path fill="none" stroke="black" d="M559.31,-27C566.79,-27 575.44,-27 584.68,-27"/>
<polygon fill="black" stroke="black" points="584.9,-30.5 594.9,-27 584.9,-23.5 584.9,-30.5"/>
</g>
<!-- 140469013163648&#45;&gt;140465202040736 -->
<g id="edge2" class="edge">
<title>140469013163648&#45;&gt;140465202040736</title>
<path fill="none" stroke="black" d="M258.21,-99C265.73,-99 274.4,-99 283.59,-99"/>
<polygon fill="black" stroke="black" points="283.73,-102.5 293.73,-99 283.72,-95.5 283.73,-102.5"/>
</g>
<!-- 140465202040592&#45;&gt;140465202039872 -->
<g id="edge3" class="edge">
<title>140465202040592&#45;&gt;140465202039872</title>
<path fill="none" stroke="black" d="M258.21,-27C270.36,-27 285.53,-27 301.01,-27"/>
<polygon fill="black" stroke="black" points="301.19,-30.5 311.19,-27 301.19,-23.5 301.19,-30.5"/>
</g>
</g>
</svg>
