<?xml version="1.0" encoding="UTF-8" standalone="no"?>
<!DOCTYPE svg PUBLIC "-//W3C//DTD SVG 1.1//EN"
 "http://www.w3.org/Graphics/SVG/1.1/DTD/svg11.dtd">
<!-- Generated by graphviz version 2.43.0 (0)
 -->
<!-- Title: imported_1688044911.0646722 Pages: 1 -->
<svg width="1056pt" height="179pt"
 viewBox="0.00 0.00 1056.00 179.00" xmlns="http://www.w3.org/2000/svg" xmlns:xlink="http://www.w3.org/1999/xlink">
<g id="graph0" class="graph" transform="scale(1 1) rotate(0) translate(4 175)">
<title>imported_1688044911.0646722</title>
<polygon fill="white" stroke="transparent" points="-4,4 -4,-175 1052,-175 1052,4 -4,4"/>
<!-- 140465201906016 -->
<g id="node1" class="node">
<title>140465201906016</title>
<polygon fill="white" stroke="black" points="675.5,-171 617.5,-171 617.5,-135 675.5,-135 675.5,-171"/>
<text text-anchor="middle" x="646.5" y="-149.9" font-family="Times,serif" font-size="12.00">Payment</text>
</g>
<!-- 140469013947296 -->
<g id="node10" class="node">
<title>140469013947296</title>
<ellipse fill="white" stroke="black" cx="810" cy="-126" rx="27" ry="27"/>
</g>
<!-- 140465201906016&#45;&gt;140469013947296 -->
<g id="edge7" class="edge">
<title>140465201906016&#45;&gt;140469013947296</title>
<path fill="none" stroke="black" d="M675.63,-148.3C702.79,-143.76 744.03,-136.86 773.45,-131.94"/>
<polygon fill="black" stroke="black" points="774.03,-135.39 783.32,-130.29 772.88,-128.49 774.03,-135.39"/>
</g>
<!-- 140465201906880 -->
<g id="node2" class="node">
<title>140465201906880</title>
<polygon fill="white" stroke="black" points="747,-45 546,-45 546,-9 747,-9 747,-45"/>
<text text-anchor="middle" x="646.5" y="-23.9" font-family="Times,serif" font-size="12.00">Receive Result Appeal from Prefecture</text>
</g>
<!-- 140465201906304 -->
<g id="node3" class="node">
<title>140465201906304</title>
<polygon fill="white" stroke="black" points="1048,-171 873,-171 873,-135 1048,-135 1048,-171"/>
<text text-anchor="middle" x="960.5" y="-149.9" font-family="Times,serif" font-size="12.00">Notify Result Appeal to Offender</text>
</g>
<!-- 140465201908416 -->
<g id="node4" class="node">
<title>140465201908416</title>
<polygon fill="white" stroke="black" points="420,-81 252,-81 252,-45 420,-45 420,-81"/>
<text text-anchor="middle" x="336" y="-59.9" font-family="Times,serif" font-size="12.00">Insert Date Appeal to Prefecture</text>
</g>
<!-- 140468994171664 -->
<g id="node9" class="node">
<title>140468994171664</title>
<ellipse fill="white" stroke="black" cx="483" cy="-99" rx="27" ry="27"/>
</g>
<!-- 140465201908416&#45;&gt;140468994171664 -->
<g id="edge8" class="edge">
<title>140465201908416&#45;&gt;140468994171664</title>
<path fill="none" stroke="black" d="M409.92,-81.11C422.78,-84.3 435.61,-87.48 446.81,-90.26"/>
<polygon fill="black" stroke="black" points="446.04,-93.68 456.59,-92.69 447.73,-86.88 446.04,-93.68"/>
</g>
<!-- 140465201907312 -->
<g id="node11" class="node">
<title>140465201907312</title>
<ellipse fill="white" stroke="black" cx="483" cy="-27" rx="27" ry="27"/>
</g>
<!-- 140465201908416&#45;&gt;140465201907312 -->
<g id="edge9" class="edge">
<title>140465201908416&#45;&gt;140465201907312</title>
<path fill="none" stroke="black" d="M409.92,-44.89C422.78,-41.7 435.61,-38.52 446.81,-35.74"/>
<polygon fill="black" stroke="black" points="447.73,-39.12 456.59,-33.31 446.04,-32.32 447.73,-39.12"/>
</g>
<!-- 140465201906400 -->
<g id="node5" class="node">
<title>140465201906400</title>
<polygon fill="white" stroke="black" points="1007.5,-117 913.5,-117 913.5,-81 1007.5,-81 1007.5,-117"/>
<text text-anchor="middle" x="960.5" y="-95.9" font-family="Times,serif" font-size="12.00">Appeal to Judge</text>
</g>
<!-- 140465201908272 -->
<g id="node6" class="node">
<title>140465201908272</title>
<polygon fill="white" stroke="black" points="716.5,-117 576.5,-117 576.5,-81 716.5,-81 716.5,-117"/>
<text text-anchor="middle" x="646.5" y="-95.9" font-family="Times,serif" font-size="12.00">Send Appeal to Prefecture</text>
</g>
<!-- 140465201908272&#45;&gt;140469013947296 -->
<g id="edge10" class="edge">
<title>140465201908272&#45;&gt;140469013947296</title>
<path fill="none" stroke="black" d="M716.93,-110.61C736.14,-113.82 756.23,-117.18 772.72,-119.94"/>
<polygon fill="black" stroke="black" points="772.56,-123.46 783,-121.65 773.71,-116.55 772.56,-123.46"/>
</g>
<!-- 140465201908656 -->
<g id="node7" class="node">
<title>140465201908656</title>
<polygon fill="white" stroke="black" points="126,-81 0,-81 0,-45 126,-45 126,-81"/>
<text text-anchor="middle" x="63" y="-59.9" font-family="Times,serif" font-size="12.00">Insert Fine Notification</text>
</g>
<!-- 140468994171040 -->
<g id="node8" class="node">
<title>140468994171040</title>
<ellipse fill="white" stroke="black" cx="189" cy="-63" rx="27" ry="27"/>
</g>
<!-- 140465201908656&#45;&gt;140468994171040 -->
<g id="edge2" class="edge">
<title>140465201908656&#45;&gt;140468994171040</title>
<path fill="none" stroke="black" d="M126.36,-63C135.09,-63 143.8,-63 151.81,-63"/>
<polygon fill="black" stroke="black" points="151.88,-66.5 161.88,-63 151.88,-59.5 151.88,-66.5"/>
</g>
<!-- 140468994171040&#45;&gt;140465201908416 -->
<g id="edge1" class="edge">
<title>140468994171040&#45;&gt;140465201908416</title>
<path fill="none" stroke="black" d="M216.26,-63C223.81,-63 232.51,-63 241.7,-63"/>
<polygon fill="black" stroke="black" points="241.83,-66.5 251.83,-63 241.83,-59.5 241.83,-66.5"/>
</g>
<!-- 140468994171664&#45;&gt;140465201908272 -->
<g id="edge3" class="edge">
<title>140468994171664&#45;&gt;140465201908272</title>
<path fill="none" stroke="black" d="M510.31,-99C525.68,-99 545.97,-99 566.15,-99"/>
<polygon fill="black" stroke="black" points="566.34,-102.5 576.34,-99 566.34,-95.5 566.34,-102.5"/>
</g>
<!-- 140469013947296&#45;&gt;140465201906304 -->
<g id="edge5" class="edge">
<title>140469013947296&#45;&gt;140465201906304</title>
<path fill="none" stroke="black" d="M836.87,-130.7C844.51,-132.09 853.37,-133.7 862.77,-135.41"/>
<polygon fill="black" stroke="black" points="862.25,-138.88 872.71,-137.22 863.5,-131.99 862.25,-138.88"/>
</g>
<!-- 140469013947296&#45;&gt;140465201906400 -->
<g id="edge4" class="edge">
<title>140469013947296&#45;&gt;140465201906400</title>
<path fill="none" stroke="black" d="M836.87,-121.3C855.18,-117.97 880.45,-113.37 903.29,-109.22"/>
<polygon fill="black" stroke="black" points="904.03,-112.64 913.25,-107.41 902.78,-105.76 904.03,-112.64"/>
</g>
<!-- 140465201907312&#45;&gt;140465201906880 -->
<g id="edge6" class="edge">
<title>140465201907312&#45;&gt;140465201906880</title>
<path fill="none" stroke="black" d="M510.31,-27C517.79,-27 526.44,-27 535.68,-27"/>
<polygon fill="black" stroke="black" points="535.9,-30.5 545.9,-27 535.9,-23.5 535.9,-30.5"/>
</g>
</g>
</svg>
