<?xml version="1.0" encoding="UTF-8" standalone="no"?>
<!DOCTYPE svg PUBLIC "-//W3C//DTD SVG 1.1//EN"
 "http://www.w3.org/Graphics/SVG/1.1/DTD/svg11.dtd">
<!-- Generated by graphviz version 2.43.0 (0)
 -->
<!-- Title: imported_1688044907.5496671 Pages: 1 -->
<svg width="742pt" height="134pt"
 viewBox="0.00 0.00 742.00 134.00" xmlns="http://www.w3.org/2000/svg" xmlns:xlink="http://www.w3.org/1999/xlink">
<g id="graph0" class="graph" transform="scale(1 1) rotate(0) translate(4 130)">
<title>imported_1688044907.5496671</title>
<polygon fill="white" stroke="transparent" points="-4,4 -4,-130 738,-130 738,4 -4,4"/>
<!-- 140463872948688 -->
<g id="node1" class="node">
<title>140463872948688</title>
<polygon fill="white" stroke="black" points="467,-45 266,-45 266,-9 467,-9 467,-45"/>
<text text-anchor="middle" x="366.5" y="-23.9" font-family="Times,serif" font-size="12.00">Receive Result Appeal from Prefecture</text>
</g>
<!-- 140463896741056 -->
<g id="node5" class="node">
<title>140463896741056</title>
<ellipse fill="white" stroke="black" cx="530" cy="-27" rx="27" ry="27"/>
</g>
<!-- 140463872948688&#45;&gt;140463896741056 -->
<g id="edge4" class="edge">
<title>140463872948688&#45;&gt;140463896741056</title>
<path fill="none" stroke="black" d="M467.02,-27C476.04,-27 484.72,-27 492.59,-27"/>
<polygon fill="black" stroke="black" points="492.77,-30.5 502.77,-27 492.77,-23.5 492.77,-30.5"/>
</g>
<!-- 140468994059520 -->
<g id="node2" class="node">
<title>140468994059520</title>
<polygon fill="white" stroke="black" points="140,-45 0,-45 0,-9 140,-9 140,-45"/>
<text text-anchor="middle" x="70" y="-23.9" font-family="Times,serif" font-size="12.00">Send Appeal to Prefecture</text>
</g>
<!-- 140468994189248 -->
<g id="node6" class="node">
<title>140468994189248</title>
<ellipse fill="white" stroke="black" cx="203" cy="-27" rx="27" ry="27"/>
</g>
<!-- 140468994059520&#45;&gt;140468994189248 -->
<g id="edge6" class="edge">
<title>140468994059520&#45;&gt;140468994189248</title>
<path fill="none" stroke="black" d="M140.34,-27C149.13,-27 157.82,-27 165.79,-27"/>
<polygon fill="black" stroke="black" points="165.8,-30.5 175.8,-27 165.8,-23.5 165.8,-30.5"/>
</g>
<!-- 140468994059136 -->
<g id="node3" class="node">
<title>140468994059136</title>
<polygon fill="white" stroke="black" points="734,-81 593,-81 593,-45 734,-45 734,-81"/>
<text text-anchor="middle" x="663.5" y="-59.9" font-family="Times,serif" font-size="12.00">Send for Credit Collection</text>
</g>
<!-- 140469013163216 -->
<g id="node4" class="node">
<title>140469013163216</title>
<polygon fill="white" stroke="black" points="454,-117 279,-117 279,-81 454,-81 454,-117"/>
<text text-anchor="middle" x="366.5" y="-95.9" font-family="Times,serif" font-size="12.00">Notify Result Appeal to Offender</text>
</g>
<!-- 140468994189584 -->
<g id="node7" class="node">
<title>140468994189584</title>
<ellipse fill="white" stroke="black" cx="530" cy="-99" rx="27" ry="27"/>
</g>
<!-- 140469013163216&#45;&gt;140468994189584 -->
<g id="edge5" class="edge">
<title>140469013163216&#45;&gt;140468994189584</title>
<path fill="none" stroke="black" d="M454.4,-99C467.89,-99 481.15,-99 492.66,-99"/>
<polygon fill="black" stroke="black" points="492.7,-102.5 502.7,-99 492.7,-95.5 492.7,-102.5"/>
</g>
<!-- 140463896741056&#45;&gt;140468994059136 -->
<g id="edge1" class="edge">
<title>140463896741056&#45;&gt;140468994059136</title>
<path fill="none" stroke="black" d="M556.35,-33.94C565.3,-36.39 575.88,-39.29 586.83,-42.28"/>
<polygon fill="black" stroke="black" points="585.95,-45.67 596.52,-44.94 587.8,-38.92 585.95,-45.67"/>
</g>
<!-- 140468994189248&#45;&gt;140463872948688 -->
<g id="edge2" class="edge">
<title>140468994189248&#45;&gt;140463872948688</title>
<path fill="none" stroke="black" d="M230.31,-27C237.79,-27 246.44,-27 255.68,-27"/>
<polygon fill="black" stroke="black" points="255.9,-30.5 265.9,-27 255.9,-23.5 255.9,-30.5"/>
</g>
<!-- 140468994189584&#45;&gt;140468994059136 -->
<g id="edge3" class="edge">
<title>140468994189584&#45;&gt;140468994059136</title>
<path fill="none" stroke="black" d="M556.35,-92.06C565.3,-89.61 575.88,-86.71 586.83,-83.72"/>
<polygon fill="black" stroke="black" points="587.8,-87.08 596.52,-81.06 585.95,-80.33 587.8,-87.08"/>
</g>
</g>
</svg>
