<?xml version="1.0" encoding="UTF-8" standalone="no"?>
<!DOCTYPE svg PUBLIC "-//W3C//DTD SVG 1.1//EN"
 "http://www.w3.org/Graphics/SVG/1.1/DTD/svg11.dtd">
<!-- Generated by graphviz version 3.0.0 (20220226.1711)
 -->
<!-- Title: imported_1686809886.8277755 Pages: 1 -->
<svg width="422pt" height="134pt"
 viewBox="0.00 0.00 422.00 134.00" xmlns="http://www.w3.org/2000/svg" xmlns:xlink="http://www.w3.org/1999/xlink">
<g id="graph0" class="graph" transform="scale(1 1) rotate(0) translate(4 130)">
<title>imported_1686809886.8277755</title>
<polygon fill="white" stroke="transparent" points="-4,4 -4,-130 418,-130 418,4 -4,4"/>
<!-- 2309364452272 -->
<g id="node1" class="node">
<title>2309364452272</title>
<polygon fill="white" stroke="black" points="54,-117 0,-117 0,-81 54,-81 54,-117"/>
<text text-anchor="middle" x="27" y="-95.9" font-family="Times New Roman,serif" font-size="12.00">b</text>
</g>
<!-- 2309364452368 -->
<g id="node6" class="node">
<title>2309364452368</title>
<ellipse fill="white" stroke="black" cx="117" cy="-99" rx="27" ry="27"/>
</g>
<!-- 2309364452272&#45;&gt;2309364452368 -->
<g id="edge4" class="edge">
<title>2309364452272&#45;&gt;2309364452368</title>
<path fill="none" stroke="black" d="M54.4,-99C62.39,-99 71.31,-99 79.82,-99"/>
<polygon fill="black" stroke="black" points="79.92,-102.5 89.92,-99 79.92,-95.5 79.92,-102.5"/>
</g>
<!-- 2309364451504 -->
<g id="node2" class="node">
<title>2309364451504</title>
<polygon fill="white" stroke="black" points="234,-81 180,-81 180,-45 234,-45 234,-81"/>
<text text-anchor="middle" x="207" y="-59.9" font-family="Times New Roman,serif" font-size="12.00">d</text>
</g>
<!-- 2309364451360 -->
<g id="node7" class="node">
<title>2309364451360</title>
<ellipse fill="white" stroke="black" cx="297" cy="-63" rx="27" ry="27"/>
</g>
<!-- 2309364451504&#45;&gt;2309364451360 -->
<g id="edge6" class="edge">
<title>2309364451504&#45;&gt;2309364451360</title>
<path fill="none" stroke="black" d="M234.4,-63C242.39,-63 251.31,-63 259.82,-63"/>
<polygon fill="black" stroke="black" points="259.92,-66.5 269.92,-63 259.92,-59.5 259.92,-66.5"/>
</g>
<!-- 2309364451648 -->
<g id="node3" class="node">
<title>2309364451648</title>
<polygon fill="white" stroke="black" points="414,-81 360,-81 360,-45 414,-45 414,-81"/>
<text text-anchor="middle" x="387" y="-59.9" font-family="Times New Roman,serif" font-size="12.00">k</text>
</g>
<!-- 2309364450736 -->
<g id="node4" class="node">
<title>2309364450736</title>
<polygon fill="white" stroke="black" points="54,-45 0,-45 0,-9 54,-9 54,-45"/>
<text text-anchor="middle" x="27" y="-23.9" font-family="Times New Roman,serif" font-size="12.00">s</text>
</g>
<!-- 2309364451168 -->
<g id="node5" class="node">
<title>2309364451168</title>
<ellipse fill="white" stroke="black" cx="117" cy="-27" rx="27" ry="27"/>
</g>
<!-- 2309364450736&#45;&gt;2309364451168 -->
<g id="edge5" class="edge">
<title>2309364450736&#45;&gt;2309364451168</title>
<path fill="none" stroke="black" d="M54.4,-27C62.39,-27 71.31,-27 79.82,-27"/>
<polygon fill="black" stroke="black" points="79.92,-30.5 89.92,-27 79.92,-23.5 79.92,-30.5"/>
</g>
<!-- 2309364451168&#45;&gt;2309364451504 -->
<g id="edge1" class="edge">
<title>2309364451168&#45;&gt;2309364451504</title>
<path fill="none" stroke="black" d="M142.51,-37.03C151.12,-40.55 160.97,-44.58 170.31,-48.4"/>
<polygon fill="black" stroke="black" points="169.19,-51.72 179.77,-52.27 171.84,-45.24 169.19,-51.72"/>
</g>
<!-- 2309364452368&#45;&gt;2309364451504 -->
<g id="edge2" class="edge">
<title>2309364452368&#45;&gt;2309364451504</title>
<path fill="none" stroke="black" d="M142.51,-88.97C151.12,-85.45 160.97,-81.42 170.31,-77.6"/>
<polygon fill="black" stroke="black" points="171.84,-80.76 179.77,-73.73 169.19,-74.28 171.84,-80.76"/>
</g>
<!-- 2309364451360&#45;&gt;2309364451648 -->
<g id="edge3" class="edge">
<title>2309364451360&#45;&gt;2309364451648</title>
<path fill="none" stroke="black" d="M324.4,-63C332.39,-63 341.31,-63 349.82,-63"/>
<polygon fill="black" stroke="black" points="349.92,-66.5 359.92,-63 349.92,-59.5 349.92,-66.5"/>
</g>
</g>
</svg>
