<?xml version="1.0" encoding="UTF-8" standalone="no"?>
<!DOCTYPE svg PUBLIC "-//W3C//DTD SVG 1.1//EN"
 "http://www.w3.org/Graphics/SVG/1.1/DTD/svg11.dtd">
<!-- Generated by graphviz version 3.0.0 (20220226.1711)
 -->
<!-- Title: imported_1686809883.7571464 Pages: 1 -->
<svg width="602pt" height="62pt"
 viewBox="0.00 0.00 602.00 62.00" xmlns="http://www.w3.org/2000/svg" xmlns:xlink="http://www.w3.org/1999/xlink">
<g id="graph0" class="graph" transform="scale(1 1) rotate(0) translate(4 58)">
<title>imported_1686809883.7571464</title>
<polygon fill="white" stroke="transparent" points="-4,4 -4,-58 598,-58 598,4 -4,4"/>
<!-- 2309364392720 -->
<g id="node1" class="node">
<title>2309364392720</title>
<polygon fill="white" stroke="black" points="234,-45 180,-45 180,-9 234,-9 234,-45"/>
<text text-anchor="middle" x="207" y="-23.9" font-family="Times New Roman,serif" font-size="12.00">b</text>
</g>
<!-- 2309364395696 -->
<g id="node6" class="node">
<title>2309364395696</title>
<ellipse fill="white" stroke="black" cx="297" cy="-27" rx="27" ry="27"/>
</g>
<!-- 2309364392720&#45;&gt;2309364395696 -->
<g id="edge4" class="edge">
<title>2309364392720&#45;&gt;2309364395696</title>
<path fill="none" stroke="black" d="M234.4,-27C242.39,-27 251.31,-27 259.82,-27"/>
<polygon fill="black" stroke="black" points="259.92,-30.5 269.92,-27 259.92,-23.5 259.92,-30.5"/>
</g>
<!-- 2309364395888 -->
<g id="node2" class="node">
<title>2309364395888</title>
<polygon fill="white" stroke="black" points="414,-45 360,-45 360,-9 414,-9 414,-45"/>
<text text-anchor="middle" x="387" y="-23.9" font-family="Times New Roman,serif" font-size="12.00">d</text>
</g>
<!-- 2309364392096 -->
<g id="node7" class="node">
<title>2309364392096</title>
<ellipse fill="white" stroke="black" cx="477" cy="-27" rx="27" ry="27"/>
</g>
<!-- 2309364395888&#45;&gt;2309364392096 -->
<g id="edge6" class="edge">
<title>2309364395888&#45;&gt;2309364392096</title>
<path fill="none" stroke="black" d="M414.4,-27C422.39,-27 431.31,-27 439.82,-27"/>
<polygon fill="black" stroke="black" points="439.92,-30.5 449.92,-27 439.92,-23.5 439.92,-30.5"/>
</g>
<!-- 2309364394592 -->
<g id="node3" class="node">
<title>2309364394592</title>
<polygon fill="white" stroke="black" points="54,-45 0,-45 0,-9 54,-9 54,-45"/>
<text text-anchor="middle" x="27" y="-23.9" font-family="Times New Roman,serif" font-size="12.00">s</text>
</g>
<!-- 2309364394112 -->
<g id="node5" class="node">
<title>2309364394112</title>
<ellipse fill="white" stroke="black" cx="117" cy="-27" rx="27" ry="27"/>
</g>
<!-- 2309364394592&#45;&gt;2309364394112 -->
<g id="edge5" class="edge">
<title>2309364394592&#45;&gt;2309364394112</title>
<path fill="none" stroke="black" d="M54.4,-27C62.39,-27 71.31,-27 79.82,-27"/>
<polygon fill="black" stroke="black" points="79.92,-30.5 89.92,-27 79.92,-23.5 79.92,-30.5"/>
</g>
<!-- 2309363107584 -->
<g id="node4" class="node">
<title>2309363107584</title>
<polygon fill="white" stroke="black" points="594,-45 540,-45 540,-9 594,-9 594,-45"/>
<text text-anchor="middle" x="567" y="-23.9" font-family="Times New Roman,serif" font-size="12.00">k</text>
</g>
<!-- 2309364394112&#45;&gt;2309364392720 -->
<g id="edge1" class="edge">
<title>2309364394112&#45;&gt;2309364392720</title>
<path fill="none" stroke="black" d="M144.4,-27C152.39,-27 161.31,-27 169.82,-27"/>
<polygon fill="black" stroke="black" points="169.92,-30.5 179.92,-27 169.92,-23.5 169.92,-30.5"/>
</g>
<!-- 2309364395696&#45;&gt;2309364395888 -->
<g id="edge2" class="edge">
<title>2309364395696&#45;&gt;2309364395888</title>
<path fill="none" stroke="black" d="M324.4,-27C332.39,-27 341.31,-27 349.82,-27"/>
<polygon fill="black" stroke="black" points="349.92,-30.5 359.92,-27 349.92,-23.5 349.92,-30.5"/>
</g>
<!-- 2309364392096&#45;&gt;2309363107584 -->
<g id="edge3" class="edge">
<title>2309364392096&#45;&gt;2309363107584</title>
<path fill="none" stroke="black" d="M504.4,-27C512.39,-27 521.31,-27 529.82,-27"/>
<polygon fill="black" stroke="black" points="529.92,-30.5 539.92,-27 529.92,-23.5 529.92,-30.5"/>
</g>
</g>
</svg>
