<?xml version="1.0" encoding="UTF-8" standalone="no"?>
<!DOCTYPE svg PUBLIC "-//W3C//DTD SVG 1.1//EN"
 "http://www.w3.org/Graphics/SVG/1.1/DTD/svg11.dtd">
<!-- Generated by graphviz version 2.43.0 (0)
 -->
<!-- Title: imported_1688044898.1253967 Pages: 1 -->
<svg width="804pt" height="174pt"
 viewBox="0.00 0.00 804.00 174.00" xmlns="http://www.w3.org/2000/svg" xmlns:xlink="http://www.w3.org/1999/xlink">
<g id="graph0" class="graph" transform="scale(1 1) rotate(0) translate(4 170)">
<title>imported_1688044898.1253967</title>
<polygon fill="white" stroke="transparent" points="-4,4 -4,-170 800,-170 800,4 -4,4"/>
<!-- 140464257980736 -->
<g id="node1" class="node">
<title>140464257980736</title>
<polygon fill="white" stroke="black" points="168,-121 0,-121 0,-85 168,-85 168,-121"/>
<text text-anchor="middle" x="84" y="-99.9" font-family="Times,serif" font-size="12.00">Insert Date Appeal to Prefecture</text>
</g>
<!-- 140464257979680 -->
<g id="node7" class="node">
<title>140464257979680</title>
<ellipse fill="white" stroke="black" cx="231" cy="-139" rx="27" ry="27"/>
</g>
<!-- 140464257980736&#45;&gt;140464257979680 -->
<g id="edge6" class="edge">
<title>140464257980736&#45;&gt;140464257979680</title>
<path fill="none" stroke="black" d="M157.92,-121.11C170.78,-124.3 183.61,-127.48 194.81,-130.26"/>
<polygon fill="black" stroke="black" points="194.04,-133.68 204.59,-132.69 195.73,-126.88 194.04,-133.68"/>
</g>
<!-- 140464257981216 -->
<g id="node9" class="node">
<title>140464257981216</title>
<ellipse fill="white" stroke="black" cx="231" cy="-67" rx="27" ry="27"/>
</g>
<!-- 140464257980736&#45;&gt;140464257981216 -->
<g id="edge7" class="edge">
<title>140464257980736&#45;&gt;140464257981216</title>
<path fill="none" stroke="black" d="M157.92,-84.89C170.78,-81.7 183.61,-78.52 194.81,-75.74"/>
<polygon fill="black" stroke="black" points="195.73,-79.12 204.59,-73.31 194.04,-72.32 195.73,-79.12"/>
</g>
<!-- 140468994103712 -->
<g id="node2" class="node">
<title>140468994103712</title>
<polygon fill="white" stroke="black" points="755.5,-119 661.5,-119 661.5,-83 755.5,-83 755.5,-119"/>
<text text-anchor="middle" x="708.5" y="-97.9" font-family="Times,serif" font-size="12.00">Appeal to Judge</text>
</g>
<!-- 140464257981840 -->
<g id="node3" class="node">
<title>140464257981840</title>
<polygon fill="white" stroke="black" points="423.5,-36 365.5,-36 365.5,0 423.5,0 423.5,-36"/>
<text text-anchor="middle" x="394.5" y="-14.9" font-family="Times,serif" font-size="12.00">Payment</text>
</g>
<!-- 140464257982368 -->
<g id="node8" class="node">
<title>140464257982368</title>
<ellipse fill="white" stroke="black" cx="558" cy="-74" rx="27" ry="27"/>
</g>
<!-- 140464257981840&#45;&gt;140464257982368 -->
<g id="edge5" class="edge">
<title>140464257981840&#45;&gt;140464257982368</title>
<path fill="none" stroke="black" d="M423.78,-24.3C443.92,-29.11 471.47,-36.38 495,-45 504.69,-48.55 514.94,-53.03 524.25,-57.4"/>
<polygon fill="black" stroke="black" points="523.03,-60.69 533.56,-61.87 526.06,-54.38 523.03,-60.69"/>
</g>
<!-- 140464257980688 -->
<g id="node4" class="node">
<title>140464257980688</title>
<polygon fill="white" stroke="black" points="796,-65 621,-65 621,-29 796,-29 796,-65"/>
<text text-anchor="middle" x="708.5" y="-43.9" font-family="Times,serif" font-size="12.00">Notify Result Appeal to Offender</text>
</g>
<!-- 140464257981552 -->
<g id="node5" class="node">
<title>140464257981552</title>
<polygon fill="white" stroke="black" points="495,-90 294,-90 294,-54 495,-54 495,-90"/>
<text text-anchor="middle" x="394.5" y="-68.9" font-family="Times,serif" font-size="12.00">Receive Result Appeal from Prefecture</text>
</g>
<!-- 140464257981648 -->
<g id="node6" class="node">
<title>140464257981648</title>
<polygon fill="white" stroke="black" points="464.5,-148 324.5,-148 324.5,-112 464.5,-112 464.5,-148"/>
<text text-anchor="middle" x="394.5" y="-126.9" font-family="Times,serif" font-size="12.00">Send Appeal to Prefecture</text>
</g>
<!-- 140464257981648&#45;&gt;140464257982368 -->
<g id="edge8" class="edge">
<title>140464257981648&#45;&gt;140464257982368</title>
<path fill="none" stroke="black" d="M456.27,-111.93C469.12,-107.87 482.56,-103.44 495,-99 504.23,-95.71 514.12,-91.87 523.23,-88.2"/>
<polygon fill="black" stroke="black" points="524.8,-91.34 532.73,-84.32 522.15,-84.85 524.8,-91.34"/>
</g>
<!-- 140464257979680&#45;&gt;140464257981648 -->
<g id="edge1" class="edge">
<title>140464257979680&#45;&gt;140464257981648</title>
<path fill="none" stroke="black" d="M258.31,-137.53C273.68,-136.68 293.97,-135.55 314.15,-134.42"/>
<polygon fill="black" stroke="black" points="314.55,-137.91 324.34,-133.85 314.16,-130.92 314.55,-137.91"/>
</g>
<!-- 140464257982368&#45;&gt;140468994103712 -->
<g id="edge3" class="edge">
<title>140464257982368&#45;&gt;140468994103712</title>
<path fill="none" stroke="black" d="M584.87,-78.7C603.18,-82.03 628.45,-86.63 651.29,-90.78"/>
<polygon fill="black" stroke="black" points="650.78,-94.24 661.25,-92.59 652.03,-87.36 650.78,-94.24"/>
</g>
<!-- 140464257982368&#45;&gt;140464257980688 -->
<g id="edge2" class="edge">
<title>140464257982368&#45;&gt;140464257980688</title>
<path fill="none" stroke="black" d="M584.87,-69.3C592.51,-67.91 601.37,-66.3 610.77,-64.59"/>
<polygon fill="black" stroke="black" points="611.5,-68.01 620.71,-62.78 610.25,-61.12 611.5,-68.01"/>
</g>
<!-- 140464257981216&#45;&gt;140464257981552 -->
<g id="edge4" class="edge">
<title>140464257981216&#45;&gt;140464257981552</title>
<path fill="none" stroke="black" d="M258.31,-67.81C265.79,-68.05 274.44,-68.31 283.68,-68.6"/>
<polygon fill="black" stroke="black" points="283.8,-72.11 293.9,-68.92 284.01,-65.11 283.8,-72.11"/>
</g>
</g>
</svg>
