<?xml version="1.0" encoding="UTF-8" standalone="no"?>
<!DOCTYPE svg PUBLIC "-//W3C//DTD SVG 1.1//EN"
 "http://www.w3.org/Graphics/SVG/1.1/DTD/svg11.dtd">
<!-- Generated by graphviz version 2.43.0 (0)
 -->
<!-- Title: imported_1688044892.0591924 Pages: 1 -->
<svg width="661pt" height="134pt"
 viewBox="0.00 0.00 661.00 134.00" xmlns="http://www.w3.org/2000/svg" xmlns:xlink="http://www.w3.org/1999/xlink">
<g id="graph0" class="graph" transform="scale(1 1) rotate(0) translate(4 130)">
<title>imported_1688044892.0591924</title>
<polygon fill="white" stroke="transparent" points="-4,4 -4,-130 657,-130 657,4 -4,4"/>
<!-- 140465201725744 -->
<g id="node1" class="node">
<title>140465201725744</title>
<polygon fill="white" stroke="black" points="653,-81 595,-81 595,-45 653,-45 653,-81"/>
<text text-anchor="middle" x="624" y="-59.9" font-family="Times,serif" font-size="12.00">Payment</text>
</g>
<!-- 140465201729296 -->
<g id="node2" class="node">
<title>140465201729296</title>
<polygon fill="white" stroke="black" points="469,-45 294,-45 294,-9 469,-9 469,-45"/>
<text text-anchor="middle" x="381.5" y="-23.9" font-family="Times,serif" font-size="12.00">Notify Result Appeal to Offender</text>
</g>
<!-- 140465201725792 -->
<g id="node7" class="node">
<title>140465201725792</title>
<ellipse fill="white" stroke="black" cx="532" cy="-27" rx="27" ry="27"/>
</g>
<!-- 140465201729296&#45;&gt;140465201725792 -->
<g id="edge5" class="edge">
<title>140465201729296&#45;&gt;140465201725792</title>
<path fill="none" stroke="black" d="M469.31,-27C478.21,-27 486.87,-27 494.74,-27"/>
<polygon fill="black" stroke="black" points="494.94,-30.5 504.94,-27 494.94,-23.5 494.94,-30.5"/>
</g>
<!-- 140465201729344 -->
<g id="node3" class="node">
<title>140465201729344</title>
<polygon fill="white" stroke="black" points="451.5,-117 311.5,-117 311.5,-81 451.5,-81 451.5,-117"/>
<text text-anchor="middle" x="381.5" y="-95.9" font-family="Times,serif" font-size="12.00">Send Appeal to Prefecture</text>
</g>
<!-- 140469014430336 -->
<g id="node5" class="node">
<title>140469014430336</title>
<ellipse fill="white" stroke="black" cx="532" cy="-99" rx="27" ry="27"/>
</g>
<!-- 140465201729344&#45;&gt;140469014430336 -->
<g id="edge6" class="edge">
<title>140465201729344&#45;&gt;140469014430336</title>
<path fill="none" stroke="black" d="M451.53,-99C466.33,-99 481.4,-99 494.38,-99"/>
<polygon fill="black" stroke="black" points="494.75,-102.5 504.75,-99 494.75,-95.5 494.75,-102.5"/>
</g>
<!-- 140465201729488 -->
<g id="node4" class="node">
<title>140465201729488</title>
<polygon fill="white" stroke="black" points="168,-117 0,-117 0,-81 168,-81 168,-117"/>
<text text-anchor="middle" x="84" y="-95.9" font-family="Times,serif" font-size="12.00">Insert Date Appeal to Prefecture</text>
</g>
<!-- 140465201709504 -->
<g id="node6" class="node">
<title>140465201709504</title>
<ellipse fill="white" stroke="black" cx="231" cy="-99" rx="27" ry="27"/>
</g>
<!-- 140465201729488&#45;&gt;140465201709504 -->
<g id="edge4" class="edge">
<title>140465201729488&#45;&gt;140465201709504</title>
<path fill="none" stroke="black" d="M168.09,-99C176.96,-99 185.62,-99 193.51,-99"/>
<polygon fill="black" stroke="black" points="193.75,-102.5 203.75,-99 193.75,-95.5 193.75,-102.5"/>
</g>
<!-- 140469014430336&#45;&gt;140465201725744 -->
<g id="edge1" class="edge">
<title>140469014430336&#45;&gt;140465201725744</title>
<path fill="none" stroke="black" d="M557.59,-89.16C566.17,-85.73 576,-81.8 585.39,-78.05"/>
<polygon fill="black" stroke="black" points="586.95,-81.19 594.94,-74.22 584.36,-74.69 586.95,-81.19"/>
</g>
<!-- 140465201709504&#45;&gt;140465201729344 -->
<g id="edge2" class="edge">
<title>140465201709504&#45;&gt;140465201729344</title>
<path fill="none" stroke="black" d="M258.21,-99C270.36,-99 285.53,-99 301.01,-99"/>
<polygon fill="black" stroke="black" points="301.19,-102.5 311.19,-99 301.19,-95.5 301.19,-102.5"/>
</g>
<!-- 140465201725792&#45;&gt;140465201725744 -->
<g id="edge3" class="edge">
<title>140465201725792&#45;&gt;140465201725744</title>
<path fill="none" stroke="black" d="M557.59,-36.84C566.17,-40.27 576,-44.2 585.39,-47.95"/>
<polygon fill="black" stroke="black" points="584.36,-51.31 594.94,-51.78 586.95,-44.81 584.36,-51.31"/>
</g>
</g>
</svg>
