<?xml version="1.0" encoding="UTF-8" standalone="no"?>
<!DOCTYPE svg PUBLIC "-//W3C//DTD SVG 1.1//EN"
 "http://www.w3.org/Graphics/SVG/1.1/DTD/svg11.dtd">
<!-- Generated by graphviz version 2.43.0 (0)
 -->
<!-- Title: imported_1688044912.3874934 Pages: 1 -->
<svg width="1071pt" height="134pt"
 viewBox="0.00 0.00 1071.00 134.00" xmlns="http://www.w3.org/2000/svg" xmlns:xlink="http://www.w3.org/1999/xlink">
<g id="graph0" class="graph" transform="scale(1 1) rotate(0) translate(4 130)">
<title>imported_1688044912.3874934</title>
<polygon fill="white" stroke="transparent" points="-4,4 -4,-130 1067,-130 1067,4 -4,4"/>
<!-- 140468994174784 -->
<g id="node1" class="node">
<title>140468994174784</title>
<polygon fill="white" stroke="black" points="168,-81 0,-81 0,-45 168,-45 168,-81"/>
<text text-anchor="middle" x="84" y="-59.9" font-family="Times,serif" font-size="12.00">Insert Date Appeal to Prefecture</text>
</g>
<!-- 140468994173152 -->
<g id="node8" class="node">
<title>140468994173152</title>
<ellipse fill="white" stroke="black" cx="231" cy="-99" rx="27" ry="27"/>
</g>
<!-- 140468994174784&#45;&gt;140468994173152 -->
<g id="edge6" class="edge">
<title>140468994174784&#45;&gt;140468994173152</title>
<path fill="none" stroke="black" d="M157.92,-81.11C170.78,-84.3 183.61,-87.48 194.81,-90.26"/>
<polygon fill="black" stroke="black" points="194.04,-93.68 204.59,-92.69 195.73,-86.88 194.04,-93.68"/>
</g>
<!-- 140468994173488 -->
<g id="node10" class="node">
<title>140468994173488</title>
<ellipse fill="white" stroke="black" cx="231" cy="-27" rx="27" ry="27"/>
</g>
<!-- 140468994174784&#45;&gt;140468994173488 -->
<g id="edge7" class="edge">
<title>140468994174784&#45;&gt;140468994173488</title>
<path fill="none" stroke="black" d="M157.92,-44.89C170.78,-41.7 183.61,-38.52 194.81,-35.74"/>
<polygon fill="black" stroke="black" points="195.73,-39.12 204.59,-33.31 194.04,-32.32 195.73,-39.12"/>
</g>
<!-- 140468994173440 -->
<g id="node2" class="node">
<title>140468994173440</title>
<polygon fill="white" stroke="black" points="495,-49 294,-49 294,-13 495,-13 495,-49"/>
<text text-anchor="middle" x="394.5" y="-27.9" font-family="Times,serif" font-size="12.00">Receive Result Appeal from Prefecture</text>
</g>
<!-- 140468994172192 -->
<g id="node7" class="node">
<title>140468994172192</title>
<ellipse fill="white" stroke="black" cx="558" cy="-33" rx="27" ry="27"/>
</g>
<!-- 140468994173440&#45;&gt;140468994172192 -->
<g id="edge8" class="edge">
<title>140468994173440&#45;&gt;140468994172192</title>
<path fill="none" stroke="black" d="M495.02,-32.23C504.04,-32.34 512.72,-32.45 520.59,-32.55"/>
<polygon fill="black" stroke="black" points="520.73,-36.05 530.77,-32.68 520.82,-29.05 520.73,-36.05"/>
</g>
<!-- 140465202039584 -->
<g id="node3" class="node">
<title>140465202039584</title>
<polygon fill="white" stroke="black" points="1063,-83 922,-83 922,-47 1063,-47 1063,-83"/>
<text text-anchor="middle" x="992.5" y="-61.9" font-family="Times,serif" font-size="12.00">Send for Credit Collection</text>
</g>
<!-- 140465202040448 -->
<g id="node4" class="node">
<title>140465202040448</title>
<polygon fill="white" stroke="black" points="464.5,-116 324.5,-116 324.5,-80 464.5,-80 464.5,-116"/>
<text text-anchor="middle" x="394.5" y="-94.9" font-family="Times,serif" font-size="12.00">Send Appeal to Prefecture</text>
</g>
<!-- 140468994173008 -->
<g id="node6" class="node">
<title>140468994173008</title>
<ellipse fill="white" stroke="black" cx="708.5" cy="-98" rx="27" ry="27"/>
</g>
<!-- 140465202040448&#45;&gt;140468994173008 -->
<g id="edge9" class="edge">
<title>140465202040448&#45;&gt;140468994173008</title>
<path fill="none" stroke="black" d="M464.74,-98C528.6,-98 620.9,-98 671.3,-98"/>
<polygon fill="black" stroke="black" points="671.39,-101.5 681.39,-98 671.39,-94.5 671.39,-101.5"/>
</g>
<!-- 140465202040736 -->
<g id="node5" class="node">
<title>140465202040736</title>
<polygon fill="white" stroke="black" points="796,-52 621,-52 621,-16 796,-16 796,-52"/>
<text text-anchor="middle" x="708.5" y="-30.9" font-family="Times,serif" font-size="12.00">Notify Result Appeal to Offender</text>
</g>
<!-- 140468994171232 -->
<g id="node9" class="node">
<title>140468994171232</title>
<ellipse fill="white" stroke="black" cx="859" cy="-38" rx="27" ry="27"/>
</g>
<!-- 140465202040736&#45;&gt;140468994171232 -->
<g id="edge10" class="edge">
<title>140465202040736&#45;&gt;140468994171232</title>
<path fill="none" stroke="black" d="M796.31,-36.34C805.21,-36.58 813.87,-36.81 821.74,-37.02"/>
<polygon fill="black" stroke="black" points="821.85,-40.53 831.94,-37.3 822.04,-33.53 821.85,-40.53"/>
</g>
<!-- 140468994173008&#45;&gt;140465202039584 -->
<g id="edge1" class="edge">
<title>140468994173008&#45;&gt;140465202039584</title>
<path fill="none" stroke="black" d="M735.52,-94.95C775.22,-90.31 852.55,-81.26 911.87,-74.32"/>
<polygon fill="black" stroke="black" points="912.45,-77.77 921.97,-73.14 911.63,-70.82 912.45,-77.77"/>
</g>
<!-- 140468994172192&#45;&gt;140465202040736 -->
<g id="edge2" class="edge">
<title>140468994172192&#45;&gt;140465202040736</title>
<path fill="none" stroke="black" d="M585.21,-33.18C592.73,-33.23 601.4,-33.29 610.59,-33.35"/>
<polygon fill="black" stroke="black" points="610.7,-36.85 620.73,-33.42 610.75,-29.85 610.7,-36.85"/>
</g>
<!-- 140468994173152&#45;&gt;140465202040448 -->
<g id="edge3" class="edge">
<title>140468994173152&#45;&gt;140465202040448</title>
<path fill="none" stroke="black" d="M258.31,-98.84C273.68,-98.74 293.97,-98.62 314.15,-98.49"/>
<polygon fill="black" stroke="black" points="314.36,-101.99 324.34,-98.43 314.32,-94.99 314.36,-101.99"/>
</g>
<!-- 140468994171232&#45;&gt;140465202039584 -->
<g id="edge4" class="edge">
<title>140468994171232&#45;&gt;140465202039584</title>
<path fill="none" stroke="black" d="M885.67,-43.27C893.49,-44.88 902.53,-46.73 911.98,-48.67"/>
<polygon fill="black" stroke="black" points="911.43,-52.13 921.93,-50.71 912.83,-45.27 911.43,-52.13"/>
</g>
<!-- 140468994173488&#45;&gt;140468994173440 -->
<g id="edge5" class="edge">
<title>140468994173488&#45;&gt;140468994173440</title>
<path fill="none" stroke="black" d="M258.31,-27.65C265.79,-27.84 274.44,-28.05 283.68,-28.28"/>
<polygon fill="black" stroke="black" points="283.82,-31.78 293.9,-28.53 283.99,-24.79 283.82,-31.78"/>
</g>
</g>
</svg>
