<?xml version="1.0" encoding="UTF-8" standalone="no"?>
<!DOCTYPE svg PUBLIC "-//W3C//DTD SVG 1.1//EN"
 "http://www.w3.org/Graphics/SVG/1.1/DTD/svg11.dtd">
<!-- Generated by graphviz version 2.43.0 (0)
 -->
<!-- Title: imported_1692806321.0516887 Pages: 1 -->
<svg width="558pt" height="98pt"
 viewBox="0.00 0.00 558.00 98.00" xmlns="http://www.w3.org/2000/svg" xmlns:xlink="http://www.w3.org/1999/xlink">
<g id="graph0" class="graph" transform="scale(1 1) rotate(0) translate(4 94)">
<title>imported_1692806321.0516887</title>
<polygon fill="white" stroke="transparent" points="-4,4 -4,-94 554,-94 554,4 -4,4"/>
<!-- 140644631169728 -->
<g id="node1" class="node">
<title>140644631169728</title>
<polygon fill="white" stroke="black" points="93,-63 0,-63 0,-27 93,-27 93,-63"/>
<text text-anchor="middle" x="46.5" y="-41.9" font-family="Times,serif" font-size="12.00">O_SELECTED</text>
</g>
<!-- 140644631170448 -->
<g id="node6" class="node">
<title>140644631170448</title>
<ellipse fill="white" stroke="black" cx="156" cy="-45" rx="27" ry="27"/>
</g>
<!-- 140644631169728&#45;&gt;140644631170448 -->
<g id="edge4" class="edge">
<title>140644631169728&#45;&gt;140644631170448</title>
<path fill="none" stroke="black" d="M93.09,-45C101.7,-45 110.6,-45 118.87,-45"/>
<polygon fill="black" stroke="black" points="118.94,-48.5 128.94,-45 118.94,-41.5 118.94,-48.5"/>
</g>
<!-- 140644631167760 -->
<g id="node2" class="node">
<title>140644631167760</title>
<polygon fill="white" stroke="black" points="522,-90 460,-90 460,-54 522,-54 522,-90"/>
<text text-anchor="middle" x="491" y="-68.9" font-family="Times,serif" font-size="12.00">O_SENT</text>
</g>
<!-- 140644631168912 -->
<g id="node3" class="node">
<title>140644631168912</title>
<polygon fill="white" stroke="black" points="306,-63 219,-63 219,-27 306,-27 306,-63"/>
<text text-anchor="middle" x="262.5" y="-41.9" font-family="Times,serif" font-size="12.00">O_CREATED</text>
</g>
<!-- 140644631169488 -->
<g id="node5" class="node">
<title>140644631169488</title>
<ellipse fill="white" stroke="black" cx="369" cy="-45" rx="27" ry="27"/>
</g>
<!-- 140644631168912&#45;&gt;140644631169488 -->
<g id="edge5" class="edge">
<title>140644631168912&#45;&gt;140644631169488</title>
<path fill="none" stroke="black" d="M306,-45C314.51,-45 323.37,-45 331.64,-45"/>
<polygon fill="black" stroke="black" points="331.73,-48.5 341.73,-45 331.73,-41.5 331.73,-48.5"/>
</g>
<!-- 140644631170688 -->
<g id="node4" class="node">
<title>140644631170688</title>
<polygon fill="white" stroke="black" points="550,-36 432,-36 432,0 550,0 550,-36"/>
<text text-anchor="middle" x="491" y="-14.9" font-family="Times,serif" font-size="12.00">A_PREACCEPTED</text>
</g>
<!-- 140644631169488&#45;&gt;140644631167760 -->
<g id="edge1" class="edge">
<title>140644631169488&#45;&gt;140644631167760</title>
<path fill="none" stroke="black" d="M395.45,-50.73C411.28,-54.29 431.98,-58.95 449.98,-62.99"/>
<polygon fill="black" stroke="black" points="449.4,-66.45 459.92,-65.23 450.93,-59.62 449.4,-66.45"/>
</g>
<!-- 140644631169488&#45;&gt;140644631170688 -->
<g id="edge2" class="edge">
<title>140644631169488&#45;&gt;140644631170688</title>
<path fill="none" stroke="black" d="M395.45,-39.27C403.41,-37.48 412.61,-35.41 422.08,-33.28"/>
<polygon fill="black" stroke="black" points="423.01,-36.66 432,-31.05 421.47,-29.83 423.01,-36.66"/>
</g>
<!-- 140644631170448&#45;&gt;140644631168912 -->
<g id="edge3" class="edge">
<title>140644631170448&#45;&gt;140644631168912</title>
<path fill="none" stroke="black" d="M183.1,-45C190.83,-45 199.6,-45 208.4,-45"/>
<polygon fill="black" stroke="black" points="208.68,-48.5 218.68,-45 208.68,-41.5 208.68,-48.5"/>
</g>
</g>
</svg>
