<?xml version="1.0" encoding="UTF-8" standalone="no"?>
<!DOCTYPE svg PUBLIC "-//W3C//DTD SVG 1.1//EN"
 "http://www.w3.org/Graphics/SVG/1.1/DTD/svg11.dtd">
<!-- Generated by graphviz version 2.43.0 (0)
 -->
<!-- Title: imported_1692806321.3035345 Pages: 1 -->
<svg width="321pt" height="170pt"
 viewBox="0.00 0.00 321.00 170.00" xmlns="http://www.w3.org/2000/svg" xmlns:xlink="http://www.w3.org/1999/xlink">
<g id="graph0" class="graph" transform="scale(1 1) rotate(0) translate(4 166)">
<title>imported_1692806321.3035345</title>
<polygon fill="white" stroke="transparent" points="-4,4 -4,-166 317,-166 317,4 -4,4"/>
<!-- 140644631167136 -->
<g id="node1" class="node">
<title>140644631167136</title>
<polygon fill="white" stroke="black" points="109,-153 16,-153 16,-117 109,-117 109,-153"/>
<text text-anchor="middle" x="62.5" y="-131.9" font-family="Times,serif" font-size="12.00">O_SELECTED</text>
</g>
<!-- 140644631170160 -->
<g id="node6" class="node">
<title>140644631170160</title>
<ellipse fill="white" stroke="black" cx="188" cy="-135" rx="27" ry="27"/>
</g>
<!-- 140644631167136&#45;&gt;140644631170160 -->
<g id="edge3" class="edge">
<title>140644631167136&#45;&gt;140644631170160</title>
<path fill="none" stroke="black" d="M109.14,-135C122.91,-135 137.83,-135 150.89,-135"/>
<polygon fill="black" stroke="black" points="150.91,-138.5 160.91,-135 150.91,-131.5 150.91,-138.5"/>
</g>
<!-- 140644631170832 -->
<g id="node2" class="node">
<title>140644631170832</title>
<polygon fill="white" stroke="black" points="313,-117 251,-117 251,-81 313,-81 313,-117"/>
<text text-anchor="middle" x="282" y="-95.9" font-family="Times,serif" font-size="12.00">O_SENT</text>
</g>
<!-- 140644631170976 -->
<g id="node3" class="node">
<title>140644631170976</title>
<polygon fill="white" stroke="black" points="125,-90 0,-90 0,-54 125,-54 125,-90"/>
<text text-anchor="middle" x="62.5" y="-68.9" font-family="Times,serif" font-size="12.00">W_Valideren aanvraag</text>
</g>
<!-- 140644631170736 -->
<g id="node5" class="node">
<title>140644631170736</title>
<ellipse fill="white" stroke="black" cx="188" cy="-63" rx="27" ry="27"/>
</g>
<!-- 140644631170976&#45;&gt;140644631170736 -->
<g id="edge4" class="edge">
<title>140644631170976&#45;&gt;140644631170736</title>
<path fill="none" stroke="black" d="M125.25,-67.5C133.97,-66.86 142.69,-66.23 150.72,-65.64"/>
<polygon fill="black" stroke="black" points="151.09,-69.13 160.81,-64.91 150.58,-62.14 151.09,-69.13"/>
</g>
<!-- 140644631168192 -->
<g id="node4" class="node">
<title>140644631168192</title>
<polygon fill="white" stroke="black" points="106,-36 19,-36 19,0 106,0 106,-36"/>
<text text-anchor="middle" x="62.5" y="-14.9" font-family="Times,serif" font-size="12.00">O_CREATED</text>
</g>
<!-- 140644631168192&#45;&gt;140644631170736 -->
<g id="edge5" class="edge">
<title>140644631168192&#45;&gt;140644631170736</title>
<path fill="none" stroke="black" d="M106,-33.49C121.31,-39.06 138.37,-45.28 152.87,-50.56"/>
<polygon fill="black" stroke="black" points="151.85,-53.92 162.45,-54.05 154.25,-47.34 151.85,-53.92"/>
</g>
<!-- 140644631170736&#45;&gt;140644631170832 -->
<g id="edge1" class="edge">
<title>140644631170736&#45;&gt;140644631170832</title>
<path fill="none" stroke="black" d="M213.65,-72.65C222.11,-75.96 231.8,-79.75 241.14,-83.4"/>
<polygon fill="black" stroke="black" points="240.1,-86.76 250.69,-87.14 242.65,-80.24 240.1,-86.76"/>
</g>
<!-- 140644631170160&#45;&gt;140644631170832 -->
<g id="edge2" class="edge">
<title>140644631170160&#45;&gt;140644631170832</title>
<path fill="none" stroke="black" d="M213.65,-125.35C222.11,-122.04 231.8,-118.25 241.14,-114.6"/>
<polygon fill="black" stroke="black" points="242.65,-117.76 250.69,-110.86 240.1,-111.24 242.65,-117.76"/>
</g>
</g>
</svg>
