<?xml version="1.0" encoding="UTF-8" standalone="no"?>
<!DOCTYPE svg PUBLIC "-//W3C//DTD SVG 1.1//EN"
 "http://www.w3.org/Graphics/SVG/1.1/DTD/svg11.dtd">
<!-- Generated by graphviz version 2.43.0 (0)
 -->
<!-- Title: imported_1692806321.570467 Pages: 1 -->
<svg width="545pt" height="98pt"
 viewBox="0.00 0.00 545.00 98.00" xmlns="http://www.w3.org/2000/svg" xmlns:xlink="http://www.w3.org/1999/xlink">
<g id="graph0" class="graph" transform="scale(1 1) rotate(0) translate(4 94)">
<title>imported_1692806321.570467</title>
<polygon fill="white" stroke="transparent" points="-4,4 -4,-94 541,-94 541,4 -4,4"/>
<!-- 140644631121536 -->
<g id="node1" class="node">
<title>140644631121536</title>
<polygon fill="white" stroke="black" points="93,-63 0,-63 0,-27 93,-27 93,-63"/>
<text text-anchor="middle" x="46.5" y="-41.9" font-family="Times,serif" font-size="12.00">O_SELECTED</text>
</g>
<!-- 140644631167856 -->
<g id="node5" class="node">
<title>140644631167856</title>
<ellipse fill="white" stroke="black" cx="156" cy="-45" rx="27" ry="27"/>
</g>
<!-- 140644631121536&#45;&gt;140644631167856 -->
<g id="edge4" class="edge">
<title>140644631121536&#45;&gt;140644631167856</title>
<path fill="none" stroke="black" d="M93.09,-45C101.7,-45 110.6,-45 118.87,-45"/>
<polygon fill="black" stroke="black" points="118.94,-48.5 128.94,-45 118.94,-41.5 118.94,-48.5"/>
</g>
<!-- 140644631120672 -->
<g id="node2" class="node">
<title>140644631120672</title>
<polygon fill="white" stroke="black" points="306,-63 219,-63 219,-27 306,-27 306,-63"/>
<text text-anchor="middle" x="262.5" y="-41.9" font-family="Times,serif" font-size="12.00">O_CREATED</text>
</g>
<!-- 140644631120960 -->
<g id="node6" class="node">
<title>140644631120960</title>
<ellipse fill="white" stroke="black" cx="369" cy="-45" rx="27" ry="27"/>
</g>
<!-- 140644631120672&#45;&gt;140644631120960 -->
<g id="edge5" class="edge">
<title>140644631120672&#45;&gt;140644631120960</title>
<path fill="none" stroke="black" d="M306,-45C314.51,-45 323.37,-45 331.64,-45"/>
<polygon fill="black" stroke="black" points="331.73,-48.5 341.73,-45 331.73,-41.5 331.73,-48.5"/>
</g>
<!-- 140644631120720 -->
<g id="node3" class="node">
<title>140644631120720</title>
<polygon fill="white" stroke="black" points="537,-90 432,-90 432,-54 537,-54 537,-90"/>
<text text-anchor="middle" x="484.5" y="-68.9" font-family="Times,serif" font-size="12.00">A_CANCELLED</text>
</g>
<!-- 140644631121728 -->
<g id="node4" class="node">
<title>140644631121728</title>
<polygon fill="white" stroke="black" points="515.5,-36 453.5,-36 453.5,0 515.5,0 515.5,-36"/>
<text text-anchor="middle" x="484.5" y="-14.9" font-family="Times,serif" font-size="12.00">O_SENT</text>
</g>
<!-- 140644631167856&#45;&gt;140644631120672 -->
<g id="edge1" class="edge">
<title>140644631167856&#45;&gt;140644631120672</title>
<path fill="none" stroke="black" d="M183.1,-45C190.83,-45 199.6,-45 208.4,-45"/>
<polygon fill="black" stroke="black" points="208.68,-48.5 218.68,-45 208.68,-41.5 208.68,-48.5"/>
</g>
<!-- 140644631120960&#45;&gt;140644631120720 -->
<g id="edge2" class="edge">
<title>140644631120960&#45;&gt;140644631120720</title>
<path fill="none" stroke="black" d="M395.47,-51.06C403.43,-52.95 412.57,-55.13 421.9,-57.35"/>
<polygon fill="black" stroke="black" points="421.1,-60.75 431.64,-59.66 422.72,-53.94 421.1,-60.75"/>
</g>
<!-- 140644631120960&#45;&gt;140644631121728 -->
<g id="edge3" class="edge">
<title>140644631120960&#45;&gt;140644631121728</title>
<path fill="none" stroke="black" d="M395.47,-38.94C409.52,-35.6 427.28,-31.37 443.17,-27.59"/>
<polygon fill="black" stroke="black" points="444.36,-30.91 453.28,-25.19 442.74,-24.1 444.36,-30.91"/>
</g>
</g>
</svg>
