<?xml version="1.0" encoding="UTF-8" standalone="no"?>
<!DOCTYPE svg PUBLIC "-//W3C//DTD SVG 1.1//EN"
 "http://www.w3.org/Graphics/SVG/1.1/DTD/svg11.dtd">
<!-- Generated by graphviz version 2.43.0 (0)
 -->
<!-- Title: imported_1692806321.790374 Pages: 1 -->
<svg width="510pt" height="134pt"
 viewBox="0.00 0.00 510.00 134.00" xmlns="http://www.w3.org/2000/svg" xmlns:xlink="http://www.w3.org/1999/xlink">
<g id="graph0" class="graph" transform="scale(1 1) rotate(0) translate(4 130)">
<title>imported_1692806321.790374</title>
<polygon fill="white" stroke="transparent" points="-4,4 -4,-130 506,-130 506,4 -4,4"/>
<!-- 140644631118560 -->
<g id="node1" class="node">
<title>140644631118560</title>
<polygon fill="white" stroke="black" points="314,-117 221,-117 221,-81 314,-81 314,-117"/>
<text text-anchor="middle" x="267.5" y="-95.9" font-family="Times,serif" font-size="12.00">O_SELECTED</text>
</g>
<!-- 140644631118032 -->
<g id="node7" class="node">
<title>140644631118032</title>
<ellipse fill="white" stroke="black" cx="377" cy="-99" rx="27" ry="27"/>
</g>
<!-- 140644631118560&#45;&gt;140644631118032 -->
<g id="edge4" class="edge">
<title>140644631118560&#45;&gt;140644631118032</title>
<path fill="none" stroke="black" d="M314.09,-99C322.7,-99 331.6,-99 339.87,-99"/>
<polygon fill="black" stroke="black" points="339.94,-102.5 349.94,-99 339.94,-95.5 339.94,-102.5"/>
</g>
<!-- 140644631118080 -->
<g id="node2" class="node">
<title>140644631118080</title>
<polygon fill="white" stroke="black" points="502,-81 440,-81 440,-45 502,-45 502,-81"/>
<text text-anchor="middle" x="471" y="-59.9" font-family="Times,serif" font-size="12.00">O_SENT</text>
</g>
<!-- 140644631118320 -->
<g id="node3" class="node">
<title>140644631118320</title>
<polygon fill="white" stroke="black" points="95,-45 0,-45 0,-9 95,-9 95,-45"/>
<text text-anchor="middle" x="47.5" y="-23.9" font-family="Times,serif" font-size="12.00">A_FINALIZED</text>
</g>
<!-- 140644631118176 -->
<g id="node6" class="node">
<title>140644631118176</title>
<ellipse fill="white" stroke="black" cx="158" cy="-27" rx="27" ry="27"/>
</g>
<!-- 140644631118320&#45;&gt;140644631118176 -->
<g id="edge5" class="edge">
<title>140644631118320&#45;&gt;140644631118176</title>
<path fill="none" stroke="black" d="M95.14,-27C103.61,-27 112.33,-27 120.45,-27"/>
<polygon fill="black" stroke="black" points="120.72,-30.5 130.72,-27 120.72,-23.5 120.72,-30.5"/>
</g>
<!-- 140644631120576 -->
<g id="node4" class="node">
<title>140644631120576</title>
<polygon fill="white" stroke="black" points="311,-45 224,-45 224,-9 311,-9 311,-45"/>
<text text-anchor="middle" x="267.5" y="-23.9" font-family="Times,serif" font-size="12.00">O_CREATED</text>
</g>
<!-- 140644631118608 -->
<g id="node5" class="node">
<title>140644631118608</title>
<ellipse fill="white" stroke="black" cx="377" cy="-27" rx="27" ry="27"/>
</g>
<!-- 140644631120576&#45;&gt;140644631118608 -->
<g id="edge6" class="edge">
<title>140644631120576&#45;&gt;140644631118608</title>
<path fill="none" stroke="black" d="M311.3,-27C320.64,-27 330.44,-27 339.51,-27"/>
<polygon fill="black" stroke="black" points="339.75,-30.5 349.75,-27 339.75,-23.5 339.75,-30.5"/>
</g>
<!-- 140644631118608&#45;&gt;140644631118080 -->
<g id="edge1" class="edge">
<title>140644631118608&#45;&gt;140644631118080</title>
<path fill="none" stroke="black" d="M402.65,-36.65C411.11,-39.96 420.8,-43.75 430.14,-47.4"/>
<polygon fill="black" stroke="black" points="429.1,-50.76 439.69,-51.14 431.65,-44.24 429.1,-50.76"/>
</g>
<!-- 140644631118176&#45;&gt;140644631120576 -->
<g id="edge2" class="edge">
<title>140644631118176&#45;&gt;140644631120576</title>
<path fill="none" stroke="black" d="M185.02,-27C193.69,-27 203.69,-27 213.64,-27"/>
<polygon fill="black" stroke="black" points="213.95,-30.5 223.95,-27 213.95,-23.5 213.95,-30.5"/>
</g>
<!-- 140644631118032&#45;&gt;140644631118080 -->
<g id="edge3" class="edge">
<title>140644631118032&#45;&gt;140644631118080</title>
<path fill="none" stroke="black" d="M402.65,-89.35C411.11,-86.04 420.8,-82.25 430.14,-78.6"/>
<polygon fill="black" stroke="black" points="431.65,-81.76 439.69,-74.86 429.1,-75.24 431.65,-81.76"/>
</g>
</g>
</svg>
