<?xml version="1.0" encoding="UTF-8" standalone="no"?>
<!DOCTYPE svg PUBLIC "-//W3C//DTD SVG 1.1//EN"
 "http://www.w3.org/Graphics/SVG/1.1/DTD/svg11.dtd">
<!-- Generated by graphviz version 2.43.0 (0)
 -->
<!-- Title: imported_1688044903.1787395 Pages: 1 -->
<svg width="988pt" height="134pt"
 viewBox="0.00 0.00 988.00 134.00" xmlns="http://www.w3.org/2000/svg" xmlns:xlink="http://www.w3.org/1999/xlink">
<g id="graph0" class="graph" transform="scale(1 1) rotate(0) translate(4 130)">
<title>imported_1688044903.1787395</title>
<polygon fill="white" stroke="transparent" points="-4,4 -4,-130 984,-130 984,4 -4,4"/>
<!-- 140464257981792 -->
<g id="node1" class="node">
<title>140464257981792</title>
<polygon fill="white" stroke="black" points="980,-81 922,-81 922,-45 980,-45 980,-81"/>
<text text-anchor="middle" x="951" y="-59.9" font-family="Times,serif" font-size="12.00">Payment</text>
</g>
<!-- 140464257980832 -->
<g id="node2" class="node">
<title>140464257980832</title>
<polygon fill="white" stroke="black" points="796,-45 621,-45 621,-9 796,-9 796,-45"/>
<text text-anchor="middle" x="708.5" y="-23.9" font-family="Times,serif" font-size="12.00">Notify Result Appeal to Offender</text>
</g>
<!-- 140464257980880 -->
<g id="node9" class="node">
<title>140464257980880</title>
<ellipse fill="white" stroke="black" cx="859" cy="-27" rx="27" ry="27"/>
</g>
<!-- 140464257980832&#45;&gt;140464257980880 -->
<g id="edge7" class="edge">
<title>140464257980832&#45;&gt;140464257980880</title>
<path fill="none" stroke="black" d="M796.31,-27C805.21,-27 813.87,-27 821.74,-27"/>
<polygon fill="black" stroke="black" points="821.94,-30.5 831.94,-27 821.94,-23.5 821.94,-30.5"/>
</g>
<!-- 140464257980640 -->
<g id="node3" class="node">
<title>140464257980640</title>
<polygon fill="white" stroke="black" points="778.5,-117 638.5,-117 638.5,-81 778.5,-81 778.5,-117"/>
<text text-anchor="middle" x="708.5" y="-95.9" font-family="Times,serif" font-size="12.00">Send Appeal to Prefecture</text>
</g>
<!-- 140464257981312 -->
<g id="node6" class="node">
<title>140464257981312</title>
<ellipse fill="white" stroke="black" cx="859" cy="-99" rx="27" ry="27"/>
</g>
<!-- 140464257980640&#45;&gt;140464257981312 -->
<g id="edge8" class="edge">
<title>140464257980640&#45;&gt;140464257981312</title>
<path fill="none" stroke="black" d="M778.53,-99C793.33,-99 808.4,-99 821.38,-99"/>
<polygon fill="black" stroke="black" points="821.75,-102.5 831.75,-99 821.75,-95.5 821.75,-102.5"/>
</g>
<!-- 140464257980976 -->
<g id="node4" class="node">
<title>140464257980976</title>
<polygon fill="white" stroke="black" points="495,-45 294,-45 294,-9 495,-9 495,-45"/>
<text text-anchor="middle" x="394.5" y="-23.9" font-family="Times,serif" font-size="12.00">Receive Result Appeal from Prefecture</text>
</g>
<!-- 140464257980160 -->
<g id="node7" class="node">
<title>140464257980160</title>
<ellipse fill="white" stroke="black" cx="558" cy="-27" rx="27" ry="27"/>
</g>
<!-- 140464257980976&#45;&gt;140464257980160 -->
<g id="edge6" class="edge">
<title>140464257980976&#45;&gt;140464257980160</title>
<path fill="none" stroke="black" d="M495.02,-27C504.04,-27 512.72,-27 520.59,-27"/>
<polygon fill="black" stroke="black" points="520.77,-30.5 530.77,-27 520.77,-23.5 520.77,-30.5"/>
</g>
<!-- 140464257980304 -->
<g id="node5" class="node">
<title>140464257980304</title>
<polygon fill="white" stroke="black" points="168,-45 0,-45 0,-9 168,-9 168,-45"/>
<text text-anchor="middle" x="84" y="-23.9" font-family="Times,serif" font-size="12.00">Insert Date Appeal to Prefecture</text>
</g>
<!-- 140464257979584 -->
<g id="node8" class="node">
<title>140464257979584</title>
<ellipse fill="white" stroke="black" cx="231" cy="-27" rx="27" ry="27"/>
</g>
<!-- 140464257980304&#45;&gt;140464257979584 -->
<g id="edge5" class="edge">
<title>140464257980304&#45;&gt;140464257979584</title>
<path fill="none" stroke="black" d="M168.09,-27C176.96,-27 185.62,-27 193.51,-27"/>
<polygon fill="black" stroke="black" points="193.75,-30.5 203.75,-27 193.75,-23.5 193.75,-30.5"/>
</g>
<!-- 140464257981312&#45;&gt;140464257981792 -->
<g id="edge1" class="edge">
<title>140464257981312&#45;&gt;140464257981792</title>
<path fill="none" stroke="black" d="M884.59,-89.16C893.17,-85.73 903,-81.8 912.39,-78.05"/>
<polygon fill="black" stroke="black" points="913.95,-81.19 921.94,-74.22 911.36,-74.69 913.95,-81.19"/>
</g>
<!-- 140464257980160&#45;&gt;140464257980832 -->
<g id="edge2" class="edge">
<title>140464257980160&#45;&gt;140464257980832</title>
<path fill="none" stroke="black" d="M585.21,-27C592.73,-27 601.4,-27 610.59,-27"/>
<polygon fill="black" stroke="black" points="610.73,-30.5 620.73,-27 610.72,-23.5 610.73,-30.5"/>
</g>
<!-- 140464257979584&#45;&gt;140464257980976 -->
<g id="edge3" class="edge">
<title>140464257979584&#45;&gt;140464257980976</title>
<path fill="none" stroke="black" d="M258.31,-27C265.79,-27 274.44,-27 283.68,-27"/>
<polygon fill="black" stroke="black" points="283.9,-30.5 293.9,-27 283.9,-23.5 283.9,-30.5"/>
</g>
<!-- 140464257980880&#45;&gt;140464257981792 -->
<g id="edge4" class="edge">
<title>140464257980880&#45;&gt;140464257981792</title>
<path fill="none" stroke="black" d="M884.59,-36.84C893.17,-40.27 903,-44.2 912.39,-47.95"/>
<polygon fill="black" stroke="black" points="911.36,-51.31 921.94,-51.78 913.95,-44.81 911.36,-51.31"/>
</g>
</g>
</svg>
