<?xml version="1.0" encoding="UTF-8" standalone="no"?>
<!DOCTYPE svg PUBLIC "-//W3C//DTD SVG 1.1//EN"
 "http://www.w3.org/Graphics/SVG/1.1/DTD/svg11.dtd">
<!-- Generated by graphviz version 2.43.0 (0)
 -->
<!-- Title: imported_1688044903.3775764 Pages: 1 -->
<svg width="1254pt" height="121pt"
 viewBox="0.00 0.00 1254.00 121.00" xmlns="http://www.w3.org/2000/svg" xmlns:xlink="http://www.w3.org/1999/xlink">
<g id="graph0" class="graph" transform="scale(1 1) rotate(0) translate(4 117)">
<title>imported_1688044903.3775764</title>
<polygon fill="white" stroke="transparent" points="-4,4 -4,-117 1250,-117 1250,4 -4,4"/>
<!-- 140468994171808 -->
<g id="node1" class="node">
<title>140468994171808</title>
<polygon fill="white" stroke="black" points="168,-72 0,-72 0,-36 168,-36 168,-72"/>
<text text-anchor="middle" x="84" y="-50.9" font-family="Times,serif" font-size="12.00">Insert Date Appeal to Prefecture</text>
</g>
<!-- 140468994173248 -->
<g id="node9" class="node">
<title>140468994173248</title>
<ellipse fill="white" stroke="black" cx="231" cy="-54" rx="27" ry="27"/>
</g>
<!-- 140468994171808&#45;&gt;140468994173248 -->
<g id="edge8" class="edge">
<title>140468994171808&#45;&gt;140468994173248</title>
<path fill="none" stroke="black" d="M168.09,-54C176.96,-54 185.62,-54 193.51,-54"/>
<polygon fill="black" stroke="black" points="193.75,-57.5 203.75,-54 193.75,-50.5 193.75,-57.5"/>
</g>
<!-- 140468994174544 -->
<g id="node2" class="node">
<title>140468994174544</title>
<polygon fill="white" stroke="black" points="1246,-75 1188,-75 1188,-39 1246,-39 1246,-75"/>
<text text-anchor="middle" x="1217" y="-53.9" font-family="Times,serif" font-size="12.00">Payment</text>
</g>
<!-- 140468994171376 -->
<g id="node3" class="node">
<title>140468994171376</title>
<polygon fill="white" stroke="black" points="434,-72 294,-72 294,-36 434,-36 434,-72"/>
<text text-anchor="middle" x="364" y="-50.9" font-family="Times,serif" font-size="12.00">Send Appeal to Prefecture</text>
</g>
<!-- 140468994171664 -->
<g id="node6" class="node">
<title>140468994171664</title>
<ellipse fill="white" stroke="black" cx="660.5" cy="-86" rx="27" ry="27"/>
</g>
<!-- 140468994171376&#45;&gt;140468994171664 -->
<g id="edge2" class="edge">
<title>140468994171376&#45;&gt;140468994171664</title>
<path fill="none" stroke="black" d="M434.05,-61.5C493.32,-67.94 576.4,-76.97 623.39,-82.08"/>
<polygon fill="black" stroke="black" points="623.09,-85.56 633.41,-83.16 623.84,-78.6 623.09,-85.56"/>
</g>
<!-- 140468994171712 -->
<g id="node7" class="node">
<title>140468994171712</title>
<ellipse fill="white" stroke="black" cx="497" cy="-27" rx="27" ry="27"/>
</g>
<!-- 140468994171376&#45;&gt;140468994171712 -->
<g id="edge3" class="edge">
<title>140468994171376&#45;&gt;140468994171712</title>
<path fill="none" stroke="black" d="M434.34,-39.71C443.4,-37.84 452.36,-35.99 460.53,-34.31"/>
<polygon fill="black" stroke="black" points="461.31,-37.72 470.4,-32.28 459.9,-30.87 461.31,-37.72"/>
</g>
<!-- 140468994174448 -->
<g id="node4" class="node">
<title>140468994174448</title>
<polygon fill="white" stroke="black" points="1062,-47 887,-47 887,-11 1062,-11 1062,-47"/>
<text text-anchor="middle" x="974.5" y="-25.9" font-family="Times,serif" font-size="12.00">Notify Result Appeal to Offender</text>
</g>
<!-- 140468994174880 -->
<g id="node10" class="node">
<title>140468994174880</title>
<ellipse fill="white" stroke="black" cx="1125" cy="-30" rx="27" ry="27"/>
</g>
<!-- 140468994174448&#45;&gt;140468994174880 -->
<g id="edge10" class="edge">
<title>140468994174448&#45;&gt;140468994174880</title>
<path fill="none" stroke="black" d="M1062.31,-29.58C1071.21,-29.64 1079.87,-29.7 1087.74,-29.76"/>
<polygon fill="black" stroke="black" points="1087.92,-33.26 1097.94,-29.82 1087.97,-26.26 1087.92,-33.26"/>
</g>
<!-- 140468994172336 -->
<g id="node5" class="node">
<title>140468994172336</title>
<polygon fill="white" stroke="black" points="761,-41 560,-41 560,-5 761,-5 761,-41"/>
<text text-anchor="middle" x="660.5" y="-19.9" font-family="Times,serif" font-size="12.00">Receive Result Appeal from Prefecture</text>
</g>
<!-- 140468994174256 -->
<g id="node8" class="node">
<title>140468994174256</title>
<ellipse fill="white" stroke="black" cx="824" cy="-27" rx="27" ry="27"/>
</g>
<!-- 140468994172336&#45;&gt;140468994174256 -->
<g id="edge9" class="edge">
<title>140468994172336&#45;&gt;140468994174256</title>
<path fill="none" stroke="black" d="M761.02,-25.46C770.04,-25.69 778.72,-25.9 786.59,-26.1"/>
<polygon fill="black" stroke="black" points="786.69,-29.6 796.77,-26.35 786.86,-22.6 786.69,-29.6"/>
</g>
<!-- 140468994171664&#45;&gt;140468994174544 -->
<g id="edge1" class="edge">
<title>140468994171664&#45;&gt;140468994174544</title>
<path fill="none" stroke="black" d="M687.62,-85.84C760.96,-85.21 975.02,-82.01 1152,-66 1160.34,-65.25 1169.26,-64.17 1177.71,-63.01"/>
<polygon fill="black" stroke="black" points="1178.31,-66.46 1187.71,-61.59 1177.32,-59.53 1178.31,-66.46"/>
</g>
<!-- 140468994171712&#45;&gt;140468994172336 -->
<g id="edge4" class="edge">
<title>140468994171712&#45;&gt;140468994172336</title>
<path fill="none" stroke="black" d="M524.31,-26.35C531.79,-26.16 540.44,-25.95 549.68,-25.72"/>
<polygon fill="black" stroke="black" points="549.99,-29.21 559.9,-25.47 549.82,-22.22 549.99,-29.21"/>
</g>
<!-- 140468994174256&#45;&gt;140468994174448 -->
<g id="edge5" class="edge">
<title>140468994174256&#45;&gt;140468994174448</title>
<path fill="none" stroke="black" d="M851.21,-27.35C858.73,-27.45 867.4,-27.57 876.59,-27.69"/>
<polygon fill="black" stroke="black" points="876.68,-31.2 886.73,-27.83 876.77,-24.2 876.68,-31.2"/>
</g>
<!-- 140468994173248&#45;&gt;140468994171376 -->
<g id="edge6" class="edge">
<title>140468994173248&#45;&gt;140468994171376</title>
<path fill="none" stroke="black" d="M258.19,-54C265.87,-54 274.69,-54 283.89,-54"/>
<polygon fill="black" stroke="black" points="283.97,-57.5 293.97,-54 283.97,-50.5 283.97,-57.5"/>
</g>
<!-- 140468994174880&#45;&gt;140468994174544 -->
<g id="edge7" class="edge">
<title>140468994174880&#45;&gt;140468994174544</title>
<path fill="none" stroke="black" d="M1151.07,-37.52C1159.47,-40.04 1169.04,-42.91 1178.2,-45.66"/>
<polygon fill="black" stroke="black" points="1177.31,-49.05 1187.9,-48.57 1179.32,-42.34 1177.31,-49.05"/>
</g>
</g>
</svg>
