<?xml version="1.0" encoding="UTF-8" standalone="no"?>
<!DOCTYPE svg PUBLIC "-//W3C//DTD SVG 1.1//EN"
 "http://www.w3.org/Graphics/SVG/1.1/DTD/svg11.dtd">
<!-- Generated by graphviz version 2.43.0 (0)
 -->
<!-- Title: imported_1688044908.4002206 Pages: 1 -->
<svg width="953pt" height="62pt"
 viewBox="0.00 0.00 953.00 62.00" xmlns="http://www.w3.org/2000/svg" xmlns:xlink="http://www.w3.org/1999/xlink">
<g id="graph0" class="graph" transform="scale(1 1) rotate(0) translate(4 58)">
<title>imported_1688044908.4002206</title>
<polygon fill="white" stroke="transparent" points="-4,4 -4,-58 949,-58 949,4 -4,4"/>
<!-- 140468994103136 -->
<g id="node1" class="node">
<title>140468994103136</title>
<polygon fill="white" stroke="black" points="945,-45 887,-45 887,-9 945,-9 945,-45"/>
<text text-anchor="middle" x="916" y="-23.9" font-family="Times,serif" font-size="12.00">Payment</text>
</g>
<!-- 140468994102800 -->
<g id="node2" class="node">
<title>140468994102800</title>
<polygon fill="white" stroke="black" points="761,-45 560,-45 560,-9 761,-9 761,-45"/>
<text text-anchor="middle" x="660.5" y="-23.9" font-family="Times,serif" font-size="12.00">Receive Result Appeal from Prefecture</text>
</g>
<!-- 140468994102944 -->
<g id="node6" class="node">
<title>140468994102944</title>
<ellipse fill="white" stroke="black" cx="824" cy="-27" rx="27" ry="27"/>
</g>
<!-- 140468994102800&#45;&gt;140468994102944 -->
<g id="edge5" class="edge">
<title>140468994102800&#45;&gt;140468994102944</title>
<path fill="none" stroke="black" d="M761.02,-27C770.04,-27 778.72,-27 786.59,-27"/>
<polygon fill="black" stroke="black" points="786.77,-30.5 796.77,-27 786.77,-23.5 786.77,-30.5"/>
</g>
<!-- 140468994102320 -->
<g id="node3" class="node">
<title>140468994102320</title>
<polygon fill="white" stroke="black" points="434,-45 294,-45 294,-9 434,-9 434,-45"/>
<text text-anchor="middle" x="364" y="-23.9" font-family="Times,serif" font-size="12.00">Send Appeal to Prefecture</text>
</g>
<!-- 140468994101408 -->
<g id="node5" class="node">
<title>140468994101408</title>
<ellipse fill="white" stroke="black" cx="497" cy="-27" rx="27" ry="27"/>
</g>
<!-- 140468994102320&#45;&gt;140468994101408 -->
<g id="edge6" class="edge">
<title>140468994102320&#45;&gt;140468994101408</title>
<path fill="none" stroke="black" d="M434.34,-27C443.13,-27 451.82,-27 459.79,-27"/>
<polygon fill="black" stroke="black" points="459.8,-30.5 469.8,-27 459.8,-23.5 459.8,-30.5"/>
</g>
<!-- 140468994103424 -->
<g id="node4" class="node">
<title>140468994103424</title>
<polygon fill="white" stroke="black" points="168,-45 0,-45 0,-9 168,-9 168,-45"/>
<text text-anchor="middle" x="84" y="-23.9" font-family="Times,serif" font-size="12.00">Insert Date Appeal to Prefecture</text>
</g>
<!-- 140468994102512 -->
<g id="node7" class="node">
<title>140468994102512</title>
<ellipse fill="white" stroke="black" cx="231" cy="-27" rx="27" ry="27"/>
</g>
<!-- 140468994103424&#45;&gt;140468994102512 -->
<g id="edge4" class="edge">
<title>140468994103424&#45;&gt;140468994102512</title>
<path fill="none" stroke="black" d="M168.09,-27C176.96,-27 185.62,-27 193.51,-27"/>
<polygon fill="black" stroke="black" points="193.75,-30.5 203.75,-27 193.75,-23.5 193.75,-30.5"/>
</g>
<!-- 140468994101408&#45;&gt;140468994102800 -->
<g id="edge1" class="edge">
<title>140468994101408&#45;&gt;140468994102800</title>
<path fill="none" stroke="black" d="M524.31,-27C531.79,-27 540.44,-27 549.68,-27"/>
<polygon fill="black" stroke="black" points="549.9,-30.5 559.9,-27 549.9,-23.5 549.9,-30.5"/>
</g>
<!-- 140468994102944&#45;&gt;140468994103136 -->
<g id="edge2" class="edge">
<title>140468994102944&#45;&gt;140468994103136</title>
<path fill="none" stroke="black" d="M851.03,-27C859,-27 867.95,-27 876.56,-27"/>
<polygon fill="black" stroke="black" points="876.82,-30.5 886.82,-27 876.82,-23.5 876.82,-30.5"/>
</g>
<!-- 140468994102512&#45;&gt;140468994102320 -->
<g id="edge3" class="edge">
<title>140468994102512&#45;&gt;140468994102320</title>
<path fill="none" stroke="black" d="M258.19,-27C265.87,-27 274.69,-27 283.89,-27"/>
<polygon fill="black" stroke="black" points="283.97,-30.5 293.97,-27 283.97,-23.5 283.97,-30.5"/>
</g>
</g>
</svg>
