<?xml version="1.0" encoding="UTF-8" standalone="no"?>
<!DOCTYPE svg PUBLIC "-//W3C//DTD SVG 1.1//EN"
 "http://www.w3.org/Graphics/SVG/1.1/DTD/svg11.dtd">
<!-- Generated by graphviz version 2.43.0 (0)
 -->
<!-- Title: imported_1688044892.405959 Pages: 1 -->
<svg width="755pt" height="134pt"
 viewBox="0.00 0.00 755.00 134.00" xmlns="http://www.w3.org/2000/svg" xmlns:xlink="http://www.w3.org/1999/xlink">
<g id="graph0" class="graph" transform="scale(1 1) rotate(0) translate(4 130)">
<title>imported_1688044892.405959</title>
<polygon fill="white" stroke="transparent" points="-4,4 -4,-130 751,-130 751,4 -4,4"/>
<!-- 140468994136528 -->
<g id="node1" class="node">
<title>140468994136528</title>
<polygon fill="white" stroke="black" points="420,-45 252,-45 252,-9 420,-9 420,-45"/>
<text text-anchor="middle" x="336" y="-23.9" font-family="Times,serif" font-size="12.00">Insert Date Appeal to Prefecture</text>
</g>
<!-- 140468994136480 -->
<g id="node7" class="node">
<title>140468994136480</title>
<ellipse fill="white" stroke="black" cx="483" cy="-27" rx="27" ry="27"/>
</g>
<!-- 140468994136528&#45;&gt;140468994136480 -->
<g id="edge4" class="edge">
<title>140468994136528&#45;&gt;140468994136480</title>
<path fill="none" stroke="black" d="M420.09,-27C428.96,-27 437.62,-27 445.51,-27"/>
<polygon fill="black" stroke="black" points="445.75,-30.5 455.75,-27 445.75,-23.5 445.75,-30.5"/>
</g>
<!-- 140468994136336 -->
<g id="node2" class="node">
<title>140468994136336</title>
<polygon fill="white" stroke="black" points="747,-81 546,-81 546,-45 747,-45 747,-81"/>
<text text-anchor="middle" x="646.5" y="-59.9" font-family="Times,serif" font-size="12.00">Receive Result Appeal from Prefecture</text>
</g>
<!-- 140468994136096 -->
<g id="node3" class="node">
<title>140468994136096</title>
<polygon fill="white" stroke="black" points="406,-117 266,-117 266,-81 406,-81 406,-117"/>
<text text-anchor="middle" x="336" y="-95.9" font-family="Times,serif" font-size="12.00">Send Appeal to Prefecture</text>
</g>
<!-- 140468994136288 -->
<g id="node6" class="node">
<title>140468994136288</title>
<ellipse fill="white" stroke="black" cx="483" cy="-99" rx="27" ry="27"/>
</g>
<!-- 140468994136096&#45;&gt;140468994136288 -->
<g id="edge5" class="edge">
<title>140468994136096&#45;&gt;140468994136288</title>
<path fill="none" stroke="black" d="M406.1,-99C419.76,-99 433.57,-99 445.6,-99"/>
<polygon fill="black" stroke="black" points="445.67,-102.5 455.67,-99 445.67,-95.5 445.67,-102.5"/>
</g>
<!-- 140468994136000 -->
<g id="node4" class="node">
<title>140468994136000</title>
<polygon fill="white" stroke="black" points="126,-45 0,-45 0,-9 126,-9 126,-45"/>
<text text-anchor="middle" x="63" y="-23.9" font-family="Times,serif" font-size="12.00">Insert Fine Notification</text>
</g>
<!-- 140468994136048 -->
<g id="node5" class="node">
<title>140468994136048</title>
<ellipse fill="white" stroke="black" cx="189" cy="-27" rx="27" ry="27"/>
</g>
<!-- 140468994136000&#45;&gt;140468994136048 -->
<g id="edge6" class="edge">
<title>140468994136000&#45;&gt;140468994136048</title>
<path fill="none" stroke="black" d="M126.36,-27C135.09,-27 143.8,-27 151.81,-27"/>
<polygon fill="black" stroke="black" points="151.88,-30.5 161.88,-27 151.88,-23.5 151.88,-30.5"/>
</g>
<!-- 140468994136048&#45;&gt;140468994136528 -->
<g id="edge1" class="edge">
<title>140468994136048&#45;&gt;140468994136528</title>
<path fill="none" stroke="black" d="M216.26,-27C223.81,-27 232.51,-27 241.7,-27"/>
<polygon fill="black" stroke="black" points="241.83,-30.5 251.83,-27 241.83,-23.5 241.83,-30.5"/>
</g>
<!-- 140468994136288&#45;&gt;140468994136336 -->
<g id="edge2" class="edge">
<title>140468994136288&#45;&gt;140468994136336</title>
<path fill="none" stroke="black" d="M509.59,-93.3C522.16,-90.49 538.13,-86.93 554.69,-83.24"/>
<polygon fill="black" stroke="black" points="555.48,-86.65 564.48,-81.06 553.95,-79.82 555.48,-86.65"/>
</g>
<!-- 140468994136480&#45;&gt;140468994136336 -->
<g id="edge3" class="edge">
<title>140468994136480&#45;&gt;140468994136336</title>
<path fill="none" stroke="black" d="M509.59,-32.7C522.16,-35.51 538.13,-39.07 554.69,-42.76"/>
<polygon fill="black" stroke="black" points="553.95,-46.18 564.48,-44.94 555.48,-39.35 553.95,-46.18"/>
</g>
</g>
</svg>
