<?xml version="1.0" encoding="UTF-8" standalone="no"?>
<!DOCTYPE svg PUBLIC "-//W3C//DTD SVG 1.1//EN"
 "http://www.w3.org/Graphics/SVG/1.1/DTD/svg11.dtd">
<!-- Generated by graphviz version 3.0.0 (20220226.1711)
 -->
<!-- Title: imported_1686809888.0623255 Pages: 1 -->
<svg width="422pt" height="134pt"
 viewBox="0.00 0.00 422.00 134.00" xmlns="http://www.w3.org/2000/svg" xmlns:xlink="http://www.w3.org/1999/xlink">
<g id="graph0" class="graph" transform="scale(1 1) rotate(0) translate(4 130)">
<title>imported_1686809888.0623255</title>
<polygon fill="white" stroke="transparent" points="-4,4 -4,-130 418,-130 418,4 -4,4"/>
<!-- 2309364394976 -->
<g id="node1" class="node">
<title>2309364394976</title>
<polygon fill="white" stroke="black" points="234,-45 180,-45 180,-9 234,-9 234,-45"/>
<text text-anchor="middle" x="207" y="-23.9" font-family="Times New Roman,serif" font-size="12.00">a</text>
</g>
<!-- 2309364392864 -->
<g id="node5" class="node">
<title>2309364392864</title>
<ellipse fill="white" stroke="black" cx="297" cy="-27" rx="27" ry="27"/>
</g>
<!-- 2309364394976&#45;&gt;2309364392864 -->
<g id="edge4" class="edge">
<title>2309364394976&#45;&gt;2309364392864</title>
<path fill="none" stroke="black" d="M234.4,-27C242.39,-27 251.31,-27 259.82,-27"/>
<polygon fill="black" stroke="black" points="259.92,-30.5 269.92,-27 259.92,-23.5 259.92,-30.5"/>
</g>
<!-- 2309364392000 -->
<g id="node2" class="node">
<title>2309364392000</title>
<polygon fill="white" stroke="black" points="234,-117 180,-117 180,-81 234,-81 234,-117"/>
<text text-anchor="middle" x="207" y="-95.9" font-family="Times New Roman,serif" font-size="12.00">j</text>
</g>
<!-- 2309364393584 -->
<g id="node3" class="node">
<title>2309364393584</title>
<polygon fill="white" stroke="black" points="54,-81 0,-81 0,-45 54,-45 54,-81"/>
<text text-anchor="middle" x="27" y="-59.9" font-family="Times New Roman,serif" font-size="12.00">s</text>
</g>
<!-- 2309364395264 -->
<g id="node6" class="node">
<title>2309364395264</title>
<ellipse fill="white" stroke="black" cx="117" cy="-99" rx="27" ry="27"/>
</g>
<!-- 2309364393584&#45;&gt;2309364395264 -->
<g id="edge5" class="edge">
<title>2309364393584&#45;&gt;2309364395264</title>
<path fill="none" stroke="black" d="M54.4,-73.8C63.2,-77.4 73.11,-81.45 82.37,-85.24"/>
<polygon fill="black" stroke="black" points="81.14,-88.52 91.72,-89.07 83.79,-82.04 81.14,-88.52"/>
</g>
<!-- 2309364393440 -->
<g id="node7" class="node">
<title>2309364393440</title>
<ellipse fill="white" stroke="black" cx="117" cy="-27" rx="27" ry="27"/>
</g>
<!-- 2309364393584&#45;&gt;2309364393440 -->
<g id="edge6" class="edge">
<title>2309364393584&#45;&gt;2309364393440</title>
<path fill="none" stroke="black" d="M54.4,-52.2C63.2,-48.6 73.11,-44.55 82.37,-40.76"/>
<polygon fill="black" stroke="black" points="83.79,-43.96 91.72,-36.93 81.14,-37.48 83.79,-43.96"/>
</g>
<!-- 2309364392048 -->
<g id="node4" class="node">
<title>2309364392048</title>
<polygon fill="white" stroke="black" points="414,-45 360,-45 360,-9 414,-9 414,-45"/>
<text text-anchor="middle" x="387" y="-23.9" font-family="Times New Roman,serif" font-size="12.00">c</text>
</g>
<!-- 2309364392864&#45;&gt;2309364392048 -->
<g id="edge1" class="edge">
<title>2309364392864&#45;&gt;2309364392048</title>
<path fill="none" stroke="black" d="M324.4,-27C332.39,-27 341.31,-27 349.82,-27"/>
<polygon fill="black" stroke="black" points="349.92,-30.5 359.92,-27 349.92,-23.5 349.92,-30.5"/>
</g>
<!-- 2309364395264&#45;&gt;2309364392000 -->
<g id="edge2" class="edge">
<title>2309364395264&#45;&gt;2309364392000</title>
<path fill="none" stroke="black" d="M144.4,-99C152.39,-99 161.31,-99 169.82,-99"/>
<polygon fill="black" stroke="black" points="169.92,-102.5 179.92,-99 169.92,-95.5 169.92,-102.5"/>
</g>
<!-- 2309364393440&#45;&gt;2309364394976 -->
<g id="edge3" class="edge">
<title>2309364393440&#45;&gt;2309364394976</title>
<path fill="none" stroke="black" d="M144.4,-27C152.39,-27 161.31,-27 169.82,-27"/>
<polygon fill="black" stroke="black" points="169.92,-30.5 179.92,-27 169.92,-23.5 169.92,-30.5"/>
</g>
</g>
</svg>
