<?xml version="1.0" encoding="UTF-8" standalone="no"?>
<!DOCTYPE svg PUBLIC "-//W3C//DTD SVG 1.1//EN"
 "http://www.w3.org/Graphics/SVG/1.1/DTD/svg11.dtd">
<!-- Generated by graphviz version 3.0.0 (20220226.1711)
 -->
<!-- Title: imported_1686809886.4321718 Pages: 1 -->
<svg width="602pt" height="123pt"
 viewBox="0.00 0.00 602.00 123.00" xmlns="http://www.w3.org/2000/svg" xmlns:xlink="http://www.w3.org/1999/xlink">
<g id="graph0" class="graph" transform="scale(1 1) rotate(0) translate(4 119)">
<title>imported_1686809886.4321718</title>
<polygon fill="white" stroke="transparent" points="-4,4 -4,-119 598,-119 598,4 -4,4"/>
<!-- 2309364347952 -->
<g id="node1" class="node">
<title>2309364347952</title>
<polygon fill="white" stroke="black" points="234,-76 180,-76 180,-40 234,-40 234,-76"/>
<text text-anchor="middle" x="207" y="-54.9" font-family="Times New Roman,serif" font-size="12.00">b</text>
</g>
<!-- 2309364347808 -->
<g id="node6" class="node">
<title>2309364347808</title>
<ellipse fill="white" stroke="black" cx="297" cy="-88" rx="27" ry="27"/>
</g>
<!-- 2309364347952&#45;&gt;2309364347808 -->
<g id="edge5" class="edge">
<title>2309364347952&#45;&gt;2309364347808</title>
<path fill="none" stroke="black" d="M234.4,-67C242.95,-69.92 252.57,-73.19 261.61,-76.28"/>
<polygon fill="black" stroke="black" points="260.53,-79.61 271.12,-79.52 262.79,-72.98 260.53,-79.61"/>
</g>
<!-- 2309364349440 -->
<g id="node8" class="node">
<title>2309364349440</title>
<ellipse fill="white" stroke="black" cx="387" cy="-27" rx="27" ry="27"/>
</g>
<!-- 2309364347952&#45;&gt;2309364349440 -->
<g id="edge6" class="edge">
<title>2309364347952&#45;&gt;2309364349440</title>
<path fill="none" stroke="black" d="M234.26,-53.43C264.94,-48.08 315.84,-39.22 350.14,-33.25"/>
<polygon fill="black" stroke="black" points="350.96,-36.66 360.21,-31.49 349.75,-29.76 350.96,-36.66"/>
</g>
<!-- 2309364348720 -->
<g id="node2" class="node">
<title>2309364348720</title>
<polygon fill="white" stroke="black" points="54,-76 0,-76 0,-40 54,-40 54,-76"/>
<text text-anchor="middle" x="27" y="-54.9" font-family="Times New Roman,serif" font-size="12.00">s</text>
</g>
<!-- 2309364349536 -->
<g id="node5" class="node">
<title>2309364349536</title>
<ellipse fill="white" stroke="black" cx="117" cy="-58" rx="27" ry="27"/>
</g>
<!-- 2309364348720&#45;&gt;2309364349536 -->
<g id="edge7" class="edge">
<title>2309364348720&#45;&gt;2309364349536</title>
<path fill="none" stroke="black" d="M54.4,-58C62.39,-58 71.31,-58 79.82,-58"/>
<polygon fill="black" stroke="black" points="79.92,-61.5 89.92,-58 79.92,-54.5 79.92,-61.5"/>
</g>
<!-- 2309364350304 -->
<g id="node3" class="node">
<title>2309364350304</title>
<polygon fill="white" stroke="black" points="594,-76 540,-76 540,-40 594,-40 594,-76"/>
<text text-anchor="middle" x="567" y="-54.9" font-family="Times New Roman,serif" font-size="12.00">k</text>
</g>
<!-- 2309364349104 -->
<g id="node4" class="node">
<title>2309364349104</title>
<polygon fill="white" stroke="black" points="414,-108 360,-108 360,-72 414,-72 414,-108"/>
<text text-anchor="middle" x="387" y="-86.9" font-family="Times New Roman,serif" font-size="12.00">d</text>
</g>
<!-- 2309364348912 -->
<g id="node7" class="node">
<title>2309364348912</title>
<ellipse fill="white" stroke="black" cx="477" cy="-88" rx="27" ry="27"/>
</g>
<!-- 2309364349104&#45;&gt;2309364348912 -->
<g id="edge8" class="edge">
<title>2309364349104&#45;&gt;2309364348912</title>
<path fill="none" stroke="black" d="M414.4,-89.4C422.39,-89.22 431.31,-89.02 439.82,-88.82"/>
<polygon fill="black" stroke="black" points="440,-92.32 449.92,-88.59 439.84,-85.32 440,-92.32"/>
</g>
<!-- 2309364349536&#45;&gt;2309364347952 -->
<g id="edge1" class="edge">
<title>2309364349536&#45;&gt;2309364347952</title>
<path fill="none" stroke="black" d="M144.4,-58C152.39,-58 161.31,-58 169.82,-58"/>
<polygon fill="black" stroke="black" points="169.92,-61.5 179.92,-58 169.92,-54.5 169.92,-61.5"/>
</g>
<!-- 2309364347808&#45;&gt;2309364349104 -->
<g id="edge2" class="edge">
<title>2309364347808&#45;&gt;2309364349104</title>
<path fill="none" stroke="black" d="M324.4,-88.6C332.39,-88.78 341.31,-88.98 349.82,-89.18"/>
<polygon fill="black" stroke="black" points="349.84,-92.68 359.92,-89.41 350,-85.68 349.84,-92.68"/>
</g>
<!-- 2309364348912&#45;&gt;2309364350304 -->
<g id="edge3" class="edge">
<title>2309364348912&#45;&gt;2309364350304</title>
<path fill="none" stroke="black" d="M502.98,-79.48C511.42,-76.61 521,-73.34 530.11,-70.23"/>
<polygon fill="black" stroke="black" points="531.39,-73.5 539.73,-66.96 529.13,-66.87 531.39,-73.5"/>
</g>
<!-- 2309364349440&#45;&gt;2309364350304 -->
<g id="edge4" class="edge">
<title>2309364349440&#45;&gt;2309364350304</title>
<path fill="none" stroke="black" d="M413.88,-31.51C444.38,-36.82 495.25,-45.68 529.68,-51.67"/>
<polygon fill="black" stroke="black" points="529.34,-55.17 539.8,-53.44 530.54,-48.27 529.34,-55.17"/>
</g>
</g>
</svg>
