<?xml version="1.0" encoding="UTF-8" standalone="no"?>
<!DOCTYPE svg PUBLIC "-//W3C//DTD SVG 1.1//EN"
 "http://www.w3.org/Graphics/SVG/1.1/DTD/svg11.dtd">
<!-- Generated by graphviz version 2.43.0 (0)
 -->
<!-- Title: imported_1688044892.8828828 Pages: 1 -->
<svg width="1322pt" height="121pt"
 viewBox="0.00 0.00 1322.00 121.00" xmlns="http://www.w3.org/2000/svg" xmlns:xlink="http://www.w3.org/1999/xlink">
<g id="graph0" class="graph" transform="scale(1 1) rotate(0) translate(4 117)">
<title>imported_1688044892.8828828</title>
<polygon fill="white" stroke="transparent" points="-4,4 -4,-117 1318,-117 1318,4 -4,4"/>
<!-- 140465201748576 -->
<g id="node1" class="node">
<title>140465201748576</title>
<polygon fill="white" stroke="black" points="126,-72 0,-72 0,-36 126,-36 126,-72"/>
<text text-anchor="middle" x="63" y="-50.9" font-family="Times,serif" font-size="12.00">Insert Fine Notification</text>
</g>
<!-- 140464257980064 -->
<g id="node6" class="node">
<title>140464257980064</title>
<ellipse fill="white" stroke="black" cx="189" cy="-54" rx="27" ry="27"/>
</g>
<!-- 140465201748576&#45;&gt;140464257980064 -->
<g id="edge2" class="edge">
<title>140465201748576&#45;&gt;140464257980064</title>
<path fill="none" stroke="black" d="M126.36,-54C135.09,-54 143.8,-54 151.81,-54"/>
<polygon fill="black" stroke="black" points="151.88,-57.5 161.88,-54 151.88,-50.5 151.88,-57.5"/>
</g>
<!-- 140465201748192 -->
<g id="node2" class="node">
<title>140465201748192</title>
<polygon fill="white" stroke="black" points="1314,-75 1139,-75 1139,-39 1314,-39 1314,-75"/>
<text text-anchor="middle" x="1226.5" y="-53.9" font-family="Times,serif" font-size="12.00">Notify Result Appeal to Offender</text>
</g>
<!-- 140465201747856 -->
<g id="node3" class="node">
<title>140465201747856</title>
<polygon fill="white" stroke="black" points="420,-72 252,-72 252,-36 420,-36 420,-72"/>
<text text-anchor="middle" x="336" y="-50.9" font-family="Times,serif" font-size="12.00">Insert Date Appeal to Prefecture</text>
</g>
<!-- 140465201748672 -->
<g id="node9" class="node">
<title>140465201748672</title>
<ellipse fill="white" stroke="black" cx="616" cy="-86" rx="27" ry="27"/>
</g>
<!-- 140465201747856&#45;&gt;140465201748672 -->
<g id="edge7" class="edge">
<title>140465201747856&#45;&gt;140465201748672</title>
<path fill="none" stroke="black" d="M420.03,-63.56C472.91,-69.64 538.75,-77.22 578.79,-81.83"/>
<polygon fill="black" stroke="black" points="578.55,-85.33 588.88,-82.99 579.35,-78.37 578.55,-85.33"/>
</g>
<!-- 140465201749440 -->
<g id="node10" class="node">
<title>140465201749440</title>
<ellipse fill="white" stroke="black" cx="483" cy="-27" rx="27" ry="27"/>
</g>
<!-- 140465201747856&#45;&gt;140465201749440 -->
<g id="edge8" class="edge">
<title>140465201747856&#45;&gt;140465201749440</title>
<path fill="none" stroke="black" d="M420.09,-38.53C429.34,-36.81 438.36,-35.13 446.52,-33.61"/>
<polygon fill="black" stroke="black" points="447.17,-37.05 456.36,-31.77 445.89,-30.16 447.17,-37.05"/>
</g>
<!-- 140465201749488 -->
<g id="node4" class="node">
<title>140465201749488</title>
<polygon fill="white" stroke="black" points="686,-41 546,-41 546,-5 686,-5 686,-41"/>
<text text-anchor="middle" x="616" y="-19.9" font-family="Times,serif" font-size="12.00">Send Appeal to Prefecture</text>
</g>
<!-- 140464257981408 -->
<g id="node7" class="node">
<title>140464257981408</title>
<ellipse fill="white" stroke="black" cx="749" cy="-27" rx="27" ry="27"/>
</g>
<!-- 140465201749488&#45;&gt;140464257981408 -->
<g id="edge10" class="edge">
<title>140465201749488&#45;&gt;140464257981408</title>
<path fill="none" stroke="black" d="M686.34,-25.12C695.13,-25.39 703.82,-25.65 711.79,-25.89"/>
<polygon fill="black" stroke="black" points="711.7,-29.39 721.8,-26.2 711.91,-22.4 711.7,-29.39"/>
</g>
<!-- 140465201746416 -->
<g id="node5" class="node">
<title>140465201746416</title>
<polygon fill="white" stroke="black" points="1013,-47 812,-47 812,-11 1013,-11 1013,-47"/>
<text text-anchor="middle" x="912.5" y="-25.9" font-family="Times,serif" font-size="12.00">Receive Result Appeal from Prefecture</text>
</g>
<!-- 140464257981216 -->
<g id="node8" class="node">
<title>140464257981216</title>
<ellipse fill="white" stroke="black" cx="1076" cy="-30" rx="27" ry="27"/>
</g>
<!-- 140465201746416&#45;&gt;140464257981216 -->
<g id="edge9" class="edge">
<title>140465201746416&#45;&gt;140464257981216</title>
<path fill="none" stroke="black" d="M1013.02,-29.62C1022.04,-29.67 1030.72,-29.73 1038.59,-29.77"/>
<polygon fill="black" stroke="black" points="1038.75,-33.28 1048.77,-29.84 1038.79,-26.28 1038.75,-33.28"/>
</g>
<!-- 140464257980064&#45;&gt;140465201747856 -->
<g id="edge1" class="edge">
<title>140464257980064&#45;&gt;140465201747856</title>
<path fill="none" stroke="black" d="M216.26,-54C223.81,-54 232.51,-54 241.7,-54"/>
<polygon fill="black" stroke="black" points="241.83,-57.5 251.83,-54 241.83,-50.5 241.83,-57.5"/>
</g>
<!-- 140464257981408&#45;&gt;140465201746416 -->
<g id="edge3" class="edge">
<title>140464257981408&#45;&gt;140465201746416</title>
<path fill="none" stroke="black" d="M776.31,-27.33C783.79,-27.42 792.44,-27.53 801.68,-27.64"/>
<polygon fill="black" stroke="black" points="801.86,-31.14 811.9,-27.77 801.94,-24.14 801.86,-31.14"/>
</g>
<!-- 140464257981216&#45;&gt;140465201748192 -->
<g id="edge4" class="edge">
<title>140464257981216&#45;&gt;140465201748192</title>
<path fill="none" stroke="black" d="M1102.87,-34.7C1110.51,-36.09 1119.37,-37.7 1128.77,-39.41"/>
<polygon fill="black" stroke="black" points="1128.25,-42.88 1138.71,-41.22 1129.5,-35.99 1128.25,-42.88"/>
</g>
<!-- 140465201748672&#45;&gt;140465201748192 -->
<g id="edge5" class="edge">
<title>140465201748672&#45;&gt;140465201748192</title>
<path fill="none" stroke="black" d="M643.09,-85.22C715.9,-82.99 927.43,-76.06 1103,-66 1111.34,-65.52 1120,-64.98 1128.67,-64.4"/>
<polygon fill="black" stroke="black" points="1129.12,-67.88 1138.86,-63.71 1128.64,-60.9 1129.12,-67.88"/>
</g>
<!-- 140465201749440&#45;&gt;140465201749488 -->
<g id="edge6" class="edge">
<title>140465201749440&#45;&gt;140465201749488</title>
<path fill="none" stroke="black" d="M510.19,-26.2C517.87,-25.97 526.69,-25.7 535.89,-25.42"/>
<polygon fill="black" stroke="black" points="536.08,-28.91 545.97,-25.11 535.87,-21.91 536.08,-28.91"/>
</g>
</g>
</svg>
