<?xml version="1.0" encoding="UTF-8" standalone="no"?>
<!DOCTYPE svg PUBLIC "-//W3C//DTD SVG 1.1//EN"
 "http://www.w3.org/Graphics/SVG/1.1/DTD/svg11.dtd">
<!-- Generated by graphviz version 2.43.0 (0)
 -->
<!-- Title: imported_1688044906.6829436 Pages: 1 -->
<svg width="659pt" height="134pt"
 viewBox="0.00 0.00 659.00 134.00" xmlns="http://www.w3.org/2000/svg" xmlns:xlink="http://www.w3.org/1999/xlink">
<g id="graph0" class="graph" transform="scale(1 1) rotate(0) translate(4 130)">
<title>imported_1688044906.6829436</title>
<polygon fill="white" stroke="transparent" points="-4,4 -4,-130 655,-130 655,4 -4,4"/>
<!-- 140468994102128 -->
<g id="node1" class="node">
<title>140468994102128</title>
<polygon fill="white" stroke="black" points="651,-81 593,-81 593,-45 651,-45 651,-81"/>
<text text-anchor="middle" x="622" y="-59.9" font-family="Times,serif" font-size="12.00">Payment</text>
</g>
<!-- 140468994102800 -->
<g id="node2" class="node">
<title>140468994102800</title>
<polygon fill="white" stroke="black" points="467,-117 266,-117 266,-81 467,-81 467,-117"/>
<text text-anchor="middle" x="366.5" y="-95.9" font-family="Times,serif" font-size="12.00">Receive Result Appeal from Prefecture</text>
</g>
<!-- 140468994104288 -->
<g id="node6" class="node">
<title>140468994104288</title>
<ellipse fill="white" stroke="black" cx="530" cy="-99" rx="27" ry="27"/>
</g>
<!-- 140468994102800&#45;&gt;140468994104288 -->
<g id="edge4" class="edge">
<title>140468994102800&#45;&gt;140468994104288</title>
<path fill="none" stroke="black" d="M467.02,-99C476.04,-99 484.72,-99 492.59,-99"/>
<polygon fill="black" stroke="black" points="492.77,-102.5 502.77,-99 492.77,-95.5 492.77,-102.5"/>
</g>
<!-- 140468994103952 -->
<g id="node3" class="node">
<title>140468994103952</title>
<polygon fill="white" stroke="black" points="140,-117 0,-117 0,-81 140,-81 140,-117"/>
<text text-anchor="middle" x="70" y="-95.9" font-family="Times,serif" font-size="12.00">Send Appeal to Prefecture</text>
</g>
<!-- 140468994102656 -->
<g id="node5" class="node">
<title>140468994102656</title>
<ellipse fill="white" stroke="black" cx="203" cy="-99" rx="27" ry="27"/>
</g>
<!-- 140468994103952&#45;&gt;140468994102656 -->
<g id="edge6" class="edge">
<title>140468994103952&#45;&gt;140468994102656</title>
<path fill="none" stroke="black" d="M140.34,-99C149.13,-99 157.82,-99 165.79,-99"/>
<polygon fill="black" stroke="black" points="165.8,-102.5 175.8,-99 165.8,-95.5 165.8,-102.5"/>
</g>
<!-- 140468994104240 -->
<g id="node4" class="node">
<title>140468994104240</title>
<polygon fill="white" stroke="black" points="454,-45 279,-45 279,-9 454,-9 454,-45"/>
<text text-anchor="middle" x="366.5" y="-23.9" font-family="Times,serif" font-size="12.00">Notify Result Appeal to Offender</text>
</g>
<!-- 140468994102512 -->
<g id="node7" class="node">
<title>140468994102512</title>
<ellipse fill="white" stroke="black" cx="530" cy="-27" rx="27" ry="27"/>
</g>
<!-- 140468994104240&#45;&gt;140468994102512 -->
<g id="edge5" class="edge">
<title>140468994104240&#45;&gt;140468994102512</title>
<path fill="none" stroke="black" d="M454.4,-27C467.89,-27 481.15,-27 492.66,-27"/>
<polygon fill="black" stroke="black" points="492.7,-30.5 502.7,-27 492.7,-23.5 492.7,-30.5"/>
</g>
<!-- 140468994102656&#45;&gt;140468994102800 -->
<g id="edge1" class="edge">
<title>140468994102656&#45;&gt;140468994102800</title>
<path fill="none" stroke="black" d="M230.31,-99C237.79,-99 246.44,-99 255.68,-99"/>
<polygon fill="black" stroke="black" points="255.9,-102.5 265.9,-99 255.9,-95.5 255.9,-102.5"/>
</g>
<!-- 140468994104288&#45;&gt;140468994102128 -->
<g id="edge2" class="edge">
<title>140468994104288&#45;&gt;140468994102128</title>
<path fill="none" stroke="black" d="M555.59,-89.16C564.17,-85.73 574,-81.8 583.39,-78.05"/>
<polygon fill="black" stroke="black" points="584.95,-81.19 592.94,-74.22 582.36,-74.69 584.95,-81.19"/>
</g>
<!-- 140468994102512&#45;&gt;140468994102128 -->
<g id="edge3" class="edge">
<title>140468994102512&#45;&gt;140468994102128</title>
<path fill="none" stroke="black" d="M555.59,-36.84C564.17,-40.27 574,-44.2 583.39,-47.95"/>
<polygon fill="black" stroke="black" points="582.36,-51.31 592.94,-51.78 584.95,-44.81 582.36,-51.31"/>
</g>
</g>
</svg>
