<?xml version="1.0" encoding="UTF-8" standalone="no"?>
<!DOCTYPE svg PUBLIC "-//W3C//DTD SVG 1.1//EN"
 "http://www.w3.org/Graphics/SVG/1.1/DTD/svg11.dtd">
<!-- Generated by graphviz version 2.43.0 (0)
 -->
<!-- Title: imported_1688044912.3321116 Pages: 1 -->
<svg width="1056pt" height="134pt"
 viewBox="0.00 0.00 1056.00 134.00" xmlns="http://www.w3.org/2000/svg" xmlns:xlink="http://www.w3.org/1999/xlink">
<g id="graph0" class="graph" transform="scale(1 1) rotate(0) translate(4 130)">
<title>imported_1688044912.3321116</title>
<polygon fill="white" stroke="transparent" points="-4,4 -4,-130 1052,-130 1052,4 -4,4"/>
<!-- 140468994172672 -->
<g id="node1" class="node">
<title>140468994172672</title>
<polygon fill="white" stroke="black" points="420,-81 252,-81 252,-45 420,-45 420,-81"/>
<text text-anchor="middle" x="336" y="-59.9" font-family="Times,serif" font-size="12.00">Insert Date Appeal to Prefecture</text>
</g>
<!-- 140468994170992 -->
<g id="node8" class="node">
<title>140468994170992</title>
<ellipse fill="white" stroke="black" cx="483" cy="-99" rx="27" ry="27"/>
</g>
<!-- 140468994172672&#45;&gt;140468994170992 -->
<g id="edge5" class="edge">
<title>140468994172672&#45;&gt;140468994170992</title>
<path fill="none" stroke="black" d="M409.92,-81.11C422.78,-84.3 435.61,-87.48 446.81,-90.26"/>
<polygon fill="black" stroke="black" points="446.04,-93.68 456.59,-92.69 447.73,-86.88 446.04,-93.68"/>
</g>
<!-- 140468994171520 -->
<g id="node9" class="node">
<title>140468994171520</title>
<ellipse fill="white" stroke="black" cx="483" cy="-27" rx="27" ry="27"/>
</g>
<!-- 140468994172672&#45;&gt;140468994171520 -->
<g id="edge6" class="edge">
<title>140468994172672&#45;&gt;140468994171520</title>
<path fill="none" stroke="black" d="M409.92,-44.89C422.78,-41.7 435.61,-38.52 446.81,-35.74"/>
<polygon fill="black" stroke="black" points="447.73,-39.12 456.59,-33.31 446.04,-32.32 447.73,-39.12"/>
</g>
<!-- 140468994171424 -->
<g id="node2" class="node">
<title>140468994171424</title>
<polygon fill="white" stroke="black" points="126,-81 0,-81 0,-45 126,-45 126,-81"/>
<text text-anchor="middle" x="63" y="-59.9" font-family="Times,serif" font-size="12.00">Insert Fine Notification</text>
</g>
<!-- 140468994103424 -->
<g id="node6" class="node">
<title>140468994103424</title>
<ellipse fill="white" stroke="black" cx="189" cy="-63" rx="27" ry="27"/>
</g>
<!-- 140468994171424&#45;&gt;140468994103424 -->
<g id="edge8" class="edge">
<title>140468994171424&#45;&gt;140468994103424</title>
<path fill="none" stroke="black" d="M126.36,-63C135.09,-63 143.8,-63 151.81,-63"/>
<polygon fill="black" stroke="black" points="151.88,-66.5 161.88,-63 151.88,-59.5 151.88,-66.5"/>
</g>
<!-- 140468994173920 -->
<g id="node3" class="node">
<title>140468994173920</title>
<polygon fill="white" stroke="black" points="716.5,-117 576.5,-117 576.5,-81 716.5,-81 716.5,-117"/>
<text text-anchor="middle" x="646.5" y="-95.9" font-family="Times,serif" font-size="12.00">Send Appeal to Prefecture</text>
</g>
<!-- 140468994172576 -->
<g id="node4" class="node">
<title>140468994172576</title>
<polygon fill="white" stroke="black" points="1048,-45 873,-45 873,-9 1048,-9 1048,-45"/>
<text text-anchor="middle" x="960.5" y="-23.9" font-family="Times,serif" font-size="12.00">Notify Result Appeal to Offender</text>
</g>
<!-- 140468994171376 -->
<g id="node5" class="node">
<title>140468994171376</title>
<polygon fill="white" stroke="black" points="747,-45 546,-45 546,-9 747,-9 747,-45"/>
<text text-anchor="middle" x="646.5" y="-23.9" font-family="Times,serif" font-size="12.00">Receive Result Appeal from Prefecture</text>
</g>
<!-- 140468994171568 -->
<g id="node7" class="node">
<title>140468994171568</title>
<ellipse fill="white" stroke="black" cx="810" cy="-27" rx="27" ry="27"/>
</g>
<!-- 140468994171376&#45;&gt;140468994171568 -->
<g id="edge7" class="edge">
<title>140468994171376&#45;&gt;140468994171568</title>
<path fill="none" stroke="black" d="M747.02,-27C756.04,-27 764.72,-27 772.59,-27"/>
<polygon fill="black" stroke="black" points="772.77,-30.5 782.77,-27 772.77,-23.5 772.77,-30.5"/>
</g>
<!-- 140468994103424&#45;&gt;140468994172672 -->
<g id="edge1" class="edge">
<title>140468994103424&#45;&gt;140468994172672</title>
<path fill="none" stroke="black" d="M216.26,-63C223.81,-63 232.51,-63 241.7,-63"/>
<polygon fill="black" stroke="black" points="241.83,-66.5 251.83,-63 241.83,-59.5 241.83,-66.5"/>
</g>
<!-- 140468994171568&#45;&gt;140468994172576 -->
<g id="edge2" class="edge">
<title>140468994171568&#45;&gt;140468994172576</title>
<path fill="none" stroke="black" d="M837.21,-27C844.73,-27 853.4,-27 862.59,-27"/>
<polygon fill="black" stroke="black" points="862.73,-30.5 872.73,-27 862.72,-23.5 862.73,-30.5"/>
</g>
<!-- 140468994170992&#45;&gt;140468994173920 -->
<g id="edge3" class="edge">
<title>140468994170992&#45;&gt;140468994173920</title>
<path fill="none" stroke="black" d="M510.31,-99C525.68,-99 545.97,-99 566.15,-99"/>
<polygon fill="black" stroke="black" points="566.34,-102.5 576.34,-99 566.34,-95.5 566.34,-102.5"/>
</g>
<!-- 140468994171520&#45;&gt;140468994171376 -->
<g id="edge4" class="edge">
<title>140468994171520&#45;&gt;140468994171376</title>
<path fill="none" stroke="black" d="M510.31,-27C517.79,-27 526.44,-27 535.68,-27"/>
<polygon fill="black" stroke="black" points="535.9,-30.5 545.9,-27 535.9,-23.5 535.9,-30.5"/>
</g>
</g>
</svg>
