<?xml version="1.0" encoding="UTF-8" standalone="no"?>
<!DOCTYPE svg PUBLIC "-//W3C//DTD SVG 1.1//EN"
 "http://www.w3.org/Graphics/SVG/1.1/DTD/svg11.dtd">
<!-- Generated by graphviz version 2.43.0 (0)
 -->
<!-- Title: imported_1688044908.1961608 Pages: 1 -->
<svg width="687pt" height="134pt"
 viewBox="0.00 0.00 687.00 134.00" xmlns="http://www.w3.org/2000/svg" xmlns:xlink="http://www.w3.org/1999/xlink">
<g id="graph0" class="graph" transform="scale(1 1) rotate(0) translate(4 130)">
<title>imported_1688044908.1961608</title>
<polygon fill="white" stroke="transparent" points="-4,4 -4,-130 683,-130 683,4 -4,4"/>
<!-- 140468994190112 -->
<g id="node1" class="node">
<title>140468994190112</title>
<polygon fill="white" stroke="black" points="679,-117 621,-117 621,-81 679,-81 679,-117"/>
<text text-anchor="middle" x="650" y="-95.9" font-family="Times,serif" font-size="12.00">Payment</text>
</g>
<!-- 140468994190256 -->
<g id="node2" class="node">
<title>140468994190256</title>
<polygon fill="white" stroke="black" points="495,-45 294,-45 294,-9 495,-9 495,-45"/>
<text text-anchor="middle" x="394.5" y="-23.9" font-family="Times,serif" font-size="12.00">Receive Result Appeal from Prefecture</text>
</g>
<!-- 140468994190160 -->
<g id="node3" class="node">
<title>140468994190160</title>
<polygon fill="white" stroke="black" points="464.5,-117 324.5,-117 324.5,-81 464.5,-81 464.5,-117"/>
<text text-anchor="middle" x="394.5" y="-95.9" font-family="Times,serif" font-size="12.00">Send Appeal to Prefecture</text>
</g>
<!-- 140469013576960 -->
<g id="node5" class="node">
<title>140469013576960</title>
<ellipse fill="white" stroke="black" cx="558" cy="-99" rx="27" ry="27"/>
</g>
<!-- 140468994190160&#45;&gt;140469013576960 -->
<g id="edge6" class="edge">
<title>140468994190160&#45;&gt;140469013576960</title>
<path fill="none" stroke="black" d="M464.93,-99C484.14,-99 504.23,-99 520.72,-99"/>
<polygon fill="black" stroke="black" points="521,-102.5 531,-99 521,-95.5 521,-102.5"/>
</g>
<!-- 140468994190496 -->
<g id="node4" class="node">
<title>140468994190496</title>
<polygon fill="white" stroke="black" points="168,-81 0,-81 0,-45 168,-45 168,-81"/>
<text text-anchor="middle" x="84" y="-59.9" font-family="Times,serif" font-size="12.00">Insert Date Appeal to Prefecture</text>
</g>
<!-- 140468994190400 -->
<g id="node6" class="node">
<title>140468994190400</title>
<ellipse fill="white" stroke="black" cx="231" cy="-99" rx="27" ry="27"/>
</g>
<!-- 140468994190496&#45;&gt;140468994190400 -->
<g id="edge4" class="edge">
<title>140468994190496&#45;&gt;140468994190400</title>
<path fill="none" stroke="black" d="M157.92,-81.11C170.78,-84.3 183.61,-87.48 194.81,-90.26"/>
<polygon fill="black" stroke="black" points="194.04,-93.68 204.59,-92.69 195.73,-86.88 194.04,-93.68"/>
</g>
<!-- 140468994190736 -->
<g id="node7" class="node">
<title>140468994190736</title>
<ellipse fill="white" stroke="black" cx="231" cy="-27" rx="27" ry="27"/>
</g>
<!-- 140468994190496&#45;&gt;140468994190736 -->
<g id="edge5" class="edge">
<title>140468994190496&#45;&gt;140468994190736</title>
<path fill="none" stroke="black" d="M157.92,-44.89C170.78,-41.7 183.61,-38.52 194.81,-35.74"/>
<polygon fill="black" stroke="black" points="195.73,-39.12 204.59,-33.31 194.04,-32.32 195.73,-39.12"/>
</g>
<!-- 140469013576960&#45;&gt;140468994190112 -->
<g id="edge1" class="edge">
<title>140469013576960&#45;&gt;140468994190112</title>
<path fill="none" stroke="black" d="M585.03,-99C593,-99 601.95,-99 610.56,-99"/>
<polygon fill="black" stroke="black" points="610.82,-102.5 620.82,-99 610.82,-95.5 610.82,-102.5"/>
</g>
<!-- 140468994190400&#45;&gt;140468994190160 -->
<g id="edge2" class="edge">
<title>140468994190400&#45;&gt;140468994190160</title>
<path fill="none" stroke="black" d="M258.31,-99C273.68,-99 293.97,-99 314.15,-99"/>
<polygon fill="black" stroke="black" points="314.34,-102.5 324.34,-99 314.34,-95.5 314.34,-102.5"/>
</g>
<!-- 140468994190736&#45;&gt;140468994190256 -->
<g id="edge3" class="edge">
<title>140468994190736&#45;&gt;140468994190256</title>
<path fill="none" stroke="black" d="M258.31,-27C265.79,-27 274.44,-27 283.68,-27"/>
<polygon fill="black" stroke="black" points="283.9,-30.5 293.9,-27 283.9,-23.5 283.9,-30.5"/>
</g>
</g>
</svg>
