<?xml version="1.0" encoding="UTF-8" standalone="no"?>
<!DOCTYPE svg PUBLIC "-//W3C//DTD SVG 1.1//EN"
 "http://www.w3.org/Graphics/SVG/1.1/DTD/svg11.dtd">
<!-- Generated by graphviz version 2.43.0 (0)
 -->
<!-- Title: imported_1688044891.7194705 Pages: 1 -->
<svg width="1071pt" height="134pt"
 viewBox="0.00 0.00 1071.00 134.00" xmlns="http://www.w3.org/2000/svg" xmlns:xlink="http://www.w3.org/1999/xlink">
<g id="graph0" class="graph" transform="scale(1 1) rotate(0) translate(4 130)">
<title>imported_1688044891.7194705</title>
<polygon fill="white" stroke="transparent" points="-4,4 -4,-130 1067,-130 1067,4 -4,4"/>
<!-- 140465201687136 -->
<g id="node1" class="node">
<title>140465201687136</title>
<polygon fill="white" stroke="black" points="1063,-84 922,-84 922,-48 1063,-48 1063,-84"/>
<text text-anchor="middle" x="992.5" y="-62.9" font-family="Times,serif" font-size="12.00">Send for Credit Collection</text>
</g>
<!-- 140465201686320 -->
<g id="node2" class="node">
<title>140465201686320</title>
<polygon fill="white" stroke="black" points="168,-81 0,-81 0,-45 168,-45 168,-81"/>
<text text-anchor="middle" x="84" y="-59.9" font-family="Times,serif" font-size="12.00">Insert Date Appeal to Prefecture</text>
</g>
<!-- 140465201686416 -->
<g id="node8" class="node">
<title>140465201686416</title>
<ellipse fill="white" stroke="black" cx="231" cy="-99" rx="27" ry="27"/>
</g>
<!-- 140465201686320&#45;&gt;140465201686416 -->
<g id="edge6" class="edge">
<title>140465201686320&#45;&gt;140465201686416</title>
<path fill="none" stroke="black" d="M157.92,-81.11C170.78,-84.3 183.61,-87.48 194.81,-90.26"/>
<polygon fill="black" stroke="black" points="194.04,-93.68 204.59,-92.69 195.73,-86.88 194.04,-93.68"/>
</g>
<!-- 140465201686464 -->
<g id="node10" class="node">
<title>140465201686464</title>
<ellipse fill="white" stroke="black" cx="231" cy="-27" rx="27" ry="27"/>
</g>
<!-- 140465201686320&#45;&gt;140465201686464 -->
<g id="edge7" class="edge">
<title>140465201686320&#45;&gt;140465201686464</title>
<path fill="none" stroke="black" d="M157.92,-44.89C170.78,-41.7 183.61,-38.52 194.81,-35.74"/>
<polygon fill="black" stroke="black" points="195.73,-39.12 204.59,-33.31 194.04,-32.32 195.73,-39.12"/>
</g>
<!-- 140465201688336 -->
<g id="node3" class="node">
<title>140465201688336</title>
<polygon fill="white" stroke="black" points="796,-52 621,-52 621,-16 796,-16 796,-52"/>
<text text-anchor="middle" x="708.5" y="-30.9" font-family="Times,serif" font-size="12.00">Notify Result Appeal to Offender</text>
</g>
<!-- 140465201686944 -->
<g id="node9" class="node">
<title>140465201686944</title>
<ellipse fill="white" stroke="black" cx="859" cy="-38" rx="27" ry="27"/>
</g>
<!-- 140465201688336&#45;&gt;140465201686944 -->
<g id="edge10" class="edge">
<title>140465201688336&#45;&gt;140465201686944</title>
<path fill="none" stroke="black" d="M796.31,-36.34C805.21,-36.58 813.87,-36.81 821.74,-37.02"/>
<polygon fill="black" stroke="black" points="821.85,-40.53 831.94,-37.3 822.04,-33.53 821.85,-40.53"/>
</g>
<!-- 140465201686704 -->
<g id="node4" class="node">
<title>140465201686704</title>
<polygon fill="white" stroke="black" points="464.5,-116 324.5,-116 324.5,-80 464.5,-80 464.5,-116"/>
<text text-anchor="middle" x="394.5" y="-94.9" font-family="Times,serif" font-size="12.00">Send Appeal to Prefecture</text>
</g>
<!-- 140465201688384 -->
<g id="node6" class="node">
<title>140465201688384</title>
<ellipse fill="white" stroke="black" cx="708.5" cy="-97" rx="27" ry="27"/>
</g>
<!-- 140465201686704&#45;&gt;140465201688384 -->
<g id="edge9" class="edge">
<title>140465201686704&#45;&gt;140465201688384</title>
<path fill="none" stroke="black" d="M464.74,-97.78C528.6,-97.57 620.9,-97.28 671.3,-97.12"/>
<polygon fill="black" stroke="black" points="671.4,-100.62 681.39,-97.08 671.38,-93.62 671.4,-100.62"/>
</g>
<!-- 140465201688528 -->
<g id="node5" class="node">
<title>140465201688528</title>
<polygon fill="white" stroke="black" points="495,-46 294,-46 294,-10 495,-10 495,-46"/>
<text text-anchor="middle" x="394.5" y="-24.9" font-family="Times,serif" font-size="12.00">Receive Result Appeal from Prefecture</text>
</g>
<!-- 140465201686080 -->
<g id="node7" class="node">
<title>140465201686080</title>
<ellipse fill="white" stroke="black" cx="558" cy="-30" rx="27" ry="27"/>
</g>
<!-- 140465201688528&#45;&gt;140465201686080 -->
<g id="edge8" class="edge">
<title>140465201688528&#45;&gt;140465201686080</title>
<path fill="none" stroke="black" d="M495.02,-29.23C504.04,-29.34 512.72,-29.45 520.59,-29.55"/>
<polygon fill="black" stroke="black" points="520.73,-33.05 530.77,-29.68 520.82,-26.05 520.73,-33.05"/>
</g>
<!-- 140465201688384&#45;&gt;140465201687136 -->
<g id="edge1" class="edge">
<title>140465201688384&#45;&gt;140465201687136</title>
<path fill="none" stroke="black" d="M735.52,-94.14C775.22,-89.78 852.55,-81.27 911.87,-74.75"/>
<polygon fill="black" stroke="black" points="912.42,-78.21 921.97,-73.64 911.65,-71.26 912.42,-78.21"/>
</g>
<!-- 140465201686080&#45;&gt;140465201688336 -->
<g id="edge2" class="edge">
<title>140465201686080&#45;&gt;140465201688336</title>
<path fill="none" stroke="black" d="M585.21,-30.71C592.73,-30.91 601.4,-31.14 610.59,-31.39"/>
<polygon fill="black" stroke="black" points="610.63,-34.89 620.73,-31.66 610.82,-27.89 610.63,-34.89"/>
</g>
<!-- 140465201686416&#45;&gt;140465201686704 -->
<g id="edge3" class="edge">
<title>140465201686416&#45;&gt;140465201686704</title>
<path fill="none" stroke="black" d="M258.31,-98.84C273.68,-98.74 293.97,-98.62 314.15,-98.49"/>
<polygon fill="black" stroke="black" points="314.36,-101.99 324.34,-98.43 314.32,-94.99 314.36,-101.99"/>
</g>
<!-- 140465201686944&#45;&gt;140465201687136 -->
<g id="edge4" class="edge">
<title>140465201686944&#45;&gt;140465201687136</title>
<path fill="none" stroke="black" d="M885.67,-43.47C893.49,-45.13 902.53,-47.06 911.98,-49.07"/>
<polygon fill="black" stroke="black" points="911.42,-52.53 921.93,-51.19 912.87,-45.68 911.42,-52.53"/>
</g>
<!-- 140465201686464&#45;&gt;140465201688528 -->
<g id="edge5" class="edge">
<title>140465201686464&#45;&gt;140465201688528</title>
<path fill="none" stroke="black" d="M258.31,-27.16C265.79,-27.21 274.44,-27.26 283.68,-27.32"/>
<polygon fill="black" stroke="black" points="283.88,-30.82 293.9,-27.38 283.92,-23.82 283.88,-30.82"/>
</g>
</g>
</svg>
