<?xml version="1.0" encoding="UTF-8" standalone="no"?>
<!DOCTYPE svg PUBLIC "-//W3C//DTD SVG 1.1//EN"
 "http://www.w3.org/Graphics/SVG/1.1/DTD/svg11.dtd">
<!-- Generated by graphviz version 2.43.0 (0)
 -->
<!-- Title: imported_1688044917.8105052 Pages: 1 -->
<svg width="804pt" height="134pt"
 viewBox="0.00 0.00 804.00 134.00" xmlns="http://www.w3.org/2000/svg" xmlns:xlink="http://www.w3.org/1999/xlink">
<g id="graph0" class="graph" transform="scale(1 1) rotate(0) translate(4 130)">
<title>imported_1688044917.8105052</title>
<polygon fill="white" stroke="transparent" points="-4,4 -4,-130 800,-130 800,4 -4,4"/>
<!-- 140465201907744 -->
<g id="node1" class="node">
<title>140465201907744</title>
<polygon fill="white" stroke="black" points="737.5,-117 679.5,-117 679.5,-81 737.5,-81 737.5,-117"/>
<text text-anchor="middle" x="708.5" y="-95.9" font-family="Times,serif" font-size="12.00">Payment</text>
</g>
<!-- 140465201907264 -->
<g id="node2" class="node">
<title>140465201907264</title>
<polygon fill="white" stroke="black" points="796,-45 621,-45 621,-9 796,-9 796,-45"/>
<text text-anchor="middle" x="708.5" y="-23.9" font-family="Times,serif" font-size="12.00">Notify Result Appeal to Offender</text>
</g>
<!-- 140465201907312 -->
<g id="node3" class="node">
<title>140465201907312</title>
<polygon fill="white" stroke="black" points="168,-81 0,-81 0,-45 168,-45 168,-81"/>
<text text-anchor="middle" x="84" y="-59.9" font-family="Times,serif" font-size="12.00">Insert Date Appeal to Prefecture</text>
</g>
<!-- 140465201907984 -->
<g id="node7" class="node">
<title>140465201907984</title>
<ellipse fill="white" stroke="black" cx="231" cy="-63" rx="27" ry="27"/>
</g>
<!-- 140465201907312&#45;&gt;140465201907984 -->
<g id="edge4" class="edge">
<title>140465201907312&#45;&gt;140465201907984</title>
<path fill="none" stroke="black" d="M168.09,-63C176.96,-63 185.62,-63 193.51,-63"/>
<polygon fill="black" stroke="black" points="193.75,-66.5 203.75,-63 193.75,-59.5 193.75,-66.5"/>
</g>
<!-- 140465201908320 -->
<g id="node4" class="node">
<title>140465201908320</title>
<polygon fill="white" stroke="black" points="495,-81 294,-81 294,-45 495,-45 495,-81"/>
<text text-anchor="middle" x="394.5" y="-59.9" font-family="Times,serif" font-size="12.00">Receive Result Appeal from Prefecture</text>
</g>
<!-- 140465201906304 -->
<g id="node5" class="node">
<title>140465201906304</title>
<ellipse fill="white" stroke="black" cx="558" cy="-99" rx="27" ry="27"/>
</g>
<!-- 140465201908320&#45;&gt;140465201906304 -->
<g id="edge5" class="edge">
<title>140465201908320&#45;&gt;140465201906304</title>
<path fill="none" stroke="black" d="M476.72,-81.11C492.47,-84.61 508.18,-88.12 521.49,-91.08"/>
<polygon fill="black" stroke="black" points="521.07,-94.58 531.59,-93.34 522.59,-87.74 521.07,-94.58"/>
</g>
<!-- 140465201907504 -->
<g id="node6" class="node">
<title>140465201907504</title>
<ellipse fill="white" stroke="black" cx="558" cy="-27" rx="27" ry="27"/>
</g>
<!-- 140465201908320&#45;&gt;140465201907504 -->
<g id="edge6" class="edge">
<title>140465201908320&#45;&gt;140465201907504</title>
<path fill="none" stroke="black" d="M476.72,-44.89C492.47,-41.39 508.18,-37.88 521.49,-34.92"/>
<polygon fill="black" stroke="black" points="522.59,-38.26 531.59,-32.66 521.07,-31.42 522.59,-38.26"/>
</g>
<!-- 140465201906304&#45;&gt;140465201907744 -->
<g id="edge1" class="edge">
<title>140465201906304&#45;&gt;140465201907744</title>
<path fill="none" stroke="black" d="M585.21,-99C608.51,-99 642.87,-99 669.25,-99"/>
<polygon fill="black" stroke="black" points="669.28,-102.5 679.28,-99 669.28,-95.5 669.28,-102.5"/>
</g>
<!-- 140465201907504&#45;&gt;140465201907264 -->
<g id="edge2" class="edge">
<title>140465201907504&#45;&gt;140465201907264</title>
<path fill="none" stroke="black" d="M585.21,-27C592.73,-27 601.4,-27 610.59,-27"/>
<polygon fill="black" stroke="black" points="610.73,-30.5 620.73,-27 610.72,-23.5 610.73,-30.5"/>
</g>
<!-- 140465201907984&#45;&gt;140465201908320 -->
<g id="edge3" class="edge">
<title>140465201907984&#45;&gt;140465201908320</title>
<path fill="none" stroke="black" d="M258.31,-63C265.79,-63 274.44,-63 283.68,-63"/>
<polygon fill="black" stroke="black" points="283.9,-66.5 293.9,-63 283.9,-59.5 283.9,-66.5"/>
</g>
</g>
</svg>
