<?xml version="1.0" encoding="UTF-8" standalone="no"?>
<!DOCTYPE svg PUBLIC "-//W3C//DTD SVG 1.1//EN"
 "http://www.w3.org/Graphics/SVG/1.1/DTD/svg11.dtd">
<!-- Generated by graphviz version 2.43.0 (0)
 -->
<!-- Title: imported_1688044917.6639106 Pages: 1 -->
<svg width="988pt" height="62pt"
 viewBox="0.00 0.00 988.00 62.00" xmlns="http://www.w3.org/2000/svg" xmlns:xlink="http://www.w3.org/1999/xlink">
<g id="graph0" class="graph" transform="scale(1 1) rotate(0) translate(4 58)">
<title>imported_1688044917.6639106</title>
<polygon fill="white" stroke="transparent" points="-4,4 -4,-58 984,-58 984,4 -4,4"/>
<!-- 140465202113648 -->
<g id="node1" class="node">
<title>140465202113648</title>
<polygon fill="white" stroke="black" points="980,-45 922,-45 922,-9 980,-9 980,-45"/>
<text text-anchor="middle" x="951" y="-23.9" font-family="Times,serif" font-size="12.00">Payment</text>
</g>
<!-- 140465202113792 -->
<g id="node2" class="node">
<title>140465202113792</title>
<polygon fill="white" stroke="black" points="495,-45 294,-45 294,-9 495,-9 495,-45"/>
<text text-anchor="middle" x="394.5" y="-23.9" font-family="Times,serif" font-size="12.00">Receive Result Appeal from Prefecture</text>
</g>
<!-- 140465202113264 -->
<g id="node5" class="node">
<title>140465202113264</title>
<ellipse fill="white" stroke="black" cx="558" cy="-27" rx="27" ry="27"/>
</g>
<!-- 140465202113792&#45;&gt;140465202113264 -->
<g id="edge5" class="edge">
<title>140465202113792&#45;&gt;140465202113264</title>
<path fill="none" stroke="black" d="M495.02,-27C504.04,-27 512.72,-27 520.59,-27"/>
<polygon fill="black" stroke="black" points="520.77,-30.5 530.77,-27 520.77,-23.5 520.77,-30.5"/>
</g>
<!-- 140465202111824 -->
<g id="node3" class="node">
<title>140465202111824</title>
<polygon fill="white" stroke="black" points="168,-45 0,-45 0,-9 168,-9 168,-45"/>
<text text-anchor="middle" x="84" y="-23.9" font-family="Times,serif" font-size="12.00">Insert Date Appeal to Prefecture</text>
</g>
<!-- 140465202110768 -->
<g id="node6" class="node">
<title>140465202110768</title>
<ellipse fill="white" stroke="black" cx="231" cy="-27" rx="27" ry="27"/>
</g>
<!-- 140465202111824&#45;&gt;140465202110768 -->
<g id="edge4" class="edge">
<title>140465202111824&#45;&gt;140465202110768</title>
<path fill="none" stroke="black" d="M168.09,-27C176.96,-27 185.62,-27 193.51,-27"/>
<polygon fill="black" stroke="black" points="193.75,-30.5 203.75,-27 193.75,-23.5 193.75,-30.5"/>
</g>
<!-- 140465202112736 -->
<g id="node4" class="node">
<title>140465202112736</title>
<polygon fill="white" stroke="black" points="796,-45 621,-45 621,-9 796,-9 796,-45"/>
<text text-anchor="middle" x="708.5" y="-23.9" font-family="Times,serif" font-size="12.00">Notify Result Appeal to Offender</text>
</g>
<!-- 140465202110624 -->
<g id="node7" class="node">
<title>140465202110624</title>
<ellipse fill="white" stroke="black" cx="859" cy="-27" rx="27" ry="27"/>
</g>
<!-- 140465202112736&#45;&gt;140465202110624 -->
<g id="edge6" class="edge">
<title>140465202112736&#45;&gt;140465202110624</title>
<path fill="none" stroke="black" d="M796.31,-27C805.21,-27 813.87,-27 821.74,-27"/>
<polygon fill="black" stroke="black" points="821.94,-30.5 831.94,-27 821.94,-23.5 821.94,-30.5"/>
</g>
<!-- 140465202113264&#45;&gt;140465202112736 -->
<g id="edge1" class="edge">
<title>140465202113264&#45;&gt;140465202112736</title>
<path fill="none" stroke="black" d="M585.21,-27C592.73,-27 601.4,-27 610.59,-27"/>
<polygon fill="black" stroke="black" points="610.73,-30.5 620.73,-27 610.72,-23.5 610.73,-30.5"/>
</g>
<!-- 140465202110768&#45;&gt;140465202113792 -->
<g id="edge2" class="edge">
<title>140465202110768&#45;&gt;140465202113792</title>
<path fill="none" stroke="black" d="M258.31,-27C265.79,-27 274.44,-27 283.68,-27"/>
<polygon fill="black" stroke="black" points="283.9,-30.5 293.9,-27 283.9,-23.5 283.9,-30.5"/>
</g>
<!-- 140465202110624&#45;&gt;140465202113648 -->
<g id="edge3" class="edge">
<title>140465202110624&#45;&gt;140465202113648</title>
<path fill="none" stroke="black" d="M886.03,-27C894,-27 902.95,-27 911.56,-27"/>
<polygon fill="black" stroke="black" points="911.82,-30.5 921.82,-27 911.82,-23.5 911.82,-30.5"/>
</g>
</g>
</svg>
