<?xml version="1.0" encoding="UTF-8" standalone="no"?>
<!DOCTYPE svg PUBLIC "-//W3C//DTD SVG 1.1//EN"
 "http://www.w3.org/Graphics/SVG/1.1/DTD/svg11.dtd">
<!-- Generated by graphviz version 2.43.0 (0)
 -->
<!-- Title: imported_1688044900.2470348 Pages: 1 -->
<svg width="988pt" height="134pt"
 viewBox="0.00 0.00 988.00 134.00" xmlns="http://www.w3.org/2000/svg" xmlns:xlink="http://www.w3.org/1999/xlink">
<g id="graph0" class="graph" transform="scale(1 1) rotate(0) translate(4 130)">
<title>imported_1688044900.2470348</title>
<polygon fill="white" stroke="transparent" points="-4,4 -4,-130 984,-130 984,4 -4,4"/>
<!-- 140465201683424 -->
<g id="node1" class="node">
<title>140465201683424</title>
<polygon fill="white" stroke="black" points="154,-117 14,-117 14,-81 154,-81 154,-117"/>
<text text-anchor="middle" x="84" y="-95.9" font-family="Times,serif" font-size="12.00">Send Appeal to Prefecture</text>
</g>
<!-- 140465201682800 -->
<g id="node6" class="node">
<title>140465201682800</title>
<ellipse fill="white" stroke="black" cx="231" cy="-99" rx="27" ry="27"/>
</g>
<!-- 140465201683424&#45;&gt;140465201682800 -->
<g id="edge8" class="edge">
<title>140465201683424&#45;&gt;140465201682800</title>
<path fill="none" stroke="black" d="M154.1,-99C167.76,-99 181.57,-99 193.6,-99"/>
<polygon fill="black" stroke="black" points="193.67,-102.5 203.67,-99 193.67,-95.5 193.67,-102.5"/>
</g>
<!-- 140465201682752 -->
<g id="node2" class="node">
<title>140465201682752</title>
<polygon fill="white" stroke="black" points="495,-81 294,-81 294,-45 495,-45 495,-81"/>
<text text-anchor="middle" x="394.5" y="-59.9" font-family="Times,serif" font-size="12.00">Receive Result Appeal from Prefecture</text>
</g>
<!-- 140465201683040 -->
<g id="node7" class="node">
<title>140465201683040</title>
<ellipse fill="white" stroke="black" cx="558" cy="-63" rx="27" ry="27"/>
</g>
<!-- 140465201682752&#45;&gt;140465201683040 -->
<g id="edge6" class="edge">
<title>140465201682752&#45;&gt;140465201683040</title>
<path fill="none" stroke="black" d="M495.02,-63C504.04,-63 512.72,-63 520.59,-63"/>
<polygon fill="black" stroke="black" points="520.77,-66.5 530.77,-63 520.77,-59.5 520.77,-66.5"/>
</g>
<!-- 140465201682848 -->
<g id="node3" class="node">
<title>140465201682848</title>
<polygon fill="white" stroke="black" points="168,-45 0,-45 0,-9 168,-9 168,-45"/>
<text text-anchor="middle" x="84" y="-23.9" font-family="Times,serif" font-size="12.00">Insert Date Appeal to Prefecture</text>
</g>
<!-- 140465201683232 -->
<g id="node8" class="node">
<title>140465201683232</title>
<ellipse fill="white" stroke="black" cx="231" cy="-27" rx="27" ry="27"/>
</g>
<!-- 140465201682848&#45;&gt;140465201683232 -->
<g id="edge5" class="edge">
<title>140465201682848&#45;&gt;140465201683232</title>
<path fill="none" stroke="black" d="M168.09,-27C176.96,-27 185.62,-27 193.51,-27"/>
<polygon fill="black" stroke="black" points="193.75,-30.5 203.75,-27 193.75,-23.5 193.75,-30.5"/>
</g>
<!-- 140465201683088 -->
<g id="node4" class="node">
<title>140465201683088</title>
<polygon fill="white" stroke="black" points="980,-81 922,-81 922,-45 980,-45 980,-81"/>
<text text-anchor="middle" x="951" y="-59.9" font-family="Times,serif" font-size="12.00">Payment</text>
</g>
<!-- 140465201683184 -->
<g id="node5" class="node">
<title>140465201683184</title>
<polygon fill="white" stroke="black" points="796,-81 621,-81 621,-45 796,-45 796,-81"/>
<text text-anchor="middle" x="708.5" y="-59.9" font-family="Times,serif" font-size="12.00">Notify Result Appeal to Offender</text>
</g>
<!-- 140465201683280 -->
<g id="node9" class="node">
<title>140465201683280</title>
<ellipse fill="white" stroke="black" cx="859" cy="-63" rx="27" ry="27"/>
</g>
<!-- 140465201683184&#45;&gt;140465201683280 -->
<g id="edge7" class="edge">
<title>140465201683184&#45;&gt;140465201683280</title>
<path fill="none" stroke="black" d="M796.31,-63C805.21,-63 813.87,-63 821.74,-63"/>
<polygon fill="black" stroke="black" points="821.94,-66.5 831.94,-63 821.94,-59.5 821.94,-66.5"/>
</g>
<!-- 140465201682800&#45;&gt;140465201682752 -->
<g id="edge1" class="edge">
<title>140465201682800&#45;&gt;140465201682752</title>
<path fill="none" stroke="black" d="M257.59,-93.3C270.16,-90.49 286.13,-86.93 302.69,-83.24"/>
<polygon fill="black" stroke="black" points="303.48,-86.65 312.48,-81.06 301.95,-79.82 303.48,-86.65"/>
</g>
<!-- 140465201683040&#45;&gt;140465201683184 -->
<g id="edge2" class="edge">
<title>140465201683040&#45;&gt;140465201683184</title>
<path fill="none" stroke="black" d="M585.21,-63C592.73,-63 601.4,-63 610.59,-63"/>
<polygon fill="black" stroke="black" points="610.73,-66.5 620.73,-63 610.72,-59.5 610.73,-66.5"/>
</g>
<!-- 140465201683232&#45;&gt;140465201682752 -->
<g id="edge3" class="edge">
<title>140465201683232&#45;&gt;140465201682752</title>
<path fill="none" stroke="black" d="M257.59,-32.7C270.16,-35.51 286.13,-39.07 302.69,-42.76"/>
<polygon fill="black" stroke="black" points="301.95,-46.18 312.48,-44.94 303.48,-39.35 301.95,-46.18"/>
</g>
<!-- 140465201683280&#45;&gt;140465201683088 -->
<g id="edge4" class="edge">
<title>140465201683280&#45;&gt;140465201683088</title>
<path fill="none" stroke="black" d="M886.03,-63C894,-63 902.95,-63 911.56,-63"/>
<polygon fill="black" stroke="black" points="911.82,-66.5 921.82,-63 911.82,-59.5 911.82,-66.5"/>
</g>
</g>
</svg>
