<?xml version="1.0" encoding="UTF-8" standalone="no"?>
<!DOCTYPE svg PUBLIC "-//W3C//DTD SVG 1.1//EN"
 "http://www.w3.org/Graphics/SVG/1.1/DTD/svg11.dtd">
<!-- Generated by graphviz version 2.43.0 (0)
 -->
<!-- Title: imported_1688044904.5466373 Pages: 1 -->
<svg width="1070pt" height="134pt"
 viewBox="0.00 0.00 1070.00 134.00" xmlns="http://www.w3.org/2000/svg" xmlns:xlink="http://www.w3.org/1999/xlink">
<g id="graph0" class="graph" transform="scale(1 1) rotate(0) translate(4 130)">
<title>imported_1688044904.5466373</title>
<polygon fill="white" stroke="transparent" points="-4,4 -4,-130 1066,-130 1066,4 -4,4"/>
<!-- 140468994102560 -->
<g id="node1" class="node">
<title>140468994102560</title>
<polygon fill="white" stroke="black" points="1003.5,-117 945.5,-117 945.5,-81 1003.5,-81 1003.5,-117"/>
<text text-anchor="middle" x="974.5" y="-95.9" font-family="Times,serif" font-size="12.00">Payment</text>
</g>
<!-- 140468994102368 -->
<g id="node2" class="node">
<title>140468994102368</title>
<polygon fill="white" stroke="black" points="761,-81 560,-81 560,-45 761,-45 761,-81"/>
<text text-anchor="middle" x="660.5" y="-59.9" font-family="Times,serif" font-size="12.00">Receive Result Appeal from Prefecture</text>
</g>
<!-- 140468994103568 -->
<g id="node7" class="node">
<title>140468994103568</title>
<ellipse fill="white" stroke="black" cx="824" cy="-99" rx="27" ry="27"/>
</g>
<!-- 140468994102368&#45;&gt;140468994103568 -->
<g id="edge6" class="edge">
<title>140468994102368&#45;&gt;140468994103568</title>
<path fill="none" stroke="black" d="M742.72,-81.11C758.47,-84.61 774.18,-88.12 787.49,-91.08"/>
<polygon fill="black" stroke="black" points="787.07,-94.58 797.59,-93.34 788.59,-87.74 787.07,-94.58"/>
</g>
<!-- 140468994101600 -->
<g id="node8" class="node">
<title>140468994101600</title>
<ellipse fill="white" stroke="black" cx="824" cy="-27" rx="27" ry="27"/>
</g>
<!-- 140468994102368&#45;&gt;140468994101600 -->
<g id="edge7" class="edge">
<title>140468994102368&#45;&gt;140468994101600</title>
<path fill="none" stroke="black" d="M742.72,-44.89C758.47,-41.39 774.18,-37.88 787.49,-34.92"/>
<polygon fill="black" stroke="black" points="788.59,-38.26 797.59,-32.66 787.07,-31.42 788.59,-38.26"/>
</g>
<!-- 140468994103136 -->
<g id="node3" class="node">
<title>140468994103136</title>
<polygon fill="white" stroke="black" points="168,-81 0,-81 0,-45 168,-45 168,-81"/>
<text text-anchor="middle" x="84" y="-59.9" font-family="Times,serif" font-size="12.00">Insert Date Appeal to Prefecture</text>
</g>
<!-- 140468994101360 -->
<g id="node9" class="node">
<title>140468994101360</title>
<ellipse fill="white" stroke="black" cx="231" cy="-63" rx="27" ry="27"/>
</g>
<!-- 140468994103136&#45;&gt;140468994101360 -->
<g id="edge5" class="edge">
<title>140468994103136&#45;&gt;140468994101360</title>
<path fill="none" stroke="black" d="M168.09,-63C176.96,-63 185.62,-63 193.51,-63"/>
<polygon fill="black" stroke="black" points="193.75,-66.5 203.75,-63 193.75,-59.5 193.75,-66.5"/>
</g>
<!-- 140468994101744 -->
<g id="node4" class="node">
<title>140468994101744</title>
<polygon fill="white" stroke="black" points="434,-81 294,-81 294,-45 434,-45 434,-81"/>
<text text-anchor="middle" x="364" y="-59.9" font-family="Times,serif" font-size="12.00">Send Appeal to Prefecture</text>
</g>
<!-- 140468994103808 -->
<g id="node6" class="node">
<title>140468994103808</title>
<ellipse fill="white" stroke="black" cx="497" cy="-63" rx="27" ry="27"/>
</g>
<!-- 140468994101744&#45;&gt;140468994103808 -->
<g id="edge8" class="edge">
<title>140468994101744&#45;&gt;140468994103808</title>
<path fill="none" stroke="black" d="M434.34,-63C443.13,-63 451.82,-63 459.79,-63"/>
<polygon fill="black" stroke="black" points="459.8,-66.5 469.8,-63 459.8,-59.5 459.8,-66.5"/>
</g>
<!-- 140468994103952 -->
<g id="node5" class="node">
<title>140468994103952</title>
<polygon fill="white" stroke="black" points="1062,-45 887,-45 887,-9 1062,-9 1062,-45"/>
<text text-anchor="middle" x="974.5" y="-23.9" font-family="Times,serif" font-size="12.00">Notify Result Appeal to Offender</text>
</g>
<!-- 140468994103808&#45;&gt;140468994102368 -->
<g id="edge1" class="edge">
<title>140468994103808&#45;&gt;140468994102368</title>
<path fill="none" stroke="black" d="M524.31,-63C531.79,-63 540.44,-63 549.68,-63"/>
<polygon fill="black" stroke="black" points="549.9,-66.5 559.9,-63 549.9,-59.5 549.9,-66.5"/>
</g>
<!-- 140468994103568&#45;&gt;140468994102560 -->
<g id="edge2" class="edge">
<title>140468994103568&#45;&gt;140468994102560</title>
<path fill="none" stroke="black" d="M851.21,-99C874.51,-99 908.87,-99 935.25,-99"/>
<polygon fill="black" stroke="black" points="935.28,-102.5 945.28,-99 935.28,-95.5 935.28,-102.5"/>
</g>
<!-- 140468994101600&#45;&gt;140468994103952 -->
<g id="edge3" class="edge">
<title>140468994101600&#45;&gt;140468994103952</title>
<path fill="none" stroke="black" d="M851.21,-27C858.73,-27 867.4,-27 876.59,-27"/>
<polygon fill="black" stroke="black" points="876.73,-30.5 886.73,-27 876.72,-23.5 876.73,-30.5"/>
</g>
<!-- 140468994101360&#45;&gt;140468994101744 -->
<g id="edge4" class="edge">
<title>140468994101360&#45;&gt;140468994101744</title>
<path fill="none" stroke="black" d="M258.19,-63C265.87,-63 274.69,-63 283.89,-63"/>
<polygon fill="black" stroke="black" points="283.97,-66.5 293.97,-63 283.97,-59.5 283.97,-66.5"/>
</g>
</g>
</svg>
