<?xml version="1.0" encoding="UTF-8" standalone="no"?>
<!DOCTYPE svg PUBLIC "-//W3C//DTD SVG 1.1//EN"
 "http://www.w3.org/Graphics/SVG/1.1/DTD/svg11.dtd">
<!-- Generated by graphviz version 2.43.0 (0)
 -->
<!-- Title: imported_1688044888.507106 Pages: 1 -->
<svg width="1056pt" height="62pt"
 viewBox="0.00 0.00 1056.00 62.00" xmlns="http://www.w3.org/2000/svg" xmlns:xlink="http://www.w3.org/1999/xlink">
<g id="graph0" class="graph" transform="scale(1 1) rotate(0) translate(4 58)">
<title>imported_1688044888.507106</title>
<polygon fill="white" stroke="transparent" points="-4,4 -4,-58 1052,-58 1052,4 -4,4"/>
<!-- 140464257979968 -->
<g id="node1" class="node">
<title>140464257979968</title>
<polygon fill="white" stroke="black" points="420,-45 252,-45 252,-9 420,-9 420,-45"/>
<text text-anchor="middle" x="336" y="-23.9" font-family="Times,serif" font-size="12.00">Insert Date Appeal to Prefecture</text>
</g>
<!-- 140464257980736 -->
<g id="node7" class="node">
<title>140464257980736</title>
<ellipse fill="white" stroke="black" cx="483" cy="-27" rx="27" ry="27"/>
</g>
<!-- 140464257979968&#45;&gt;140464257980736 -->
<g id="edge4" class="edge">
<title>140464257979968&#45;&gt;140464257980736</title>
<path fill="none" stroke="black" d="M420.09,-27C428.96,-27 437.62,-27 445.51,-27"/>
<polygon fill="black" stroke="black" points="445.75,-30.5 455.75,-27 445.75,-23.5 445.75,-30.5"/>
</g>
<!-- 140464257980112 -->
<g id="node2" class="node">
<title>140464257980112</title>
<polygon fill="white" stroke="black" points="1048,-45 873,-45 873,-9 1048,-9 1048,-45"/>
<text text-anchor="middle" x="960.5" y="-23.9" font-family="Times,serif" font-size="12.00">Notify Result Appeal to Offender</text>
</g>
<!-- 140464257980544 -->
<g id="node3" class="node">
<title>140464257980544</title>
<polygon fill="white" stroke="black" points="126,-45 0,-45 0,-9 126,-9 126,-45"/>
<text text-anchor="middle" x="63" y="-23.9" font-family="Times,serif" font-size="12.00">Insert Fine Notification</text>
</g>
<!-- 140465201748288 -->
<g id="node5" class="node">
<title>140465201748288</title>
<ellipse fill="white" stroke="black" cx="189" cy="-27" rx="27" ry="27"/>
</g>
<!-- 140464257980544&#45;&gt;140465201748288 -->
<g id="edge6" class="edge">
<title>140464257980544&#45;&gt;140465201748288</title>
<path fill="none" stroke="black" d="M126.36,-27C135.09,-27 143.8,-27 151.81,-27"/>
<polygon fill="black" stroke="black" points="151.88,-30.5 161.88,-27 151.88,-23.5 151.88,-30.5"/>
</g>
<!-- 140464257980640 -->
<g id="node4" class="node">
<title>140464257980640</title>
<polygon fill="white" stroke="black" points="747,-45 546,-45 546,-9 747,-9 747,-45"/>
<text text-anchor="middle" x="646.5" y="-23.9" font-family="Times,serif" font-size="12.00">Receive Result Appeal from Prefecture</text>
</g>
<!-- 140464257981024 -->
<g id="node6" class="node">
<title>140464257981024</title>
<ellipse fill="white" stroke="black" cx="810" cy="-27" rx="27" ry="27"/>
</g>
<!-- 140464257980640&#45;&gt;140464257981024 -->
<g id="edge5" class="edge">
<title>140464257980640&#45;&gt;140464257981024</title>
<path fill="none" stroke="black" d="M747.02,-27C756.04,-27 764.72,-27 772.59,-27"/>
<polygon fill="black" stroke="black" points="772.77,-30.5 782.77,-27 772.77,-23.5 772.77,-30.5"/>
</g>
<!-- 140465201748288&#45;&gt;140464257979968 -->
<g id="edge1" class="edge">
<title>140465201748288&#45;&gt;140464257979968</title>
<path fill="none" stroke="black" d="M216.26,-27C223.81,-27 232.51,-27 241.7,-27"/>
<polygon fill="black" stroke="black" points="241.83,-30.5 251.83,-27 241.83,-23.5 241.83,-30.5"/>
</g>
<!-- 140464257981024&#45;&gt;140464257980112 -->
<g id="edge2" class="edge">
<title>140464257981024&#45;&gt;140464257980112</title>
<path fill="none" stroke="black" d="M837.21,-27C844.73,-27 853.4,-27 862.59,-27"/>
<polygon fill="black" stroke="black" points="862.73,-30.5 872.73,-27 862.72,-23.5 862.73,-30.5"/>
</g>
<!-- 140464257980736&#45;&gt;140464257980640 -->
<g id="edge3" class="edge">
<title>140464257980736&#45;&gt;140464257980640</title>
<path fill="none" stroke="black" d="M510.31,-27C517.79,-27 526.44,-27 535.68,-27"/>
<polygon fill="black" stroke="black" points="535.9,-30.5 545.9,-27 535.9,-23.5 535.9,-30.5"/>
</g>
</g>
</svg>
