<?xml version="1.0" encoding="UTF-8" standalone="no"?>
<!DOCTYPE svg PUBLIC "-//W3C//DTD SVG 1.1//EN"
 "http://www.w3.org/Graphics/SVG/1.1/DTD/svg11.dtd">
<!-- Generated by graphviz version 3.0.0 (20220226.1711)
 -->
<!-- Title: imported_1686809886.8728619 Pages: 1 -->
<svg width="602pt" height="123pt"
 viewBox="0.00 0.00 602.00 123.00" xmlns="http://www.w3.org/2000/svg" xmlns:xlink="http://www.w3.org/1999/xlink">
<g id="graph0" class="graph" transform="scale(1 1) rotate(0) translate(4 119)">
<title>imported_1686809886.8728619</title>
<polygon fill="white" stroke="transparent" points="-4,4 -4,-119 598,-119 598,4 -4,4"/>
<!-- 2309364451936 -->
<g id="node1" class="node">
<title>2309364451936</title>
<polygon fill="white" stroke="black" points="234,-108 180,-108 180,-72 234,-72 234,-108"/>
<text text-anchor="middle" x="207" y="-86.9" font-family="Times New Roman,serif" font-size="12.00">b</text>
</g>
<!-- 2309364449392 -->
<g id="node7" class="node">
<title>2309364449392</title>
<ellipse fill="white" stroke="black" cx="297" cy="-88" rx="27" ry="27"/>
</g>
<!-- 2309364451936&#45;&gt;2309364449392 -->
<g id="edge5" class="edge">
<title>2309364451936&#45;&gt;2309364449392</title>
<path fill="none" stroke="black" d="M234.4,-89.4C242.39,-89.22 251.31,-89.02 259.82,-88.82"/>
<polygon fill="black" stroke="black" points="260,-92.32 269.92,-88.59 259.84,-85.32 260,-92.32"/>
</g>
<!-- 2309364449584 -->
<g id="node2" class="node">
<title>2309364449584</title>
<polygon fill="white" stroke="black" points="414,-76 360,-76 360,-40 414,-40 414,-76"/>
<text text-anchor="middle" x="387" y="-54.9" font-family="Times New Roman,serif" font-size="12.00">d</text>
</g>
<!-- 2309364449488 -->
<g id="node8" class="node">
<title>2309364449488</title>
<ellipse fill="white" stroke="black" cx="477" cy="-58" rx="27" ry="27"/>
</g>
<!-- 2309364449584&#45;&gt;2309364449488 -->
<g id="edge8" class="edge">
<title>2309364449584&#45;&gt;2309364449488</title>
<path fill="none" stroke="black" d="M414.4,-58C422.39,-58 431.31,-58 439.82,-58"/>
<polygon fill="black" stroke="black" points="439.92,-61.5 449.92,-58 439.92,-54.5 439.92,-61.5"/>
</g>
<!-- 2309364449344 -->
<g id="node3" class="node">
<title>2309364449344</title>
<polygon fill="white" stroke="black" points="594,-76 540,-76 540,-40 594,-40 594,-76"/>
<text text-anchor="middle" x="567" y="-54.9" font-family="Times New Roman,serif" font-size="12.00">k</text>
</g>
<!-- 2309364449728 -->
<g id="node4" class="node">
<title>2309364449728</title>
<polygon fill="white" stroke="black" points="54,-76 0,-76 0,-40 54,-40 54,-76"/>
<text text-anchor="middle" x="27" y="-54.9" font-family="Times New Roman,serif" font-size="12.00">s</text>
</g>
<!-- 2309364392096 -->
<g id="node5" class="node">
<title>2309364392096</title>
<ellipse fill="white" stroke="black" cx="117" cy="-88" rx="27" ry="27"/>
</g>
<!-- 2309364449728&#45;&gt;2309364392096 -->
<g id="edge6" class="edge">
<title>2309364449728&#45;&gt;2309364392096</title>
<path fill="none" stroke="black" d="M54.4,-67C62.95,-69.92 72.57,-73.19 81.61,-76.28"/>
<polygon fill="black" stroke="black" points="80.53,-79.61 91.12,-79.52 82.79,-72.98 80.53,-79.61"/>
</g>
<!-- 2309363113072 -->
<g id="node6" class="node">
<title>2309363113072</title>
<ellipse fill="white" stroke="black" cx="207" cy="-27" rx="27" ry="27"/>
</g>
<!-- 2309364449728&#45;&gt;2309363113072 -->
<g id="edge7" class="edge">
<title>2309364449728&#45;&gt;2309363113072</title>
<path fill="none" stroke="black" d="M54.26,-53.43C84.94,-48.08 135.84,-39.22 170.14,-33.25"/>
<polygon fill="black" stroke="black" points="170.96,-36.66 180.21,-31.49 169.75,-29.76 170.96,-36.66"/>
</g>
<!-- 2309364392096&#45;&gt;2309364451936 -->
<g id="edge1" class="edge">
<title>2309364392096&#45;&gt;2309364451936</title>
<path fill="none" stroke="black" d="M144.4,-88.6C152.39,-88.78 161.31,-88.98 169.82,-89.18"/>
<polygon fill="black" stroke="black" points="169.84,-92.68 179.92,-89.41 170,-85.68 169.84,-92.68"/>
</g>
<!-- 2309363113072&#45;&gt;2309364449584 -->
<g id="edge2" class="edge">
<title>2309363113072&#45;&gt;2309364449584</title>
<path fill="none" stroke="black" d="M233.88,-31.51C264.38,-36.82 315.25,-45.68 349.68,-51.67"/>
<polygon fill="black" stroke="black" points="349.34,-55.17 359.8,-53.44 350.54,-48.27 349.34,-55.17"/>
</g>
<!-- 2309364449392&#45;&gt;2309364449584 -->
<g id="edge3" class="edge">
<title>2309364449392&#45;&gt;2309364449584</title>
<path fill="none" stroke="black" d="M322.98,-79.48C331.42,-76.61 341,-73.34 350.11,-70.23"/>
<polygon fill="black" stroke="black" points="351.39,-73.5 359.73,-66.96 349.13,-66.87 351.39,-73.5"/>
</g>
<!-- 2309364449488&#45;&gt;2309364449344 -->
<g id="edge4" class="edge">
<title>2309364449488&#45;&gt;2309364449344</title>
<path fill="none" stroke="black" d="M504.4,-58C512.39,-58 521.31,-58 529.82,-58"/>
<polygon fill="black" stroke="black" points="529.92,-61.5 539.92,-58 529.92,-54.5 529.92,-61.5"/>
</g>
</g>
</svg>
