<?xml version="1.0" encoding="UTF-8" standalone="no"?>
<!DOCTYPE svg PUBLIC "-//W3C//DTD SVG 1.1//EN"
 "http://www.w3.org/Graphics/SVG/1.1/DTD/svg11.dtd">
<!-- Generated by graphviz version 3.0.0 (20220226.1711)
 -->
<!-- Title: imported_1686809886.9619696 Pages: 1 -->
<svg width="422pt" height="134pt"
 viewBox="0.00 0.00 422.00 134.00" xmlns="http://www.w3.org/2000/svg" xmlns:xlink="http://www.w3.org/1999/xlink">
<g id="graph0" class="graph" transform="scale(1 1) rotate(0) translate(4 130)">
<title>imported_1686809886.9619696</title>
<polygon fill="white" stroke="transparent" points="-4,4 -4,-130 418,-130 418,4 -4,4"/>
<!-- 2309364422880 -->
<g id="node1" class="node">
<title>2309364422880</title>
<polygon fill="white" stroke="black" points="234,-117 180,-117 180,-81 234,-81 234,-117"/>
<text text-anchor="middle" x="207" y="-95.9" font-family="Times New Roman,serif" font-size="12.00">b</text>
</g>
<!-- 2309364423888 -->
<g id="node8" class="node">
<title>2309364423888</title>
<ellipse fill="white" stroke="black" cx="297" cy="-99" rx="27" ry="27"/>
</g>
<!-- 2309364422880&#45;&gt;2309364423888 -->
<g id="edge5" class="edge">
<title>2309364422880&#45;&gt;2309364423888</title>
<path fill="none" stroke="black" d="M234.4,-99C242.39,-99 251.31,-99 259.82,-99"/>
<polygon fill="black" stroke="black" points="259.92,-102.5 269.92,-99 259.92,-95.5 259.92,-102.5"/>
</g>
<!-- 2309364421392 -->
<g id="node2" class="node">
<title>2309364421392</title>
<polygon fill="white" stroke="black" points="54,-81 0,-81 0,-45 54,-45 54,-81"/>
<text text-anchor="middle" x="27" y="-59.9" font-family="Times New Roman,serif" font-size="12.00">s</text>
</g>
<!-- 2309364420720 -->
<g id="node5" class="node">
<title>2309364420720</title>
<ellipse fill="white" stroke="black" cx="117" cy="-99" rx="27" ry="27"/>
</g>
<!-- 2309364421392&#45;&gt;2309364420720 -->
<g id="edge6" class="edge">
<title>2309364421392&#45;&gt;2309364420720</title>
<path fill="none" stroke="black" d="M54.4,-73.8C63.2,-77.4 73.11,-81.45 82.37,-85.24"/>
<polygon fill="black" stroke="black" points="81.14,-88.52 91.72,-89.07 83.79,-82.04 81.14,-88.52"/>
</g>
<!-- 2309364423504 -->
<g id="node6" class="node">
<title>2309364423504</title>
<ellipse fill="white" stroke="black" cx="117" cy="-27" rx="27" ry="27"/>
</g>
<!-- 2309364421392&#45;&gt;2309364423504 -->
<g id="edge7" class="edge">
<title>2309364421392&#45;&gt;2309364423504</title>
<path fill="none" stroke="black" d="M54.4,-52.2C63.2,-48.6 73.11,-44.55 82.37,-40.76"/>
<polygon fill="black" stroke="black" points="83.79,-43.96 91.72,-36.93 81.14,-37.48 83.79,-43.96"/>
</g>
<!-- 2309364420912 -->
<g id="node3" class="node">
<title>2309364420912</title>
<polygon fill="white" stroke="black" points="414,-81 360,-81 360,-45 414,-45 414,-81"/>
<text text-anchor="middle" x="387" y="-59.9" font-family="Times New Roman,serif" font-size="12.00">k</text>
</g>
<!-- 2309364423120 -->
<g id="node4" class="node">
<title>2309364423120</title>
<polygon fill="white" stroke="black" points="234,-45 180,-45 180,-9 234,-9 234,-45"/>
<text text-anchor="middle" x="207" y="-23.9" font-family="Times New Roman,serif" font-size="12.00">d</text>
</g>
<!-- 2309364422304 -->
<g id="node7" class="node">
<title>2309364422304</title>
<ellipse fill="white" stroke="black" cx="297" cy="-27" rx="27" ry="27"/>
</g>
<!-- 2309364423120&#45;&gt;2309364422304 -->
<g id="edge8" class="edge">
<title>2309364423120&#45;&gt;2309364422304</title>
<path fill="none" stroke="black" d="M234.4,-27C242.39,-27 251.31,-27 259.82,-27"/>
<polygon fill="black" stroke="black" points="259.92,-30.5 269.92,-27 259.92,-23.5 259.92,-30.5"/>
</g>
<!-- 2309364420720&#45;&gt;2309364422880 -->
<g id="edge1" class="edge">
<title>2309364420720&#45;&gt;2309364422880</title>
<path fill="none" stroke="black" d="M144.4,-99C152.39,-99 161.31,-99 169.82,-99"/>
<polygon fill="black" stroke="black" points="169.92,-102.5 179.92,-99 169.92,-95.5 169.92,-102.5"/>
</g>
<!-- 2309364423504&#45;&gt;2309364423120 -->
<g id="edge2" class="edge">
<title>2309364423504&#45;&gt;2309364423120</title>
<path fill="none" stroke="black" d="M144.4,-27C152.39,-27 161.31,-27 169.82,-27"/>
<polygon fill="black" stroke="black" points="169.92,-30.5 179.92,-27 169.92,-23.5 169.92,-30.5"/>
</g>
<!-- 2309364422304&#45;&gt;2309364420912 -->
<g id="edge3" class="edge">
<title>2309364422304&#45;&gt;2309364420912</title>
<path fill="none" stroke="black" d="M322.51,-37.03C331.12,-40.55 340.97,-44.58 350.31,-48.4"/>
<polygon fill="black" stroke="black" points="349.19,-51.72 359.77,-52.27 351.84,-45.24 349.19,-51.72"/>
</g>
<!-- 2309364423888&#45;&gt;2309364420912 -->
<g id="edge4" class="edge">
<title>2309364423888&#45;&gt;2309364420912</title>
<path fill="none" stroke="black" d="M322.51,-88.97C331.12,-85.45 340.97,-81.42 350.31,-77.6"/>
<polygon fill="black" stroke="black" points="351.84,-80.76 359.77,-73.73 349.19,-74.28 351.84,-80.76"/>
</g>
</g>
</svg>
