<?xml version="1.0" encoding="UTF-8" standalone="no"?>
<!DOCTYPE svg PUBLIC "-//W3C//DTD SVG 1.1//EN"
 "http://www.w3.org/Graphics/SVG/1.1/DTD/svg11.dtd">
<!-- Generated by graphviz version 2.43.0 (0)
 -->
<!-- Title: imported_1688044900.3869765 Pages: 1 -->
<svg width="762pt" height="134pt"
 viewBox="0.00 0.00 762.00 134.00" xmlns="http://www.w3.org/2000/svg" xmlns:xlink="http://www.w3.org/1999/xlink">
<g id="graph0" class="graph" transform="scale(1 1) rotate(0) translate(4 130)">
<title>imported_1688044900.3869765</title>
<polygon fill="white" stroke="transparent" points="-4,4 -4,-130 758,-130 758,4 -4,4"/>
<!-- 140465201683472 -->
<g id="node1" class="node">
<title>140465201683472</title>
<polygon fill="white" stroke="black" points="436.5,-45 268.5,-45 268.5,-9 436.5,-9 436.5,-45"/>
<text text-anchor="middle" x="352.5" y="-23.9" font-family="Times,serif" font-size="12.00">Insert Date Appeal to Prefecture</text>
</g>
<!-- 140469013947296 -->
<g id="node7" class="node">
<title>140469013947296</title>
<ellipse fill="white" stroke="black" cx="516" cy="-27" rx="27" ry="27"/>
</g>
<!-- 140465201683472&#45;&gt;140469013947296 -->
<g id="edge4" class="edge">
<title>140465201683472&#45;&gt;140469013947296</title>
<path fill="none" stroke="black" d="M436.62,-27C451.47,-27 466.22,-27 478.84,-27"/>
<polygon fill="black" stroke="black" points="478.91,-30.5 488.91,-27 478.91,-23.5 478.91,-30.5"/>
</g>
<!-- 140465201684048 -->
<g id="node2" class="node">
<title>140465201684048</title>
<polygon fill="white" stroke="black" points="126,-45 0,-45 0,-9 126,-9 126,-45"/>
<text text-anchor="middle" x="63" y="-23.9" font-family="Times,serif" font-size="12.00">Insert Fine Notification</text>
</g>
<!-- 140465201706560 -->
<g id="node5" class="node">
<title>140465201706560</title>
<ellipse fill="white" stroke="black" cx="189" cy="-27" rx="27" ry="27"/>
</g>
<!-- 140465201684048&#45;&gt;140465201706560 -->
<g id="edge6" class="edge">
<title>140465201684048&#45;&gt;140465201706560</title>
<path fill="none" stroke="black" d="M126.36,-27C135.09,-27 143.8,-27 151.81,-27"/>
<polygon fill="black" stroke="black" points="151.88,-30.5 161.88,-27 151.88,-23.5 151.88,-30.5"/>
</g>
<!-- 140465201683616 -->
<g id="node3" class="node">
<title>140465201683616</title>
<polygon fill="white" stroke="black" points="453,-117 252,-117 252,-81 453,-81 453,-117"/>
<text text-anchor="middle" x="352.5" y="-95.9" font-family="Times,serif" font-size="12.00">Receive Result Appeal from Prefecture</text>
</g>
<!-- 140465201780528 -->
<g id="node6" class="node">
<title>140465201780528</title>
<ellipse fill="white" stroke="black" cx="516" cy="-99" rx="27" ry="27"/>
</g>
<!-- 140465201683616&#45;&gt;140465201780528 -->
<g id="edge5" class="edge">
<title>140465201683616&#45;&gt;140465201780528</title>
<path fill="none" stroke="black" d="M453.02,-99C462.04,-99 470.72,-99 478.59,-99"/>
<polygon fill="black" stroke="black" points="478.77,-102.5 488.77,-99 478.77,-95.5 478.77,-102.5"/>
</g>
<!-- 140465201683184 -->
<g id="node4" class="node">
<title>140465201683184</title>
<polygon fill="white" stroke="black" points="754,-81 579,-81 579,-45 754,-45 754,-81"/>
<text text-anchor="middle" x="666.5" y="-59.9" font-family="Times,serif" font-size="12.00">Notify Result Appeal to Offender</text>
</g>
<!-- 140465201706560&#45;&gt;140465201683472 -->
<g id="edge1" class="edge">
<title>140465201706560&#45;&gt;140465201683472</title>
<path fill="none" stroke="black" d="M216.31,-27C228.11,-27 242.82,-27 258.15,-27"/>
<polygon fill="black" stroke="black" points="258.29,-30.5 268.29,-27 258.29,-23.5 258.29,-30.5"/>
</g>
<!-- 140465201780528&#45;&gt;140465201683184 -->
<g id="edge2" class="edge">
<title>140465201780528&#45;&gt;140465201683184</title>
<path fill="none" stroke="black" d="M542.53,-92.81C553.58,-90.13 567.21,-86.83 581.32,-83.41"/>
<polygon fill="black" stroke="black" points="582.25,-86.78 591.14,-81.03 580.6,-79.98 582.25,-86.78"/>
</g>
<!-- 140469013947296&#45;&gt;140465201683184 -->
<g id="edge3" class="edge">
<title>140469013947296&#45;&gt;140465201683184</title>
<path fill="none" stroke="black" d="M542.53,-33.19C553.58,-35.87 567.21,-39.17 581.32,-42.59"/>
<polygon fill="black" stroke="black" points="580.6,-46.02 591.14,-44.97 582.25,-39.22 580.6,-46.02"/>
</g>
</g>
</svg>
