<?xml version="1.0" encoding="UTF-8" standalone="no"?>
<!DOCTYPE svg PUBLIC "-//W3C//DTD SVG 1.1//EN"
 "http://www.w3.org/Graphics/SVG/1.1/DTD/svg11.dtd">
<!-- Generated by graphviz version 2.43.0 (0)
 -->
<!-- Title: imported_1688044903.6447995 Pages: 1 -->
<svg width="953pt" height="134pt"
 viewBox="0.00 0.00 953.00 134.00" xmlns="http://www.w3.org/2000/svg" xmlns:xlink="http://www.w3.org/1999/xlink">
<g id="graph0" class="graph" transform="scale(1 1) rotate(0) translate(4 130)">
<title>imported_1688044903.6447995</title>
<polygon fill="white" stroke="transparent" points="-4,4 -4,-130 949,-130 949,4 -4,4"/>
<!-- 140465201683520 -->
<g id="node1" class="node">
<title>140465201683520</title>
<polygon fill="white" stroke="black" points="748,-117 573,-117 573,-81 748,-81 748,-117"/>
<text text-anchor="middle" x="660.5" y="-95.9" font-family="Times,serif" font-size="12.00">Notify Result Appeal to Offender</text>
</g>
<!-- 140465201707568 -->
<g id="node9" class="node">
<title>140465201707568</title>
<ellipse fill="white" stroke="black" cx="824" cy="-99" rx="27" ry="27"/>
</g>
<!-- 140465201683520&#45;&gt;140465201707568 -->
<g id="edge7" class="edge">
<title>140465201683520&#45;&gt;140465201707568</title>
<path fill="none" stroke="black" d="M748.4,-99C761.89,-99 775.15,-99 786.66,-99"/>
<polygon fill="black" stroke="black" points="786.7,-102.5 796.7,-99 786.7,-95.5 786.7,-102.5"/>
</g>
<!-- 140465201708816 -->
<g id="node2" class="node">
<title>140465201708816</title>
<polygon fill="white" stroke="black" points="945,-81 887,-81 887,-45 945,-45 945,-81"/>
<text text-anchor="middle" x="916" y="-59.9" font-family="Times,serif" font-size="12.00">Payment</text>
</g>
<!-- 140465201682992 -->
<g id="node3" class="node">
<title>140465201682992</title>
<polygon fill="white" stroke="black" points="434,-45 294,-45 294,-9 434,-9 434,-45"/>
<text text-anchor="middle" x="364" y="-23.9" font-family="Times,serif" font-size="12.00">Send Appeal to Prefecture</text>
</g>
<!-- 140465201708624 -->
<g id="node6" class="node">
<title>140465201708624</title>
<ellipse fill="white" stroke="black" cx="497" cy="-27" rx="27" ry="27"/>
</g>
<!-- 140465201682992&#45;&gt;140465201708624 -->
<g id="edge8" class="edge">
<title>140465201682992&#45;&gt;140465201708624</title>
<path fill="none" stroke="black" d="M434.34,-27C443.13,-27 451.82,-27 459.79,-27"/>
<polygon fill="black" stroke="black" points="459.8,-30.5 469.8,-27 459.8,-23.5 459.8,-30.5"/>
</g>
<!-- 140465201708240 -->
<g id="node4" class="node">
<title>140465201708240</title>
<polygon fill="white" stroke="black" points="761,-45 560,-45 560,-9 761,-9 761,-45"/>
<text text-anchor="middle" x="660.5" y="-23.9" font-family="Times,serif" font-size="12.00">Receive Result Appeal from Prefecture</text>
</g>
<!-- 140465201705312 -->
<g id="node7" class="node">
<title>140465201705312</title>
<ellipse fill="white" stroke="black" cx="824" cy="-27" rx="27" ry="27"/>
</g>
<!-- 140465201708240&#45;&gt;140465201705312 -->
<g id="edge6" class="edge">
<title>140465201708240&#45;&gt;140465201705312</title>
<path fill="none" stroke="black" d="M761.02,-27C770.04,-27 778.72,-27 786.59,-27"/>
<polygon fill="black" stroke="black" points="786.77,-30.5 796.77,-27 786.77,-23.5 786.77,-30.5"/>
</g>
<!-- 140465201705168 -->
<g id="node5" class="node">
<title>140465201705168</title>
<polygon fill="white" stroke="black" points="168,-45 0,-45 0,-9 168,-9 168,-45"/>
<text text-anchor="middle" x="84" y="-23.9" font-family="Times,serif" font-size="12.00">Insert Date Appeal to Prefecture</text>
</g>
<!-- 140465201705072 -->
<g id="node8" class="node">
<title>140465201705072</title>
<ellipse fill="white" stroke="black" cx="231" cy="-27" rx="27" ry="27"/>
</g>
<!-- 140465201705168&#45;&gt;140465201705072 -->
<g id="edge5" class="edge">
<title>140465201705168&#45;&gt;140465201705072</title>
<path fill="none" stroke="black" d="M168.09,-27C176.96,-27 185.62,-27 193.51,-27"/>
<polygon fill="black" stroke="black" points="193.75,-30.5 203.75,-27 193.75,-23.5 193.75,-30.5"/>
</g>
<!-- 140465201708624&#45;&gt;140465201708240 -->
<g id="edge1" class="edge">
<title>140465201708624&#45;&gt;140465201708240</title>
<path fill="none" stroke="black" d="M524.31,-27C531.79,-27 540.44,-27 549.68,-27"/>
<polygon fill="black" stroke="black" points="549.9,-30.5 559.9,-27 549.9,-23.5 549.9,-30.5"/>
</g>
<!-- 140465201705312&#45;&gt;140465201708816 -->
<g id="edge2" class="edge">
<title>140465201705312&#45;&gt;140465201708816</title>
<path fill="none" stroke="black" d="M849.59,-36.84C858.17,-40.27 868,-44.2 877.39,-47.95"/>
<polygon fill="black" stroke="black" points="876.36,-51.31 886.94,-51.78 878.95,-44.81 876.36,-51.31"/>
</g>
<!-- 140465201705072&#45;&gt;140465201682992 -->
<g id="edge3" class="edge">
<title>140465201705072&#45;&gt;140465201682992</title>
<path fill="none" stroke="black" d="M258.19,-27C265.87,-27 274.69,-27 283.89,-27"/>
<polygon fill="black" stroke="black" points="283.97,-30.5 293.97,-27 283.97,-23.5 283.97,-30.5"/>
</g>
<!-- 140465201707568&#45;&gt;140465201708816 -->
<g id="edge4" class="edge">
<title>140465201707568&#45;&gt;140465201708816</title>
<path fill="none" stroke="black" d="M849.59,-89.16C858.17,-85.73 868,-81.8 877.39,-78.05"/>
<polygon fill="black" stroke="black" points="878.95,-81.19 886.94,-74.22 876.36,-74.69 878.95,-81.19"/>
</g>
</g>
</svg>
