<?xml version="1.0" encoding="UTF-8" standalone="no"?>
<!DOCTYPE svg PUBLIC "-//W3C//DTD SVG 1.1//EN"
 "http://www.w3.org/Graphics/SVG/1.1/DTD/svg11.dtd">
<!-- Generated by graphviz version 3.0.0 (20220226.1711)
 -->
<!-- Title: imported_1686809888.0181236 Pages: 1 -->
<svg width="422pt" height="134pt"
 viewBox="0.00 0.00 422.00 134.00" xmlns="http://www.w3.org/2000/svg" xmlns:xlink="http://www.w3.org/1999/xlink">
<g id="graph0" class="graph" transform="scale(1 1) rotate(0) translate(4 130)">
<title>imported_1686809888.0181236</title>
<polygon fill="white" stroke="transparent" points="-4,4 -4,-130 418,-130 418,4 -4,4"/>
<!-- 2309364393152 -->
<g id="node1" class="node">
<title>2309364393152</title>
<polygon fill="white" stroke="black" points="234,-117 180,-117 180,-81 234,-81 234,-117"/>
<text text-anchor="middle" x="207" y="-95.9" font-family="Times New Roman,serif" font-size="12.00">b</text>
</g>
<!-- 2309364392336 -->
<g id="node7" class="node">
<title>2309364392336</title>
<ellipse fill="white" stroke="black" cx="297" cy="-99" rx="27" ry="27"/>
</g>
<!-- 2309364393152&#45;&gt;2309364392336 -->
<g id="edge4" class="edge">
<title>2309364393152&#45;&gt;2309364392336</title>
<path fill="none" stroke="black" d="M234.4,-99C242.39,-99 251.31,-99 259.82,-99"/>
<polygon fill="black" stroke="black" points="259.92,-102.5 269.92,-99 259.92,-95.5 259.92,-102.5"/>
</g>
<!-- 2309364394832 -->
<g id="node2" class="node">
<title>2309364394832</title>
<polygon fill="white" stroke="black" points="234,-45 180,-45 180,-9 234,-9 234,-45"/>
<text text-anchor="middle" x="207" y="-23.9" font-family="Times New Roman,serif" font-size="12.00">d</text>
</g>
<!-- 2309363112736 -->
<g id="node6" class="node">
<title>2309363112736</title>
<ellipse fill="white" stroke="black" cx="297" cy="-27" rx="27" ry="27"/>
</g>
<!-- 2309364394832&#45;&gt;2309363112736 -->
<g id="edge6" class="edge">
<title>2309364394832&#45;&gt;2309363112736</title>
<path fill="none" stroke="black" d="M234.4,-27C242.39,-27 251.31,-27 259.82,-27"/>
<polygon fill="black" stroke="black" points="259.92,-30.5 269.92,-27 259.92,-23.5 259.92,-30.5"/>
</g>
<!-- 2309364392144 -->
<g id="node3" class="node">
<title>2309364392144</title>
<polygon fill="white" stroke="black" points="414,-81 360,-81 360,-45 414,-45 414,-81"/>
<text text-anchor="middle" x="387" y="-59.9" font-family="Times New Roman,serif" font-size="12.00">k</text>
</g>
<!-- 2309364393680 -->
<g id="node4" class="node">
<title>2309364393680</title>
<polygon fill="white" stroke="black" points="54,-45 0,-45 0,-9 54,-9 54,-45"/>
<text text-anchor="middle" x="27" y="-23.9" font-family="Times New Roman,serif" font-size="12.00">s</text>
</g>
<!-- 2309363110912 -->
<g id="node5" class="node">
<title>2309363110912</title>
<ellipse fill="white" stroke="black" cx="117" cy="-27" rx="27" ry="27"/>
</g>
<!-- 2309364393680&#45;&gt;2309363110912 -->
<g id="edge5" class="edge">
<title>2309364393680&#45;&gt;2309363110912</title>
<path fill="none" stroke="black" d="M54.4,-27C62.39,-27 71.31,-27 79.82,-27"/>
<polygon fill="black" stroke="black" points="79.92,-30.5 89.92,-27 79.92,-23.5 79.92,-30.5"/>
</g>
<!-- 2309363110912&#45;&gt;2309364394832 -->
<g id="edge1" class="edge">
<title>2309363110912&#45;&gt;2309364394832</title>
<path fill="none" stroke="black" d="M144.4,-27C152.39,-27 161.31,-27 169.82,-27"/>
<polygon fill="black" stroke="black" points="169.92,-30.5 179.92,-27 169.92,-23.5 169.92,-30.5"/>
</g>
<!-- 2309363112736&#45;&gt;2309364392144 -->
<g id="edge2" class="edge">
<title>2309363112736&#45;&gt;2309364392144</title>
<path fill="none" stroke="black" d="M322.51,-37.03C331.12,-40.55 340.97,-44.58 350.31,-48.4"/>
<polygon fill="black" stroke="black" points="349.19,-51.72 359.77,-52.27 351.84,-45.24 349.19,-51.72"/>
</g>
<!-- 2309364392336&#45;&gt;2309364392144 -->
<g id="edge3" class="edge">
<title>2309364392336&#45;&gt;2309364392144</title>
<path fill="none" stroke="black" d="M322.51,-88.97C331.12,-85.45 340.97,-81.42 350.31,-77.6"/>
<polygon fill="black" stroke="black" points="351.84,-80.76 359.77,-73.73 349.19,-74.28 351.84,-80.76"/>
</g>
</g>
</svg>
