<?xml version="1.0" encoding="UTF-8" standalone="no"?>
<!DOCTYPE svg PUBLIC "-//W3C//DTD SVG 1.1//EN"
 "http://www.w3.org/Graphics/SVG/1.1/DTD/svg11.dtd">
<!-- Generated by graphviz version 2.43.0 (0)
 -->
<!-- Title: imported_1688044916.39579 Pages: 1 -->
<svg width="687pt" height="134pt"
 viewBox="0.00 0.00 687.00 134.00" xmlns="http://www.w3.org/2000/svg" xmlns:xlink="http://www.w3.org/1999/xlink">
<g id="graph0" class="graph" transform="scale(1 1) rotate(0) translate(4 130)">
<title>imported_1688044916.39579</title>
<polygon fill="white" stroke="transparent" points="-4,4 -4,-130 683,-130 683,4 -4,4"/>
<!-- 140468994173776 -->
<g id="node1" class="node">
<title>140468994173776</title>
<polygon fill="white" stroke="black" points="679,-81 621,-81 621,-45 679,-45 679,-81"/>
<text text-anchor="middle" x="650" y="-59.9" font-family="Times,serif" font-size="12.00">Payment</text>
</g>
<!-- 140468994173200 -->
<g id="node2" class="node">
<title>140468994173200</title>
<polygon fill="white" stroke="black" points="464.5,-117 324.5,-117 324.5,-81 464.5,-81 464.5,-117"/>
<text text-anchor="middle" x="394.5" y="-95.9" font-family="Times,serif" font-size="12.00">Send Appeal to Prefecture</text>
</g>
<!-- 140464257981552 -->
<g id="node5" class="node">
<title>140464257981552</title>
<ellipse fill="white" stroke="black" cx="558" cy="-99" rx="27" ry="27"/>
</g>
<!-- 140468994173200&#45;&gt;140464257981552 -->
<g id="edge8" class="edge">
<title>140468994173200&#45;&gt;140464257981552</title>
<path fill="none" stroke="black" d="M464.93,-99C484.14,-99 504.23,-99 520.72,-99"/>
<polygon fill="black" stroke="black" points="521,-102.5 531,-99 521,-95.5 521,-102.5"/>
</g>
<!-- 140468994173488 -->
<g id="node3" class="node">
<title>140468994173488</title>
<polygon fill="white" stroke="black" points="168,-81 0,-81 0,-45 168,-45 168,-81"/>
<text text-anchor="middle" x="84" y="-59.9" font-family="Times,serif" font-size="12.00">Insert Date Appeal to Prefecture</text>
</g>
<!-- 140464257981648 -->
<g id="node7" class="node">
<title>140464257981648</title>
<ellipse fill="white" stroke="black" cx="231" cy="-99" rx="27" ry="27"/>
</g>
<!-- 140468994173488&#45;&gt;140464257981648 -->
<g id="edge5" class="edge">
<title>140468994173488&#45;&gt;140464257981648</title>
<path fill="none" stroke="black" d="M157.92,-81.11C170.78,-84.3 183.61,-87.48 194.81,-90.26"/>
<polygon fill="black" stroke="black" points="194.04,-93.68 204.59,-92.69 195.73,-86.88 194.04,-93.68"/>
</g>
<!-- 140468994171568 -->
<g id="node8" class="node">
<title>140468994171568</title>
<ellipse fill="white" stroke="black" cx="231" cy="-27" rx="27" ry="27"/>
</g>
<!-- 140468994173488&#45;&gt;140468994171568 -->
<g id="edge6" class="edge">
<title>140468994173488&#45;&gt;140468994171568</title>
<path fill="none" stroke="black" d="M157.92,-44.89C170.78,-41.7 183.61,-38.52 194.81,-35.74"/>
<polygon fill="black" stroke="black" points="195.73,-39.12 204.59,-33.31 194.04,-32.32 195.73,-39.12"/>
</g>
<!-- 140468994170944 -->
<g id="node4" class="node">
<title>140468994170944</title>
<polygon fill="white" stroke="black" points="495,-45 294,-45 294,-9 495,-9 495,-45"/>
<text text-anchor="middle" x="394.5" y="-23.9" font-family="Times,serif" font-size="12.00">Receive Result Appeal from Prefecture</text>
</g>
<!-- 140464257980784 -->
<g id="node6" class="node">
<title>140464257980784</title>
<ellipse fill="white" stroke="black" cx="558" cy="-27" rx="27" ry="27"/>
</g>
<!-- 140468994170944&#45;&gt;140464257980784 -->
<g id="edge7" class="edge">
<title>140468994170944&#45;&gt;140464257980784</title>
<path fill="none" stroke="black" d="M495.02,-27C504.04,-27 512.72,-27 520.59,-27"/>
<polygon fill="black" stroke="black" points="520.77,-30.5 530.77,-27 520.77,-23.5 520.77,-30.5"/>
</g>
<!-- 140464257981552&#45;&gt;140468994173776 -->
<g id="edge1" class="edge">
<title>140464257981552&#45;&gt;140468994173776</title>
<path fill="none" stroke="black" d="M583.59,-89.16C592.17,-85.73 602,-81.8 611.39,-78.05"/>
<polygon fill="black" stroke="black" points="612.95,-81.19 620.94,-74.22 610.36,-74.69 612.95,-81.19"/>
</g>
<!-- 140464257980784&#45;&gt;140468994173776 -->
<g id="edge2" class="edge">
<title>140464257980784&#45;&gt;140468994173776</title>
<path fill="none" stroke="black" d="M583.59,-36.84C592.17,-40.27 602,-44.2 611.39,-47.95"/>
<polygon fill="black" stroke="black" points="610.36,-51.31 620.94,-51.78 612.95,-44.81 610.36,-51.31"/>
</g>
<!-- 140464257981648&#45;&gt;140468994173200 -->
<g id="edge3" class="edge">
<title>140464257981648&#45;&gt;140468994173200</title>
<path fill="none" stroke="black" d="M258.31,-99C273.68,-99 293.97,-99 314.15,-99"/>
<polygon fill="black" stroke="black" points="314.34,-102.5 324.34,-99 314.34,-95.5 314.34,-102.5"/>
</g>
<!-- 140468994171568&#45;&gt;140468994170944 -->
<g id="edge4" class="edge">
<title>140468994171568&#45;&gt;140468994170944</title>
<path fill="none" stroke="black" d="M258.31,-27C265.79,-27 274.44,-27 283.68,-27"/>
<polygon fill="black" stroke="black" points="283.9,-30.5 293.9,-27 283.9,-23.5 283.9,-30.5"/>
</g>
</g>
</svg>
