<?xml version="1.0" encoding="UTF-8" standalone="no"?>
<!DOCTYPE svg PUBLIC "-//W3C//DTD SVG 1.1//EN"
 "http://www.w3.org/Graphics/SVG/1.1/DTD/svg11.dtd">
<!-- Generated by graphviz version 2.43.0 (0)
 -->
<!-- Title: imported_1688044916.5471857 Pages: 1 -->
<svg width="953pt" height="121pt"
 viewBox="0.00 0.00 953.00 121.00" xmlns="http://www.w3.org/2000/svg" xmlns:xlink="http://www.w3.org/1999/xlink">
<g id="graph0" class="graph" transform="scale(1 1) rotate(0) translate(4 117)">
<title>imported_1688044916.5471857</title>
<polygon fill="white" stroke="transparent" points="-4,4 -4,-117 949,-117 949,4 -4,4"/>
<!-- 140468994172144 -->
<g id="node1" class="node">
<title>140468994172144</title>
<polygon fill="white" stroke="black" points="945,-72 887,-72 887,-36 945,-36 945,-72"/>
<text text-anchor="middle" x="916" y="-50.9" font-family="Times,serif" font-size="12.00">Payment</text>
</g>
<!-- 140468994171952 -->
<g id="node2" class="node">
<title>140468994171952</title>
<polygon fill="white" stroke="black" points="761,-41 560,-41 560,-5 761,-5 761,-41"/>
<text text-anchor="middle" x="660.5" y="-19.9" font-family="Times,serif" font-size="12.00">Receive Result Appeal from Prefecture</text>
</g>
<!-- 140468994171520 -->
<g id="node7" class="node">
<title>140468994171520</title>
<ellipse fill="white" stroke="black" cx="824" cy="-27" rx="27" ry="27"/>
</g>
<!-- 140468994171952&#45;&gt;140468994171520 -->
<g id="edge6" class="edge">
<title>140468994171952&#45;&gt;140468994171520</title>
<path fill="none" stroke="black" d="M761.02,-25.46C770.04,-25.69 778.72,-25.9 786.59,-26.1"/>
<polygon fill="black" stroke="black" points="786.69,-29.6 796.77,-26.35 786.86,-22.6 786.69,-29.6"/>
</g>
<!-- 140468994174448 -->
<g id="node3" class="node">
<title>140468994174448</title>
<polygon fill="white" stroke="black" points="434,-72 294,-72 294,-36 434,-36 434,-72"/>
<text text-anchor="middle" x="364" y="-50.9" font-family="Times,serif" font-size="12.00">Send Appeal to Prefecture</text>
</g>
<!-- 140468994174064 -->
<g id="node5" class="node">
<title>140468994174064</title>
<ellipse fill="white" stroke="black" cx="660.5" cy="-86" rx="27" ry="27"/>
</g>
<!-- 140468994174448&#45;&gt;140468994174064 -->
<g id="edge7" class="edge">
<title>140468994174448&#45;&gt;140468994174064</title>
<path fill="none" stroke="black" d="M434.05,-61.5C493.32,-67.94 576.4,-76.97 623.39,-82.08"/>
<polygon fill="black" stroke="black" points="623.09,-85.56 633.41,-83.16 623.84,-78.6 623.09,-85.56"/>
</g>
<!-- 140468994172480 -->
<g id="node6" class="node">
<title>140468994172480</title>
<ellipse fill="white" stroke="black" cx="497" cy="-27" rx="27" ry="27"/>
</g>
<!-- 140468994174448&#45;&gt;140468994172480 -->
<g id="edge8" class="edge">
<title>140468994174448&#45;&gt;140468994172480</title>
<path fill="none" stroke="black" d="M434.34,-39.71C443.4,-37.84 452.36,-35.99 460.53,-34.31"/>
<polygon fill="black" stroke="black" points="461.31,-37.72 470.4,-32.28 459.9,-30.87 461.31,-37.72"/>
</g>
<!-- 140468994171760 -->
<g id="node4" class="node">
<title>140468994171760</title>
<polygon fill="white" stroke="black" points="168,-72 0,-72 0,-36 168,-36 168,-72"/>
<text text-anchor="middle" x="84" y="-50.9" font-family="Times,serif" font-size="12.00">Insert Date Appeal to Prefecture</text>
</g>
<!-- 140468994172912 -->
<g id="node8" class="node">
<title>140468994172912</title>
<ellipse fill="white" stroke="black" cx="231" cy="-54" rx="27" ry="27"/>
</g>
<!-- 140468994171760&#45;&gt;140468994172912 -->
<g id="edge5" class="edge">
<title>140468994171760&#45;&gt;140468994172912</title>
<path fill="none" stroke="black" d="M168.09,-54C176.96,-54 185.62,-54 193.51,-54"/>
<polygon fill="black" stroke="black" points="193.75,-57.5 203.75,-54 193.75,-50.5 193.75,-57.5"/>
</g>
<!-- 140468994174064&#45;&gt;140468994172144 -->
<g id="edge1" class="edge">
<title>140468994174064&#45;&gt;140468994172144</title>
<path fill="none" stroke="black" d="M687.57,-82.99C724.13,-78.74 792.67,-70.64 851,-63 859.38,-61.9 868.38,-60.67 876.9,-59.48"/>
<polygon fill="black" stroke="black" points="877.56,-62.92 886.98,-58.06 876.59,-55.99 877.56,-62.92"/>
</g>
<!-- 140468994172480&#45;&gt;140468994171952 -->
<g id="edge2" class="edge">
<title>140468994172480&#45;&gt;140468994171952</title>
<path fill="none" stroke="black" d="M524.31,-26.35C531.79,-26.16 540.44,-25.95 549.68,-25.72"/>
<polygon fill="black" stroke="black" points="549.99,-29.21 559.9,-25.47 549.82,-22.22 549.99,-29.21"/>
</g>
<!-- 140468994171520&#45;&gt;140468994172144 -->
<g id="edge3" class="edge">
<title>140468994171520&#45;&gt;140468994172144</title>
<path fill="none" stroke="black" d="M850.07,-34.52C858.47,-37.04 868.04,-39.91 877.2,-42.66"/>
<polygon fill="black" stroke="black" points="876.31,-46.05 886.9,-45.57 878.32,-39.34 876.31,-46.05"/>
</g>
<!-- 140468994172912&#45;&gt;140468994174448 -->
<g id="edge4" class="edge">
<title>140468994172912&#45;&gt;140468994174448</title>
<path fill="none" stroke="black" d="M258.19,-54C265.87,-54 274.69,-54 283.89,-54"/>
<polygon fill="black" stroke="black" points="283.97,-57.5 293.97,-54 283.97,-50.5 283.97,-57.5"/>
</g>
</g>
</svg>
