<?xml version="1.0" encoding="UTF-8" standalone="no"?>
<!DOCTYPE svg PUBLIC "-//W3C//DTD SVG 1.1//EN"
 "http://www.w3.org/Graphics/SVG/1.1/DTD/svg11.dtd">
<!-- Generated by graphviz version 2.43.0 (0)
 -->
<!-- Title: imported_1688044895.4725194 Pages: 1 -->
<svg width="687pt" height="134pt"
 viewBox="0.00 0.00 687.00 134.00" xmlns="http://www.w3.org/2000/svg" xmlns:xlink="http://www.w3.org/1999/xlink">
<g id="graph0" class="graph" transform="scale(1 1) rotate(0) translate(4 130)">
<title>imported_1688044895.4725194</title>
<polygon fill="white" stroke="transparent" points="-4,4 -4,-130 683,-130 683,4 -4,4"/>
<!-- 140465201746752 -->
<g id="node1" class="node">
<title>140465201746752</title>
<polygon fill="white" stroke="black" points="679,-81 621,-81 621,-45 679,-45 679,-81"/>
<text text-anchor="middle" x="650" y="-59.9" font-family="Times,serif" font-size="12.00">Payment</text>
</g>
<!-- 140465201748480 -->
<g id="node2" class="node">
<title>140465201748480</title>
<polygon fill="white" stroke="black" points="482,-45 307,-45 307,-9 482,-9 482,-45"/>
<text text-anchor="middle" x="394.5" y="-23.9" font-family="Times,serif" font-size="12.00">Notify Result Appeal to Offender</text>
</g>
<!-- 140465201748000 -->
<g id="node7" class="node">
<title>140465201748000</title>
<ellipse fill="white" stroke="black" cx="558" cy="-27" rx="27" ry="27"/>
</g>
<!-- 140465201748480&#45;&gt;140465201748000 -->
<g id="edge6" class="edge">
<title>140465201748480&#45;&gt;140465201748000</title>
<path fill="none" stroke="black" d="M482.4,-27C495.89,-27 509.15,-27 520.66,-27"/>
<polygon fill="black" stroke="black" points="520.7,-30.5 530.7,-27 520.7,-23.5 520.7,-30.5"/>
</g>
<!-- 140465201749152 -->
<g id="node3" class="node">
<title>140465201749152</title>
<polygon fill="white" stroke="black" points="168,-45 0,-45 0,-9 168,-9 168,-45"/>
<text text-anchor="middle" x="84" y="-23.9" font-family="Times,serif" font-size="12.00">Insert Date Appeal to Prefecture</text>
</g>
<!-- 140465201747328 -->
<g id="node6" class="node">
<title>140465201747328</title>
<ellipse fill="white" stroke="black" cx="231" cy="-27" rx="27" ry="27"/>
</g>
<!-- 140465201749152&#45;&gt;140465201747328 -->
<g id="edge4" class="edge">
<title>140465201749152&#45;&gt;140465201747328</title>
<path fill="none" stroke="black" d="M168.09,-27C176.96,-27 185.62,-27 193.51,-27"/>
<polygon fill="black" stroke="black" points="193.75,-30.5 203.75,-27 193.75,-23.5 193.75,-30.5"/>
</g>
<!-- 140465201749200 -->
<g id="node4" class="node">
<title>140465201749200</title>
<polygon fill="white" stroke="black" points="495,-117 294,-117 294,-81 495,-81 495,-117"/>
<text text-anchor="middle" x="394.5" y="-95.9" font-family="Times,serif" font-size="12.00">Receive Result Appeal from Prefecture</text>
</g>
<!-- 140465201746848 -->
<g id="node5" class="node">
<title>140465201746848</title>
<ellipse fill="white" stroke="black" cx="558" cy="-99" rx="27" ry="27"/>
</g>
<!-- 140465201749200&#45;&gt;140465201746848 -->
<g id="edge5" class="edge">
<title>140465201749200&#45;&gt;140465201746848</title>
<path fill="none" stroke="black" d="M495.02,-99C504.04,-99 512.72,-99 520.59,-99"/>
<polygon fill="black" stroke="black" points="520.77,-102.5 530.77,-99 520.77,-95.5 520.77,-102.5"/>
</g>
<!-- 140465201746848&#45;&gt;140465201746752 -->
<g id="edge1" class="edge">
<title>140465201746848&#45;&gt;140465201746752</title>
<path fill="none" stroke="black" d="M583.59,-89.16C592.17,-85.73 602,-81.8 611.39,-78.05"/>
<polygon fill="black" stroke="black" points="612.95,-81.19 620.94,-74.22 610.36,-74.69 612.95,-81.19"/>
</g>
<!-- 140465201747328&#45;&gt;140465201748480 -->
<g id="edge2" class="edge">
<title>140465201747328&#45;&gt;140465201748480</title>
<path fill="none" stroke="black" d="M258.31,-27C269.17,-27 282.49,-27 296.49,-27"/>
<polygon fill="black" stroke="black" points="296.78,-30.5 306.78,-27 296.78,-23.5 296.78,-30.5"/>
</g>
<!-- 140465201748000&#45;&gt;140465201746752 -->
<g id="edge3" class="edge">
<title>140465201748000&#45;&gt;140465201746752</title>
<path fill="none" stroke="black" d="M583.59,-36.84C592.17,-40.27 602,-44.2 611.39,-47.95"/>
<polygon fill="black" stroke="black" points="610.36,-51.31 620.94,-51.78 612.95,-44.81 610.36,-51.31"/>
</g>
</g>
</svg>
