<?xml version="1.0" encoding="UTF-8" standalone="no"?>
<!DOCTYPE svg PUBLIC "-//W3C//DTD SVG 1.1//EN"
 "http://www.w3.org/Graphics/SVG/1.1/DTD/svg11.dtd">
<!-- Generated by graphviz version 2.43.0 (0)
 -->
<!-- Title: imported_1688044901.1229916 Pages: 1 -->
<svg width="659pt" height="134pt"
 viewBox="0.00 0.00 659.00 134.00" xmlns="http://www.w3.org/2000/svg" xmlns:xlink="http://www.w3.org/1999/xlink">
<g id="graph0" class="graph" transform="scale(1 1) rotate(0) translate(4 130)">
<title>imported_1688044901.1229916</title>
<polygon fill="white" stroke="transparent" points="-4,4 -4,-130 655,-130 655,4 -4,4"/>
<!-- 140465201780912 -->
<g id="node1" class="node">
<title>140465201780912</title>
<polygon fill="white" stroke="black" points="651,-81 593,-81 593,-45 651,-45 651,-81"/>
<text text-anchor="middle" x="622" y="-59.9" font-family="Times,serif" font-size="12.00">Payment</text>
</g>
<!-- 140465201780240 -->
<g id="node2" class="node">
<title>140465201780240</title>
<polygon fill="white" stroke="black" points="140,-45 0,-45 0,-9 140,-9 140,-45"/>
<text text-anchor="middle" x="70" y="-23.9" font-family="Times,serif" font-size="12.00">Send Appeal to Prefecture</text>
</g>
<!-- 140465201705024 -->
<g id="node6" class="node">
<title>140465201705024</title>
<ellipse fill="white" stroke="black" cx="203" cy="-27" rx="27" ry="27"/>
</g>
<!-- 140465201780240&#45;&gt;140465201705024 -->
<g id="edge6" class="edge">
<title>140465201780240&#45;&gt;140465201705024</title>
<path fill="none" stroke="black" d="M140.34,-27C149.13,-27 157.82,-27 165.79,-27"/>
<polygon fill="black" stroke="black" points="165.8,-30.5 175.8,-27 165.8,-23.5 165.8,-30.5"/>
</g>
<!-- 140465201780768 -->
<g id="node3" class="node">
<title>140465201780768</title>
<polygon fill="white" stroke="black" points="467,-45 266,-45 266,-9 467,-9 467,-45"/>
<text text-anchor="middle" x="366.5" y="-23.9" font-family="Times,serif" font-size="12.00">Receive Result Appeal from Prefecture</text>
</g>
<!-- 140465201705792 -->
<g id="node7" class="node">
<title>140465201705792</title>
<ellipse fill="white" stroke="black" cx="530" cy="-27" rx="27" ry="27"/>
</g>
<!-- 140465201780768&#45;&gt;140465201705792 -->
<g id="edge5" class="edge">
<title>140465201780768&#45;&gt;140465201705792</title>
<path fill="none" stroke="black" d="M467.02,-27C476.04,-27 484.72,-27 492.59,-27"/>
<polygon fill="black" stroke="black" points="492.77,-30.5 502.77,-27 492.77,-23.5 492.77,-30.5"/>
</g>
<!-- 140465201781056 -->
<g id="node4" class="node">
<title>140465201781056</title>
<polygon fill="white" stroke="black" points="450.5,-117 282.5,-117 282.5,-81 450.5,-81 450.5,-117"/>
<text text-anchor="middle" x="366.5" y="-95.9" font-family="Times,serif" font-size="12.00">Insert Date Appeal to Prefecture</text>
</g>
<!-- 140465201707328 -->
<g id="node5" class="node">
<title>140465201707328</title>
<ellipse fill="white" stroke="black" cx="530" cy="-99" rx="27" ry="27"/>
</g>
<!-- 140465201781056&#45;&gt;140465201707328 -->
<g id="edge4" class="edge">
<title>140465201781056&#45;&gt;140465201707328</title>
<path fill="none" stroke="black" d="M450.62,-99C465.47,-99 480.22,-99 492.84,-99"/>
<polygon fill="black" stroke="black" points="492.91,-102.5 502.91,-99 492.91,-95.5 492.91,-102.5"/>
</g>
<!-- 140465201707328&#45;&gt;140465201780912 -->
<g id="edge1" class="edge">
<title>140465201707328&#45;&gt;140465201780912</title>
<path fill="none" stroke="black" d="M555.59,-89.16C564.17,-85.73 574,-81.8 583.39,-78.05"/>
<polygon fill="black" stroke="black" points="584.95,-81.19 592.94,-74.22 582.36,-74.69 584.95,-81.19"/>
</g>
<!-- 140465201705024&#45;&gt;140465201780768 -->
<g id="edge2" class="edge">
<title>140465201705024&#45;&gt;140465201780768</title>
<path fill="none" stroke="black" d="M230.31,-27C237.79,-27 246.44,-27 255.68,-27"/>
<polygon fill="black" stroke="black" points="255.9,-30.5 265.9,-27 255.9,-23.5 255.9,-30.5"/>
</g>
<!-- 140465201705792&#45;&gt;140465201780912 -->
<g id="edge3" class="edge">
<title>140465201705792&#45;&gt;140465201780912</title>
<path fill="none" stroke="black" d="M555.59,-36.84C564.17,-40.27 574,-44.2 583.39,-47.95"/>
<polygon fill="black" stroke="black" points="582.36,-51.31 592.94,-51.78 584.95,-44.81 582.36,-51.31"/>
</g>
</g>
</svg>
