<?xml version="1.0" encoding="UTF-8" standalone="no"?>
<!DOCTYPE svg PUBLIC "-//W3C//DTD SVG 1.1//EN"
 "http://www.w3.org/Graphics/SVG/1.1/DTD/svg11.dtd">
<!-- Generated by graphviz version 2.43.0 (0)
 -->
<!-- Title: imported_1688044913.8196948 Pages: 1 -->
<svg width="769pt" height="170pt"
 viewBox="0.00 0.00 769.00 170.00" xmlns="http://www.w3.org/2000/svg" xmlns:xlink="http://www.w3.org/1999/xlink">
<g id="graph0" class="graph" transform="scale(1 1) rotate(0) translate(4 166)">
<title>imported_1688044913.8196948</title>
<polygon fill="white" stroke="transparent" points="-4,4 -4,-166 765,-166 765,4 -4,4"/>
<!-- 140468994148864 -->
<g id="node1" class="node">
<title>140468994148864</title>
<polygon fill="white" stroke="black" points="761,-45 560,-45 560,-9 761,-9 761,-45"/>
<text text-anchor="middle" x="660.5" y="-23.9" font-family="Times,serif" font-size="12.00">Receive Result Appeal from Prefecture</text>
</g>
<!-- 140468994146944 -->
<g id="node2" class="node">
<title>140468994146944</title>
<polygon fill="white" stroke="black" points="748,-162 573,-162 573,-126 748,-126 748,-162"/>
<text text-anchor="middle" x="660.5" y="-140.9" font-family="Times,serif" font-size="12.00">Notify Result Appeal to Offender</text>
</g>
<!-- 140468994148768 -->
<g id="node3" class="node">
<title>140468994148768</title>
<polygon fill="white" stroke="black" points="168,-54 0,-54 0,-18 168,-18 168,-54"/>
<text text-anchor="middle" x="84" y="-32.9" font-family="Times,serif" font-size="12.00">Insert Date Appeal to Prefecture</text>
</g>
<!-- 140469013163648 -->
<g id="node8" class="node">
<title>140469013163648</title>
<ellipse fill="white" stroke="black" cx="231" cy="-36" rx="27" ry="27"/>
</g>
<!-- 140468994148768&#45;&gt;140469013163648 -->
<g id="edge6" class="edge">
<title>140468994148768&#45;&gt;140469013163648</title>
<path fill="none" stroke="black" d="M168.09,-36C176.96,-36 185.62,-36 193.51,-36"/>
<polygon fill="black" stroke="black" points="193.75,-39.5 203.75,-36 193.75,-32.5 193.75,-39.5"/>
</g>
<!-- 140464257436784 -->
<g id="node4" class="node">
<title>140464257436784</title>
<polygon fill="white" stroke="black" points="393,-117 335,-117 335,-81 393,-81 393,-117"/>
<text text-anchor="middle" x="364" y="-95.9" font-family="Times,serif" font-size="12.00">Payment</text>
</g>
<!-- 140469013573744 -->
<g id="node9" class="node">
<title>140469013573744</title>
<ellipse fill="white" stroke="black" cx="497" cy="-99" rx="27" ry="27"/>
</g>
<!-- 140464257436784&#45;&gt;140469013573744 -->
<g id="edge5" class="edge">
<title>140464257436784&#45;&gt;140469013573744</title>
<path fill="none" stroke="black" d="M393.1,-99C412.53,-99 438.55,-99 459.56,-99"/>
<polygon fill="black" stroke="black" points="459.73,-102.5 469.73,-99 459.73,-95.5 459.73,-102.5"/>
</g>
<!-- 140468994147664 -->
<g id="node5" class="node">
<title>140468994147664</title>
<polygon fill="white" stroke="black" points="434,-54 294,-54 294,-18 434,-18 434,-54"/>
<text text-anchor="middle" x="364" y="-32.9" font-family="Times,serif" font-size="12.00">Send Appeal to Prefecture</text>
</g>
<!-- 140463896741056 -->
<g id="node7" class="node">
<title>140463896741056</title>
<ellipse fill="white" stroke="black" cx="497" cy="-27" rx="27" ry="27"/>
</g>
<!-- 140468994147664&#45;&gt;140463896741056 -->
<g id="edge7" class="edge">
<title>140468994147664&#45;&gt;140463896741056</title>
<path fill="none" stroke="black" d="M434.34,-31.24C443.13,-30.63 451.82,-30.03 459.79,-29.49"/>
<polygon fill="black" stroke="black" points="460.06,-32.98 469.8,-28.8 459.58,-25.99 460.06,-32.98"/>
</g>
<!-- 140468994147664&#45;&gt;140469013573744 -->
<g id="edge8" class="edge">
<title>140468994147664&#45;&gt;140469013573744</title>
<path fill="none" stroke="black" d="M402.54,-54.05C421.73,-63.28 444.85,-74.4 463.3,-83.27"/>
<polygon fill="black" stroke="black" points="461.95,-86.51 472.47,-87.69 464.98,-80.2 461.95,-86.51"/>
</g>
<!-- 140468994148816 -->
<g id="node6" class="node">
<title>140468994148816</title>
<polygon fill="white" stroke="black" points="707.5,-108 613.5,-108 613.5,-72 707.5,-72 707.5,-108"/>
<text text-anchor="middle" x="660.5" y="-86.9" font-family="Times,serif" font-size="12.00">Appeal to Judge</text>
</g>
<!-- 140463896741056&#45;&gt;140468994148864 -->
<g id="edge1" class="edge">
<title>140463896741056&#45;&gt;140468994148864</title>
<path fill="none" stroke="black" d="M524.31,-27C531.79,-27 540.44,-27 549.68,-27"/>
<polygon fill="black" stroke="black" points="549.9,-30.5 559.9,-27 549.9,-23.5 549.9,-30.5"/>
</g>
<!-- 140469013163648&#45;&gt;140468994147664 -->
<g id="edge2" class="edge">
<title>140469013163648&#45;&gt;140468994147664</title>
<path fill="none" stroke="black" d="M258.19,-36C265.87,-36 274.69,-36 283.89,-36"/>
<polygon fill="black" stroke="black" points="283.97,-39.5 293.97,-36 283.97,-32.5 283.97,-39.5"/>
</g>
<!-- 140469013573744&#45;&gt;140468994146944 -->
<g id="edge3" class="edge">
<title>140469013573744&#45;&gt;140468994146944</title>
<path fill="none" stroke="black" d="M523.01,-106.37C534.3,-109.67 547.81,-113.58 560,-117 567.33,-119.06 574.97,-121.18 582.62,-123.28"/>
<polygon fill="black" stroke="black" points="581.72,-126.66 592.29,-125.93 583.57,-119.91 581.72,-126.66"/>
</g>
<!-- 140469013573744&#45;&gt;140468994148816 -->
<g id="edge4" class="edge">
<title>140469013573744&#45;&gt;140468994148816</title>
<path fill="none" stroke="black" d="M524.31,-97.53C545.63,-96.35 576.42,-94.63 603.24,-93.14"/>
<polygon fill="black" stroke="black" points="603.51,-96.63 613.3,-92.57 603.12,-89.64 603.51,-96.63"/>
</g>
</g>
</svg>
