<?xml version="1.0" encoding="UTF-8" standalone="no"?>
<!DOCTYPE svg PUBLIC "-//W3C//DTD SVG 1.1//EN"
 "http://www.w3.org/Graphics/SVG/1.1/DTD/svg11.dtd">
<!-- Generated by graphviz version 2.43.0 (0)
 -->
<!-- Title: imported_1688044913.5263832 Pages: 1 -->
<svg width="694pt" height="134pt"
 viewBox="0.00 0.00 694.00 134.00" xmlns="http://www.w3.org/2000/svg" xmlns:xlink="http://www.w3.org/1999/xlink">
<g id="graph0" class="graph" transform="scale(1 1) rotate(0) translate(4 130)">
<title>imported_1688044913.5263832</title>
<polygon fill="white" stroke="transparent" points="-4,4 -4,-130 690,-130 690,4 -4,4"/>
<!-- 140468994149248 -->
<g id="node1" class="node">
<title>140468994149248</title>
<polygon fill="white" stroke="black" points="686,-81 628,-81 628,-45 686,-45 686,-81"/>
<text text-anchor="middle" x="657" y="-59.9" font-family="Times,serif" font-size="12.00">Payment</text>
</g>
<!-- 140468994148288 -->
<g id="node2" class="node">
<title>140468994148288</title>
<polygon fill="white" stroke="black" points="484.5,-117 344.5,-117 344.5,-81 484.5,-81 484.5,-117"/>
<text text-anchor="middle" x="414.5" y="-95.9" font-family="Times,serif" font-size="12.00">Send Appeal to Prefecture</text>
</g>
<!-- 140468994146752 -->
<g id="node6" class="node">
<title>140468994146752</title>
<ellipse fill="white" stroke="black" cx="565" cy="-99" rx="27" ry="27"/>
</g>
<!-- 140468994148288&#45;&gt;140468994146752 -->
<g id="edge8" class="edge">
<title>140468994148288&#45;&gt;140468994146752</title>
<path fill="none" stroke="black" d="M484.53,-99C499.33,-99 514.4,-99 527.38,-99"/>
<polygon fill="black" stroke="black" points="527.75,-102.5 537.75,-99 527.75,-95.5 527.75,-102.5"/>
</g>
<!-- 140468994146464 -->
<g id="node3" class="node">
<title>140468994146464</title>
<polygon fill="white" stroke="black" points="502,-45 327,-45 327,-9 502,-9 502,-45"/>
<text text-anchor="middle" x="414.5" y="-23.9" font-family="Times,serif" font-size="12.00">Notify Result Appeal to Offender</text>
</g>
<!-- 140468994148432 -->
<g id="node9" class="node">
<title>140468994148432</title>
<ellipse fill="white" stroke="black" cx="565" cy="-27" rx="27" ry="27"/>
</g>
<!-- 140468994146464&#45;&gt;140468994148432 -->
<g id="edge7" class="edge">
<title>140468994146464&#45;&gt;140468994148432</title>
<path fill="none" stroke="black" d="M502.31,-27C511.21,-27 519.87,-27 527.74,-27"/>
<polygon fill="black" stroke="black" points="527.94,-30.5 537.94,-27 527.94,-23.5 527.94,-30.5"/>
</g>
<!-- 140468994149056 -->
<g id="node4" class="node">
<title>140468994149056</title>
<polygon fill="white" stroke="black" points="184.5,-117 16.5,-117 16.5,-81 184.5,-81 184.5,-117"/>
<text text-anchor="middle" x="100.5" y="-95.9" font-family="Times,serif" font-size="12.00">Insert Date Appeal to Prefecture</text>
</g>
<!-- 140468994148672 -->
<g id="node8" class="node">
<title>140468994148672</title>
<ellipse fill="white" stroke="black" cx="264" cy="-99" rx="27" ry="27"/>
</g>
<!-- 140468994149056&#45;&gt;140468994148672 -->
<g id="edge5" class="edge">
<title>140468994149056&#45;&gt;140468994148672</title>
<path fill="none" stroke="black" d="M184.62,-99C199.47,-99 214.22,-99 226.84,-99"/>
<polygon fill="black" stroke="black" points="226.91,-102.5 236.91,-99 226.91,-95.5 226.91,-102.5"/>
</g>
<!-- 140468994149008 -->
<g id="node5" class="node">
<title>140468994149008</title>
<polygon fill="white" stroke="black" points="201,-45 0,-45 0,-9 201,-9 201,-45"/>
<text text-anchor="middle" x="100.5" y="-23.9" font-family="Times,serif" font-size="12.00">Receive Result Appeal from Prefecture</text>
</g>
<!-- 140468994148192 -->
<g id="node7" class="node">
<title>140468994148192</title>
<ellipse fill="white" stroke="black" cx="264" cy="-27" rx="27" ry="27"/>
</g>
<!-- 140468994149008&#45;&gt;140468994148192 -->
<g id="edge6" class="edge">
<title>140468994149008&#45;&gt;140468994148192</title>
<path fill="none" stroke="black" d="M201.02,-27C210.04,-27 218.72,-27 226.59,-27"/>
<polygon fill="black" stroke="black" points="226.77,-30.5 236.77,-27 226.77,-23.5 226.77,-30.5"/>
</g>
<!-- 140468994146752&#45;&gt;140468994149248 -->
<g id="edge1" class="edge">
<title>140468994146752&#45;&gt;140468994149248</title>
<path fill="none" stroke="black" d="M590.59,-89.16C599.17,-85.73 609,-81.8 618.39,-78.05"/>
<polygon fill="black" stroke="black" points="619.95,-81.19 627.94,-74.22 617.36,-74.69 619.95,-81.19"/>
</g>
<!-- 140468994148192&#45;&gt;140468994146464 -->
<g id="edge2" class="edge">
<title>140468994148192&#45;&gt;140468994146464</title>
<path fill="none" stroke="black" d="M291.21,-27C298.73,-27 307.4,-27 316.59,-27"/>
<polygon fill="black" stroke="black" points="316.73,-30.5 326.73,-27 316.72,-23.5 316.73,-30.5"/>
</g>
<!-- 140468994148672&#45;&gt;140468994148288 -->
<g id="edge3" class="edge">
<title>140468994148672&#45;&gt;140468994148288</title>
<path fill="none" stroke="black" d="M291.21,-99C303.36,-99 318.53,-99 334.01,-99"/>
<polygon fill="black" stroke="black" points="334.19,-102.5 344.19,-99 334.19,-95.5 334.19,-102.5"/>
</g>
<!-- 140468994148432&#45;&gt;140468994149248 -->
<g id="edge4" class="edge">
<title>140468994148432&#45;&gt;140468994149248</title>
<path fill="none" stroke="black" d="M590.59,-36.84C599.17,-40.27 609,-44.2 618.39,-47.95"/>
<polygon fill="black" stroke="black" points="617.36,-51.31 627.94,-51.78 619.95,-44.81 617.36,-51.31"/>
</g>
</g>
</svg>
