<?xml version="1.0" encoding="UTF-8" standalone="no"?>
<!DOCTYPE svg PUBLIC "-//W3C//DTD SVG 1.1//EN"
 "http://www.w3.org/Graphics/SVG/1.1/DTD/svg11.dtd">
<!-- Generated by graphviz version 2.43.0 (0)
 -->
<!-- Title: imported_1688044913.5988777 Pages: 1 -->
<svg width="804pt" height="161pt"
 viewBox="0.00 0.00 804.00 161.00" xmlns="http://www.w3.org/2000/svg" xmlns:xlink="http://www.w3.org/1999/xlink">
<g id="graph0" class="graph" transform="scale(1 1) rotate(0) translate(4 157)">
<title>imported_1688044913.5988777</title>
<polygon fill="white" stroke="transparent" points="-4,4 -4,-157 800,-157 800,4 -4,4"/>
<!-- 140468994150112 -->
<g id="node1" class="node">
<title>140468994150112</title>
<polygon fill="white" stroke="black" points="495,-45 294,-45 294,-9 495,-9 495,-45"/>
<text text-anchor="middle" x="394.5" y="-23.9" font-family="Times,serif" font-size="12.00">Receive Result Appeal from Prefecture</text>
</g>
<!-- 140468994150016 -->
<g id="node7" class="node">
<title>140468994150016</title>
<ellipse fill="white" stroke="black" cx="558" cy="-27" rx="27" ry="27"/>
</g>
<!-- 140468994150112&#45;&gt;140468994150016 -->
<g id="edge9" class="edge">
<title>140468994150112&#45;&gt;140468994150016</title>
<path fill="none" stroke="black" d="M495.02,-27C504.04,-27 512.72,-27 520.59,-27"/>
<polygon fill="black" stroke="black" points="520.77,-30.5 530.77,-27 520.77,-23.5 520.77,-30.5"/>
</g>
<!-- 140468994149728 -->
<g id="node2" class="node">
<title>140468994149728</title>
<polygon fill="white" stroke="black" points="168,-99 0,-99 0,-63 168,-63 168,-99"/>
<text text-anchor="middle" x="84" y="-77.9" font-family="Times,serif" font-size="12.00">Insert Date Appeal to Prefecture</text>
</g>
<!-- 140468994149968 -->
<g id="node8" class="node">
<title>140468994149968</title>
<ellipse fill="white" stroke="black" cx="231" cy="-126" rx="27" ry="27"/>
</g>
<!-- 140468994149728&#45;&gt;140468994149968 -->
<g id="edge7" class="edge">
<title>140468994149728&#45;&gt;140468994149968</title>
<path fill="none" stroke="black" d="M143.14,-99.04C160.72,-104.5 179.47,-110.32 195.04,-115.15"/>
<polygon fill="black" stroke="black" points="194.18,-118.55 204.76,-118.17 196.25,-111.86 194.18,-118.55"/>
</g>
<!-- 140468994146992 -->
<g id="node10" class="node">
<title>140468994146992</title>
<ellipse fill="white" stroke="black" cx="231" cy="-45" rx="27" ry="27"/>
</g>
<!-- 140468994149728&#45;&gt;140468994146992 -->
<g id="edge8" class="edge">
<title>140468994149728&#45;&gt;140468994146992</title>
<path fill="none" stroke="black" d="M157.92,-62.89C170.78,-59.7 183.61,-56.52 194.81,-53.74"/>
<polygon fill="black" stroke="black" points="195.73,-57.12 204.59,-51.31 194.04,-50.32 195.73,-57.12"/>
</g>
<!-- 140468994148480 -->
<g id="node3" class="node">
<title>140468994148480</title>
<polygon fill="white" stroke="black" points="464.5,-153 324.5,-153 324.5,-117 464.5,-117 464.5,-153"/>
<text text-anchor="middle" x="394.5" y="-131.9" font-family="Times,serif" font-size="12.00">Send Appeal to Prefecture</text>
</g>
<!-- 140468994148816 -->
<g id="node9" class="node">
<title>140468994148816</title>
<ellipse fill="white" stroke="black" cx="558" cy="-99" rx="27" ry="27"/>
</g>
<!-- 140468994148480&#45;&gt;140468994148816 -->
<g id="edge10" class="edge">
<title>140468994148480&#45;&gt;140468994148816</title>
<path fill="none" stroke="black" d="M464.93,-119.52C484.47,-115.17 504.91,-110.61 521.56,-106.9"/>
<polygon fill="black" stroke="black" points="522.39,-110.3 531.39,-104.71 520.87,-103.47 522.39,-110.3"/>
</g>
<!-- 140468994150160 -->
<g id="node4" class="node">
<title>140468994150160</title>
<polygon fill="white" stroke="black" points="423.5,-99 365.5,-99 365.5,-63 423.5,-63 423.5,-99"/>
<text text-anchor="middle" x="394.5" y="-77.9" font-family="Times,serif" font-size="12.00">Payment</text>
</g>
<!-- 140468994150160&#45;&gt;140468994148816 -->
<g id="edge6" class="edge">
<title>140468994150160&#45;&gt;140468994148816</title>
<path fill="none" stroke="black" d="M423.63,-84.14C450.59,-87.14 491.42,-91.69 520.8,-94.97"/>
<polygon fill="black" stroke="black" points="520.73,-98.48 531.06,-96.11 521.51,-91.52 520.73,-98.48"/>
</g>
<!-- 140468994147856 -->
<g id="node5" class="node">
<title>140468994147856</title>
<polygon fill="white" stroke="black" points="796,-54 621,-54 621,-18 796,-18 796,-54"/>
<text text-anchor="middle" x="708.5" y="-32.9" font-family="Times,serif" font-size="12.00">Notify Result Appeal to Offender</text>
</g>
<!-- 140468994147664 -->
<g id="node6" class="node">
<title>140468994147664</title>
<polygon fill="white" stroke="black" points="755.5,-117 661.5,-117 661.5,-81 755.5,-81 755.5,-117"/>
<text text-anchor="middle" x="708.5" y="-95.9" font-family="Times,serif" font-size="12.00">Appeal to Judge</text>
</g>
<!-- 140468994150016&#45;&gt;140468994147856 -->
<g id="edge1" class="edge">
<title>140468994150016&#45;&gt;140468994147856</title>
<path fill="none" stroke="black" d="M585.21,-28.59C592.73,-29.04 601.4,-29.57 610.59,-30.13"/>
<polygon fill="black" stroke="black" points="610.53,-33.63 620.73,-30.74 610.96,-26.64 610.53,-33.63"/>
</g>
<!-- 140468994149968&#45;&gt;140468994148480 -->
<g id="edge2" class="edge">
<title>140468994149968&#45;&gt;140468994148480</title>
<path fill="none" stroke="black" d="M258.31,-127.47C273.68,-128.32 293.97,-129.45 314.15,-130.58"/>
<polygon fill="black" stroke="black" points="314.16,-134.08 324.34,-131.15 314.55,-127.09 314.16,-134.08"/>
</g>
<!-- 140468994148816&#45;&gt;140468994147856 -->
<g id="edge4" class="edge">
<title>140468994148816&#45;&gt;140468994147856</title>
<path fill="none" stroke="black" d="M583.1,-88.39C594.57,-83.38 608.47,-77.34 621,-72 631.65,-67.47 643.06,-62.67 653.99,-58.11"/>
<polygon fill="black" stroke="black" points="655.55,-61.25 663.44,-54.18 652.86,-54.79 655.55,-61.25"/>
</g>
<!-- 140468994148816&#45;&gt;140468994147664 -->
<g id="edge3" class="edge">
<title>140468994148816&#45;&gt;140468994147664</title>
<path fill="none" stroke="black" d="M585.21,-99C603.48,-99 628.54,-99 651.23,-99"/>
<polygon fill="black" stroke="black" points="651.45,-102.5 661.45,-99 651.45,-95.5 651.45,-102.5"/>
</g>
<!-- 140468994146992&#45;&gt;140468994150112 -->
<g id="edge5" class="edge">
<title>140468994146992&#45;&gt;140468994150112</title>
<path fill="none" stroke="black" d="M257.95,-42.11C265.56,-41.26 274.4,-40.27 283.85,-39.22"/>
<polygon fill="black" stroke="black" points="284.34,-42.69 293.89,-38.1 283.56,-35.73 284.34,-42.69"/>
</g>
</g>
</svg>
