<?xml version="1.0" encoding="UTF-8" standalone="no"?>
<!DOCTYPE svg PUBLIC "-//W3C//DTD SVG 1.1//EN"
 "http://www.w3.org/Graphics/SVG/1.1/DTD/svg11.dtd">
<!-- Generated by graphviz version 2.43.0 (0)
 -->
<!-- Title: imported_1688044913.902988 Pages: 1 -->
<svg width="687pt" height="134pt"
 viewBox="0.00 0.00 687.00 134.00" xmlns="http://www.w3.org/2000/svg" xmlns:xlink="http://www.w3.org/1999/xlink">
<g id="graph0" class="graph" transform="scale(1 1) rotate(0) translate(4 130)">
<title>imported_1688044913.902988</title>
<polygon fill="white" stroke="transparent" points="-4,4 -4,-130 683,-130 683,4 -4,4"/>
<!-- 140468994148000 -->
<g id="node1" class="node">
<title>140468994148000</title>
<polygon fill="white" stroke="black" points="495,-45 294,-45 294,-9 495,-9 495,-45"/>
<text text-anchor="middle" x="394.5" y="-23.9" font-family="Times,serif" font-size="12.00">Receive Result Appeal from Prefecture</text>
</g>
<!-- 140468994147808 -->
<g id="node7" class="node">
<title>140468994147808</title>
<ellipse fill="white" stroke="black" cx="558" cy="-27" rx="27" ry="27"/>
</g>
<!-- 140468994148000&#45;&gt;140468994147808 -->
<g id="edge6" class="edge">
<title>140468994148000&#45;&gt;140468994147808</title>
<path fill="none" stroke="black" d="M495.02,-27C504.04,-27 512.72,-27 520.59,-27"/>
<polygon fill="black" stroke="black" points="520.77,-30.5 530.77,-27 520.77,-23.5 520.77,-30.5"/>
</g>
<!-- 140468994150160 -->
<g id="node2" class="node">
<title>140468994150160</title>
<polygon fill="white" stroke="black" points="679,-81 621,-81 621,-45 679,-45 679,-81"/>
<text text-anchor="middle" x="650" y="-59.9" font-family="Times,serif" font-size="12.00">Payment</text>
</g>
<!-- 140468994150064 -->
<g id="node3" class="node">
<title>140468994150064</title>
<polygon fill="white" stroke="black" points="154,-45 14,-45 14,-9 154,-9 154,-45"/>
<text text-anchor="middle" x="84" y="-23.9" font-family="Times,serif" font-size="12.00">Send Appeal to Prefecture</text>
</g>
<!-- 140468994148144 -->
<g id="node6" class="node">
<title>140468994148144</title>
<ellipse fill="white" stroke="black" cx="231" cy="-27" rx="27" ry="27"/>
</g>
<!-- 140468994150064&#45;&gt;140468994148144 -->
<g id="edge8" class="edge">
<title>140468994150064&#45;&gt;140468994148144</title>
<path fill="none" stroke="black" d="M154.1,-27C167.76,-27 181.57,-27 193.6,-27"/>
<polygon fill="black" stroke="black" points="193.67,-30.5 203.67,-27 193.67,-23.5 193.67,-30.5"/>
</g>
<!-- 140468994147376 -->
<g id="node4" class="node">
<title>140468994147376</title>
<polygon fill="white" stroke="black" points="482,-117 307,-117 307,-81 482,-81 482,-117"/>
<text text-anchor="middle" x="394.5" y="-95.9" font-family="Times,serif" font-size="12.00">Notify Result Appeal to Offender</text>
</g>
<!-- 140468994147184 -->
<g id="node9" class="node">
<title>140468994147184</title>
<ellipse fill="white" stroke="black" cx="558" cy="-99" rx="27" ry="27"/>
</g>
<!-- 140468994147376&#45;&gt;140468994147184 -->
<g id="edge7" class="edge">
<title>140468994147376&#45;&gt;140468994147184</title>
<path fill="none" stroke="black" d="M482.4,-99C495.89,-99 509.15,-99 520.66,-99"/>
<polygon fill="black" stroke="black" points="520.7,-102.5 530.7,-99 520.7,-95.5 520.7,-102.5"/>
</g>
<!-- 140468994146992 -->
<g id="node5" class="node">
<title>140468994146992</title>
<polygon fill="white" stroke="black" points="168,-117 0,-117 0,-81 168,-81 168,-117"/>
<text text-anchor="middle" x="84" y="-95.9" font-family="Times,serif" font-size="12.00">Insert Date Appeal to Prefecture</text>
</g>
<!-- 140468994147568 -->
<g id="node8" class="node">
<title>140468994147568</title>
<ellipse fill="white" stroke="black" cx="231" cy="-99" rx="27" ry="27"/>
</g>
<!-- 140468994146992&#45;&gt;140468994147568 -->
<g id="edge5" class="edge">
<title>140468994146992&#45;&gt;140468994147568</title>
<path fill="none" stroke="black" d="M168.09,-99C176.96,-99 185.62,-99 193.51,-99"/>
<polygon fill="black" stroke="black" points="193.75,-102.5 203.75,-99 193.75,-95.5 193.75,-102.5"/>
</g>
<!-- 140468994148144&#45;&gt;140468994148000 -->
<g id="edge1" class="edge">
<title>140468994148144&#45;&gt;140468994148000</title>
<path fill="none" stroke="black" d="M258.31,-27C265.79,-27 274.44,-27 283.68,-27"/>
<polygon fill="black" stroke="black" points="283.9,-30.5 293.9,-27 283.9,-23.5 283.9,-30.5"/>
</g>
<!-- 140468994147808&#45;&gt;140468994150160 -->
<g id="edge2" class="edge">
<title>140468994147808&#45;&gt;140468994150160</title>
<path fill="none" stroke="black" d="M583.59,-36.84C592.17,-40.27 602,-44.2 611.39,-47.95"/>
<polygon fill="black" stroke="black" points="610.36,-51.31 620.94,-51.78 612.95,-44.81 610.36,-51.31"/>
</g>
<!-- 140468994147568&#45;&gt;140468994147376 -->
<g id="edge3" class="edge">
<title>140468994147568&#45;&gt;140468994147376</title>
<path fill="none" stroke="black" d="M258.31,-99C269.17,-99 282.49,-99 296.49,-99"/>
<polygon fill="black" stroke="black" points="296.78,-102.5 306.78,-99 296.78,-95.5 296.78,-102.5"/>
</g>
<!-- 140468994147184&#45;&gt;140468994150160 -->
<g id="edge4" class="edge">
<title>140468994147184&#45;&gt;140468994150160</title>
<path fill="none" stroke="black" d="M583.59,-89.16C592.17,-85.73 602,-81.8 611.39,-78.05"/>
<polygon fill="black" stroke="black" points="612.95,-81.19 620.94,-74.22 610.36,-74.69 612.95,-81.19"/>
</g>
</g>
</svg>
