<?xml version="1.0" encoding="UTF-8" standalone="no"?>
<!DOCTYPE svg PUBLIC "-//W3C//DTD SVG 1.1//EN"
 "http://www.w3.org/Graphics/SVG/1.1/DTD/svg11.dtd">
<!-- Generated by graphviz version 2.43.0 (0)
 -->
<!-- Title: imported_1688044914.4146037 Pages: 1 -->
<svg width="988pt" height="134pt"
 viewBox="0.00 0.00 988.00 134.00" xmlns="http://www.w3.org/2000/svg" xmlns:xlink="http://www.w3.org/1999/xlink">
<g id="graph0" class="graph" transform="scale(1 1) rotate(0) translate(4 130)">
<title>imported_1688044914.4146037</title>
<polygon fill="white" stroke="transparent" points="-4,4 -4,-130 984,-130 984,4 -4,4"/>
<!-- 140468994102464 -->
<g id="node1" class="node">
<title>140468994102464</title>
<polygon fill="white" stroke="black" points="980,-81 922,-81 922,-45 980,-45 980,-81"/>
<text text-anchor="middle" x="951" y="-59.9" font-family="Times,serif" font-size="12.00">Payment</text>
</g>
<!-- 140465201662176 -->
<g id="node2" class="node">
<title>140465201662176</title>
<polygon fill="white" stroke="black" points="154,-117 14,-117 14,-81 154,-81 154,-117"/>
<text text-anchor="middle" x="84" y="-95.9" font-family="Times,serif" font-size="12.00">Send Appeal to Prefecture</text>
</g>
<!-- 140468994104960 -->
<g id="node6" class="node">
<title>140468994104960</title>
<ellipse fill="white" stroke="black" cx="231" cy="-99" rx="27" ry="27"/>
</g>
<!-- 140465201662176&#45;&gt;140468994104960 -->
<g id="edge2" class="edge">
<title>140465201662176&#45;&gt;140468994104960</title>
<path fill="none" stroke="black" d="M154.1,-99C167.76,-99 181.57,-99 193.6,-99"/>
<polygon fill="black" stroke="black" points="193.67,-102.5 203.67,-99 193.67,-95.5 193.67,-102.5"/>
</g>
<!-- 140465201662272 -->
<g id="node3" class="node">
<title>140465201662272</title>
<polygon fill="white" stroke="black" points="796,-50 621,-50 621,-14 796,-14 796,-50"/>
<text text-anchor="middle" x="708.5" y="-28.9" font-family="Times,serif" font-size="12.00">Notify Result Appeal to Offender</text>
</g>
<!-- 140468994103040 -->
<g id="node10" class="node">
<title>140468994103040</title>
<ellipse fill="white" stroke="black" cx="859" cy="-36" rx="27" ry="27"/>
</g>
<!-- 140465201662272&#45;&gt;140468994103040 -->
<g id="edge10" class="edge">
<title>140465201662272&#45;&gt;140468994103040</title>
<path fill="none" stroke="black" d="M796.31,-34.34C805.21,-34.58 813.87,-34.81 821.74,-35.02"/>
<polygon fill="black" stroke="black" points="821.85,-38.53 831.94,-35.3 822.04,-31.53 821.85,-38.53"/>
</g>
<!-- 140465201660208 -->
<g id="node4" class="node">
<title>140465201660208</title>
<polygon fill="white" stroke="black" points="495,-81 294,-81 294,-45 495,-45 495,-81"/>
<text text-anchor="middle" x="394.5" y="-59.9" font-family="Times,serif" font-size="12.00">Receive Result Appeal from Prefecture</text>
</g>
<!-- 140468994102416 -->
<g id="node7" class="node">
<title>140468994102416</title>
<ellipse fill="white" stroke="black" cx="708.5" cy="-95" rx="27" ry="27"/>
</g>
<!-- 140465201660208&#45;&gt;140468994102416 -->
<g id="edge8" class="edge">
<title>140465201660208&#45;&gt;140468994102416</title>
<path fill="none" stroke="black" d="M495.08,-73.21C555.38,-79.4 628.67,-86.92 671.51,-91.31"/>
<polygon fill="black" stroke="black" points="671.15,-94.79 681.45,-92.33 671.86,-87.83 671.15,-94.79"/>
</g>
<!-- 140468994104240 -->
<g id="node8" class="node">
<title>140468994104240</title>
<ellipse fill="white" stroke="black" cx="558" cy="-36" rx="27" ry="27"/>
</g>
<!-- 140465201660208&#45;&gt;140468994104240 -->
<g id="edge9" class="edge">
<title>140465201660208&#45;&gt;140468994104240</title>
<path fill="none" stroke="black" d="M495.02,-46.36C504.23,-44.82 513.09,-43.34 521.09,-42"/>
<polygon fill="black" stroke="black" points="521.79,-45.44 531.07,-40.33 520.63,-38.53 521.79,-45.44"/>
</g>
<!-- 140468994104912 -->
<g id="node5" class="node">
<title>140468994104912</title>
<polygon fill="white" stroke="black" points="168,-45 0,-45 0,-9 168,-9 168,-45"/>
<text text-anchor="middle" x="84" y="-23.9" font-family="Times,serif" font-size="12.00">Insert Date Appeal to Prefecture</text>
</g>
<!-- 140468994102704 -->
<g id="node9" class="node">
<title>140468994102704</title>
<ellipse fill="white" stroke="black" cx="231" cy="-27" rx="27" ry="27"/>
</g>
<!-- 140468994104912&#45;&gt;140468994102704 -->
<g id="edge7" class="edge">
<title>140468994104912&#45;&gt;140468994102704</title>
<path fill="none" stroke="black" d="M168.09,-27C176.96,-27 185.62,-27 193.51,-27"/>
<polygon fill="black" stroke="black" points="193.75,-30.5 203.75,-27 193.75,-23.5 193.75,-30.5"/>
</g>
<!-- 140468994104960&#45;&gt;140465201660208 -->
<g id="edge1" class="edge">
<title>140468994104960&#45;&gt;140465201660208</title>
<path fill="none" stroke="black" d="M257.59,-93.3C270.16,-90.49 286.13,-86.93 302.69,-83.24"/>
<polygon fill="black" stroke="black" points="303.48,-86.65 312.48,-81.06 301.95,-79.82 303.48,-86.65"/>
</g>
<!-- 140468994102416&#45;&gt;140468994102464 -->
<g id="edge3" class="edge">
<title>140468994102416&#45;&gt;140468994102464</title>
<path fill="none" stroke="black" d="M735.53,-91.69C769.97,-87.3 832.57,-79.24 886,-72 894.38,-70.86 903.37,-69.62 911.89,-68.42"/>
<polygon fill="black" stroke="black" points="912.56,-71.86 921.97,-67 911.58,-64.93 912.56,-71.86"/>
</g>
<!-- 140468994104240&#45;&gt;140465201662272 -->
<g id="edge4" class="edge">
<title>140468994104240&#45;&gt;140465201662272</title>
<path fill="none" stroke="black" d="M585.21,-35.29C592.73,-35.09 601.4,-34.86 610.59,-34.61"/>
<polygon fill="black" stroke="black" points="610.82,-38.11 620.73,-34.34 610.63,-31.11 610.82,-38.11"/>
</g>
<!-- 140468994102704&#45;&gt;140465201660208 -->
<g id="edge5" class="edge">
<title>140468994102704&#45;&gt;140465201660208</title>
<path fill="none" stroke="black" d="M257.59,-32.7C270.16,-35.51 286.13,-39.07 302.69,-42.76"/>
<polygon fill="black" stroke="black" points="301.95,-46.18 312.48,-44.94 303.48,-39.35 301.95,-46.18"/>
</g>
<!-- 140468994103040&#45;&gt;140468994102464 -->
<g id="edge6" class="edge">
<title>140468994103040&#45;&gt;140468994102464</title>
<path fill="none" stroke="black" d="M885.07,-43.52C893.47,-46.04 903.04,-48.91 912.2,-51.66"/>
<polygon fill="black" stroke="black" points="911.31,-55.05 921.9,-54.57 913.32,-48.34 911.31,-55.05"/>
</g>
</g>
</svg>
