<?xml version="1.0" encoding="UTF-8" standalone="no"?>
<!DOCTYPE svg PUBLIC "-//W3C//DTD SVG 1.1//EN"
 "http://www.w3.org/Graphics/SVG/1.1/DTD/svg11.dtd">
<!-- Generated by graphviz version 2.43.0 (0)
 -->
<!-- Title: imported_1688044914.7818494 Pages: 1 -->
<svg width="988pt" height="134pt"
 viewBox="0.00 0.00 988.00 134.00" xmlns="http://www.w3.org/2000/svg" xmlns:xlink="http://www.w3.org/1999/xlink">
<g id="graph0" class="graph" transform="scale(1 1) rotate(0) translate(4 130)">
<title>imported_1688044914.7818494</title>
<polygon fill="white" stroke="transparent" points="-4,4 -4,-130 984,-130 984,4 -4,4"/>
<!-- 140465201907264 -->
<g id="node1" class="node">
<title>140465201907264</title>
<polygon fill="white" stroke="black" points="469,-116 294,-116 294,-80 469,-80 469,-116"/>
<text text-anchor="middle" x="381.5" y="-94.9" font-family="Times,serif" font-size="12.00">Notify Result Appeal to Offender</text>
</g>
<!-- 140465201907744 -->
<g id="node10" class="node">
<title>140465201907744</title>
<ellipse fill="white" stroke="black" cx="695.5" cy="-97" rx="27" ry="27"/>
</g>
<!-- 140465201907264&#45;&gt;140465201907744 -->
<g id="edge10" class="edge">
<title>140465201907264&#45;&gt;140465201907744</title>
<path fill="none" stroke="black" d="M469.41,-97.72C531.64,-97.52 612.25,-97.26 658.18,-97.12"/>
<polygon fill="black" stroke="black" points="658.27,-100.62 668.26,-97.08 658.25,-93.62 658.27,-100.62"/>
</g>
<!-- 140465201907360 -->
<g id="node2" class="node">
<title>140465201907360</title>
<polygon fill="white" stroke="black" points="168,-81 0,-81 0,-45 168,-45 168,-81"/>
<text text-anchor="middle" x="84" y="-59.9" font-family="Times,serif" font-size="12.00">Insert Date Appeal to Prefecture</text>
</g>
<!-- 140465201906640 -->
<g id="node8" class="node">
<title>140465201906640</title>
<ellipse fill="white" stroke="black" cx="231" cy="-99" rx="27" ry="27"/>
</g>
<!-- 140465201907360&#45;&gt;140465201906640 -->
<g id="edge7" class="edge">
<title>140465201907360&#45;&gt;140465201906640</title>
<path fill="none" stroke="black" d="M157.92,-81.11C170.78,-84.3 183.61,-87.48 194.81,-90.26"/>
<polygon fill="black" stroke="black" points="194.04,-93.68 204.59,-92.69 195.73,-86.88 194.04,-93.68"/>
</g>
<!-- 140465201908704 -->
<g id="node9" class="node">
<title>140465201908704</title>
<ellipse fill="white" stroke="black" cx="231" cy="-27" rx="27" ry="27"/>
</g>
<!-- 140465201907360&#45;&gt;140465201908704 -->
<g id="edge8" class="edge">
<title>140465201907360&#45;&gt;140465201908704</title>
<path fill="none" stroke="black" d="M157.92,-44.89C170.78,-41.7 183.61,-38.52 194.81,-35.74"/>
<polygon fill="black" stroke="black" points="195.73,-39.12 204.59,-33.31 194.04,-32.32 195.73,-39.12"/>
</g>
<!-- 140465201907648 -->
<g id="node3" class="node">
<title>140465201907648</title>
<polygon fill="white" stroke="black" points="451.5,-45 311.5,-45 311.5,-9 451.5,-9 451.5,-45"/>
<text text-anchor="middle" x="381.5" y="-23.9" font-family="Times,serif" font-size="12.00">Send Appeal to Prefecture</text>
</g>
<!-- 140465201908896 -->
<g id="node6" class="node">
<title>140465201908896</title>
<ellipse fill="white" stroke="black" cx="532" cy="-31" rx="27" ry="27"/>
</g>
<!-- 140465201907648&#45;&gt;140465201908896 -->
<g id="edge2" class="edge">
<title>140465201907648&#45;&gt;140465201908896</title>
<path fill="none" stroke="black" d="M451.53,-28.86C466.33,-29.26 481.4,-29.66 494.38,-30.01"/>
<polygon fill="black" stroke="black" points="494.65,-33.52 504.75,-30.29 494.84,-26.52 494.65,-33.52"/>
</g>
<!-- 140465201908176 -->
<g id="node4" class="node">
<title>140465201908176</title>
<polygon fill="white" stroke="black" points="980,-82 922,-82 922,-46 980,-46 980,-82"/>
<text text-anchor="middle" x="951" y="-60.9" font-family="Times,serif" font-size="12.00">Payment</text>
</g>
<!-- 140465201909040 -->
<g id="node5" class="node">
<title>140465201909040</title>
<polygon fill="white" stroke="black" points="796,-51 595,-51 595,-15 796,-15 796,-51"/>
<text text-anchor="middle" x="695.5" y="-29.9" font-family="Times,serif" font-size="12.00">Receive Result Appeal from Prefecture</text>
</g>
<!-- 140465201907600 -->
<g id="node7" class="node">
<title>140465201907600</title>
<ellipse fill="white" stroke="black" cx="859" cy="-37" rx="27" ry="27"/>
</g>
<!-- 140465201909040&#45;&gt;140465201907600 -->
<g id="edge9" class="edge">
<title>140465201909040&#45;&gt;140465201907600</title>
<path fill="none" stroke="black" d="M796.02,-35.46C805.04,-35.69 813.72,-35.9 821.59,-36.1"/>
<polygon fill="black" stroke="black" points="821.69,-39.6 831.77,-36.35 821.86,-32.6 821.69,-39.6"/>
</g>
<!-- 140465201908896&#45;&gt;140465201909040 -->
<g id="edge1" class="edge">
<title>140465201908896&#45;&gt;140465201909040</title>
<path fill="none" stroke="black" d="M559.31,-31.33C566.79,-31.42 575.44,-31.53 584.68,-31.64"/>
<polygon fill="black" stroke="black" points="584.86,-35.14 594.9,-31.77 584.94,-28.14 584.86,-35.14"/>
</g>
<!-- 140465201907600&#45;&gt;140465201908176 -->
<g id="edge3" class="edge">
<title>140465201907600&#45;&gt;140465201908176</title>
<path fill="none" stroke="black" d="M885.07,-44.52C893.47,-47.04 903.04,-49.91 912.2,-52.66"/>
<polygon fill="black" stroke="black" points="911.31,-56.05 921.9,-55.57 913.32,-49.34 911.31,-56.05"/>
</g>
<!-- 140465201906640&#45;&gt;140465201907264 -->
<g id="edge4" class="edge">
<title>140465201906640&#45;&gt;140465201907264</title>
<path fill="none" stroke="black" d="M258.21,-98.82C265.73,-98.77 274.4,-98.71 283.59,-98.65"/>
<polygon fill="black" stroke="black" points="283.75,-102.15 293.73,-98.58 283.7,-95.15 283.75,-102.15"/>
</g>
<!-- 140465201908704&#45;&gt;140465201907648 -->
<g id="edge5" class="edge">
<title>140465201908704&#45;&gt;140465201907648</title>
<path fill="none" stroke="black" d="M258.21,-27C270.36,-27 285.53,-27 301.01,-27"/>
<polygon fill="black" stroke="black" points="301.19,-30.5 311.19,-27 301.19,-23.5 301.19,-30.5"/>
</g>
<!-- 140465201907744&#45;&gt;140465201908176 -->
<g id="edge6" class="edge">
<title>140465201907744&#45;&gt;140465201908176</title>
<path fill="none" stroke="black" d="M722.57,-93.81C759.12,-89.32 827.66,-80.8 886,-73 894.38,-71.88 903.37,-70.64 911.89,-69.45"/>
<polygon fill="black" stroke="black" points="912.56,-72.89 921.97,-68.03 911.58,-65.96 912.56,-72.89"/>
</g>
</g>
</svg>
