<?xml version="1.0" encoding="UTF-8" standalone="no"?>
<!DOCTYPE svg PUBLIC "-//W3C//DTD SVG 1.1//EN"
 "http://www.w3.org/Graphics/SVG/1.1/DTD/svg11.dtd">
<!-- Generated by graphviz version 2.43.0 (0)
 -->
<!-- Title: imported_1688044915.0607276 Pages: 1 -->
<svg width="1070pt" height="134pt"
 viewBox="0.00 0.00 1070.00 134.00" xmlns="http://www.w3.org/2000/svg" xmlns:xlink="http://www.w3.org/1999/xlink">
<g id="graph0" class="graph" transform="scale(1 1) rotate(0) translate(4 130)">
<title>imported_1688044915.0607276</title>
<polygon fill="white" stroke="transparent" points="-4,4 -4,-130 1066,-130 1066,4 -4,4"/>
<!-- 140468994146368 -->
<g id="node1" class="node">
<title>140468994146368</title>
<polygon fill="white" stroke="black" points="168,-81 0,-81 0,-45 168,-45 168,-81"/>
<text text-anchor="middle" x="84" y="-59.9" font-family="Times,serif" font-size="12.00">Insert Date Appeal to Prefecture</text>
</g>
<!-- 140468994146656 -->
<g id="node6" class="node">
<title>140468994146656</title>
<ellipse fill="white" stroke="black" cx="231" cy="-99" rx="27" ry="27"/>
</g>
<!-- 140468994146368&#45;&gt;140468994146656 -->
<g id="edge5" class="edge">
<title>140468994146368&#45;&gt;140468994146656</title>
<path fill="none" stroke="black" d="M157.92,-81.11C170.78,-84.3 183.61,-87.48 194.81,-90.26"/>
<polygon fill="black" stroke="black" points="194.04,-93.68 204.59,-92.69 195.73,-86.88 194.04,-93.68"/>
</g>
<!-- 140468994146608 -->
<g id="node9" class="node">
<title>140468994146608</title>
<ellipse fill="white" stroke="black" cx="231" cy="-27" rx="27" ry="27"/>
</g>
<!-- 140468994146368&#45;&gt;140468994146608 -->
<g id="edge6" class="edge">
<title>140468994146368&#45;&gt;140468994146608</title>
<path fill="none" stroke="black" d="M157.92,-44.89C170.78,-41.7 183.61,-38.52 194.81,-35.74"/>
<polygon fill="black" stroke="black" points="195.73,-39.12 204.59,-33.31 194.04,-32.32 195.73,-39.12"/>
</g>
<!-- 140468994149440 -->
<g id="node2" class="node">
<title>140468994149440</title>
<polygon fill="white" stroke="black" points="434,-45 294,-45 294,-9 434,-9 434,-45"/>
<text text-anchor="middle" x="364" y="-23.9" font-family="Times,serif" font-size="12.00">Send Appeal to Prefecture</text>
</g>
<!-- 140468994149200 -->
<g id="node7" class="node">
<title>140468994149200</title>
<ellipse fill="white" stroke="black" cx="497" cy="-27" rx="27" ry="27"/>
</g>
<!-- 140468994149440&#45;&gt;140468994149200 -->
<g id="edge8" class="edge">
<title>140468994149440&#45;&gt;140468994149200</title>
<path fill="none" stroke="black" d="M434.34,-27C443.13,-27 451.82,-27 459.79,-27"/>
<polygon fill="black" stroke="black" points="459.8,-30.5 469.8,-27 459.8,-23.5 459.8,-30.5"/>
</g>
<!-- 140468994150256 -->
<g id="node3" class="node">
<title>140468994150256</title>
<polygon fill="white" stroke="black" points="393,-117 335,-117 335,-81 393,-81 393,-117"/>
<text text-anchor="middle" x="364" y="-95.9" font-family="Times,serif" font-size="12.00">Payment</text>
</g>
<!-- 140468994148240 -->
<g id="node4" class="node">
<title>140468994148240</title>
<polygon fill="white" stroke="black" points="1062,-45 887,-45 887,-9 1062,-9 1062,-45"/>
<text text-anchor="middle" x="974.5" y="-23.9" font-family="Times,serif" font-size="12.00">Notify Result Appeal to Offender</text>
</g>
<!-- 140468994149296 -->
<g id="node5" class="node">
<title>140468994149296</title>
<polygon fill="white" stroke="black" points="761,-45 560,-45 560,-9 761,-9 761,-45"/>
<text text-anchor="middle" x="660.5" y="-23.9" font-family="Times,serif" font-size="12.00">Receive Result Appeal from Prefecture</text>
</g>
<!-- 140468994146848 -->
<g id="node8" class="node">
<title>140468994146848</title>
<ellipse fill="white" stroke="black" cx="824" cy="-27" rx="27" ry="27"/>
</g>
<!-- 140468994149296&#45;&gt;140468994146848 -->
<g id="edge7" class="edge">
<title>140468994149296&#45;&gt;140468994146848</title>
<path fill="none" stroke="black" d="M761.02,-27C770.04,-27 778.72,-27 786.59,-27"/>
<polygon fill="black" stroke="black" points="786.77,-30.5 796.77,-27 786.77,-23.5 786.77,-30.5"/>
</g>
<!-- 140468994146656&#45;&gt;140468994150256 -->
<g id="edge1" class="edge">
<title>140468994146656&#45;&gt;140468994150256</title>
<path fill="none" stroke="black" d="M258.19,-99C277.19,-99 303.18,-99 324.52,-99"/>
<polygon fill="black" stroke="black" points="324.58,-102.5 334.58,-99 324.58,-95.5 324.58,-102.5"/>
</g>
<!-- 140468994149200&#45;&gt;140468994149296 -->
<g id="edge2" class="edge">
<title>140468994149200&#45;&gt;140468994149296</title>
<path fill="none" stroke="black" d="M524.31,-27C531.79,-27 540.44,-27 549.68,-27"/>
<polygon fill="black" stroke="black" points="549.9,-30.5 559.9,-27 549.9,-23.5 549.9,-30.5"/>
</g>
<!-- 140468994146848&#45;&gt;140468994148240 -->
<g id="edge3" class="edge">
<title>140468994146848&#45;&gt;140468994148240</title>
<path fill="none" stroke="black" d="M851.21,-27C858.73,-27 867.4,-27 876.59,-27"/>
<polygon fill="black" stroke="black" points="876.73,-30.5 886.73,-27 876.72,-23.5 876.73,-30.5"/>
</g>
<!-- 140468994146608&#45;&gt;140468994149440 -->
<g id="edge4" class="edge">
<title>140468994146608&#45;&gt;140468994149440</title>
<path fill="none" stroke="black" d="M258.19,-27C265.87,-27 274.69,-27 283.89,-27"/>
<polygon fill="black" stroke="black" points="283.97,-30.5 293.97,-27 283.97,-23.5 283.97,-30.5"/>
</g>
</g>
</svg>
