<?xml version="1.0" encoding="UTF-8" standalone="no"?>
<!DOCTYPE svg PUBLIC "-//W3C//DTD SVG 1.1//EN"
 "http://www.w3.org/Graphics/SVG/1.1/DTD/svg11.dtd">
<!-- Generated by graphviz version 2.43.0 (0)
 -->
<!-- Title: imported_1688044896.0819468 Pages: 1 -->
<svg width="1070pt" height="134pt"
 viewBox="0.00 0.00 1070.00 134.00" xmlns="http://www.w3.org/2000/svg" xmlns:xlink="http://www.w3.org/1999/xlink">
<g id="graph0" class="graph" transform="scale(1 1) rotate(0) translate(4 130)">
<title>imported_1688044896.0819468</title>
<polygon fill="white" stroke="transparent" points="-4,4 -4,-130 1066,-130 1066,4 -4,4"/>
<!-- 140469013628288 -->
<g id="node1" class="node">
<title>140469013628288</title>
<polygon fill="white" stroke="black" points="1003.5,-117 945.5,-117 945.5,-81 1003.5,-81 1003.5,-117"/>
<text text-anchor="middle" x="974.5" y="-95.9" font-family="Times,serif" font-size="12.00">Payment</text>
</g>
<!-- 140464257981312 -->
<g id="node2" class="node">
<title>140464257981312</title>
<polygon fill="white" stroke="black" points="1062,-45 887,-45 887,-9 1062,-9 1062,-45"/>
<text text-anchor="middle" x="974.5" y="-23.9" font-family="Times,serif" font-size="12.00">Notify Result Appeal to Offender</text>
</g>
<!-- 140469013627232 -->
<g id="node3" class="node">
<title>140469013627232</title>
<polygon fill="white" stroke="black" points="168,-80 0,-80 0,-44 168,-44 168,-80"/>
<text text-anchor="middle" x="84" y="-58.9" font-family="Times,serif" font-size="12.00">Insert Date Appeal to Prefecture</text>
</g>
<!-- 140468994104960 -->
<g id="node9" class="node">
<title>140468994104960</title>
<ellipse fill="white" stroke="black" cx="231" cy="-92" rx="27" ry="27"/>
</g>
<!-- 140469013627232&#45;&gt;140468994104960 -->
<g id="edge6" class="edge">
<title>140469013627232&#45;&gt;140468994104960</title>
<path fill="none" stroke="black" d="M168.09,-79.19C177.34,-81.1 186.36,-82.97 194.52,-84.66"/>
<polygon fill="black" stroke="black" points="193.86,-88.1 204.36,-86.69 195.28,-81.24 193.86,-88.1"/>
</g>
<!-- 140468994101696 -->
<g id="node10" class="node">
<title>140468994101696</title>
<ellipse fill="white" stroke="black" cx="364" cy="-31" rx="27" ry="27"/>
</g>
<!-- 140469013627232&#45;&gt;140468994101696 -->
<g id="edge7" class="edge">
<title>140469013627232&#45;&gt;140468994101696</title>
<path fill="none" stroke="black" d="M168.03,-52.74C220.91,-46.85 286.75,-39.5 326.79,-35.04"/>
<polygon fill="black" stroke="black" points="327.33,-38.5 336.88,-33.91 326.56,-31.54 327.33,-38.5"/>
</g>
<!-- 140464257982176 -->
<g id="node4" class="node">
<title>140464257982176</title>
<polygon fill="white" stroke="black" points="434,-112 294,-112 294,-76 434,-76 434,-112"/>
<text text-anchor="middle" x="364" y="-90.9" font-family="Times,serif" font-size="12.00">Send Appeal to Prefecture</text>
</g>
<!-- 140468994104672 -->
<g id="node6" class="node">
<title>140468994104672</title>
<ellipse fill="white" stroke="black" cx="497" cy="-92" rx="27" ry="27"/>
</g>
<!-- 140464257982176&#45;&gt;140468994104672 -->
<g id="edge10" class="edge">
<title>140464257982176&#45;&gt;140468994104672</title>
<path fill="none" stroke="black" d="M434.34,-92.94C443.13,-92.81 451.82,-92.67 459.79,-92.55"/>
<polygon fill="black" stroke="black" points="459.85,-96.05 469.8,-92.4 459.75,-89.05 459.85,-96.05"/>
</g>
<!-- 140469013629632 -->
<g id="node5" class="node">
<title>140469013629632</title>
<polygon fill="white" stroke="black" points="761,-81 560,-81 560,-45 761,-45 761,-81"/>
<text text-anchor="middle" x="660.5" y="-59.9" font-family="Times,serif" font-size="12.00">Receive Result Appeal from Prefecture</text>
</g>
<!-- 140468994102608 -->
<g id="node7" class="node">
<title>140468994102608</title>
<ellipse fill="white" stroke="black" cx="824" cy="-99" rx="27" ry="27"/>
</g>
<!-- 140469013629632&#45;&gt;140468994102608 -->
<g id="edge8" class="edge">
<title>140469013629632&#45;&gt;140468994102608</title>
<path fill="none" stroke="black" d="M742.72,-81.11C758.47,-84.61 774.18,-88.12 787.49,-91.08"/>
<polygon fill="black" stroke="black" points="787.07,-94.58 797.59,-93.34 788.59,-87.74 787.07,-94.58"/>
</g>
<!-- 140468994104816 -->
<g id="node8" class="node">
<title>140468994104816</title>
<ellipse fill="white" stroke="black" cx="824" cy="-27" rx="27" ry="27"/>
</g>
<!-- 140469013629632&#45;&gt;140468994104816 -->
<g id="edge9" class="edge">
<title>140469013629632&#45;&gt;140468994104816</title>
<path fill="none" stroke="black" d="M742.72,-44.89C758.47,-41.39 774.18,-37.88 787.49,-34.92"/>
<polygon fill="black" stroke="black" points="788.59,-38.26 797.59,-32.66 787.07,-31.42 788.59,-38.26"/>
</g>
<!-- 140468994104672&#45;&gt;140469013629632 -->
<g id="edge1" class="edge">
<title>140468994104672&#45;&gt;140469013629632</title>
<path fill="none" stroke="black" d="M523.95,-87.34C531.56,-85.97 540.4,-84.39 549.85,-82.69"/>
<polygon fill="black" stroke="black" points="550.66,-86.1 559.89,-80.89 549.43,-79.21 550.66,-86.1"/>
</g>
<!-- 140468994102608&#45;&gt;140469013628288 -->
<g id="edge2" class="edge">
<title>140468994102608&#45;&gt;140469013628288</title>
<path fill="none" stroke="black" d="M851.21,-99C874.51,-99 908.87,-99 935.25,-99"/>
<polygon fill="black" stroke="black" points="935.28,-102.5 945.28,-99 935.28,-95.5 935.28,-102.5"/>
</g>
<!-- 140468994104816&#45;&gt;140464257981312 -->
<g id="edge3" class="edge">
<title>140468994104816&#45;&gt;140464257981312</title>
<path fill="none" stroke="black" d="M851.21,-27C858.73,-27 867.4,-27 876.59,-27"/>
<polygon fill="black" stroke="black" points="876.73,-30.5 886.73,-27 876.72,-23.5 876.73,-30.5"/>
</g>
<!-- 140468994104960&#45;&gt;140464257982176 -->
<g id="edge4" class="edge">
<title>140468994104960&#45;&gt;140464257982176</title>
<path fill="none" stroke="black" d="M258.19,-92.4C265.87,-92.52 274.69,-92.65 283.89,-92.79"/>
<polygon fill="black" stroke="black" points="283.92,-96.29 293.97,-92.95 284.03,-89.29 283.92,-96.29"/>
</g>
<!-- 140468994101696&#45;&gt;140469013629632 -->
<g id="edge5" class="edge">
<title>140468994101696&#45;&gt;140469013629632</title>
<path fill="none" stroke="black" d="M390.88,-33.81C426.3,-37.66 492.05,-44.81 549.64,-51.06"/>
<polygon fill="black" stroke="black" points="549.6,-54.58 559.92,-52.18 550.36,-47.62 549.6,-54.58"/>
</g>
</g>
</svg>
