<?xml version="1.0" encoding="UTF-8" standalone="no"?>
<!DOCTYPE svg PUBLIC "-//W3C//DTD SVG 1.1//EN"
 "http://www.w3.org/Graphics/SVG/1.1/DTD/svg11.dtd">
<!-- Generated by graphviz version 2.43.0 (0)
 -->
<!-- Title: imported_1688044901.0544243 Pages: 1 -->
<svg width="953pt" height="123pt"
 viewBox="0.00 0.00 953.00 123.00" xmlns="http://www.w3.org/2000/svg" xmlns:xlink="http://www.w3.org/1999/xlink">
<g id="graph0" class="graph" transform="scale(1 1) rotate(0) translate(4 119)">
<title>imported_1688044901.0544243</title>
<polygon fill="white" stroke="transparent" points="-4,4 -4,-119 949,-119 949,4 -4,4"/>
<!-- 140464257979824 -->
<g id="node1" class="node">
<title>140464257979824</title>
<polygon fill="white" stroke="black" points="945,-77 887,-77 887,-41 945,-41 945,-77"/>
<text text-anchor="middle" x="916" y="-55.9" font-family="Times,serif" font-size="12.00">Payment</text>
</g>
<!-- 140464257980160 -->
<g id="node2" class="node">
<title>140464257980160</title>
<polygon fill="white" stroke="black" points="168,-76 0,-76 0,-40 168,-40 168,-76"/>
<text text-anchor="middle" x="84" y="-54.9" font-family="Times,serif" font-size="12.00">Insert Date Appeal to Prefecture</text>
</g>
<!-- 140464257982320 -->
<g id="node7" class="node">
<title>140464257982320</title>
<ellipse fill="white" stroke="black" cx="231" cy="-88" rx="27" ry="27"/>
</g>
<!-- 140464257980160&#45;&gt;140464257982320 -->
<g id="edge5" class="edge">
<title>140464257980160&#45;&gt;140464257982320</title>
<path fill="none" stroke="black" d="M168.09,-75.19C177.34,-77.1 186.36,-78.97 194.52,-80.66"/>
<polygon fill="black" stroke="black" points="193.86,-84.1 204.36,-82.69 195.28,-77.24 193.86,-84.1"/>
</g>
<!-- 140464257981264 -->
<g id="node8" class="node">
<title>140464257981264</title>
<ellipse fill="white" stroke="black" cx="364" cy="-27" rx="27" ry="27"/>
</g>
<!-- 140464257980160&#45;&gt;140464257981264 -->
<g id="edge6" class="edge">
<title>140464257980160&#45;&gt;140464257981264</title>
<path fill="none" stroke="black" d="M168.03,-48.74C220.91,-42.85 286.75,-35.5 326.79,-31.04"/>
<polygon fill="black" stroke="black" points="327.33,-34.5 336.88,-29.91 326.56,-27.54 327.33,-34.5"/>
</g>
<!-- 140464257980256 -->
<g id="node3" class="node">
<title>140464257980256</title>
<polygon fill="white" stroke="black" points="434,-108 294,-108 294,-72 434,-72 434,-108"/>
<text text-anchor="middle" x="364" y="-86.9" font-family="Times,serif" font-size="12.00">Send Appeal to Prefecture</text>
</g>
<!-- 140464257980592 -->
<g id="node5" class="node">
<title>140464257980592</title>
<ellipse fill="white" stroke="black" cx="497" cy="-88" rx="27" ry="27"/>
</g>
<!-- 140464257980256&#45;&gt;140464257980592 -->
<g id="edge8" class="edge">
<title>140464257980256&#45;&gt;140464257980592</title>
<path fill="none" stroke="black" d="M434.34,-88.94C443.13,-88.81 451.82,-88.67 459.79,-88.55"/>
<polygon fill="black" stroke="black" points="459.85,-92.05 469.8,-88.4 459.75,-85.05 459.85,-92.05"/>
</g>
<!-- 140464257981312 -->
<g id="node4" class="node">
<title>140464257981312</title>
<polygon fill="white" stroke="black" points="761,-77 560,-77 560,-41 761,-41 761,-77"/>
<text text-anchor="middle" x="660.5" y="-55.9" font-family="Times,serif" font-size="12.00">Receive Result Appeal from Prefecture</text>
</g>
<!-- 140464257982032 -->
<g id="node6" class="node">
<title>140464257982032</title>
<ellipse fill="white" stroke="black" cx="824" cy="-59" rx="27" ry="27"/>
</g>
<!-- 140464257981312&#45;&gt;140464257982032 -->
<g id="edge7" class="edge">
<title>140464257981312&#45;&gt;140464257982032</title>
<path fill="none" stroke="black" d="M761.02,-59C770.04,-59 778.72,-59 786.59,-59"/>
<polygon fill="black" stroke="black" points="786.77,-62.5 796.77,-59 786.77,-55.5 786.77,-62.5"/>
</g>
<!-- 140464257980592&#45;&gt;140464257981312 -->
<g id="edge1" class="edge">
<title>140464257980592&#45;&gt;140464257981312</title>
<path fill="none" stroke="black" d="M523.95,-83.34C531.56,-81.97 540.4,-80.39 549.85,-78.69"/>
<polygon fill="black" stroke="black" points="550.66,-82.1 559.89,-76.89 549.43,-75.21 550.66,-82.1"/>
</g>
<!-- 140464257982032&#45;&gt;140464257979824 -->
<g id="edge2" class="edge">
<title>140464257982032&#45;&gt;140464257979824</title>
<path fill="none" stroke="black" d="M851.03,-59C859,-59 867.95,-59 876.56,-59"/>
<polygon fill="black" stroke="black" points="876.82,-62.5 886.82,-59 876.82,-55.5 876.82,-62.5"/>
</g>
<!-- 140464257982320&#45;&gt;140464257980256 -->
<g id="edge3" class="edge">
<title>140464257982320&#45;&gt;140464257980256</title>
<path fill="none" stroke="black" d="M258.19,-88.4C265.87,-88.52 274.69,-88.65 283.89,-88.79"/>
<polygon fill="black" stroke="black" points="283.92,-92.29 293.97,-88.95 284.03,-85.29 283.92,-92.29"/>
</g>
<!-- 140464257981264&#45;&gt;140464257981312 -->
<g id="edge4" class="edge">
<title>140464257981264&#45;&gt;140464257981312</title>
<path fill="none" stroke="black" d="M390.88,-29.81C426.3,-33.66 492.05,-40.81 549.64,-47.06"/>
<polygon fill="black" stroke="black" points="549.6,-50.58 559.92,-48.18 550.36,-43.62 549.6,-50.58"/>
</g>
</g>
</svg>
