<?xml version="1.0" encoding="UTF-8" standalone="no"?>
<!DOCTYPE svg PUBLIC "-//W3C//DTD SVG 1.1//EN"
 "http://www.w3.org/Graphics/SVG/1.1/DTD/svg11.dtd">
<!-- Generated by graphviz version 2.43.0 (0)
 -->
<!-- Title: imported_1688044895.8786118 Pages: 1 -->
<svg width="687pt" height="134pt"
 viewBox="0.00 0.00 687.00 134.00" xmlns="http://www.w3.org/2000/svg" xmlns:xlink="http://www.w3.org/1999/xlink">
<g id="graph0" class="graph" transform="scale(1 1) rotate(0) translate(4 130)">
<title>imported_1688044895.8786118</title>
<polygon fill="white" stroke="transparent" points="-4,4 -4,-130 683,-130 683,4 -4,4"/>
<!-- 140468994173152 -->
<g id="node1" class="node">
<title>140468994173152</title>
<polygon fill="white" stroke="black" points="679,-81 621,-81 621,-45 679,-45 679,-81"/>
<text text-anchor="middle" x="650" y="-59.9" font-family="Times,serif" font-size="12.00">Payment</text>
</g>
<!-- 140468994173440 -->
<g id="node2" class="node">
<title>140468994173440</title>
<polygon fill="white" stroke="black" points="495,-81 294,-81 294,-45 495,-45 495,-81"/>
<text text-anchor="middle" x="394.5" y="-59.9" font-family="Times,serif" font-size="12.00">Receive Result Appeal from Prefecture</text>
</g>
<!-- 140468994172288 -->
<g id="node6" class="node">
<title>140468994172288</title>
<ellipse fill="white" stroke="black" cx="558" cy="-63" rx="27" ry="27"/>
</g>
<!-- 140468994173440&#45;&gt;140468994172288 -->
<g id="edge5" class="edge">
<title>140468994173440&#45;&gt;140468994172288</title>
<path fill="none" stroke="black" d="M495.02,-63C504.04,-63 512.72,-63 520.59,-63"/>
<polygon fill="black" stroke="black" points="520.77,-66.5 530.77,-63 520.77,-59.5 520.77,-66.5"/>
</g>
<!-- 140468994173488 -->
<g id="node3" class="node">
<title>140468994173488</title>
<polygon fill="white" stroke="black" points="168,-45 0,-45 0,-9 168,-9 168,-45"/>
<text text-anchor="middle" x="84" y="-23.9" font-family="Times,serif" font-size="12.00">Insert Date Appeal to Prefecture</text>
</g>
<!-- 140468994173968 -->
<g id="node7" class="node">
<title>140468994173968</title>
<ellipse fill="white" stroke="black" cx="231" cy="-27" rx="27" ry="27"/>
</g>
<!-- 140468994173488&#45;&gt;140468994173968 -->
<g id="edge4" class="edge">
<title>140468994173488&#45;&gt;140468994173968</title>
<path fill="none" stroke="black" d="M168.09,-27C176.96,-27 185.62,-27 193.51,-27"/>
<polygon fill="black" stroke="black" points="193.75,-30.5 203.75,-27 193.75,-23.5 193.75,-30.5"/>
</g>
<!-- 140468994173344 -->
<g id="node4" class="node">
<title>140468994173344</title>
<polygon fill="white" stroke="black" points="154,-117 14,-117 14,-81 154,-81 154,-117"/>
<text text-anchor="middle" x="84" y="-95.9" font-family="Times,serif" font-size="12.00">Send Appeal to Prefecture</text>
</g>
<!-- 140468994173392 -->
<g id="node5" class="node">
<title>140468994173392</title>
<ellipse fill="white" stroke="black" cx="231" cy="-99" rx="27" ry="27"/>
</g>
<!-- 140468994173344&#45;&gt;140468994173392 -->
<g id="edge6" class="edge">
<title>140468994173344&#45;&gt;140468994173392</title>
<path fill="none" stroke="black" d="M154.1,-99C167.76,-99 181.57,-99 193.6,-99"/>
<polygon fill="black" stroke="black" points="193.67,-102.5 203.67,-99 193.67,-95.5 193.67,-102.5"/>
</g>
<!-- 140468994173392&#45;&gt;140468994173440 -->
<g id="edge1" class="edge">
<title>140468994173392&#45;&gt;140468994173440</title>
<path fill="none" stroke="black" d="M257.59,-93.3C270.16,-90.49 286.13,-86.93 302.69,-83.24"/>
<polygon fill="black" stroke="black" points="303.48,-86.65 312.48,-81.06 301.95,-79.82 303.48,-86.65"/>
</g>
<!-- 140468994172288&#45;&gt;140468994173152 -->
<g id="edge2" class="edge">
<title>140468994172288&#45;&gt;140468994173152</title>
<path fill="none" stroke="black" d="M585.03,-63C593,-63 601.95,-63 610.56,-63"/>
<polygon fill="black" stroke="black" points="610.82,-66.5 620.82,-63 610.82,-59.5 610.82,-66.5"/>
</g>
<!-- 140468994173968&#45;&gt;140468994173440 -->
<g id="edge3" class="edge">
<title>140468994173968&#45;&gt;140468994173440</title>
<path fill="none" stroke="black" d="M257.59,-32.7C270.16,-35.51 286.13,-39.07 302.69,-42.76"/>
<polygon fill="black" stroke="black" points="301.95,-46.18 312.48,-44.94 303.48,-39.35 301.95,-46.18"/>
</g>
</g>
</svg>
