<?xml version="1.0" encoding="UTF-8" standalone="no"?>
<!DOCTYPE svg PUBLIC "-//W3C//DTD SVG 1.1//EN"
 "http://www.w3.org/Graphics/SVG/1.1/DTD/svg11.dtd">
<!-- Generated by graphviz version 2.43.0 (0)
 -->
<!-- Title: imported_1688044917.2202752 Pages: 1 -->
<svg width="777pt" height="134pt"
 viewBox="0.00 0.00 777.00 134.00" xmlns="http://www.w3.org/2000/svg" xmlns:xlink="http://www.w3.org/1999/xlink">
<g id="graph0" class="graph" transform="scale(1 1) rotate(0) translate(4 130)">
<title>imported_1688044917.2202752</title>
<polygon fill="white" stroke="transparent" points="-4,4 -4,-130 773,-130 773,4 -4,4"/>
<!-- 140465202111008 -->
<g id="node1" class="node">
<title>140465202111008</title>
<polygon fill="white" stroke="black" points="201,-117 0,-117 0,-81 201,-81 201,-117"/>
<text text-anchor="middle" x="100.5" y="-95.9" font-family="Times,serif" font-size="12.00">Receive Result Appeal from Prefecture</text>
</g>
<!-- 140465202112880 -->
<g id="node6" class="node">
<title>140465202112880</title>
<ellipse fill="white" stroke="black" cx="264" cy="-99" rx="27" ry="27"/>
</g>
<!-- 140465202111008&#45;&gt;140465202112880 -->
<g id="edge4" class="edge">
<title>140465202111008&#45;&gt;140465202112880</title>
<path fill="none" stroke="black" d="M201.02,-99C210.04,-99 218.72,-99 226.59,-99"/>
<polygon fill="black" stroke="black" points="226.77,-102.5 236.77,-99 226.77,-95.5 226.77,-102.5"/>
</g>
<!-- 140465202110816 -->
<g id="node2" class="node">
<title>140465202110816</title>
<polygon fill="white" stroke="black" points="484.5,-45 344.5,-45 344.5,-9 484.5,-9 484.5,-45"/>
<text text-anchor="middle" x="414.5" y="-23.9" font-family="Times,serif" font-size="12.00">Send Appeal to Prefecture</text>
</g>
<!-- 140464257436784 -->
<g id="node5" class="node">
<title>140464257436784</title>
<ellipse fill="white" stroke="black" cx="565" cy="-27" rx="27" ry="27"/>
</g>
<!-- 140465202110816&#45;&gt;140464257436784 -->
<g id="edge6" class="edge">
<title>140465202110816&#45;&gt;140464257436784</title>
<path fill="none" stroke="black" d="M484.53,-27C499.33,-27 514.4,-27 527.38,-27"/>
<polygon fill="black" stroke="black" points="527.75,-30.5 537.75,-27 527.75,-23.5 527.75,-30.5"/>
</g>
<!-- 140465202113168 -->
<g id="node3" class="node">
<title>140465202113168</title>
<polygon fill="white" stroke="black" points="502,-117 327,-117 327,-81 502,-81 502,-117"/>
<text text-anchor="middle" x="414.5" y="-95.9" font-family="Times,serif" font-size="12.00">Notify Result Appeal to Offender</text>
</g>
<!-- 140465202111056 -->
<g id="node7" class="node">
<title>140465202111056</title>
<ellipse fill="white" stroke="black" cx="565" cy="-99" rx="27" ry="27"/>
</g>
<!-- 140465202113168&#45;&gt;140465202111056 -->
<g id="edge5" class="edge">
<title>140465202113168&#45;&gt;140465202111056</title>
<path fill="none" stroke="black" d="M502.31,-99C511.21,-99 519.87,-99 527.74,-99"/>
<polygon fill="black" stroke="black" points="527.94,-102.5 537.94,-99 527.94,-95.5 527.94,-102.5"/>
</g>
<!-- 140465201746560 -->
<g id="node4" class="node">
<title>140465201746560</title>
<polygon fill="white" stroke="black" points="769,-81 628,-81 628,-45 769,-45 769,-81"/>
<text text-anchor="middle" x="698.5" y="-59.9" font-family="Times,serif" font-size="12.00">Send for Credit Collection</text>
</g>
<!-- 140464257436784&#45;&gt;140465201746560 -->
<g id="edge1" class="edge">
<title>140464257436784&#45;&gt;140465201746560</title>
<path fill="none" stroke="black" d="M591.35,-33.94C600.3,-36.39 610.88,-39.29 621.83,-42.28"/>
<polygon fill="black" stroke="black" points="620.95,-45.67 631.52,-44.94 622.8,-38.92 620.95,-45.67"/>
</g>
<!-- 140465202112880&#45;&gt;140465202113168 -->
<g id="edge2" class="edge">
<title>140465202112880&#45;&gt;140465202113168</title>
<path fill="none" stroke="black" d="M291.21,-99C298.73,-99 307.4,-99 316.59,-99"/>
<polygon fill="black" stroke="black" points="316.73,-102.5 326.73,-99 316.72,-95.5 316.73,-102.5"/>
</g>
<!-- 140465202111056&#45;&gt;140465201746560 -->
<g id="edge3" class="edge">
<title>140465202111056&#45;&gt;140465201746560</title>
<path fill="none" stroke="black" d="M591.35,-92.06C600.3,-89.61 610.88,-86.71 621.83,-83.72"/>
<polygon fill="black" stroke="black" points="622.8,-87.08 631.52,-81.06 620.95,-80.33 622.8,-87.08"/>
</g>
</g>
</svg>
