<?xml version="1.0" encoding="UTF-8" standalone="no"?>
<!DOCTYPE svg PUBLIC "-//W3C//DTD SVG 1.1//EN"
 "http://www.w3.org/Graphics/SVG/1.1/DTD/svg11.dtd">
<!-- Generated by graphviz version 2.43.0 (0)
 -->
<!-- Title: imported_1688044917.5877674 Pages: 1 -->
<svg width="776pt" height="134pt"
 viewBox="0.00 0.00 776.00 134.00" xmlns="http://www.w3.org/2000/svg" xmlns:xlink="http://www.w3.org/1999/xlink">
<g id="graph0" class="graph" transform="scale(1 1) rotate(0) translate(4 130)">
<title>imported_1688044917.5877674</title>
<polygon fill="white" stroke="transparent" points="-4,4 -4,-130 772,-130 772,4 -4,4"/>
<!-- 140465202110528 -->
<g id="node1" class="node">
<title>140465202110528</title>
<polygon fill="white" stroke="black" points="467,-81 266,-81 266,-45 467,-45 467,-81"/>
<text text-anchor="middle" x="366.5" y="-59.9" font-family="Times,serif" font-size="12.00">Receive Result Appeal from Prefecture</text>
</g>
<!-- 140465202111296 -->
<g id="node5" class="node">
<title>140465202111296</title>
<ellipse fill="white" stroke="black" cx="530" cy="-99" rx="27" ry="27"/>
</g>
<!-- 140465202110528&#45;&gt;140465202111296 -->
<g id="edge4" class="edge">
<title>140465202110528&#45;&gt;140465202111296</title>
<path fill="none" stroke="black" d="M448.72,-81.11C464.47,-84.61 480.18,-88.12 493.49,-91.08"/>
<polygon fill="black" stroke="black" points="493.07,-94.58 503.59,-93.34 494.59,-87.74 493.07,-94.58"/>
</g>
<!-- 140465202110960 -->
<g id="node7" class="node">
<title>140465202110960</title>
<ellipse fill="white" stroke="black" cx="530" cy="-27" rx="27" ry="27"/>
</g>
<!-- 140465202110528&#45;&gt;140465202110960 -->
<g id="edge5" class="edge">
<title>140465202110528&#45;&gt;140465202110960</title>
<path fill="none" stroke="black" d="M448.72,-44.89C464.47,-41.39 480.18,-37.88 493.49,-34.92"/>
<polygon fill="black" stroke="black" points="494.59,-38.26 503.59,-32.66 493.07,-31.42 494.59,-38.26"/>
</g>
<!-- 140465202111536 -->
<g id="node2" class="node">
<title>140465202111536</title>
<polygon fill="white" stroke="black" points="768,-45 593,-45 593,-9 768,-9 768,-45"/>
<text text-anchor="middle" x="680.5" y="-23.9" font-family="Times,serif" font-size="12.00">Notify Result Appeal to Offender</text>
</g>
<!-- 140465202111584 -->
<g id="node3" class="node">
<title>140465202111584</title>
<polygon fill="white" stroke="black" points="140,-81 0,-81 0,-45 140,-45 140,-81"/>
<text text-anchor="middle" x="70" y="-59.9" font-family="Times,serif" font-size="12.00">Send Appeal to Prefecture</text>
</g>
<!-- 140465202113456 -->
<g id="node6" class="node">
<title>140465202113456</title>
<ellipse fill="white" stroke="black" cx="203" cy="-63" rx="27" ry="27"/>
</g>
<!-- 140465202111584&#45;&gt;140465202113456 -->
<g id="edge6" class="edge">
<title>140465202111584&#45;&gt;140465202113456</title>
<path fill="none" stroke="black" d="M140.34,-63C149.13,-63 157.82,-63 165.79,-63"/>
<polygon fill="black" stroke="black" points="165.8,-66.5 175.8,-63 165.8,-59.5 165.8,-66.5"/>
</g>
<!-- 140465202112688 -->
<g id="node4" class="node">
<title>140465202112688</title>
<polygon fill="white" stroke="black" points="751,-117 610,-117 610,-81 751,-81 751,-117"/>
<text text-anchor="middle" x="680.5" y="-95.9" font-family="Times,serif" font-size="12.00">Send for Credit Collection</text>
</g>
<!-- 140465202111296&#45;&gt;140465202112688 -->
<g id="edge1" class="edge">
<title>140465202111296&#45;&gt;140465202112688</title>
<path fill="none" stroke="black" d="M557.21,-99C569.3,-99 584.36,-99 599.75,-99"/>
<polygon fill="black" stroke="black" points="599.88,-102.5 609.88,-99 599.88,-95.5 599.88,-102.5"/>
</g>
<!-- 140465202113456&#45;&gt;140465202110528 -->
<g id="edge2" class="edge">
<title>140465202113456&#45;&gt;140465202110528</title>
<path fill="none" stroke="black" d="M230.31,-63C237.79,-63 246.44,-63 255.68,-63"/>
<polygon fill="black" stroke="black" points="255.9,-66.5 265.9,-63 255.9,-59.5 255.9,-66.5"/>
</g>
<!-- 140465202110960&#45;&gt;140465202111536 -->
<g id="edge3" class="edge">
<title>140465202110960&#45;&gt;140465202111536</title>
<path fill="none" stroke="black" d="M557.21,-27C564.73,-27 573.4,-27 582.59,-27"/>
<polygon fill="black" stroke="black" points="582.73,-30.5 592.73,-27 582.72,-23.5 582.73,-30.5"/>
</g>
</g>
</svg>
