<?xml version="1.0" encoding="UTF-8" standalone="no"?>
<!DOCTYPE svg PUBLIC "-//W3C//DTD SVG 1.1//EN"
 "http://www.w3.org/Graphics/SVG/1.1/DTD/svg11.dtd">
<!-- Generated by graphviz version 2.43.0 (0)
 -->
<!-- Title: imported_1688044900.1113431 Pages: 1 -->
<svg width="1322pt" height="62pt"
 viewBox="0.00 0.00 1322.00 62.00" xmlns="http://www.w3.org/2000/svg" xmlns:xlink="http://www.w3.org/1999/xlink">
<g id="graph0" class="graph" transform="scale(1 1) rotate(0) translate(4 58)">
<title>imported_1688044900.1113431</title>
<polygon fill="white" stroke="transparent" points="-4,4 -4,-58 1318,-58 1318,4 -4,4"/>
<!-- 140468994059568 -->
<g id="node1" class="node">
<title>140468994059568</title>
<polygon fill="white" stroke="black" points="420,-45 252,-45 252,-9 420,-9 420,-45"/>
<text text-anchor="middle" x="336" y="-23.9" font-family="Times,serif" font-size="12.00">Insert Date Appeal to Prefecture</text>
</g>
<!-- 140468994058944 -->
<g id="node9" class="node">
<title>140468994058944</title>
<ellipse fill="white" stroke="black" cx="483" cy="-27" rx="27" ry="27"/>
</g>
<!-- 140468994059568&#45;&gt;140468994058944 -->
<g id="edge5" class="edge">
<title>140468994059568&#45;&gt;140468994058944</title>
<path fill="none" stroke="black" d="M420.09,-27C428.96,-27 437.62,-27 445.51,-27"/>
<polygon fill="black" stroke="black" points="445.75,-30.5 455.75,-27 445.75,-23.5 445.75,-30.5"/>
</g>
<!-- 140465201707568 -->
<g id="node2" class="node">
<title>140465201707568</title>
<polygon fill="white" stroke="black" points="1314,-45 1139,-45 1139,-9 1314,-9 1314,-45"/>
<text text-anchor="middle" x="1226.5" y="-23.9" font-family="Times,serif" font-size="12.00">Notify Result Appeal to Offender</text>
</g>
<!-- 140468994058992 -->
<g id="node3" class="node">
<title>140468994058992</title>
<polygon fill="white" stroke="black" points="1013,-45 812,-45 812,-9 1013,-9 1013,-45"/>
<text text-anchor="middle" x="912.5" y="-23.9" font-family="Times,serif" font-size="12.00">Receive Result Appeal from Prefecture</text>
</g>
<!-- 140468994059472 -->
<g id="node8" class="node">
<title>140468994059472</title>
<ellipse fill="white" stroke="black" cx="1076" cy="-27" rx="27" ry="27"/>
</g>
<!-- 140468994058992&#45;&gt;140468994059472 -->
<g id="edge6" class="edge">
<title>140468994058992&#45;&gt;140468994059472</title>
<path fill="none" stroke="black" d="M1013.02,-27C1022.04,-27 1030.72,-27 1038.59,-27"/>
<polygon fill="black" stroke="black" points="1038.77,-30.5 1048.77,-27 1038.77,-23.5 1038.77,-30.5"/>
</g>
<!-- 140465201705072 -->
<g id="node4" class="node">
<title>140465201705072</title>
<polygon fill="white" stroke="black" points="126,-45 0,-45 0,-9 126,-9 126,-45"/>
<text text-anchor="middle" x="63" y="-23.9" font-family="Times,serif" font-size="12.00">Insert Fine Notification</text>
</g>
<!-- 140468993957216 -->
<g id="node6" class="node">
<title>140468993957216</title>
<ellipse fill="white" stroke="black" cx="189" cy="-27" rx="27" ry="27"/>
</g>
<!-- 140465201705072&#45;&gt;140468993957216 -->
<g id="edge8" class="edge">
<title>140465201705072&#45;&gt;140468993957216</title>
<path fill="none" stroke="black" d="M126.36,-27C135.09,-27 143.8,-27 151.81,-27"/>
<polygon fill="black" stroke="black" points="151.88,-30.5 161.88,-27 151.88,-23.5 151.88,-30.5"/>
</g>
<!-- 140465201706416 -->
<g id="node5" class="node">
<title>140465201706416</title>
<polygon fill="white" stroke="black" points="686,-45 546,-45 546,-9 686,-9 686,-45"/>
<text text-anchor="middle" x="616" y="-23.9" font-family="Times,serif" font-size="12.00">Send Appeal to Prefecture</text>
</g>
<!-- 140468994059520 -->
<g id="node7" class="node">
<title>140468994059520</title>
<ellipse fill="white" stroke="black" cx="749" cy="-27" rx="27" ry="27"/>
</g>
<!-- 140465201706416&#45;&gt;140468994059520 -->
<g id="edge7" class="edge">
<title>140465201706416&#45;&gt;140468994059520</title>
<path fill="none" stroke="black" d="M686.34,-27C695.13,-27 703.82,-27 711.79,-27"/>
<polygon fill="black" stroke="black" points="711.8,-30.5 721.8,-27 711.8,-23.5 711.8,-30.5"/>
</g>
<!-- 140468993957216&#45;&gt;140468994059568 -->
<g id="edge1" class="edge">
<title>140468993957216&#45;&gt;140468994059568</title>
<path fill="none" stroke="black" d="M216.26,-27C223.81,-27 232.51,-27 241.7,-27"/>
<polygon fill="black" stroke="black" points="241.83,-30.5 251.83,-27 241.83,-23.5 241.83,-30.5"/>
</g>
<!-- 140468994059520&#45;&gt;140468994058992 -->
<g id="edge2" class="edge">
<title>140468994059520&#45;&gt;140468994058992</title>
<path fill="none" stroke="black" d="M776.31,-27C783.79,-27 792.44,-27 801.68,-27"/>
<polygon fill="black" stroke="black" points="801.9,-30.5 811.9,-27 801.9,-23.5 801.9,-30.5"/>
</g>
<!-- 140468994059472&#45;&gt;140465201707568 -->
<g id="edge3" class="edge">
<title>140468994059472&#45;&gt;140465201707568</title>
<path fill="none" stroke="black" d="M1103.21,-27C1110.73,-27 1119.4,-27 1128.59,-27"/>
<polygon fill="black" stroke="black" points="1128.73,-30.5 1138.73,-27 1128.72,-23.5 1128.73,-30.5"/>
</g>
<!-- 140468994058944&#45;&gt;140465201706416 -->
<g id="edge4" class="edge">
<title>140468994058944&#45;&gt;140465201706416</title>
<path fill="none" stroke="black" d="M510.19,-27C517.87,-27 526.69,-27 535.89,-27"/>
<polygon fill="black" stroke="black" points="535.97,-30.5 545.97,-27 535.97,-23.5 535.97,-30.5"/>
</g>
</g>
</svg>
