<?xml version="1.0" encoding="UTF-8" standalone="no"?>
<!DOCTYPE svg PUBLIC "-//W3C//DTD SVG 1.1//EN"
 "http://www.w3.org/Graphics/SVG/1.1/DTD/svg11.dtd">
<!-- Generated by graphviz version 2.43.0 (0)
 -->
<!-- Title: imported_1688044902.0974617 Pages: 1 -->
<svg width="1043pt" height="62pt"
 viewBox="0.00 0.00 1043.00 62.00" xmlns="http://www.w3.org/2000/svg" xmlns:xlink="http://www.w3.org/1999/xlink">
<g id="graph0" class="graph" transform="scale(1 1) rotate(0) translate(4 58)">
<title>imported_1688044902.0974617</title>
<polygon fill="white" stroke="transparent" points="-4,4 -4,-58 1039,-58 1039,4 -4,4"/>
<!-- 140465201691568 -->
<g id="node1" class="node">
<title>140465201691568</title>
<polygon fill="white" stroke="black" points="467,-45 266,-45 266,-9 467,-9 467,-45"/>
<text text-anchor="middle" x="366.5" y="-23.9" font-family="Times,serif" font-size="12.00">Receive Result Appeal from Prefecture</text>
</g>
<!-- 140465201691328 -->
<g id="node6" class="node">
<title>140465201691328</title>
<ellipse fill="white" stroke="black" cx="530" cy="-27" rx="27" ry="27"/>
</g>
<!-- 140465201691568&#45;&gt;140465201691328 -->
<g id="edge4" class="edge">
<title>140465201691568&#45;&gt;140465201691328</title>
<path fill="none" stroke="black" d="M467.02,-27C476.04,-27 484.72,-27 492.59,-27"/>
<polygon fill="black" stroke="black" points="492.77,-30.5 502.77,-27 492.77,-23.5 492.77,-30.5"/>
</g>
<!-- 140465201690992 -->
<g id="node2" class="node">
<title>140465201690992</title>
<polygon fill="white" stroke="black" points="1035,-45 894,-45 894,-9 1035,-9 1035,-45"/>
<text text-anchor="middle" x="964.5" y="-23.9" font-family="Times,serif" font-size="12.00">Send for Credit Collection</text>
</g>
<!-- 140465201691040 -->
<g id="node3" class="node">
<title>140465201691040</title>
<polygon fill="white" stroke="black" points="140,-45 0,-45 0,-9 140,-9 140,-45"/>
<text text-anchor="middle" x="70" y="-23.9" font-family="Times,serif" font-size="12.00">Send Appeal to Prefecture</text>
</g>
<!-- 140465201691088 -->
<g id="node5" class="node">
<title>140465201691088</title>
<ellipse fill="white" stroke="black" cx="203" cy="-27" rx="27" ry="27"/>
</g>
<!-- 140465201691040&#45;&gt;140465201691088 -->
<g id="edge6" class="edge">
<title>140465201691040&#45;&gt;140465201691088</title>
<path fill="none" stroke="black" d="M140.34,-27C149.13,-27 157.82,-27 165.79,-27"/>
<polygon fill="black" stroke="black" points="165.8,-30.5 175.8,-27 165.8,-23.5 165.8,-30.5"/>
</g>
<!-- 140465201691376 -->
<g id="node4" class="node">
<title>140465201691376</title>
<polygon fill="white" stroke="black" points="768,-45 593,-45 593,-9 768,-9 768,-45"/>
<text text-anchor="middle" x="680.5" y="-23.9" font-family="Times,serif" font-size="12.00">Notify Result Appeal to Offender</text>
</g>
<!-- 140465201691520 -->
<g id="node7" class="node">
<title>140465201691520</title>
<ellipse fill="white" stroke="black" cx="831" cy="-27" rx="27" ry="27"/>
</g>
<!-- 140465201691376&#45;&gt;140465201691520 -->
<g id="edge5" class="edge">
<title>140465201691376&#45;&gt;140465201691520</title>
<path fill="none" stroke="black" d="M768.31,-27C777.21,-27 785.87,-27 793.74,-27"/>
<polygon fill="black" stroke="black" points="793.94,-30.5 803.94,-27 793.94,-23.5 793.94,-30.5"/>
</g>
<!-- 140465201691088&#45;&gt;140465201691568 -->
<g id="edge1" class="edge">
<title>140465201691088&#45;&gt;140465201691568</title>
<path fill="none" stroke="black" d="M230.31,-27C237.79,-27 246.44,-27 255.68,-27"/>
<polygon fill="black" stroke="black" points="255.9,-30.5 265.9,-27 255.9,-23.5 255.9,-30.5"/>
</g>
<!-- 140465201691328&#45;&gt;140465201691376 -->
<g id="edge2" class="edge">
<title>140465201691328&#45;&gt;140465201691376</title>
<path fill="none" stroke="black" d="M557.21,-27C564.73,-27 573.4,-27 582.59,-27"/>
<polygon fill="black" stroke="black" points="582.73,-30.5 592.73,-27 582.72,-23.5 582.73,-30.5"/>
</g>
<!-- 140465201691520&#45;&gt;140465201690992 -->
<g id="edge3" class="edge">
<title>140465201691520&#45;&gt;140465201690992</title>
<path fill="none" stroke="black" d="M858.29,-27C865.95,-27 874.73,-27 883.89,-27"/>
<polygon fill="black" stroke="black" points="883.93,-30.5 893.93,-27 883.93,-23.5 883.93,-30.5"/>
</g>
</g>
</svg>
