<?xml version="1.0" encoding="UTF-8" standalone="no"?>
<!DOCTYPE svg PUBLIC "-//W3C//DTD SVG 1.1//EN"
 "http://www.w3.org/Graphics/SVG/1.1/DTD/svg11.dtd">
<!-- Generated by graphviz version 2.43.0 (0)
 -->
<!-- Title: imported_1688044906.1562386 Pages: 1 -->
<svg width="1322pt" height="123pt"
 viewBox="0.00 0.00 1322.00 123.00" xmlns="http://www.w3.org/2000/svg" xmlns:xlink="http://www.w3.org/1999/xlink">
<g id="graph0" class="graph" transform="scale(1 1) rotate(0) translate(4 119)">
<title>imported_1688044906.1562386</title>
<polygon fill="white" stroke="transparent" points="-4,4 -4,-119 1318,-119 1318,4 -4,4"/>
<!-- 140468994171136 -->
<g id="node1" class="node">
<title>140468994171136</title>
<polygon fill="white" stroke="black" points="126,-76 0,-76 0,-40 126,-40 126,-76"/>
<text text-anchor="middle" x="63" y="-54.9" font-family="Times,serif" font-size="12.00">Insert Fine Notification</text>
</g>
<!-- 140468994170944 -->
<g id="node6" class="node">
<title>140468994170944</title>
<ellipse fill="white" stroke="black" cx="189" cy="-58" rx="27" ry="27"/>
</g>
<!-- 140468994171136&#45;&gt;140468994170944 -->
<g id="edge2" class="edge">
<title>140468994171136&#45;&gt;140468994170944</title>
<path fill="none" stroke="black" d="M126.36,-58C135.09,-58 143.8,-58 151.81,-58"/>
<polygon fill="black" stroke="black" points="151.88,-61.5 161.88,-58 151.88,-54.5 151.88,-61.5"/>
</g>
<!-- 140468994171424 -->
<g id="node2" class="node">
<title>140468994171424</title>
<polygon fill="white" stroke="black" points="1013,-76 812,-76 812,-40 1013,-40 1013,-76"/>
<text text-anchor="middle" x="912.5" y="-54.9" font-family="Times,serif" font-size="12.00">Receive Result Appeal from Prefecture</text>
</g>
<!-- 140468994173344 -->
<g id="node8" class="node">
<title>140468994173344</title>
<ellipse fill="white" stroke="black" cx="1076" cy="-58" rx="27" ry="27"/>
</g>
<!-- 140468994171424&#45;&gt;140468994173344 -->
<g id="edge9" class="edge">
<title>140468994171424&#45;&gt;140468994173344</title>
<path fill="none" stroke="black" d="M1013.02,-58C1022.04,-58 1030.72,-58 1038.59,-58"/>
<polygon fill="black" stroke="black" points="1038.77,-61.5 1048.77,-58 1038.77,-54.5 1038.77,-61.5"/>
</g>
<!-- 140468994171232 -->
<g id="node3" class="node">
<title>140468994171232</title>
<polygon fill="white" stroke="black" points="686,-108 546,-108 546,-72 686,-72 686,-108"/>
<text text-anchor="middle" x="616" y="-86.9" font-family="Times,serif" font-size="12.00">Send Appeal to Prefecture</text>
</g>
<!-- 140468994171184 -->
<g id="node7" class="node">
<title>140468994171184</title>
<ellipse fill="white" stroke="black" cx="749" cy="-88" rx="27" ry="27"/>
</g>
<!-- 140468994171232&#45;&gt;140468994171184 -->
<g id="edge10" class="edge">
<title>140468994171232&#45;&gt;140468994171184</title>
<path fill="none" stroke="black" d="M686.34,-88.94C695.13,-88.81 703.82,-88.67 711.79,-88.55"/>
<polygon fill="black" stroke="black" points="711.85,-92.05 721.8,-88.4 711.75,-85.05 711.85,-92.05"/>
</g>
<!-- 140468994171568 -->
<g id="node4" class="node">
<title>140468994171568</title>
<polygon fill="white" stroke="black" points="420,-76 252,-76 252,-40 420,-40 420,-76"/>
<text text-anchor="middle" x="336" y="-54.9" font-family="Times,serif" font-size="12.00">Insert Date Appeal to Prefecture</text>
</g>
<!-- 140468994172192 -->
<g id="node9" class="node">
<title>140468994172192</title>
<ellipse fill="white" stroke="black" cx="483" cy="-88" rx="27" ry="27"/>
</g>
<!-- 140468994171568&#45;&gt;140468994172192 -->
<g id="edge7" class="edge">
<title>140468994171568&#45;&gt;140468994172192</title>
<path fill="none" stroke="black" d="M420.09,-75.19C429.34,-77.1 438.36,-78.97 446.52,-80.66"/>
<polygon fill="black" stroke="black" points="445.86,-84.1 456.36,-82.69 447.28,-77.24 445.86,-84.1"/>
</g>
<!-- 140468994171760 -->
<g id="node10" class="node">
<title>140468994171760</title>
<ellipse fill="white" stroke="black" cx="616" cy="-27" rx="27" ry="27"/>
</g>
<!-- 140468994171568&#45;&gt;140468994171760 -->
<g id="edge8" class="edge">
<title>140468994171568&#45;&gt;140468994171760</title>
<path fill="none" stroke="black" d="M420.03,-48.74C472.91,-42.85 538.75,-35.5 578.79,-31.04"/>
<polygon fill="black" stroke="black" points="579.33,-34.5 588.88,-29.91 578.56,-27.54 579.33,-34.5"/>
</g>
<!-- 140468994173584 -->
<g id="node5" class="node">
<title>140468994173584</title>
<polygon fill="white" stroke="black" points="1314,-76 1139,-76 1139,-40 1314,-40 1314,-76"/>
<text text-anchor="middle" x="1226.5" y="-54.9" font-family="Times,serif" font-size="12.00">Notify Result Appeal to Offender</text>
</g>
<!-- 140468994170944&#45;&gt;140468994171568 -->
<g id="edge1" class="edge">
<title>140468994170944&#45;&gt;140468994171568</title>
<path fill="none" stroke="black" d="M216.26,-58C223.81,-58 232.51,-58 241.7,-58"/>
<polygon fill="black" stroke="black" points="241.83,-61.5 251.83,-58 241.83,-54.5 241.83,-61.5"/>
</g>
<!-- 140468994171184&#45;&gt;140468994171424 -->
<g id="edge3" class="edge">
<title>140468994171184&#45;&gt;140468994171424</title>
<path fill="none" stroke="black" d="M775.59,-83.25C783.97,-81.69 793.86,-79.85 804.43,-77.89"/>
<polygon fill="black" stroke="black" points="805.11,-81.32 814.3,-76.06 803.83,-74.44 805.11,-81.32"/>
</g>
<!-- 140468994173344&#45;&gt;140468994173584 -->
<g id="edge4" class="edge">
<title>140468994173344&#45;&gt;140468994173584</title>
<path fill="none" stroke="black" d="M1103.21,-58C1110.73,-58 1119.4,-58 1128.59,-58"/>
<polygon fill="black" stroke="black" points="1128.73,-61.5 1138.73,-58 1128.72,-54.5 1128.73,-61.5"/>
</g>
<!-- 140468994172192&#45;&gt;140468994171232 -->
<g id="edge5" class="edge">
<title>140468994172192&#45;&gt;140468994171232</title>
<path fill="none" stroke="black" d="M510.19,-88.4C517.87,-88.52 526.69,-88.65 535.89,-88.79"/>
<polygon fill="black" stroke="black" points="535.92,-92.29 545.97,-88.95 536.03,-85.29 535.92,-92.29"/>
</g>
<!-- 140468994171760&#45;&gt;140468994171424 -->
<g id="edge6" class="edge">
<title>140468994171760&#45;&gt;140468994171424</title>
<path fill="none" stroke="black" d="M642.88,-29.72C678.3,-33.45 744.05,-40.37 801.64,-46.44"/>
<polygon fill="black" stroke="black" points="801.61,-49.95 811.92,-47.52 802.34,-42.99 801.61,-49.95"/>
</g>
</g>
</svg>
