<?xml version="1.0" encoding="UTF-8" standalone="no"?>
<!DOCTYPE svg PUBLIC "-//W3C//DTD SVG 1.1//EN"
 "http://www.w3.org/Graphics/SVG/1.1/DTD/svg11.dtd">
<!-- Generated by graphviz version 2.43.0 (0)
 -->
<!-- Title: imported_1688044910.4862006 Pages: 1 -->
<svg width="953pt" height="134pt"
 viewBox="0.00 0.00 953.00 134.00" xmlns="http://www.w3.org/2000/svg" xmlns:xlink="http://www.w3.org/1999/xlink">
<g id="graph0" class="graph" transform="scale(1 1) rotate(0) translate(4 130)">
<title>imported_1688044910.4862006</title>
<polygon fill="white" stroke="transparent" points="-4,4 -4,-130 949,-130 949,4 -4,4"/>
<!-- 140468994171904 -->
<g id="node1" class="node">
<title>140468994171904</title>
<polygon fill="white" stroke="black" points="945,-81 887,-81 887,-45 945,-45 945,-81"/>
<text text-anchor="middle" x="916" y="-59.9" font-family="Times,serif" font-size="12.00">Payment</text>
</g>
<!-- 140468994172912 -->
<g id="node2" class="node">
<title>140468994172912</title>
<polygon fill="white" stroke="black" points="748,-45 573,-45 573,-9 748,-9 748,-45"/>
<text text-anchor="middle" x="660.5" y="-23.9" font-family="Times,serif" font-size="12.00">Notify Result Appeal to Offender</text>
</g>
<!-- 140468994173728 -->
<g id="node9" class="node">
<title>140468994173728</title>
<ellipse fill="white" stroke="black" cx="824" cy="-27" rx="27" ry="27"/>
</g>
<!-- 140468994172912&#45;&gt;140468994173728 -->
<g id="edge7" class="edge">
<title>140468994172912&#45;&gt;140468994173728</title>
<path fill="none" stroke="black" d="M748.4,-27C761.89,-27 775.15,-27 786.66,-27"/>
<polygon fill="black" stroke="black" points="786.7,-30.5 796.7,-27 786.7,-23.5 786.7,-30.5"/>
</g>
<!-- 140468994174352 -->
<g id="node3" class="node">
<title>140468994174352</title>
<polygon fill="white" stroke="black" points="761,-117 560,-117 560,-81 761,-81 761,-117"/>
<text text-anchor="middle" x="660.5" y="-95.9" font-family="Times,serif" font-size="12.00">Receive Result Appeal from Prefecture</text>
</g>
<!-- 140468994174784 -->
<g id="node7" class="node">
<title>140468994174784</title>
<ellipse fill="white" stroke="black" cx="824" cy="-99" rx="27" ry="27"/>
</g>
<!-- 140468994174352&#45;&gt;140468994174784 -->
<g id="edge6" class="edge">
<title>140468994174352&#45;&gt;140468994174784</title>
<path fill="none" stroke="black" d="M761.02,-99C770.04,-99 778.72,-99 786.59,-99"/>
<polygon fill="black" stroke="black" points="786.77,-102.5 796.77,-99 786.77,-95.5 786.77,-102.5"/>
</g>
<!-- 140468994172336 -->
<g id="node4" class="node">
<title>140468994172336</title>
<polygon fill="white" stroke="black" points="168,-117 0,-117 0,-81 168,-81 168,-117"/>
<text text-anchor="middle" x="84" y="-95.9" font-family="Times,serif" font-size="12.00">Insert Date Appeal to Prefecture</text>
</g>
<!-- 140468994172288 -->
<g id="node8" class="node">
<title>140468994172288</title>
<ellipse fill="white" stroke="black" cx="231" cy="-99" rx="27" ry="27"/>
</g>
<!-- 140468994172336&#45;&gt;140468994172288 -->
<g id="edge5" class="edge">
<title>140468994172336&#45;&gt;140468994172288</title>
<path fill="none" stroke="black" d="M168.09,-99C176.96,-99 185.62,-99 193.51,-99"/>
<polygon fill="black" stroke="black" points="193.75,-102.5 203.75,-99 193.75,-95.5 193.75,-102.5"/>
</g>
<!-- 140468994174928 -->
<g id="node5" class="node">
<title>140468994174928</title>
<polygon fill="white" stroke="black" points="434,-117 294,-117 294,-81 434,-81 434,-117"/>
<text text-anchor="middle" x="364" y="-95.9" font-family="Times,serif" font-size="12.00">Send Appeal to Prefecture</text>
</g>
<!-- 140468994172528 -->
<g id="node6" class="node">
<title>140468994172528</title>
<ellipse fill="white" stroke="black" cx="497" cy="-99" rx="27" ry="27"/>
</g>
<!-- 140468994174928&#45;&gt;140468994172528 -->
<g id="edge8" class="edge">
<title>140468994174928&#45;&gt;140468994172528</title>
<path fill="none" stroke="black" d="M434.34,-99C443.13,-99 451.82,-99 459.79,-99"/>
<polygon fill="black" stroke="black" points="459.8,-102.5 469.8,-99 459.8,-95.5 459.8,-102.5"/>
</g>
<!-- 140468994172528&#45;&gt;140468994174352 -->
<g id="edge1" class="edge">
<title>140468994172528&#45;&gt;140468994174352</title>
<path fill="none" stroke="black" d="M524.31,-99C531.79,-99 540.44,-99 549.68,-99"/>
<polygon fill="black" stroke="black" points="549.9,-102.5 559.9,-99 549.9,-95.5 549.9,-102.5"/>
</g>
<!-- 140468994174784&#45;&gt;140468994171904 -->
<g id="edge2" class="edge">
<title>140468994174784&#45;&gt;140468994171904</title>
<path fill="none" stroke="black" d="M849.59,-89.16C858.17,-85.73 868,-81.8 877.39,-78.05"/>
<polygon fill="black" stroke="black" points="878.95,-81.19 886.94,-74.22 876.36,-74.69 878.95,-81.19"/>
</g>
<!-- 140468994172288&#45;&gt;140468994174928 -->
<g id="edge3" class="edge">
<title>140468994172288&#45;&gt;140468994174928</title>
<path fill="none" stroke="black" d="M258.19,-99C265.87,-99 274.69,-99 283.89,-99"/>
<polygon fill="black" stroke="black" points="283.97,-102.5 293.97,-99 283.97,-95.5 283.97,-102.5"/>
</g>
<!-- 140468994173728&#45;&gt;140468994171904 -->
<g id="edge4" class="edge">
<title>140468994173728&#45;&gt;140468994171904</title>
<path fill="none" stroke="black" d="M849.59,-36.84C858.17,-40.27 868,-44.2 877.39,-47.95"/>
<polygon fill="black" stroke="black" points="876.36,-51.31 886.94,-51.78 878.95,-44.81 876.36,-51.31"/>
</g>
</g>
</svg>
