<?xml version="1.0" encoding="UTF-8" standalone="no"?>
<!DOCTYPE svg PUBLIC "-//W3C//DTD SVG 1.1//EN"
 "http://www.w3.org/Graphics/SVG/1.1/DTD/svg11.dtd">
<!-- Generated by graphviz version 2.43.0 (0)
 -->
<!-- Title: imported_1688044905.8980794 Pages: 1 -->
<svg width="776pt" height="134pt"
 viewBox="0.00 0.00 776.00 134.00" xmlns="http://www.w3.org/2000/svg" xmlns:xlink="http://www.w3.org/1999/xlink">
<g id="graph0" class="graph" transform="scale(1 1) rotate(0) translate(4 130)">
<title>imported_1688044905.8980794</title>
<polygon fill="white" stroke="transparent" points="-4,4 -4,-130 772,-130 772,4 -4,4"/>
<!-- 140468994103952 -->
<g id="node1" class="node">
<title>140468994103952</title>
<polygon fill="white" stroke="black" points="395.5,-117 337.5,-117 337.5,-81 395.5,-81 395.5,-117"/>
<text text-anchor="middle" x="366.5" y="-95.9" font-family="Times,serif" font-size="12.00">Payment</text>
</g>
<!-- 140468994103040 -->
<g id="node2" class="node">
<title>140468994103040</title>
<polygon fill="white" stroke="black" points="467,-45 266,-45 266,-9 467,-9 467,-45"/>
<text text-anchor="middle" x="366.5" y="-23.9" font-family="Times,serif" font-size="12.00">Receive Result Appeal from Prefecture</text>
</g>
<!-- 140468994101984 -->
<g id="node7" class="node">
<title>140468994101984</title>
<ellipse fill="white" stroke="black" cx="530" cy="-27" rx="27" ry="27"/>
</g>
<!-- 140468994103040&#45;&gt;140468994101984 -->
<g id="edge4" class="edge">
<title>140468994103040&#45;&gt;140468994101984</title>
<path fill="none" stroke="black" d="M467.02,-27C476.04,-27 484.72,-27 492.59,-27"/>
<polygon fill="black" stroke="black" points="492.77,-30.5 502.77,-27 492.77,-23.5 492.77,-30.5"/>
</g>
<!-- 140468994101312 -->
<g id="node3" class="node">
<title>140468994101312</title>
<polygon fill="white" stroke="black" points="768,-45 593,-45 593,-9 768,-9 768,-45"/>
<text text-anchor="middle" x="680.5" y="-23.9" font-family="Times,serif" font-size="12.00">Notify Result Appeal to Offender</text>
</g>
<!-- 140468994104960 -->
<g id="node4" class="node">
<title>140468994104960</title>
<polygon fill="white" stroke="black" points="140,-81 0,-81 0,-45 140,-45 140,-81"/>
<text text-anchor="middle" x="70" y="-59.9" font-family="Times,serif" font-size="12.00">Send Appeal to Prefecture</text>
</g>
<!-- 140468994102416 -->
<g id="node5" class="node">
<title>140468994102416</title>
<ellipse fill="white" stroke="black" cx="203" cy="-99" rx="27" ry="27"/>
</g>
<!-- 140468994104960&#45;&gt;140468994102416 -->
<g id="edge5" class="edge">
<title>140468994104960&#45;&gt;140468994102416</title>
<path fill="none" stroke="black" d="M136.88,-81.11C147.27,-83.96 157.65,-86.81 166.96,-89.37"/>
<polygon fill="black" stroke="black" points="166.04,-92.75 176.61,-92.02 167.89,-86 166.04,-92.75"/>
</g>
<!-- 140468994102224 -->
<g id="node6" class="node">
<title>140468994102224</title>
<ellipse fill="white" stroke="black" cx="203" cy="-27" rx="27" ry="27"/>
</g>
<!-- 140468994104960&#45;&gt;140468994102224 -->
<g id="edge6" class="edge">
<title>140468994104960&#45;&gt;140468994102224</title>
<path fill="none" stroke="black" d="M136.88,-44.89C147.27,-42.04 157.65,-39.19 166.96,-36.63"/>
<polygon fill="black" stroke="black" points="167.89,-40 176.61,-33.98 166.04,-33.25 167.89,-40"/>
</g>
<!-- 140468994102416&#45;&gt;140468994103952 -->
<g id="edge1" class="edge">
<title>140468994102416&#45;&gt;140468994103952</title>
<path fill="none" stroke="black" d="M230.31,-99C256.61,-99 297.34,-99 327.23,-99"/>
<polygon fill="black" stroke="black" points="327.3,-102.5 337.3,-99 327.3,-95.5 327.3,-102.5"/>
</g>
<!-- 140468994102224&#45;&gt;140468994103040 -->
<g id="edge2" class="edge">
<title>140468994102224&#45;&gt;140468994103040</title>
<path fill="none" stroke="black" d="M230.31,-27C237.79,-27 246.44,-27 255.68,-27"/>
<polygon fill="black" stroke="black" points="255.9,-30.5 265.9,-27 255.9,-23.5 255.9,-30.5"/>
</g>
<!-- 140468994101984&#45;&gt;140468994101312 -->
<g id="edge3" class="edge">
<title>140468994101984&#45;&gt;140468994101312</title>
<path fill="none" stroke="black" d="M557.21,-27C564.73,-27 573.4,-27 582.59,-27"/>
<polygon fill="black" stroke="black" points="582.73,-30.5 592.73,-27 582.72,-23.5 582.73,-30.5"/>
</g>
</g>
</svg>
