<?xml version="1.0" encoding="UTF-8" standalone="no"?>
<!DOCTYPE svg PUBLIC "-//W3C//DTD SVG 1.1//EN"
 "http://www.w3.org/Graphics/SVG/1.1/DTD/svg11.dtd">
<!-- Generated by graphviz version 2.43.0 (0)
 -->
<!-- Title: imported_1688044907.7476838 Pages: 1 -->
<svg width="804pt" height="134pt"
 viewBox="0.00 0.00 804.00 134.00" xmlns="http://www.w3.org/2000/svg" xmlns:xlink="http://www.w3.org/1999/xlink">
<g id="graph0" class="graph" transform="scale(1 1) rotate(0) translate(4 130)">
<title>imported_1688044907.7476838</title>
<polygon fill="white" stroke="transparent" points="-4,4 -4,-130 800,-130 800,4 -4,4"/>
<!-- 140468994173920 -->
<g id="node1" class="node">
<title>140468994173920</title>
<polygon fill="white" stroke="black" points="495,-45 294,-45 294,-9 495,-9 495,-45"/>
<text text-anchor="middle" x="394.5" y="-23.9" font-family="Times,serif" font-size="12.00">Receive Result Appeal from Prefecture</text>
</g>
<!-- 140468994174928 -->
<g id="node7" class="node">
<title>140468994174928</title>
<ellipse fill="white" stroke="black" cx="558" cy="-27" rx="27" ry="27"/>
</g>
<!-- 140468994173920&#45;&gt;140468994174928 -->
<g id="edge7" class="edge">
<title>140468994173920&#45;&gt;140468994174928</title>
<path fill="none" stroke="black" d="M495.02,-27C504.04,-27 512.72,-27 520.59,-27"/>
<polygon fill="black" stroke="black" points="520.77,-30.5 530.77,-27 520.77,-23.5 520.77,-30.5"/>
</g>
<!-- 140468994173968 -->
<g id="node2" class="node">
<title>140468994173968</title>
<polygon fill="white" stroke="black" points="168,-81 0,-81 0,-45 168,-45 168,-81"/>
<text text-anchor="middle" x="84" y="-59.9" font-family="Times,serif" font-size="12.00">Insert Date Appeal to Prefecture</text>
</g>
<!-- 140468994174544 -->
<g id="node8" class="node">
<title>140468994174544</title>
<ellipse fill="white" stroke="black" cx="231" cy="-99" rx="27" ry="27"/>
</g>
<!-- 140468994173968&#45;&gt;140468994174544 -->
<g id="edge5" class="edge">
<title>140468994173968&#45;&gt;140468994174544</title>
<path fill="none" stroke="black" d="M157.92,-81.11C170.78,-84.3 183.61,-87.48 194.81,-90.26"/>
<polygon fill="black" stroke="black" points="194.04,-93.68 204.59,-92.69 195.73,-86.88 194.04,-93.68"/>
</g>
<!-- 140468994172576 -->
<g id="node9" class="node">
<title>140468994172576</title>
<ellipse fill="white" stroke="black" cx="231" cy="-27" rx="27" ry="27"/>
</g>
<!-- 140468994173968&#45;&gt;140468994172576 -->
<g id="edge6" class="edge">
<title>140468994173968&#45;&gt;140468994172576</title>
<path fill="none" stroke="black" d="M157.92,-44.89C170.78,-41.7 183.61,-38.52 194.81,-35.74"/>
<polygon fill="black" stroke="black" points="195.73,-39.12 204.59,-33.31 194.04,-32.32 195.73,-39.12"/>
</g>
<!-- 140468994174448 -->
<g id="node3" class="node">
<title>140468994174448</title>
<polygon fill="white" stroke="black" points="779,-117 638,-117 638,-81 779,-81 779,-117"/>
<text text-anchor="middle" x="708.5" y="-95.9" font-family="Times,serif" font-size="12.00">Send for Credit Collection</text>
</g>
<!-- 140468994173872 -->
<g id="node4" class="node">
<title>140468994173872</title>
<polygon fill="white" stroke="black" points="796,-45 621,-45 621,-9 796,-9 796,-45"/>
<text text-anchor="middle" x="708.5" y="-23.9" font-family="Times,serif" font-size="12.00">Notify Result Appeal to Offender</text>
</g>
<!-- 140468994171088 -->
<g id="node5" class="node">
<title>140468994171088</title>
<polygon fill="white" stroke="black" points="464.5,-117 324.5,-117 324.5,-81 464.5,-81 464.5,-117"/>
<text text-anchor="middle" x="394.5" y="-95.9" font-family="Times,serif" font-size="12.00">Send Appeal to Prefecture</text>
</g>
<!-- 140468994173536 -->
<g id="node6" class="node">
<title>140468994173536</title>
<ellipse fill="white" stroke="black" cx="558" cy="-99" rx="27" ry="27"/>
</g>
<!-- 140468994171088&#45;&gt;140468994173536 -->
<g id="edge8" class="edge">
<title>140468994171088&#45;&gt;140468994173536</title>
<path fill="none" stroke="black" d="M464.93,-99C484.14,-99 504.23,-99 520.72,-99"/>
<polygon fill="black" stroke="black" points="521,-102.5 531,-99 521,-95.5 521,-102.5"/>
</g>
<!-- 140468994173536&#45;&gt;140468994174448 -->
<g id="edge1" class="edge">
<title>140468994173536&#45;&gt;140468994174448</title>
<path fill="none" stroke="black" d="M585.21,-99C597.3,-99 612.36,-99 627.75,-99"/>
<polygon fill="black" stroke="black" points="627.88,-102.5 637.88,-99 627.88,-95.5 627.88,-102.5"/>
</g>
<!-- 140468994174928&#45;&gt;140468994173872 -->
<g id="edge2" class="edge">
<title>140468994174928&#45;&gt;140468994173872</title>
<path fill="none" stroke="black" d="M585.21,-27C592.73,-27 601.4,-27 610.59,-27"/>
<polygon fill="black" stroke="black" points="610.73,-30.5 620.73,-27 610.72,-23.5 610.73,-30.5"/>
</g>
<!-- 140468994174544&#45;&gt;140468994171088 -->
<g id="edge3" class="edge">
<title>140468994174544&#45;&gt;140468994171088</title>
<path fill="none" stroke="black" d="M258.31,-99C273.68,-99 293.97,-99 314.15,-99"/>
<polygon fill="black" stroke="black" points="314.34,-102.5 324.34,-99 314.34,-95.5 314.34,-102.5"/>
</g>
<!-- 140468994172576&#45;&gt;140468994173920 -->
<g id="edge4" class="edge">
<title>140468994172576&#45;&gt;140468994173920</title>
<path fill="none" stroke="black" d="M258.31,-27C265.79,-27 274.44,-27 283.68,-27"/>
<polygon fill="black" stroke="black" points="283.9,-30.5 293.9,-27 283.9,-23.5 283.9,-30.5"/>
</g>
</g>
</svg>
