<?xml version="1.0" encoding="UTF-8" standalone="no"?>
<!DOCTYPE svg PUBLIC "-//W3C//DTD SVG 1.1//EN"
 "http://www.w3.org/Graphics/SVG/1.1/DTD/svg11.dtd">
<!-- Generated by graphviz version 2.43.0 (0)
 -->
<!-- Title: imported_1688044895.3376088 Pages: 1 -->
<svg width="1071pt" height="134pt"
 viewBox="0.00 0.00 1071.00 134.00" xmlns="http://www.w3.org/2000/svg" xmlns:xlink="http://www.w3.org/1999/xlink">
<g id="graph0" class="graph" transform="scale(1 1) rotate(0) translate(4 130)">
<title>imported_1688044895.3376088</title>
<polygon fill="white" stroke="transparent" points="-4,4 -4,-130 1067,-130 1067,4 -4,4"/>
<!-- 140465201707040 -->
<g id="node1" class="node">
<title>140465201707040</title>
<polygon fill="white" stroke="black" points="1063,-81 922,-81 922,-45 1063,-45 1063,-81"/>
<text text-anchor="middle" x="992.5" y="-59.9" font-family="Times,serif" font-size="12.00">Send for Credit Collection</text>
</g>
<!-- 140465201708672 -->
<g id="node2" class="node">
<title>140465201708672</title>
<polygon fill="white" stroke="black" points="778.5,-117 638.5,-117 638.5,-81 778.5,-81 778.5,-117"/>
<text text-anchor="middle" x="708.5" y="-95.9" font-family="Times,serif" font-size="12.00">Send Appeal to Prefecture</text>
</g>
<!-- 140465201707088 -->
<g id="node6" class="node">
<title>140465201707088</title>
<ellipse fill="white" stroke="black" cx="859" cy="-99" rx="27" ry="27"/>
</g>
<!-- 140465201708672&#45;&gt;140465201707088 -->
<g id="edge8" class="edge">
<title>140465201708672&#45;&gt;140465201707088</title>
<path fill="none" stroke="black" d="M778.53,-99C793.33,-99 808.4,-99 821.38,-99"/>
<polygon fill="black" stroke="black" points="821.75,-102.5 831.75,-99 821.75,-95.5 821.75,-102.5"/>
</g>
<!-- 140465201708144 -->
<g id="node3" class="node">
<title>140465201708144</title>
<polygon fill="white" stroke="black" points="168,-45 0,-45 0,-9 168,-9 168,-45"/>
<text text-anchor="middle" x="84" y="-23.9" font-family="Times,serif" font-size="12.00">Insert Date Appeal to Prefecture</text>
</g>
<!-- 140465201708576 -->
<g id="node9" class="node">
<title>140465201708576</title>
<ellipse fill="white" stroke="black" cx="231" cy="-27" rx="27" ry="27"/>
</g>
<!-- 140465201708144&#45;&gt;140465201708576 -->
<g id="edge5" class="edge">
<title>140465201708144&#45;&gt;140465201708576</title>
<path fill="none" stroke="black" d="M168.09,-27C176.96,-27 185.62,-27 193.51,-27"/>
<polygon fill="black" stroke="black" points="193.75,-30.5 203.75,-27 193.75,-23.5 193.75,-30.5"/>
</g>
<!-- 140465201705744 -->
<g id="node4" class="node">
<title>140465201705744</title>
<polygon fill="white" stroke="black" points="796,-45 621,-45 621,-9 796,-9 796,-45"/>
<text text-anchor="middle" x="708.5" y="-23.9" font-family="Times,serif" font-size="12.00">Notify Result Appeal to Offender</text>
</g>
<!-- 140465201707280 -->
<g id="node8" class="node">
<title>140465201707280</title>
<ellipse fill="white" stroke="black" cx="859" cy="-27" rx="27" ry="27"/>
</g>
<!-- 140465201705744&#45;&gt;140465201707280 -->
<g id="edge7" class="edge">
<title>140465201705744&#45;&gt;140465201707280</title>
<path fill="none" stroke="black" d="M796.31,-27C805.21,-27 813.87,-27 821.74,-27"/>
<polygon fill="black" stroke="black" points="821.94,-30.5 831.94,-27 821.94,-23.5 821.94,-30.5"/>
</g>
<!-- 140465201705360 -->
<g id="node5" class="node">
<title>140465201705360</title>
<polygon fill="white" stroke="black" points="495,-45 294,-45 294,-9 495,-9 495,-45"/>
<text text-anchor="middle" x="394.5" y="-23.9" font-family="Times,serif" font-size="12.00">Receive Result Appeal from Prefecture</text>
</g>
<!-- 140465201706656 -->
<g id="node7" class="node">
<title>140465201706656</title>
<ellipse fill="white" stroke="black" cx="558" cy="-27" rx="27" ry="27"/>
</g>
<!-- 140465201705360&#45;&gt;140465201706656 -->
<g id="edge6" class="edge">
<title>140465201705360&#45;&gt;140465201706656</title>
<path fill="none" stroke="black" d="M495.02,-27C504.04,-27 512.72,-27 520.59,-27"/>
<polygon fill="black" stroke="black" points="520.77,-30.5 530.77,-27 520.77,-23.5 520.77,-30.5"/>
</g>
<!-- 140465201707088&#45;&gt;140465201707040 -->
<g id="edge1" class="edge">
<title>140465201707088&#45;&gt;140465201707040</title>
<path fill="none" stroke="black" d="M885.35,-92.06C894.3,-89.61 904.88,-86.71 915.83,-83.72"/>
<polygon fill="black" stroke="black" points="916.8,-87.08 925.52,-81.06 914.95,-80.33 916.8,-87.08"/>
</g>
<!-- 140465201706656&#45;&gt;140465201705744 -->
<g id="edge2" class="edge">
<title>140465201706656&#45;&gt;140465201705744</title>
<path fill="none" stroke="black" d="M585.21,-27C592.73,-27 601.4,-27 610.59,-27"/>
<polygon fill="black" stroke="black" points="610.73,-30.5 620.73,-27 610.72,-23.5 610.73,-30.5"/>
</g>
<!-- 140465201707280&#45;&gt;140465201707040 -->
<g id="edge3" class="edge">
<title>140465201707280&#45;&gt;140465201707040</title>
<path fill="none" stroke="black" d="M885.35,-33.94C894.3,-36.39 904.88,-39.29 915.83,-42.28"/>
<polygon fill="black" stroke="black" points="914.95,-45.67 925.52,-44.94 916.8,-38.92 914.95,-45.67"/>
</g>
<!-- 140465201708576&#45;&gt;140465201705360 -->
<g id="edge4" class="edge">
<title>140465201708576&#45;&gt;140465201705360</title>
<path fill="none" stroke="black" d="M258.31,-27C265.79,-27 274.44,-27 283.68,-27"/>
<polygon fill="black" stroke="black" points="283.9,-30.5 293.9,-27 283.9,-23.5 283.9,-30.5"/>
</g>
</g>
</svg>
