<?xml version="1.0" encoding="UTF-8" standalone="no"?>
<!DOCTYPE svg PUBLIC "-//W3C//DTD SVG 1.1//EN"
 "http://www.w3.org/Graphics/SVG/1.1/DTD/svg11.dtd">
<!-- Generated by graphviz version 2.43.0 (0)
 -->
<!-- Title: imported_1688044903.110926 Pages: 1 -->
<svg width="804pt" height="134pt"
 viewBox="0.00 0.00 804.00 134.00" xmlns="http://www.w3.org/2000/svg" xmlns:xlink="http://www.w3.org/1999/xlink">
<g id="graph0" class="graph" transform="scale(1 1) rotate(0) translate(4 130)">
<title>imported_1688044903.110926</title>
<polygon fill="white" stroke="transparent" points="-4,4 -4,-130 800,-130 800,4 -4,4"/>
<!-- 140465201689408 -->
<g id="node1" class="node">
<title>140465201689408</title>
<polygon fill="white" stroke="black" points="423.5,-117 365.5,-117 365.5,-81 423.5,-81 423.5,-117"/>
<text text-anchor="middle" x="394.5" y="-95.9" font-family="Times,serif" font-size="12.00">Payment</text>
</g>
<!-- 140465201780480 -->
<g id="node2" class="node">
<title>140465201780480</title>
<polygon fill="white" stroke="black" points="796,-45 621,-45 621,-9 796,-9 796,-45"/>
<text text-anchor="middle" x="708.5" y="-23.9" font-family="Times,serif" font-size="12.00">Notify Result Appeal to Offender</text>
</g>
<!-- 140465201780576 -->
<g id="node3" class="node">
<title>140465201780576</title>
<polygon fill="white" stroke="black" points="168,-81 0,-81 0,-45 168,-45 168,-81"/>
<text text-anchor="middle" x="84" y="-59.9" font-family="Times,serif" font-size="12.00">Insert Date Appeal to Prefecture</text>
</g>
<!-- 140465201689264 -->
<g id="node5" class="node">
<title>140465201689264</title>
<ellipse fill="white" stroke="black" cx="231" cy="-99" rx="27" ry="27"/>
</g>
<!-- 140465201780576&#45;&gt;140465201689264 -->
<g id="edge4" class="edge">
<title>140465201780576&#45;&gt;140465201689264</title>
<path fill="none" stroke="black" d="M157.92,-81.11C170.78,-84.3 183.61,-87.48 194.81,-90.26"/>
<polygon fill="black" stroke="black" points="194.04,-93.68 204.59,-92.69 195.73,-86.88 194.04,-93.68"/>
</g>
<!-- 140465201691712 -->
<g id="node7" class="node">
<title>140465201691712</title>
<ellipse fill="white" stroke="black" cx="231" cy="-27" rx="27" ry="27"/>
</g>
<!-- 140465201780576&#45;&gt;140465201691712 -->
<g id="edge5" class="edge">
<title>140465201780576&#45;&gt;140465201691712</title>
<path fill="none" stroke="black" d="M157.92,-44.89C170.78,-41.7 183.61,-38.52 194.81,-35.74"/>
<polygon fill="black" stroke="black" points="195.73,-39.12 204.59,-33.31 194.04,-32.32 195.73,-39.12"/>
</g>
<!-- 140465201780720 -->
<g id="node4" class="node">
<title>140465201780720</title>
<polygon fill="white" stroke="black" points="495,-45 294,-45 294,-9 495,-9 495,-45"/>
<text text-anchor="middle" x="394.5" y="-23.9" font-family="Times,serif" font-size="12.00">Receive Result Appeal from Prefecture</text>
</g>
<!-- 140465201689504 -->
<g id="node6" class="node">
<title>140465201689504</title>
<ellipse fill="white" stroke="black" cx="558" cy="-27" rx="27" ry="27"/>
</g>
<!-- 140465201780720&#45;&gt;140465201689504 -->
<g id="edge6" class="edge">
<title>140465201780720&#45;&gt;140465201689504</title>
<path fill="none" stroke="black" d="M495.02,-27C504.04,-27 512.72,-27 520.59,-27"/>
<polygon fill="black" stroke="black" points="520.77,-30.5 530.77,-27 520.77,-23.5 520.77,-30.5"/>
</g>
<!-- 140465201689264&#45;&gt;140465201689408 -->
<g id="edge1" class="edge">
<title>140465201689264&#45;&gt;140465201689408</title>
<path fill="none" stroke="black" d="M258.31,-99C284.61,-99 325.34,-99 355.23,-99"/>
<polygon fill="black" stroke="black" points="355.3,-102.5 365.3,-99 355.3,-95.5 355.3,-102.5"/>
</g>
<!-- 140465201689504&#45;&gt;140465201780480 -->
<g id="edge2" class="edge">
<title>140465201689504&#45;&gt;140465201780480</title>
<path fill="none" stroke="black" d="M585.21,-27C592.73,-27 601.4,-27 610.59,-27"/>
<polygon fill="black" stroke="black" points="610.73,-30.5 620.73,-27 610.72,-23.5 610.73,-30.5"/>
</g>
<!-- 140465201691712&#45;&gt;140465201780720 -->
<g id="edge3" class="edge">
<title>140465201691712&#45;&gt;140465201780720</title>
<path fill="none" stroke="black" d="M258.31,-27C265.79,-27 274.44,-27 283.68,-27"/>
<polygon fill="black" stroke="black" points="283.9,-30.5 293.9,-27 283.9,-23.5 283.9,-30.5"/>
</g>
</g>
</svg>
