<?xml version="1.0" encoding="UTF-8" standalone="no"?>
<!DOCTYPE svg PUBLIC "-//W3C//DTD SVG 1.1//EN"
 "http://www.w3.org/Graphics/SVG/1.1/DTD/svg11.dtd">
<!-- Generated by graphviz version 2.43.0 (0)
 -->
<!-- Title: imported_1688044919.6031024 Pages: 1 -->
<svg width="1056pt" height="179pt"
 viewBox="0.00 0.00 1056.00 179.00" xmlns="http://www.w3.org/2000/svg" xmlns:xlink="http://www.w3.org/1999/xlink">
<g id="graph0" class="graph" transform="scale(1 1) rotate(0) translate(4 175)">
<title>imported_1688044919.6031024</title>
<polygon fill="white" stroke="transparent" points="-4,4 -4,-175 1052,-175 1052,4 -4,4"/>
<!-- 140465202111680 -->
<g id="node1" class="node">
<title>140465202111680</title>
<polygon fill="white" stroke="black" points="420,-81 252,-81 252,-45 420,-45 420,-81"/>
<text text-anchor="middle" x="336" y="-59.9" font-family="Times,serif" font-size="12.00">Insert Date Appeal to Prefecture</text>
</g>
<!-- 140465202113120 -->
<g id="node9" class="node">
<title>140465202113120</title>
<ellipse fill="white" stroke="black" cx="483" cy="-99" rx="27" ry="27"/>
</g>
<!-- 140465202111680&#45;&gt;140465202113120 -->
<g id="edge8" class="edge">
<title>140465202111680&#45;&gt;140465202113120</title>
<path fill="none" stroke="black" d="M409.92,-81.11C422.78,-84.3 435.61,-87.48 446.81,-90.26"/>
<polygon fill="black" stroke="black" points="446.04,-93.68 456.59,-92.69 447.73,-86.88 446.04,-93.68"/>
</g>
<!-- 140465202113792 -->
<g id="node11" class="node">
<title>140465202113792</title>
<ellipse fill="white" stroke="black" cx="483" cy="-27" rx="27" ry="27"/>
</g>
<!-- 140465202111680&#45;&gt;140465202113792 -->
<g id="edge9" class="edge">
<title>140465202111680&#45;&gt;140465202113792</title>
<path fill="none" stroke="black" d="M409.92,-44.89C422.78,-41.7 435.61,-38.52 446.81,-35.74"/>
<polygon fill="black" stroke="black" points="447.73,-39.12 456.59,-33.31 446.04,-32.32 447.73,-39.12"/>
</g>
<!-- 140465202114368 -->
<g id="node2" class="node">
<title>140465202114368</title>
<polygon fill="white" stroke="black" points="1007.5,-171 913.5,-171 913.5,-135 1007.5,-135 1007.5,-171"/>
<text text-anchor="middle" x="960.5" y="-149.9" font-family="Times,serif" font-size="12.00">Appeal to Judge</text>
</g>
<!-- 140465202114080 -->
<g id="node3" class="node">
<title>140465202114080</title>
<polygon fill="white" stroke="black" points="126,-81 0,-81 0,-45 126,-45 126,-81"/>
<text text-anchor="middle" x="63" y="-59.9" font-family="Times,serif" font-size="12.00">Insert Fine Notification</text>
</g>
<!-- 140465202112592 -->
<g id="node8" class="node">
<title>140465202112592</title>
<ellipse fill="white" stroke="black" cx="189" cy="-63" rx="27" ry="27"/>
</g>
<!-- 140465202114080&#45;&gt;140465202112592 -->
<g id="edge2" class="edge">
<title>140465202114080&#45;&gt;140465202112592</title>
<path fill="none" stroke="black" d="M126.36,-63C135.09,-63 143.8,-63 151.81,-63"/>
<polygon fill="black" stroke="black" points="151.88,-66.5 161.88,-63 151.88,-59.5 151.88,-66.5"/>
</g>
<!-- 140465202111344 -->
<g id="node4" class="node">
<title>140465202111344</title>
<polygon fill="white" stroke="black" points="675.5,-171 617.5,-171 617.5,-135 675.5,-135 675.5,-171"/>
<text text-anchor="middle" x="646.5" y="-149.9" font-family="Times,serif" font-size="12.00">Payment</text>
</g>
<!-- 140465202113696 -->
<g id="node10" class="node">
<title>140465202113696</title>
<ellipse fill="white" stroke="black" cx="810" cy="-126" rx="27" ry="27"/>
</g>
<!-- 140465202111344&#45;&gt;140465202113696 -->
<g id="edge7" class="edge">
<title>140465202111344&#45;&gt;140465202113696</title>
<path fill="none" stroke="black" d="M675.63,-148.3C702.79,-143.76 744.03,-136.86 773.45,-131.94"/>
<polygon fill="black" stroke="black" points="774.03,-135.39 783.32,-130.29 772.88,-128.49 774.03,-135.39"/>
</g>
<!-- 140465202112496 -->
<g id="node5" class="node">
<title>140465202112496</title>
<polygon fill="white" stroke="black" points="747,-45 546,-45 546,-9 747,-9 747,-45"/>
<text text-anchor="middle" x="646.5" y="-23.9" font-family="Times,serif" font-size="12.00">Receive Result Appeal from Prefecture</text>
</g>
<!-- 140465202111824 -->
<g id="node6" class="node">
<title>140465202111824</title>
<polygon fill="white" stroke="black" points="716.5,-117 576.5,-117 576.5,-81 716.5,-81 716.5,-117"/>
<text text-anchor="middle" x="646.5" y="-95.9" font-family="Times,serif" font-size="12.00">Send Appeal to Prefecture</text>
</g>
<!-- 140465202111824&#45;&gt;140465202113696 -->
<g id="edge10" class="edge">
<title>140465202111824&#45;&gt;140465202113696</title>
<path fill="none" stroke="black" d="M716.93,-110.61C736.14,-113.82 756.23,-117.18 772.72,-119.94"/>
<polygon fill="black" stroke="black" points="772.56,-123.46 783,-121.65 773.71,-116.55 772.56,-123.46"/>
</g>
<!-- 140465202113744 -->
<g id="node7" class="node">
<title>140465202113744</title>
<polygon fill="white" stroke="black" points="1048,-117 873,-117 873,-81 1048,-81 1048,-117"/>
<text text-anchor="middle" x="960.5" y="-95.9" font-family="Times,serif" font-size="12.00">Notify Result Appeal to Offender</text>
</g>
<!-- 140465202112592&#45;&gt;140465202111680 -->
<g id="edge1" class="edge">
<title>140465202112592&#45;&gt;140465202111680</title>
<path fill="none" stroke="black" d="M216.26,-63C223.81,-63 232.51,-63 241.7,-63"/>
<polygon fill="black" stroke="black" points="241.83,-66.5 251.83,-63 241.83,-59.5 241.83,-66.5"/>
</g>
<!-- 140465202113120&#45;&gt;140465202111824 -->
<g id="edge3" class="edge">
<title>140465202113120&#45;&gt;140465202111824</title>
<path fill="none" stroke="black" d="M510.31,-99C525.68,-99 545.97,-99 566.15,-99"/>
<polygon fill="black" stroke="black" points="566.34,-102.5 576.34,-99 566.34,-95.5 566.34,-102.5"/>
</g>
<!-- 140465202113696&#45;&gt;140465202114368 -->
<g id="edge4" class="edge">
<title>140465202113696&#45;&gt;140465202114368</title>
<path fill="none" stroke="black" d="M836.87,-130.7C855.18,-134.03 880.45,-138.63 903.29,-142.78"/>
<polygon fill="black" stroke="black" points="902.78,-146.24 913.25,-144.59 904.03,-139.36 902.78,-146.24"/>
</g>
<!-- 140465202113696&#45;&gt;140465202113744 -->
<g id="edge5" class="edge">
<title>140465202113696&#45;&gt;140465202113744</title>
<path fill="none" stroke="black" d="M836.87,-121.3C844.51,-119.91 853.37,-118.3 862.77,-116.59"/>
<polygon fill="black" stroke="black" points="863.5,-120.01 872.71,-114.78 862.25,-113.12 863.5,-120.01"/>
</g>
<!-- 140465202113792&#45;&gt;140465202112496 -->
<g id="edge6" class="edge">
<title>140465202113792&#45;&gt;140465202112496</title>
<path fill="none" stroke="black" d="M510.31,-27C517.79,-27 526.44,-27 535.68,-27"/>
<polygon fill="black" stroke="black" points="535.9,-30.5 545.9,-27 535.9,-23.5 535.9,-30.5"/>
</g>
</g>
</svg>
