<?xml version="1.0" encoding="UTF-8" standalone="no"?>
<!DOCTYPE svg PUBLIC "-//W3C//DTD SVG 1.1//EN"
 "http://www.w3.org/Graphics/SVG/1.1/DTD/svg11.dtd">
<!-- Generated by graphviz version 2.43.0 (0)
 -->
<!-- Title: imported_1688044906.25658 Pages: 1 -->
<svg width="1254pt" height="62pt"
 viewBox="0.00 0.00 1254.00 62.00" xmlns="http://www.w3.org/2000/svg" xmlns:xlink="http://www.w3.org/1999/xlink">
<g id="graph0" class="graph" transform="scale(1 1) rotate(0) translate(4 58)">
<title>imported_1688044906.25658</title>
<polygon fill="white" stroke="transparent" points="-4,4 -4,-58 1250,-58 1250,4 -4,4"/>
<!-- 140465201660832 -->
<g id="node1" class="node">
<title>140465201660832</title>
<polygon fill="white" stroke="black" points="1246,-45 1188,-45 1188,-9 1246,-9 1246,-45"/>
<text text-anchor="middle" x="1217" y="-23.9" font-family="Times,serif" font-size="12.00">Payment</text>
</g>
<!-- 140465201660928 -->
<g id="node2" class="node">
<title>140465201660928</title>
<polygon fill="white" stroke="black" points="1062,-45 887,-45 887,-9 1062,-9 1062,-45"/>
<text text-anchor="middle" x="974.5" y="-23.9" font-family="Times,serif" font-size="12.00">Notify Result Appeal to Offender</text>
</g>
<!-- 140465201660448 -->
<g id="node9" class="node">
<title>140465201660448</title>
<ellipse fill="white" stroke="black" cx="1125" cy="-27" rx="27" ry="27"/>
</g>
<!-- 140465201660928&#45;&gt;140465201660448 -->
<g id="edge7" class="edge">
<title>140465201660928&#45;&gt;140465201660448</title>
<path fill="none" stroke="black" d="M1062.31,-27C1071.21,-27 1079.87,-27 1087.74,-27"/>
<polygon fill="black" stroke="black" points="1087.94,-30.5 1097.94,-27 1087.94,-23.5 1087.94,-30.5"/>
</g>
<!-- 140465201661168 -->
<g id="node3" class="node">
<title>140465201661168</title>
<polygon fill="white" stroke="black" points="434,-45 294,-45 294,-9 434,-9 434,-45"/>
<text text-anchor="middle" x="364" y="-23.9" font-family="Times,serif" font-size="12.00">Send Appeal to Prefecture</text>
</g>
<!-- 140464257979680 -->
<g id="node6" class="node">
<title>140464257979680</title>
<ellipse fill="white" stroke="black" cx="497" cy="-27" rx="27" ry="27"/>
</g>
<!-- 140465201661168&#45;&gt;140464257979680 -->
<g id="edge8" class="edge">
<title>140465201661168&#45;&gt;140464257979680</title>
<path fill="none" stroke="black" d="M434.34,-27C443.13,-27 451.82,-27 459.79,-27"/>
<polygon fill="black" stroke="black" points="459.8,-30.5 469.8,-27 459.8,-23.5 459.8,-30.5"/>
</g>
<!-- 140465201660496 -->
<g id="node4" class="node">
<title>140465201660496</title>
<polygon fill="white" stroke="black" points="761,-45 560,-45 560,-9 761,-9 761,-45"/>
<text text-anchor="middle" x="660.5" y="-23.9" font-family="Times,serif" font-size="12.00">Receive Result Appeal from Prefecture</text>
</g>
<!-- 140465201660736 -->
<g id="node7" class="node">
<title>140465201660736</title>
<ellipse fill="white" stroke="black" cx="824" cy="-27" rx="27" ry="27"/>
</g>
<!-- 140465201660496&#45;&gt;140465201660736 -->
<g id="edge6" class="edge">
<title>140465201660496&#45;&gt;140465201660736</title>
<path fill="none" stroke="black" d="M761.02,-27C770.04,-27 778.72,-27 786.59,-27"/>
<polygon fill="black" stroke="black" points="786.77,-30.5 796.77,-27 786.77,-23.5 786.77,-30.5"/>
</g>
<!-- 140465201660592 -->
<g id="node5" class="node">
<title>140465201660592</title>
<polygon fill="white" stroke="black" points="168,-45 0,-45 0,-9 168,-9 168,-45"/>
<text text-anchor="middle" x="84" y="-23.9" font-family="Times,serif" font-size="12.00">Insert Date Appeal to Prefecture</text>
</g>
<!-- 140465201661072 -->
<g id="node8" class="node">
<title>140465201661072</title>
<ellipse fill="white" stroke="black" cx="231" cy="-27" rx="27" ry="27"/>
</g>
<!-- 140465201660592&#45;&gt;140465201661072 -->
<g id="edge5" class="edge">
<title>140465201660592&#45;&gt;140465201661072</title>
<path fill="none" stroke="black" d="M168.09,-27C176.96,-27 185.62,-27 193.51,-27"/>
<polygon fill="black" stroke="black" points="193.75,-30.5 203.75,-27 193.75,-23.5 193.75,-30.5"/>
</g>
<!-- 140464257979680&#45;&gt;140465201660496 -->
<g id="edge1" class="edge">
<title>140464257979680&#45;&gt;140465201660496</title>
<path fill="none" stroke="black" d="M524.31,-27C531.79,-27 540.44,-27 549.68,-27"/>
<polygon fill="black" stroke="black" points="549.9,-30.5 559.9,-27 549.9,-23.5 549.9,-30.5"/>
</g>
<!-- 140465201660736&#45;&gt;140465201660928 -->
<g id="edge2" class="edge">
<title>140465201660736&#45;&gt;140465201660928</title>
<path fill="none" stroke="black" d="M851.21,-27C858.73,-27 867.4,-27 876.59,-27"/>
<polygon fill="black" stroke="black" points="876.73,-30.5 886.73,-27 876.72,-23.5 876.73,-30.5"/>
</g>
<!-- 140465201661072&#45;&gt;140465201661168 -->
<g id="edge3" class="edge">
<title>140465201661072&#45;&gt;140465201661168</title>
<path fill="none" stroke="black" d="M258.19,-27C265.87,-27 274.69,-27 283.89,-27"/>
<polygon fill="black" stroke="black" points="283.97,-30.5 293.97,-27 283.97,-23.5 283.97,-30.5"/>
</g>
<!-- 140465201660448&#45;&gt;140465201660832 -->
<g id="edge4" class="edge">
<title>140465201660448&#45;&gt;140465201660832</title>
<path fill="none" stroke="black" d="M1152.03,-27C1160,-27 1168.95,-27 1177.56,-27"/>
<polygon fill="black" stroke="black" points="1177.82,-30.5 1187.82,-27 1177.82,-23.5 1177.82,-30.5"/>
</g>
</g>
</svg>
