<?xml version="1.0" encoding="UTF-8" standalone="no"?>
<!DOCTYPE svg PUBLIC "-//W3C//DTD SVG 1.1//EN"
 "http://www.w3.org/Graphics/SVG/1.1/DTD/svg11.dtd">
<!-- Generated by graphviz version 2.43.0 (0)
 -->
<!-- Title: imported_1688044906.4087424 Pages: 1 -->
<svg width="960pt" height="134pt"
 viewBox="0.00 0.00 960.00 134.00" xmlns="http://www.w3.org/2000/svg" xmlns:xlink="http://www.w3.org/1999/xlink">
<g id="graph0" class="graph" transform="scale(1 1) rotate(0) translate(4 130)">
<title>imported_1688044906.4087424</title>
<polygon fill="white" stroke="transparent" points="-4,4 -4,-130 956,-130 956,4 -4,4"/>
<!-- 140468994172480 -->
<g id="node1" class="node">
<title>140468994172480</title>
<polygon fill="white" stroke="black" points="952,-81 894,-81 894,-45 952,-45 952,-81"/>
<text text-anchor="middle" x="923" y="-59.9" font-family="Times,serif" font-size="12.00">Payment</text>
</g>
<!-- 140468994174016 -->
<g id="node2" class="node">
<title>140468994174016</title>
<polygon fill="white" stroke="black" points="764.5,-117 596.5,-117 596.5,-81 764.5,-81 764.5,-117"/>
<text text-anchor="middle" x="680.5" y="-95.9" font-family="Times,serif" font-size="12.00">Insert Date Appeal to Prefecture</text>
</g>
<!-- 140468994172384 -->
<g id="node6" class="node">
<title>140468994172384</title>
<ellipse fill="white" stroke="black" cx="831" cy="-99" rx="27" ry="27"/>
</g>
<!-- 140468994174016&#45;&gt;140468994172384 -->
<g id="edge5" class="edge">
<title>140468994174016&#45;&gt;140468994172384</title>
<path fill="none" stroke="black" d="M764.87,-99C774.92,-99 784.76,-99 793.61,-99"/>
<polygon fill="black" stroke="black" points="793.87,-102.5 803.87,-99 793.87,-95.5 793.87,-102.5"/>
</g>
<!-- 140468994173152 -->
<g id="node3" class="node">
<title>140468994173152</title>
<polygon fill="white" stroke="black" points="140,-45 0,-45 0,-9 140,-9 140,-45"/>
<text text-anchor="middle" x="70" y="-23.9" font-family="Times,serif" font-size="12.00">Send Appeal to Prefecture</text>
</g>
<!-- 140468994171856 -->
<g id="node7" class="node">
<title>140468994171856</title>
<ellipse fill="white" stroke="black" cx="203" cy="-27" rx="27" ry="27"/>
</g>
<!-- 140468994173152&#45;&gt;140468994171856 -->
<g id="edge8" class="edge">
<title>140468994173152&#45;&gt;140468994171856</title>
<path fill="none" stroke="black" d="M140.34,-27C149.13,-27 157.82,-27 165.79,-27"/>
<polygon fill="black" stroke="black" points="165.8,-30.5 175.8,-27 165.8,-23.5 165.8,-30.5"/>
</g>
<!-- 140468994171280 -->
<g id="node4" class="node">
<title>140468994171280</title>
<polygon fill="white" stroke="black" points="768,-45 593,-45 593,-9 768,-9 768,-45"/>
<text text-anchor="middle" x="680.5" y="-23.9" font-family="Times,serif" font-size="12.00">Notify Result Appeal to Offender</text>
</g>
<!-- 140468994174832 -->
<g id="node9" class="node">
<title>140468994174832</title>
<ellipse fill="white" stroke="black" cx="831" cy="-27" rx="27" ry="27"/>
</g>
<!-- 140468994171280&#45;&gt;140468994174832 -->
<g id="edge7" class="edge">
<title>140468994171280&#45;&gt;140468994174832</title>
<path fill="none" stroke="black" d="M768.31,-27C777.21,-27 785.87,-27 793.74,-27"/>
<polygon fill="black" stroke="black" points="793.94,-30.5 803.94,-27 793.94,-23.5 793.94,-30.5"/>
</g>
<!-- 140468994174928 -->
<g id="node5" class="node">
<title>140468994174928</title>
<polygon fill="white" stroke="black" points="467,-45 266,-45 266,-9 467,-9 467,-45"/>
<text text-anchor="middle" x="366.5" y="-23.9" font-family="Times,serif" font-size="12.00">Receive Result Appeal from Prefecture</text>
</g>
<!-- 140468994171088 -->
<g id="node8" class="node">
<title>140468994171088</title>
<ellipse fill="white" stroke="black" cx="530" cy="-27" rx="27" ry="27"/>
</g>
<!-- 140468994174928&#45;&gt;140468994171088 -->
<g id="edge6" class="edge">
<title>140468994174928&#45;&gt;140468994171088</title>
<path fill="none" stroke="black" d="M467.02,-27C476.04,-27 484.72,-27 492.59,-27"/>
<polygon fill="black" stroke="black" points="492.77,-30.5 502.77,-27 492.77,-23.5 492.77,-30.5"/>
</g>
<!-- 140468994172384&#45;&gt;140468994172480 -->
<g id="edge1" class="edge">
<title>140468994172384&#45;&gt;140468994172480</title>
<path fill="none" stroke="black" d="M856.59,-89.16C865.17,-85.73 875,-81.8 884.39,-78.05"/>
<polygon fill="black" stroke="black" points="885.95,-81.19 893.94,-74.22 883.36,-74.69 885.95,-81.19"/>
</g>
<!-- 140468994171856&#45;&gt;140468994174928 -->
<g id="edge2" class="edge">
<title>140468994171856&#45;&gt;140468994174928</title>
<path fill="none" stroke="black" d="M230.31,-27C237.79,-27 246.44,-27 255.68,-27"/>
<polygon fill="black" stroke="black" points="255.9,-30.5 265.9,-27 255.9,-23.5 255.9,-30.5"/>
</g>
<!-- 140468994171088&#45;&gt;140468994171280 -->
<g id="edge3" class="edge">
<title>140468994171088&#45;&gt;140468994171280</title>
<path fill="none" stroke="black" d="M557.21,-27C564.73,-27 573.4,-27 582.59,-27"/>
<polygon fill="black" stroke="black" points="582.73,-30.5 592.73,-27 582.72,-23.5 582.73,-30.5"/>
</g>
<!-- 140468994174832&#45;&gt;140468994172480 -->
<g id="edge4" class="edge">
<title>140468994174832&#45;&gt;140468994172480</title>
<path fill="none" stroke="black" d="M856.59,-36.84C865.17,-40.27 875,-44.2 884.39,-47.95"/>
<polygon fill="black" stroke="black" points="883.36,-51.31 893.94,-51.78 885.95,-44.81 883.36,-51.31"/>
</g>
</g>
</svg>
