<?xml version="1.0" encoding="UTF-8" standalone="no"?>
<!DOCTYPE svg PUBLIC "-//W3C//DTD SVG 1.1//EN"
 "http://www.w3.org/Graphics/SVG/1.1/DTD/svg11.dtd">
<!-- Generated by graphviz version 2.43.0 (0)
 -->
<!-- Title: imported_1688044898.5485322 Pages: 1 -->
<svg width="804pt" height="134pt"
 viewBox="0.00 0.00 804.00 134.00" xmlns="http://www.w3.org/2000/svg" xmlns:xlink="http://www.w3.org/1999/xlink">
<g id="graph0" class="graph" transform="scale(1 1) rotate(0) translate(4 130)">
<title>imported_1688044898.5485322</title>
<polygon fill="white" stroke="transparent" points="-4,4 -4,-130 800,-130 800,4 -4,4"/>
<!-- 140465201707328 -->
<g id="node1" class="node">
<title>140465201707328</title>
<polygon fill="white" stroke="black" points="168,-117 0,-117 0,-81 168,-81 168,-117"/>
<text text-anchor="middle" x="84" y="-95.9" font-family="Times,serif" font-size="12.00">Insert Date Appeal to Prefecture</text>
</g>
<!-- 140468994059184 -->
<g id="node7" class="node">
<title>140468994059184</title>
<ellipse fill="white" stroke="black" cx="231" cy="-99" rx="27" ry="27"/>
</g>
<!-- 140465201707328&#45;&gt;140468994059184 -->
<g id="edge4" class="edge">
<title>140465201707328&#45;&gt;140468994059184</title>
<path fill="none" stroke="black" d="M168.09,-99C176.96,-99 185.62,-99 193.51,-99"/>
<polygon fill="black" stroke="black" points="193.75,-102.5 203.75,-99 193.75,-95.5 193.75,-102.5"/>
</g>
<!-- 140465201705216 -->
<g id="node2" class="node">
<title>140465201705216</title>
<polygon fill="white" stroke="black" points="495,-81 294,-81 294,-45 495,-45 495,-81"/>
<text text-anchor="middle" x="394.5" y="-59.9" font-family="Times,serif" font-size="12.00">Receive Result Appeal from Prefecture</text>
</g>
<!-- 140468994059328 -->
<g id="node6" class="node">
<title>140468994059328</title>
<ellipse fill="white" stroke="black" cx="558" cy="-63" rx="27" ry="27"/>
</g>
<!-- 140465201705216&#45;&gt;140468994059328 -->
<g id="edge5" class="edge">
<title>140465201705216&#45;&gt;140468994059328</title>
<path fill="none" stroke="black" d="M495.02,-63C504.04,-63 512.72,-63 520.59,-63"/>
<polygon fill="black" stroke="black" points="520.77,-66.5 530.77,-63 520.77,-59.5 520.77,-66.5"/>
</g>
<!-- 140465201705888 -->
<g id="node3" class="node">
<title>140465201705888</title>
<polygon fill="white" stroke="black" points="154,-45 14,-45 14,-9 154,-9 154,-45"/>
<text text-anchor="middle" x="84" y="-23.9" font-family="Times,serif" font-size="12.00">Send Appeal to Prefecture</text>
</g>
<!-- 140464257980064 -->
<g id="node5" class="node">
<title>140464257980064</title>
<ellipse fill="white" stroke="black" cx="231" cy="-27" rx="27" ry="27"/>
</g>
<!-- 140465201705888&#45;&gt;140464257980064 -->
<g id="edge6" class="edge">
<title>140465201705888&#45;&gt;140464257980064</title>
<path fill="none" stroke="black" d="M154.1,-27C167.76,-27 181.57,-27 193.6,-27"/>
<polygon fill="black" stroke="black" points="193.67,-30.5 203.67,-27 193.67,-23.5 193.67,-30.5"/>
</g>
<!-- 140465201708000 -->
<g id="node4" class="node">
<title>140465201708000</title>
<polygon fill="white" stroke="black" points="796,-81 621,-81 621,-45 796,-45 796,-81"/>
<text text-anchor="middle" x="708.5" y="-59.9" font-family="Times,serif" font-size="12.00">Notify Result Appeal to Offender</text>
</g>
<!-- 140464257980064&#45;&gt;140465201705216 -->
<g id="edge1" class="edge">
<title>140464257980064&#45;&gt;140465201705216</title>
<path fill="none" stroke="black" d="M257.59,-32.7C270.16,-35.51 286.13,-39.07 302.69,-42.76"/>
<polygon fill="black" stroke="black" points="301.95,-46.18 312.48,-44.94 303.48,-39.35 301.95,-46.18"/>
</g>
<!-- 140468994059328&#45;&gt;140465201708000 -->
<g id="edge2" class="edge">
<title>140468994059328&#45;&gt;140465201708000</title>
<path fill="none" stroke="black" d="M585.21,-63C592.73,-63 601.4,-63 610.59,-63"/>
<polygon fill="black" stroke="black" points="610.73,-66.5 620.73,-63 610.72,-59.5 610.73,-66.5"/>
</g>
<!-- 140468994059184&#45;&gt;140465201705216 -->
<g id="edge3" class="edge">
<title>140468994059184&#45;&gt;140465201705216</title>
<path fill="none" stroke="black" d="M257.59,-93.3C270.16,-90.49 286.13,-86.93 302.69,-83.24"/>
<polygon fill="black" stroke="black" points="303.48,-86.65 312.48,-81.06 301.95,-79.82 303.48,-86.65"/>
</g>
</g>
</svg>
