<?xml version="1.0" encoding="UTF-8" standalone="no"?>
<!DOCTYPE svg PUBLIC "-//W3C//DTD SVG 1.1//EN"
 "http://www.w3.org/Graphics/SVG/1.1/DTD/svg11.dtd">
<!-- Generated by graphviz version 2.43.0 (0)
 -->
<!-- Title: imported_1688044891.089131 Pages: 1 -->
<svg width="988pt" height="121pt"
 viewBox="0.00 0.00 988.00 121.00" xmlns="http://www.w3.org/2000/svg" xmlns:xlink="http://www.w3.org/1999/xlink">
<g id="graph0" class="graph" transform="scale(1 1) rotate(0) translate(4 117)">
<title>imported_1688044891.089131</title>
<polygon fill="white" stroke="transparent" points="-4,4 -4,-117 984,-117 984,4 -4,4"/>
<!-- 140464257981552 -->
<g id="node1" class="node">
<title>140464257981552</title>
<polygon fill="white" stroke="black" points="980,-72 922,-72 922,-36 980,-36 980,-72"/>
<text text-anchor="middle" x="951" y="-50.9" font-family="Times,serif" font-size="12.00">Payment</text>
</g>
<!-- 140464257982272 -->
<g id="node2" class="node">
<title>140464257982272</title>
<polygon fill="white" stroke="black" points="495,-41 294,-41 294,-5 495,-5 495,-41"/>
<text text-anchor="middle" x="394.5" y="-19.9" font-family="Times,serif" font-size="12.00">Receive Result Appeal from Prefecture</text>
</g>
<!-- 140464257981792 -->
<g id="node5" class="node">
<title>140464257981792</title>
<ellipse fill="white" stroke="black" cx="558" cy="-27" rx="27" ry="27"/>
</g>
<!-- 140464257982272&#45;&gt;140464257981792 -->
<g id="edge7" class="edge">
<title>140464257982272&#45;&gt;140464257981792</title>
<path fill="none" stroke="black" d="M495.02,-25.46C504.04,-25.69 512.72,-25.9 520.59,-26.1"/>
<polygon fill="black" stroke="black" points="520.69,-29.6 530.77,-26.35 520.86,-22.6 520.69,-29.6"/>
</g>
<!-- 140464257979776 -->
<g id="node3" class="node">
<title>140464257979776</title>
<polygon fill="white" stroke="black" points="796,-72 621,-72 621,-36 796,-36 796,-72"/>
<text text-anchor="middle" x="708.5" y="-50.9" font-family="Times,serif" font-size="12.00">Notify Result Appeal to Offender</text>
</g>
<!-- 140464257982368 -->
<g id="node8" class="node">
<title>140464257982368</title>
<ellipse fill="white" stroke="black" cx="859" cy="-54" rx="27" ry="27"/>
</g>
<!-- 140464257979776&#45;&gt;140464257982368 -->
<g id="edge8" class="edge">
<title>140464257979776&#45;&gt;140464257982368</title>
<path fill="none" stroke="black" d="M796.31,-54C805.21,-54 813.87,-54 821.74,-54"/>
<polygon fill="black" stroke="black" points="821.94,-57.5 831.94,-54 821.94,-50.5 821.94,-57.5"/>
</g>
<!-- 140464257980064 -->
<g id="node4" class="node">
<title>140464257980064</title>
<polygon fill="white" stroke="black" points="168,-72 0,-72 0,-36 168,-36 168,-72"/>
<text text-anchor="middle" x="84" y="-50.9" font-family="Times,serif" font-size="12.00">Insert Date Appeal to Prefecture</text>
</g>
<!-- 140464257979680 -->
<g id="node6" class="node">
<title>140464257979680</title>
<ellipse fill="white" stroke="black" cx="394.5" cy="-86" rx="27" ry="27"/>
</g>
<!-- 140464257980064&#45;&gt;140464257979680 -->
<g id="edge5" class="edge">
<title>140464257980064&#45;&gt;140464257979680</title>
<path fill="none" stroke="black" d="M168.08,-62.62C229.83,-69.02 311.08,-77.45 357.27,-82.24"/>
<polygon fill="black" stroke="black" points="357.09,-85.74 367.4,-83.29 357.81,-78.78 357.09,-85.74"/>
</g>
<!-- 140464257981360 -->
<g id="node7" class="node">
<title>140464257981360</title>
<ellipse fill="white" stroke="black" cx="231" cy="-27" rx="27" ry="27"/>
</g>
<!-- 140464257980064&#45;&gt;140464257981360 -->
<g id="edge6" class="edge">
<title>140464257980064&#45;&gt;140464257981360</title>
<path fill="none" stroke="black" d="M168.09,-38.53C177.34,-36.81 186.36,-35.13 194.52,-33.61"/>
<polygon fill="black" stroke="black" points="195.17,-37.05 204.36,-31.77 193.89,-30.16 195.17,-37.05"/>
</g>
<!-- 140464257981792&#45;&gt;140464257979776 -->
<g id="edge1" class="edge">
<title>140464257981792&#45;&gt;140464257979776</title>
<path fill="none" stroke="black" d="M584.87,-31.7C592.51,-33.09 601.37,-34.7 610.77,-36.41"/>
<polygon fill="black" stroke="black" points="610.25,-39.88 620.71,-38.22 611.5,-32.99 610.25,-39.88"/>
</g>
<!-- 140464257979680&#45;&gt;140464257979776 -->
<g id="edge2" class="edge">
<title>140464257979680&#45;&gt;140464257979776</title>
<path fill="none" stroke="black" d="M421.56,-83.33C462.8,-79.1 545.15,-70.65 610.92,-63.91"/>
<polygon fill="black" stroke="black" points="611.32,-67.38 620.91,-62.88 610.61,-60.42 611.32,-67.38"/>
</g>
<!-- 140464257981360&#45;&gt;140464257982272 -->
<g id="edge3" class="edge">
<title>140464257981360&#45;&gt;140464257982272</title>
<path fill="none" stroke="black" d="M258.31,-26.35C265.79,-26.16 274.44,-25.95 283.68,-25.72"/>
<polygon fill="black" stroke="black" points="283.99,-29.21 293.9,-25.47 283.82,-22.22 283.99,-29.21"/>
</g>
<!-- 140464257982368&#45;&gt;140464257981552 -->
<g id="edge4" class="edge">
<title>140464257982368&#45;&gt;140464257981552</title>
<path fill="none" stroke="black" d="M886.03,-54C894,-54 902.95,-54 911.56,-54"/>
<polygon fill="black" stroke="black" points="911.82,-57.5 921.82,-54 911.82,-50.5 911.82,-57.5"/>
</g>
</g>
</svg>
