<?xml version="1.0" encoding="UTF-8" standalone="no"?>
<!DOCTYPE svg PUBLIC "-//W3C//DTD SVG 1.1//EN"
 "http://www.w3.org/Graphics/SVG/1.1/DTD/svg11.dtd">
<!-- Generated by graphviz version 2.43.0 (0)
 -->
<!-- Title: imported_1688044886.3661058 Pages: 1 -->
<svg width="1056pt" height="134pt"
 viewBox="0.00 0.00 1056.00 134.00" xmlns="http://www.w3.org/2000/svg" xmlns:xlink="http://www.w3.org/1999/xlink">
<g id="graph0" class="graph" transform="scale(1 1) rotate(0) translate(4 130)">
<title>imported_1688044886.3661058</title>
<polygon fill="white" stroke="transparent" points="-4,4 -4,-130 1052,-130 1052,4 -4,4"/>
<!-- 140465201752288 -->
<g id="node1" class="node">
<title>140465201752288</title>
<polygon fill="white" stroke="black" points="126,-117 0,-117 0,-81 126,-81 126,-117"/>
<text text-anchor="middle" x="63" y="-95.9" font-family="Times,serif" font-size="12.00">Insert Fine Notification</text>
</g>
<!-- 140465201751664 -->
<g id="node6" class="node">
<title>140465201751664</title>
<ellipse fill="white" stroke="black" cx="189" cy="-99" rx="27" ry="27"/>
</g>
<!-- 140465201752288&#45;&gt;140465201751664 -->
<g id="edge8" class="edge">
<title>140465201752288&#45;&gt;140465201751664</title>
<path fill="none" stroke="black" d="M126.36,-99C135.09,-99 143.8,-99 151.81,-99"/>
<polygon fill="black" stroke="black" points="151.88,-102.5 161.88,-99 151.88,-95.5 151.88,-102.5"/>
</g>
<!-- 140465201751616 -->
<g id="node2" class="node">
<title>140465201751616</title>
<polygon fill="white" stroke="black" points="406,-45 266,-45 266,-9 406,-9 406,-45"/>
<text text-anchor="middle" x="336" y="-23.9" font-family="Times,serif" font-size="12.00">Send Appeal to Prefecture</text>
</g>
<!-- 140465201751904 -->
<g id="node7" class="node">
<title>140465201751904</title>
<ellipse fill="white" stroke="black" cx="483" cy="-27" rx="27" ry="27"/>
</g>
<!-- 140465201751616&#45;&gt;140465201751904 -->
<g id="edge7" class="edge">
<title>140465201751616&#45;&gt;140465201751904</title>
<path fill="none" stroke="black" d="M406.1,-27C419.76,-27 433.57,-27 445.6,-27"/>
<polygon fill="black" stroke="black" points="445.67,-30.5 455.67,-27 445.67,-23.5 445.67,-30.5"/>
</g>
<!-- 140465201751712 -->
<g id="node3" class="node">
<title>140465201751712</title>
<polygon fill="white" stroke="black" points="747,-81 546,-81 546,-45 747,-45 747,-81"/>
<text text-anchor="middle" x="646.5" y="-59.9" font-family="Times,serif" font-size="12.00">Receive Result Appeal from Prefecture</text>
</g>
<!-- 140465201752096 -->
<g id="node8" class="node">
<title>140465201752096</title>
<ellipse fill="white" stroke="black" cx="810" cy="-63" rx="27" ry="27"/>
</g>
<!-- 140465201751712&#45;&gt;140465201752096 -->
<g id="edge6" class="edge">
<title>140465201751712&#45;&gt;140465201752096</title>
<path fill="none" stroke="black" d="M747.02,-63C756.04,-63 764.72,-63 772.59,-63"/>
<polygon fill="black" stroke="black" points="772.77,-66.5 782.77,-63 772.77,-59.5 772.77,-66.5"/>
</g>
<!-- 140465201751952 -->
<g id="node4" class="node">
<title>140465201751952</title>
<polygon fill="white" stroke="black" points="420,-117 252,-117 252,-81 420,-81 420,-117"/>
<text text-anchor="middle" x="336" y="-95.9" font-family="Times,serif" font-size="12.00">Insert Date Appeal to Prefecture</text>
</g>
<!-- 140465201752144 -->
<g id="node9" class="node">
<title>140465201752144</title>
<ellipse fill="white" stroke="black" cx="483" cy="-99" rx="27" ry="27"/>
</g>
<!-- 140465201751952&#45;&gt;140465201752144 -->
<g id="edge5" class="edge">
<title>140465201751952&#45;&gt;140465201752144</title>
<path fill="none" stroke="black" d="M420.09,-99C428.96,-99 437.62,-99 445.51,-99"/>
<polygon fill="black" stroke="black" points="445.75,-102.5 455.75,-99 445.75,-95.5 445.75,-102.5"/>
</g>
<!-- 140465201752048 -->
<g id="node5" class="node">
<title>140465201752048</title>
<polygon fill="white" stroke="black" points="1048,-81 873,-81 873,-45 1048,-45 1048,-81"/>
<text text-anchor="middle" x="960.5" y="-59.9" font-family="Times,serif" font-size="12.00">Notify Result Appeal to Offender</text>
</g>
<!-- 140465201751664&#45;&gt;140465201751952 -->
<g id="edge1" class="edge">
<title>140465201751664&#45;&gt;140465201751952</title>
<path fill="none" stroke="black" d="M216.26,-99C223.81,-99 232.51,-99 241.7,-99"/>
<polygon fill="black" stroke="black" points="241.83,-102.5 251.83,-99 241.83,-95.5 241.83,-102.5"/>
</g>
<!-- 140465201751904&#45;&gt;140465201751712 -->
<g id="edge2" class="edge">
<title>140465201751904&#45;&gt;140465201751712</title>
<path fill="none" stroke="black" d="M509.59,-32.7C522.16,-35.51 538.13,-39.07 554.69,-42.76"/>
<polygon fill="black" stroke="black" points="553.95,-46.18 564.48,-44.94 555.48,-39.35 553.95,-46.18"/>
</g>
<!-- 140465201752096&#45;&gt;140465201752048 -->
<g id="edge3" class="edge">
<title>140465201752096&#45;&gt;140465201752048</title>
<path fill="none" stroke="black" d="M837.21,-63C844.73,-63 853.4,-63 862.59,-63"/>
<polygon fill="black" stroke="black" points="862.73,-66.5 872.73,-63 862.72,-59.5 862.73,-66.5"/>
</g>
<!-- 140465201752144&#45;&gt;140465201751712 -->
<g id="edge4" class="edge">
<title>140465201752144&#45;&gt;140465201751712</title>
<path fill="none" stroke="black" d="M509.59,-93.3C522.16,-90.49 538.13,-86.93 554.69,-83.24"/>
<polygon fill="black" stroke="black" points="555.48,-86.65 564.48,-81.06 553.95,-79.82 555.48,-86.65"/>
</g>
</g>
</svg>
