<?xml version="1.0" encoding="UTF-8" standalone="no"?>
<!DOCTYPE svg PUBLIC "-//W3C//DTD SVG 1.1//EN"
 "http://www.w3.org/Graphics/SVG/1.1/DTD/svg11.dtd">
<!-- Generated by graphviz version 2.43.0 (0)
 -->
<!-- Title: imported_1688044911.9712126 Pages: 1 -->
<svg width="804pt" height="170pt"
 viewBox="0.00 0.00 804.00 170.00" xmlns="http://www.w3.org/2000/svg" xmlns:xlink="http://www.w3.org/1999/xlink">
<g id="graph0" class="graph" transform="scale(1 1) rotate(0) translate(4 166)">
<title>imported_1688044911.9712126</title>
<polygon fill="white" stroke="transparent" points="-4,4 -4,-166 800,-166 800,4 -4,4"/>
<!-- 140468994104096 -->
<g id="node1" class="node">
<title>140468994104096</title>
<polygon fill="white" stroke="black" points="464.5,-162 324.5,-162 324.5,-126 464.5,-126 464.5,-162"/>
<text text-anchor="middle" x="394.5" y="-140.9" font-family="Times,serif" font-size="12.00">Send Appeal to Prefecture</text>
</g>
<!-- 140468994104384 -->
<g id="node8" class="node">
<title>140468994104384</title>
<ellipse fill="white" stroke="black" cx="558" cy="-99" rx="27" ry="27"/>
</g>
<!-- 140468994104096&#45;&gt;140468994104384 -->
<g id="edge8" class="edge">
<title>140468994104096&#45;&gt;140468994104384</title>
<path fill="none" stroke="black" d="M462.71,-125.93C473.52,-122.98 484.57,-119.93 495,-117 503.86,-114.51 513.41,-111.77 522.3,-109.19"/>
<polygon fill="black" stroke="black" points="523.37,-112.53 531.99,-106.37 521.41,-105.8 523.37,-112.53"/>
</g>
<!-- 140468994103664 -->
<g id="node2" class="node">
<title>140468994103664</title>
<polygon fill="white" stroke="black" points="423.5,-108 365.5,-108 365.5,-72 423.5,-72 423.5,-108"/>
<text text-anchor="middle" x="394.5" y="-86.9" font-family="Times,serif" font-size="12.00">Payment</text>
</g>
<!-- 140468994103664&#45;&gt;140468994104384 -->
<g id="edge5" class="edge">
<title>140468994103664&#45;&gt;140468994104384</title>
<path fill="none" stroke="black" d="M423.63,-91.57C450.51,-93.07 491.18,-95.33 520.54,-96.97"/>
<polygon fill="black" stroke="black" points="520.61,-100.48 530.79,-97.54 521,-93.49 520.61,-100.48"/>
</g>
<!-- 140468994103568 -->
<g id="node3" class="node">
<title>140468994103568</title>
<polygon fill="white" stroke="black" points="168,-45 0,-45 0,-9 168,-9 168,-45"/>
<text text-anchor="middle" x="84" y="-23.9" font-family="Times,serif" font-size="12.00">Insert Date Appeal to Prefecture</text>
</g>
<!-- 140468994101984 -->
<g id="node9" class="node">
<title>140468994101984</title>
<ellipse fill="white" stroke="black" cx="231" cy="-27" rx="27" ry="27"/>
</g>
<!-- 140468994103568&#45;&gt;140468994101984 -->
<g id="edge6" class="edge">
<title>140468994103568&#45;&gt;140468994101984</title>
<path fill="none" stroke="black" d="M168.09,-27C176.96,-27 185.62,-27 193.51,-27"/>
<polygon fill="black" stroke="black" points="193.75,-30.5 203.75,-27 193.75,-23.5 193.75,-30.5"/>
</g>
<!-- 140468994102032 -->
<g id="node4" class="node">
<title>140468994102032</title>
<polygon fill="white" stroke="black" points="495,-45 294,-45 294,-9 495,-9 495,-45"/>
<text text-anchor="middle" x="394.5" y="-23.9" font-family="Times,serif" font-size="12.00">Receive Result Appeal from Prefecture</text>
</g>
<!-- 140465201706560 -->
<g id="node7" class="node">
<title>140465201706560</title>
<ellipse fill="white" stroke="black" cx="558" cy="-27" rx="27" ry="27"/>
</g>
<!-- 140468994102032&#45;&gt;140465201706560 -->
<g id="edge7" class="edge">
<title>140468994102032&#45;&gt;140465201706560</title>
<path fill="none" stroke="black" d="M495.02,-27C504.04,-27 512.72,-27 520.59,-27"/>
<polygon fill="black" stroke="black" points="520.77,-30.5 530.77,-27 520.77,-23.5 520.77,-30.5"/>
</g>
<!-- 140468994102512 -->
<g id="node5" class="node">
<title>140468994102512</title>
<polygon fill="white" stroke="black" points="796,-54 621,-54 621,-18 796,-18 796,-54"/>
<text text-anchor="middle" x="708.5" y="-32.9" font-family="Times,serif" font-size="12.00">Notify Result Appeal to Offender</text>
</g>
<!-- 140468994102992 -->
<g id="node6" class="node">
<title>140468994102992</title>
<polygon fill="white" stroke="black" points="755.5,-117 661.5,-117 661.5,-81 755.5,-81 755.5,-117"/>
<text text-anchor="middle" x="708.5" y="-95.9" font-family="Times,serif" font-size="12.00">Appeal to Judge</text>
</g>
<!-- 140465201706560&#45;&gt;140468994102512 -->
<g id="edge1" class="edge">
<title>140465201706560&#45;&gt;140468994102512</title>
<path fill="none" stroke="black" d="M585.21,-28.59C592.73,-29.04 601.4,-29.57 610.59,-30.13"/>
<polygon fill="black" stroke="black" points="610.53,-33.63 620.73,-30.74 610.96,-26.64 610.53,-33.63"/>
</g>
<!-- 140468994104384&#45;&gt;140468994102512 -->
<g id="edge2" class="edge">
<title>140468994104384&#45;&gt;140468994102512</title>
<path fill="none" stroke="black" d="M583.1,-88.39C594.57,-83.38 608.47,-77.34 621,-72 631.65,-67.47 643.06,-62.67 653.99,-58.11"/>
<polygon fill="black" stroke="black" points="655.55,-61.25 663.44,-54.18 652.86,-54.79 655.55,-61.25"/>
</g>
<!-- 140468994104384&#45;&gt;140468994102992 -->
<g id="edge3" class="edge">
<title>140468994104384&#45;&gt;140468994102992</title>
<path fill="none" stroke="black" d="M585.21,-99C603.48,-99 628.54,-99 651.23,-99"/>
<polygon fill="black" stroke="black" points="651.45,-102.5 661.45,-99 651.45,-95.5 651.45,-102.5"/>
</g>
<!-- 140468994101984&#45;&gt;140468994102032 -->
<g id="edge4" class="edge">
<title>140468994101984&#45;&gt;140468994102032</title>
<path fill="none" stroke="black" d="M258.31,-27C265.79,-27 274.44,-27 283.68,-27"/>
<polygon fill="black" stroke="black" points="283.9,-30.5 293.9,-27 283.9,-23.5 283.9,-30.5"/>
</g>
</g>
</svg>
