<?xml version="1.0" encoding="UTF-8" standalone="no"?>
<!DOCTYPE svg PUBLIC "-//W3C//DTD SVG 1.1//EN"
 "http://www.w3.org/Graphics/SVG/1.1/DTD/svg11.dtd">
<!-- Generated by graphviz version 2.43.0 (0)
 -->
<!-- Title: imported_1688044908.263087 Pages: 1 -->
<svg width="1056pt" height="134pt"
 viewBox="0.00 0.00 1056.00 134.00" xmlns="http://www.w3.org/2000/svg" xmlns:xlink="http://www.w3.org/1999/xlink">
<g id="graph0" class="graph" transform="scale(1 1) rotate(0) translate(4 130)">
<title>imported_1688044908.263087</title>
<polygon fill="white" stroke="transparent" points="-4,4 -4,-130 1052,-130 1052,4 -4,4"/>
<!-- 140468994195904 -->
<g id="node1" class="node">
<title>140468994195904</title>
<polygon fill="white" stroke="black" points="420,-81 252,-81 252,-45 420,-45 420,-81"/>
<text text-anchor="middle" x="336" y="-59.9" font-family="Times,serif" font-size="12.00">Insert Date Appeal to Prefecture</text>
</g>
<!-- 140468994196144 -->
<g id="node8" class="node">
<title>140468994196144</title>
<ellipse fill="white" stroke="black" cx="483" cy="-99" rx="27" ry="27"/>
</g>
<!-- 140468994195904&#45;&gt;140468994196144 -->
<g id="edge5" class="edge">
<title>140468994195904&#45;&gt;140468994196144</title>
<path fill="none" stroke="black" d="M409.92,-81.11C422.78,-84.3 435.61,-87.48 446.81,-90.26"/>
<polygon fill="black" stroke="black" points="446.04,-93.68 456.59,-92.69 447.73,-86.88 446.04,-93.68"/>
</g>
<!-- 140468994195712 -->
<g id="node9" class="node">
<title>140468994195712</title>
<ellipse fill="white" stroke="black" cx="483" cy="-27" rx="27" ry="27"/>
</g>
<!-- 140468994195904&#45;&gt;140468994195712 -->
<g id="edge6" class="edge">
<title>140468994195904&#45;&gt;140468994195712</title>
<path fill="none" stroke="black" d="M409.92,-44.89C422.78,-41.7 435.61,-38.52 446.81,-35.74"/>
<polygon fill="black" stroke="black" points="447.73,-39.12 456.59,-33.31 446.04,-32.32 447.73,-39.12"/>
</g>
<!-- 140468994189824 -->
<g id="node2" class="node">
<title>140468994189824</title>
<polygon fill="white" stroke="black" points="126,-81 0,-81 0,-45 126,-45 126,-81"/>
<text text-anchor="middle" x="63" y="-59.9" font-family="Times,serif" font-size="12.00">Insert Fine Notification</text>
</g>
<!-- 140469013629440 -->
<g id="node6" class="node">
<title>140469013629440</title>
<ellipse fill="white" stroke="black" cx="189" cy="-63" rx="27" ry="27"/>
</g>
<!-- 140468994189824&#45;&gt;140469013629440 -->
<g id="edge8" class="edge">
<title>140468994189824&#45;&gt;140469013629440</title>
<path fill="none" stroke="black" d="M126.36,-63C135.09,-63 143.8,-63 151.81,-63"/>
<polygon fill="black" stroke="black" points="151.88,-66.5 161.88,-63 151.88,-59.5 151.88,-66.5"/>
</g>
<!-- 140468994195520 -->
<g id="node3" class="node">
<title>140468994195520</title>
<polygon fill="white" stroke="black" points="721,-117 546,-117 546,-81 721,-81 721,-117"/>
<text text-anchor="middle" x="633.5" y="-95.9" font-family="Times,serif" font-size="12.00">Notify Result Appeal to Offender</text>
</g>
<!-- 140468994195568 -->
<g id="node4" class="node">
<title>140468994195568</title>
<polygon fill="white" stroke="black" points="1048,-45 847,-45 847,-9 1048,-9 1048,-45"/>
<text text-anchor="middle" x="947.5" y="-23.9" font-family="Times,serif" font-size="12.00">Receive Result Appeal from Prefecture</text>
</g>
<!-- 140468994187664 -->
<g id="node5" class="node">
<title>140468994187664</title>
<polygon fill="white" stroke="black" points="703.5,-45 563.5,-45 563.5,-9 703.5,-9 703.5,-45"/>
<text text-anchor="middle" x="633.5" y="-23.9" font-family="Times,serif" font-size="12.00">Send Appeal to Prefecture</text>
</g>
<!-- 140468994195808 -->
<g id="node7" class="node">
<title>140468994195808</title>
<ellipse fill="white" stroke="black" cx="784" cy="-27" rx="27" ry="27"/>
</g>
<!-- 140468994187664&#45;&gt;140468994195808 -->
<g id="edge7" class="edge">
<title>140468994187664&#45;&gt;140468994195808</title>
<path fill="none" stroke="black" d="M703.53,-27C718.33,-27 733.4,-27 746.38,-27"/>
<polygon fill="black" stroke="black" points="746.75,-30.5 756.75,-27 746.75,-23.5 746.75,-30.5"/>
</g>
<!-- 140469013629440&#45;&gt;140468994195904 -->
<g id="edge1" class="edge">
<title>140469013629440&#45;&gt;140468994195904</title>
<path fill="none" stroke="black" d="M216.26,-63C223.81,-63 232.51,-63 241.7,-63"/>
<polygon fill="black" stroke="black" points="241.83,-66.5 251.83,-63 241.83,-59.5 241.83,-66.5"/>
</g>
<!-- 140468994195808&#45;&gt;140468994195568 -->
<g id="edge2" class="edge">
<title>140468994195808&#45;&gt;140468994195568</title>
<path fill="none" stroke="black" d="M811.31,-27C818.79,-27 827.44,-27 836.68,-27"/>
<polygon fill="black" stroke="black" points="836.9,-30.5 846.9,-27 836.9,-23.5 836.9,-30.5"/>
</g>
<!-- 140468994196144&#45;&gt;140468994195520 -->
<g id="edge3" class="edge">
<title>140468994196144&#45;&gt;140468994195520</title>
<path fill="none" stroke="black" d="M510.21,-99C517.73,-99 526.4,-99 535.59,-99"/>
<polygon fill="black" stroke="black" points="535.73,-102.5 545.73,-99 535.72,-95.5 535.73,-102.5"/>
</g>
<!-- 140468994195712&#45;&gt;140468994187664 -->
<g id="edge4" class="edge">
<title>140468994195712&#45;&gt;140468994187664</title>
<path fill="none" stroke="black" d="M510.21,-27C522.36,-27 537.53,-27 553.01,-27"/>
<polygon fill="black" stroke="black" points="553.19,-30.5 563.19,-27 553.19,-23.5 553.19,-30.5"/>
</g>
</g>
</svg>
