<?xml version="1.0" encoding="UTF-8" standalone="no"?>
<!DOCTYPE svg PUBLIC "-//W3C//DTD SVG 1.1//EN"
 "http://www.w3.org/Graphics/SVG/1.1/DTD/svg11.dtd">
<!-- Generated by graphviz version 2.43.0 (0)
 -->
<!-- Title: imported_1688044905.272153 Pages: 1 -->
<svg width="694pt" height="134pt"
 viewBox="0.00 0.00 694.00 134.00" xmlns="http://www.w3.org/2000/svg" xmlns:xlink="http://www.w3.org/1999/xlink">
<g id="graph0" class="graph" transform="scale(1 1) rotate(0) translate(4 130)">
<title>imported_1688044905.272153</title>
<polygon fill="white" stroke="transparent" points="-4,4 -4,-130 690,-130 690,4 -4,4"/>
<!-- 140465201906736 -->
<g id="node1" class="node">
<title>140465201906736</title>
<polygon fill="white" stroke="black" points="686,-81 628,-81 628,-45 686,-45 686,-81"/>
<text text-anchor="middle" x="657" y="-59.9" font-family="Times,serif" font-size="12.00">Payment</text>
</g>
<!-- 140465201906832 -->
<g id="node2" class="node">
<title>140465201906832</title>
<polygon fill="white" stroke="black" points="502,-81 327,-81 327,-45 502,-45 502,-81"/>
<text text-anchor="middle" x="414.5" y="-59.9" font-family="Times,serif" font-size="12.00">Notify Result Appeal to Offender</text>
</g>
<!-- 140468994174208 -->
<g id="node7" class="node">
<title>140468994174208</title>
<ellipse fill="white" stroke="black" cx="565" cy="-63" rx="27" ry="27"/>
</g>
<!-- 140465201906832&#45;&gt;140468994174208 -->
<g id="edge6" class="edge">
<title>140465201906832&#45;&gt;140468994174208</title>
<path fill="none" stroke="black" d="M502.31,-63C511.21,-63 519.87,-63 527.74,-63"/>
<polygon fill="black" stroke="black" points="527.94,-66.5 537.94,-63 527.94,-59.5 527.94,-66.5"/>
</g>
<!-- 140465201905728 -->
<g id="node3" class="node">
<title>140465201905728</title>
<polygon fill="white" stroke="black" points="201,-117 0,-117 0,-81 201,-81 201,-117"/>
<text text-anchor="middle" x="100.5" y="-95.9" font-family="Times,serif" font-size="12.00">Receive Result Appeal from Prefecture</text>
</g>
<!-- 140468994173104 -->
<g id="node5" class="node">
<title>140468994173104</title>
<ellipse fill="white" stroke="black" cx="264" cy="-99" rx="27" ry="27"/>
</g>
<!-- 140465201905728&#45;&gt;140468994173104 -->
<g id="edge5" class="edge">
<title>140465201905728&#45;&gt;140468994173104</title>
<path fill="none" stroke="black" d="M201.02,-99C210.04,-99 218.72,-99 226.59,-99"/>
<polygon fill="black" stroke="black" points="226.77,-102.5 236.77,-99 226.77,-95.5 226.77,-102.5"/>
</g>
<!-- 140465201906064 -->
<g id="node4" class="node">
<title>140465201906064</title>
<polygon fill="white" stroke="black" points="184.5,-45 16.5,-45 16.5,-9 184.5,-9 184.5,-45"/>
<text text-anchor="middle" x="100.5" y="-23.9" font-family="Times,serif" font-size="12.00">Insert Date Appeal to Prefecture</text>
</g>
<!-- 140468994173968 -->
<g id="node6" class="node">
<title>140468994173968</title>
<ellipse fill="white" stroke="black" cx="264" cy="-27" rx="27" ry="27"/>
</g>
<!-- 140465201906064&#45;&gt;140468994173968 -->
<g id="edge4" class="edge">
<title>140465201906064&#45;&gt;140468994173968</title>
<path fill="none" stroke="black" d="M184.62,-27C199.47,-27 214.22,-27 226.84,-27"/>
<polygon fill="black" stroke="black" points="226.91,-30.5 236.91,-27 226.91,-23.5 226.91,-30.5"/>
</g>
<!-- 140468994173104&#45;&gt;140465201906832 -->
<g id="edge1" class="edge">
<title>140468994173104&#45;&gt;140465201906832</title>
<path fill="none" stroke="black" d="M290.53,-92.81C301.58,-90.13 315.21,-86.83 329.32,-83.41"/>
<polygon fill="black" stroke="black" points="330.25,-86.78 339.14,-81.03 328.6,-79.98 330.25,-86.78"/>
</g>
<!-- 140468994173968&#45;&gt;140465201906832 -->
<g id="edge2" class="edge">
<title>140468994173968&#45;&gt;140465201906832</title>
<path fill="none" stroke="black" d="M290.53,-33.19C301.58,-35.87 315.21,-39.17 329.32,-42.59"/>
<polygon fill="black" stroke="black" points="328.6,-46.02 339.14,-44.97 330.25,-39.22 328.6,-46.02"/>
</g>
<!-- 140468994174208&#45;&gt;140465201906736 -->
<g id="edge3" class="edge">
<title>140468994174208&#45;&gt;140465201906736</title>
<path fill="none" stroke="black" d="M592.03,-63C600,-63 608.95,-63 617.56,-63"/>
<polygon fill="black" stroke="black" points="617.82,-66.5 627.82,-63 617.82,-59.5 617.82,-66.5"/>
</g>
</g>
</svg>
