<?xml version="1.0" encoding="utf-8" standalone="no"?>
<!DOCTYPE svg PUBLIC "-//W3C//DTD SVG 1.1//EN"
  "http://www.w3.org/Graphics/SVG/1.1/DTD/svg11.dtd">
<svg height="648pt" version="1.1" viewBox="0 0 1152 648" width="1152pt" xmlns="http://www.w3.org/2000/svg" xmlns:xlink="http://www.w3.org/1999/xlink">
 <metadata>
  <rdf:RDF xmlns:cc="http://creativecommons.org/ns#" xmlns:dc="http://purl.org/dc/elements/1.1/" xmlns:rdf="http://www.w3.org/1999/02/22-rdf-syntax-ns#">
   <cc:Work>
    <dc:type rdf:resource="http://purl.org/dc/dcmitype/StillImage"/>
    <dc:date>2023-06-15T08:00:56.006248</dc:date>
    <dc:format>image/svg+xml</dc:format>
    <dc:creator>
     <cc:Agent>
      <dc:title>Matplotlib v3.4.1, https://matplotlib.org/</dc:title>
     </cc:Agent>
    </dc:creator>
   </cc:Work>
  </rdf:RDF>
 </metadata>
 <defs>
  <style type="text/css">*{stroke-linecap:butt;stroke-linejoin:round;}</style>
 </defs>
 <g id="figure_1">
  <g id="patch_1">
   <path d="M 0 648 
L 1152 648 
L 1152 0 
L 0 0 
z
" style="fill:none;"/>
  </g>
  <g id="axes_1">
   <g id="patch_2">
    <path d="M 144 567 
L 1036.8 567 
L 1036.8 77.76 
L 144 77.76 
z
" style="fill:#ffffff;"/>
   </g>
   <g id="PolyCollection_1">
    <defs>
     <path d="M 233.28 -271.721766 
L 232.766981 -271.721766 
L 232.632625 -273.639342 
L 232.473214 -275.556917 
L 232.286853 -277.474493 
L 232.072178 -279.392068 
L 231.828486 -281.309644 
L 231.555853 -283.227219 
L 231.255203 -285.144795 
L 230.928327 -287.06237 
L 230.577852 -288.979946 
L 230.207151 -290.897521 
L 229.820207 -292.815097 
L 229.421436 -294.732673 
L 229.0155 -296.650248 
L 228.607126 -298.567824 
L 228.200944 -300.485399 
L 227.801384 -302.402975 
L 227.412624 -304.32055 
L 227.038606 -306.238126 
L 226.683111 -308.155701 
L 226.349876 -310.073277 
L 226.042725 -311.990852 
L 225.765699 -313.908428 
L 225.523126 -315.826004 
L 225.319645 -317.743579 
L 225.160121 -319.661155 
L 225.049479 -321.57873 
L 224.992442 -323.496306 
L 224.993203 -325.413881 
L 225.05505 -327.331457 
L 225.179993 -329.249032 
L 225.368431 -331.166608 
L 225.618879 -333.084183 
L 225.927814 -335.001759 
L 226.289626 -336.919335 
L 226.696696 -338.83691 
L 227.139583 -340.754486 
L 227.607283 -342.672061 
L 228.087534 -344.589637 
L 228.56712 -346.507212 
L 229.032114 -348.424788 
L 229.468045 -350.342363 
L 229.859935 -352.259939 
L 230.192198 -354.177514 
L 230.44842 -356.09509 
L 230.611017 -358.012665 
L 230.660849 -359.930241 
L 230.576827 -361.847817 
L 230.335627 -363.765392 
L 229.911566 -365.682968 
L 229.276773 -367.600543 
L 228.401698 -369.518119 
L 227.256058 -371.435694 
L 225.810218 -373.35327 
L 224.037013 -375.270845 
L 221.913926 -377.188421 
L 219.425519 -379.105996 
L 216.565918 -381.023572 
L 213.341155 -382.941148 
L 209.771111 -384.858723 
L 205.890821 -386.776299 
L 201.750932 -388.693874 
L 197.417149 -390.61145 
L 192.968605 -392.529025 
L 188.495186 -394.446601 
L 184.09394 -396.364176 
L 179.864834 -398.281752 
L 175.906167 -400.199327 
L 172.310017 -402.116903 
L 169.1581 -404.034478 
L 166.518368 -405.952054 
L 164.442612 -407.86963 
L 162.965193 -409.787205 
L 162.102926 -411.704781 
L 161.856 -413.622356 
L 162.209719 -415.539932 
L 163.136786 -417.457507 
L 164.599819 -419.375083 
L 166.553826 -421.292658 
L 168.948397 -423.210234 
L 171.729493 -425.127809 
L 174.840774 -427.045385 
L 178.224515 -428.962961 
L 181.822229 -430.880536 
L 185.57513 -432.798112 
L 189.424612 -434.715687 
L 193.312849 -436.633263 
L 197.183608 -438.550838 
L 200.983276 -440.468414 
L 204.662062 -442.385989 
L 208.175278 -444.303565 
L 211.484559 -446.22114 
L 214.558907 -448.138716 
L 217.375428 -450.056292 
L 219.919678 -451.973867 
L 222.185583 -453.891443 
L 224.174938 -455.809018 
L 225.896537 -457.726594 
L 227.36502 -459.644169 
L 228.599541 -461.561745 
L 233.28 -461.561745 
L 233.28 -461.561745 
L 233.28 -459.644169 
L 233.28 -457.726594 
L 233.28 -455.809018 
L 233.28 -453.891443 
L 233.28 -451.973867 
L 233.28 -450.056292 
L 233.28 -448.138716 
L 233.28 -446.22114 
L 233.28 -444.303565 
L 233.28 -442.385989 
L 233.28 -440.468414 
L 233.28 -438.550838 
L 233.28 -436.633263 
L 233.28 -434.715687 
L 233.28 -432.798112 
L 233.28 -430.880536 
L 233.28 -428.962961 
L 233.28 -427.045385 
L 233.28 -425.127809 
L 233.28 -423.210234 
L 233.28 -421.292658 
L 233.28 -419.375083 
L 233.28 -417.457507 
L 233.28 -415.539932 
L 233.28 -413.622356 
L 233.28 -411.704781 
L 233.28 -409.787205 
L 233.28 -407.86963 
L 233.28 -405.952054 
L 233.28 -404.034478 
L 233.28 -402.116903 
L 233.28 -400.199327 
L 233.28 -398.281752 
L 233.28 -396.364176 
L 233.28 -394.446601 
L 233.28 -392.529025 
L 233.28 -390.61145 
L 233.28 -388.693874 
L 233.28 -386.776299 
L 233.28 -384.858723 
L 233.28 -382.941148 
L 233.28 -381.023572 
L 233.28 -379.105996 
L 233.28 -377.188421 
L 233.28 -375.270845 
L 233.28 -373.35327 
L 233.28 -371.435694 
L 233.28 -369.518119 
L 233.28 -367.600543 
L 233.28 -365.682968 
L 233.28 -363.765392 
L 233.28 -361.847817 
L 233.28 -359.930241 
L 233.28 -358.012665 
L 233.28 -356.09509 
L 233.28 -354.177514 
L 233.28 -352.259939 
L 233.28 -350.342363 
L 233.28 -348.424788 
L 233.28 -346.507212 
L 233.28 -344.589637 
L 233.28 -342.672061 
L 233.28 -340.754486 
L 233.28 -338.83691 
L 233.28 -336.919335 
L 233.28 -335.001759 
L 233.28 -333.084183 
L 233.28 -331.166608 
L 233.28 -329.249032 
L 233.28 -327.331457 
L 233.28 -325.413881 
L 233.28 -323.496306 
L 233.28 -321.57873 
L 233.28 -319.661155 
L 233.28 -317.743579 
L 233.28 -315.826004 
L 233.28 -313.908428 
L 233.28 -311.990852 
L 233.28 -310.073277 
L 233.28 -308.155701 
L 233.28 -306.238126 
L 233.28 -304.32055 
L 233.28 -302.402975 
L 233.28 -300.485399 
L 233.28 -298.567824 
L 233.28 -296.650248 
L 233.28 -294.732673 
L 233.28 -292.815097 
L 233.28 -290.897521 
L 233.28 -288.979946 
L 233.28 -287.06237 
L 233.28 -285.144795 
L 233.28 -283.227219 
L 233.28 -281.309644 
L 233.28 -279.392068 
L 233.28 -277.474493 
L 233.28 -275.556917 
L 233.28 -273.639342 
L 233.28 -271.721766 
z
" id="m3c6c204c9d" style="stroke:#3f3f3f;stroke-width:1.5;"/>
    </defs>
    <g clip-path="url(#p8f2067409c)">
     <use style="fill:#3274a1;stroke:#3f3f3f;stroke-width:1.5;" x="0" xlink:href="#m3c6c204c9d" y="648"/>
    </g>
   </g>
   <g id="PolyCollection_2">
    <defs>
     <path d="M 233.465952 -164.635296 
L 233.28 -164.635296 
L 233.28 -167.850706 
L 233.28 -171.066115 
L 233.28 -174.281524 
L 233.28 -177.496933 
L 233.28 -180.712342 
L 233.28 -183.927751 
L 233.28 -187.143161 
L 233.28 -190.35857 
L 233.28 -193.573979 
L 233.28 -196.789388 
L 233.28 -200.004797 
L 233.28 -203.220207 
L 233.28 -206.435616 
L 233.28 -209.651025 
L 233.28 -212.866434 
L 233.28 -216.081843 
L 233.28 -219.297252 
L 233.28 -222.512662 
L 233.28 -225.728071 
L 233.28 -228.94348 
L 233.28 -232.158889 
L 233.28 -235.374298 
L 233.28 -238.589708 
L 233.28 -241.805117 
L 233.28 -245.020526 
L 233.28 -248.235935 
L 233.28 -251.451344 
L 233.28 -254.666753 
L 233.28 -257.882163 
L 233.28 -261.097572 
L 233.28 -264.312981 
L 233.28 -267.52839 
L 233.28 -270.743799 
L 233.28 -273.959209 
L 233.28 -277.174618 
L 233.28 -280.390027 
L 233.28 -283.605436 
L 233.28 -286.820845 
L 233.28 -290.036254 
L 233.28 -293.251664 
L 233.28 -296.467073 
L 233.28 -299.682482 
L 233.28 -302.897891 
L 233.28 -306.1133 
L 233.28 -309.32871 
L 233.28 -312.544119 
L 233.28 -315.759528 
L 233.28 -318.974937 
L 233.28 -322.190346 
L 233.28 -325.405755 
L 233.28 -328.621165 
L 233.28 -331.836574 
L 233.28 -335.051983 
L 233.28 -338.267392 
L 233.28 -341.482801 
L 233.28 -344.698211 
L 233.28 -347.91362 
L 233.28 -351.129029 
L 233.28 -354.344438 
L 233.28 -357.559847 
L 233.28 -360.775256 
L 233.28 -363.990666 
L 233.28 -367.206075 
L 233.28 -370.421484 
L 233.28 -373.636893 
L 233.28 -376.852302 
L 233.28 -380.067712 
L 233.28 -383.283121 
L 233.28 -386.49853 
L 233.28 -389.713939 
L 233.28 -392.929348 
L 233.28 -396.144757 
L 233.28 -399.360167 
L 233.28 -402.575576 
L 233.28 -405.790985 
L 233.28 -409.006394 
L 233.28 -412.221803 
L 233.28 -415.437213 
L 233.28 -418.652622 
L 233.28 -421.868031 
L 233.28 -425.08344 
L 233.28 -428.298849 
L 233.28 -431.514259 
L 233.28 -434.729668 
L 233.28 -437.945077 
L 233.28 -441.160486 
L 233.28 -444.375895 
L 233.28 -447.591304 
L 233.28 -450.806714 
L 233.28 -454.022123 
L 233.28 -457.237532 
L 233.28 -460.452941 
L 233.28 -463.66835 
L 233.28 -466.88376 
L 233.28 -470.099169 
L 233.28 -473.314578 
L 233.28 -476.529987 
L 233.28 -479.745396 
L 233.28 -482.960805 
L 237.574348 -482.960805 
L 237.574348 -482.960805 
L 238.71073 -479.745396 
L 240.055275 -476.529987 
L 241.619092 -473.314578 
L 243.406293 -470.099169 
L 245.412217 -466.88376 
L 247.621917 -463.66835 
L 250.0091 -460.452941 
L 252.53568 -457.237532 
L 255.152097 -454.022123 
L 257.798483 -450.806714 
L 260.40669 -447.591304 
L 262.903129 -444.375895 
L 265.212251 -441.160486 
L 267.260464 -437.945077 
L 268.980199 -434.729668 
L 270.313806 -431.514259 
L 271.216973 -428.298849 
L 271.661386 -425.08344 
L 271.63641 -421.868031 
L 271.149661 -418.652622 
L 270.22644 -415.437213 
L 268.908074 -412.221803 
L 267.249356 -409.006394 
L 265.315276 -405.790985 
L 263.177336 -402.575576 
L 260.909729 -399.360167 
L 258.585656 -396.144757 
L 256.274018 -392.929348 
L 254.036667 -389.713939 
L 251.926329 -386.49853 
L 249.985258 -383.283121 
L 248.244601 -380.067712 
L 246.724426 -376.852302 
L 245.434306 -373.636893 
L 244.374344 -370.421484 
L 243.536511 -367.206075 
L 242.906169 -363.990666 
L 242.463671 -360.775256 
L 242.185932 -357.559847 
L 242.047901 -354.344438 
L 242.023881 -351.129029 
L 242.088643 -347.91362 
L 242.218338 -344.698211 
L 242.391179 -341.482801 
L 242.587913 -338.267392 
L 242.792091 -335.051983 
L 242.990161 -331.836574 
L 243.171414 -328.621165 
L 243.327803 -325.405755 
L 243.453678 -322.190346 
L 243.545465 -318.974937 
L 243.601311 -315.759528 
L 243.620734 -312.544119 
L 243.604284 -309.32871 
L 243.553254 -306.1133 
L 243.469423 -302.897891 
L 243.354869 -299.682482 
L 243.211831 -296.467073 
L 243.042616 -293.251664 
L 242.849559 -290.036254 
L 242.635004 -286.820845 
L 242.401315 -283.605436 
L 242.150875 -280.390027 
L 241.8861 -277.174618 
L 241.609416 -273.959209 
L 241.323234 -270.743799 
L 241.029893 -267.52839 
L 240.731588 -264.312981 
L 240.430294 -261.097572 
L 240.127687 -257.882163 
L 239.825078 -254.666753 
L 239.523377 -251.451344 
L 239.223089 -248.235935 
L 238.924344 -245.020526 
L 238.626974 -241.805117 
L 238.330619 -238.589708 
L 238.034857 -235.374298 
L 237.739343 -232.158889 
L 237.443942 -228.94348 
L 237.148847 -225.728071 
L 236.854652 -222.512662 
L 236.562395 -219.297252 
L 236.27354 -216.081843 
L 235.989927 -212.866434 
L 235.71367 -209.651025 
L 235.447036 -206.435616 
L 235.192304 -203.220207 
L 234.951623 -200.004797 
L 234.726878 -196.789388 
L 234.519588 -193.573979 
L 234.330825 -190.35857 
L 234.161176 -187.143161 
L 234.010734 -183.927751 
L 233.879127 -180.712342 
L 233.765568 -177.496933 
L 233.66893 -174.281524 
L 233.587831 -171.066115 
L 233.520718 -167.850706 
L 233.465952 -164.635296 
z
" id="mcca5aba118" style="stroke:#3f3f3f;stroke-width:1.5;"/>
    </defs>
    <g clip-path="url(#p8f2067409c)">
     <use style="fill:#e1812c;stroke:#3f3f3f;stroke-width:1.5;" x="0" xlink:href="#mcca5aba118" y="648"/>
    </g>
   </g>
   <g id="PolyCollection_3">
    <defs>
     <path d="M 411.84 -276.193394 
L 409.47567 -276.193394 
L 409.01238 -277.533955 
L 408.485376 -278.874516 
L 407.891858 -280.215077 
L 407.230147 -281.555638 
L 406.499906 -282.896199 
L 405.702315 -284.23676 
L 404.840222 -285.57732 
L 403.918212 -286.917881 
L 402.942614 -288.258442 
L 401.921427 -289.599003 
L 400.864149 -290.939564 
L 399.781525 -292.280125 
L 398.685209 -293.620686 
L 397.587357 -294.961247 
L 396.500172 -296.301807 
L 395.43542 -297.642368 
L 394.403947 -298.982929 
L 393.415229 -300.32349 
L 392.476987 -301.664051 
L 391.594891 -303.004612 
L 390.772378 -304.345173 
L 390.010598 -305.685734 
L 389.308508 -307.026295 
L 388.663088 -308.366855 
L 388.069689 -309.707416 
L 387.522472 -311.047977 
L 387.014917 -312.388538 
L 386.540357 -313.729099 
L 386.092499 -315.06966 
L 385.665881 -316.410221 
L 385.256232 -317.750782 
L 384.860706 -319.091342 
L 384.477949 -320.431903 
L 384.108008 -321.772464 
L 383.75207 -323.113025 
L 383.412051 -324.453586 
L 383.090058 -325.794147 
L 382.787779 -327.134708 
L 382.505826 -328.475269 
L 382.243101 -329.815829 
L 381.996231 -331.15639 
L 381.759123 -332.496951 
L 381.522676 -333.837512 
L 381.274699 -335.178073 
L 381.000033 -336.518634 
L 380.680894 -337.859195 
L 380.297434 -339.199756 
L 379.828475 -340.540317 
L 379.252407 -341.880877 
L 378.548183 -343.221438 
L 377.696375 -344.561999 
L 376.680228 -345.90256 
L 375.486665 -347.243121 
L 374.107185 -348.583682 
L 372.538621 -349.924243 
L 370.783724 -351.264804 
L 368.85153 -352.605364 
L 366.757527 -353.945925 
L 364.523583 -355.286486 
L 362.177666 -356.627047 
L 359.753354 -357.967608 
L 357.289151 -359.308169 
L 354.827639 -360.64873 
L 352.414489 -361.989291 
L 350.097347 -363.329852 
L 347.924646 -364.670412 
L 345.944353 -366.010973 
L 344.202695 -367.351534 
L 342.742899 -368.692095 
L 341.603966 -370.032656 
L 340.81954 -371.373217 
L 340.416881 -372.713778 
L 340.416 -374.054339 
L 340.828985 -375.394899 
L 341.659538 -376.73546 
L 342.902765 -378.076021 
L 344.545226 -379.416582 
L 346.565258 -380.757143 
L 348.933556 -382.097704 
L 351.614016 -383.438265 
L 354.564791 -384.778826 
L 357.739532 -386.119386 
L 361.088762 -387.459947 
L 364.561321 -388.800508 
L 368.105838 -390.141069 
L 371.672138 -391.48163 
L 375.212565 -392.822191 
L 378.68314 -394.162752 
L 382.044522 -395.503313 
L 385.262751 -396.843874 
L 388.309745 -398.184434 
L 391.163548 -399.524995 
L 393.808349 -400.865556 
L 396.234279 -402.206117 
L 398.437025 -403.546678 
L 400.417292 -404.887239 
L 402.180155 -406.2278 
L 403.73434 -407.568361 
L 405.091477 -408.908921 
L 411.84 -408.908921 
L 411.84 -408.908921 
L 411.84 -407.568361 
L 411.84 -406.2278 
L 411.84 -404.887239 
L 411.84 -403.546678 
L 411.84 -402.206117 
L 411.84 -400.865556 
L 411.84 -399.524995 
L 411.84 -398.184434 
L 411.84 -396.843874 
L 411.84 -395.503313 
L 411.84 -394.162752 
L 411.84 -392.822191 
L 411.84 -391.48163 
L 411.84 -390.141069 
L 411.84 -388.800508 
L 411.84 -387.459947 
L 411.84 -386.119386 
L 411.84 -384.778826 
L 411.84 -383.438265 
L 411.84 -382.097704 
L 411.84 -380.757143 
L 411.84 -379.416582 
L 411.84 -378.076021 
L 411.84 -376.73546 
L 411.84 -375.394899 
L 411.84 -374.054339 
L 411.84 -372.713778 
L 411.84 -371.373217 
L 411.84 -370.032656 
L 411.84 -368.692095 
L 411.84 -367.351534 
L 411.84 -366.010973 
L 411.84 -364.670412 
L 411.84 -363.329852 
L 411.84 -361.989291 
L 411.84 -360.64873 
L 411.84 -359.308169 
L 411.84 -357.967608 
L 411.84 -356.627047 
L 411.84 -355.286486 
L 411.84 -353.945925 
L 411.84 -352.605364 
L 411.84 -351.264804 
L 411.84 -349.924243 
L 411.84 -348.583682 
L 411.84 -347.243121 
L 411.84 -345.90256 
L 411.84 -344.561999 
L 411.84 -343.221438 
L 411.84 -341.880877 
L 411.84 -340.540317 
L 411.84 -339.199756 
L 411.84 -337.859195 
L 411.84 -336.518634 
L 411.84 -335.178073 
L 411.84 -333.837512 
L 411.84 -332.496951 
L 411.84 -331.15639 
L 411.84 -329.815829 
L 411.84 -328.475269 
L 411.84 -327.134708 
L 411.84 -325.794147 
L 411.84 -324.453586 
L 411.84 -323.113025 
L 411.84 -321.772464 
L 411.84 -320.431903 
L 411.84 -319.091342 
L 411.84 -317.750782 
L 411.84 -316.410221 
L 411.84 -315.06966 
L 411.84 -313.729099 
L 411.84 -312.388538 
L 411.84 -311.047977 
L 411.84 -309.707416 
L 411.84 -308.366855 
L 411.84 -307.026295 
L 411.84 -305.685734 
L 411.84 -304.345173 
L 411.84 -303.004612 
L 411.84 -301.664051 
L 411.84 -300.32349 
L 411.84 -298.982929 
L 411.84 -297.642368 
L 411.84 -296.301807 
L 411.84 -294.961247 
L 411.84 -293.620686 
L 411.84 -292.280125 
L 411.84 -290.939564 
L 411.84 -289.599003 
L 411.84 -288.258442 
L 411.84 -286.917881 
L 411.84 -285.57732 
L 411.84 -284.23676 
L 411.84 -282.896199 
L 411.84 -281.555638 
L 411.84 -280.215077 
L 411.84 -278.874516 
L 411.84 -277.533955 
L 411.84 -276.193394 
z
" id="m5db633e766" style="stroke:#3f3f3f;stroke-width:1.5;"/>
    </defs>
    <g clip-path="url(#p8f2067409c)">
     <use style="fill:#3274a1;stroke:#3f3f3f;stroke-width:1.5;" x="0" xlink:href="#m5db633e766" y="648"/>
    </g>
   </g>
   <g id="PolyCollection_4">
    <defs>
     <path d="M 412.094507 -188.545556 
L 411.84 -188.545556 
L 411.84 -190.834152 
L 411.84 -193.122747 
L 411.84 -195.411343 
L 411.84 -197.699938 
L 411.84 -199.988534 
L 411.84 -202.277129 
L 411.84 -204.565724 
L 411.84 -206.85432 
L 411.84 -209.142915 
L 411.84 -211.431511 
L 411.84 -213.720106 
L 411.84 -216.008701 
L 411.84 -218.297297 
L 411.84 -220.585892 
L 411.84 -222.874488 
L 411.84 -225.163083 
L 411.84 -227.451679 
L 411.84 -229.740274 
L 411.84 -232.028869 
L 411.84 -234.317465 
L 411.84 -236.60606 
L 411.84 -238.894656 
L 411.84 -241.183251 
L 411.84 -243.471847 
L 411.84 -245.760442 
L 411.84 -248.049037 
L 411.84 -250.337633 
L 411.84 -252.626228 
L 411.84 -254.914824 
L 411.84 -257.203419 
L 411.84 -259.492015 
L 411.84 -261.78061 
L 411.84 -264.069205 
L 411.84 -266.357801 
L 411.84 -268.646396 
L 411.84 -270.934992 
L 411.84 -273.223587 
L 411.84 -275.512183 
L 411.84 -277.800778 
L 411.84 -280.089373 
L 411.84 -282.377969 
L 411.84 -284.666564 
L 411.84 -286.95516 
L 411.84 -289.243755 
L 411.84 -291.532351 
L 411.84 -293.820946 
L 411.84 -296.109541 
L 411.84 -298.398137 
L 411.84 -300.686732 
L 411.84 -302.975328 
L 411.84 -305.263923 
L 411.84 -307.552519 
L 411.84 -309.841114 
L 411.84 -312.129709 
L 411.84 -314.418305 
L 411.84 -316.7069 
L 411.84 -318.995496 
L 411.84 -321.284091 
L 411.84 -323.572687 
L 411.84 -325.861282 
L 411.84 -328.149877 
L 411.84 -330.438473 
L 411.84 -332.727068 
L 411.84 -335.015664 
L 411.84 -337.304259 
L 411.84 -339.592855 
L 411.84 -341.88145 
L 411.84 -344.170045 
L 411.84 -346.458641 
L 411.84 -348.747236 
L 411.84 -351.035832 
L 411.84 -353.324427 
L 411.84 -355.613023 
L 411.84 -357.901618 
L 411.84 -360.190213 
L 411.84 -362.478809 
L 411.84 -364.767404 
L 411.84 -367.056 
L 411.84 -369.344595 
L 411.84 -371.633191 
L 411.84 -373.921786 
L 411.84 -376.210381 
L 411.84 -378.498977 
L 411.84 -380.787572 
L 411.84 -383.076168 
L 411.84 -385.364763 
L 411.84 -387.653359 
L 411.84 -389.941954 
L 411.84 -392.230549 
L 411.84 -394.519145 
L 411.84 -396.80774 
L 411.84 -399.096336 
L 411.84 -401.384931 
L 411.84 -403.673526 
L 411.84 -405.962122 
L 411.84 -408.250717 
L 411.84 -410.539313 
L 411.84 -412.827908 
L 411.84 -415.116504 
L 418.257856 -415.116504 
L 418.257856 -415.116504 
L 420.065763 -412.827908 
L 422.211304 -410.539313 
L 424.703633 -408.250717 
L 427.535307 -405.962122 
L 430.678904 -403.673526 
L 434.084681 -401.384931 
L 437.679748 -399.096336 
L 441.36916 -396.80774 
L 445.039159 -394.519145 
L 448.562573 -392.230549 
L 451.806128 -389.941954 
L 454.639154 -387.653359 
L 456.94296 -385.364763 
L 458.619975 -383.076168 
L 459.601733 -380.787572 
L 459.854833 -378.498977 
L 459.384221 -376.210381 
L 458.233405 -373.921786 
L 456.481569 -371.633191 
L 454.237898 -369.344595 
L 451.633726 -367.056 
L 448.813332 -364.767404 
L 445.92433 -362.478809 
L 443.108544 -360.190213 
L 440.494159 -357.901618 
L 438.18968 -355.613023 
L 436.279991 -353.324427 
L 434.824513 -351.035832 
L 433.857223 -348.747236 
L 433.388148 -346.458641 
L 433.40581 -344.170045 
L 433.880167 -341.88145 
L 434.765615 -339.592855 
L 436.00378 -337.304259 
L 437.525975 -335.015664 
L 439.255347 -332.727068 
L 441.108873 -330.438473 
L 442.999399 -328.149877 
L 444.837945 -325.861282 
L 446.536434 -323.572687 
L 448.010871 -321.284091 
L 449.184912 -318.995496 
L 449.993572 -316.7069 
L 450.386769 -314.418305 
L 450.332316 -312.129709 
L 449.817993 -309.841114 
L 448.852391 -307.552519 
L 447.464376 -305.263923 
L 445.701134 -302.975328 
L 443.624968 -300.686732 
L 441.309129 -298.398137 
L 438.833085 -296.109541 
L 436.277665 -293.820946 
L 433.720509 -291.532351 
L 431.232175 -289.243755 
L 428.873162 -286.95516 
L 426.691974 -284.666564 
L 424.724219 -282.377969 
L 422.992656 -280.089373 
L 421.508008 -277.800778 
L 420.270329 -275.512183 
L 419.270718 -273.223587 
L 418.493165 -270.934992 
L 417.916397 -268.646396 
L 417.515591 -266.357801 
L 417.263899 -264.069205 
L 417.133744 -261.78061 
L 417.097891 -259.492015 
L 417.130303 -257.203419 
L 417.206798 -254.914824 
L 417.305539 -252.626228 
L 417.40737 -250.337633 
L 417.496035 -248.049037 
L 417.558276 -245.760442 
L 417.58385 -243.471847 
L 417.565461 -241.183251 
L 417.498631 -238.894656 
L 417.381516 -236.60606 
L 417.214672 -234.317465 
L 417.000783 -232.028869 
L 416.744353 -229.740274 
L 416.451367 -227.451679 
L 416.12893 -225.163083 
L 415.784886 -222.874488 
L 415.427434 -220.585892 
L 415.064756 -218.297297 
L 414.704664 -216.008701 
L 414.354295 -213.720106 
L 414.019854 -211.431511 
L 413.706432 -209.142915 
L 413.417893 -206.85432 
L 413.156839 -204.565724 
L 412.924653 -202.277129 
L 412.721591 -199.988534 
L 412.546936 -197.699938 
L 412.399181 -195.411343 
L 412.276224 -193.122747 
L 412.175568 -190.834152 
L 412.094507 -188.545556 
z
" id="ma327c880b5" style="stroke:#3f3f3f;stroke-width:1.5;"/>
    </defs>
    <g clip-path="url(#p8f2067409c)">
     <use style="fill:#e1812c;stroke:#3f3f3f;stroke-width:1.5;" x="0" xlink:href="#ma327c880b5" y="648"/>
    </g>
   </g>
   <g id="PolyCollection_5">
    <defs>
     <path d="M 590.4 -234.240315 
L 586.562827 -234.240315 
L 585.889399 -236.30665 
L 585.129228 -238.372985 
L 584.277379 -240.43932 
L 583.32981 -242.505655 
L 582.283595 -244.57199 
L 581.137146 -246.638325 
L 579.890421 -248.70466 
L 578.545105 -250.770995 
L 577.104759 -252.83733 
L 575.574919 -254.903665 
L 573.96314 -256.97 
L 572.278981 -259.036335 
L 570.533913 -261.102669 
L 568.741156 -263.169004 
L 566.915446 -265.235339 
L 565.07273 -267.301674 
L 563.229793 -269.368009 
L 561.40384 -271.434344 
L 559.612039 -273.500679 
L 557.871036 -275.567014 
L 556.196481 -277.633349 
L 554.602562 -279.699684 
L 553.101583 -281.766019 
L 551.703606 -283.832354 
L 550.416165 -285.898689 
L 549.244073 -287.965024 
L 548.189336 -290.031359 
L 547.251171 -292.097694 
L 546.42613 -294.164029 
L 545.708335 -296.230364 
L 545.089789 -298.296699 
L 544.560775 -300.363034 
L 544.110302 -302.429369 
L 543.726578 -304.495704 
L 543.397497 -306.562039 
L 543.1111 -308.628374 
L 542.855994 -310.694709 
L 542.62171 -312.761044 
L 542.398976 -314.827379 
L 542.179904 -316.893714 
L 541.958083 -318.960049 
L 541.728573 -321.026384 
L 541.487814 -323.092719 
L 541.233473 -325.159054 
L 540.964223 -327.225389 
L 540.679499 -329.291724 
L 540.379245 -331.358059 
L 540.063675 -333.424394 
L 539.733073 -335.490729 
L 539.387649 -337.557064 
L 539.027472 -339.623399 
L 538.652471 -341.689734 
L 538.262534 -343.756069 
L 537.857674 -345.822404 
L 537.438261 -347.888739 
L 537.005314 -349.955074 
L 536.560808 -352.021409 
L 536.107986 -354.087744 
L 535.651657 -356.154079 
L 535.198426 -358.220414 
L 534.75686 -360.286749 
L 534.337552 -362.353084 
L 533.953079 -364.419419 
L 533.617836 -366.485754 
L 533.347746 -368.552089 
L 533.159867 -370.618424 
L 533.071885 -372.684759 
L 533.101539 -374.751094 
L 533.265985 -376.817429 
L 533.581138 -378.883764 
L 534.061023 -380.950099 
L 534.717171 -383.016434 
L 535.558075 -385.082769 
L 536.588758 -387.149104 
L 537.810453 -389.215439 
L 539.220423 -391.281774 
L 540.811924 -393.348109 
L 542.574321 -395.414444 
L 544.493337 -397.480779 
L 546.551437 -399.547114 
L 548.728319 -401.613449 
L 551.001492 -403.679784 
L 553.346913 -405.746119 
L 555.739663 -407.812454 
L 558.154613 -409.878789 
L 560.567084 -411.945124 
L 562.953445 -414.011459 
L 565.29165 -416.077794 
L 567.561692 -418.144129 
L 569.745958 -420.210464 
L 571.829487 -422.276799 
L 573.800118 -424.343134 
L 575.648549 -426.409469 
L 577.368296 -428.475804 
L 578.955575 -430.542139 
L 580.409117 -432.608474 
L 581.729925 -434.674809 
L 582.920993 -436.741144 
L 583.987004 -438.807479 
L 590.4 -438.807479 
L 590.4 -438.807479 
L 590.4 -436.741144 
L 590.4 -434.674809 
L 590.4 -432.608474 
L 590.4 -430.542139 
L 590.4 -428.475804 
L 590.4 -426.409469 
L 590.4 -424.343134 
L 590.4 -422.276799 
L 590.4 -420.210464 
L 590.4 -418.144129 
L 590.4 -416.077794 
L 590.4 -414.011459 
L 590.4 -411.945124 
L 590.4 -409.878789 
L 590.4 -407.812454 
L 590.4 -405.746119 
L 590.4 -403.679784 
L 590.4 -401.613449 
L 590.4 -399.547114 
L 590.4 -397.480779 
L 590.4 -395.414444 
L 590.4 -393.348109 
L 590.4 -391.281774 
L 590.4 -389.215439 
L 590.4 -387.149104 
L 590.4 -385.082769 
L 590.4 -383.016434 
L 590.4 -380.950099 
L 590.4 -378.883764 
L 590.4 -376.817429 
L 590.4 -374.751094 
L 590.4 -372.684759 
L 590.4 -370.618424 
L 590.4 -368.552089 
L 590.4 -366.485754 
L 590.4 -364.419419 
L 590.4 -362.353084 
L 590.4 -360.286749 
L 590.4 -358.220414 
L 590.4 -356.154079 
L 590.4 -354.087744 
L 590.4 -352.021409 
L 590.4 -349.955074 
L 590.4 -347.888739 
L 590.4 -345.822404 
L 590.4 -343.756069 
L 590.4 -341.689734 
L 590.4 -339.623399 
L 590.4 -337.557064 
L 590.4 -335.490729 
L 590.4 -333.424394 
L 590.4 -331.358059 
L 590.4 -329.291724 
L 590.4 -327.225389 
L 590.4 -325.159054 
L 590.4 -323.092719 
L 590.4 -321.026384 
L 590.4 -318.960049 
L 590.4 -316.893714 
L 590.4 -314.827379 
L 590.4 -312.761044 
L 590.4 -310.694709 
L 590.4 -308.628374 
L 590.4 -306.562039 
L 590.4 -304.495704 
L 590.4 -302.429369 
L 590.4 -300.363034 
L 590.4 -298.296699 
L 590.4 -296.230364 
L 590.4 -294.164029 
L 590.4 -292.097694 
L 590.4 -290.031359 
L 590.4 -287.965024 
L 590.4 -285.898689 
L 590.4 -283.832354 
L 590.4 -281.766019 
L 590.4 -279.699684 
L 590.4 -277.633349 
L 590.4 -275.567014 
L 590.4 -273.500679 
L 590.4 -271.434344 
L 590.4 -269.368009 
L 590.4 -267.301674 
L 590.4 -265.235339 
L 590.4 -263.169004 
L 590.4 -261.102669 
L 590.4 -259.036335 
L 590.4 -256.97 
L 590.4 -254.903665 
L 590.4 -252.83733 
L 590.4 -250.770995 
L 590.4 -248.70466 
L 590.4 -246.638325 
L 590.4 -244.57199 
L 590.4 -242.505655 
L 590.4 -240.43932 
L 590.4 -238.372985 
L 590.4 -236.30665 
L 590.4 -234.240315 
z
" id="m54e423509d" style="stroke:#3f3f3f;stroke-width:1.5;"/>
    </defs>
    <g clip-path="url(#p8f2067409c)">
     <use style="fill:#3274a1;stroke:#3f3f3f;stroke-width:1.5;" x="0" xlink:href="#m54e423509d" y="648"/>
    </g>
   </g>
   <g id="PolyCollection_6">
    <defs>
     <path d="M 590.974477 -197.089229 
L 590.4 -197.089229 
L 590.4 -199.404761 
L 590.4 -201.720293 
L 590.4 -204.035824 
L 590.4 -206.351356 
L 590.4 -208.666888 
L 590.4 -210.98242 
L 590.4 -213.297951 
L 590.4 -215.613483 
L 590.4 -217.929015 
L 590.4 -220.244546 
L 590.4 -222.560078 
L 590.4 -224.87561 
L 590.4 -227.191141 
L 590.4 -229.506673 
L 590.4 -231.822205 
L 590.4 -234.137736 
L 590.4 -236.453268 
L 590.4 -238.7688 
L 590.4 -241.084332 
L 590.4 -243.399863 
L 590.4 -245.715395 
L 590.4 -248.030927 
L 590.4 -250.346458 
L 590.4 -252.66199 
L 590.4 -254.977522 
L 590.4 -257.293053 
L 590.4 -259.608585 
L 590.4 -261.924117 
L 590.4 -264.239648 
L 590.4 -266.55518 
L 590.4 -268.870712 
L 590.4 -271.186244 
L 590.4 -273.501775 
L 590.4 -275.817307 
L 590.4 -278.132839 
L 590.4 -280.44837 
L 590.4 -282.763902 
L 590.4 -285.079434 
L 590.4 -287.394965 
L 590.4 -289.710497 
L 590.4 -292.026029 
L 590.4 -294.34156 
L 590.4 -296.657092 
L 590.4 -298.972624 
L 590.4 -301.288156 
L 590.4 -303.603687 
L 590.4 -305.919219 
L 590.4 -308.234751 
L 590.4 -310.550282 
L 590.4 -312.865814 
L 590.4 -315.181346 
L 590.4 -317.496877 
L 590.4 -319.812409 
L 590.4 -322.127941 
L 590.4 -324.443472 
L 590.4 -326.759004 
L 590.4 -329.074536 
L 590.4 -331.390068 
L 590.4 -333.705599 
L 590.4 -336.021131 
L 590.4 -338.336663 
L 590.4 -340.652194 
L 590.4 -342.967726 
L 590.4 -345.283258 
L 590.4 -347.598789 
L 590.4 -349.914321 
L 590.4 -352.229853 
L 590.4 -354.545384 
L 590.4 -356.860916 
L 590.4 -359.176448 
L 590.4 -361.49198 
L 590.4 -363.807511 
L 590.4 -366.123043 
L 590.4 -368.438575 
L 590.4 -370.754106 
L 590.4 -373.069638 
L 590.4 -375.38517 
L 590.4 -377.700701 
L 590.4 -380.016233 
L 590.4 -382.331765 
L 590.4 -384.647296 
L 590.4 -386.962828 
L 590.4 -389.27836 
L 590.4 -391.593892 
L 590.4 -393.909423 
L 590.4 -396.224955 
L 590.4 -398.540487 
L 590.4 -400.856018 
L 590.4 -403.17155 
L 590.4 -405.487082 
L 590.4 -407.802613 
L 590.4 -410.118145 
L 590.4 -412.433677 
L 590.4 -414.749208 
L 590.4 -417.06474 
L 590.4 -419.380272 
L 590.4 -421.695804 
L 590.4 -424.011335 
L 590.4 -426.326867 
L 599.982157 -426.326867 
L 599.982157 -426.326867 
L 602.369373 -424.011335 
L 605.156875 -421.695804 
L 608.356986 -419.380272 
L 611.967019 -417.06474 
L 615.966207 -414.749208 
L 620.313299 -412.433677 
L 624.94515 -410.118145 
L 629.776604 -407.802613 
L 634.701905 -405.487082 
L 639.597759 -403.17155 
L 644.328004 -400.856018 
L 648.749726 -398.540487 
L 652.720477 -396.224955 
L 656.106098 -393.909423 
L 658.788594 -391.593892 
L 660.673421 -389.27836 
L 661.69558 -386.962828 
L 661.824 -384.647296 
L 661.063827 -382.331765 
L 659.456416 -380.016233 
L 657.077041 -377.700701 
L 654.03054 -375.38517 
L 650.445282 -373.069638 
L 646.465992 -370.754106 
L 642.246029 -368.438575 
L 637.939735 -366.123043 
L 633.695398 -363.807511 
L 629.649274 -361.49198 
L 625.920973 -359.176448 
L 622.610334 -356.860916 
L 619.795778 -354.545384 
L 617.533973 -352.229853 
L 615.860559 -349.914321 
L 614.791622 -347.598789 
L 614.325591 -345.283258 
L 614.445277 -342.967726 
L 615.11982 -340.652194 
L 616.306412 -338.336663 
L 617.951751 -336.021131 
L 619.99325 -333.705599 
L 622.360132 -331.390068 
L 624.97454 -329.074536 
L 627.752831 -326.759004 
L 630.607193 -324.443472 
L 633.447676 -322.127941 
L 636.184664 -319.812409 
L 638.731725 -317.496877 
L 641.008724 -315.181346 
L 642.944986 -312.865814 
L 644.482288 -310.550282 
L 645.577408 -308.234751 
L 646.204016 -305.919219 
L 646.353696 -303.603687 
L 646.035989 -301.288156 
L 645.277418 -298.972624 
L 644.119543 -296.657092 
L 642.616198 -294.34156 
L 640.830095 -292.026029 
L 638.829076 -289.710497 
L 636.682264 -287.394965 
L 634.456399 -285.079434 
L 632.212594 -282.763902 
L 630.003692 -280.44837 
L 627.872369 -278.132839 
L 625.850036 -275.817307 
L 623.956541 -273.501775 
L 622.200619 -271.186244 
L 620.580977 -268.870712 
L 619.087881 -266.55518 
L 617.705103 -264.239648 
L 616.41203 -261.924117 
L 615.185827 -259.608585 
L 614.00346 -257.293053 
L 612.843502 -254.977522 
L 611.687607 -252.66199 
L 610.521587 -250.346458 
L 609.336084 -248.030927 
L 608.126812 -245.715395 
L 606.894418 -243.399863 
L 605.644007 -241.084332 
L 604.384396 -238.7688 
L 603.127194 -236.453268 
L 601.885778 -234.137736 
L 600.674261 -231.822205 
L 599.506522 -229.506673 
L 598.395354 -227.191141 
L 597.351788 -224.87561 
L 596.384605 -222.560078 
L 595.500052 -220.244546 
L 594.701747 -217.929015 
L 593.990762 -215.613483 
L 593.365839 -213.297951 
L 592.823717 -210.98242 
L 592.359515 -208.666888 
L 591.967151 -206.351356 
L 591.639751 -204.035824 
L 591.370038 -201.720293 
L 591.150661 -199.404761 
L 590.974477 -197.089229 
z
" id="m5c928d629b" style="stroke:#3f3f3f;stroke-width:1.5;"/>
    </defs>
    <g clip-path="url(#p8f2067409c)">
     <use style="fill:#e1812c;stroke:#3f3f3f;stroke-width:1.5;" x="0" xlink:href="#m5c928d629b" y="648"/>
    </g>
   </g>
   <g id="PolyCollection_7">
    <defs>
     <path d="M 768.96 -225.460805 
L 767.498137 -225.460805 
L 767.178612 -228.190166 
L 766.807086 -230.919528 
L 766.379424 -233.64889 
L 765.892146 -236.378252 
L 765.34268 -239.107613 
L 764.729617 -241.836975 
L 764.052957 -244.566337 
L 763.314343 -247.295698 
L 762.517253 -250.02506 
L 761.667142 -252.754422 
L 760.771519 -255.483783 
L 759.83994 -258.213145 
L 758.883912 -260.942507 
L 757.916703 -263.671868 
L 756.953039 -266.40123 
L 756.008722 -269.130592 
L 755.10014 -271.859953 
L 754.243723 -274.589315 
L 753.45533 -277.318677 
L 752.749618 -280.048038 
L 752.139404 -282.7774 
L 751.635054 -285.506762 
L 751.243936 -288.236124 
L 750.969953 -290.965485 
L 750.813188 -293.694847 
L 750.769681 -296.424209 
L 750.831349 -299.15357 
L 750.986069 -301.882932 
L 751.217901 -304.612294 
L 751.507482 -307.341655 
L 751.83254 -310.071017 
L 752.168543 -312.800379 
L 752.489439 -315.52974 
L 752.768474 -318.259102 
L 752.979048 -320.988464 
L 753.095584 -323.717825 
L 753.094377 -326.447187 
L 752.954384 -329.176549 
L 752.657935 -331.905911 
L 752.191329 -334.635272 
L 751.545278 -337.364634 
L 750.715207 -340.093996 
L 749.701353 -342.823357 
L 748.508689 -345.552719 
L 747.146643 -348.282081 
L 745.628634 -351.011442 
L 743.971428 -353.740804 
L 742.19435 -356.470166 
L 740.318379 -359.199527 
L 738.365169 -361.928889 
L 736.356061 -364.658251 
L 734.311124 -367.387612 
L 732.248302 -370.116974 
L 730.182722 -372.846336 
L 728.126215 -375.575697 
L 726.087093 -378.305059 
L 724.070216 -381.034421 
L 722.077361 -383.763783 
L 720.107885 -386.493144 
L 718.159638 -389.222506 
L 716.230099 -391.951868 
L 714.317636 -394.681229 
L 712.42281 -397.410591 
L 710.549631 -400.139953 
L 708.706648 -402.869314 
L 706.907779 -405.598676 
L 705.172799 -408.328038 
L 703.527414 -411.057399 
L 702.00288 -413.786761 
L 700.635169 -416.516123 
L 699.463691 -419.245484 
L 698.529655 -421.974846 
L 697.874139 -424.704208 
L 697.536 -427.43357 
L 697.549743 -430.162931 
L 697.943501 -432.892293 
L 698.737247 -435.621655 
L 699.941372 -438.351016 
L 701.555708 -441.080378 
L 703.569081 -443.80974 
L 705.959414 -446.539101 
L 708.694369 -449.268463 
L 711.732491 -451.997825 
L 715.024781 -454.727186 
L 718.516588 -457.456548 
L 722.14971 -460.18591 
L 725.864578 -462.915271 
L 729.60239 -465.644633 
L 733.307103 -468.373995 
L 736.927158 -471.103357 
L 740.416895 -473.832718 
L 743.737589 -476.56208 
L 746.858099 -479.291442 
L 749.755133 -482.020803 
L 752.413154 -484.750165 
L 754.823978 -487.479527 
L 756.986114 -490.208888 
L 758.903929 -492.93825 
L 760.586677 -495.667612 
L 768.96 -495.667612 
L 768.96 -495.667612 
L 768.96 -492.93825 
L 768.96 -490.208888 
L 768.96 -487.479527 
L 768.96 -484.750165 
L 768.96 -482.020803 
L 768.96 -479.291442 
L 768.96 -476.56208 
L 768.96 -473.832718 
L 768.96 -471.103357 
L 768.96 -468.373995 
L 768.96 -465.644633 
L 768.96 -462.915271 
L 768.96 -460.18591 
L 768.96 -457.456548 
L 768.96 -454.727186 
L 768.96 -451.997825 
L 768.96 -449.268463 
L 768.96 -446.539101 
L 768.96 -443.80974 
L 768.96 -441.080378 
L 768.96 -438.351016 
L 768.96 -435.621655 
L 768.96 -432.892293 
L 768.96 -430.162931 
L 768.96 -427.43357 
L 768.96 -424.704208 
L 768.96 -421.974846 
L 768.96 -419.245484 
L 768.96 -416.516123 
L 768.96 -413.786761 
L 768.96 -411.057399 
L 768.96 -408.328038 
L 768.96 -405.598676 
L 768.96 -402.869314 
L 768.96 -400.139953 
L 768.96 -397.410591 
L 768.96 -394.681229 
L 768.96 -391.951868 
L 768.96 -389.222506 
L 768.96 -386.493144 
L 768.96 -383.763783 
L 768.96 -381.034421 
L 768.96 -378.305059 
L 768.96 -375.575697 
L 768.96 -372.846336 
L 768.96 -370.116974 
L 768.96 -367.387612 
L 768.96 -364.658251 
L 768.96 -361.928889 
L 768.96 -359.199527 
L 768.96 -356.470166 
L 768.96 -353.740804 
L 768.96 -351.011442 
L 768.96 -348.282081 
L 768.96 -345.552719 
L 768.96 -342.823357 
L 768.96 -340.093996 
L 768.96 -337.364634 
L 768.96 -334.635272 
L 768.96 -331.905911 
L 768.96 -329.176549 
L 768.96 -326.447187 
L 768.96 -323.717825 
L 768.96 -320.988464 
L 768.96 -318.259102 
L 768.96 -315.52974 
L 768.96 -312.800379 
L 768.96 -310.071017 
L 768.96 -307.341655 
L 768.96 -304.612294 
L 768.96 -301.882932 
L 768.96 -299.15357 
L 768.96 -296.424209 
L 768.96 -293.694847 
L 768.96 -290.965485 
L 768.96 -288.236124 
L 768.96 -285.506762 
L 768.96 -282.7774 
L 768.96 -280.048038 
L 768.96 -277.318677 
L 768.96 -274.589315 
L 768.96 -271.859953 
L 768.96 -269.130592 
L 768.96 -266.40123 
L 768.96 -263.671868 
L 768.96 -260.942507 
L 768.96 -258.213145 
L 768.96 -255.483783 
L 768.96 -252.754422 
L 768.96 -250.02506 
L 768.96 -247.295698 
L 768.96 -244.566337 
L 768.96 -241.836975 
L 768.96 -239.107613 
L 768.96 -236.378252 
L 768.96 -233.64889 
L 768.96 -230.919528 
L 768.96 -228.190166 
L 768.96 -225.460805 
z
" id="m5b66039070" style="stroke:#3f3f3f;stroke-width:1.5;"/>
    </defs>
    <g clip-path="url(#p8f2067409c)">
     <use style="fill:#3274a1;stroke:#3f3f3f;stroke-width:1.5;" x="0" xlink:href="#m5b66039070" y="648"/>
    </g>
   </g>
   <g id="PolyCollection_8">
    <defs>
     <path d="M 769.785184 -179.365069 
L 768.96 -179.365069 
L 768.96 -182.555934 
L 768.96 -185.746799 
L 768.96 -188.937664 
L 768.96 -192.128528 
L 768.96 -195.319393 
L 768.96 -198.510258 
L 768.96 -201.701123 
L 768.96 -204.891988 
L 768.96 -208.082852 
L 768.96 -211.273717 
L 768.96 -214.464582 
L 768.96 -217.655447 
L 768.96 -220.846312 
L 768.96 -224.037176 
L 768.96 -227.228041 
L 768.96 -230.418906 
L 768.96 -233.609771 
L 768.96 -236.800636 
L 768.96 -239.9915 
L 768.96 -243.182365 
L 768.96 -246.37323 
L 768.96 -249.564095 
L 768.96 -252.75496 
L 768.96 -255.945824 
L 768.96 -259.136689 
L 768.96 -262.327554 
L 768.96 -265.518419 
L 768.96 -268.709284 
L 768.96 -271.900148 
L 768.96 -275.091013 
L 768.96 -278.281878 
L 768.96 -281.472743 
L 768.96 -284.663608 
L 768.96 -287.854472 
L 768.96 -291.045337 
L 768.96 -294.236202 
L 768.96 -297.427067 
L 768.96 -300.617932 
L 768.96 -303.808796 
L 768.96 -306.999661 
L 768.96 -310.190526 
L 768.96 -313.381391 
L 768.96 -316.572256 
L 768.96 -319.76312 
L 768.96 -322.953985 
L 768.96 -326.14485 
L 768.96 -329.335715 
L 768.96 -332.526579 
L 768.96 -335.717444 
L 768.96 -338.908309 
L 768.96 -342.099174 
L 768.96 -345.290039 
L 768.96 -348.480903 
L 768.96 -351.671768 
L 768.96 -354.862633 
L 768.96 -358.053498 
L 768.96 -361.244363 
L 768.96 -364.435227 
L 768.96 -367.626092 
L 768.96 -370.816957 
L 768.96 -374.007822 
L 768.96 -377.198687 
L 768.96 -380.389551 
L 768.96 -383.580416 
L 768.96 -386.771281 
L 768.96 -389.962146 
L 768.96 -393.153011 
L 768.96 -396.343875 
L 768.96 -399.53474 
L 768.96 -402.725605 
L 768.96 -405.91647 
L 768.96 -409.107335 
L 768.96 -412.298199 
L 768.96 -415.489064 
L 768.96 -418.679929 
L 768.96 -421.870794 
L 768.96 -425.061659 
L 768.96 -428.252523 
L 768.96 -431.443388 
L 768.96 -434.634253 
L 768.96 -437.825118 
L 768.96 -441.015983 
L 768.96 -444.206847 
L 768.96 -447.397712 
L 768.96 -450.588577 
L 768.96 -453.779442 
L 768.96 -456.970307 
L 768.96 -460.161171 
L 768.96 -463.352036 
L 768.96 -466.542901 
L 768.96 -469.733766 
L 768.96 -472.924631 
L 768.96 -476.115495 
L 768.96 -479.30636 
L 768.96 -482.497225 
L 768.96 -485.68809 
L 768.96 -488.878954 
L 768.96 -492.069819 
L 768.96 -495.260684 
L 775.900308 -495.260684 
L 775.900308 -495.260684 
L 777.557987 -492.069819 
L 779.484806 -488.878954 
L 781.690318 -485.68809 
L 784.17538 -482.497225 
L 786.930401 -479.30636 
L 789.933957 -476.115495 
L 793.15194 -472.924631 
L 796.537421 -469.733766 
L 800.031359 -466.542901 
L 803.564215 -463.352036 
L 807.058492 -460.161171 
L 810.432102 -456.970307 
L 813.6024 -453.779442 
L 816.490622 -450.588577 
L 819.026423 -447.397712 
L 821.152152 -444.206847 
L 822.826496 -441.015983 
L 824.027178 -437.825118 
L 824.752415 -434.634253 
L 825.02099 -431.443388 
L 824.870858 -428.252523 
L 824.35638 -425.061659 
L 823.544369 -421.870794 
L 822.509264 -418.679929 
L 821.327824 -415.489064 
L 820.073778 -412.298199 
L 818.812865 -409.107335 
L 817.598679 -405.91647 
L 816.469626 -402.725605 
L 815.447233 -399.53474 
L 814.535885 -396.343875 
L 813.723971 -393.153011 
L 812.986271 -389.962146 
L 812.28733 -386.771281 
L 811.585486 -383.580416 
L 810.837177 -380.389551 
L 810.001149 -377.198687 
L 809.042227 -374.007822 
L 807.934365 -370.816957 
L 806.662777 -367.626092 
L 805.225039 -364.435227 
L 803.631168 -361.244363 
L 801.902744 -358.053498 
L 800.071241 -354.862633 
L 798.175759 -351.671768 
L 796.260406 -348.480903 
L 794.371539 -345.290039 
L 792.555107 -342.099174 
L 790.854249 -338.908309 
L 789.307305 -335.717444 
L 787.946301 -332.526579 
L 786.795945 -329.335715 
L 785.873124 -326.14485 
L 785.186844 -322.953985 
L 784.73853 -319.76312 
L 784.522617 -316.572256 
L 784.52731 -313.381391 
L 784.735453 -310.190526 
L 785.12542 -306.999661 
L 785.671986 -303.808796 
L 786.347131 -300.617932 
L 787.120781 -297.427067 
L 787.961475 -294.236202 
L 788.836986 -291.045337 
L 789.714911 -287.854472 
L 790.56326 -284.663608 
L 791.35106 -281.472743 
L 792.049004 -278.281878 
L 792.63012 -275.091013 
L 793.070472 -271.900148 
L 793.34985 -268.709284 
L 793.45243 -265.518419 
L 793.367337 -262.327554 
L 793.08908 -259.136689 
L 792.617815 -255.945824 
L 791.959379 -252.75496 
L 791.125101 -249.564095 
L 790.131361 -246.37323 
L 788.998919 -243.182365 
L 787.752044 -239.9915 
L 786.417494 -236.800636 
L 785.023397 -233.609771 
L 783.598112 -230.418906 
L 782.169128 -227.228041 
L 780.762071 -224.037176 
L 779.39986 -220.846312 
L 778.102071 -217.655447 
L 776.884507 -214.464582 
L 775.758999 -211.273717 
L 774.733413 -208.082852 
L 773.811854 -204.891988 
L 772.99501 -201.701123 
L 772.280625 -198.510258 
L 771.66403 -195.319393 
L 771.13871 -192.128528 
L 770.696859 -188.937664 
L 770.329901 -185.746799 
L 770.028948 -182.555934 
L 769.785184 -179.365069 
z
" id="m8553127c12" style="stroke:#3f3f3f;stroke-width:1.5;"/>
    </defs>
    <g clip-path="url(#p8f2067409c)">
     <use style="fill:#e1812c;stroke:#3f3f3f;stroke-width:1.5;" x="0" xlink:href="#m8553127c12" y="648"/>
    </g>
   </g>
   <g id="PolyCollection_9">
    <defs>
     <path d="M 947.52 -435.571923 
L 942.689296 -435.571923 
L 941.896036 -436.028977 
L 941.011745 -436.486032 
L 940.033539 -436.943086 
L 938.959905 -437.40014 
L 937.790946 -437.857194 
L 936.528607 -438.314249 
L 935.176878 -438.771303 
L 933.741957 -439.228357 
L 932.232359 -439.685411 
L 930.658976 -440.142466 
L 929.035052 -440.59952 
L 927.376099 -441.056574 
L 925.699714 -441.513628 
L 924.025332 -441.970683 
L 922.373882 -442.427737 
L 920.767384 -442.884791 
L 919.228464 -443.341845 
L 917.779833 -443.7989 
L 916.443711 -444.255954 
L 915.241251 -444.713008 
L 914.191944 -445.170062 
L 913.313059 -445.627117 
L 912.619118 -446.084171 
L 912.121431 -446.541225 
L 911.827711 -446.998279 
L 911.741778 -447.455334 
L 911.863368 -447.912388 
L 912.188042 -448.369442 
L 912.707211 -448.826496 
L 913.40827 -449.283551 
L 914.274821 -449.740605 
L 915.286995 -450.197659 
L 916.421841 -450.654713 
L 917.653784 -451.111768 
L 918.955114 -451.568822 
L 920.296508 -452.025876 
L 921.647561 -452.48293 
L 922.977308 -452.939985 
L 924.254731 -453.397039 
L 925.449242 -453.854093 
L 926.531132 -454.311147 
L 927.471987 -454.768202 
L 928.245073 -455.225256 
L 928.825685 -455.68231 
L 929.191478 -456.139364 
L 929.322773 -456.596419 
L 929.202852 -457.053473 
L 928.81824 -457.510527 
L 928.158989 -457.967581 
L 927.218943 -458.424636 
L 925.99601 -458.88169 
L 924.492401 -459.338744 
L 922.71486 -459.795798 
L 920.674844 -460.252853 
L 918.388655 -460.709907 
L 915.877502 -461.166961 
L 913.167469 -461.624015 
L 910.289387 -462.08107 
L 907.278574 -462.538124 
L 904.174457 -462.995178 
L 901.020045 -463.452232 
L 897.861277 -463.909287 
L 894.746225 -464.366341 
L 891.72419 -464.823395 
L 888.844694 -465.280449 
L 886.156404 -465.737504 
L 883.706013 -466.194558 
L 881.537119 -466.651612 
L 879.689148 -467.108666 
L 878.196342 -467.565721 
L 877.086872 -468.022775 
L 876.382095 -468.479829 
L 876.096 -468.936883 
L 876.234852 -469.393938 
L 876.797061 -469.850992 
L 877.773275 -470.308046 
L 879.146701 -470.7651 
L 880.893632 -471.222155 
L 882.984171 -471.679209 
L 885.383114 -472.136263 
L 888.05096 -472.593317 
L 890.94501 -473.050372 
L 894.020515 -473.507426 
L 897.231828 -473.96448 
L 900.533519 -474.421534 
L 903.881423 -474.878589 
L 907.233582 -475.335643 
L 910.55106 -475.792697 
L 913.798607 -476.249751 
L 916.945165 -476.706806 
L 919.964216 -477.16386 
L 922.833961 -477.620914 
L 925.537351 -478.077968 
L 928.061983 -478.535023 
L 930.39987 -478.992077 
L 932.547117 -479.449131 
L 934.503515 -479.906185 
L 936.272088 -480.36324 
L 937.858603 -480.820294 
L 947.52 -480.820294 
L 947.52 -480.820294 
L 947.52 -480.36324 
L 947.52 -479.906185 
L 947.52 -479.449131 
L 947.52 -478.992077 
L 947.52 -478.535023 
L 947.52 -478.077968 
L 947.52 -477.620914 
L 947.52 -477.16386 
L 947.52 -476.706806 
L 947.52 -476.249751 
L 947.52 -475.792697 
L 947.52 -475.335643 
L 947.52 -474.878589 
L 947.52 -474.421534 
L 947.52 -473.96448 
L 947.52 -473.507426 
L 947.52 -473.050372 
L 947.52 -472.593317 
L 947.52 -472.136263 
L 947.52 -471.679209 
L 947.52 -471.222155 
L 947.52 -470.7651 
L 947.52 -470.308046 
L 947.52 -469.850992 
L 947.52 -469.393938 
L 947.52 -468.936883 
L 947.52 -468.479829 
L 947.52 -468.022775 
L 947.52 -467.565721 
L 947.52 -467.108666 
L 947.52 -466.651612 
L 947.52 -466.194558 
L 947.52 -465.737504 
L 947.52 -465.280449 
L 947.52 -464.823395 
L 947.52 -464.366341 
L 947.52 -463.909287 
L 947.52 -463.452232 
L 947.52 -462.995178 
L 947.52 -462.538124 
L 947.52 -462.08107 
L 947.52 -461.624015 
L 947.52 -461.166961 
L 947.52 -460.709907 
L 947.52 -460.252853 
L 947.52 -459.795798 
L 947.52 -459.338744 
L 947.52 -458.88169 
L 947.52 -458.424636 
L 947.52 -457.967581 
L 947.52 -457.510527 
L 947.52 -457.053473 
L 947.52 -456.596419 
L 947.52 -456.139364 
L 947.52 -455.68231 
L 947.52 -455.225256 
L 947.52 -454.768202 
L 947.52 -454.311147 
L 947.52 -453.854093 
L 947.52 -453.397039 
L 947.52 -452.939985 
L 947.52 -452.48293 
L 947.52 -452.025876 
L 947.52 -451.568822 
L 947.52 -451.111768 
L 947.52 -450.654713 
L 947.52 -450.197659 
L 947.52 -449.740605 
L 947.52 -449.283551 
L 947.52 -448.826496 
L 947.52 -448.369442 
L 947.52 -447.912388 
L 947.52 -447.455334 
L 947.52 -446.998279 
L 947.52 -446.541225 
L 947.52 -446.084171 
L 947.52 -445.627117 
L 947.52 -445.170062 
L 947.52 -444.713008 
L 947.52 -444.255954 
L 947.52 -443.7989 
L 947.52 -443.341845 
L 947.52 -442.884791 
L 947.52 -442.427737 
L 947.52 -441.970683 
L 947.52 -441.513628 
L 947.52 -441.056574 
L 947.52 -440.59952 
L 947.52 -440.142466 
L 947.52 -439.685411 
L 947.52 -439.228357 
L 947.52 -438.771303 
L 947.52 -438.314249 
L 947.52 -437.857194 
L 947.52 -437.40014 
L 947.52 -436.943086 
L 947.52 -436.486032 
L 947.52 -436.028977 
L 947.52 -435.571923 
z
" id="m01732510bc" style="stroke:#3f3f3f;stroke-width:1.5;"/>
    </defs>
    <g clip-path="url(#p8f2067409c)">
     <use style="fill:#3274a1;stroke:#3f3f3f;stroke-width:1.5;" x="0" xlink:href="#m01732510bc" y="648"/>
    </g>
   </g>
   <g id="PolyCollection_10">
    <defs>
     <path d="M 947.551451 -103.238182 
L 947.52 -103.238182 
L 947.52 -107.730744 
L 947.52 -112.223306 
L 947.52 -116.715868 
L 947.52 -121.20843 
L 947.52 -125.700992 
L 947.52 -130.193554 
L 947.52 -134.686116 
L 947.52 -139.178678 
L 947.52 -143.67124 
L 947.52 -148.163802 
L 947.52 -152.656364 
L 947.52 -157.148926 
L 947.52 -161.641488 
L 947.52 -166.13405 
L 947.52 -170.626612 
L 947.52 -175.119174 
L 947.52 -179.611736 
L 947.52 -184.104298 
L 947.52 -188.59686 
L 947.52 -193.089421 
L 947.52 -197.581983 
L 947.52 -202.074545 
L 947.52 -206.567107 
L 947.52 -211.059669 
L 947.52 -215.552231 
L 947.52 -220.044793 
L 947.52 -224.537355 
L 947.52 -229.029917 
L 947.52 -233.522479 
L 947.52 -238.015041 
L 947.52 -242.507603 
L 947.52 -247.000165 
L 947.52 -251.492727 
L 947.52 -255.985289 
L 947.52 -260.477851 
L 947.52 -264.970413 
L 947.52 -269.462975 
L 947.52 -273.955537 
L 947.52 -278.448099 
L 947.52 -282.940661 
L 947.52 -287.433223 
L 947.52 -291.925785 
L 947.52 -296.418347 
L 947.52 -300.910909 
L 947.52 -305.403471 
L 947.52 -309.896033 
L 947.52 -314.388595 
L 947.52 -318.881157 
L 947.52 -323.373719 
L 947.52 -327.866281 
L 947.52 -332.358843 
L 947.52 -336.851405 
L 947.52 -341.343967 
L 947.52 -345.836529 
L 947.52 -350.329091 
L 947.52 -354.821653 
L 947.52 -359.314215 
L 947.52 -363.806777 
L 947.52 -368.299339 
L 947.52 -372.791901 
L 947.52 -377.284463 
L 947.52 -381.777025 
L 947.52 -386.269587 
L 947.52 -390.762149 
L 947.52 -395.254711 
L 947.52 -399.747273 
L 947.52 -404.239835 
L 947.52 -408.732397 
L 947.52 -413.224959 
L 947.52 -417.717521 
L 947.52 -422.210083 
L 947.52 -426.702645 
L 947.52 -431.195207 
L 947.52 -435.687769 
L 947.52 -440.180331 
L 947.52 -444.672893 
L 947.52 -449.165455 
L 947.52 -453.658017 
L 947.52 -458.150579 
L 947.52 -462.64314 
L 947.52 -467.135702 
L 947.52 -471.628264 
L 947.52 -476.120826 
L 947.52 -480.613388 
L 947.52 -485.10595 
L 947.52 -489.598512 
L 947.52 -494.091074 
L 947.52 -498.583636 
L 947.52 -503.076198 
L 947.52 -507.56876 
L 947.52 -512.061322 
L 947.52 -516.553884 
L 947.52 -521.046446 
L 947.52 -525.539008 
L 947.52 -530.03157 
L 947.52 -534.524132 
L 947.52 -539.016694 
L 947.52 -543.509256 
L 947.52 -548.001818 
L 948.601365 -548.001818 
L 948.601365 -548.001818 
L 948.882387 -543.509256 
L 949.215225 -539.016694 
L 949.603354 -534.524132 
L 950.048825 -530.03157 
L 950.551835 -525.539008 
L 951.110336 -521.046446 
L 951.71971 -516.553884 
L 952.37256 -512.061322 
L 953.058636 -507.56876 
L 953.764947 -503.076198 
L 954.476054 -498.583636 
L 955.174561 -494.091074 
L 955.841786 -489.598512 
L 956.458579 -485.10595 
L 957.006235 -480.613388 
L 957.467454 -476.120826 
L 957.827264 -471.628264 
L 958.073854 -467.135702 
L 958.199231 -462.64314 
L 958.199676 -458.150579 
L 958.075941 -453.658017 
L 957.833177 -449.165455 
L 957.480606 -444.672893 
L 957.030968 -440.180331 
L 956.499769 -435.687769 
L 955.904422 -431.195207 
L 955.263315 -426.702645 
L 954.594906 -422.210083 
L 953.916876 -417.717521 
L 953.245421 -413.224959 
L 952.594696 -408.732397 
L 951.976453 -404.239835 
L 951.399863 -399.747273 
L 950.871512 -395.254711 
L 950.395563 -390.762149 
L 949.974028 -386.269587 
L 949.607136 -381.777025 
L 949.293743 -377.284463 
L 949.031752 -372.791901 
L 948.818516 -368.299339 
L 948.651181 -363.806777 
L 948.526978 -359.314215 
L 948.443416 -354.821653 
L 948.398404 -350.329091 
L 948.390276 -345.836529 
L 948.417744 -341.343967 
L 948.479783 -336.851405 
L 948.575452 -332.358843 
L 948.703687 -327.866281 
L 948.863076 -323.373719 
L 949.051637 -318.881157 
L 949.266613 -314.388595 
L 949.504331 -309.896033 
L 949.760105 -305.403471 
L 950.02823 -300.910909 
L 950.302064 -296.418347 
L 950.574185 -291.925785 
L 950.836652 -287.433223 
L 951.081321 -282.940661 
L 951.300218 -278.448099 
L 951.485936 -273.955537 
L 951.632026 -269.462975 
L 951.733349 -264.970413 
L 951.786362 -260.477851 
L 951.789318 -255.985289 
L 951.742351 -251.492727 
L 951.647452 -247.000165 
L 951.508326 -242.507603 
L 951.330156 -238.015041 
L 951.119279 -233.522479 
L 950.882808 -229.029917 
L 950.62824 -224.537355 
L 950.363053 -220.044793 
L 950.09436 -215.552231 
L 949.828595 -211.059669 
L 949.571296 -206.567107 
L 949.326952 -202.074545 
L 949.098941 -197.581983 
L 948.88954 -193.089421 
L 948.700002 -188.59686 
L 948.530677 -184.104298 
L 948.38117 -179.611736 
L 948.25051 -175.119174 
L 948.137321 -170.626612 
L 948.039979 -166.13405 
L 947.956751 -161.641488 
L 947.885899 -157.148926 
L 947.825771 -152.656364 
L 947.774845 -148.163802 
L 947.731769 -143.67124 
L 947.695365 -139.178678 
L 947.664627 -134.686116 
L 947.638706 -130.193554 
L 947.61689 -125.700992 
L 947.598584 -121.20843 
L 947.583286 -116.715868 
L 947.570567 -112.223306 
L 947.560063 -107.730744 
L 947.551451 -103.238182 
z
" id="m5e39342418" style="stroke:#3f3f3f;stroke-width:1.5;"/>
    </defs>
    <g clip-path="url(#p8f2067409c)">
     <use style="fill:#e1812c;stroke:#3f3f3f;stroke-width:1.5;" x="0" xlink:href="#m5e39342418" y="648"/>
    </g>
   </g>
   <g id="patch_3">
    <path clip-path="url(#p8f2067409c)" d="M 233.28 389.527284 
L 233.28 389.527284 
L 233.28 389.527284 
L 233.28 389.527284 
z
" style="fill:#3274a1;stroke:#3f3f3f;stroke-linejoin:miter;stroke-width:0.75;"/>
   </g>
   <g id="patch_4">
    <path clip-path="url(#p8f2067409c)" d="M 233.28 389.527284 
L 233.28 389.527284 
L 233.28 389.527284 
L 233.28 389.527284 
z
" style="fill:#e1812c;stroke:#3f3f3f;stroke-linejoin:miter;stroke-width:0.75;"/>
   </g>
   <g id="matplotlib.axis_1">
    <g id="xtick_1">
     <g id="line2d_1">
      <defs>
       <path d="M 0 0 
L 0 3.5 
" id="m6c098903a9" style="stroke:#000000;stroke-width:0.8;"/>
      </defs>
      <g>
       <use style="stroke:#000000;stroke-width:0.8;" x="233.28" xlink:href="#m6c098903a9" y="567"/>
      </g>
     </g>
     <g id="text_1">
      <!-- efg -->
      <g transform="translate(225.269062 581.598438)scale(0.1 -0.1)">
       <defs>
        <path d="M 3597 1894 
L 3597 1613 
L 953 1613 
Q 991 1019 1311 708 
Q 1631 397 2203 397 
Q 2534 397 2845 478 
Q 3156 559 3463 722 
L 3463 178 
Q 3153 47 2828 -22 
Q 2503 -91 2169 -91 
Q 1331 -91 842 396 
Q 353 884 353 1716 
Q 353 2575 817 3079 
Q 1281 3584 2069 3584 
Q 2775 3584 3186 3129 
Q 3597 2675 3597 1894 
z
M 3022 2063 
Q 3016 2534 2758 2815 
Q 2500 3097 2075 3097 
Q 1594 3097 1305 2825 
Q 1016 2553 972 2059 
L 3022 2063 
z
" id="DejaVuSans-65" transform="scale(0.015625)"/>
        <path d="M 2375 4863 
L 2375 4384 
L 1825 4384 
Q 1516 4384 1395 4259 
Q 1275 4134 1275 3809 
L 1275 3500 
L 2222 3500 
L 2222 3053 
L 1275 3053 
L 1275 0 
L 697 0 
L 697 3053 
L 147 3053 
L 147 3500 
L 697 3500 
L 697 3744 
Q 697 4328 969 4595 
Q 1241 4863 1831 4863 
L 2375 4863 
z
" id="DejaVuSans-66" transform="scale(0.015625)"/>
        <path d="M 2906 1791 
Q 2906 2416 2648 2759 
Q 2391 3103 1925 3103 
Q 1463 3103 1205 2759 
Q 947 2416 947 1791 
Q 947 1169 1205 825 
Q 1463 481 1925 481 
Q 2391 481 2648 825 
Q 2906 1169 2906 1791 
z
M 3481 434 
Q 3481 -459 3084 -895 
Q 2688 -1331 1869 -1331 
Q 1566 -1331 1297 -1286 
Q 1028 -1241 775 -1147 
L 775 -588 
Q 1028 -725 1275 -790 
Q 1522 -856 1778 -856 
Q 2344 -856 2625 -561 
Q 2906 -266 2906 331 
L 2906 616 
Q 2728 306 2450 153 
Q 2172 0 1784 0 
Q 1141 0 747 490 
Q 353 981 353 1791 
Q 353 2603 747 3093 
Q 1141 3584 1784 3584 
Q 2172 3584 2450 3431 
Q 2728 3278 2906 2969 
L 2906 3500 
L 3481 3500 
L 3481 434 
z
" id="DejaVuSans-67" transform="scale(0.015625)"/>
       </defs>
       <use xlink:href="#DejaVuSans-65"/>
       <use x="61.523438" xlink:href="#DejaVuSans-66"/>
       <use x="96.728516" xlink:href="#DejaVuSans-67"/>
      </g>
     </g>
    </g>
    <g id="xtick_2">
     <g id="line2d_2">
      <g>
       <use style="stroke:#000000;stroke-width:0.8;" x="411.84" xlink:href="#m6c098903a9" y="567"/>
      </g>
     </g>
     <g id="text_2">
      <!-- full -->
      <g transform="translate(404.132969 581.598438)scale(0.1 -0.1)">
       <defs>
        <path d="M 544 1381 
L 544 3500 
L 1119 3500 
L 1119 1403 
Q 1119 906 1312 657 
Q 1506 409 1894 409 
Q 2359 409 2629 706 
Q 2900 1003 2900 1516 
L 2900 3500 
L 3475 3500 
L 3475 0 
L 2900 0 
L 2900 538 
Q 2691 219 2414 64 
Q 2138 -91 1772 -91 
Q 1169 -91 856 284 
Q 544 659 544 1381 
z
M 1991 3584 
L 1991 3584 
z
" id="DejaVuSans-75" transform="scale(0.015625)"/>
        <path d="M 603 4863 
L 1178 4863 
L 1178 0 
L 603 0 
L 603 4863 
z
" id="DejaVuSans-6c" transform="scale(0.015625)"/>
       </defs>
       <use xlink:href="#DejaVuSans-66"/>
       <use x="35.205078" xlink:href="#DejaVuSans-75"/>
       <use x="98.583984" xlink:href="#DejaVuSans-6c"/>
       <use x="126.367188" xlink:href="#DejaVuSans-6c"/>
      </g>
     </g>
    </g>
    <g id="xtick_3">
     <g id="line2d_3">
      <g>
       <use style="stroke:#000000;stroke-width:0.8;" x="590.4" xlink:href="#m6c098903a9" y="567"/>
      </g>
     </g>
     <g id="text_3">
      <!-- ged -->
      <g transform="translate(580.975 581.598438)scale(0.1 -0.1)">
       <defs>
        <path d="M 2906 2969 
L 2906 4863 
L 3481 4863 
L 3481 0 
L 2906 0 
L 2906 525 
Q 2725 213 2448 61 
Q 2172 -91 1784 -91 
Q 1150 -91 751 415 
Q 353 922 353 1747 
Q 353 2572 751 3078 
Q 1150 3584 1784 3584 
Q 2172 3584 2448 3432 
Q 2725 3281 2906 2969 
z
M 947 1747 
Q 947 1113 1208 752 
Q 1469 391 1925 391 
Q 2381 391 2643 752 
Q 2906 1113 2906 1747 
Q 2906 2381 2643 2742 
Q 2381 3103 1925 3103 
Q 1469 3103 1208 2742 
Q 947 2381 947 1747 
z
" id="DejaVuSans-64" transform="scale(0.015625)"/>
       </defs>
       <use xlink:href="#DejaVuSans-67"/>
       <use x="63.476562" xlink:href="#DejaVuSans-65"/>
       <use x="125" xlink:href="#DejaVuSans-64"/>
      </g>
     </g>
    </g>
    <g id="xtick_4">
     <g id="line2d_4">
      <g>
       <use style="stroke:#000000;stroke-width:0.8;" x="768.96" xlink:href="#m6c098903a9" y="567"/>
      </g>
     </g>
     <g id="text_4">
      <!-- node -->
      <g transform="translate(756.481094 581.598438)scale(0.1 -0.1)">
       <defs>
        <path d="M 3513 2113 
L 3513 0 
L 2938 0 
L 2938 2094 
Q 2938 2591 2744 2837 
Q 2550 3084 2163 3084 
Q 1697 3084 1428 2787 
Q 1159 2491 1159 1978 
L 1159 0 
L 581 0 
L 581 3500 
L 1159 3500 
L 1159 2956 
Q 1366 3272 1645 3428 
Q 1925 3584 2291 3584 
Q 2894 3584 3203 3211 
Q 3513 2838 3513 2113 
z
" id="DejaVuSans-6e" transform="scale(0.015625)"/>
        <path d="M 1959 3097 
Q 1497 3097 1228 2736 
Q 959 2375 959 1747 
Q 959 1119 1226 758 
Q 1494 397 1959 397 
Q 2419 397 2687 759 
Q 2956 1122 2956 1747 
Q 2956 2369 2687 2733 
Q 2419 3097 1959 3097 
z
M 1959 3584 
Q 2709 3584 3137 3096 
Q 3566 2609 3566 1747 
Q 3566 888 3137 398 
Q 2709 -91 1959 -91 
Q 1206 -91 779 398 
Q 353 888 353 1747 
Q 353 2609 779 3096 
Q 1206 3584 1959 3584 
z
" id="DejaVuSans-6f" transform="scale(0.015625)"/>
       </defs>
       <use xlink:href="#DejaVuSans-6e"/>
       <use x="63.378906" xlink:href="#DejaVuSans-6f"/>
       <use x="124.560547" xlink:href="#DejaVuSans-64"/>
       <use x="188.037109" xlink:href="#DejaVuSans-65"/>
      </g>
     </g>
    </g>
    <g id="xtick_5">
     <g id="line2d_5">
      <g>
       <use style="stroke:#000000;stroke-width:0.8;" x="947.52" xlink:href="#m6c098903a9" y="567"/>
      </g>
     </g>
     <g id="text_5">
      <!-- transition -->
      <g transform="translate(923.700469 581.598438)scale(0.1 -0.1)">
       <defs>
        <path d="M 1172 4494 
L 1172 3500 
L 2356 3500 
L 2356 3053 
L 1172 3053 
L 1172 1153 
Q 1172 725 1289 603 
Q 1406 481 1766 481 
L 2356 481 
L 2356 0 
L 1766 0 
Q 1100 0 847 248 
Q 594 497 594 1153 
L 594 3053 
L 172 3053 
L 172 3500 
L 594 3500 
L 594 4494 
L 1172 4494 
z
" id="DejaVuSans-74" transform="scale(0.015625)"/>
        <path d="M 2631 2963 
Q 2534 3019 2420 3045 
Q 2306 3072 2169 3072 
Q 1681 3072 1420 2755 
Q 1159 2438 1159 1844 
L 1159 0 
L 581 0 
L 581 3500 
L 1159 3500 
L 1159 2956 
Q 1341 3275 1631 3429 
Q 1922 3584 2338 3584 
Q 2397 3584 2469 3576 
Q 2541 3569 2628 3553 
L 2631 2963 
z
" id="DejaVuSans-72" transform="scale(0.015625)"/>
        <path d="M 2194 1759 
Q 1497 1759 1228 1600 
Q 959 1441 959 1056 
Q 959 750 1161 570 
Q 1363 391 1709 391 
Q 2188 391 2477 730 
Q 2766 1069 2766 1631 
L 2766 1759 
L 2194 1759 
z
M 3341 1997 
L 3341 0 
L 2766 0 
L 2766 531 
Q 2569 213 2275 61 
Q 1981 -91 1556 -91 
Q 1019 -91 701 211 
Q 384 513 384 1019 
Q 384 1609 779 1909 
Q 1175 2209 1959 2209 
L 2766 2209 
L 2766 2266 
Q 2766 2663 2505 2880 
Q 2244 3097 1772 3097 
Q 1472 3097 1187 3025 
Q 903 2953 641 2809 
L 641 3341 
Q 956 3463 1253 3523 
Q 1550 3584 1831 3584 
Q 2591 3584 2966 3190 
Q 3341 2797 3341 1997 
z
" id="DejaVuSans-61" transform="scale(0.015625)"/>
        <path d="M 2834 3397 
L 2834 2853 
Q 2591 2978 2328 3040 
Q 2066 3103 1784 3103 
Q 1356 3103 1142 2972 
Q 928 2841 928 2578 
Q 928 2378 1081 2264 
Q 1234 2150 1697 2047 
L 1894 2003 
Q 2506 1872 2764 1633 
Q 3022 1394 3022 966 
Q 3022 478 2636 193 
Q 2250 -91 1575 -91 
Q 1294 -91 989 -36 
Q 684 19 347 128 
L 347 722 
Q 666 556 975 473 
Q 1284 391 1588 391 
Q 1994 391 2212 530 
Q 2431 669 2431 922 
Q 2431 1156 2273 1281 
Q 2116 1406 1581 1522 
L 1381 1569 
Q 847 1681 609 1914 
Q 372 2147 372 2553 
Q 372 3047 722 3315 
Q 1072 3584 1716 3584 
Q 2034 3584 2315 3537 
Q 2597 3491 2834 3397 
z
" id="DejaVuSans-73" transform="scale(0.015625)"/>
        <path d="M 603 3500 
L 1178 3500 
L 1178 0 
L 603 0 
L 603 3500 
z
M 603 4863 
L 1178 4863 
L 1178 4134 
L 603 4134 
L 603 4863 
z
" id="DejaVuSans-69" transform="scale(0.015625)"/>
       </defs>
       <use xlink:href="#DejaVuSans-74"/>
       <use x="39.208984" xlink:href="#DejaVuSans-72"/>
       <use x="80.322266" xlink:href="#DejaVuSans-61"/>
       <use x="141.601562" xlink:href="#DejaVuSans-6e"/>
       <use x="204.980469" xlink:href="#DejaVuSans-73"/>
       <use x="257.080078" xlink:href="#DejaVuSans-69"/>
       <use x="284.863281" xlink:href="#DejaVuSans-74"/>
       <use x="324.072266" xlink:href="#DejaVuSans-69"/>
       <use x="351.855469" xlink:href="#DejaVuSans-6f"/>
       <use x="413.037109" xlink:href="#DejaVuSans-6e"/>
      </g>
     </g>
    </g>
    <g id="text_6">
     <!-- ss_measure -->
     <g transform="translate(560.886719 594.998438)scale(0.1 -0.1)">
      <defs>
       <path d="M 3263 -1063 
L 3263 -1509 
L -63 -1509 
L -63 -1063 
L 3263 -1063 
z
" id="DejaVuSans-5f" transform="scale(0.015625)"/>
       <path d="M 3328 2828 
Q 3544 3216 3844 3400 
Q 4144 3584 4550 3584 
Q 5097 3584 5394 3201 
Q 5691 2819 5691 2113 
L 5691 0 
L 5113 0 
L 5113 2094 
Q 5113 2597 4934 2840 
Q 4756 3084 4391 3084 
Q 3944 3084 3684 2787 
Q 3425 2491 3425 1978 
L 3425 0 
L 2847 0 
L 2847 2094 
Q 2847 2600 2669 2842 
Q 2491 3084 2119 3084 
Q 1678 3084 1418 2786 
Q 1159 2488 1159 1978 
L 1159 0 
L 581 0 
L 581 3500 
L 1159 3500 
L 1159 2956 
Q 1356 3278 1631 3431 
Q 1906 3584 2284 3584 
Q 2666 3584 2933 3390 
Q 3200 3197 3328 2828 
z
" id="DejaVuSans-6d" transform="scale(0.015625)"/>
      </defs>
      <use xlink:href="#DejaVuSans-73"/>
      <use x="52.099609" xlink:href="#DejaVuSans-73"/>
      <use x="104.199219" xlink:href="#DejaVuSans-5f"/>
      <use x="154.199219" xlink:href="#DejaVuSans-6d"/>
      <use x="251.611328" xlink:href="#DejaVuSans-65"/>
      <use x="313.134766" xlink:href="#DejaVuSans-61"/>
      <use x="374.414062" xlink:href="#DejaVuSans-73"/>
      <use x="426.513672" xlink:href="#DejaVuSans-75"/>
      <use x="489.892578" xlink:href="#DejaVuSans-72"/>
      <use x="528.755859" xlink:href="#DejaVuSans-65"/>
     </g>
    </g>
   </g>
   <g id="matplotlib.axis_2">
    <g id="ytick_1">
     <g id="line2d_6">
      <defs>
       <path d="M 0 0 
L -3.5 0 
" id="mb12e19dce8" style="stroke:#000000;stroke-width:0.8;"/>
      </defs>
      <g>
       <use style="stroke:#000000;stroke-width:0.8;" x="144" xlink:href="#mb12e19dce8" y="566.612056"/>
      </g>
     </g>
     <g id="text_7">
      <!-- 0.75 -->
      <g transform="translate(106.354687 570.411274)scale(0.1 -0.1)">
       <defs>
        <path d="M 678 2272 
L 4684 2272 
L 4684 1741 
L 678 1741 
L 678 2272 
z
" id="DejaVuSans-2212" transform="scale(0.015625)"/>
        <path d="M 2034 4250 
Q 1547 4250 1301 3770 
Q 1056 3291 1056 2328 
Q 1056 1369 1301 889 
Q 1547 409 2034 409 
Q 2525 409 2770 889 
Q 3016 1369 3016 2328 
Q 3016 3291 2770 3770 
Q 2525 4250 2034 4250 
z
M 2034 4750 
Q 2819 4750 3233 4129 
Q 3647 3509 3647 2328 
Q 3647 1150 3233 529 
Q 2819 -91 2034 -91 
Q 1250 -91 836 529 
Q 422 1150 422 2328 
Q 422 3509 836 4129 
Q 1250 4750 2034 4750 
z
" id="DejaVuSans-30" transform="scale(0.015625)"/>
        <path d="M 684 794 
L 1344 794 
L 1344 0 
L 684 0 
L 684 794 
z
" id="DejaVuSans-2e" transform="scale(0.015625)"/>
        <path d="M 525 4666 
L 3525 4666 
L 3525 4397 
L 1831 0 
L 1172 0 
L 2766 4134 
L 525 4134 
L 525 4666 
z
" id="DejaVuSans-37" transform="scale(0.015625)"/>
        <path d="M 691 4666 
L 3169 4666 
L 3169 4134 
L 1269 4134 
L 1269 2991 
Q 1406 3038 1543 3061 
Q 1681 3084 1819 3084 
Q 2600 3084 3056 2656 
Q 3513 2228 3513 1497 
Q 3513 744 3044 326 
Q 2575 -91 1722 -91 
Q 1428 -91 1123 -41 
Q 819 9 494 109 
L 494 744 
Q 775 591 1075 516 
Q 1375 441 1709 441 
Q 2250 441 2565 725 
Q 2881 1009 2881 1497 
Q 2881 1984 2565 2268 
Q 2250 2553 1709 2553 
Q 1456 2553 1204 2497 
Q 953 2441 691 2322 
L 691 4666 
z
" id="DejaVuSans-35" transform="scale(0.015625)"/>
       </defs>
       <use xlink:href="#DejaVuSans-2212"/>
       <use x="83.789062" xlink:href="#DejaVuSans-30"/>
       <use x="147.412109" xlink:href="#DejaVuSans-2e"/>
       <use x="179.199219" xlink:href="#DejaVuSans-37"/>
       <use x="242.822266" xlink:href="#DejaVuSans-35"/>
      </g>
     </g>
    </g>
    <g id="ytick_2">
     <g id="line2d_7">
      <g>
       <use style="stroke:#000000;stroke-width:0.8;" x="144" xlink:href="#mb12e19dce8" y="507.583799"/>
      </g>
     </g>
     <g id="text_8">
      <!-- 0.50 -->
      <g transform="translate(106.354687 511.383017)scale(0.1 -0.1)">
       <use xlink:href="#DejaVuSans-2212"/>
       <use x="83.789062" xlink:href="#DejaVuSans-30"/>
       <use x="147.412109" xlink:href="#DejaVuSans-2e"/>
       <use x="179.199219" xlink:href="#DejaVuSans-35"/>
       <use x="242.822266" xlink:href="#DejaVuSans-30"/>
      </g>
     </g>
    </g>
    <g id="ytick_3">
     <g id="line2d_8">
      <g>
       <use style="stroke:#000000;stroke-width:0.8;" x="144" xlink:href="#mb12e19dce8" y="448.555541"/>
      </g>
     </g>
     <g id="text_9">
      <!-- 0.25 -->
      <g transform="translate(106.354687 452.35476)scale(0.1 -0.1)">
       <defs>
        <path d="M 1228 531 
L 3431 531 
L 3431 0 
L 469 0 
L 469 531 
Q 828 903 1448 1529 
Q 2069 2156 2228 2338 
Q 2531 2678 2651 2914 
Q 2772 3150 2772 3378 
Q 2772 3750 2511 3984 
Q 2250 4219 1831 4219 
Q 1534 4219 1204 4116 
Q 875 4013 500 3803 
L 500 4441 
Q 881 4594 1212 4672 
Q 1544 4750 1819 4750 
Q 2544 4750 2975 4387 
Q 3406 4025 3406 3419 
Q 3406 3131 3298 2873 
Q 3191 2616 2906 2266 
Q 2828 2175 2409 1742 
Q 1991 1309 1228 531 
z
" id="DejaVuSans-32" transform="scale(0.015625)"/>
       </defs>
       <use xlink:href="#DejaVuSans-2212"/>
       <use x="83.789062" xlink:href="#DejaVuSans-30"/>
       <use x="147.412109" xlink:href="#DejaVuSans-2e"/>
       <use x="179.199219" xlink:href="#DejaVuSans-32"/>
       <use x="242.822266" xlink:href="#DejaVuSans-35"/>
      </g>
     </g>
    </g>
    <g id="ytick_4">
     <g id="line2d_9">
      <g>
       <use style="stroke:#000000;stroke-width:0.8;" x="144" xlink:href="#mb12e19dce8" y="389.527284"/>
      </g>
     </g>
     <g id="text_10">
      <!-- 0.00 -->
      <g transform="translate(114.734375 393.326503)scale(0.1 -0.1)">
       <use xlink:href="#DejaVuSans-30"/>
       <use x="63.623047" xlink:href="#DejaVuSans-2e"/>
       <use x="95.410156" xlink:href="#DejaVuSans-30"/>
       <use x="159.033203" xlink:href="#DejaVuSans-30"/>
      </g>
     </g>
    </g>
    <g id="ytick_5">
     <g id="line2d_10">
      <g>
       <use style="stroke:#000000;stroke-width:0.8;" x="144" xlink:href="#mb12e19dce8" y="330.499027"/>
      </g>
     </g>
     <g id="text_11">
      <!-- 0.25 -->
      <g transform="translate(114.734375 334.298246)scale(0.1 -0.1)">
       <use xlink:href="#DejaVuSans-30"/>
       <use x="63.623047" xlink:href="#DejaVuSans-2e"/>
       <use x="95.410156" xlink:href="#DejaVuSans-32"/>
       <use x="159.033203" xlink:href="#DejaVuSans-35"/>
      </g>
     </g>
    </g>
    <g id="ytick_6">
     <g id="line2d_11">
      <g>
       <use style="stroke:#000000;stroke-width:0.8;" x="144" xlink:href="#mb12e19dce8" y="271.47077"/>
      </g>
     </g>
     <g id="text_12">
      <!-- 0.50 -->
      <g transform="translate(114.734375 275.269989)scale(0.1 -0.1)">
       <use xlink:href="#DejaVuSans-30"/>
       <use x="63.623047" xlink:href="#DejaVuSans-2e"/>
       <use x="95.410156" xlink:href="#DejaVuSans-35"/>
       <use x="159.033203" xlink:href="#DejaVuSans-30"/>
      </g>
     </g>
    </g>
    <g id="ytick_7">
     <g id="line2d_12">
      <g>
       <use style="stroke:#000000;stroke-width:0.8;" x="144" xlink:href="#mb12e19dce8" y="212.442513"/>
      </g>
     </g>
     <g id="text_13">
      <!-- 0.75 -->
      <g transform="translate(114.734375 216.241732)scale(0.1 -0.1)">
       <use xlink:href="#DejaVuSans-30"/>
       <use x="63.623047" xlink:href="#DejaVuSans-2e"/>
       <use x="95.410156" xlink:href="#DejaVuSans-37"/>
       <use x="159.033203" xlink:href="#DejaVuSans-35"/>
      </g>
     </g>
    </g>
    <g id="ytick_8">
     <g id="line2d_13">
      <g>
       <use style="stroke:#000000;stroke-width:0.8;" x="144" xlink:href="#mb12e19dce8" y="153.414256"/>
      </g>
     </g>
     <g id="text_14">
      <!-- 1.00 -->
      <g transform="translate(114.734375 157.213475)scale(0.1 -0.1)">
       <defs>
        <path d="M 794 531 
L 1825 531 
L 1825 4091 
L 703 3866 
L 703 4441 
L 1819 4666 
L 2450 4666 
L 2450 531 
L 3481 531 
L 3481 0 
L 794 0 
L 794 531 
z
" id="DejaVuSans-31" transform="scale(0.015625)"/>
       </defs>
       <use xlink:href="#DejaVuSans-31"/>
       <use x="63.623047" xlink:href="#DejaVuSans-2e"/>
       <use x="95.410156" xlink:href="#DejaVuSans-30"/>
       <use x="159.033203" xlink:href="#DejaVuSans-30"/>
      </g>
     </g>
    </g>
    <g id="ytick_9">
     <g id="line2d_14">
      <g>
       <use style="stroke:#000000;stroke-width:0.8;" x="144" xlink:href="#mb12e19dce8" y="94.385999"/>
      </g>
     </g>
     <g id="text_15">
      <!-- 1.25 -->
      <g transform="translate(114.734375 98.185217)scale(0.1 -0.1)">
       <use xlink:href="#DejaVuSans-31"/>
       <use x="63.623047" xlink:href="#DejaVuSans-2e"/>
       <use x="95.410156" xlink:href="#DejaVuSans-32"/>
       <use x="159.033203" xlink:href="#DejaVuSans-35"/>
      </g>
     </g>
    </g>
    <g id="text_16">
     <!-- silhouette score -->
     <g transform="translate(100.275 362.255)rotate(-90)scale(0.1 -0.1)">
      <defs>
       <path d="M 3513 2113 
L 3513 0 
L 2938 0 
L 2938 2094 
Q 2938 2591 2744 2837 
Q 2550 3084 2163 3084 
Q 1697 3084 1428 2787 
Q 1159 2491 1159 1978 
L 1159 0 
L 581 0 
L 581 4863 
L 1159 4863 
L 1159 2956 
Q 1366 3272 1645 3428 
Q 1925 3584 2291 3584 
Q 2894 3584 3203 3211 
Q 3513 2838 3513 2113 
z
" id="DejaVuSans-68" transform="scale(0.015625)"/>
       <path id="DejaVuSans-20" transform="scale(0.015625)"/>
       <path d="M 3122 3366 
L 3122 2828 
Q 2878 2963 2633 3030 
Q 2388 3097 2138 3097 
Q 1578 3097 1268 2742 
Q 959 2388 959 1747 
Q 959 1106 1268 751 
Q 1578 397 2138 397 
Q 2388 397 2633 464 
Q 2878 531 3122 666 
L 3122 134 
Q 2881 22 2623 -34 
Q 2366 -91 2075 -91 
Q 1284 -91 818 406 
Q 353 903 353 1747 
Q 353 2603 823 3093 
Q 1294 3584 2113 3584 
Q 2378 3584 2631 3529 
Q 2884 3475 3122 3366 
z
" id="DejaVuSans-63" transform="scale(0.015625)"/>
      </defs>
      <use xlink:href="#DejaVuSans-73"/>
      <use x="52.099609" xlink:href="#DejaVuSans-69"/>
      <use x="79.882812" xlink:href="#DejaVuSans-6c"/>
      <use x="107.666016" xlink:href="#DejaVuSans-68"/>
      <use x="171.044922" xlink:href="#DejaVuSans-6f"/>
      <use x="232.226562" xlink:href="#DejaVuSans-75"/>
      <use x="295.605469" xlink:href="#DejaVuSans-65"/>
      <use x="357.128906" xlink:href="#DejaVuSans-74"/>
      <use x="396.337891" xlink:href="#DejaVuSans-74"/>
      <use x="435.546875" xlink:href="#DejaVuSans-65"/>
      <use x="497.070312" xlink:href="#DejaVuSans-20"/>
      <use x="528.857422" xlink:href="#DejaVuSans-73"/>
      <use x="580.957031" xlink:href="#DejaVuSans-63"/>
      <use x="635.9375" xlink:href="#DejaVuSans-6f"/>
      <use x="697.119141" xlink:href="#DejaVuSans-72"/>
      <use x="735.982422" xlink:href="#DejaVuSans-65"/>
     </g>
    </g>
   </g>
   <g id="line2d_15">
    <path clip-path="url(#p8f2067409c)" d="M 233.28 384.998661 
L 233.28 219.395142 
" style="fill:none;stroke:#3f3f3f;stroke-linecap:square;stroke-width:1.5;"/>
   </g>
   <g id="line2d_16">
    <path clip-path="url(#p8f2067409c)" d="M 233.28 287.600815 
L 233.28 219.395142 
" style="fill:none;stroke:#3f3f3f;stroke-linecap:square;stroke-width:4.5;"/>
   </g>
   <g id="line2d_17">
    <path clip-path="url(#p8f2067409c)" d="M 411.84 423.744934 
L 411.84 268.593006 
" style="fill:none;stroke:#3f3f3f;stroke-linecap:square;stroke-width:1.5;"/>
   </g>
   <g id="line2d_18">
    <path clip-path="url(#p8f2067409c)" d="M 411.84 336.696434 
L 411.84 268.593006 
" style="fill:none;stroke:#3f3f3f;stroke-linecap:square;stroke-width:4.5;"/>
   </g>
   <g id="line2d_19">
    <path clip-path="url(#p8f2067409c)" d="M 590.4 410.45419 
L 590.4 262.129714 
" style="fill:none;stroke:#3f3f3f;stroke-linecap:square;stroke-width:1.5;"/>
   </g>
   <g id="line2d_20">
    <path clip-path="url(#p8f2067409c)" d="M 590.4 340.78298 
L 590.4 262.129714 
" style="fill:none;stroke:#3f3f3f;stroke-linecap:square;stroke-width:4.5;"/>
   </g>
   <g id="line2d_21">
    <path clip-path="url(#p8f2067409c)" d="M 768.96 410.542229 
L 768.96 210.832018 
" style="fill:none;stroke:#3f3f3f;stroke-linecap:square;stroke-width:1.5;"/>
   </g>
   <g id="line2d_22">
    <path clip-path="url(#p8f2067409c)" d="M 768.96 292.450437 
L 768.96 210.832018 
" style="fill:none;stroke:#3f3f3f;stroke-linecap:square;stroke-width:4.5;"/>
   </g>
   <g id="line2d_23">
    <path clip-path="url(#p8f2067409c)" d="M 947.52 277.194722 
L 947.52 178.970921 
" style="fill:none;stroke:#3f3f3f;stroke-linecap:square;stroke-width:1.5;"/>
   </g>
   <g id="line2d_24">
    <path clip-path="url(#p8f2067409c)" d="M 947.52 230.347751 
L 947.52 178.970921 
" style="fill:none;stroke:#3f3f3f;stroke-linecap:square;stroke-width:4.5;"/>
   </g>
   <g id="patch_5">
    <path d="M 144 567 
L 144 77.76 
" style="fill:none;stroke:#000000;stroke-linecap:square;stroke-linejoin:miter;stroke-width:0.8;"/>
   </g>
   <g id="patch_6">
    <path d="M 1036.8 567 
L 1036.8 77.76 
" style="fill:none;stroke:#000000;stroke-linecap:square;stroke-linejoin:miter;stroke-width:0.8;"/>
   </g>
   <g id="patch_7">
    <path d="M 144 567 
L 1036.8 567 
" style="fill:none;stroke:#000000;stroke-linecap:square;stroke-linejoin:miter;stroke-width:0.8;"/>
   </g>
   <g id="patch_8">
    <path d="M 144 77.76 
L 1036.8 77.76 
" style="fill:none;stroke:#000000;stroke-linecap:square;stroke-linejoin:miter;stroke-width:0.8;"/>
   </g>
   <g id="PathCollection_1">
    <defs>
     <path d="M 0 1.5 
C 0.397805 1.5 0.77937 1.341951 1.06066 1.06066 
C 1.341951 0.77937 1.5 0.397805 1.5 0 
C 1.5 -0.397805 1.341951 -0.77937 1.06066 -1.06066 
C 0.77937 -1.341951 0.397805 -1.5 0 -1.5 
C -0.397805 -1.5 -0.77937 -1.341951 -1.06066 -1.06066 
C -1.341951 -0.77937 -1.5 -0.397805 -1.5 0 
C -1.5 0.397805 -1.341951 0.77937 -1.06066 1.06066 
C -0.77937 1.341951 -0.397805 1.5 0 1.5 
z
" id="ma5541704f7" style="stroke:#3f3f3f;"/>
    </defs>
    <g clip-path="url(#p8f2067409c)">
     <use style="fill:#ffffff;stroke:#3f3f3f;" x="233.28" xlink:href="#ma5541704f7" y="241.683033"/>
    </g>
   </g>
   <g id="PathCollection_2">
    <g clip-path="url(#p8f2067409c)">
     <use style="fill:#ffffff;stroke:#3f3f3f;" x="411.84" xlink:href="#ma5541704f7" y="286.755899"/>
    </g>
   </g>
   <g id="PathCollection_3">
    <g clip-path="url(#p8f2067409c)">
     <use style="fill:#ffffff;stroke:#3f3f3f;" x="590.4" xlink:href="#ma5541704f7" y="315.599681"/>
    </g>
   </g>
   <g id="PathCollection_4">
    <g clip-path="url(#p8f2067409c)">
     <use style="fill:#ffffff;stroke:#3f3f3f;" x="768.96" xlink:href="#ma5541704f7" y="273.063241"/>
    </g>
   </g>
   <g id="PathCollection_5">
    <g clip-path="url(#p8f2067409c)">
     <use style="fill:#ffffff;stroke:#3f3f3f;" x="947.52" xlink:href="#ma5541704f7" y="200.636862"/>
    </g>
   </g>
   <g id="legend_1">
    <g id="patch_9">
     <path d="M 980.51875 129.794375 
L 1029.8 129.794375 
Q 1031.8 129.794375 1031.8 127.794375 
L 1031.8 84.76 
Q 1031.8 82.76 1029.8 82.76 
L 980.51875 82.76 
Q 978.51875 82.76 978.51875 84.76 
L 978.51875 127.794375 
Q 978.51875 129.794375 980.51875 129.794375 
z
" style="fill:#ffffff;opacity:0.8;stroke:#cccccc;stroke-linejoin:miter;"/>
    </g>
    <g id="text_17">
     <!-- self -->
     <g transform="translate(996.328906 94.358437)scale(0.1 -0.1)">
      <use xlink:href="#DejaVuSans-73"/>
      <use x="52.099609" xlink:href="#DejaVuSans-65"/>
      <use x="113.623047" xlink:href="#DejaVuSans-6c"/>
      <use x="141.40625" xlink:href="#DejaVuSans-66"/>
     </g>
    </g>
    <g id="patch_10">
     <path d="M 982.51875 109.036562 
L 1002.51875 109.036562 
L 1002.51875 102.036562 
L 982.51875 102.036562 
z
" style="fill:#3274a1;stroke:#3f3f3f;stroke-linejoin:miter;stroke-width:0.75;"/>
    </g>
    <g id="text_18">
     <!-- yes -->
     <g transform="translate(1010.51875 109.036562)scale(0.1 -0.1)">
      <defs>
       <path d="M 2059 -325 
Q 1816 -950 1584 -1140 
Q 1353 -1331 966 -1331 
L 506 -1331 
L 506 -850 
L 844 -850 
Q 1081 -850 1212 -737 
Q 1344 -625 1503 -206 
L 1606 56 
L 191 3500 
L 800 3500 
L 1894 763 
L 2988 3500 
L 3597 3500 
L 2059 -325 
z
" id="DejaVuSans-79" transform="scale(0.015625)"/>
      </defs>
      <use xlink:href="#DejaVuSans-79"/>
      <use x="59.179688" xlink:href="#DejaVuSans-65"/>
      <use x="120.703125" xlink:href="#DejaVuSans-73"/>
     </g>
    </g>
    <g id="patch_11">
     <path d="M 982.51875 123.714687 
L 1002.51875 123.714687 
L 1002.51875 116.714687 
L 982.51875 116.714687 
z
" style="fill:#e1812c;stroke:#3f3f3f;stroke-linejoin:miter;stroke-width:0.75;"/>
    </g>
    <g id="text_19">
     <!-- no -->
     <g transform="translate(1010.51875 123.714687)scale(0.1 -0.1)">
      <use xlink:href="#DejaVuSans-6e"/>
      <use x="63.378906" xlink:href="#DejaVuSans-6f"/>
     </g>
    </g>
   </g>
  </g>
 </g>
 <defs>
  <clipPath id="p8f2067409c">
   <rect height="489.24" width="892.8" x="144" y="77.76"/>
  </clipPath>
 </defs>
</svg>
