<?xml version="1.0" encoding="utf-8" standalone="no"?>
<!DOCTYPE svg PUBLIC "-//W3C//DTD SVG 1.1//EN"
  "http://www.w3.org/Graphics/SVG/1.1/DTD/svg11.dtd">
<svg height="648pt" version="1.1" viewBox="0 0 1152 648" width="1152pt" xmlns="http://www.w3.org/2000/svg" xmlns:xlink="http://www.w3.org/1999/xlink">
 <metadata>
  <rdf:RDF xmlns:cc="http://creativecommons.org/ns#" xmlns:dc="http://purl.org/dc/elements/1.1/" xmlns:rdf="http://www.w3.org/1999/02/22-rdf-syntax-ns#">
   <cc:Work>
    <dc:type rdf:resource="http://purl.org/dc/dcmitype/StillImage"/>
    <dc:date>2023-09-01T11:23:19.010711</dc:date>
    <dc:format>image/svg+xml</dc:format>
    <dc:creator>
     <cc:Agent>
      <dc:title>Matplotlib v3.4.1, https://matplotlib.org/</dc:title>
     </cc:Agent>
    </dc:creator>
   </cc:Work>
  </rdf:RDF>
 </metadata>
 <defs>
  <style type="text/css">*{stroke-linecap:butt;stroke-linejoin:round;}</style>
 </defs>
 <g id="figure_1">
  <g id="patch_1">
   <path d="M 0 648 
L 1152 648 
L 1152 0 
L 0 0 
z
" style="fill:none;"/>
  </g>
  <g id="axes_1">
   <g id="patch_2">
    <path d="M 144 567 
L 1036.8 567 
L 1036.8 77.76 
L 144 77.76 
z
" style="fill:#ffffff;"/>
   </g>
   <g id="PolyCollection_1">
    <defs>
     <path d="M 233.28 -339.1752 
L 232.2822 -339.1752 
L 231.894047 -340.374619 
L 231.390411 -341.574039 
L 230.750608 -342.773458 
L 229.954729 -343.972878 
L 228.98512 -345.172298 
L 227.827931 -346.371717 
L 226.474555 -347.571137 
L 224.922732 -348.770557 
L 223.177125 -349.969976 
L 221.249196 -351.169396 
L 219.156308 -352.368815 
L 216.92009 -353.568235 
L 214.564242 -354.767655 
L 212.112028 -355.967074 
L 209.583861 -357.166494 
L 206.995326 -358.365914 
L 204.35603 -359.565333 
L 201.669489 -360.764753 
L 198.934174 -361.964173 
L 196.145599 -363.163592 
L 193.299216 -364.363012 
L 190.393692 -365.562431 
L 187.434139 -366.761851 
L 184.434801 -367.961271 
L 181.420848 -369.16069 
L 178.429009 -370.36011 
L 175.506958 -371.55953 
L 172.711509 -372.758949 
L 170.105815 -373.958369 
L 167.755847 -375.157789 
L 165.726459 -376.357208 
L 164.077373 -377.556628 
L 162.859378 -378.756047 
L 162.111016 -379.955467 
L 161.856 -381.154887 
L 162.101552 -382.354306 
L 162.837802 -383.553726 
L 164.03831 -384.753146 
L 165.661687 -385.952565 
L 167.654146 -387.151985 
L 169.952741 -388.351405 
L 172.488947 -389.550824 
L 175.192216 -390.750244 
L 177.993174 -391.949663 
L 180.826244 -393.149083 
L 183.631599 -394.348503 
L 186.356519 -395.547922 
L 188.956328 -396.747342 
L 191.395133 -397.946762 
L 193.64655 -399.146181 
L 195.694489 -400.345601 
L 197.533913 -401.54502 
L 199.171354 -402.74444 
L 200.624865 -403.94386 
L 201.923108 -405.143279 
L 203.103365 -406.342699 
L 204.208473 -407.542119 
L 205.282883 -408.741538 
L 206.368284 -409.940958 
L 207.499351 -411.140378 
L 208.700233 -412.339797 
L 209.982297 -413.539217 
L 211.343451 -414.738636 
L 212.769127 -415.938056 
L 214.234732 -417.137476 
L 215.709134 -418.336895 
L 217.15865 -419.536315 
L 218.550935 -420.735735 
L 219.858251 -421.935154 
L 221.059774 -423.134574 
L 222.14274 -424.333994 
L 223.102494 -425.533413 
L 223.941612 -426.732833 
L 224.668415 -427.932252 
L 225.295201 -429.131672 
L 225.836501 -430.331092 
L 226.307592 -431.530511 
L 226.723379 -432.729931 
L 227.097676 -433.929351 
L 227.442821 -435.12877 
L 227.769514 -436.32819 
L 228.08677 -437.52761 
L 228.401886 -438.727029 
L 228.720373 -439.926449 
L 229.045852 -441.125868 
L 229.379959 -442.325288 
L 229.722305 -443.524708 
L 230.070564 -444.724127 
L 230.420717 -445.923547 
L 230.767462 -447.122967 
L 231.104756 -448.322386 
L 231.426417 -449.521806 
L 231.726727 -450.721225 
L 232.000945 -451.920645 
L 232.245675 -453.120065 
L 232.459056 -454.319484 
L 232.640766 -455.518904 
L 232.791881 -456.718324 
L 232.914596 -457.917743 
L 233.28 -457.917743 
L 233.28 -457.917743 
L 233.28 -456.718324 
L 233.28 -455.518904 
L 233.28 -454.319484 
L 233.28 -453.120065 
L 233.28 -451.920645 
L 233.28 -450.721225 
L 233.28 -449.521806 
L 233.28 -448.322386 
L 233.28 -447.122967 
L 233.28 -445.923547 
L 233.28 -444.724127 
L 233.28 -443.524708 
L 233.28 -442.325288 
L 233.28 -441.125868 
L 233.28 -439.926449 
L 233.28 -438.727029 
L 233.28 -437.52761 
L 233.28 -436.32819 
L 233.28 -435.12877 
L 233.28 -433.929351 
L 233.28 -432.729931 
L 233.28 -431.530511 
L 233.28 -430.331092 
L 233.28 -429.131672 
L 233.28 -427.932252 
L 233.28 -426.732833 
L 233.28 -425.533413 
L 233.28 -424.333994 
L 233.28 -423.134574 
L 233.28 -421.935154 
L 233.28 -420.735735 
L 233.28 -419.536315 
L 233.28 -418.336895 
L 233.28 -417.137476 
L 233.28 -415.938056 
L 233.28 -414.738636 
L 233.28 -413.539217 
L 233.28 -412.339797 
L 233.28 -411.140378 
L 233.28 -409.940958 
L 233.28 -408.741538 
L 233.28 -407.542119 
L 233.28 -406.342699 
L 233.28 -405.143279 
L 233.28 -403.94386 
L 233.28 -402.74444 
L 233.28 -401.54502 
L 233.28 -400.345601 
L 233.28 -399.146181 
L 233.28 -397.946762 
L 233.28 -396.747342 
L 233.28 -395.547922 
L 233.28 -394.348503 
L 233.28 -393.149083 
L 233.28 -391.949663 
L 233.28 -390.750244 
L 233.28 -389.550824 
L 233.28 -388.351405 
L 233.28 -387.151985 
L 233.28 -385.952565 
L 233.28 -384.753146 
L 233.28 -383.553726 
L 233.28 -382.354306 
L 233.28 -381.154887 
L 233.28 -379.955467 
L 233.28 -378.756047 
L 233.28 -377.556628 
L 233.28 -376.357208 
L 233.28 -375.157789 
L 233.28 -373.958369 
L 233.28 -372.758949 
L 233.28 -371.55953 
L 233.28 -370.36011 
L 233.28 -369.16069 
L 233.28 -367.961271 
L 233.28 -366.761851 
L 233.28 -365.562431 
L 233.28 -364.363012 
L 233.28 -363.163592 
L 233.28 -361.964173 
L 233.28 -360.764753 
L 233.28 -359.565333 
L 233.28 -358.365914 
L 233.28 -357.166494 
L 233.28 -355.967074 
L 233.28 -354.767655 
L 233.28 -353.568235 
L 233.28 -352.368815 
L 233.28 -351.169396 
L 233.28 -349.969976 
L 233.28 -348.770557 
L 233.28 -347.571137 
L 233.28 -346.371717 
L 233.28 -345.172298 
L 233.28 -343.972878 
L 233.28 -342.773458 
L 233.28 -341.574039 
L 233.28 -340.374619 
L 233.28 -339.1752 
z
" id="m1f018aa140" style="stroke:#303030;stroke-width:1.5;"/>
    </defs>
    <g clip-path="url(#p2d01a8bf87)">
     <use style="fill:#14538b;stroke:#303030;stroke-width:1.5;" x="0" xlink:href="#m1f018aa140" y="648"/>
    </g>
   </g>
   <g id="PolyCollection_2">
    <defs>
     <path d="M 233.372192 -239.830237 
L 233.28 -239.830237 
L 233.28 -242.373625 
L 233.28 -244.917012 
L 233.28 -247.4604 
L 233.28 -250.003787 
L 233.28 -252.547174 
L 233.28 -255.090562 
L 233.28 -257.633949 
L 233.28 -260.177337 
L 233.28 -262.720724 
L 233.28 -265.264112 
L 233.28 -267.807499 
L 233.28 -270.350886 
L 233.28 -272.894274 
L 233.28 -275.437661 
L 233.28 -277.981049 
L 233.28 -280.524436 
L 233.28 -283.067823 
L 233.28 -285.611211 
L 233.28 -288.154598 
L 233.28 -290.697986 
L 233.28 -293.241373 
L 233.28 -295.784761 
L 233.28 -298.328148 
L 233.28 -300.871535 
L 233.28 -303.414923 
L 233.28 -305.95831 
L 233.28 -308.501698 
L 233.28 -311.045085 
L 233.28 -313.588472 
L 233.28 -316.13186 
L 233.28 -318.675247 
L 233.28 -321.218635 
L 233.28 -323.762022 
L 233.28 -326.30541 
L 233.28 -328.848797 
L 233.28 -331.392184 
L 233.28 -333.935572 
L 233.28 -336.478959 
L 233.28 -339.022347 
L 233.28 -341.565734 
L 233.28 -344.109121 
L 233.28 -346.652509 
L 233.28 -349.195896 
L 233.28 -351.739284 
L 233.28 -354.282671 
L 233.28 -356.826059 
L 233.28 -359.369446 
L 233.28 -361.912833 
L 233.28 -364.456221 
L 233.28 -366.999608 
L 233.28 -369.542996 
L 233.28 -372.086383 
L 233.28 -374.62977 
L 233.28 -377.173158 
L 233.28 -379.716545 
L 233.28 -382.259933 
L 233.28 -384.80332 
L 233.28 -387.346708 
L 233.28 -389.890095 
L 233.28 -392.433482 
L 233.28 -394.97687 
L 233.28 -397.520257 
L 233.28 -400.063645 
L 233.28 -402.607032 
L 233.28 -405.150419 
L 233.28 -407.693807 
L 233.28 -410.237194 
L 233.28 -412.780582 
L 233.28 -415.323969 
L 233.28 -417.867357 
L 233.28 -420.410744 
L 233.28 -422.954131 
L 233.28 -425.497519 
L 233.28 -428.040906 
L 233.28 -430.584294 
L 233.28 -433.127681 
L 233.28 -435.671068 
L 233.28 -438.214456 
L 233.28 -440.757843 
L 233.28 -443.301231 
L 233.28 -445.844618 
L 233.28 -448.388006 
L 233.28 -450.931393 
L 233.28 -453.47478 
L 233.28 -456.018168 
L 233.28 -458.561555 
L 233.28 -461.104943 
L 233.28 -463.64833 
L 233.28 -466.191717 
L 233.28 -468.735105 
L 233.28 -471.278492 
L 233.28 -473.82188 
L 233.28 -476.365267 
L 233.28 -478.908655 
L 233.28 -481.452042 
L 233.28 -483.995429 
L 233.28 -486.538817 
L 233.28 -489.082204 
L 233.28 -491.625592 
L 233.369006 -491.625592 
L 233.369006 -491.625592 
L 233.425062 -489.082204 
L 233.500825 -486.538817 
L 233.593988 -483.995429 
L 233.697037 -481.452042 
L 233.797484 -478.908655 
L 233.88009 -476.365267 
L 233.9308 -473.82188 
L 233.941151 -471.278492 
L 233.911485 -468.735105 
L 233.85162 -466.191717 
L 233.778619 -463.64833 
L 233.71242 -461.104943 
L 233.670784 -458.561555 
L 233.665016 -456.018168 
L 233.697501 -453.47478 
L 233.761538 -450.931393 
L 233.84354 -448.388006 
L 233.927191 -445.844618 
L 233.998653 -443.301231 
L 234.05135 -440.757843 
L 234.088807 -438.214456 
L 234.124652 -435.671068 
L 234.180094 -433.127681 
L 234.280273 -430.584294 
L 234.450965 -428.040906 
L 234.716107 -425.497519 
L 235.095191 -422.954131 
L 235.599065 -420.410744 
L 236.224009 -417.867357 
L 236.946631 -415.323969 
L 237.724407 -412.780582 
L 238.506221 -410.237194 
L 239.253343 -407.693807 
L 239.965081 -405.150419 
L 240.698391 -402.607032 
L 241.570137 -400.063645 
L 242.735875 -397.520257 
L 244.348317 -394.97687 
L 246.507968 -392.433482 
L 249.223568 -389.890095 
L 252.397907 -387.346708 
L 255.845503 -384.80332 
L 259.336047 -382.259933 
L 262.647273 -379.716545 
L 265.608259 -377.173158 
L 268.120627 -374.62977 
L 270.156717 -372.086383 
L 271.743717 -369.542996 
L 272.945383 -366.999608 
L 273.848294 -364.456221 
L 274.552137 -361.912833 
L 275.158986 -359.369446 
L 275.757527 -356.826059 
L 276.403006 -354.282671 
L 277.098769 -351.739284 
L 277.787219 -349.195896 
L 278.355908 -346.652509 
L 278.658979 -344.109121 
L 278.548074 -341.565734 
L 277.903079 -339.022347 
L 276.653844 -336.478959 
L 274.788725 -333.935572 
L 272.351504 -331.392184 
L 269.43143 -328.848797 
L 266.150645 -326.30541 
L 262.650716 -323.762022 
L 259.078268 -321.218635 
L 255.570169 -318.675247 
L 252.240521 -316.13186 
L 249.172642 -313.588472 
L 246.418073 -311.045085 
L 244.001938 -308.501698 
L 241.93138 -305.95831 
L 240.202969 -303.414923 
L 238.806282 -300.871535 
L 237.72335 -298.328148 
L 236.925991 -295.784761 
L 236.373931 -293.241373 
L 236.016006 -290.697986 
L 235.795047 -288.154598 
L 235.65527 -285.611211 
L 235.549909 -283.067823 
L 235.446661 -280.524436 
L 235.32934 -277.981049 
L 235.195518 -275.437661 
L 235.051289 -272.894274 
L 234.905171 -270.350886 
L 234.763167 -267.807499 
L 234.626366 -265.264112 
L 234.49142 -262.720724 
L 234.353162 -260.177337 
L 234.207964 -257.633949 
L 234.056239 -255.090562 
L 233.903027 -252.547174 
L 233.756546 -250.003787 
L 233.625512 -247.4604 
L 233.516495 -244.917012 
L 233.432363 -242.373625 
L 233.372192 -239.830237 
z
" id="m96ca13c300" style="stroke:#303030;stroke-width:1.5;"/>
    </defs>
    <g clip-path="url(#p2d01a8bf87)">
     <use style="fill:#a7b31a;stroke:#303030;stroke-width:1.5;" x="0" xlink:href="#m96ca13c300" y="648"/>
    </g>
   </g>
   <g id="PolyCollection_3">
    <defs>
     <path d="M 411.84 -318.491677 
L 411.04038 -318.491677 
L 410.598387 -320.389768 
L 409.97074 -322.28786 
L 409.109052 -324.185951 
L 407.964351 -326.084042 
L 406.49144 -327.982134 
L 404.653653 -329.880225 
L 402.427357 -331.778316 
L 399.80564 -333.676407 
L 396.80083 -335.574499 
L 393.445843 -337.47259 
L 389.794628 -339.370681 
L 385.922037 -341.268772 
L 381.92328 -343.166864 
L 377.912754 -345.064955 
L 374.021623 -346.963046 
L 370.393351 -348.861137 
L 367.176515 -350.759229 
L 364.514808 -352.65732 
L 362.534926 -354.555411 
L 361.333861 -356.453502 
L 360.967666 -358.351594 
L 361.443809 -360.249685 
L 362.718809 -362.147776 
L 364.701897 -364.045868 
L 367.264345 -365.943959 
L 370.253041 -367.84205 
L 373.506141 -369.740141 
L 376.868349 -371.638233 
L 380.203673 -373.536324 
L 383.404167 -375.434415 
L 386.394081 -377.332506 
L 389.129726 -379.230598 
L 391.595947 -381.128689 
L 393.800423 -383.02678 
L 395.766925 -384.924871 
L 397.52845 -386.822963 
L 399.12086 -388.721054 
L 400.577449 -390.619145 
L 401.924764 -392.517236 
L 403.179939 -394.415328 
L 404.349767 -396.313419 
L 405.431531 -398.21151 
L 406.415448 -400.109602 
L 407.288266 -402.007693 
L 408.037376 -403.905784 
L 408.654683 -405.803875 
L 409.139531 -407.701967 
L 409.500168 -409.600058 
L 409.753498 -411.498149 
L 409.923218 -413.39624 
L 410.036733 -415.294332 
L 410.121479 -417.192423 
L 410.20137 -419.090514 
L 410.294047 -420.988605 
L 410.409403 -422.886697 
L 410.549552 -424.784788 
L 410.710105 -426.682879 
L 410.882333 -428.580971 
L 411.055663 -430.479062 
L 411.219966 -432.377153 
L 411.367234 -434.275244 
L 411.492462 -436.173336 
L 411.593756 -438.071427 
L 411.671858 -439.969518 
L 411.729351 -441.867609 
L 411.769791 -443.765701 
L 411.796958 -445.663792 
L 411.81431 -447.561883 
L 411.824662 -449.459974 
L 411.830037 -451.358066 
L 411.831632 -453.256157 
L 411.82983 -455.154248 
L 411.8242 -457.052339 
L 411.813497 -458.950431 
L 411.795652 -460.848522 
L 411.767811 -462.746613 
L 411.726502 -464.644705 
L 411.66797 -466.542796 
L 411.588761 -468.440887 
L 411.486506 -470.338978 
L 411.36085 -472.23707 
L 411.214322 -474.135161 
L 411.052917 -476.033252 
L 410.886154 -477.931343 
L 410.72641 -479.829435 
L 410.587548 -481.727526 
L 410.482981 -483.625617 
L 410.423555 -485.523708 
L 410.415697 -487.4218 
L 410.460271 -489.319891 
L 410.552421 -491.217982 
L 410.682441 -493.116073 
L 410.837461 -495.014165 
L 411.003534 -496.912256 
L 411.167667 -498.810347 
L 411.319394 -500.708439 
L 411.451651 -502.60653 
L 411.560922 -504.504621 
L 411.646796 -506.402712 
L 411.84 -506.402712 
L 411.84 -506.402712 
L 411.84 -504.504621 
L 411.84 -502.60653 
L 411.84 -500.708439 
L 411.84 -498.810347 
L 411.84 -496.912256 
L 411.84 -495.014165 
L 411.84 -493.116073 
L 411.84 -491.217982 
L 411.84 -489.319891 
L 411.84 -487.4218 
L 411.84 -485.523708 
L 411.84 -483.625617 
L 411.84 -481.727526 
L 411.84 -479.829435 
L 411.84 -477.931343 
L 411.84 -476.033252 
L 411.84 -474.135161 
L 411.84 -472.23707 
L 411.84 -470.338978 
L 411.84 -468.440887 
L 411.84 -466.542796 
L 411.84 -464.644705 
L 411.84 -462.746613 
L 411.84 -460.848522 
L 411.84 -458.950431 
L 411.84 -457.052339 
L 411.84 -455.154248 
L 411.84 -453.256157 
L 411.84 -451.358066 
L 411.84 -449.459974 
L 411.84 -447.561883 
L 411.84 -445.663792 
L 411.84 -443.765701 
L 411.84 -441.867609 
L 411.84 -439.969518 
L 411.84 -438.071427 
L 411.84 -436.173336 
L 411.84 -434.275244 
L 411.84 -432.377153 
L 411.84 -430.479062 
L 411.84 -428.580971 
L 411.84 -426.682879 
L 411.84 -424.784788 
L 411.84 -422.886697 
L 411.84 -420.988605 
L 411.84 -419.090514 
L 411.84 -417.192423 
L 411.84 -415.294332 
L 411.84 -413.39624 
L 411.84 -411.498149 
L 411.84 -409.600058 
L 411.84 -407.701967 
L 411.84 -405.803875 
L 411.84 -403.905784 
L 411.84 -402.007693 
L 411.84 -400.109602 
L 411.84 -398.21151 
L 411.84 -396.313419 
L 411.84 -394.415328 
L 411.84 -392.517236 
L 411.84 -390.619145 
L 411.84 -388.721054 
L 411.84 -386.822963 
L 411.84 -384.924871 
L 411.84 -383.02678 
L 411.84 -381.128689 
L 411.84 -379.230598 
L 411.84 -377.332506 
L 411.84 -375.434415 
L 411.84 -373.536324 
L 411.84 -371.638233 
L 411.84 -369.740141 
L 411.84 -367.84205 
L 411.84 -365.943959 
L 411.84 -364.045868 
L 411.84 -362.147776 
L 411.84 -360.249685 
L 411.84 -358.351594 
L 411.84 -356.453502 
L 411.84 -354.555411 
L 411.84 -352.65732 
L 411.84 -350.759229 
L 411.84 -348.861137 
L 411.84 -346.963046 
L 411.84 -345.064955 
L 411.84 -343.166864 
L 411.84 -341.268772 
L 411.84 -339.370681 
L 411.84 -337.47259 
L 411.84 -335.574499 
L 411.84 -333.676407 
L 411.84 -331.778316 
L 411.84 -329.880225 
L 411.84 -327.982134 
L 411.84 -326.084042 
L 411.84 -324.185951 
L 411.84 -322.28786 
L 411.84 -320.389768 
L 411.84 -318.491677 
z
" id="m45a79fd189" style="stroke:#303030;stroke-width:1.5;"/>
    </defs>
    <g clip-path="url(#p2d01a8bf87)">
     <use style="fill:#14538b;stroke:#303030;stroke-width:1.5;" x="0" xlink:href="#m45a79fd189" y="648"/>
    </g>
   </g>
   <g id="PolyCollection_4">
    <defs>
     <path d="M 411.962363 -267.965186 
L 411.84 -267.965186 
L 411.84 -269.105393 
L 411.84 -270.2456 
L 411.84 -271.385807 
L 411.84 -272.526014 
L 411.84 -273.666221 
L 411.84 -274.806427 
L 411.84 -275.946634 
L 411.84 -277.086841 
L 411.84 -278.227048 
L 411.84 -279.367255 
L 411.84 -280.507462 
L 411.84 -281.647669 
L 411.84 -282.787876 
L 411.84 -283.928083 
L 411.84 -285.06829 
L 411.84 -286.208497 
L 411.84 -287.348704 
L 411.84 -288.488911 
L 411.84 -289.629118 
L 411.84 -290.769325 
L 411.84 -291.909532 
L 411.84 -293.049739 
L 411.84 -294.189946 
L 411.84 -295.330153 
L 411.84 -296.47036 
L 411.84 -297.610567 
L 411.84 -298.750774 
L 411.84 -299.890981 
L 411.84 -301.031188 
L 411.84 -302.171395 
L 411.84 -303.311602 
L 411.84 -304.451809 
L 411.84 -305.592016 
L 411.84 -306.732222 
L 411.84 -307.872429 
L 411.84 -309.012636 
L 411.84 -310.152843 
L 411.84 -311.29305 
L 411.84 -312.433257 
L 411.84 -313.573464 
L 411.84 -314.713671 
L 411.84 -315.853878 
L 411.84 -316.994085 
L 411.84 -318.134292 
L 411.84 -319.274499 
L 411.84 -320.414706 
L 411.84 -321.554913 
L 411.84 -322.69512 
L 411.84 -323.835327 
L 411.84 -324.975534 
L 411.84 -326.115741 
L 411.84 -327.255948 
L 411.84 -328.396155 
L 411.84 -329.536362 
L 411.84 -330.676569 
L 411.84 -331.816776 
L 411.84 -332.956983 
L 411.84 -334.09719 
L 411.84 -335.237397 
L 411.84 -336.377604 
L 411.84 -337.517811 
L 411.84 -338.658017 
L 411.84 -339.798224 
L 411.84 -340.938431 
L 411.84 -342.078638 
L 411.84 -343.218845 
L 411.84 -344.359052 
L 411.84 -345.499259 
L 411.84 -346.639466 
L 411.84 -347.779673 
L 411.84 -348.91988 
L 411.84 -350.060087 
L 411.84 -351.200294 
L 411.84 -352.340501 
L 411.84 -353.480708 
L 411.84 -354.620915 
L 411.84 -355.761122 
L 411.84 -356.901329 
L 411.84 -358.041536 
L 411.84 -359.181743 
L 411.84 -360.32195 
L 411.84 -361.462157 
L 411.84 -362.602364 
L 411.84 -363.742571 
L 411.84 -364.882778 
L 411.84 -366.022985 
L 411.84 -367.163192 
L 411.84 -368.303399 
L 411.84 -369.443606 
L 411.84 -370.583812 
L 411.84 -371.724019 
L 411.84 -372.864226 
L 411.84 -374.004433 
L 411.84 -375.14464 
L 411.84 -376.284847 
L 411.84 -377.425054 
L 411.84 -378.565261 
L 411.84 -379.705468 
L 411.84 -380.845675 
L 412.135228 -380.845675 
L 412.135228 -380.845675 
L 412.345252 -379.705468 
L 412.663367 -378.565261 
L 413.119891 -377.425054 
L 413.741437 -376.284847 
L 414.545391 -375.14464 
L 415.534911 -374.004433 
L 416.696035 -372.864226 
L 417.998362 -371.724019 
L 419.400211 -370.583812 
L 420.8582 -369.443606 
L 422.339825 -368.303399 
L 423.836179 -367.163192 
L 425.370836 -366.022985 
L 427.000864 -364.882778 
L 428.807388 -363.742571 
L 430.876159 -362.602364 
L 433.272429 -361.462157 
L 436.017716 -360.32195 
L 439.077195 -359.181743 
L 442.364256 -358.041536 
L 445.763346 -356.901329 
L 449.16492 -355.761122 
L 452.500238 -354.620915 
L 455.761904 -353.480708 
L 459.000135 -352.340501 
L 462.293708 -351.200294 
L 465.704689 -350.060087 
L 469.232956 -348.91988 
L 472.787199 -347.779673 
L 476.183373 -346.639466 
L 479.172132 -345.499259 
L 481.487153 -344.359052 
L 482.899798 -343.218845 
L 483.264 -342.078638 
L 482.538952 -340.938431 
L 480.784932 -339.798224 
L 478.136896 -338.658017 
L 474.767768 -337.517811 
L 470.855594 -336.377604 
L 466.564508 -335.237397 
L 462.041143 -334.09719 
L 457.420097 -332.956983 
L 452.828935 -331.816776 
L 448.386375 -330.676569 
L 444.194042 -329.536362 
L 440.327565 -328.396155 
L 436.833301 -327.255948 
L 433.732673 -326.115741 
L 431.030573 -324.975534 
L 428.721743 -323.835327 
L 426.791113 -322.69512 
L 425.209145 -321.554913 
L 423.92733 -320.414706 
L 422.879387 -319.274499 
L 421.990101 -318.134292 
L 421.188855 -316.994085 
L 420.422011 -315.853878 
L 419.659148 -314.713671 
L 418.891764 -313.573464 
L 418.126862 -312.433257 
L 417.379448 -311.29305 
L 416.66695 -310.152843 
L 416.006235 -309.012636 
L 415.412113 -307.872429 
L 414.896021 -306.732222 
L 414.46445 -305.592016 
L 414.117616 -304.451809 
L 413.849059 -303.311602 
L 413.646403 -302.171395 
L 413.492998 -301.031188 
L 413.370044 -299.890981 
L 413.258989 -298.750774 
L 413.144098 -297.610567 
L 413.014898 -296.47036 
L 412.867872 -295.330153 
L 412.70672 -294.189946 
L 412.540889 -293.049739 
L 412.382828 -291.909532 
L 412.244936 -290.769325 
L 412.137247 -289.629118 
L 412.066437 -288.488911 
L 412.035971 -287.348704 
L 412.046716 -286.208497 
L 412.09722 -285.06829 
L 412.183247 -283.928083 
L 412.296774 -282.787876 
L 412.425222 -281.647669 
L 412.55183 -280.507462 
L 412.657747 -279.367255 
L 412.725598 -278.227048 
L 412.743529 -277.086841 
L 412.708224 -275.946634 
L 412.625724 -274.806427 
L 412.509643 -273.666221 
L 412.377462 -272.526014 
L 412.246238 -271.385807 
L 412.129163 -270.2456 
L 412.033835 -269.105393 
L 411.962363 -267.965186 
z
" id="m6dee5b757b" style="stroke:#303030;stroke-width:1.5;"/>
    </defs>
    <g clip-path="url(#p2d01a8bf87)">
     <use style="fill:#a7b31a;stroke:#303030;stroke-width:1.5;" x="0" xlink:href="#m6dee5b757b" y="648"/>
    </g>
   </g>
   <g id="PolyCollection_5">
    <defs>
     <path d="M 590.4 -338.80787 
L 587.414278 -338.80787 
L 586.675556 -339.252028 
L 585.796542 -339.696187 
L 584.761806 -340.140346 
L 583.55689 -340.584505 
L 582.16903 -341.028663 
L 580.587912 -341.472822 
L 578.806459 -341.916981 
L 576.821577 -342.36114 
L 574.634835 -342.805299 
L 572.253008 -343.249457 
L 569.688445 -343.693616 
L 566.959218 -344.137775 
L 564.089009 -344.581934 
L 561.106721 -345.026092 
L 558.0458 -345.470251 
L 554.943294 -345.91441 
L 551.838664 -346.358569 
L 548.77241 -346.802728 
L 545.78458 -347.246886 
L 542.913228 -347.691045 
L 540.192923 -348.135204 
L 537.653382 -348.579363 
L 535.31832 -349.023522 
L 533.204578 -349.46768 
L 531.321594 -349.911839 
L 529.67124 -350.355998 
L 528.248045 -350.800157 
L 527.03978 -351.244315 
L 526.028384 -351.688474 
L 525.191153 -352.132633 
L 524.502139 -352.576792 
L 523.933663 -353.020951 
L 523.457848 -353.465109 
L 523.048097 -353.909268 
L 522.680427 -354.353427 
L 522.334582 -354.797586 
L 521.994889 -355.241745 
L 521.650804 -355.685903 
L 521.297147 -356.130062 
L 520.934027 -356.574221 
L 520.566477 -357.01838 
L 520.20385 -357.462538 
L 519.859013 -357.906697 
L 519.547409 -358.350856 
L 519.286053 -358.795015 
L 519.0925 -359.239174 
L 518.983878 -359.683332 
L 518.976 -360.127491 
L 519.082616 -360.57165 
L 519.314827 -361.015809 
L 519.680667 -361.459967 
L 520.184882 -361.904126 
L 520.828869 -362.348285 
L 521.610796 -362.792444 
L 522.525855 -363.236603 
L 523.566644 -363.680761 
L 524.723646 -364.12492 
L 525.985764 -364.569079 
L 527.340911 -365.013238 
L 528.776593 -365.457397 
L 530.280486 -365.901555 
L 531.840964 -366.345714 
L 533.447557 -366.789873 
L 535.091319 -367.234032 
L 536.765092 -367.67819 
L 538.463642 -368.122349 
L 540.183667 -368.566508 
L 541.923671 -369.010667 
L 543.683723 -369.454826 
L 545.465087 -369.898984 
L 547.269786 -370.343143 
L 549.100083 -370.787302 
L 550.957958 -371.231461 
L 552.844581 -371.67562 
L 554.759842 -372.119778 
L 556.701961 -372.563937 
L 558.667212 -373.008096 
L 560.649779 -373.452255 
L 562.641761 -373.896413 
L 564.633317 -374.340572 
L 566.612948 -374.784731 
L 568.567894 -375.22889 
L 570.484618 -375.673049 
L 572.349343 -376.117207 
L 574.148601 -376.561366 
L 575.869774 -377.005525 
L 577.501567 -377.449684 
L 579.03442 -377.893842 
L 580.460804 -378.338001 
L 581.775418 -378.78216 
L 582.975267 -379.226319 
L 584.059627 -379.670478 
L 585.029921 -380.114636 
L 585.889505 -380.558795 
L 586.643389 -381.002954 
L 587.297932 -381.447113 
L 587.860501 -381.891272 
L 588.33914 -382.33543 
L 588.742256 -382.779589 
L 590.4 -382.779589 
L 590.4 -382.779589 
L 590.4 -382.33543 
L 590.4 -381.891272 
L 590.4 -381.447113 
L 590.4 -381.002954 
L 590.4 -380.558795 
L 590.4 -380.114636 
L 590.4 -379.670478 
L 590.4 -379.226319 
L 590.4 -378.78216 
L 590.4 -378.338001 
L 590.4 -377.893842 
L 590.4 -377.449684 
L 590.4 -377.005525 
L 590.4 -376.561366 
L 590.4 -376.117207 
L 590.4 -375.673049 
L 590.4 -375.22889 
L 590.4 -374.784731 
L 590.4 -374.340572 
L 590.4 -373.896413 
L 590.4 -373.452255 
L 590.4 -373.008096 
L 590.4 -372.563937 
L 590.4 -372.119778 
L 590.4 -371.67562 
L 590.4 -371.231461 
L 590.4 -370.787302 
L 590.4 -370.343143 
L 590.4 -369.898984 
L 590.4 -369.454826 
L 590.4 -369.010667 
L 590.4 -368.566508 
L 590.4 -368.122349 
L 590.4 -367.67819 
L 590.4 -367.234032 
L 590.4 -366.789873 
L 590.4 -366.345714 
L 590.4 -365.901555 
L 590.4 -365.457397 
L 590.4 -365.013238 
L 590.4 -364.569079 
L 590.4 -364.12492 
L 590.4 -363.680761 
L 590.4 -363.236603 
L 590.4 -362.792444 
L 590.4 -362.348285 
L 590.4 -361.904126 
L 590.4 -361.459967 
L 590.4 -361.015809 
L 590.4 -360.57165 
L 590.4 -360.127491 
L 590.4 -359.683332 
L 590.4 -359.239174 
L 590.4 -358.795015 
L 590.4 -358.350856 
L 590.4 -357.906697 
L 590.4 -357.462538 
L 590.4 -357.01838 
L 590.4 -356.574221 
L 590.4 -356.130062 
L 590.4 -355.685903 
L 590.4 -355.241745 
L 590.4 -354.797586 
L 590.4 -354.353427 
L 590.4 -353.909268 
L 590.4 -353.465109 
L 590.4 -353.020951 
L 590.4 -352.576792 
L 590.4 -352.132633 
L 590.4 -351.688474 
L 590.4 -351.244315 
L 590.4 -350.800157 
L 590.4 -350.355998 
L 590.4 -349.911839 
L 590.4 -349.46768 
L 590.4 -349.023522 
L 590.4 -348.579363 
L 590.4 -348.135204 
L 590.4 -347.691045 
L 590.4 -347.246886 
L 590.4 -346.802728 
L 590.4 -346.358569 
L 590.4 -345.91441 
L 590.4 -345.470251 
L 590.4 -345.026092 
L 590.4 -344.581934 
L 590.4 -344.137775 
L 590.4 -343.693616 
L 590.4 -343.249457 
L 590.4 -342.805299 
L 590.4 -342.36114 
L 590.4 -341.916981 
L 590.4 -341.472822 
L 590.4 -341.028663 
L 590.4 -340.584505 
L 590.4 -340.140346 
L 590.4 -339.696187 
L 590.4 -339.252028 
L 590.4 -338.80787 
z
" id="m30cf4cdbc0" style="stroke:#303030;stroke-width:1.5;"/>
    </defs>
    <g clip-path="url(#p2d01a8bf87)">
     <use style="fill:#14538b;stroke:#303030;stroke-width:1.5;" x="0" xlink:href="#m30cf4cdbc0" y="648"/>
    </g>
   </g>
   <g id="PolyCollection_6">
    <defs>
     <path d="M 592.055692 -103.238182 
L 590.4 -103.238182 
L 590.4 -106.602164 
L 590.4 -109.966146 
L 590.4 -113.330129 
L 590.4 -116.694111 
L 590.4 -120.058093 
L 590.4 -123.422075 
L 590.4 -126.786057 
L 590.4 -130.15004 
L 590.4 -133.514022 
L 590.4 -136.878004 
L 590.4 -140.241986 
L 590.4 -143.605969 
L 590.4 -146.969951 
L 590.4 -150.333933 
L 590.4 -153.697915 
L 590.4 -157.061898 
L 590.4 -160.42588 
L 590.4 -163.789862 
L 590.4 -167.153844 
L 590.4 -170.517827 
L 590.4 -173.881809 
L 590.4 -177.245791 
L 590.4 -180.609773 
L 590.4 -183.973756 
L 590.4 -187.337738 
L 590.4 -190.70172 
L 590.4 -194.065702 
L 590.4 -197.429684 
L 590.4 -200.793667 
L 590.4 -204.157649 
L 590.4 -207.521631 
L 590.4 -210.885613 
L 590.4 -214.249596 
L 590.4 -217.613578 
L 590.4 -220.97756 
L 590.4 -224.341542 
L 590.4 -227.705525 
L 590.4 -231.069507 
L 590.4 -234.433489 
L 590.4 -237.797471 
L 590.4 -241.161454 
L 590.4 -244.525436 
L 590.4 -247.889418 
L 590.4 -251.2534 
L 590.4 -254.617382 
L 590.4 -257.981365 
L 590.4 -261.345347 
L 590.4 -264.709329 
L 590.4 -268.073311 
L 590.4 -271.437294 
L 590.4 -274.801276 
L 590.4 -278.165258 
L 590.4 -281.52924 
L 590.4 -284.893223 
L 590.4 -288.257205 
L 590.4 -291.621187 
L 590.4 -294.985169 
L 590.4 -298.349152 
L 590.4 -301.713134 
L 590.4 -305.077116 
L 590.4 -308.441098 
L 590.4 -311.805081 
L 590.4 -315.169063 
L 590.4 -318.533045 
L 590.4 -321.897027 
L 590.4 -325.261009 
L 590.4 -328.624992 
L 590.4 -331.988974 
L 590.4 -335.352956 
L 590.4 -338.716938 
L 590.4 -342.080921 
L 590.4 -345.444903 
L 590.4 -348.808885 
L 590.4 -352.172867 
L 590.4 -355.53685 
L 590.4 -358.900832 
L 590.4 -362.264814 
L 590.4 -365.628796 
L 590.4 -368.992779 
L 590.4 -372.356761 
L 590.4 -375.720743 
L 590.4 -379.084725 
L 590.4 -382.448707 
L 590.4 -385.81269 
L 590.4 -389.176672 
L 590.4 -392.540654 
L 590.4 -395.904636 
L 590.4 -399.268619 
L 590.4 -402.632601 
L 590.4 -405.996583 
L 590.4 -409.360565 
L 590.4 -412.724548 
L 590.4 -416.08853 
L 590.4 -419.452512 
L 590.4 -422.816494 
L 590.4 -426.180477 
L 590.4 -429.544459 
L 590.4 -432.908441 
L 590.4 -436.272423 
L 590.596166 -436.272423 
L 590.596166 -436.272423 
L 590.661958 -432.908441 
L 590.746079 -429.544459 
L 590.852327 -426.180477 
L 590.984873 -422.816494 
L 591.148168 -419.452512 
L 591.346812 -416.08853 
L 591.585368 -412.724548 
L 591.868136 -409.360565 
L 592.198881 -405.996583 
L 592.580528 -402.632601 
L 593.014838 -399.268619 
L 593.502082 -395.904636 
L 594.040739 -392.540654 
L 594.627238 -389.176672 
L 595.25578 -385.81269 
L 595.918252 -382.448707 
L 596.604267 -379.084725 
L 597.30133 -375.720743 
L 597.995154 -372.356761 
L 598.670103 -368.992779 
L 599.309756 -365.628796 
L 599.897564 -362.264814 
L 600.417565 -358.900832 
L 600.855104 -355.53685 
L 601.197534 -352.172867 
L 601.43482 -348.808885 
L 601.560039 -345.444903 
L 601.569709 -342.080921 
L 601.463951 -338.716938 
L 601.246459 -335.352956 
L 600.924285 -331.988974 
L 600.507461 -328.624992 
L 600.008476 -325.261009 
L 599.441662 -321.897027 
L 598.822516 -318.533045 
L 598.167006 -315.169063 
L 597.490914 -311.805081 
L 596.809234 -308.441098 
L 596.135671 -305.077116 
L 595.482252 -301.713134 
L 594.859066 -298.349152 
L 594.27412 -294.985169 
L 593.733328 -291.621187 
L 593.240593 -288.257205 
L 592.797986 -284.893223 
L 592.405986 -281.52924 
L 592.06377 -278.165258 
L 591.769528 -274.801276 
L 591.520787 -271.437294 
L 591.314731 -268.073311 
L 591.1485 -264.709329 
L 591.019466 -261.345347 
L 590.925475 -257.981365 
L 590.865051 -254.617382 
L 590.837561 -251.2534 
L 590.843325 -247.889418 
L 590.883681 -244.525436 
L 590.96099 -241.161454 
L 591.078566 -237.797471 
L 591.240543 -234.433489 
L 591.451657 -231.069507 
L 591.716938 -227.705525 
L 592.041333 -224.341542 
L 592.429245 -220.97756 
L 592.884016 -217.613578 
L 593.407383 -214.249596 
L 593.998932 -210.885613 
L 594.655594 -207.521631 
L 595.37124 -204.157649 
L 596.136409 -200.793667 
L 596.938221 -197.429684 
L 597.760515 -194.065702 
L 598.584219 -190.70172 
L 599.387978 -187.337738 
L 600.148991 -183.973756 
L 600.844043 -180.609773 
L 601.450656 -177.245791 
L 601.948281 -173.881809 
L 602.319452 -170.517827 
L 602.550794 -167.153844 
L 602.633828 -163.789862 
L 602.565484 -160.42588 
L 602.348287 -157.061898 
L 601.990206 -153.697915 
L 601.504165 -150.333933 
L 600.907269 -146.969951 
L 600.219808 -143.605969 
L 599.464115 -140.241986 
L 598.663366 -136.878004 
L 597.840426 -133.514022 
L 597.016797 -130.15004 
L 596.211752 -126.786057 
L 595.441682 -123.422075 
L 594.719695 -120.058093 
L 594.055443 -116.694111 
L 593.455175 -113.330129 
L 592.921978 -109.966146 
L 592.456155 -106.602164 
L 592.055692 -103.238182 
z
" id="m541cdbe56a" style="stroke:#303030;stroke-width:1.5;"/>
    </defs>
    <g clip-path="url(#p2d01a8bf87)">
     <use style="fill:#a7b31a;stroke:#303030;stroke-width:1.5;" x="0" xlink:href="#m541cdbe56a" y="648"/>
    </g>
   </g>
   <g id="PolyCollection_7">
    <defs>
     <path d="M 768.96 -330.836765 
L 767.73763 -330.836765 
L 767.325947 -331.713747 
L 766.808672 -332.590729 
L 766.16998 -333.46771 
L 765.395007 -334.344692 
L 764.470893 -335.221674 
L 763.38788 -336.098656 
L 762.140366 -336.975638 
L 760.727799 -337.852619 
L 759.155279 -338.729601 
L 757.433769 -339.606583 
L 755.579814 -340.483565 
L 753.614727 -341.360547 
L 751.563249 -342.237529 
L 749.451739 -343.11451 
L 747.306045 -343.991492 
L 745.149222 -344.868474 
L 742.999356 -345.745456 
L 740.86771 -346.622438 
L 738.757479 -347.49942 
L 736.663331 -348.376401 
L 734.571914 -349.253383 
L 732.463354 -350.130365 
L 730.313715 -351.007347 
L 728.09825 -351.884329 
L 725.795156 -352.761311 
L 723.389483 -353.638292 
L 720.876757 -354.515274 
L 718.265908 -355.392256 
L 715.581096 -356.269238 
L 712.862142 -357.14622 
L 710.163398 -358.023202 
L 707.551063 -358.900183 
L 705.099114 -359.777165 
L 702.884191 -360.654147 
L 700.979914 -361.531129 
L 699.451186 -362.408111 
L 698.349027 -363.285093 
L 697.706484 -364.162074 
L 697.536 -365.039056 
L 697.828502 -365.916038 
L 698.554276 -366.79302 
L 699.665515 -367.670002 
L 701.100261 -368.546984 
L 702.787345 -369.423965 
L 704.651841 -370.300947 
L 706.620538 -371.177929 
L 708.626954 -372.054911 
L 710.615488 -372.931893 
L 712.544403 -373.808875 
L 714.387448 -374.685856 
L 716.134072 -375.562838 
L 717.788275 -376.43982 
L 719.366284 -377.316802 
L 720.893319 -378.193784 
L 722.399775 -379.070765 
L 723.917212 -379.947747 
L 725.474514 -380.824729 
L 727.094573 -381.701711 
L 728.791778 -382.578693 
L 730.570505 -383.455675 
L 732.424679 -384.332656 
L 734.3384 -385.209638 
L 736.287475 -386.08662 
L 738.241659 -386.963602 
L 740.167322 -387.840584 
L 742.030265 -388.717566 
L 743.798413 -389.594547 
L 745.444152 -390.471529 
L 746.946168 -391.348511 
L 748.29068 -392.225493 
L 749.472062 -393.102475 
L 750.492863 -393.979457 
L 751.36331 -394.856438 
L 752.100371 -395.73342 
L 752.72647 -396.610402 
L 753.267947 -397.487384 
L 753.753354 -398.364366 
L 754.211671 -399.241348 
L 754.670529 -400.118329 
L 755.15455 -400.995311 
L 755.683891 -401.872293 
L 756.273108 -402.749275 
L 756.930417 -403.626257 
L 757.65742 -404.503239 
L 758.44933 -405.38022 
L 759.295665 -406.257202 
L 760.181354 -407.134184 
L 761.088142 -408.011166 
L 761.99616 -408.888148 
L 762.885499 -409.76513 
L 763.737652 -410.642111 
L 764.536697 -411.519093 
L 765.270136 -412.396075 
L 765.929358 -413.273057 
L 766.509724 -414.150039 
L 767.010329 -415.02702 
L 767.433502 -415.904002 
L 767.784148 -416.780984 
L 768.069011 -417.657966 
L 768.96 -417.657966 
L 768.96 -417.657966 
L 768.96 -416.780984 
L 768.96 -415.904002 
L 768.96 -415.02702 
L 768.96 -414.150039 
L 768.96 -413.273057 
L 768.96 -412.396075 
L 768.96 -411.519093 
L 768.96 -410.642111 
L 768.96 -409.76513 
L 768.96 -408.888148 
L 768.96 -408.011166 
L 768.96 -407.134184 
L 768.96 -406.257202 
L 768.96 -405.38022 
L 768.96 -404.503239 
L 768.96 -403.626257 
L 768.96 -402.749275 
L 768.96 -401.872293 
L 768.96 -400.995311 
L 768.96 -400.118329 
L 768.96 -399.241348 
L 768.96 -398.364366 
L 768.96 -397.487384 
L 768.96 -396.610402 
L 768.96 -395.73342 
L 768.96 -394.856438 
L 768.96 -393.979457 
L 768.96 -393.102475 
L 768.96 -392.225493 
L 768.96 -391.348511 
L 768.96 -390.471529 
L 768.96 -389.594547 
L 768.96 -388.717566 
L 768.96 -387.840584 
L 768.96 -386.963602 
L 768.96 -386.08662 
L 768.96 -385.209638 
L 768.96 -384.332656 
L 768.96 -383.455675 
L 768.96 -382.578693 
L 768.96 -381.701711 
L 768.96 -380.824729 
L 768.96 -379.947747 
L 768.96 -379.070765 
L 768.96 -378.193784 
L 768.96 -377.316802 
L 768.96 -376.43982 
L 768.96 -375.562838 
L 768.96 -374.685856 
L 768.96 -373.808875 
L 768.96 -372.931893 
L 768.96 -372.054911 
L 768.96 -371.177929 
L 768.96 -370.300947 
L 768.96 -369.423965 
L 768.96 -368.546984 
L 768.96 -367.670002 
L 768.96 -366.79302 
L 768.96 -365.916038 
L 768.96 -365.039056 
L 768.96 -364.162074 
L 768.96 -363.285093 
L 768.96 -362.408111 
L 768.96 -361.531129 
L 768.96 -360.654147 
L 768.96 -359.777165 
L 768.96 -358.900183 
L 768.96 -358.023202 
L 768.96 -357.14622 
L 768.96 -356.269238 
L 768.96 -355.392256 
L 768.96 -354.515274 
L 768.96 -353.638292 
L 768.96 -352.761311 
L 768.96 -351.884329 
L 768.96 -351.007347 
L 768.96 -350.130365 
L 768.96 -349.253383 
L 768.96 -348.376401 
L 768.96 -347.49942 
L 768.96 -346.622438 
L 768.96 -345.745456 
L 768.96 -344.868474 
L 768.96 -343.991492 
L 768.96 -343.11451 
L 768.96 -342.237529 
L 768.96 -341.360547 
L 768.96 -340.483565 
L 768.96 -339.606583 
L 768.96 -338.729601 
L 768.96 -337.852619 
L 768.96 -336.975638 
L 768.96 -336.098656 
L 768.96 -335.221674 
L 768.96 -334.344692 
L 768.96 -333.46771 
L 768.96 -332.590729 
L 768.96 -331.713747 
L 768.96 -330.836765 
z
" id="m605e7d1992" style="stroke:#303030;stroke-width:1.5;"/>
    </defs>
    <g clip-path="url(#p2d01a8bf87)">
     <use style="fill:#14538b;stroke:#303030;stroke-width:1.5;" x="0" xlink:href="#m605e7d1992" y="648"/>
    </g>
   </g>
   <g id="PolyCollection_8">
    <defs>
     <path d="M 769.171658 -257.683411 
L 768.96 -257.683411 
L 768.96 -259.431776 
L 768.96 -261.180141 
L 768.96 -262.928506 
L 768.96 -264.676871 
L 768.96 -266.425236 
L 768.96 -268.173601 
L 768.96 -269.921966 
L 768.96 -271.670331 
L 768.96 -273.418696 
L 768.96 -275.167061 
L 768.96 -276.915426 
L 768.96 -278.663791 
L 768.96 -280.412156 
L 768.96 -282.160522 
L 768.96 -283.908887 
L 768.96 -285.657252 
L 768.96 -287.405617 
L 768.96 -289.153982 
L 768.96 -290.902347 
L 768.96 -292.650712 
L 768.96 -294.399077 
L 768.96 -296.147442 
L 768.96 -297.895807 
L 768.96 -299.644172 
L 768.96 -301.392537 
L 768.96 -303.140902 
L 768.96 -304.889267 
L 768.96 -306.637632 
L 768.96 -308.385997 
L 768.96 -310.134362 
L 768.96 -311.882727 
L 768.96 -313.631092 
L 768.96 -315.379458 
L 768.96 -317.127823 
L 768.96 -318.876188 
L 768.96 -320.624553 
L 768.96 -322.372918 
L 768.96 -324.121283 
L 768.96 -325.869648 
L 768.96 -327.618013 
L 768.96 -329.366378 
L 768.96 -331.114743 
L 768.96 -332.863108 
L 768.96 -334.611473 
L 768.96 -336.359838 
L 768.96 -338.108203 
L 768.96 -339.856568 
L 768.96 -341.604933 
L 768.96 -343.353298 
L 768.96 -345.101663 
L 768.96 -346.850028 
L 768.96 -348.598394 
L 768.96 -350.346759 
L 768.96 -352.095124 
L 768.96 -353.843489 
L 768.96 -355.591854 
L 768.96 -357.340219 
L 768.96 -359.088584 
L 768.96 -360.836949 
L 768.96 -362.585314 
L 768.96 -364.333679 
L 768.96 -366.082044 
L 768.96 -367.830409 
L 768.96 -369.578774 
L 768.96 -371.327139 
L 768.96 -373.075504 
L 768.96 -374.823869 
L 768.96 -376.572234 
L 768.96 -378.320599 
L 768.96 -380.068964 
L 768.96 -381.81733 
L 768.96 -383.565695 
L 768.96 -385.31406 
L 768.96 -387.062425 
L 768.96 -388.81079 
L 768.96 -390.559155 
L 768.96 -392.30752 
L 768.96 -394.055885 
L 768.96 -395.80425 
L 768.96 -397.552615 
L 768.96 -399.30098 
L 768.96 -401.049345 
L 768.96 -402.79771 
L 768.96 -404.546075 
L 768.96 -406.29444 
L 768.96 -408.042805 
L 768.96 -409.79117 
L 768.96 -411.539535 
L 768.96 -413.2879 
L 768.96 -415.036266 
L 768.96 -416.784631 
L 768.96 -418.532996 
L 768.96 -420.281361 
L 768.96 -422.029726 
L 768.96 -423.778091 
L 768.96 -425.526456 
L 768.96 -427.274821 
L 768.96 -429.023186 
L 768.96 -430.771551 
L 769.116878 -430.771551 
L 769.116878 -430.771551 
L 769.182068 -429.023186 
L 769.266492 -427.274821 
L 769.372807 -425.526456 
L 769.503172 -423.778091 
L 769.659126 -422.029726 
L 769.841605 -420.281361 
L 770.051149 -418.532996 
L 770.288302 -416.784631 
L 770.554169 -415.036266 
L 770.851046 -413.2879 
L 771.183012 -411.539535 
L 771.556355 -409.79117 
L 771.979723 -408.042805 
L 772.463913 -406.29444 
L 773.021311 -404.546075 
L 773.664989 -402.79771 
L 774.407579 -401.049345 
L 775.260036 -399.30098 
L 776.230425 -397.552615 
L 777.322859 -395.80425 
L 778.536687 -394.055885 
L 779.86601 -392.30752 
L 781.29959 -390.559155 
L 782.821158 -388.81079 
L 784.410159 -387.062425 
L 786.042898 -385.31406 
L 787.694026 -383.565695 
L 789.33826 -381.81733 
L 790.95214 -380.068964 
L 792.515618 -378.320599 
L 794.013193 -376.572234 
L 795.434374 -374.823869 
L 796.773311 -373.075504 
L 798.027565 -371.327139 
L 799.196174 -369.578774 
L 800.277346 -367.830409 
L 801.266242 -366.082044 
L 802.153362 -364.333679 
L 802.924017 -362.585314 
L 803.559162 -360.836949 
L 804.037616 -359.088584 
L 804.339373 -357.340219 
L 804.449428 -355.591854 
L 804.361367 -353.843489 
L 804.07993 -352.095124 
L 803.62195 -350.346759 
L 803.015339 -348.598394 
L 802.296212 -346.850028 
L 801.504594 -345.101663 
L 800.679467 -343.353298 
L 799.85401 -341.604933 
L 799.051838 -339.856568 
L 798.284835 -338.108203 
L 797.55285 -336.359838 
L 796.845184 -334.611473 
L 796.143491 -332.863108 
L 795.425529 -331.114743 
L 794.669104 -329.366378 
L 793.855612 -327.618013 
L 792.972747 -325.869648 
L 792.016144 -324.121283 
L 790.989929 -322.372918 
L 789.906337 -320.624553 
L 788.784639 -318.876188 
L 787.649605 -317.127823 
L 786.529717 -315.379458 
L 785.455222 -313.631092 
L 784.456067 -311.882727 
L 783.559712 -310.134362 
L 782.788854 -308.385997 
L 782.159171 -306.637632 
L 781.677279 -304.889267 
L 781.339178 -303.140902 
L 781.129504 -301.392537 
L 781.021853 -299.644172 
L 780.980338 -297.895807 
L 780.962378 -296.147442 
L 780.922502 -294.399077 
L 780.816787 -292.650712 
L 780.607366 -290.902347 
L 780.266421 -289.153982 
L 779.779076 -287.405617 
L 779.144788 -285.657252 
L 778.377018 -283.908887 
L 777.501267 -282.160522 
L 776.551791 -280.412156 
L 775.567521 -278.663791 
L 774.587797 -276.915426 
L 773.64851 -275.167061 
L 772.779123 -273.418696 
L 772.000855 -271.670331 
L 771.326073 -269.921966 
L 770.758782 -268.173601 
L 770.295914 -266.425236 
L 769.929103 -264.676871 
L 769.646594 -262.928506 
L 769.43503 -261.180141 
L 769.280909 -259.431776 
L 769.171658 -257.683411 
z
" id="mc84dbd3f13" style="stroke:#303030;stroke-width:1.5;"/>
    </defs>
    <g clip-path="url(#p2d01a8bf87)">
     <use style="fill:#a7b31a;stroke:#303030;stroke-width:1.5;" x="0" xlink:href="#mc84dbd3f13" y="648"/>
    </g>
   </g>
   <g id="PolyCollection_9">
    <defs>
     <path d="M 947.52 -317.327955 
L 946.158027 -317.327955 
L 945.584847 -319.555956 
L 944.824018 -321.783956 
L 943.836087 -324.011956 
L 942.581054 -326.239956 
L 941.021088 -328.467956 
L 939.123765 -330.695956 
L 936.865552 -332.923956 
L 934.235223 -335.151956 
L 931.236768 -337.379956 
L 927.891383 -339.607956 
L 924.23816 -341.835956 
L 920.333238 -344.063956 
L 916.247305 -346.291956 
L 912.061635 -348.519956 
L 907.862992 -350.747956 
L 903.737963 -352.975956 
L 899.767379 -355.203956 
L 896.021485 -357.431956 
L 892.556411 -359.659956 
L 889.412303 -361.887956 
L 886.613214 -364.115956 
L 884.168572 -366.343956 
L 882.075874 -368.571956 
L 880.324078 -370.799956 
L 878.8972 -373.027956 
L 877.777639 -375.255956 
L 876.948927 -377.483956 
L 876.397715 -379.711956 
L 876.114915 -381.939956 
L 876.096 -384.167956 
L 876.340514 -386.395956 
L 876.850839 -388.623956 
L 877.630331 -390.851956 
L 878.681004 -393.079956 
L 880.001016 -395.307956 
L 881.582327 -397.535956 
L 883.408929 -399.763956 
L 885.456036 -401.991956 
L 887.690496 -404.219956 
L 890.07249 -406.447956 
L 892.558371 -408.675956 
L 895.10423 -410.903956 
L 897.669672 -413.131956 
L 900.221192 -415.359956 
L 902.734634 -417.587956 
L 905.196344 -419.815956 
L 907.602868 -422.043956 
L 909.959245 -424.271957 
L 912.276171 -426.499957 
L 914.566436 -428.727957 
L 916.841151 -430.955957 
L 919.106288 -433.183957 
L 921.360003 -435.411957 
L 923.591156 -437.639957 
L 925.779263 -439.867957 
L 927.895935 -442.095957 
L 929.907679 -444.323957 
L 931.779695 -446.551957 
L 933.480174 -448.779957 
L 934.984472 -451.007957 
L 936.278537 -453.235957 
L 937.36106 -455.463957 
L 938.243989 -457.691957 
L 938.951307 -459.919957 
L 939.51623 -462.147957 
L 939.97725 -464.375957 
L 940.373589 -466.603957 
L 940.740754 -468.831957 
L 941.106805 -471.059957 
L 941.489834 -473.287957 
L 941.896957 -475.515957 
L 942.324841 -477.743957 
L 942.761586 -479.971957 
L 943.189598 -482.199957 
L 943.588962 -484.427957 
L 943.940816 -486.655957 
L 944.230287 -488.883957 
L 944.448619 -491.111957 
L 944.594321 -493.339957 
L 944.673256 -495.567957 
L 944.697765 -497.795957 
L 944.685012 -500.023957 
L 944.654831 -502.251957 
L 944.627359 -504.479957 
L 944.620787 -506.707957 
L 944.649496 -508.935957 
L 944.72278 -511.163957 
L 944.844269 -513.391957 
L 945.012089 -515.619957 
L 945.21964 -517.847957 
L 945.45685 -520.075957 
L 945.71168 -522.303957 
L 945.971651 -524.531957 
L 946.225191 -526.759957 
L 946.462656 -528.987957 
L 946.676949 -531.215958 
L 946.863721 -533.443958 
L 947.021229 -535.671958 
L 947.149936 -537.899958 
L 947.52 -537.899958 
L 947.52 -537.899958 
L 947.52 -535.671958 
L 947.52 -533.443958 
L 947.52 -531.215958 
L 947.52 -528.987957 
L 947.52 -526.759957 
L 947.52 -524.531957 
L 947.52 -522.303957 
L 947.52 -520.075957 
L 947.52 -517.847957 
L 947.52 -515.619957 
L 947.52 -513.391957 
L 947.52 -511.163957 
L 947.52 -508.935957 
L 947.52 -506.707957 
L 947.52 -504.479957 
L 947.52 -502.251957 
L 947.52 -500.023957 
L 947.52 -497.795957 
L 947.52 -495.567957 
L 947.52 -493.339957 
L 947.52 -491.111957 
L 947.52 -488.883957 
L 947.52 -486.655957 
L 947.52 -484.427957 
L 947.52 -482.199957 
L 947.52 -479.971957 
L 947.52 -477.743957 
L 947.52 -475.515957 
L 947.52 -473.287957 
L 947.52 -471.059957 
L 947.52 -468.831957 
L 947.52 -466.603957 
L 947.52 -464.375957 
L 947.52 -462.147957 
L 947.52 -459.919957 
L 947.52 -457.691957 
L 947.52 -455.463957 
L 947.52 -453.235957 
L 947.52 -451.007957 
L 947.52 -448.779957 
L 947.52 -446.551957 
L 947.52 -444.323957 
L 947.52 -442.095957 
L 947.52 -439.867957 
L 947.52 -437.639957 
L 947.52 -435.411957 
L 947.52 -433.183957 
L 947.52 -430.955957 
L 947.52 -428.727957 
L 947.52 -426.499957 
L 947.52 -424.271957 
L 947.52 -422.043956 
L 947.52 -419.815956 
L 947.52 -417.587956 
L 947.52 -415.359956 
L 947.52 -413.131956 
L 947.52 -410.903956 
L 947.52 -408.675956 
L 947.52 -406.447956 
L 947.52 -404.219956 
L 947.52 -401.991956 
L 947.52 -399.763956 
L 947.52 -397.535956 
L 947.52 -395.307956 
L 947.52 -393.079956 
L 947.52 -390.851956 
L 947.52 -388.623956 
L 947.52 -386.395956 
L 947.52 -384.167956 
L 947.52 -381.939956 
L 947.52 -379.711956 
L 947.52 -377.483956 
L 947.52 -375.255956 
L 947.52 -373.027956 
L 947.52 -370.799956 
L 947.52 -368.571956 
L 947.52 -366.343956 
L 947.52 -364.115956 
L 947.52 -361.887956 
L 947.52 -359.659956 
L 947.52 -357.431956 
L 947.52 -355.203956 
L 947.52 -352.975956 
L 947.52 -350.747956 
L 947.52 -348.519956 
L 947.52 -346.291956 
L 947.52 -344.063956 
L 947.52 -341.835956 
L 947.52 -339.607956 
L 947.52 -337.379956 
L 947.52 -335.151956 
L 947.52 -332.923956 
L 947.52 -330.695956 
L 947.52 -328.467956 
L 947.52 -326.239956 
L 947.52 -324.011956 
L 947.52 -321.783956 
L 947.52 -319.555956 
L 947.52 -317.327955 
z
" id="m73eb081373" style="stroke:#303030;stroke-width:1.5;"/>
    </defs>
    <g clip-path="url(#p2d01a8bf87)">
     <use style="fill:#14538b;stroke:#303030;stroke-width:1.5;" x="0" xlink:href="#m73eb081373" y="648"/>
    </g>
   </g>
   <g id="PolyCollection_10">
    <defs>
     <path d="M 947.70482 -152.778422 
L 947.52 -152.778422 
L 947.52 -156.770578 
L 947.52 -160.762733 
L 947.52 -164.754889 
L 947.52 -168.747044 
L 947.52 -172.7392 
L 947.52 -176.731356 
L 947.52 -180.723511 
L 947.52 -184.715667 
L 947.52 -188.707822 
L 947.52 -192.699978 
L 947.52 -196.692133 
L 947.52 -200.684289 
L 947.52 -204.676444 
L 947.52 -208.6686 
L 947.52 -212.660755 
L 947.52 -216.652911 
L 947.52 -220.645066 
L 947.52 -224.637222 
L 947.52 -228.629377 
L 947.52 -232.621533 
L 947.52 -236.613688 
L 947.52 -240.605844 
L 947.52 -244.597999 
L 947.52 -248.590155 
L 947.52 -252.58231 
L 947.52 -256.574466 
L 947.52 -260.566621 
L 947.52 -264.558777 
L 947.52 -268.550932 
L 947.52 -272.543088 
L 947.52 -276.535243 
L 947.52 -280.527399 
L 947.52 -284.519554 
L 947.52 -288.51171 
L 947.52 -292.503865 
L 947.52 -296.496021 
L 947.52 -300.488176 
L 947.52 -304.480332 
L 947.52 -308.472487 
L 947.52 -312.464643 
L 947.52 -316.456798 
L 947.52 -320.448954 
L 947.52 -324.441109 
L 947.52 -328.433265 
L 947.52 -332.42542 
L 947.52 -336.417576 
L 947.52 -340.409732 
L 947.52 -344.401887 
L 947.52 -348.394043 
L 947.52 -352.386198 
L 947.52 -356.378354 
L 947.52 -360.370509 
L 947.52 -364.362665 
L 947.52 -368.35482 
L 947.52 -372.346976 
L 947.52 -376.339131 
L 947.52 -380.331287 
L 947.52 -384.323442 
L 947.52 -388.315598 
L 947.52 -392.307753 
L 947.52 -396.299909 
L 947.52 -400.292064 
L 947.52 -404.28422 
L 947.52 -408.276375 
L 947.52 -412.268531 
L 947.52 -416.260686 
L 947.52 -420.252842 
L 947.52 -424.244997 
L 947.52 -428.237153 
L 947.52 -432.229308 
L 947.52 -436.221464 
L 947.52 -440.213619 
L 947.52 -444.205775 
L 947.52 -448.19793 
L 947.52 -452.190086 
L 947.52 -456.182241 
L 947.52 -460.174397 
L 947.52 -464.166552 
L 947.52 -468.158708 
L 947.52 -472.150863 
L 947.52 -476.143019 
L 947.52 -480.135174 
L 947.52 -484.12733 
L 947.52 -488.119485 
L 947.52 -492.111641 
L 947.52 -496.103797 
L 947.52 -500.095952 
L 947.52 -504.088108 
L 947.52 -508.080263 
L 947.52 -512.072419 
L 947.52 -516.064574 
L 947.52 -520.05673 
L 947.52 -524.048885 
L 947.52 -528.041041 
L 947.52 -532.033196 
L 947.52 -536.025352 
L 947.52 -540.017507 
L 947.52 -544.009663 
L 947.52 -548.001818 
L 947.603441 -548.001818 
L 947.603441 -548.001818 
L 947.644052 -544.009663 
L 947.697222 -540.017507 
L 947.763522 -536.025352 
L 947.84227 -532.033196 
L 947.931455 -528.041041 
L 948.027975 -524.048885 
L 948.12822 -520.05673 
L 948.228878 -516.064574 
L 948.327712 -512.072419 
L 948.424063 -508.080263 
L 948.518883 -504.088108 
L 948.61428 -500.095952 
L 948.712782 -496.103797 
L 948.816667 -492.111641 
L 948.927745 -488.119485 
L 949.04778 -484.12733 
L 949.179517 -480.135174 
L 949.327983 -476.143019 
L 949.501578 -472.150863 
L 949.712531 -468.158708 
L 949.976525 -464.166552 
L 950.311591 -460.174397 
L 950.736635 -456.182241 
L 951.270058 -452.190086 
L 951.928829 -448.19793 
L 952.728217 -444.205775 
L 953.682155 -440.213619 
L 954.804108 -436.221464 
L 956.108239 -432.229308 
L 957.610627 -428.237153 
L 959.330111 -424.244997 
L 961.288145 -420.252842 
L 963.506819 -416.260686 
L 966.004251 -412.268531 
L 968.787011 -408.276375 
L 971.840154 -404.28422 
L 975.116709 -400.292064 
L 978.529539 -396.299909 
L 981.949021 -392.307753 
L 985.209371 -388.315598 
L 988.124671 -384.323442 
L 990.51307 -380.331287 
L 992.22487 -376.339131 
L 993.168403 -372.346976 
L 993.32735 -368.35482 
L 992.764827 -364.362665 
L 991.612768 -360.370509 
L 990.048806 -356.378354 
L 988.265989 -352.386198 
L 986.442162 -348.394043 
L 984.715499 -344.401887 
L 983.170578 -340.409732 
L 981.836517 -336.417576 
L 980.695768 -332.42542 
L 979.700043 -328.433265 
L 978.78888 -324.441109 
L 977.906545 -320.448954 
L 977.014074 -316.456798 
L 976.094854 -312.464643 
L 975.15377 -308.472487 
L 974.211282 -304.480332 
L 973.294618 -300.488176 
L 972.428489 -296.496021 
L 971.627426 -292.503865 
L 970.891198 -288.51171 
L 970.203968 -284.519554 
L 969.536971 -280.527399 
L 968.853859 -276.535243 
L 968.117357 -272.543088 
L 967.29576 -268.550932 
L 966.367978 -264.558777 
L 965.326344 -260.566621 
L 964.177008 -256.574466 
L 962.938312 -252.58231 
L 961.637906 -248.590155 
L 960.309348 -244.597999 
L 958.98877 -240.605844 
L 957.711834 -236.613688 
L 956.510969 -232.621533 
L 955.412833 -228.629377 
L 954.436043 -224.637222 
L 953.589443 -220.645066 
L 952.871309 -216.652911 
L 952.269871 -212.660755 
L 951.765316 -208.6686 
L 951.33309 -204.676444 
L 950.947925 -200.684289 
L 950.587804 -196.692133 
L 950.237044 -192.699978 
L 949.887883 -188.707822 
L 949.540353 -184.715667 
L 949.200624 -180.723511 
L 948.878392 -176.731356 
L 948.583996 -172.7392 
L 948.325976 -168.747044 
L 948.109494 -164.754889 
L 947.935788 -160.762733 
L 947.802537 -156.770578 
L 947.70482 -152.778422 
z
" id="m8038919e2b" style="stroke:#303030;stroke-width:1.5;"/>
    </defs>
    <g clip-path="url(#p2d01a8bf87)">
     <use style="fill:#a7b31a;stroke:#303030;stroke-width:1.5;" x="0" xlink:href="#m8038919e2b" y="648"/>
    </g>
   </g>
   <g id="patch_3">
    <path clip-path="url(#p2d01a8bf87)" d="M 233.28 311.592592 
L 233.28 311.592592 
L 233.28 311.592592 
L 233.28 311.592592 
z
" style="fill:#14538b;stroke:#303030;stroke-linejoin:miter;stroke-width:0.75;"/>
   </g>
   <g id="patch_4">
    <path clip-path="url(#p2d01a8bf87)" d="M 233.28 311.592592 
L 233.28 311.592592 
L 233.28 311.592592 
L 233.28 311.592592 
z
" style="fill:#a7b31a;stroke:#303030;stroke-linejoin:miter;stroke-width:0.75;"/>
   </g>
   <g id="matplotlib.axis_1">
    <g id="xtick_1">
     <g id="line2d_1">
      <defs>
       <path d="M 0 0 
L 0 3.5 
" id="m65ac879888" style="stroke:#000000;stroke-width:0.8;"/>
      </defs>
      <g>
       <use style="stroke:#000000;stroke-width:0.8;" x="233.28" xlink:href="#m65ac879888" y="567"/>
      </g>
     </g>
     <g id="text_1">
      <!-- efg -->
      <g transform="translate(225.269062 581.598438)scale(0.1 -0.1)">
       <defs>
        <path d="M 3597 1894 
L 3597 1613 
L 953 1613 
Q 991 1019 1311 708 
Q 1631 397 2203 397 
Q 2534 397 2845 478 
Q 3156 559 3463 722 
L 3463 178 
Q 3153 47 2828 -22 
Q 2503 -91 2169 -91 
Q 1331 -91 842 396 
Q 353 884 353 1716 
Q 353 2575 817 3079 
Q 1281 3584 2069 3584 
Q 2775 3584 3186 3129 
Q 3597 2675 3597 1894 
z
M 3022 2063 
Q 3016 2534 2758 2815 
Q 2500 3097 2075 3097 
Q 1594 3097 1305 2825 
Q 1016 2553 972 2059 
L 3022 2063 
z
" id="DejaVuSans-65" transform="scale(0.015625)"/>
        <path d="M 2375 4863 
L 2375 4384 
L 1825 4384 
Q 1516 4384 1395 4259 
Q 1275 4134 1275 3809 
L 1275 3500 
L 2222 3500 
L 2222 3053 
L 1275 3053 
L 1275 0 
L 697 0 
L 697 3053 
L 147 3053 
L 147 3500 
L 697 3500 
L 697 3744 
Q 697 4328 969 4595 
Q 1241 4863 1831 4863 
L 2375 4863 
z
" id="DejaVuSans-66" transform="scale(0.015625)"/>
        <path d="M 2906 1791 
Q 2906 2416 2648 2759 
Q 2391 3103 1925 3103 
Q 1463 3103 1205 2759 
Q 947 2416 947 1791 
Q 947 1169 1205 825 
Q 1463 481 1925 481 
Q 2391 481 2648 825 
Q 2906 1169 2906 1791 
z
M 3481 434 
Q 3481 -459 3084 -895 
Q 2688 -1331 1869 -1331 
Q 1566 -1331 1297 -1286 
Q 1028 -1241 775 -1147 
L 775 -588 
Q 1028 -725 1275 -790 
Q 1522 -856 1778 -856 
Q 2344 -856 2625 -561 
Q 2906 -266 2906 331 
L 2906 616 
Q 2728 306 2450 153 
Q 2172 0 1784 0 
Q 1141 0 747 490 
Q 353 981 353 1791 
Q 353 2603 747 3093 
Q 1141 3584 1784 3584 
Q 2172 3584 2450 3431 
Q 2728 3278 2906 2969 
L 2906 3500 
L 3481 3500 
L 3481 434 
z
" id="DejaVuSans-67" transform="scale(0.015625)"/>
       </defs>
       <use xlink:href="#DejaVuSans-65"/>
       <use x="61.523438" xlink:href="#DejaVuSans-66"/>
       <use x="96.728516" xlink:href="#DejaVuSans-67"/>
      </g>
     </g>
    </g>
    <g id="xtick_2">
     <g id="line2d_2">
      <g>
       <use style="stroke:#000000;stroke-width:0.8;" x="411.84" xlink:href="#m65ac879888" y="567"/>
      </g>
     </g>
     <g id="text_2">
      <!-- full -->
      <g transform="translate(404.132969 581.598438)scale(0.1 -0.1)">
       <defs>
        <path d="M 544 1381 
L 544 3500 
L 1119 3500 
L 1119 1403 
Q 1119 906 1312 657 
Q 1506 409 1894 409 
Q 2359 409 2629 706 
Q 2900 1003 2900 1516 
L 2900 3500 
L 3475 3500 
L 3475 0 
L 2900 0 
L 2900 538 
Q 2691 219 2414 64 
Q 2138 -91 1772 -91 
Q 1169 -91 856 284 
Q 544 659 544 1381 
z
M 1991 3584 
L 1991 3584 
z
" id="DejaVuSans-75" transform="scale(0.015625)"/>
        <path d="M 603 4863 
L 1178 4863 
L 1178 0 
L 603 0 
L 603 4863 
z
" id="DejaVuSans-6c" transform="scale(0.015625)"/>
       </defs>
       <use xlink:href="#DejaVuSans-66"/>
       <use x="35.205078" xlink:href="#DejaVuSans-75"/>
       <use x="98.583984" xlink:href="#DejaVuSans-6c"/>
       <use x="126.367188" xlink:href="#DejaVuSans-6c"/>
      </g>
     </g>
    </g>
    <g id="xtick_3">
     <g id="line2d_3">
      <g>
       <use style="stroke:#000000;stroke-width:0.8;" x="590.4" xlink:href="#m65ac879888" y="567"/>
      </g>
     </g>
     <g id="text_3">
      <!-- ged -->
      <g transform="translate(580.975 581.598438)scale(0.1 -0.1)">
       <defs>
        <path d="M 2906 2969 
L 2906 4863 
L 3481 4863 
L 3481 0 
L 2906 0 
L 2906 525 
Q 2725 213 2448 61 
Q 2172 -91 1784 -91 
Q 1150 -91 751 415 
Q 353 922 353 1747 
Q 353 2572 751 3078 
Q 1150 3584 1784 3584 
Q 2172 3584 2448 3432 
Q 2725 3281 2906 2969 
z
M 947 1747 
Q 947 1113 1208 752 
Q 1469 391 1925 391 
Q 2381 391 2643 752 
Q 2906 1113 2906 1747 
Q 2906 2381 2643 2742 
Q 2381 3103 1925 3103 
Q 1469 3103 1208 2742 
Q 947 2381 947 1747 
z
" id="DejaVuSans-64" transform="scale(0.015625)"/>
       </defs>
       <use xlink:href="#DejaVuSans-67"/>
       <use x="63.476562" xlink:href="#DejaVuSans-65"/>
       <use x="125" xlink:href="#DejaVuSans-64"/>
      </g>
     </g>
    </g>
    <g id="xtick_4">
     <g id="line2d_4">
      <g>
       <use style="stroke:#000000;stroke-width:0.8;" x="768.96" xlink:href="#m65ac879888" y="567"/>
      </g>
     </g>
     <g id="text_4">
      <!-- node -->
      <g transform="translate(756.481094 581.598438)scale(0.1 -0.1)">
       <defs>
        <path d="M 3513 2113 
L 3513 0 
L 2938 0 
L 2938 2094 
Q 2938 2591 2744 2837 
Q 2550 3084 2163 3084 
Q 1697 3084 1428 2787 
Q 1159 2491 1159 1978 
L 1159 0 
L 581 0 
L 581 3500 
L 1159 3500 
L 1159 2956 
Q 1366 3272 1645 3428 
Q 1925 3584 2291 3584 
Q 2894 3584 3203 3211 
Q 3513 2838 3513 2113 
z
" id="DejaVuSans-6e" transform="scale(0.015625)"/>
        <path d="M 1959 3097 
Q 1497 3097 1228 2736 
Q 959 2375 959 1747 
Q 959 1119 1226 758 
Q 1494 397 1959 397 
Q 2419 397 2687 759 
Q 2956 1122 2956 1747 
Q 2956 2369 2687 2733 
Q 2419 3097 1959 3097 
z
M 1959 3584 
Q 2709 3584 3137 3096 
Q 3566 2609 3566 1747 
Q 3566 888 3137 398 
Q 2709 -91 1959 -91 
Q 1206 -91 779 398 
Q 353 888 353 1747 
Q 353 2609 779 3096 
Q 1206 3584 1959 3584 
z
" id="DejaVuSans-6f" transform="scale(0.015625)"/>
       </defs>
       <use xlink:href="#DejaVuSans-6e"/>
       <use x="63.378906" xlink:href="#DejaVuSans-6f"/>
       <use x="124.560547" xlink:href="#DejaVuSans-64"/>
       <use x="188.037109" xlink:href="#DejaVuSans-65"/>
      </g>
     </g>
    </g>
    <g id="xtick_5">
     <g id="line2d_5">
      <g>
       <use style="stroke:#000000;stroke-width:0.8;" x="947.52" xlink:href="#m65ac879888" y="567"/>
      </g>
     </g>
     <g id="text_5">
      <!-- transition -->
      <g transform="translate(923.700469 581.598438)scale(0.1 -0.1)">
       <defs>
        <path d="M 1172 4494 
L 1172 3500 
L 2356 3500 
L 2356 3053 
L 1172 3053 
L 1172 1153 
Q 1172 725 1289 603 
Q 1406 481 1766 481 
L 2356 481 
L 2356 0 
L 1766 0 
Q 1100 0 847 248 
Q 594 497 594 1153 
L 594 3053 
L 172 3053 
L 172 3500 
L 594 3500 
L 594 4494 
L 1172 4494 
z
" id="DejaVuSans-74" transform="scale(0.015625)"/>
        <path d="M 2631 2963 
Q 2534 3019 2420 3045 
Q 2306 3072 2169 3072 
Q 1681 3072 1420 2755 
Q 1159 2438 1159 1844 
L 1159 0 
L 581 0 
L 581 3500 
L 1159 3500 
L 1159 2956 
Q 1341 3275 1631 3429 
Q 1922 3584 2338 3584 
Q 2397 3584 2469 3576 
Q 2541 3569 2628 3553 
L 2631 2963 
z
" id="DejaVuSans-72" transform="scale(0.015625)"/>
        <path d="M 2194 1759 
Q 1497 1759 1228 1600 
Q 959 1441 959 1056 
Q 959 750 1161 570 
Q 1363 391 1709 391 
Q 2188 391 2477 730 
Q 2766 1069 2766 1631 
L 2766 1759 
L 2194 1759 
z
M 3341 1997 
L 3341 0 
L 2766 0 
L 2766 531 
Q 2569 213 2275 61 
Q 1981 -91 1556 -91 
Q 1019 -91 701 211 
Q 384 513 384 1019 
Q 384 1609 779 1909 
Q 1175 2209 1959 2209 
L 2766 2209 
L 2766 2266 
Q 2766 2663 2505 2880 
Q 2244 3097 1772 3097 
Q 1472 3097 1187 3025 
Q 903 2953 641 2809 
L 641 3341 
Q 956 3463 1253 3523 
Q 1550 3584 1831 3584 
Q 2591 3584 2966 3190 
Q 3341 2797 3341 1997 
z
" id="DejaVuSans-61" transform="scale(0.015625)"/>
        <path d="M 2834 3397 
L 2834 2853 
Q 2591 2978 2328 3040 
Q 2066 3103 1784 3103 
Q 1356 3103 1142 2972 
Q 928 2841 928 2578 
Q 928 2378 1081 2264 
Q 1234 2150 1697 2047 
L 1894 2003 
Q 2506 1872 2764 1633 
Q 3022 1394 3022 966 
Q 3022 478 2636 193 
Q 2250 -91 1575 -91 
Q 1294 -91 989 -36 
Q 684 19 347 128 
L 347 722 
Q 666 556 975 473 
Q 1284 391 1588 391 
Q 1994 391 2212 530 
Q 2431 669 2431 922 
Q 2431 1156 2273 1281 
Q 2116 1406 1581 1522 
L 1381 1569 
Q 847 1681 609 1914 
Q 372 2147 372 2553 
Q 372 3047 722 3315 
Q 1072 3584 1716 3584 
Q 2034 3584 2315 3537 
Q 2597 3491 2834 3397 
z
" id="DejaVuSans-73" transform="scale(0.015625)"/>
        <path d="M 603 3500 
L 1178 3500 
L 1178 0 
L 603 0 
L 603 3500 
z
M 603 4863 
L 1178 4863 
L 1178 4134 
L 603 4134 
L 603 4863 
z
" id="DejaVuSans-69" transform="scale(0.015625)"/>
       </defs>
       <use xlink:href="#DejaVuSans-74"/>
       <use x="39.208984" xlink:href="#DejaVuSans-72"/>
       <use x="80.322266" xlink:href="#DejaVuSans-61"/>
       <use x="141.601562" xlink:href="#DejaVuSans-6e"/>
       <use x="204.980469" xlink:href="#DejaVuSans-73"/>
       <use x="257.080078" xlink:href="#DejaVuSans-69"/>
       <use x="284.863281" xlink:href="#DejaVuSans-74"/>
       <use x="324.072266" xlink:href="#DejaVuSans-69"/>
       <use x="351.855469" xlink:href="#DejaVuSans-6f"/>
       <use x="413.037109" xlink:href="#DejaVuSans-6e"/>
      </g>
     </g>
    </g>
    <g id="text_6">
     <!-- ss_measure -->
     <g transform="translate(560.886719 594.998438)scale(0.1 -0.1)">
      <defs>
       <path d="M 3263 -1063 
L 3263 -1509 
L -63 -1509 
L -63 -1063 
L 3263 -1063 
z
" id="DejaVuSans-5f" transform="scale(0.015625)"/>
       <path d="M 3328 2828 
Q 3544 3216 3844 3400 
Q 4144 3584 4550 3584 
Q 5097 3584 5394 3201 
Q 5691 2819 5691 2113 
L 5691 0 
L 5113 0 
L 5113 2094 
Q 5113 2597 4934 2840 
Q 4756 3084 4391 3084 
Q 3944 3084 3684 2787 
Q 3425 2491 3425 1978 
L 3425 0 
L 2847 0 
L 2847 2094 
Q 2847 2600 2669 2842 
Q 2491 3084 2119 3084 
Q 1678 3084 1418 2786 
Q 1159 2488 1159 1978 
L 1159 0 
L 581 0 
L 581 3500 
L 1159 3500 
L 1159 2956 
Q 1356 3278 1631 3431 
Q 1906 3584 2284 3584 
Q 2666 3584 2933 3390 
Q 3200 3197 3328 2828 
z
" id="DejaVuSans-6d" transform="scale(0.015625)"/>
      </defs>
      <use xlink:href="#DejaVuSans-73"/>
      <use x="52.099609" xlink:href="#DejaVuSans-73"/>
      <use x="104.199219" xlink:href="#DejaVuSans-5f"/>
      <use x="154.199219" xlink:href="#DejaVuSans-6d"/>
      <use x="251.611328" xlink:href="#DejaVuSans-65"/>
      <use x="313.134766" xlink:href="#DejaVuSans-61"/>
      <use x="374.414062" xlink:href="#DejaVuSans-73"/>
      <use x="426.513672" xlink:href="#DejaVuSans-75"/>
      <use x="489.892578" xlink:href="#DejaVuSans-72"/>
      <use x="528.755859" xlink:href="#DejaVuSans-65"/>
     </g>
    </g>
   </g>
   <g id="matplotlib.axis_2">
    <g id="ytick_1">
     <g id="line2d_6">
      <defs>
       <path d="M 0 0 
L -3.5 0 
" id="m1fe3563065" style="stroke:#000000;stroke-width:0.8;"/>
      </defs>
      <g>
       <use style="stroke:#000000;stroke-width:0.8;" x="144" xlink:href="#m1fe3563065" y="484.373952"/>
      </g>
     </g>
     <g id="text_7">
      <!-- 1.0 -->
      <g transform="translate(112.717187 488.173171)scale(0.1 -0.1)">
       <defs>
        <path d="M 678 2272 
L 4684 2272 
L 4684 1741 
L 678 1741 
L 678 2272 
z
" id="DejaVuSans-2212" transform="scale(0.015625)"/>
        <path d="M 794 531 
L 1825 531 
L 1825 4091 
L 703 3866 
L 703 4441 
L 1819 4666 
L 2450 4666 
L 2450 531 
L 3481 531 
L 3481 0 
L 794 0 
L 794 531 
z
" id="DejaVuSans-31" transform="scale(0.015625)"/>
        <path d="M 684 794 
L 1344 794 
L 1344 0 
L 684 0 
L 684 794 
z
" id="DejaVuSans-2e" transform="scale(0.015625)"/>
        <path d="M 2034 4250 
Q 1547 4250 1301 3770 
Q 1056 3291 1056 2328 
Q 1056 1369 1301 889 
Q 1547 409 2034 409 
Q 2525 409 2770 889 
Q 3016 1369 3016 2328 
Q 3016 3291 2770 3770 
Q 2525 4250 2034 4250 
z
M 2034 4750 
Q 2819 4750 3233 4129 
Q 3647 3509 3647 2328 
Q 3647 1150 3233 529 
Q 2819 -91 2034 -91 
Q 1250 -91 836 529 
Q 422 1150 422 2328 
Q 422 3509 836 4129 
Q 1250 4750 2034 4750 
z
" id="DejaVuSans-30" transform="scale(0.015625)"/>
       </defs>
       <use xlink:href="#DejaVuSans-2212"/>
       <use x="83.789062" xlink:href="#DejaVuSans-31"/>
       <use x="147.412109" xlink:href="#DejaVuSans-2e"/>
       <use x="179.199219" xlink:href="#DejaVuSans-30"/>
      </g>
     </g>
    </g>
    <g id="ytick_2">
     <g id="line2d_7">
      <g>
       <use style="stroke:#000000;stroke-width:0.8;" x="144" xlink:href="#m1fe3563065" y="397.983272"/>
      </g>
     </g>
     <g id="text_8">
      <!-- 0.5 -->
      <g transform="translate(112.717187 401.782491)scale(0.1 -0.1)">
       <defs>
        <path d="M 691 4666 
L 3169 4666 
L 3169 4134 
L 1269 4134 
L 1269 2991 
Q 1406 3038 1543 3061 
Q 1681 3084 1819 3084 
Q 2600 3084 3056 2656 
Q 3513 2228 3513 1497 
Q 3513 744 3044 326 
Q 2575 -91 1722 -91 
Q 1428 -91 1123 -41 
Q 819 9 494 109 
L 494 744 
Q 775 591 1075 516 
Q 1375 441 1709 441 
Q 2250 441 2565 725 
Q 2881 1009 2881 1497 
Q 2881 1984 2565 2268 
Q 2250 2553 1709 2553 
Q 1456 2553 1204 2497 
Q 953 2441 691 2322 
L 691 4666 
z
" id="DejaVuSans-35" transform="scale(0.015625)"/>
       </defs>
       <use xlink:href="#DejaVuSans-2212"/>
       <use x="83.789062" xlink:href="#DejaVuSans-30"/>
       <use x="147.412109" xlink:href="#DejaVuSans-2e"/>
       <use x="179.199219" xlink:href="#DejaVuSans-35"/>
      </g>
     </g>
    </g>
    <g id="ytick_3">
     <g id="line2d_8">
      <g>
       <use style="stroke:#000000;stroke-width:0.8;" x="144" xlink:href="#m1fe3563065" y="311.592592"/>
      </g>
     </g>
     <g id="text_9">
      <!-- 0.0 -->
      <g transform="translate(121.096875 315.391811)scale(0.1 -0.1)">
       <use xlink:href="#DejaVuSans-30"/>
       <use x="63.623047" xlink:href="#DejaVuSans-2e"/>
       <use x="95.410156" xlink:href="#DejaVuSans-30"/>
      </g>
     </g>
    </g>
    <g id="ytick_4">
     <g id="line2d_9">
      <g>
       <use style="stroke:#000000;stroke-width:0.8;" x="144" xlink:href="#m1fe3563065" y="225.201912"/>
      </g>
     </g>
     <g id="text_10">
      <!-- 0.5 -->
      <g transform="translate(121.096875 229.001131)scale(0.1 -0.1)">
       <use xlink:href="#DejaVuSans-30"/>
       <use x="63.623047" xlink:href="#DejaVuSans-2e"/>
       <use x="95.410156" xlink:href="#DejaVuSans-35"/>
      </g>
     </g>
    </g>
    <g id="ytick_5">
     <g id="line2d_10">
      <g>
       <use style="stroke:#000000;stroke-width:0.8;" x="144" xlink:href="#m1fe3563065" y="138.811232"/>
      </g>
     </g>
     <g id="text_11">
      <!-- 1.0 -->
      <g transform="translate(121.096875 142.61045)scale(0.1 -0.1)">
       <use xlink:href="#DejaVuSans-31"/>
       <use x="63.623047" xlink:href="#DejaVuSans-2e"/>
       <use x="95.410156" xlink:href="#DejaVuSans-30"/>
      </g>
     </g>
    </g>
    <g id="text_12">
     <!-- silhouette score -->
     <g transform="translate(106.6375 362.255)rotate(-90)scale(0.1 -0.1)">
      <defs>
       <path d="M 3513 2113 
L 3513 0 
L 2938 0 
L 2938 2094 
Q 2938 2591 2744 2837 
Q 2550 3084 2163 3084 
Q 1697 3084 1428 2787 
Q 1159 2491 1159 1978 
L 1159 0 
L 581 0 
L 581 4863 
L 1159 4863 
L 1159 2956 
Q 1366 3272 1645 3428 
Q 1925 3584 2291 3584 
Q 2894 3584 3203 3211 
Q 3513 2838 3513 2113 
z
" id="DejaVuSans-68" transform="scale(0.015625)"/>
       <path id="DejaVuSans-20" transform="scale(0.015625)"/>
       <path d="M 3122 3366 
L 3122 2828 
Q 2878 2963 2633 3030 
Q 2388 3097 2138 3097 
Q 1578 3097 1268 2742 
Q 959 2388 959 1747 
Q 959 1106 1268 751 
Q 1578 397 2138 397 
Q 2388 397 2633 464 
Q 2878 531 3122 666 
L 3122 134 
Q 2881 22 2623 -34 
Q 2366 -91 2075 -91 
Q 1284 -91 818 406 
Q 353 903 353 1747 
Q 353 2603 823 3093 
Q 1294 3584 2113 3584 
Q 2378 3584 2631 3529 
Q 2884 3475 3122 3366 
z
" id="DejaVuSans-63" transform="scale(0.015625)"/>
      </defs>
      <use xlink:href="#DejaVuSans-73"/>
      <use x="52.099609" xlink:href="#DejaVuSans-69"/>
      <use x="79.882812" xlink:href="#DejaVuSans-6c"/>
      <use x="107.666016" xlink:href="#DejaVuSans-68"/>
      <use x="171.044922" xlink:href="#DejaVuSans-6f"/>
      <use x="232.226562" xlink:href="#DejaVuSans-75"/>
      <use x="295.605469" xlink:href="#DejaVuSans-65"/>
      <use x="357.128906" xlink:href="#DejaVuSans-74"/>
      <use x="396.337891" xlink:href="#DejaVuSans-74"/>
      <use x="435.546875" xlink:href="#DejaVuSans-65"/>
      <use x="497.070312" xlink:href="#DejaVuSans-20"/>
      <use x="528.857422" xlink:href="#DejaVuSans-73"/>
      <use x="580.957031" xlink:href="#DejaVuSans-63"/>
      <use x="635.9375" xlink:href="#DejaVuSans-6f"/>
      <use x="697.119141" xlink:href="#DejaVuSans-72"/>
      <use x="735.982422" xlink:href="#DejaVuSans-65"/>
     </g>
    </g>
   </g>
   <g id="line2d_11">
    <path clip-path="url(#p2d01a8bf87)" d="M 233.28 365.737533 
L 233.28 216.904144 
" style="fill:none;stroke:#303030;stroke-linecap:square;stroke-width:1.5;"/>
   </g>
   <g id="line2d_12">
    <path clip-path="url(#p2d01a8bf87)" d="M 233.28 307.961618 
L 233.28 268.397184 
" style="fill:none;stroke:#303030;stroke-linecap:square;stroke-width:4.5;"/>
   </g>
   <g id="line2d_13">
    <path clip-path="url(#p2d01a8bf87)" d="M 411.84 332.457233 
L 411.84 269.002084 
" style="fill:none;stroke:#303030;stroke-linecap:square;stroke-width:1.5;"/>
   </g>
   <g id="line2d_14">
    <path clip-path="url(#p2d01a8bf87)" d="M 411.84 310.01085 
L 411.84 292.671468 
" style="fill:none;stroke:#303030;stroke-linecap:square;stroke-width:4.5;"/>
   </g>
   <g id="line2d_15">
    <path clip-path="url(#p2d01a8bf87)" d="M 590.4 484.373952 
L 590.4 272.115443 
" style="fill:none;stroke:#303030;stroke-linecap:square;stroke-width:1.5;"/>
   </g>
   <g id="line2d_16">
    <path clip-path="url(#p2d01a8bf87)" d="M 590.4 484.373952 
L 590.4 300.027164 
" style="fill:none;stroke:#303030;stroke-linecap:square;stroke-width:4.5;"/>
   </g>
   <g id="line2d_17">
    <path clip-path="url(#p2d01a8bf87)" d="M 768.96 369.914638 
L 768.96 237.6304 
" style="fill:none;stroke:#303030;stroke-linecap:square;stroke-width:1.5;"/>
   </g>
   <g id="line2d_18">
    <path clip-path="url(#p2d01a8bf87)" d="M 768.96 316.033087 
L 768.96 277.563833 
" style="fill:none;stroke:#303030;stroke-linecap:square;stroke-width:4.5;"/>
   </g>
   <g id="line2d_19">
    <path clip-path="url(#p2d01a8bf87)" d="M 947.52 426.611277 
L 947.52 168.798397 
" style="fill:none;stroke:#303030;stroke-linecap:square;stroke-width:1.5;"/>
   </g>
   <g id="line2d_20">
    <path clip-path="url(#p2d01a8bf87)" d="M 947.52 331.512997 
L 947.52 261.087572 
" style="fill:none;stroke:#303030;stroke-linecap:square;stroke-width:4.5;"/>
   </g>
   <g id="patch_5">
    <path d="M 144 567 
L 144 77.76 
" style="fill:none;stroke:#000000;stroke-linecap:square;stroke-linejoin:miter;stroke-width:0.8;"/>
   </g>
   <g id="patch_6">
    <path d="M 1036.8 567 
L 1036.8 77.76 
" style="fill:none;stroke:#000000;stroke-linecap:square;stroke-linejoin:miter;stroke-width:0.8;"/>
   </g>
   <g id="patch_7">
    <path d="M 144 567 
L 1036.8 567 
" style="fill:none;stroke:#000000;stroke-linecap:square;stroke-linejoin:miter;stroke-width:0.8;"/>
   </g>
   <g id="patch_8">
    <path d="M 144 77.76 
L 1036.8 77.76 
" style="fill:none;stroke:#000000;stroke-linecap:square;stroke-linejoin:miter;stroke-width:0.8;"/>
   </g>
   <g id="PathCollection_1">
    <defs>
     <path d="M 0 1.5 
C 0.397805 1.5 0.77937 1.341951 1.06066 1.06066 
C 1.341951 0.77937 1.5 0.397805 1.5 0 
C 1.5 -0.397805 1.341951 -0.77937 1.06066 -1.06066 
C 0.77937 -1.341951 0.397805 -1.5 0 -1.5 
C -0.397805 -1.5 -0.77937 -1.341951 -1.06066 -1.06066 
C -1.341951 -0.77937 -1.5 -0.397805 -1.5 0 
C -1.5 0.397805 -1.341951 0.77937 -1.06066 1.06066 
C -0.77937 1.341951 -0.397805 1.5 0 1.5 
z
" id="m882fd3820a" style="stroke:#303030;"/>
    </defs>
    <g clip-path="url(#p2d01a8bf87)">
     <use style="fill:#ffffff;stroke:#303030;" x="233.28" xlink:href="#m882fd3820a" y="286.608368"/>
    </g>
   </g>
   <g id="PathCollection_2">
    <g clip-path="url(#p2d01a8bf87)">
     <use style="fill:#ffffff;stroke:#303030;" x="411.84" xlink:href="#m882fd3820a" y="302.515514"/>
    </g>
   </g>
   <g id="PathCollection_3">
    <g clip-path="url(#p2d01a8bf87)">
     <use style="fill:#ffffff;stroke:#303030;" x="590.4" xlink:href="#m882fd3820a" y="324.107169"/>
    </g>
   </g>
   <g id="PathCollection_4">
    <g clip-path="url(#p2d01a8bf87)">
     <use style="fill:#ffffff;stroke:#303030;" x="768.96" xlink:href="#m882fd3820a" y="293.268469"/>
    </g>
   </g>
   <g id="PathCollection_5">
    <g clip-path="url(#p2d01a8bf87)">
     <use style="fill:#ffffff;stroke:#303030;" x="947.52" xlink:href="#m882fd3820a" y="283.237364"/>
    </g>
   </g>
   <g id="legend_1">
    <g id="patch_9">
     <path d="M 980.51875 129.794375 
L 1029.8 129.794375 
Q 1031.8 129.794375 1031.8 127.794375 
L 1031.8 84.76 
Q 1031.8 82.76 1029.8 82.76 
L 980.51875 82.76 
Q 978.51875 82.76 978.51875 84.76 
L 978.51875 127.794375 
Q 978.51875 129.794375 980.51875 129.794375 
z
" style="fill:#ffffff;opacity:0.8;stroke:#cccccc;stroke-linejoin:miter;"/>
    </g>
    <g id="text_13">
     <!-- self -->
     <g transform="translate(996.328906 94.358437)scale(0.1 -0.1)">
      <use xlink:href="#DejaVuSans-73"/>
      <use x="52.099609" xlink:href="#DejaVuSans-65"/>
      <use x="113.623047" xlink:href="#DejaVuSans-6c"/>
      <use x="141.40625" xlink:href="#DejaVuSans-66"/>
     </g>
    </g>
    <g id="patch_10">
     <path d="M 982.51875 109.036562 
L 1002.51875 109.036562 
L 1002.51875 102.036562 
L 982.51875 102.036562 
z
" style="fill:#14538b;stroke:#303030;stroke-linejoin:miter;stroke-width:0.75;"/>
    </g>
    <g id="text_14">
     <!-- yes -->
     <g transform="translate(1010.51875 109.036562)scale(0.1 -0.1)">
      <defs>
       <path d="M 2059 -325 
Q 1816 -950 1584 -1140 
Q 1353 -1331 966 -1331 
L 506 -1331 
L 506 -850 
L 844 -850 
Q 1081 -850 1212 -737 
Q 1344 -625 1503 -206 
L 1606 56 
L 191 3500 
L 800 3500 
L 1894 763 
L 2988 3500 
L 3597 3500 
L 2059 -325 
z
" id="DejaVuSans-79" transform="scale(0.015625)"/>
      </defs>
      <use xlink:href="#DejaVuSans-79"/>
      <use x="59.179688" xlink:href="#DejaVuSans-65"/>
      <use x="120.703125" xlink:href="#DejaVuSans-73"/>
     </g>
    </g>
    <g id="patch_11">
     <path d="M 982.51875 123.714687 
L 1002.51875 123.714687 
L 1002.51875 116.714687 
L 982.51875 116.714687 
z
" style="fill:#a7b31a;stroke:#303030;stroke-linejoin:miter;stroke-width:0.75;"/>
    </g>
    <g id="text_15">
     <!-- no -->
     <g transform="translate(1010.51875 123.714687)scale(0.1 -0.1)">
      <use xlink:href="#DejaVuSans-6e"/>
      <use x="63.378906" xlink:href="#DejaVuSans-6f"/>
     </g>
    </g>
   </g>
  </g>
 </g>
 <defs>
  <clipPath id="p2d01a8bf87">
   <rect height="489.24" width="892.8" x="144" y="77.76"/>
  </clipPath>
 </defs>
</svg>
