<?xml version="1.0" encoding="utf-8" standalone="no"?>
<!DOCTYPE svg PUBLIC "-//W3C//DTD SVG 1.1//EN"
  "http://www.w3.org/Graphics/SVG/1.1/DTD/svg11.dtd">
<svg height="648pt" version="1.1" viewBox="0 0 1152 648" width="1152pt" xmlns="http://www.w3.org/2000/svg" xmlns:xlink="http://www.w3.org/1999/xlink">
 <metadata>
  <rdf:RDF xmlns:cc="http://creativecommons.org/ns#" xmlns:dc="http://purl.org/dc/elements/1.1/" xmlns:rdf="http://www.w3.org/1999/02/22-rdf-syntax-ns#">
   <cc:Work>
    <dc:type rdf:resource="http://purl.org/dc/dcmitype/StillImage"/>
    <dc:date>2023-07-03T07:31:09.748440</dc:date>
    <dc:format>image/svg+xml</dc:format>
    <dc:creator>
     <cc:Agent>
      <dc:title>Matplotlib v3.4.1, https://matplotlib.org/</dc:title>
     </cc:Agent>
    </dc:creator>
   </cc:Work>
  </rdf:RDF>
 </metadata>
 <defs>
  <style type="text/css">*{stroke-linecap:butt;stroke-linejoin:round;}</style>
 </defs>
 <g id="figure_1">
  <g id="patch_1">
   <path d="M 0 648 
L 1152 648 
L 1152 0 
L 0 0 
z
" style="fill:#ffffff;"/>
  </g>
  <g id="axes_1">
   <g id="patch_2">
    <path d="M 144 567 
L 1036.8 567 
L 1036.8 77.76 
L 144 77.76 
z
" style="fill:#ffffff;"/>
   </g>
   <g id="matplotlib.axis_1">
    <g id="xtick_1">
     <g id="text_1">
      <!-- efg -->
      <g style="fill:#262626;" transform="translate(225.269062 581.598438)scale(0.1 -0.1)">
       <defs>
        <path d="M 3597 1894 
L 3597 1613 
L 953 1613 
Q 991 1019 1311 708 
Q 1631 397 2203 397 
Q 2534 397 2845 478 
Q 3156 559 3463 722 
L 3463 178 
Q 3153 47 2828 -22 
Q 2503 -91 2169 -91 
Q 1331 -91 842 396 
Q 353 884 353 1716 
Q 353 2575 817 3079 
Q 1281 3584 2069 3584 
Q 2775 3584 3186 3129 
Q 3597 2675 3597 1894 
z
M 3022 2063 
Q 3016 2534 2758 2815 
Q 2500 3097 2075 3097 
Q 1594 3097 1305 2825 
Q 1016 2553 972 2059 
L 3022 2063 
z
" id="DejaVuSans-65" transform="scale(0.015625)"/>
        <path d="M 2375 4863 
L 2375 4384 
L 1825 4384 
Q 1516 4384 1395 4259 
Q 1275 4134 1275 3809 
L 1275 3500 
L 2222 3500 
L 2222 3053 
L 1275 3053 
L 1275 0 
L 697 0 
L 697 3053 
L 147 3053 
L 147 3500 
L 697 3500 
L 697 3744 
Q 697 4328 969 4595 
Q 1241 4863 1831 4863 
L 2375 4863 
z
" id="DejaVuSans-66" transform="scale(0.015625)"/>
        <path d="M 2906 1791 
Q 2906 2416 2648 2759 
Q 2391 3103 1925 3103 
Q 1463 3103 1205 2759 
Q 947 2416 947 1791 
Q 947 1169 1205 825 
Q 1463 481 1925 481 
Q 2391 481 2648 825 
Q 2906 1169 2906 1791 
z
M 3481 434 
Q 3481 -459 3084 -895 
Q 2688 -1331 1869 -1331 
Q 1566 -1331 1297 -1286 
Q 1028 -1241 775 -1147 
L 775 -588 
Q 1028 -725 1275 -790 
Q 1522 -856 1778 -856 
Q 2344 -856 2625 -561 
Q 2906 -266 2906 331 
L 2906 616 
Q 2728 306 2450 153 
Q 2172 0 1784 0 
Q 1141 0 747 490 
Q 353 981 353 1791 
Q 353 2603 747 3093 
Q 1141 3584 1784 3584 
Q 2172 3584 2450 3431 
Q 2728 3278 2906 2969 
L 2906 3500 
L 3481 3500 
L 3481 434 
z
" id="DejaVuSans-67" transform="scale(0.015625)"/>
       </defs>
       <use xlink:href="#DejaVuSans-65"/>
       <use x="61.523438" xlink:href="#DejaVuSans-66"/>
       <use x="96.728516" xlink:href="#DejaVuSans-67"/>
      </g>
     </g>
    </g>
    <g id="xtick_2">
     <g id="text_2">
      <!-- full -->
      <g style="fill:#262626;" transform="translate(404.132969 581.598438)scale(0.1 -0.1)">
       <defs>
        <path d="M 544 1381 
L 544 3500 
L 1119 3500 
L 1119 1403 
Q 1119 906 1312 657 
Q 1506 409 1894 409 
Q 2359 409 2629 706 
Q 2900 1003 2900 1516 
L 2900 3500 
L 3475 3500 
L 3475 0 
L 2900 0 
L 2900 538 
Q 2691 219 2414 64 
Q 2138 -91 1772 -91 
Q 1169 -91 856 284 
Q 544 659 544 1381 
z
M 1991 3584 
L 1991 3584 
z
" id="DejaVuSans-75" transform="scale(0.015625)"/>
        <path d="M 603 4863 
L 1178 4863 
L 1178 0 
L 603 0 
L 603 4863 
z
" id="DejaVuSans-6c" transform="scale(0.015625)"/>
       </defs>
       <use xlink:href="#DejaVuSans-66"/>
       <use x="35.205078" xlink:href="#DejaVuSans-75"/>
       <use x="98.583984" xlink:href="#DejaVuSans-6c"/>
       <use x="126.367188" xlink:href="#DejaVuSans-6c"/>
      </g>
     </g>
    </g>
    <g id="xtick_3">
     <g id="text_3">
      <!-- ged -->
      <g style="fill:#262626;" transform="translate(580.975 581.598438)scale(0.1 -0.1)">
       <defs>
        <path d="M 2906 2969 
L 2906 4863 
L 3481 4863 
L 3481 0 
L 2906 0 
L 2906 525 
Q 2725 213 2448 61 
Q 2172 -91 1784 -91 
Q 1150 -91 751 415 
Q 353 922 353 1747 
Q 353 2572 751 3078 
Q 1150 3584 1784 3584 
Q 2172 3584 2448 3432 
Q 2725 3281 2906 2969 
z
M 947 1747 
Q 947 1113 1208 752 
Q 1469 391 1925 391 
Q 2381 391 2643 752 
Q 2906 1113 2906 1747 
Q 2906 2381 2643 2742 
Q 2381 3103 1925 3103 
Q 1469 3103 1208 2742 
Q 947 2381 947 1747 
z
" id="DejaVuSans-64" transform="scale(0.015625)"/>
       </defs>
       <use xlink:href="#DejaVuSans-67"/>
       <use x="63.476562" xlink:href="#DejaVuSans-65"/>
       <use x="125" xlink:href="#DejaVuSans-64"/>
      </g>
     </g>
    </g>
    <g id="xtick_4">
     <g id="text_4">
      <!-- node -->
      <g style="fill:#262626;" transform="translate(756.481094 581.598438)scale(0.1 -0.1)">
       <defs>
        <path d="M 3513 2113 
L 3513 0 
L 2938 0 
L 2938 2094 
Q 2938 2591 2744 2837 
Q 2550 3084 2163 3084 
Q 1697 3084 1428 2787 
Q 1159 2491 1159 1978 
L 1159 0 
L 581 0 
L 581 3500 
L 1159 3500 
L 1159 2956 
Q 1366 3272 1645 3428 
Q 1925 3584 2291 3584 
Q 2894 3584 3203 3211 
Q 3513 2838 3513 2113 
z
" id="DejaVuSans-6e" transform="scale(0.015625)"/>
        <path d="M 1959 3097 
Q 1497 3097 1228 2736 
Q 959 2375 959 1747 
Q 959 1119 1226 758 
Q 1494 397 1959 397 
Q 2419 397 2687 759 
Q 2956 1122 2956 1747 
Q 2956 2369 2687 2733 
Q 2419 3097 1959 3097 
z
M 1959 3584 
Q 2709 3584 3137 3096 
Q 3566 2609 3566 1747 
Q 3566 888 3137 398 
Q 2709 -91 1959 -91 
Q 1206 -91 779 398 
Q 353 888 353 1747 
Q 353 2609 779 3096 
Q 1206 3584 1959 3584 
z
" id="DejaVuSans-6f" transform="scale(0.015625)"/>
       </defs>
       <use xlink:href="#DejaVuSans-6e"/>
       <use x="63.378906" xlink:href="#DejaVuSans-6f"/>
       <use x="124.560547" xlink:href="#DejaVuSans-64"/>
       <use x="188.037109" xlink:href="#DejaVuSans-65"/>
      </g>
     </g>
    </g>
    <g id="xtick_5">
     <g id="text_5">
      <!-- transition -->
      <g style="fill:#262626;" transform="translate(923.700469 581.598438)scale(0.1 -0.1)">
       <defs>
        <path d="M 1172 4494 
L 1172 3500 
L 2356 3500 
L 2356 3053 
L 1172 3053 
L 1172 1153 
Q 1172 725 1289 603 
Q 1406 481 1766 481 
L 2356 481 
L 2356 0 
L 1766 0 
Q 1100 0 847 248 
Q 594 497 594 1153 
L 594 3053 
L 172 3053 
L 172 3500 
L 594 3500 
L 594 4494 
L 1172 4494 
z
" id="DejaVuSans-74" transform="scale(0.015625)"/>
        <path d="M 2631 2963 
Q 2534 3019 2420 3045 
Q 2306 3072 2169 3072 
Q 1681 3072 1420 2755 
Q 1159 2438 1159 1844 
L 1159 0 
L 581 0 
L 581 3500 
L 1159 3500 
L 1159 2956 
Q 1341 3275 1631 3429 
Q 1922 3584 2338 3584 
Q 2397 3584 2469 3576 
Q 2541 3569 2628 3553 
L 2631 2963 
z
" id="DejaVuSans-72" transform="scale(0.015625)"/>
        <path d="M 2194 1759 
Q 1497 1759 1228 1600 
Q 959 1441 959 1056 
Q 959 750 1161 570 
Q 1363 391 1709 391 
Q 2188 391 2477 730 
Q 2766 1069 2766 1631 
L 2766 1759 
L 2194 1759 
z
M 3341 1997 
L 3341 0 
L 2766 0 
L 2766 531 
Q 2569 213 2275 61 
Q 1981 -91 1556 -91 
Q 1019 -91 701 211 
Q 384 513 384 1019 
Q 384 1609 779 1909 
Q 1175 2209 1959 2209 
L 2766 2209 
L 2766 2266 
Q 2766 2663 2505 2880 
Q 2244 3097 1772 3097 
Q 1472 3097 1187 3025 
Q 903 2953 641 2809 
L 641 3341 
Q 956 3463 1253 3523 
Q 1550 3584 1831 3584 
Q 2591 3584 2966 3190 
Q 3341 2797 3341 1997 
z
" id="DejaVuSans-61" transform="scale(0.015625)"/>
        <path d="M 2834 3397 
L 2834 2853 
Q 2591 2978 2328 3040 
Q 2066 3103 1784 3103 
Q 1356 3103 1142 2972 
Q 928 2841 928 2578 
Q 928 2378 1081 2264 
Q 1234 2150 1697 2047 
L 1894 2003 
Q 2506 1872 2764 1633 
Q 3022 1394 3022 966 
Q 3022 478 2636 193 
Q 2250 -91 1575 -91 
Q 1294 -91 989 -36 
Q 684 19 347 128 
L 347 722 
Q 666 556 975 473 
Q 1284 391 1588 391 
Q 1994 391 2212 530 
Q 2431 669 2431 922 
Q 2431 1156 2273 1281 
Q 2116 1406 1581 1522 
L 1381 1569 
Q 847 1681 609 1914 
Q 372 2147 372 2553 
Q 372 3047 722 3315 
Q 1072 3584 1716 3584 
Q 2034 3584 2315 3537 
Q 2597 3491 2834 3397 
z
" id="DejaVuSans-73" transform="scale(0.015625)"/>
        <path d="M 603 3500 
L 1178 3500 
L 1178 0 
L 603 0 
L 603 3500 
z
M 603 4863 
L 1178 4863 
L 1178 4134 
L 603 4134 
L 603 4863 
z
" id="DejaVuSans-69" transform="scale(0.015625)"/>
       </defs>
       <use xlink:href="#DejaVuSans-74"/>
       <use x="39.208984" xlink:href="#DejaVuSans-72"/>
       <use x="80.322266" xlink:href="#DejaVuSans-61"/>
       <use x="141.601562" xlink:href="#DejaVuSans-6e"/>
       <use x="204.980469" xlink:href="#DejaVuSans-73"/>
       <use x="257.080078" xlink:href="#DejaVuSans-69"/>
       <use x="284.863281" xlink:href="#DejaVuSans-74"/>
       <use x="324.072266" xlink:href="#DejaVuSans-69"/>
       <use x="351.855469" xlink:href="#DejaVuSans-6f"/>
       <use x="413.037109" xlink:href="#DejaVuSans-6e"/>
      </g>
     </g>
    </g>
    <g id="text_6">
     <!-- ss_measure -->
     <g style="fill:#262626;" transform="translate(560.886719 594.998438)scale(0.1 -0.1)">
      <defs>
       <path d="M 3263 -1063 
L 3263 -1509 
L -63 -1509 
L -63 -1063 
L 3263 -1063 
z
" id="DejaVuSans-5f" transform="scale(0.015625)"/>
       <path d="M 3328 2828 
Q 3544 3216 3844 3400 
Q 4144 3584 4550 3584 
Q 5097 3584 5394 3201 
Q 5691 2819 5691 2113 
L 5691 0 
L 5113 0 
L 5113 2094 
Q 5113 2597 4934 2840 
Q 4756 3084 4391 3084 
Q 3944 3084 3684 2787 
Q 3425 2491 3425 1978 
L 3425 0 
L 2847 0 
L 2847 2094 
Q 2847 2600 2669 2842 
Q 2491 3084 2119 3084 
Q 1678 3084 1418 2786 
Q 1159 2488 1159 1978 
L 1159 0 
L 581 0 
L 581 3500 
L 1159 3500 
L 1159 2956 
Q 1356 3278 1631 3431 
Q 1906 3584 2284 3584 
Q 2666 3584 2933 3390 
Q 3200 3197 3328 2828 
z
" id="DejaVuSans-6d" transform="scale(0.015625)"/>
      </defs>
      <use xlink:href="#DejaVuSans-73"/>
      <use x="52.099609" xlink:href="#DejaVuSans-73"/>
      <use x="104.199219" xlink:href="#DejaVuSans-5f"/>
      <use x="154.199219" xlink:href="#DejaVuSans-6d"/>
      <use x="251.611328" xlink:href="#DejaVuSans-65"/>
      <use x="313.134766" xlink:href="#DejaVuSans-61"/>
      <use x="374.414062" xlink:href="#DejaVuSans-73"/>
      <use x="426.513672" xlink:href="#DejaVuSans-75"/>
      <use x="489.892578" xlink:href="#DejaVuSans-72"/>
      <use x="528.755859" xlink:href="#DejaVuSans-65"/>
     </g>
    </g>
   </g>
   <g id="matplotlib.axis_2">
    <g id="ytick_1">
     <g id="line2d_1">
      <path clip-path="url(#pe807e838db)" d="M 144 519.311701 
L 1036.8 519.311701 
" style="fill:none;stroke:#cccccc;stroke-linecap:round;stroke-width:0.8;"/>
     </g>
     <g id="text_7">
      <!-- −0.50 -->
      <g style="fill:#262626;" transform="translate(106.354687 523.110919)scale(0.1 -0.1)">
       <defs>
        <path d="M 678 2272 
L 4684 2272 
L 4684 1741 
L 678 1741 
L 678 2272 
z
" id="DejaVuSans-2212" transform="scale(0.015625)"/>
        <path d="M 2034 4250 
Q 1547 4250 1301 3770 
Q 1056 3291 1056 2328 
Q 1056 1369 1301 889 
Q 1547 409 2034 409 
Q 2525 409 2770 889 
Q 3016 1369 3016 2328 
Q 3016 3291 2770 3770 
Q 2525 4250 2034 4250 
z
M 2034 4750 
Q 2819 4750 3233 4129 
Q 3647 3509 3647 2328 
Q 3647 1150 3233 529 
Q 2819 -91 2034 -91 
Q 1250 -91 836 529 
Q 422 1150 422 2328 
Q 422 3509 836 4129 
Q 1250 4750 2034 4750 
z
" id="DejaVuSans-30" transform="scale(0.015625)"/>
        <path d="M 684 794 
L 1344 794 
L 1344 0 
L 684 0 
L 684 794 
z
" id="DejaVuSans-2e" transform="scale(0.015625)"/>
        <path d="M 691 4666 
L 3169 4666 
L 3169 4134 
L 1269 4134 
L 1269 2991 
Q 1406 3038 1543 3061 
Q 1681 3084 1819 3084 
Q 2600 3084 3056 2656 
Q 3513 2228 3513 1497 
Q 3513 744 3044 326 
Q 2575 -91 1722 -91 
Q 1428 -91 1123 -41 
Q 819 9 494 109 
L 494 744 
Q 775 591 1075 516 
Q 1375 441 1709 441 
Q 2250 441 2565 725 
Q 2881 1009 2881 1497 
Q 2881 1984 2565 2268 
Q 2250 2553 1709 2553 
Q 1456 2553 1204 2497 
Q 953 2441 691 2322 
L 691 4666 
z
" id="DejaVuSans-35" transform="scale(0.015625)"/>
       </defs>
       <use xlink:href="#DejaVuSans-2212"/>
       <use x="83.789062" xlink:href="#DejaVuSans-30"/>
       <use x="147.412109" xlink:href="#DejaVuSans-2e"/>
       <use x="179.199219" xlink:href="#DejaVuSans-35"/>
       <use x="242.822266" xlink:href="#DejaVuSans-30"/>
      </g>
     </g>
    </g>
    <g id="ytick_2">
     <g id="line2d_2">
      <path clip-path="url(#pe807e838db)" d="M 144 457.368653 
L 1036.8 457.368653 
" style="fill:none;stroke:#cccccc;stroke-linecap:round;stroke-width:0.8;"/>
     </g>
     <g id="text_8">
      <!-- −0.25 -->
      <g style="fill:#262626;" transform="translate(106.354687 461.167872)scale(0.1 -0.1)">
       <defs>
        <path d="M 1228 531 
L 3431 531 
L 3431 0 
L 469 0 
L 469 531 
Q 828 903 1448 1529 
Q 2069 2156 2228 2338 
Q 2531 2678 2651 2914 
Q 2772 3150 2772 3378 
Q 2772 3750 2511 3984 
Q 2250 4219 1831 4219 
Q 1534 4219 1204 4116 
Q 875 4013 500 3803 
L 500 4441 
Q 881 4594 1212 4672 
Q 1544 4750 1819 4750 
Q 2544 4750 2975 4387 
Q 3406 4025 3406 3419 
Q 3406 3131 3298 2873 
Q 3191 2616 2906 2266 
Q 2828 2175 2409 1742 
Q 1991 1309 1228 531 
z
" id="DejaVuSans-32" transform="scale(0.015625)"/>
       </defs>
       <use xlink:href="#DejaVuSans-2212"/>
       <use x="83.789062" xlink:href="#DejaVuSans-30"/>
       <use x="147.412109" xlink:href="#DejaVuSans-2e"/>
       <use x="179.199219" xlink:href="#DejaVuSans-32"/>
       <use x="242.822266" xlink:href="#DejaVuSans-35"/>
      </g>
     </g>
    </g>
    <g id="ytick_3">
     <g id="line2d_3">
      <path clip-path="url(#pe807e838db)" d="M 144 395.425606 
L 1036.8 395.425606 
" style="fill:none;stroke:#cccccc;stroke-linecap:round;stroke-width:0.8;"/>
     </g>
     <g id="text_9">
      <!-- 0.00 -->
      <g style="fill:#262626;" transform="translate(114.734375 399.224825)scale(0.1 -0.1)">
       <use xlink:href="#DejaVuSans-30"/>
       <use x="63.623047" xlink:href="#DejaVuSans-2e"/>
       <use x="95.410156" xlink:href="#DejaVuSans-30"/>
       <use x="159.033203" xlink:href="#DejaVuSans-30"/>
      </g>
     </g>
    </g>
    <g id="ytick_4">
     <g id="line2d_4">
      <path clip-path="url(#pe807e838db)" d="M 144 333.482559 
L 1036.8 333.482559 
" style="fill:none;stroke:#cccccc;stroke-linecap:round;stroke-width:0.8;"/>
     </g>
     <g id="text_10">
      <!-- 0.25 -->
      <g style="fill:#262626;" transform="translate(114.734375 337.281778)scale(0.1 -0.1)">
       <use xlink:href="#DejaVuSans-30"/>
       <use x="63.623047" xlink:href="#DejaVuSans-2e"/>
       <use x="95.410156" xlink:href="#DejaVuSans-32"/>
       <use x="159.033203" xlink:href="#DejaVuSans-35"/>
      </g>
     </g>
    </g>
    <g id="ytick_5">
     <g id="line2d_5">
      <path clip-path="url(#pe807e838db)" d="M 144 271.539512 
L 1036.8 271.539512 
" style="fill:none;stroke:#cccccc;stroke-linecap:round;stroke-width:0.8;"/>
     </g>
     <g id="text_11">
      <!-- 0.50 -->
      <g style="fill:#262626;" transform="translate(114.734375 275.338731)scale(0.1 -0.1)">
       <use xlink:href="#DejaVuSans-30"/>
       <use x="63.623047" xlink:href="#DejaVuSans-2e"/>
       <use x="95.410156" xlink:href="#DejaVuSans-35"/>
       <use x="159.033203" xlink:href="#DejaVuSans-30"/>
      </g>
     </g>
    </g>
    <g id="ytick_6">
     <g id="line2d_6">
      <path clip-path="url(#pe807e838db)" d="M 144 209.596465 
L 1036.8 209.596465 
" style="fill:none;stroke:#cccccc;stroke-linecap:round;stroke-width:0.8;"/>
     </g>
     <g id="text_12">
      <!-- 0.75 -->
      <g style="fill:#262626;" transform="translate(114.734375 213.395684)scale(0.1 -0.1)">
       <defs>
        <path d="M 525 4666 
L 3525 4666 
L 3525 4397 
L 1831 0 
L 1172 0 
L 2766 4134 
L 525 4134 
L 525 4666 
z
" id="DejaVuSans-37" transform="scale(0.015625)"/>
       </defs>
       <use xlink:href="#DejaVuSans-30"/>
       <use x="63.623047" xlink:href="#DejaVuSans-2e"/>
       <use x="95.410156" xlink:href="#DejaVuSans-37"/>
       <use x="159.033203" xlink:href="#DejaVuSans-35"/>
      </g>
     </g>
    </g>
    <g id="ytick_7">
     <g id="line2d_7">
      <path clip-path="url(#pe807e838db)" d="M 144 147.653418 
L 1036.8 147.653418 
" style="fill:none;stroke:#cccccc;stroke-linecap:round;stroke-width:0.8;"/>
     </g>
     <g id="text_13">
      <!-- 1.00 -->
      <g style="fill:#262626;" transform="translate(114.734375 151.452637)scale(0.1 -0.1)">
       <defs>
        <path d="M 794 531 
L 1825 531 
L 1825 4091 
L 703 3866 
L 703 4441 
L 1819 4666 
L 2450 4666 
L 2450 531 
L 3481 531 
L 3481 0 
L 794 0 
L 794 531 
z
" id="DejaVuSans-31" transform="scale(0.015625)"/>
       </defs>
       <use xlink:href="#DejaVuSans-31"/>
       <use x="63.623047" xlink:href="#DejaVuSans-2e"/>
       <use x="95.410156" xlink:href="#DejaVuSans-30"/>
       <use x="159.033203" xlink:href="#DejaVuSans-30"/>
      </g>
     </g>
    </g>
    <g id="ytick_8">
     <g id="line2d_8">
      <path clip-path="url(#pe807e838db)" d="M 144 85.710371 
L 1036.8 85.710371 
" style="fill:none;stroke:#cccccc;stroke-linecap:round;stroke-width:0.8;"/>
     </g>
     <g id="text_14">
      <!-- 1.25 -->
      <g style="fill:#262626;" transform="translate(114.734375 89.50959)scale(0.1 -0.1)">
       <use xlink:href="#DejaVuSans-31"/>
       <use x="63.623047" xlink:href="#DejaVuSans-2e"/>
       <use x="95.410156" xlink:href="#DejaVuSans-32"/>
       <use x="159.033203" xlink:href="#DejaVuSans-35"/>
      </g>
     </g>
    </g>
    <g id="text_15">
     <!-- silhouette score -->
     <g style="fill:#262626;" transform="translate(100.275 362.255)rotate(-90)scale(0.1 -0.1)">
      <defs>
       <path d="M 3513 2113 
L 3513 0 
L 2938 0 
L 2938 2094 
Q 2938 2591 2744 2837 
Q 2550 3084 2163 3084 
Q 1697 3084 1428 2787 
Q 1159 2491 1159 1978 
L 1159 0 
L 581 0 
L 581 4863 
L 1159 4863 
L 1159 2956 
Q 1366 3272 1645 3428 
Q 1925 3584 2291 3584 
Q 2894 3584 3203 3211 
Q 3513 2838 3513 2113 
z
" id="DejaVuSans-68" transform="scale(0.015625)"/>
       <path id="DejaVuSans-20" transform="scale(0.015625)"/>
       <path d="M 3122 3366 
L 3122 2828 
Q 2878 2963 2633 3030 
Q 2388 3097 2138 3097 
Q 1578 3097 1268 2742 
Q 959 2388 959 1747 
Q 959 1106 1268 751 
Q 1578 397 2138 397 
Q 2388 397 2633 464 
Q 2878 531 3122 666 
L 3122 134 
Q 2881 22 2623 -34 
Q 2366 -91 2075 -91 
Q 1284 -91 818 406 
Q 353 903 353 1747 
Q 353 2603 823 3093 
Q 1294 3584 2113 3584 
Q 2378 3584 2631 3529 
Q 2884 3475 3122 3366 
z
" id="DejaVuSans-63" transform="scale(0.015625)"/>
      </defs>
      <use xlink:href="#DejaVuSans-73"/>
      <use x="52.099609" xlink:href="#DejaVuSans-69"/>
      <use x="79.882812" xlink:href="#DejaVuSans-6c"/>
      <use x="107.666016" xlink:href="#DejaVuSans-68"/>
      <use x="171.044922" xlink:href="#DejaVuSans-6f"/>
      <use x="232.226562" xlink:href="#DejaVuSans-75"/>
      <use x="295.605469" xlink:href="#DejaVuSans-65"/>
      <use x="357.128906" xlink:href="#DejaVuSans-74"/>
      <use x="396.337891" xlink:href="#DejaVuSans-74"/>
      <use x="435.546875" xlink:href="#DejaVuSans-65"/>
      <use x="497.070312" xlink:href="#DejaVuSans-20"/>
      <use x="528.857422" xlink:href="#DejaVuSans-73"/>
      <use x="580.957031" xlink:href="#DejaVuSans-63"/>
      <use x="635.9375" xlink:href="#DejaVuSans-6f"/>
      <use x="697.119141" xlink:href="#DejaVuSans-72"/>
      <use x="735.982422" xlink:href="#DejaVuSans-65"/>
     </g>
    </g>
   </g>
   <g id="PolyCollection_1">
    <defs>
     <path d="M 233.28 -270.613256 
L 231.29158 -270.613256 
L 230.71648 -272.245559 
L 230.011554 -273.877862 
L 229.158378 -275.510165 
L 228.138802 -277.142468 
L 226.935779 -278.774772 
L 225.534316 -280.407075 
L 223.922504 -282.039378 
L 222.092565 -283.671681 
L 220.041874 -285.303984 
L 217.773861 -286.936287 
L 215.298721 -288.56859 
L 212.633875 -290.200893 
L 209.804081 -291.833196 
L 206.841182 -293.465499 
L 203.78343 -295.097802 
L 200.674401 -296.730105 
L 197.561538 -298.362409 
L 194.494351 -299.994712 
L 191.522415 -301.627015 
L 188.693236 -303.259318 
L 186.050156 -304.891621 
L 183.630418 -306.523924 
L 181.463537 -308.156227 
L 179.570083 -309.78853 
L 177.960972 -311.420833 
L 176.637304 -313.053136 
L 175.59075 -314.685439 
L 174.804439 -316.317742 
L 174.254267 -317.950046 
L 173.910491 -319.582349 
L 173.739498 -321.214652 
L 173.705581 -322.846955 
L 173.772608 -324.479258 
L 173.905472 -326.111561 
L 174.071255 -327.743864 
L 174.240068 -329.376167 
L 174.385576 -331.00847 
L 174.485246 -332.640773 
L 174.520378 -334.273076 
L 174.476007 -335.90538 
L 174.340728 -337.537683 
L 174.106534 -339.169986 
L 173.76869 -340.802289 
L 173.32568 -342.434592 
L 172.779204 -344.066895 
L 172.134218 -345.699198 
L 171.398961 -347.331501 
L 170.584928 -348.963804 
L 169.706751 -350.596107 
L 168.781948 -352.22841 
L 167.830536 -353.860713 
L 166.874513 -355.493017 
L 165.937244 -357.12532 
L 165.042788 -358.757623 
L 164.215224 -360.389926 
L 163.478037 -362.022229 
L 162.853586 -363.654532 
L 162.362714 -365.286835 
L 162.024476 -366.919138 
L 161.856 -368.551441 
L 161.87243 -370.183744 
L 162.08692 -371.816047 
L 162.510623 -373.448351 
L 163.15265 -375.080654 
L 164.019944 -376.712957 
L 165.117086 -378.34526 
L 166.446017 -379.977563 
L 168.005723 -381.609866 
L 169.791914 -383.242169 
L 171.796741 -384.874472 
L 174.00862 -386.506775 
L 176.412175 -388.139078 
L 178.98836 -389.771381 
L 181.71473 -391.403684 
L 184.565897 -393.035988 
L 187.514107 -394.668291 
L 190.529933 -396.300594 
L 193.58302 -397.932897 
L 196.642858 -399.5652 
L 199.679528 -401.197503 
L 202.664398 -402.829806 
L 205.570747 -404.462109 
L 208.374291 -406.094412 
L 211.053617 -407.726715 
L 213.590514 -409.359018 
L 215.970198 -410.991321 
L 218.181449 -412.623625 
L 220.216641 -414.255928 
L 222.071687 -415.888231 
L 223.745892 -417.520534 
L 225.241718 -419.152837 
L 226.564477 -420.78514 
L 227.721956 -422.417443 
L 228.723991 -424.049746 
L 229.582009 -425.682049 
L 230.30855 -427.314352 
L 230.916807 -428.946655 
L 231.420186 -430.578959 
L 231.831908 -432.211262 
L 233.28 -432.211262 
L 233.28 -432.211262 
L 233.28 -430.578959 
L 233.28 -428.946655 
L 233.28 -427.314352 
L 233.28 -425.682049 
L 233.28 -424.049746 
L 233.28 -422.417443 
L 233.28 -420.78514 
L 233.28 -419.152837 
L 233.28 -417.520534 
L 233.28 -415.888231 
L 233.28 -414.255928 
L 233.28 -412.623625 
L 233.28 -410.991321 
L 233.28 -409.359018 
L 233.28 -407.726715 
L 233.28 -406.094412 
L 233.28 -404.462109 
L 233.28 -402.829806 
L 233.28 -401.197503 
L 233.28 -399.5652 
L 233.28 -397.932897 
L 233.28 -396.300594 
L 233.28 -394.668291 
L 233.28 -393.035988 
L 233.28 -391.403684 
L 233.28 -389.771381 
L 233.28 -388.139078 
L 233.28 -386.506775 
L 233.28 -384.874472 
L 233.28 -383.242169 
L 233.28 -381.609866 
L 233.28 -379.977563 
L 233.28 -378.34526 
L 233.28 -376.712957 
L 233.28 -375.080654 
L 233.28 -373.448351 
L 233.28 -371.816047 
L 233.28 -370.183744 
L 233.28 -368.551441 
L 233.28 -366.919138 
L 233.28 -365.286835 
L 233.28 -363.654532 
L 233.28 -362.022229 
L 233.28 -360.389926 
L 233.28 -358.757623 
L 233.28 -357.12532 
L 233.28 -355.493017 
L 233.28 -353.860713 
L 233.28 -352.22841 
L 233.28 -350.596107 
L 233.28 -348.963804 
L 233.28 -347.331501 
L 233.28 -345.699198 
L 233.28 -344.066895 
L 233.28 -342.434592 
L 233.28 -340.802289 
L 233.28 -339.169986 
L 233.28 -337.537683 
L 233.28 -335.90538 
L 233.28 -334.273076 
L 233.28 -332.640773 
L 233.28 -331.00847 
L 233.28 -329.376167 
L 233.28 -327.743864 
L 233.28 -326.111561 
L 233.28 -324.479258 
L 233.28 -322.846955 
L 233.28 -321.214652 
L 233.28 -319.582349 
L 233.28 -317.950046 
L 233.28 -316.317742 
L 233.28 -314.685439 
L 233.28 -313.053136 
L 233.28 -311.420833 
L 233.28 -309.78853 
L 233.28 -308.156227 
L 233.28 -306.523924 
L 233.28 -304.891621 
L 233.28 -303.259318 
L 233.28 -301.627015 
L 233.28 -299.994712 
L 233.28 -298.362409 
L 233.28 -296.730105 
L 233.28 -295.097802 
L 233.28 -293.465499 
L 233.28 -291.833196 
L 233.28 -290.200893 
L 233.28 -288.56859 
L 233.28 -286.936287 
L 233.28 -285.303984 
L 233.28 -283.671681 
L 233.28 -282.039378 
L 233.28 -280.407075 
L 233.28 -278.774772 
L 233.28 -277.142468 
L 233.28 -275.510165 
L 233.28 -273.877862 
L 233.28 -272.245559 
L 233.28 -270.613256 
z
" id="mf1036998a5" style="stroke:#3f3f3f;stroke-width:1.5;"/>
    </defs>
    <g clip-path="url(#pe807e838db)">
     <use style="fill:#3274a1;stroke:#3f3f3f;stroke-width:1.5;" x="0" xlink:href="#mf1036998a5" y="648"/>
    </g>
   </g>
   <g id="PolyCollection_2">
    <defs>
     <path d="M 233.539807 -146.389483 
L 233.28 -146.389483 
L 233.28 -149.455915 
L 233.28 -152.522347 
L 233.28 -155.588779 
L 233.28 -158.65521 
L 233.28 -161.721642 
L 233.28 -164.788074 
L 233.28 -167.854506 
L 233.28 -170.920938 
L 233.28 -173.98737 
L 233.28 -177.053802 
L 233.28 -180.120233 
L 233.28 -183.186665 
L 233.28 -186.253097 
L 233.28 -189.319529 
L 233.28 -192.385961 
L 233.28 -195.452393 
L 233.28 -198.518825 
L 233.28 -201.585256 
L 233.28 -204.651688 
L 233.28 -207.71812 
L 233.28 -210.784552 
L 233.28 -213.850984 
L 233.28 -216.917416 
L 233.28 -219.983848 
L 233.28 -223.050279 
L 233.28 -226.116711 
L 233.28 -229.183143 
L 233.28 -232.249575 
L 233.28 -235.316007 
L 233.28 -238.382439 
L 233.28 -241.44887 
L 233.28 -244.515302 
L 233.28 -247.581734 
L 233.28 -250.648166 
L 233.28 -253.714598 
L 233.28 -256.78103 
L 233.28 -259.847462 
L 233.28 -262.913893 
L 233.28 -265.980325 
L 233.28 -269.046757 
L 233.28 -272.113189 
L 233.28 -275.179621 
L 233.28 -278.246053 
L 233.28 -281.312485 
L 233.28 -284.378916 
L 233.28 -287.445348 
L 233.28 -290.51178 
L 233.28 -293.578212 
L 233.28 -296.644644 
L 233.28 -299.711076 
L 233.28 -302.777508 
L 233.28 -305.843939 
L 233.28 -308.910371 
L 233.28 -311.976803 
L 233.28 -315.043235 
L 233.28 -318.109667 
L 233.28 -321.176099 
L 233.28 -324.24253 
L 233.28 -327.308962 
L 233.28 -330.375394 
L 233.28 -333.441826 
L 233.28 -336.508258 
L 233.28 -339.57469 
L 233.28 -342.641122 
L 233.28 -345.707553 
L 233.28 -348.773985 
L 233.28 -351.840417 
L 233.28 -354.906849 
L 233.28 -357.973281 
L 233.28 -361.039713 
L 233.28 -364.106145 
L 233.28 -367.172576 
L 233.28 -370.239008 
L 233.28 -373.30544 
L 233.28 -376.371872 
L 233.28 -379.438304 
L 233.28 -382.504736 
L 233.28 -385.571168 
L 233.28 -388.637599 
L 233.28 -391.704031 
L 233.28 -394.770463 
L 233.28 -397.836895 
L 233.28 -400.903327 
L 233.28 -403.969759 
L 233.28 -407.036191 
L 233.28 -410.102622 
L 233.28 -413.169054 
L 233.28 -416.235486 
L 233.28 -419.301918 
L 233.28 -422.36835 
L 233.28 -425.434782 
L 233.28 -428.501213 
L 233.28 -431.567645 
L 233.28 -434.634077 
L 233.28 -437.700509 
L 233.28 -440.766941 
L 233.28 -443.833373 
L 233.28 -446.899805 
L 233.28 -449.966236 
L 233.525655 -449.966236 
L 233.525655 -449.966236 
L 233.646427 -446.899805 
L 233.807282 -443.833373 
L 234.01248 -440.766941 
L 234.263223 -437.700509 
L 234.556901 -434.634077 
L 234.887092 -431.567645 
L 235.244589 -428.501213 
L 235.619453 -425.434782 
L 236.00382 -422.36835 
L 236.39483 -419.301918 
L 236.796916 -416.235486 
L 237.222699 -413.169054 
L 237.69206 -410.102622 
L 238.229411 -407.036191 
L 238.85973 -403.969759 
L 239.60435 -400.903327 
L 240.47763 -397.836895 
L 241.485489 -394.770463 
L 242.626254 -391.704031 
L 243.893609 -388.637599 
L 245.280714 -385.571168 
L 246.784097 -382.504736 
L 248.405878 -379.438304 
L 250.153318 -376.371872 
L 252.035566 -373.30544 
L 254.058467 -370.239008 
L 256.219088 -367.172576 
L 258.501854 -364.106145 
L 260.877753 -361.039713 
L 263.307031 -357.973281 
L 265.744671 -354.906849 
L 268.147062 -351.840417 
L 270.478073 -348.773985 
L 272.713238 -345.707553 
L 274.841602 -342.641122 
L 276.86561 -339.57469 
L 278.799754 -336.508258 
L 280.668503 -333.441826 
L 282.503527 -330.375394 
L 284.339822 -327.308962 
L 286.210352 -324.24253 
L 288.139317 -321.176099 
L 290.134911 -318.109667 
L 292.18291 -315.043235 
L 294.242522 -311.976803 
L 296.245463 -308.910371 
L 298.098565 -305.843939 
L 299.689641 -302.777508 
L 300.896118 -299.711076 
L 301.595902 -296.644644 
L 301.679888 -293.578212 
L 301.06512 -290.51178 
L 299.706944 -287.445348 
L 297.607831 -284.378916 
L 294.820481 -281.312485 
L 291.443593 -278.246053 
L 287.610381 -275.179621 
L 283.471887 -272.113189 
L 279.178764 -269.046757 
L 274.865601 -265.980325 
L 270.641022 -262.913893 
L 266.584829 -259.847462 
L 262.751284 -256.78103 
L 259.17597 -253.714598 
L 255.883137 -250.648166 
L 252.891042 -247.581734 
L 250.214139 -244.515302 
L 247.862473 -241.44887 
L 245.839551 -238.382439 
L 244.140263 -235.316007 
L 242.74994 -232.249575 
L 241.644939 -229.183143 
L 240.794434 -226.116711 
L 240.162789 -223.050279 
L 239.71192 -219.983848 
L 239.403313 -216.917416 
L 239.199684 -213.850984 
L 239.066367 -210.784552 
L 238.972512 -207.71812 
L 238.892023 -204.651688 
L 238.804076 -201.585256 
L 238.693087 -198.518825 
L 238.548143 -195.452393 
L 238.362122 -192.385961 
L 238.130846 -189.319529 
L 237.852596 -186.253097 
L 237.528145 -183.186665 
L 237.161201 -180.120233 
L 236.758926 -177.053802 
L 236.332115 -173.98737 
L 235.894711 -170.920938 
L 235.462566 -167.854506 
L 235.051638 -164.788074 
L 234.676018 -161.721642 
L 234.346267 -158.65521 
L 234.068405 -155.588779 
L 233.843745 -152.522347 
L 233.669481 -149.455915 
L 233.539807 -146.389483 
z
" id="m882d68aa50" style="stroke:#3f3f3f;stroke-width:1.5;"/>
    </defs>
    <g clip-path="url(#pe807e838db)">
     <use style="fill:#e1812c;stroke:#3f3f3f;stroke-width:1.5;" x="0" xlink:href="#m882d68aa50" y="648"/>
    </g>
   </g>
   <g id="PolyCollection_3">
    <defs>
     <path d="M 411.84 -260.487427 
L 411.306216 -260.487427 
L 411.133251 -261.421135 
L 410.918798 -262.354843 
L 410.657588 -263.288551 
L 410.344937 -264.222259 
L 409.977066 -265.155968 
L 409.551376 -266.089676 
L 409.066649 -267.023384 
L 408.523147 -267.957092 
L 407.922571 -268.8908 
L 407.267895 -269.824509 
L 406.56307 -270.758217 
L 405.812632 -271.691925 
L 405.021269 -272.625633 
L 404.193386 -273.559341 
L 403.332745 -274.493049 
L 402.442204 -275.426758 
L 401.523619 -276.360466 
L 400.577882 -277.294174 
L 399.605128 -278.227882 
L 398.60503 -279.16159 
L 397.577173 -280.095299 
L 396.521419 -281.029007 
L 395.438206 -281.962715 
L 394.328742 -282.896423 
L 393.195028 -283.830131 
L 392.039715 -284.763839 
L 390.865762 -285.697548 
L 389.675945 -286.631256 
L 388.472222 -287.564964 
L 387.255041 -288.498672 
L 386.022634 -289.43238 
L 384.770398 -290.366089 
L 383.490439 -291.299797 
L 382.17138 -292.233505 
L 380.798508 -293.167213 
L 379.354326 -294.100921 
L 377.819536 -295.034629 
L 376.174451 -295.968338 
L 374.400779 -296.902046 
L 372.483654 -297.835754 
L 370.413778 -298.769462 
L 368.189466 -299.70317 
L 365.818398 -300.636879 
L 363.318864 -301.570587 
L 360.720342 -302.504295 
L 358.063287 -303.438003 
L 355.398066 -304.371711 
L 352.783084 -305.305419 
L 350.282188 -306.239128 
L 347.961512 -307.172836 
L 345.885987 -308.106544 
L 344.115773 -309.040252 
L 342.702854 -309.97396 
L 341.688059 -310.907669 
L 341.098736 -311.841377 
L 340.947219 -312.775085 
L 341.230241 -313.708793 
L 341.929291 -314.642501 
L 343.011922 -315.576209 
L 344.433888 -316.509918 
L 346.141961 -317.443626 
L 348.077235 -318.377334 
L 350.178674 -319.311042 
L 352.38666 -320.24475 
L 354.64633 -321.178459 
L 356.910448 -322.112167 
L 359.141655 -323.045875 
L 361.313942 -323.979583 
L 363.413252 -324.913291 
L 365.437173 -325.846999 
L 367.393747 -326.780708 
L 369.299498 -327.714416 
L 371.176828 -328.648124 
L 373.051015 -329.581832 
L 374.947077 -330.51554 
L 376.88679 -331.449248 
L 378.886139 -332.382957 
L 380.95344 -333.316665 
L 383.088293 -334.250373 
L 385.281436 -335.184081 
L 387.515473 -336.117789 
L 389.766339 -337.051498 
L 392.005315 -337.985206 
L 394.201336 -338.918914 
L 396.323342 -339.852622 
L 398.342437 -340.78633 
L 400.23367 -341.720038 
L 401.977323 -342.653747 
L 403.559654 -343.587455 
L 404.973101 -344.521163 
L 406.216025 -345.454871 
L 407.292078 -346.388579 
L 408.209326 -347.322288 
L 408.979227 -348.255996 
L 409.615579 -349.189704 
L 410.133522 -350.123412 
L 410.548648 -351.05712 
L 410.876269 -351.990828 
L 411.13085 -352.924537 
L 411.84 -352.924537 
L 411.84 -352.924537 
L 411.84 -351.990828 
L 411.84 -351.05712 
L 411.84 -350.123412 
L 411.84 -349.189704 
L 411.84 -348.255996 
L 411.84 -347.322288 
L 411.84 -346.388579 
L 411.84 -345.454871 
L 411.84 -344.521163 
L 411.84 -343.587455 
L 411.84 -342.653747 
L 411.84 -341.720038 
L 411.84 -340.78633 
L 411.84 -339.852622 
L 411.84 -338.918914 
L 411.84 -337.985206 
L 411.84 -337.051498 
L 411.84 -336.117789 
L 411.84 -335.184081 
L 411.84 -334.250373 
L 411.84 -333.316665 
L 411.84 -332.382957 
L 411.84 -331.449248 
L 411.84 -330.51554 
L 411.84 -329.581832 
L 411.84 -328.648124 
L 411.84 -327.714416 
L 411.84 -326.780708 
L 411.84 -325.846999 
L 411.84 -324.913291 
L 411.84 -323.979583 
L 411.84 -323.045875 
L 411.84 -322.112167 
L 411.84 -321.178459 
L 411.84 -320.24475 
L 411.84 -319.311042 
L 411.84 -318.377334 
L 411.84 -317.443626 
L 411.84 -316.509918 
L 411.84 -315.576209 
L 411.84 -314.642501 
L 411.84 -313.708793 
L 411.84 -312.775085 
L 411.84 -311.841377 
L 411.84 -310.907669 
L 411.84 -309.97396 
L 411.84 -309.040252 
L 411.84 -308.106544 
L 411.84 -307.172836 
L 411.84 -306.239128 
L 411.84 -305.305419 
L 411.84 -304.371711 
L 411.84 -303.438003 
L 411.84 -302.504295 
L 411.84 -301.570587 
L 411.84 -300.636879 
L 411.84 -299.70317 
L 411.84 -298.769462 
L 411.84 -297.835754 
L 411.84 -296.902046 
L 411.84 -295.968338 
L 411.84 -295.034629 
L 411.84 -294.100921 
L 411.84 -293.167213 
L 411.84 -292.233505 
L 411.84 -291.299797 
L 411.84 -290.366089 
L 411.84 -289.43238 
L 411.84 -288.498672 
L 411.84 -287.564964 
L 411.84 -286.631256 
L 411.84 -285.697548 
L 411.84 -284.763839 
L 411.84 -283.830131 
L 411.84 -282.896423 
L 411.84 -281.962715 
L 411.84 -281.029007 
L 411.84 -280.095299 
L 411.84 -279.16159 
L 411.84 -278.227882 
L 411.84 -277.294174 
L 411.84 -276.360466 
L 411.84 -275.426758 
L 411.84 -274.493049 
L 411.84 -273.559341 
L 411.84 -272.625633 
L 411.84 -271.691925 
L 411.84 -270.758217 
L 411.84 -269.824509 
L 411.84 -268.8908 
L 411.84 -267.957092 
L 411.84 -267.023384 
L 411.84 -266.089676 
L 411.84 -265.155968 
L 411.84 -264.222259 
L 411.84 -263.288551 
L 411.84 -262.354843 
L 411.84 -261.421135 
L 411.84 -260.487427 
z
" id="mf64a75df6f" style="stroke:#3f3f3f;stroke-width:1.5;"/>
    </defs>
    <g clip-path="url(#pe807e838db)">
     <use style="fill:#3274a1;stroke:#3f3f3f;stroke-width:1.5;" x="0" xlink:href="#mf64a75df6f" y="648"/>
    </g>
   </g>
   <g id="PolyCollection_4">
    <defs>
     <path d="M 412.005028 -199.21986 
L 411.84 -199.21986 
L 411.84 -200.615076 
L 411.84 -202.010292 
L 411.84 -203.405509 
L 411.84 -204.800725 
L 411.84 -206.195942 
L 411.84 -207.591158 
L 411.84 -208.986375 
L 411.84 -210.381591 
L 411.84 -211.776807 
L 411.84 -213.172024 
L 411.84 -214.56724 
L 411.84 -215.962457 
L 411.84 -217.357673 
L 411.84 -218.75289 
L 411.84 -220.148106 
L 411.84 -221.543323 
L 411.84 -222.938539 
L 411.84 -224.333755 
L 411.84 -225.728972 
L 411.84 -227.124188 
L 411.84 -228.519405 
L 411.84 -229.914621 
L 411.84 -231.309838 
L 411.84 -232.705054 
L 411.84 -234.10027 
L 411.84 -235.495487 
L 411.84 -236.890703 
L 411.84 -238.28592 
L 411.84 -239.681136 
L 411.84 -241.076353 
L 411.84 -242.471569 
L 411.84 -243.866785 
L 411.84 -245.262002 
L 411.84 -246.657218 
L 411.84 -248.052435 
L 411.84 -249.447651 
L 411.84 -250.842868 
L 411.84 -252.238084 
L 411.84 -253.633301 
L 411.84 -255.028517 
L 411.84 -256.423733 
L 411.84 -257.81895 
L 411.84 -259.214166 
L 411.84 -260.609383 
L 411.84 -262.004599 
L 411.84 -263.399816 
L 411.84 -264.795032 
L 411.84 -266.190248 
L 411.84 -267.585465 
L 411.84 -268.980681 
L 411.84 -270.375898 
L 411.84 -271.771114 
L 411.84 -273.166331 
L 411.84 -274.561547 
L 411.84 -275.956764 
L 411.84 -277.35198 
L 411.84 -278.747196 
L 411.84 -280.142413 
L 411.84 -281.537629 
L 411.84 -282.932846 
L 411.84 -284.328062 
L 411.84 -285.723279 
L 411.84 -287.118495 
L 411.84 -288.513711 
L 411.84 -289.908928 
L 411.84 -291.304144 
L 411.84 -292.699361 
L 411.84 -294.094577 
L 411.84 -295.489794 
L 411.84 -296.88501 
L 411.84 -298.280226 
L 411.84 -299.675443 
L 411.84 -301.070659 
L 411.84 -302.465876 
L 411.84 -303.861092 
L 411.84 -305.256309 
L 411.84 -306.651525 
L 411.84 -308.046742 
L 411.84 -309.441958 
L 411.84 -310.837174 
L 411.84 -312.232391 
L 411.84 -313.627607 
L 411.84 -315.022824 
L 411.84 -316.41804 
L 411.84 -317.813257 
L 411.84 -319.208473 
L 411.84 -320.603689 
L 411.84 -321.998906 
L 411.84 -323.394122 
L 411.84 -324.789339 
L 411.84 -326.184555 
L 411.84 -327.579772 
L 411.84 -328.974988 
L 411.84 -330.370204 
L 411.84 -331.765421 
L 411.84 -333.160637 
L 411.84 -334.555854 
L 411.84 -335.95107 
L 411.84 -337.346287 
L 412.060187 -337.346287 
L 412.060187 -337.346287 
L 412.180752 -335.95107 
L 412.352441 -334.555854 
L 412.590177 -333.160637 
L 412.911167 -331.765421 
L 413.335144 -330.370204 
L 413.884921 -328.974988 
L 414.587335 -327.579772 
L 415.474496 -326.184555 
L 416.585067 -324.789339 
L 417.965074 -323.394122 
L 419.667612 -321.998906 
L 421.750768 -320.603689 
L 424.273254 -319.208473 
L 427.287594 -317.813257 
L 430.831195 -316.41804 
L 434.916242 -315.022824 
L 439.51987 -313.627607 
L 444.57642 -312.232391 
L 449.973632 -310.837174 
L 455.554278 -309.441958 
L 461.123992 -308.046742 
L 466.465035 -306.651525 
L 471.354581 -305.256309 
L 475.585087 -303.861092 
L 478.98377 -302.465876 
L 481.428155 -301.070659 
L 482.855365 -299.675443 
L 483.264 -298.280226 
L 482.708867 -296.88501 
L 481.290161 -295.489794 
L 479.139543 -294.094577 
L 476.405759 -292.699361 
L 473.241968 -291.304144 
L 469.796027 -289.908928 
L 466.203881 -288.513711 
L 462.585402 -287.118495 
L 459.041603 -285.723279 
L 455.652345 -284.328062 
L 452.474238 -282.932846 
L 449.539175 -281.537629 
L 446.854468 -280.142413 
L 444.405668 -278.747196 
L 442.162688 -277.35198 
L 440.088952 -275.956764 
L 438.152153 -274.561547 
L 436.334351 -273.166331 
L 434.638697 -271.771114 
L 433.090521 -270.375898 
L 431.731658 -268.980681 
L 430.608641 -267.585465 
L 429.757189 -266.190248 
L 429.186823 -264.795032 
L 428.869877 -263.399816 
L 428.738429 -262.004599 
L 428.690799 -260.609383 
L 428.606783 -259.214166 
L 428.368341 -257.81895 
L 427.880873 -256.423733 
L 427.090007 -255.028517 
L 425.990075 -253.633301 
L 424.622729 -252.238084 
L 423.066753 -250.842868 
L 421.422218 -249.447651 
L 419.793074 -248.052435 
L 418.272003 -246.657218 
L 416.930079 -245.262002 
L 415.812101 -243.866785 
L 414.936947 -242.471569 
L 414.301363 -241.076353 
L 413.885377 -239.681136 
L 413.657884 -238.28592 
L 413.581548 -236.890703 
L 413.616788 -235.495487 
L 413.724984 -234.10027 
L 413.871134 -232.705054 
L 414.026041 -231.309838 
L 414.167909 -229.914621 
L 414.283088 -228.519405 
L 414.365707 -227.124188 
L 414.416153 -225.728972 
L 414.438649 -224.333755 
L 414.438476 -222.938539 
L 414.419503 -221.543323 
L 414.382653 -220.148106 
L 414.325645 -218.75289 
L 414.243966 -217.357673 
L 414.132713 -215.962457 
L 413.988655 -214.56724 
L 413.811908 -213.172024 
L 413.606734 -211.776807 
L 413.381293 -210.381591 
L 413.146477 -208.986375 
L 412.914189 -207.591158 
L 412.695538 -206.195942 
L 412.499353 -204.800725 
L 412.331308 -203.405509 
L 412.193718 -202.010292 
L 412.085918 -200.615076 
L 412.005028 -199.21986 
z
" id="m9e0b27552b" style="stroke:#3f3f3f;stroke-width:1.5;"/>
    </defs>
    <g clip-path="url(#pe807e838db)">
     <use style="fill:#e1812c;stroke:#3f3f3f;stroke-width:1.5;" x="0" xlink:href="#m9e0b27552b" y="648"/>
    </g>
   </g>
   <g id="PolyCollection_5">
    <defs>
     <path d="M 590.4 -262.497103 
L 589.46097 -262.497103 
L 589.175762 -263.44145 
L 588.824069 -264.385796 
L 588.396608 -265.330143 
L 587.884469 -266.27449 
L 587.2796 -267.218837 
L 586.575334 -268.163183 
L 585.766927 -269.10753 
L 584.852068 -270.051877 
L 583.831334 -270.996224 
L 582.70854 -271.94057 
L 581.49096 -272.884917 
L 580.189377 -273.829264 
L 578.817959 -274.773611 
L 577.393943 -275.717958 
L 575.937129 -276.662304 
L 574.469199 -277.606651 
L 573.012894 -278.550998 
L 571.591066 -279.495345 
L 570.225652 -280.439691 
L 568.936621 -281.384038 
L 567.740934 -282.328385 
L 566.65157 -283.272732 
L 565.676679 -284.217078 
L 564.818906 -285.161425 
L 564.074939 -286.105772 
L 563.435322 -287.050119 
L 562.884558 -287.994466 
L 562.401535 -288.938812 
L 561.960243 -289.883159 
L 561.530784 -290.827506 
L 561.080611 -291.771853 
L 560.57594 -292.716199 
L 559.983243 -293.660546 
L 559.270754 -294.604893 
L 558.409879 -295.54924 
L 557.376464 -296.493586 
L 556.151836 -297.437933 
L 554.723611 -298.38228 
L 553.086245 -299.326627 
L 551.24135 -300.270973 
L 549.197803 -301.21532 
L 546.971686 -302.159667 
L 544.586099 -303.104014 
L 542.070858 -304.048361 
L 539.462111 -304.992707 
L 536.801844 -305.937054 
L 534.137266 -306.881401 
L 531.520033 -307.825748 
L 529.005273 -308.770094 
L 526.650394 -309.714441 
L 524.513644 -310.658788 
L 522.652441 -311.603135 
L 521.121524 -312.547481 
L 519.97097 -313.491828 
L 519.244189 -314.436175 
L 518.976 -315.380522 
L 519.190911 -316.324869 
L 519.901725 -317.269215 
L 521.108567 -318.213562 
L 522.79843 -319.157909 
L 524.945277 -320.102256 
L 527.510724 -321.046602 
L 530.44528 -321.990949 
L 533.690096 -322.935296 
L 537.179133 -323.879643 
L 540.841644 -324.823989 
L 544.604848 -325.768336 
L 548.396661 -326.712683 
L 552.148339 -327.65703 
L 555.796927 -328.601376 
L 559.287355 -329.545723 
L 562.574114 -330.49007 
L 565.62241 -331.434417 
L 568.408745 -332.378764 
L 570.920915 -333.32311 
L 573.157428 -334.267457 
L 575.126408 -335.211804 
L 576.844061 -336.156151 
L 578.332824 -337.100497 
L 579.619344 -338.044844 
L 580.732418 -338.989191 
L 581.701047 -339.933538 
L 582.552743 -340.877884 
L 583.312164 -341.822231 
L 584.000167 -342.766578 
L 584.633289 -343.710925 
L 585.223641 -344.655272 
L 585.779169 -345.599618 
L 586.304204 -346.543965 
L 586.800191 -347.488312 
L 587.266527 -348.432659 
L 587.701382 -349.377005 
L 588.102461 -350.321352 
L 588.467618 -351.265699 
L 588.795313 -352.210046 
L 589.084896 -353.154392 
L 589.336723 -354.098739 
L 589.55214 -355.043086 
L 589.733355 -355.987433 
L 590.4 -355.987433 
L 590.4 -355.987433 
L 590.4 -355.043086 
L 590.4 -354.098739 
L 590.4 -353.154392 
L 590.4 -352.210046 
L 590.4 -351.265699 
L 590.4 -350.321352 
L 590.4 -349.377005 
L 590.4 -348.432659 
L 590.4 -347.488312 
L 590.4 -346.543965 
L 590.4 -345.599618 
L 590.4 -344.655272 
L 590.4 -343.710925 
L 590.4 -342.766578 
L 590.4 -341.822231 
L 590.4 -340.877884 
L 590.4 -339.933538 
L 590.4 -338.989191 
L 590.4 -338.044844 
L 590.4 -337.100497 
L 590.4 -336.156151 
L 590.4 -335.211804 
L 590.4 -334.267457 
L 590.4 -333.32311 
L 590.4 -332.378764 
L 590.4 -331.434417 
L 590.4 -330.49007 
L 590.4 -329.545723 
L 590.4 -328.601376 
L 590.4 -327.65703 
L 590.4 -326.712683 
L 590.4 -325.768336 
L 590.4 -324.823989 
L 590.4 -323.879643 
L 590.4 -322.935296 
L 590.4 -321.990949 
L 590.4 -321.046602 
L 590.4 -320.102256 
L 590.4 -319.157909 
L 590.4 -318.213562 
L 590.4 -317.269215 
L 590.4 -316.324869 
L 590.4 -315.380522 
L 590.4 -314.436175 
L 590.4 -313.491828 
L 590.4 -312.547481 
L 590.4 -311.603135 
L 590.4 -310.658788 
L 590.4 -309.714441 
L 590.4 -308.770094 
L 590.4 -307.825748 
L 590.4 -306.881401 
L 590.4 -305.937054 
L 590.4 -304.992707 
L 590.4 -304.048361 
L 590.4 -303.104014 
L 590.4 -302.159667 
L 590.4 -301.21532 
L 590.4 -300.270973 
L 590.4 -299.326627 
L 590.4 -298.38228 
L 590.4 -297.437933 
L 590.4 -296.493586 
L 590.4 -295.54924 
L 590.4 -294.604893 
L 590.4 -293.660546 
L 590.4 -292.716199 
L 590.4 -291.771853 
L 590.4 -290.827506 
L 590.4 -289.883159 
L 590.4 -288.938812 
L 590.4 -287.994466 
L 590.4 -287.050119 
L 590.4 -286.105772 
L 590.4 -285.161425 
L 590.4 -284.217078 
L 590.4 -283.272732 
L 590.4 -282.328385 
L 590.4 -281.384038 
L 590.4 -280.439691 
L 590.4 -279.495345 
L 590.4 -278.550998 
L 590.4 -277.606651 
L 590.4 -276.662304 
L 590.4 -275.717958 
L 590.4 -274.773611 
L 590.4 -273.829264 
L 590.4 -272.884917 
L 590.4 -271.94057 
L 590.4 -270.996224 
L 590.4 -270.051877 
L 590.4 -269.10753 
L 590.4 -268.163183 
L 590.4 -267.218837 
L 590.4 -266.27449 
L 590.4 -265.330143 
L 590.4 -264.385796 
L 590.4 -263.44145 
L 590.4 -262.497103 
z
" id="mc4502fc6cb" style="stroke:#3f3f3f;stroke-width:1.5;"/>
    </defs>
    <g clip-path="url(#pe807e838db)">
     <use style="fill:#3274a1;stroke:#3f3f3f;stroke-width:1.5;" x="0" xlink:href="#mc4502fc6cb" y="648"/>
    </g>
   </g>
   <g id="PolyCollection_6">
    <defs>
     <path d="M 590.565404 -192.063453 
L 590.4 -192.063453 
L 590.4 -193.67156 
L 590.4 -195.279666 
L 590.4 -196.887773 
L 590.4 -198.49588 
L 590.4 -200.103986 
L 590.4 -201.712093 
L 590.4 -203.3202 
L 590.4 -204.928306 
L 590.4 -206.536413 
L 590.4 -208.14452 
L 590.4 -209.752626 
L 590.4 -211.360733 
L 590.4 -212.96884 
L 590.4 -214.576946 
L 590.4 -216.185053 
L 590.4 -217.79316 
L 590.4 -219.401266 
L 590.4 -221.009373 
L 590.4 -222.61748 
L 590.4 -224.225586 
L 590.4 -225.833693 
L 590.4 -227.4418 
L 590.4 -229.049906 
L 590.4 -230.658013 
L 590.4 -232.26612 
L 590.4 -233.874226 
L 590.4 -235.482333 
L 590.4 -237.09044 
L 590.4 -238.698546 
L 590.4 -240.306653 
L 590.4 -241.914759 
L 590.4 -243.522866 
L 590.4 -245.130973 
L 590.4 -246.739079 
L 590.4 -248.347186 
L 590.4 -249.955293 
L 590.4 -251.563399 
L 590.4 -253.171506 
L 590.4 -254.779613 
L 590.4 -256.387719 
L 590.4 -257.995826 
L 590.4 -259.603933 
L 590.4 -261.212039 
L 590.4 -262.820146 
L 590.4 -264.428253 
L 590.4 -266.036359 
L 590.4 -267.644466 
L 590.4 -269.252573 
L 590.4 -270.860679 
L 590.4 -272.468786 
L 590.4 -274.076893 
L 590.4 -275.684999 
L 590.4 -277.293106 
L 590.4 -278.901213 
L 590.4 -280.509319 
L 590.4 -282.117426 
L 590.4 -283.725533 
L 590.4 -285.333639 
L 590.4 -286.941746 
L 590.4 -288.549853 
L 590.4 -290.157959 
L 590.4 -291.766066 
L 590.4 -293.374172 
L 590.4 -294.982279 
L 590.4 -296.590386 
L 590.4 -298.198492 
L 590.4 -299.806599 
L 590.4 -301.414706 
L 590.4 -303.022812 
L 590.4 -304.630919 
L 590.4 -306.239026 
L 590.4 -307.847132 
L 590.4 -309.455239 
L 590.4 -311.063346 
L 590.4 -312.671452 
L 590.4 -314.279559 
L 590.4 -315.887666 
L 590.4 -317.495772 
L 590.4 -319.103879 
L 590.4 -320.711986 
L 590.4 -322.320092 
L 590.4 -323.928199 
L 590.4 -325.536306 
L 590.4 -327.144412 
L 590.4 -328.752519 
L 590.4 -330.360626 
L 590.4 -331.968732 
L 590.4 -333.576839 
L 590.4 -335.184946 
L 590.4 -336.793052 
L 590.4 -338.401159 
L 590.4 -340.009266 
L 590.4 -341.617372 
L 590.4 -343.225479 
L 590.4 -344.833585 
L 590.4 -346.441692 
L 590.4 -348.049799 
L 590.4 -349.657905 
L 590.4 -351.266012 
L 590.557476 -351.266012 
L 590.557476 -351.266012 
L 590.636302 -349.657905 
L 590.747595 -348.049799 
L 590.90172 -346.441692 
L 591.111304 -344.833585 
L 591.391433 -343.225479 
L 591.759774 -341.617372 
L 592.236553 -340.009266 
L 592.844354 -338.401159 
L 593.607625 -336.793052 
L 594.551859 -335.184946 
L 595.702401 -333.576839 
L 597.082888 -331.968732 
L 598.71341 -330.360626 
L 600.608532 -328.752519 
L 602.77536 -327.144412 
L 605.211838 -325.536306 
L 607.905447 -323.928199 
L 610.832388 -322.320092 
L 613.957245 -320.711986 
L 617.233069 -319.103879 
L 620.601805 -317.495772 
L 623.995002 -315.887666 
L 627.334893 -314.279559 
L 630.536011 -312.671452 
L 633.507614 -311.063346 
L 636.157177 -309.455239 
L 638.395085 -307.847132 
L 640.140389 -306.239026 
L 641.327198 -304.630919 
L 641.910961 -303.022812 
L 641.873688 -301.414706 
L 641.22717 -299.806599 
L 640.013457 -298.198492 
L 638.302228 -296.590386 
L 636.185201 -294.982279 
L 633.768235 -293.374172 
L 631.162183 -291.766066 
L 628.47374 -290.157959 
L 625.79754 -288.549853 
L 623.2105 -286.941746 
L 620.768959 -285.333639 
L 618.508719 -283.725533 
L 616.447537 -282.117426 
L 614.589306 -280.509319 
L 612.928906 -278.901213 
L 611.456789 -277.293106 
L 610.162495 -275.684999 
L 609.0367 -274.076893 
L 608.071742 -272.468786 
L 607.260938 -270.860679 
L 606.597225 -269.252573 
L 606.071724 -267.644466 
L 605.672705 -266.036359 
L 605.385256 -264.428253 
L 605.191646 -262.820146 
L 605.072185 -261.212039 
L 605.006245 -259.603933 
L 604.973115 -257.995826 
L 604.952513 -256.387719 
L 604.924754 -254.779613 
L 604.870765 -253.171506 
L 604.772226 -251.563399 
L 604.612104 -249.955293 
L 604.375669 -248.347186 
L 604.051908 -246.739079 
L 603.635032 -245.130973 
L 603.125673 -243.522866 
L 602.531389 -241.914759 
L 601.866234 -240.306653 
L 601.149378 -238.698546 
L 600.402984 -237.09044 
L 599.649733 -235.482333 
L 598.910445 -233.874226 
L 598.202193 -232.26612 
L 597.537188 -230.658013 
L 596.922494 -229.049906 
L 596.360488 -227.4418 
L 595.849813 -225.833693 
L 595.386559 -224.225586 
L 594.965388 -222.61748 
L 594.580423 -221.009373 
L 594.225838 -219.401266 
L 593.896182 -217.79316 
L 593.58652 -216.185053 
L 593.29254 -214.576946 
L 593.010689 -212.96884 
L 592.738366 -211.360733 
L 592.47414 -209.752626 
L 592.217902 -208.14452 
L 591.970869 -206.536413 
L 591.735384 -204.928306 
L 591.514522 -203.3202 
L 591.31157 -201.712093 
L 591.129466 -200.103986 
L 590.970329 -198.49588 
L 590.835146 -196.887773 
L 590.72367 -195.279666 
L 590.634514 -193.67156 
L 590.565404 -192.063453 
z
" id="m553142b772" style="stroke:#3f3f3f;stroke-width:1.5;"/>
    </defs>
    <g clip-path="url(#pe807e838db)">
     <use style="fill:#e1812c;stroke:#3f3f3f;stroke-width:1.5;" x="0" xlink:href="#m553142b772" y="648"/>
    </g>
   </g>
   <g id="PolyCollection_7">
    <defs>
     <path d="M 768.96 -271.319422 
L 768.38691 -271.319422 
L 768.219447 -272.447378 
L 768.018865 -273.575333 
L 767.783511 -274.703289 
L 767.513011 -275.831244 
L 767.208482 -276.9592 
L 766.872605 -278.087156 
L 766.509508 -279.215111 
L 766.124432 -280.343067 
L 765.723156 -281.471022 
L 765.311214 -282.598978 
L 764.892933 -283.726933 
L 764.470395 -284.854889 
L 764.042429 -285.982844 
L 763.603758 -287.1108 
L 763.144423 -288.238756 
L 762.649607 -289.366711 
L 762.09993 -290.494667 
L 761.472238 -291.622622 
L 760.740878 -292.750578 
L 759.879367 -293.878533 
L 758.862334 -295.006489 
L 757.667573 -296.134445 
L 756.278018 -297.2624 
L 754.683471 -298.390356 
L 752.881905 -299.518311 
L 750.880239 -300.646267 
L 748.694492 -301.774222 
L 746.349299 -302.902178 
L 743.876834 -304.030134 
L 741.315208 -305.158089 
L 738.70649 -306.286045 
L 736.094492 -307.414 
L 733.522497 -308.541956 
L 731.031087 -309.669911 
L 728.656238 -310.797867 
L 726.427774 -311.925822 
L 724.368276 -313.053778 
L 722.492464 -314.181734 
L 720.807033 -315.309689 
L 719.310904 -316.437645 
L 717.995787 -317.5656 
L 716.84699 -318.693556 
L 715.844372 -319.821511 
L 714.963386 -320.949467 
L 714.176171 -322.077423 
L 713.452694 -323.205378 
L 712.761956 -324.333334 
L 712.073302 -325.461289 
L 711.357855 -326.589245 
L 710.590082 -327.7172 
L 709.749443 -328.845156 
L 708.822049 -329.973112 
L 707.802163 -331.101067 
L 706.693407 -332.229023 
L 705.509455 -333.356978 
L 704.274076 -334.484934 
L 703.020409 -335.612889 
L 701.789453 -336.740845 
L 700.627863 -337.8688 
L 699.585228 -338.996756 
L 698.711091 -340.124712 
L 698.052039 -341.252667 
L 697.649142 -342.380623 
L 697.536 -343.508578 
L 697.73755 -344.636534 
L 698.26965 -345.764489 
L 699.139362 -346.892445 
L 700.345742 -348.020401 
L 701.880912 -349.148356 
L 703.731162 -350.276312 
L 705.877906 -351.404267 
L 708.298379 -352.532223 
L 710.966069 -353.660178 
L 713.850947 -354.788134 
L 716.919639 -355.91609 
L 720.135672 -357.044045 
L 723.459936 -358.172001 
L 726.851409 -359.299956 
L 730.268166 -360.427912 
L 733.668593 -361.555867 
L 737.012695 -362.683823 
L 740.263365 -363.811778 
L 743.387481 -364.939734 
L 746.356744 -366.06769 
L 749.148197 -367.195645 
L 751.744442 -368.323601 
L 754.133562 -369.451556 
L 756.308846 -370.579512 
L 758.268355 -371.707467 
L 760.014407 -372.835423 
L 761.553021 -373.963379 
L 762.893357 -375.091334 
L 764.04715 -376.21929 
L 765.02815 -377.347245 
L 765.851571 -378.475201 
L 766.533544 -379.603156 
L 767.090583 -380.731112 
L 767.539092 -381.859068 
L 767.894908 -382.987023 
L 768.96 -382.987023 
L 768.96 -382.987023 
L 768.96 -381.859068 
L 768.96 -380.731112 
L 768.96 -379.603156 
L 768.96 -378.475201 
L 768.96 -377.347245 
L 768.96 -376.21929 
L 768.96 -375.091334 
L 768.96 -373.963379 
L 768.96 -372.835423 
L 768.96 -371.707467 
L 768.96 -370.579512 
L 768.96 -369.451556 
L 768.96 -368.323601 
L 768.96 -367.195645 
L 768.96 -366.06769 
L 768.96 -364.939734 
L 768.96 -363.811778 
L 768.96 -362.683823 
L 768.96 -361.555867 
L 768.96 -360.427912 
L 768.96 -359.299956 
L 768.96 -358.172001 
L 768.96 -357.044045 
L 768.96 -355.91609 
L 768.96 -354.788134 
L 768.96 -353.660178 
L 768.96 -352.532223 
L 768.96 -351.404267 
L 768.96 -350.276312 
L 768.96 -349.148356 
L 768.96 -348.020401 
L 768.96 -346.892445 
L 768.96 -345.764489 
L 768.96 -344.636534 
L 768.96 -343.508578 
L 768.96 -342.380623 
L 768.96 -341.252667 
L 768.96 -340.124712 
L 768.96 -338.996756 
L 768.96 -337.8688 
L 768.96 -336.740845 
L 768.96 -335.612889 
L 768.96 -334.484934 
L 768.96 -333.356978 
L 768.96 -332.229023 
L 768.96 -331.101067 
L 768.96 -329.973112 
L 768.96 -328.845156 
L 768.96 -327.7172 
L 768.96 -326.589245 
L 768.96 -325.461289 
L 768.96 -324.333334 
L 768.96 -323.205378 
L 768.96 -322.077423 
L 768.96 -320.949467 
L 768.96 -319.821511 
L 768.96 -318.693556 
L 768.96 -317.5656 
L 768.96 -316.437645 
L 768.96 -315.309689 
L 768.96 -314.181734 
L 768.96 -313.053778 
L 768.96 -311.925822 
L 768.96 -310.797867 
L 768.96 -309.669911 
L 768.96 -308.541956 
L 768.96 -307.414 
L 768.96 -306.286045 
L 768.96 -305.158089 
L 768.96 -304.030134 
L 768.96 -302.902178 
L 768.96 -301.774222 
L 768.96 -300.646267 
L 768.96 -299.518311 
L 768.96 -298.390356 
L 768.96 -297.2624 
L 768.96 -296.134445 
L 768.96 -295.006489 
L 768.96 -293.878533 
L 768.96 -292.750578 
L 768.96 -291.622622 
L 768.96 -290.494667 
L 768.96 -289.366711 
L 768.96 -288.238756 
L 768.96 -287.1108 
L 768.96 -285.982844 
L 768.96 -284.854889 
L 768.96 -283.726933 
L 768.96 -282.598978 
L 768.96 -281.471022 
L 768.96 -280.343067 
L 768.96 -279.215111 
L 768.96 -278.087156 
L 768.96 -276.9592 
L 768.96 -275.831244 
L 768.96 -274.703289 
L 768.96 -273.575333 
L 768.96 -272.447378 
L 768.96 -271.319422 
z
" id="md40380b20e" style="stroke:#3f3f3f;stroke-width:1.5;"/>
    </defs>
    <g clip-path="url(#pe807e838db)">
     <use style="fill:#3274a1;stroke:#3f3f3f;stroke-width:1.5;" x="0" xlink:href="#md40380b20e" y="648"/>
    </g>
   </g>
   <g id="PolyCollection_8">
    <defs>
     <path d="M 769.193569 -176.107535 
L 768.96 -176.107535 
L 768.96 -178.467071 
L 768.96 -180.826607 
L 768.96 -183.186144 
L 768.96 -185.54568 
L 768.96 -187.905216 
L 768.96 -190.264753 
L 768.96 -192.624289 
L 768.96 -194.983825 
L 768.96 -197.343361 
L 768.96 -199.702898 
L 768.96 -202.062434 
L 768.96 -204.42197 
L 768.96 -206.781506 
L 768.96 -209.141043 
L 768.96 -211.500579 
L 768.96 -213.860115 
L 768.96 -216.219651 
L 768.96 -218.579188 
L 768.96 -220.938724 
L 768.96 -223.29826 
L 768.96 -225.657796 
L 768.96 -228.017333 
L 768.96 -230.376869 
L 768.96 -232.736405 
L 768.96 -235.095942 
L 768.96 -237.455478 
L 768.96 -239.815014 
L 768.96 -242.17455 
L 768.96 -244.534087 
L 768.96 -246.893623 
L 768.96 -249.253159 
L 768.96 -251.612695 
L 768.96 -253.972232 
L 768.96 -256.331768 
L 768.96 -258.691304 
L 768.96 -261.05084 
L 768.96 -263.410377 
L 768.96 -265.769913 
L 768.96 -268.129449 
L 768.96 -270.488986 
L 768.96 -272.848522 
L 768.96 -275.208058 
L 768.96 -277.567594 
L 768.96 -279.927131 
L 768.96 -282.286667 
L 768.96 -284.646203 
L 768.96 -287.005739 
L 768.96 -289.365276 
L 768.96 -291.724812 
L 768.96 -294.084348 
L 768.96 -296.443884 
L 768.96 -298.803421 
L 768.96 -301.162957 
L 768.96 -303.522493 
L 768.96 -305.882029 
L 768.96 -308.241566 
L 768.96 -310.601102 
L 768.96 -312.960638 
L 768.96 -315.320175 
L 768.96 -317.679711 
L 768.96 -320.039247 
L 768.96 -322.398783 
L 768.96 -324.75832 
L 768.96 -327.117856 
L 768.96 -329.477392 
L 768.96 -331.836928 
L 768.96 -334.196465 
L 768.96 -336.556001 
L 768.96 -338.915537 
L 768.96 -341.275073 
L 768.96 -343.63461 
L 768.96 -345.994146 
L 768.96 -348.353682 
L 768.96 -350.713219 
L 768.96 -353.072755 
L 768.96 -355.432291 
L 768.96 -357.791827 
L 768.96 -360.151364 
L 768.96 -362.5109 
L 768.96 -364.870436 
L 768.96 -367.229972 
L 768.96 -369.589509 
L 768.96 -371.949045 
L 768.96 -374.308581 
L 768.96 -376.668117 
L 768.96 -379.027654 
L 768.96 -381.38719 
L 768.96 -383.746726 
L 768.96 -386.106263 
L 768.96 -388.465799 
L 768.96 -390.825335 
L 768.96 -393.184871 
L 768.96 -395.544408 
L 768.96 -397.903944 
L 768.96 -400.26348 
L 768.96 -402.623016 
L 768.96 -404.982553 
L 768.96 -407.342089 
L 768.96 -409.701625 
L 769.154432 -409.701625 
L 769.154432 -409.701625 
L 769.240768 -407.342089 
L 769.357128 -404.982553 
L 769.510715 -402.623016 
L 769.709543 -400.26348 
L 769.962408 -397.903944 
L 770.278893 -395.544408 
L 770.669412 -393.184871 
L 771.145267 -390.825335 
L 771.718641 -388.465799 
L 772.402431 -386.106263 
L 773.209788 -383.746726 
L 774.153269 -381.38719 
L 775.243548 -379.027654 
L 776.487744 -376.668117 
L 777.887555 -374.308581 
L 779.437502 -371.949045 
L 781.123657 -369.589509 
L 782.923227 -367.229972 
L 784.805259 -364.870436 
L 786.732532 -362.5109 
L 788.664468 -360.151364 
L 790.560638 -357.791827 
L 792.384294 -355.432291 
L 794.105325 -353.072755 
L 795.702122 -350.713219 
L 797.162108 -348.353682 
L 798.480955 -345.994146 
L 799.660833 -343.63461 
L 800.708188 -341.275073 
L 801.631628 -338.915537 
L 802.440369 -336.556001 
L 803.143456 -334.196465 
L 803.749738 -331.836928 
L 804.268275 -329.477392 
L 804.708776 -327.117856 
L 805.081616 -324.75832 
L 805.397142 -322.398783 
L 805.664195 -320.039247 
L 805.888031 -317.679711 
L 806.068032 -315.320175 
L 806.195745 -312.960638 
L 806.253771 -310.601102 
L 806.215907 -308.241566 
L 806.04876 -305.882029 
L 805.714768 -303.522493 
L 805.176331 -301.162957 
L 804.400559 -298.803421 
L 803.363994 -296.443884 
L 802.056693 -294.084348 
L 800.485108 -291.724812 
L 798.673362 -289.365276 
L 796.662754 -287.005739 
L 794.509516 -284.646203 
L 792.28108 -282.286667 
L 790.051248 -279.927131 
L 787.894777 -277.567594 
L 785.8819 -275.208058 
L 784.073308 -272.848522 
L 782.516011 -270.488986 
L 781.240425 -268.129449 
L 780.258884 -265.769913 
L 779.565659 -263.410377 
L 779.13843 -261.05084 
L 778.941024 -258.691304 
L 778.927136 -256.331768 
L 779.04465 -253.972232 
L 779.240124 -251.612695 
L 779.463015 -249.253159 
L 779.669238 -246.893623 
L 779.823763 -244.534087 
L 779.902055 -242.17455 
L 779.890331 -239.815014 
L 779.784711 -237.455478 
L 779.589488 -235.095942 
L 779.314811 -232.736405 
L 778.974122 -230.376869 
L 778.581692 -228.017333 
L 778.150558 -225.657796 
L 777.691099 -223.29826 
L 777.210368 -220.938724 
L 776.712199 -218.579188 
L 776.197976 -216.219651 
L 775.667841 -213.860115 
L 775.122079 -211.500579 
L 774.562369 -209.141043 
L 773.992664 -206.781506 
L 773.419526 -204.42197 
L 772.851879 -202.062434 
L 772.30025 -199.702898 
L 771.775675 -197.343361 
L 771.288494 -194.983825 
L 770.847255 -192.624289 
L 770.457915 -190.264753 
L 770.12343 -187.905216 
L 769.843763 -185.54568 
L 769.616239 -183.186144 
L 769.43615 -180.826607 
L 769.29747 -178.467071 
L 769.193569 -176.107535 
z
" id="m0495de9f2c" style="stroke:#3f3f3f;stroke-width:1.5;"/>
    </defs>
    <g clip-path="url(#pe807e838db)">
     <use style="fill:#e1812c;stroke:#3f3f3f;stroke-width:1.5;" x="0" xlink:href="#m0495de9f2c" y="648"/>
    </g>
   </g>
   <g id="PolyCollection_9">
    <defs>
     <path d="M 947.52 -262.21624 
L 945.784263 -262.21624 
L 945.216812 -265.102963 
L 944.502334 -267.989686 
L 943.615631 -270.876409 
L 942.531012 -273.763132 
L 941.223448 -276.649855 
L 939.669958 -279.536578 
L 937.851181 -282.423301 
L 935.753033 -285.310024 
L 933.368348 -288.196747 
L 930.698367 -291.08347 
L 927.753935 -293.970193 
L 924.556253 -296.856916 
L 921.137078 -299.743639 
L 917.538274 -302.630362 
L 913.810661 -305.517085 
L 910.012201 -308.403808 
L 906.205569 -311.290531 
L 902.455287 -314.177254 
L 898.824591 -317.063977 
L 895.372286 -319.9507 
L 892.149852 -322.837423 
L 889.199034 -325.724146 
L 886.550163 -328.610869 
L 884.221337 -331.497592 
L 882.218568 -334.384315 
L 880.536856 -337.271038 
L 879.16209 -340.157761 
L 878.073575 -343.044484 
L 877.246908 -345.931207 
L 876.656915 -348.81793 
L 876.280323 -351.704653 
L 876.097924 -354.591376 
L 876.096 -357.478099 
L 876.266932 -360.364822 
L 876.608963 -363.251545 
L 877.125236 -366.138268 
L 877.822257 -369.024991 
L 878.708054 -371.911714 
L 879.790253 -374.798437 
L 881.074317 -377.68516 
L 882.562146 -380.571883 
L 884.251134 -383.458606 
L 886.133738 -386.345329 
L 888.197507 -389.232052 
L 890.425497 -392.118775 
L 892.796934 -395.005498 
L 895.287997 -397.892221 
L 897.872614 -400.778944 
L 900.523184 -403.665667 
L 903.211206 -406.55239 
L 905.907801 -409.439113 
L 908.584183 -412.325836 
L 911.212119 -415.21256 
L 913.764417 -418.099283 
L 916.215492 -420.986006 
L 918.541982 -423.872729 
L 920.723418 -426.759452 
L 922.742865 -429.646175 
L 924.587487 -432.532898 
L 926.248954 -435.419621 
L 927.723646 -438.306344 
L 929.01261 -441.193067 
L 930.12127 -444.07979 
L 931.058919 -446.966513 
L 931.838042 -449.853236 
L 932.473545 -452.739959 
L 932.981964 -455.626682 
L 933.380736 -458.513405 
L 933.687581 -461.400128 
L 933.920042 -464.286851 
L 934.095184 -467.173574 
L 934.22944 -470.060297 
L 934.338559 -472.94702 
L 934.437617 -475.833743 
L 934.541011 -478.720466 
L 934.6624 -481.607189 
L 934.814553 -484.493912 
L 935.009077 -487.380635 
L 935.256048 -490.267358 
L 935.563562 -493.154081 
L 935.937278 -496.040804 
L 936.379998 -498.927527 
L 936.891365 -501.81425 
L 937.467728 -504.700973 
L 938.10222 -507.587696 
L 938.785057 -510.474419 
L 939.504057 -513.361142 
L 940.245332 -516.247865 
L 940.994095 -519.134588 
L 941.735516 -522.021311 
L 942.455546 -524.908034 
L 943.141643 -527.794757 
L 943.783341 -530.68148 
L 944.372632 -533.568203 
L 944.904139 -536.454926 
L 945.375096 -539.341649 
L 945.785156 -542.228372 
L 946.136069 -545.115095 
L 946.431272 -548.001818 
L 947.52 -548.001818 
L 947.52 -548.001818 
L 947.52 -545.115095 
L 947.52 -542.228372 
L 947.52 -539.341649 
L 947.52 -536.454926 
L 947.52 -533.568203 
L 947.52 -530.68148 
L 947.52 -527.794757 
L 947.52 -524.908034 
L 947.52 -522.021311 
L 947.52 -519.134588 
L 947.52 -516.247865 
L 947.52 -513.361142 
L 947.52 -510.474419 
L 947.52 -507.587696 
L 947.52 -504.700973 
L 947.52 -501.81425 
L 947.52 -498.927527 
L 947.52 -496.040804 
L 947.52 -493.154081 
L 947.52 -490.267358 
L 947.52 -487.380635 
L 947.52 -484.493912 
L 947.52 -481.607189 
L 947.52 -478.720466 
L 947.52 -475.833743 
L 947.52 -472.94702 
L 947.52 -470.060297 
L 947.52 -467.173574 
L 947.52 -464.286851 
L 947.52 -461.400128 
L 947.52 -458.513405 
L 947.52 -455.626682 
L 947.52 -452.739959 
L 947.52 -449.853236 
L 947.52 -446.966513 
L 947.52 -444.07979 
L 947.52 -441.193067 
L 947.52 -438.306344 
L 947.52 -435.419621 
L 947.52 -432.532898 
L 947.52 -429.646175 
L 947.52 -426.759452 
L 947.52 -423.872729 
L 947.52 -420.986006 
L 947.52 -418.099283 
L 947.52 -415.21256 
L 947.52 -412.325836 
L 947.52 -409.439113 
L 947.52 -406.55239 
L 947.52 -403.665667 
L 947.52 -400.778944 
L 947.52 -397.892221 
L 947.52 -395.005498 
L 947.52 -392.118775 
L 947.52 -389.232052 
L 947.52 -386.345329 
L 947.52 -383.458606 
L 947.52 -380.571883 
L 947.52 -377.68516 
L 947.52 -374.798437 
L 947.52 -371.911714 
L 947.52 -369.024991 
L 947.52 -366.138268 
L 947.52 -363.251545 
L 947.52 -360.364822 
L 947.52 -357.478099 
L 947.52 -354.591376 
L 947.52 -351.704653 
L 947.52 -348.81793 
L 947.52 -345.931207 
L 947.52 -343.044484 
L 947.52 -340.157761 
L 947.52 -337.271038 
L 947.52 -334.384315 
L 947.52 -331.497592 
L 947.52 -328.610869 
L 947.52 -325.724146 
L 947.52 -322.837423 
L 947.52 -319.9507 
L 947.52 -317.063977 
L 947.52 -314.177254 
L 947.52 -311.290531 
L 947.52 -308.403808 
L 947.52 -305.517085 
L 947.52 -302.630362 
L 947.52 -299.743639 
L 947.52 -296.856916 
L 947.52 -293.970193 
L 947.52 -291.08347 
L 947.52 -288.196747 
L 947.52 -285.310024 
L 947.52 -282.423301 
L 947.52 -279.536578 
L 947.52 -276.649855 
L 947.52 -273.763132 
L 947.52 -270.876409 
L 947.52 -267.989686 
L 947.52 -265.102963 
L 947.52 -262.21624 
z
" id="m6bfcce7afd" style="stroke:#3f3f3f;stroke-width:1.5;"/>
    </defs>
    <g clip-path="url(#pe807e838db)">
     <use style="fill:#3274a1;stroke:#3f3f3f;stroke-width:1.5;" x="0" xlink:href="#m6bfcce7afd" y="648"/>
    </g>
   </g>
   <g id="PolyCollection_10">
    <defs>
     <path d="M 947.947877 -103.238182 
L 947.52 -103.238182 
L 947.52 -107.509593 
L 947.52 -111.781003 
L 947.52 -116.052414 
L 947.52 -120.323825 
L 947.52 -124.595236 
L 947.52 -128.866646 
L 947.52 -133.138057 
L 947.52 -137.409468 
L 947.52 -141.680879 
L 947.52 -145.95229 
L 947.52 -150.2237 
L 947.52 -154.495111 
L 947.52 -158.766522 
L 947.52 -163.037933 
L 947.52 -167.309343 
L 947.52 -171.580754 
L 947.52 -175.852165 
L 947.52 -180.123576 
L 947.52 -184.394986 
L 947.52 -188.666397 
L 947.52 -192.937808 
L 947.52 -197.209219 
L 947.52 -201.48063 
L 947.52 -205.75204 
L 947.52 -210.023451 
L 947.52 -214.294862 
L 947.52 -218.566273 
L 947.52 -222.837683 
L 947.52 -227.109094 
L 947.52 -231.380505 
L 947.52 -235.651916 
L 947.52 -239.923327 
L 947.52 -244.194737 
L 947.52 -248.466148 
L 947.52 -252.737559 
L 947.52 -257.00897 
L 947.52 -261.28038 
L 947.52 -265.551791 
L 947.52 -269.823202 
L 947.52 -274.094613 
L 947.52 -278.366023 
L 947.52 -282.637434 
L 947.52 -286.908845 
L 947.52 -291.180256 
L 947.52 -295.451667 
L 947.52 -299.723077 
L 947.52 -303.994488 
L 947.52 -308.265899 
L 947.52 -312.53731 
L 947.52 -316.80872 
L 947.52 -321.080131 
L 947.52 -325.351542 
L 947.52 -329.622953 
L 947.52 -333.894364 
L 947.52 -338.165774 
L 947.52 -342.437185 
L 947.52 -346.708596 
L 947.52 -350.980007 
L 947.52 -355.251417 
L 947.52 -359.522828 
L 947.52 -363.794239 
L 947.52 -368.06565 
L 947.52 -372.33706 
L 947.52 -376.608471 
L 947.52 -380.879882 
L 947.52 -385.151293 
L 947.52 -389.422704 
L 947.52 -393.694114 
L 947.52 -397.965525 
L 947.52 -402.236936 
L 947.52 -406.508347 
L 947.52 -410.779757 
L 947.52 -415.051168 
L 947.52 -419.322579 
L 947.52 -423.59399 
L 947.52 -427.8654 
L 947.52 -432.136811 
L 947.52 -436.408222 
L 947.52 -440.679633 
L 947.52 -444.951044 
L 947.52 -449.222454 
L 947.52 -453.493865 
L 947.52 -457.765276 
L 947.52 -462.036687 
L 947.52 -466.308097 
L 947.52 -470.579508 
L 947.52 -474.850919 
L 947.52 -479.12233 
L 947.52 -483.393741 
L 947.52 -487.665151 
L 947.52 -491.936562 
L 947.52 -496.207973 
L 947.52 -500.479384 
L 947.52 -504.750794 
L 947.52 -509.022205 
L 947.52 -513.293616 
L 947.52 -517.565027 
L 947.52 -521.836437 
L 947.52 -526.107848 
L 947.724932 -526.107848 
L 947.724932 -526.107848 
L 947.81963 -521.836437 
L 947.948639 -517.565027 
L 948.120383 -513.293616 
L 948.343989 -509.022205 
L 948.628964 -504.750794 
L 948.984818 -500.479384 
L 949.420645 -496.207973 
L 949.944702 -491.936562 
L 950.563996 -487.665151 
L 951.283908 -483.393741 
L 952.107829 -479.12233 
L 953.036813 -474.850919 
L 954.06925 -470.579508 
L 955.200553 -466.308097 
L 956.422905 -462.036687 
L 957.725115 -457.765276 
L 959.092657 -453.493865 
L 960.507962 -449.222454 
L 961.95102 -444.951044 
L 963.400293 -440.679633 
L 964.833918 -436.408222 
L 966.231076 -432.136811 
L 967.573403 -427.8654 
L 968.846246 -423.59399 
L 970.039615 -419.322579 
L 971.148708 -415.051168 
L 972.173998 -410.779757 
L 973.120946 -406.508347 
L 973.999526 -402.236936 
L 974.823768 -397.965525 
L 975.611506 -393.694114 
L 976.384398 -389.422704 
L 977.168094 -385.151293 
L 977.992294 -380.879882 
L 978.890232 -376.608471 
L 979.897199 -372.33706 
L 981.047807 -368.06565 
L 982.372014 -363.794239 
L 983.890293 -359.522828 
L 985.608644 -355.251417 
L 987.514376 -350.980007 
L 989.573558 -346.708596 
L 991.730805 -342.437185 
L 993.911692 -338.165774 
L 996.027552 -333.894364 
L 997.982062 -329.622953 
L 999.678699 -325.351542 
L 1001.028102 -321.080131 
L 1001.954521 -316.80872 
L 1002.400737 -312.53731 
L 1002.331206 -308.265899 
L 1001.733382 -303.994488 
L 1000.617406 -299.723077 
L 999.014435 -295.451667 
L 996.973905 -291.180256 
L 994.560062 -286.908845 
L 991.848027 -282.637434 
L 988.919691 -278.366023 
L 985.859697 -274.094613 
L 982.751713 -269.823202 
L 979.675171 -265.551791 
L 976.702537 -261.28038 
L 973.897127 -257.00897 
L 971.311422 -252.737559 
L 968.985838 -248.466148 
L 966.947906 -244.194737 
L 965.211901 -239.923327 
L 963.778961 -235.651916 
L 962.637777 -231.380505 
L 961.765906 -227.109094 
L 961.13166 -222.837683 
L 960.696482 -218.566273 
L 960.417592 -214.294862 
L 960.250653 -210.023451 
L 960.15223 -205.75204 
L 960.081813 -201.48063 
L 960.003319 -197.209219 
L 959.886055 -192.937808 
L 959.705231 -188.666397 
L 959.442162 -184.394986 
L 959.0843 -180.123576 
L 958.6252 -175.852165 
L 958.064478 -171.580754 
L 957.407697 -167.309343 
L 956.666106 -163.037933 
L 955.856113 -158.766522 
L 954.998382 -154.495111 
L 954.11654 -150.2237 
L 953.235549 -145.95229 
L 952.379879 -141.680879 
L 951.571708 -137.409468 
L 950.829354 -133.138057 
L 950.166166 -128.866646 
L 949.589973 -124.595236 
L 949.103137 -120.323825 
L 948.703143 -116.052414 
L 948.383581 -111.781003 
L 948.13535 -107.509593 
L 947.947877 -103.238182 
z
" id="me8dd160cf7" style="stroke:#3f3f3f;stroke-width:1.5;"/>
    </defs>
    <g clip-path="url(#pe807e838db)">
     <use style="fill:#e1812c;stroke:#3f3f3f;stroke-width:1.5;" x="0" xlink:href="#me8dd160cf7" y="648"/>
    </g>
   </g>
   <g id="patch_3">
    <path clip-path="url(#pe807e838db)" d="M 233.28 395.425606 
L 233.28 395.425606 
L 233.28 395.425606 
L 233.28 395.425606 
z
" style="fill:#3274a1;stroke:#3f3f3f;stroke-linejoin:miter;stroke-width:0.75;"/>
   </g>
   <g id="patch_4">
    <path clip-path="url(#pe807e838db)" d="M 233.28 395.425606 
L 233.28 395.425606 
L 233.28 395.425606 
L 233.28 395.425606 
z
" style="fill:#e1812c;stroke:#3f3f3f;stroke-linejoin:miter;stroke-width:0.75;"/>
   </g>
   <g id="line2d_9">
    <path clip-path="url(#pe807e838db)" d="M 233.28 453.877937 
L 233.28 229.226249 
" style="fill:none;stroke:#3f3f3f;stroke-linecap:round;stroke-width:1.5;"/>
   </g>
   <g id="line2d_10">
    <path clip-path="url(#pe807e838db)" d="M 233.28 361.442328 
L 233.28 299.488103 
" style="fill:none;stroke:#3f3f3f;stroke-linecap:round;stroke-width:4.5;"/>
   </g>
   <g id="line2d_11">
    <path clip-path="url(#pe807e838db)" d="M 411.84 394.073203 
L 411.84 313.563798 
" style="fill:none;stroke:#3f3f3f;stroke-linecap:round;stroke-width:1.5;"/>
   </g>
   <g id="line2d_12">
    <path clip-path="url(#pe807e838db)" d="M 411.84 363.28702 
L 411.84 341.675724 
" style="fill:none;stroke:#3f3f3f;stroke-linecap:round;stroke-width:4.5;"/>
   </g>
   <g id="line2d_13">
    <path clip-path="url(#pe807e838db)" d="M 590.4 413.32536 
L 590.4 307.46149 
" style="fill:none;stroke:#3f3f3f;stroke-linecap:round;stroke-width:1.5;"/>
   </g>
   <g id="line2d_14">
    <path clip-path="url(#pe807e838db)" d="M 590.4 368.914139 
L 590.4 339.282432 
" style="fill:none;stroke:#3f3f3f;stroke-linecap:round;stroke-width:4.5;"/>
   </g>
   <g id="line2d_15">
    <path clip-path="url(#pe807e838db)" d="M 768.96 423.776609 
L 768.96 267.158403 
" style="fill:none;stroke:#3f3f3f;stroke-linecap:round;stroke-width:1.5;"/>
   </g>
   <g id="line2d_16">
    <path clip-path="url(#pe807e838db)" d="M 768.96 353.85275 
L 768.96 306.257126 
" style="fill:none;stroke:#3f3f3f;stroke-linecap:round;stroke-width:4.5;"/>
   </g>
   <g id="line2d_17">
    <path clip-path="url(#pe807e838db)" d="M 947.52 478.795813 
L 947.52 172.833931 
" style="fill:none;stroke:#3f3f3f;stroke-linecap:round;stroke-width:1.5;"/>
   </g>
   <g id="line2d_18">
    <path clip-path="url(#pe807e838db)" d="M 947.52 355.03134 
L 947.52 272.394748 
" style="fill:none;stroke:#3f3f3f;stroke-linecap:round;stroke-width:4.5;"/>
   </g>
   <g id="patch_5">
    <path d="M 144 567 
L 144 77.76 
" style="fill:none;stroke:#cccccc;stroke-linecap:square;stroke-linejoin:miter;stroke-width:0.8;"/>
   </g>
   <g id="patch_6">
    <path d="M 1036.8 567 
L 1036.8 77.76 
" style="fill:none;stroke:#cccccc;stroke-linecap:square;stroke-linejoin:miter;stroke-width:0.8;"/>
   </g>
   <g id="patch_7">
    <path d="M 144 567 
L 1036.8 567 
" style="fill:none;stroke:#cccccc;stroke-linecap:square;stroke-linejoin:miter;stroke-width:0.8;"/>
   </g>
   <g id="patch_8">
    <path d="M 144 77.76 
L 1036.8 77.76 
" style="fill:none;stroke:#cccccc;stroke-linecap:square;stroke-linejoin:miter;stroke-width:0.8;"/>
   </g>
   <g id="PathCollection_1">
    <defs>
     <path d="M 0 1.5 
C 0.397805 1.5 0.77937 1.341951 1.06066 1.06066 
C 1.341951 0.77937 1.5 0.397805 1.5 0 
C 1.5 -0.397805 1.341951 -0.77937 1.06066 -1.06066 
C 0.77937 -1.341951 0.397805 -1.5 0 -1.5 
C -0.397805 -1.5 -0.77937 -1.341951 -1.06066 -1.06066 
C -1.341951 -0.77937 -1.5 -0.397805 -1.5 0 
C -1.5 0.397805 -1.341951 0.77937 -1.06066 1.06066 
C -0.77937 1.341951 -0.397805 1.5 0 1.5 
z
" id="m161616b2e8" style="stroke:#3f3f3f;"/>
    </defs>
    <g clip-path="url(#pe807e838db)">
     <use style="fill:#ffffff;stroke:#3f3f3f;" x="233.28" xlink:href="#m161616b2e8" y="335.527351"/>
    </g>
   </g>
   <g id="PathCollection_2">
    <g clip-path="url(#pe807e838db)">
     <use style="fill:#ffffff;stroke:#3f3f3f;" x="411.84" xlink:href="#m161616b2e8" y="350.604635"/>
    </g>
   </g>
   <g id="PathCollection_3">
    <g clip-path="url(#pe807e838db)">
     <use style="fill:#ffffff;stroke:#3f3f3f;" x="590.4" xlink:href="#m161616b2e8" y="348.918919"/>
    </g>
   </g>
   <g id="PathCollection_4">
    <g clip-path="url(#pe807e838db)">
     <use style="fill:#ffffff;stroke:#3f3f3f;" x="768.96" xlink:href="#m161616b2e8" y="329.256673"/>
    </g>
   </g>
   <g id="PathCollection_5">
    <g clip-path="url(#pe807e838db)">
     <use style="fill:#ffffff;stroke:#3f3f3f;" x="947.52" xlink:href="#m161616b2e8" y="318.288562"/>
    </g>
   </g>
   <g id="legend_1">
    <g id="patch_9">
     <path d="M 980.51875 129.794375 
L 1029.8 129.794375 
Q 1031.8 129.794375 1031.8 127.794375 
L 1031.8 84.76 
Q 1031.8 82.76 1029.8 82.76 
L 980.51875 82.76 
Q 978.51875 82.76 978.51875 84.76 
L 978.51875 127.794375 
Q 978.51875 129.794375 980.51875 129.794375 
z
" style="fill:#ffffff;opacity:0.8;stroke:#cccccc;stroke-linejoin:miter;"/>
    </g>
    <g id="text_16">
     <!-- self -->
     <g style="fill:#262626;" transform="translate(996.328906 94.358437)scale(0.1 -0.1)">
      <use xlink:href="#DejaVuSans-73"/>
      <use x="52.099609" xlink:href="#DejaVuSans-65"/>
      <use x="113.623047" xlink:href="#DejaVuSans-6c"/>
      <use x="141.40625" xlink:href="#DejaVuSans-66"/>
     </g>
    </g>
    <g id="patch_10">
     <path d="M 982.51875 109.036562 
L 1002.51875 109.036562 
L 1002.51875 102.036562 
L 982.51875 102.036562 
z
" style="fill:#3274a1;stroke:#3f3f3f;stroke-linejoin:miter;stroke-width:0.75;"/>
    </g>
    <g id="text_17">
     <!-- yes -->
     <g style="fill:#262626;" transform="translate(1010.51875 109.036562)scale(0.1 -0.1)">
      <defs>
       <path d="M 2059 -325 
Q 1816 -950 1584 -1140 
Q 1353 -1331 966 -1331 
L 506 -1331 
L 506 -850 
L 844 -850 
Q 1081 -850 1212 -737 
Q 1344 -625 1503 -206 
L 1606 56 
L 191 3500 
L 800 3500 
L 1894 763 
L 2988 3500 
L 3597 3500 
L 2059 -325 
z
" id="DejaVuSans-79" transform="scale(0.015625)"/>
      </defs>
      <use xlink:href="#DejaVuSans-79"/>
      <use x="59.179688" xlink:href="#DejaVuSans-65"/>
      <use x="120.703125" xlink:href="#DejaVuSans-73"/>
     </g>
    </g>
    <g id="patch_11">
     <path d="M 982.51875 123.714687 
L 1002.51875 123.714687 
L 1002.51875 116.714687 
L 982.51875 116.714687 
z
" style="fill:#e1812c;stroke:#3f3f3f;stroke-linejoin:miter;stroke-width:0.75;"/>
    </g>
    <g id="text_18">
     <!-- no -->
     <g style="fill:#262626;" transform="translate(1010.51875 123.714687)scale(0.1 -0.1)">
      <use xlink:href="#DejaVuSans-6e"/>
      <use x="63.378906" xlink:href="#DejaVuSans-6f"/>
     </g>
    </g>
   </g>
  </g>
 </g>
 <defs>
  <clipPath id="pe807e838db">
   <rect height="489.24" width="892.8" x="144" y="77.76"/>
  </clipPath>
 </defs>
</svg>
