<?xml version="1.0" encoding="UTF-8" standalone="no"?>
<!DOCTYPE svg PUBLIC "-//W3C//DTD SVG 1.1//EN"
 "http://www.w3.org/Graphics/SVG/1.1/DTD/svg11.dtd">
<!-- Generated by graphviz version 2.43.0 (0)
 -->
<!-- Title: imported_1688044906.506311 Pages: 1 -->
<svg width="1056pt" height="121pt"
 viewBox="0.00 0.00 1056.00 121.00" xmlns="http://www.w3.org/2000/svg" xmlns:xlink="http://www.w3.org/1999/xlink">
<g id="graph0" class="graph" transform="scale(1 1) rotate(0) translate(4 117)">
<title>imported_1688044906.506311</title>
<polygon fill="white" stroke="transparent" points="-4,4 -4,-117 1052,-117 1052,4 -4,4"/>
<!-- 140465201905824 -->
<g id="node1" class="node">
<title>140465201905824</title>
<polygon fill="white" stroke="black" points="420,-72 252,-72 252,-36 420,-36 420,-72"/>
<text text-anchor="middle" x="336" y="-50.9" font-family="Times,serif" font-size="12.00">Insert Date Appeal to Prefecture</text>
</g>
<!-- 140465201907216 -->
<g id="node7" class="node">
<title>140465201907216</title>
<ellipse fill="white" stroke="black" cx="646.5" cy="-86" rx="27" ry="27"/>
</g>
<!-- 140465201905824&#45;&gt;140465201907216 -->
<g id="edge5" class="edge">
<title>140465201905824&#45;&gt;140465201907216</title>
<path fill="none" stroke="black" d="M420.08,-62.62C481.83,-69.02 563.08,-77.45 609.27,-82.24"/>
<polygon fill="black" stroke="black" points="609.09,-85.74 619.4,-83.29 609.81,-78.78 609.09,-85.74"/>
</g>
<!-- 140465201907552 -->
<g id="node8" class="node">
<title>140465201907552</title>
<ellipse fill="white" stroke="black" cx="483" cy="-27" rx="27" ry="27"/>
</g>
<!-- 140465201905824&#45;&gt;140465201907552 -->
<g id="edge6" class="edge">
<title>140465201905824&#45;&gt;140465201907552</title>
<path fill="none" stroke="black" d="M420.09,-38.53C429.34,-36.81 438.36,-35.13 446.52,-33.61"/>
<polygon fill="black" stroke="black" points="447.17,-37.05 456.36,-31.77 445.89,-30.16 447.17,-37.05"/>
</g>
<!-- 140465201908032 -->
<g id="node2" class="node">
<title>140465201908032</title>
<polygon fill="white" stroke="black" points="747,-41 546,-41 546,-5 747,-5 747,-41"/>
<text text-anchor="middle" x="646.5" y="-19.9" font-family="Times,serif" font-size="12.00">Receive Result Appeal from Prefecture</text>
</g>
<!-- 140465201906592 -->
<g id="node6" class="node">
<title>140465201906592</title>
<ellipse fill="white" stroke="black" cx="810" cy="-27" rx="27" ry="27"/>
</g>
<!-- 140465201908032&#45;&gt;140465201906592 -->
<g id="edge7" class="edge">
<title>140465201908032&#45;&gt;140465201906592</title>
<path fill="none" stroke="black" d="M747.02,-25.46C756.04,-25.69 764.72,-25.9 772.59,-26.1"/>
<polygon fill="black" stroke="black" points="772.69,-29.6 782.77,-26.35 772.86,-22.6 772.69,-29.6"/>
</g>
<!-- 140465201906016 -->
<g id="node3" class="node">
<title>140465201906016</title>
<polygon fill="white" stroke="black" points="1048,-72 873,-72 873,-36 1048,-36 1048,-72"/>
<text text-anchor="middle" x="960.5" y="-50.9" font-family="Times,serif" font-size="12.00">Notify Result Appeal to Offender</text>
</g>
<!-- 140465201906304 -->
<g id="node4" class="node">
<title>140465201906304</title>
<polygon fill="white" stroke="black" points="126,-72 0,-72 0,-36 126,-36 126,-72"/>
<text text-anchor="middle" x="63" y="-50.9" font-family="Times,serif" font-size="12.00">Insert Fine Notification</text>
</g>
<!-- 140465201907312 -->
<g id="node5" class="node">
<title>140465201907312</title>
<ellipse fill="white" stroke="black" cx="189" cy="-54" rx="27" ry="27"/>
</g>
<!-- 140465201906304&#45;&gt;140465201907312 -->
<g id="edge8" class="edge">
<title>140465201906304&#45;&gt;140465201907312</title>
<path fill="none" stroke="black" d="M126.36,-54C135.09,-54 143.8,-54 151.81,-54"/>
<polygon fill="black" stroke="black" points="151.88,-57.5 161.88,-54 151.88,-50.5 151.88,-57.5"/>
</g>
<!-- 140465201907312&#45;&gt;140465201905824 -->
<g id="edge1" class="edge">
<title>140465201907312&#45;&gt;140465201905824</title>
<path fill="none" stroke="black" d="M216.26,-54C223.81,-54 232.51,-54 241.7,-54"/>
<polygon fill="black" stroke="black" points="241.83,-57.5 251.83,-54 241.83,-50.5 241.83,-57.5"/>
</g>
<!-- 140465201906592&#45;&gt;140465201906016 -->
<g id="edge2" class="edge">
<title>140465201906592&#45;&gt;140465201906016</title>
<path fill="none" stroke="black" d="M836.87,-31.7C844.51,-33.09 853.37,-34.7 862.77,-36.41"/>
<polygon fill="black" stroke="black" points="862.25,-39.88 872.71,-38.22 863.5,-32.99 862.25,-39.88"/>
</g>
<!-- 140465201907216&#45;&gt;140465201906016 -->
<g id="edge3" class="edge">
<title>140465201907216&#45;&gt;140465201906016</title>
<path fill="none" stroke="black" d="M673.56,-83.33C714.8,-79.1 797.15,-70.65 862.92,-63.91"/>
<polygon fill="black" stroke="black" points="863.32,-67.38 872.91,-62.88 862.61,-60.42 863.32,-67.38"/>
</g>
<!-- 140465201907552&#45;&gt;140465201908032 -->
<g id="edge4" class="edge">
<title>140465201907552&#45;&gt;140465201908032</title>
<path fill="none" stroke="black" d="M510.31,-26.35C517.79,-26.16 526.44,-25.95 535.68,-25.72"/>
<polygon fill="black" stroke="black" points="535.99,-29.21 545.9,-25.47 535.82,-22.22 535.99,-29.21"/>
</g>
</g>
</svg>
