<?xml version="1.0" encoding="UTF-8" standalone="no"?>
<!DOCTYPE svg PUBLIC "-//W3C//DTD SVG 1.1//EN"
 "http://www.w3.org/Graphics/SVG/1.1/DTD/svg11.dtd">
<!-- Generated by graphviz version 2.43.0 (0)
 -->
<!-- Title: imported_1688044901.6082318 Pages: 1 -->
<svg width="687pt" height="134pt"
 viewBox="0.00 0.00 687.00 134.00" xmlns="http://www.w3.org/2000/svg" xmlns:xlink="http://www.w3.org/1999/xlink">
<g id="graph0" class="graph" transform="scale(1 1) rotate(0) translate(4 130)">
<title>imported_1688044901.6082318</title>
<polygon fill="white" stroke="transparent" points="-4,4 -4,-130 683,-130 683,4 -4,4"/>
<!-- 140468994174592 -->
<g id="node1" class="node">
<title>140468994174592</title>
<polygon fill="white" stroke="black" points="679,-81 621,-81 621,-45 679,-45 679,-81"/>
<text text-anchor="middle" x="650" y="-59.9" font-family="Times,serif" font-size="12.00">Payment</text>
</g>
<!-- 140468994172384 -->
<g id="node2" class="node">
<title>140468994172384</title>
<polygon fill="white" stroke="black" points="495,-117 294,-117 294,-81 495,-81 495,-117"/>
<text text-anchor="middle" x="394.5" y="-95.9" font-family="Times,serif" font-size="12.00">Receive Result Appeal from Prefecture</text>
</g>
<!-- 140468994174688 -->
<g id="node7" class="node">
<title>140468994174688</title>
<ellipse fill="white" stroke="black" cx="558" cy="-99" rx="27" ry="27"/>
</g>
<!-- 140468994172384&#45;&gt;140468994174688 -->
<g id="edge6" class="edge">
<title>140468994172384&#45;&gt;140468994174688</title>
<path fill="none" stroke="black" d="M495.02,-99C504.04,-99 512.72,-99 520.59,-99"/>
<polygon fill="black" stroke="black" points="520.77,-102.5 530.77,-99 520.77,-95.5 520.77,-102.5"/>
</g>
<!-- 140468994171712 -->
<g id="node3" class="node">
<title>140468994171712</title>
<polygon fill="white" stroke="black" points="168,-45 0,-45 0,-9 168,-9 168,-45"/>
<text text-anchor="middle" x="84" y="-23.9" font-family="Times,serif" font-size="12.00">Insert Date Appeal to Prefecture</text>
</g>
<!-- 140468994173824 -->
<g id="node8" class="node">
<title>140468994173824</title>
<ellipse fill="white" stroke="black" cx="231" cy="-27" rx="27" ry="27"/>
</g>
<!-- 140468994171712&#45;&gt;140468994173824 -->
<g id="edge5" class="edge">
<title>140468994171712&#45;&gt;140468994173824</title>
<path fill="none" stroke="black" d="M168.09,-27C176.96,-27 185.62,-27 193.51,-27"/>
<polygon fill="black" stroke="black" points="193.75,-30.5 203.75,-27 193.75,-23.5 193.75,-30.5"/>
</g>
<!-- 140468994174304 -->
<g id="node4" class="node">
<title>140468994174304</title>
<polygon fill="white" stroke="black" points="482,-45 307,-45 307,-9 482,-9 482,-45"/>
<text text-anchor="middle" x="394.5" y="-23.9" font-family="Times,serif" font-size="12.00">Notify Result Appeal to Offender</text>
</g>
<!-- 140468994174400 -->
<g id="node9" class="node">
<title>140468994174400</title>
<ellipse fill="white" stroke="black" cx="558" cy="-27" rx="27" ry="27"/>
</g>
<!-- 140468994174304&#45;&gt;140468994174400 -->
<g id="edge7" class="edge">
<title>140468994174304&#45;&gt;140468994174400</title>
<path fill="none" stroke="black" d="M482.4,-27C495.89,-27 509.15,-27 520.66,-27"/>
<polygon fill="black" stroke="black" points="520.7,-30.5 530.7,-27 520.7,-23.5 520.7,-30.5"/>
</g>
<!-- 140468994171856 -->
<g id="node5" class="node">
<title>140468994171856</title>
<polygon fill="white" stroke="black" points="154,-117 14,-117 14,-81 154,-81 154,-117"/>
<text text-anchor="middle" x="84" y="-95.9" font-family="Times,serif" font-size="12.00">Send Appeal to Prefecture</text>
</g>
<!-- 140468994174016 -->
<g id="node6" class="node">
<title>140468994174016</title>
<ellipse fill="white" stroke="black" cx="231" cy="-99" rx="27" ry="27"/>
</g>
<!-- 140468994171856&#45;&gt;140468994174016 -->
<g id="edge8" class="edge">
<title>140468994171856&#45;&gt;140468994174016</title>
<path fill="none" stroke="black" d="M154.1,-99C167.76,-99 181.57,-99 193.6,-99"/>
<polygon fill="black" stroke="black" points="193.67,-102.5 203.67,-99 193.67,-95.5 193.67,-102.5"/>
</g>
<!-- 140468994174016&#45;&gt;140468994172384 -->
<g id="edge1" class="edge">
<title>140468994174016&#45;&gt;140468994172384</title>
<path fill="none" stroke="black" d="M258.31,-99C265.79,-99 274.44,-99 283.68,-99"/>
<polygon fill="black" stroke="black" points="283.9,-102.5 293.9,-99 283.9,-95.5 283.9,-102.5"/>
</g>
<!-- 140468994174688&#45;&gt;140468994174592 -->
<g id="edge2" class="edge">
<title>140468994174688&#45;&gt;140468994174592</title>
<path fill="none" stroke="black" d="M583.59,-89.16C592.17,-85.73 602,-81.8 611.39,-78.05"/>
<polygon fill="black" stroke="black" points="612.95,-81.19 620.94,-74.22 610.36,-74.69 612.95,-81.19"/>
</g>
<!-- 140468994173824&#45;&gt;140468994174304 -->
<g id="edge3" class="edge">
<title>140468994173824&#45;&gt;140468994174304</title>
<path fill="none" stroke="black" d="M258.31,-27C269.17,-27 282.49,-27 296.49,-27"/>
<polygon fill="black" stroke="black" points="296.78,-30.5 306.78,-27 296.78,-23.5 296.78,-30.5"/>
</g>
<!-- 140468994174400&#45;&gt;140468994174592 -->
<g id="edge4" class="edge">
<title>140468994174400&#45;&gt;140468994174592</title>
<path fill="none" stroke="black" d="M583.59,-36.84C592.17,-40.27 602,-44.2 611.39,-47.95"/>
<polygon fill="black" stroke="black" points="610.36,-51.31 620.94,-51.78 612.95,-44.81 610.36,-51.31"/>
</g>
</g>
</svg>
