<?xml version="1.0" encoding="UTF-8" standalone="no"?>
<!DOCTYPE svg PUBLIC "-//W3C//DTD SVG 1.1//EN"
 "http://www.w3.org/Graphics/SVG/1.1/DTD/svg11.dtd">
<!-- Generated by graphviz version 2.43.0 (0)
 -->
<!-- Title: imported_1688044901.6665597 Pages: 1 -->
<svg width="988pt" height="134pt"
 viewBox="0.00 0.00 988.00 134.00" xmlns="http://www.w3.org/2000/svg" xmlns:xlink="http://www.w3.org/1999/xlink">
<g id="graph0" class="graph" transform="scale(1 1) rotate(0) translate(4 130)">
<title>imported_1688044901.6665597</title>
<polygon fill="white" stroke="transparent" points="-4,4 -4,-130 984,-130 984,4 -4,4"/>
<!-- 140468994173632 -->
<g id="node1" class="node">
<title>140468994173632</title>
<polygon fill="white" stroke="black" points="980,-83 922,-83 922,-47 980,-47 980,-83"/>
<text text-anchor="middle" x="951" y="-61.9" font-family="Times,serif" font-size="12.00">Payment</text>
</g>
<!-- 140468994172480 -->
<g id="node2" class="node">
<title>140468994172480</title>
<polygon fill="white" stroke="black" points="168,-81 0,-81 0,-45 168,-45 168,-81"/>
<text text-anchor="middle" x="84" y="-59.9" font-family="Times,serif" font-size="12.00">Insert Date Appeal to Prefecture</text>
</g>
<!-- 140468994172432 -->
<g id="node8" class="node">
<title>140468994172432</title>
<ellipse fill="white" stroke="black" cx="231" cy="-99" rx="27" ry="27"/>
</g>
<!-- 140468994172480&#45;&gt;140468994172432 -->
<g id="edge7" class="edge">
<title>140468994172480&#45;&gt;140468994172432</title>
<path fill="none" stroke="black" d="M157.92,-81.11C170.78,-84.3 183.61,-87.48 194.81,-90.26"/>
<polygon fill="black" stroke="black" points="194.04,-93.68 204.59,-92.69 195.73,-86.88 194.04,-93.68"/>
</g>
<!-- 140468994173920 -->
<g id="node9" class="node">
<title>140468994173920</title>
<ellipse fill="white" stroke="black" cx="231" cy="-27" rx="27" ry="27"/>
</g>
<!-- 140468994172480&#45;&gt;140468994173920 -->
<g id="edge8" class="edge">
<title>140468994172480&#45;&gt;140468994173920</title>
<path fill="none" stroke="black" d="M157.92,-44.89C170.78,-41.7 183.61,-38.52 194.81,-35.74"/>
<polygon fill="black" stroke="black" points="195.73,-39.12 204.59,-33.31 194.04,-32.32 195.73,-39.12"/>
</g>
<!-- 140468994172528 -->
<g id="node3" class="node">
<title>140468994172528</title>
<polygon fill="white" stroke="black" points="796,-52 595,-52 595,-16 796,-16 796,-52"/>
<text text-anchor="middle" x="695.5" y="-30.9" font-family="Times,serif" font-size="12.00">Receive Result Appeal from Prefecture</text>
</g>
<!-- 140468994173440 -->
<g id="node7" class="node">
<title>140468994173440</title>
<ellipse fill="white" stroke="black" cx="859" cy="-38" rx="27" ry="27"/>
</g>
<!-- 140468994172528&#45;&gt;140468994173440 -->
<g id="edge9" class="edge">
<title>140468994172528&#45;&gt;140468994173440</title>
<path fill="none" stroke="black" d="M796.02,-36.46C805.04,-36.69 813.72,-36.9 821.59,-37.1"/>
<polygon fill="black" stroke="black" points="821.69,-40.6 831.77,-37.35 821.86,-33.6 821.69,-40.6"/>
</g>
<!-- 140468994172048 -->
<g id="node4" class="node">
<title>140468994172048</title>
<polygon fill="white" stroke="black" points="469,-116 294,-116 294,-80 469,-80 469,-116"/>
<text text-anchor="middle" x="381.5" y="-94.9" font-family="Times,serif" font-size="12.00">Notify Result Appeal to Offender</text>
</g>
<!-- 140468994172192 -->
<g id="node10" class="node">
<title>140468994172192</title>
<ellipse fill="white" stroke="black" cx="695.5" cy="-97" rx="27" ry="27"/>
</g>
<!-- 140468994172048&#45;&gt;140468994172192 -->
<g id="edge10" class="edge">
<title>140468994172048&#45;&gt;140468994172192</title>
<path fill="none" stroke="black" d="M469.41,-97.72C531.64,-97.52 612.25,-97.26 658.18,-97.12"/>
<polygon fill="black" stroke="black" points="658.27,-100.62 668.26,-97.08 658.25,-93.62 658.27,-100.62"/>
</g>
<!-- 140468994173680 -->
<g id="node5" class="node">
<title>140468994173680</title>
<polygon fill="white" stroke="black" points="451.5,-46 311.5,-46 311.5,-10 451.5,-10 451.5,-46"/>
<text text-anchor="middle" x="381.5" y="-24.9" font-family="Times,serif" font-size="12.00">Send Appeal to Prefecture</text>
</g>
<!-- 140468994173536 -->
<g id="node6" class="node">
<title>140468994173536</title>
<ellipse fill="white" stroke="black" cx="532" cy="-30" rx="27" ry="27"/>
</g>
<!-- 140468994173680&#45;&gt;140468994173536 -->
<g id="edge2" class="edge">
<title>140468994173680&#45;&gt;140468994173536</title>
<path fill="none" stroke="black" d="M451.53,-28.93C466.33,-29.13 481.4,-29.33 494.38,-29.51"/>
<polygon fill="black" stroke="black" points="494.7,-33.01 504.75,-29.65 494.79,-26.01 494.7,-33.01"/>
</g>
<!-- 140468994173536&#45;&gt;140468994172528 -->
<g id="edge1" class="edge">
<title>140468994173536&#45;&gt;140468994172528</title>
<path fill="none" stroke="black" d="M559.31,-30.65C566.79,-30.84 575.44,-31.05 584.68,-31.28"/>
<polygon fill="black" stroke="black" points="584.82,-34.78 594.9,-31.53 584.99,-27.79 584.82,-34.78"/>
</g>
<!-- 140468994173440&#45;&gt;140468994173632 -->
<g id="edge3" class="edge">
<title>140468994173440&#45;&gt;140468994173632</title>
<path fill="none" stroke="black" d="M885.07,-45.52C893.47,-48.04 903.04,-50.91 912.2,-53.66"/>
<polygon fill="black" stroke="black" points="911.31,-57.05 921.9,-56.57 913.32,-50.34 911.31,-57.05"/>
</g>
<!-- 140468994172432&#45;&gt;140468994172048 -->
<g id="edge4" class="edge">
<title>140468994172432&#45;&gt;140468994172048</title>
<path fill="none" stroke="black" d="M258.21,-98.82C265.73,-98.77 274.4,-98.71 283.59,-98.65"/>
<polygon fill="black" stroke="black" points="283.75,-102.15 293.73,-98.58 283.7,-95.15 283.75,-102.15"/>
</g>
<!-- 140468994173920&#45;&gt;140468994173680 -->
<g id="edge5" class="edge">
<title>140468994173920&#45;&gt;140468994173680</title>
<path fill="none" stroke="black" d="M258.21,-27.18C270.36,-27.26 285.53,-27.36 301.01,-27.46"/>
<polygon fill="black" stroke="black" points="301.17,-30.97 311.19,-27.53 301.22,-23.97 301.17,-30.97"/>
</g>
<!-- 140468994172192&#45;&gt;140468994173632 -->
<g id="edge6" class="edge">
<title>140468994172192&#45;&gt;140468994173632</title>
<path fill="none" stroke="black" d="M722.57,-93.99C759.13,-89.74 827.67,-81.64 886,-74 894.38,-72.9 903.38,-71.67 911.9,-70.48"/>
<polygon fill="black" stroke="black" points="912.56,-73.92 921.98,-69.06 911.59,-66.99 912.56,-73.92"/>
</g>
</g>
</svg>
