<?xml version="1.0" encoding="UTF-8" standalone="no"?>
<!DOCTYPE svg PUBLIC "-//W3C//DTD SVG 1.1//EN"
 "http://www.w3.org/Graphics/SVG/1.1/DTD/svg11.dtd">
<!-- Generated by graphviz version 2.43.0 (0)
 -->
<!-- Title: imported_1688044901.549753 Pages: 1 -->
<svg width="960pt" height="134pt"
 viewBox="0.00 0.00 960.00 134.00" xmlns="http://www.w3.org/2000/svg" xmlns:xlink="http://www.w3.org/1999/xlink">
<g id="graph0" class="graph" transform="scale(1 1) rotate(0) translate(4 130)">
<title>imported_1688044901.549753</title>
<polygon fill="white" stroke="transparent" points="-4,4 -4,-130 956,-130 956,4 -4,4"/>
<!-- 140468994103328 -->
<g id="node1" class="node">
<title>140468994103328</title>
<polygon fill="white" stroke="black" points="952,-81 894,-81 894,-45 952,-45 952,-81"/>
<text text-anchor="middle" x="923" y="-59.9" font-family="Times,serif" font-size="12.00">Payment</text>
</g>
<!-- 140468994101792 -->
<g id="node2" class="node">
<title>140468994101792</title>
<polygon fill="white" stroke="black" points="140,-117 0,-117 0,-81 140,-81 140,-117"/>
<text text-anchor="middle" x="70" y="-95.9" font-family="Times,serif" font-size="12.00">Send Appeal to Prefecture</text>
</g>
<!-- 140468994101552 -->
<g id="node6" class="node">
<title>140468994101552</title>
<ellipse fill="white" stroke="black" cx="203" cy="-99" rx="27" ry="27"/>
</g>
<!-- 140468994101792&#45;&gt;140468994101552 -->
<g id="edge8" class="edge">
<title>140468994101792&#45;&gt;140468994101552</title>
<path fill="none" stroke="black" d="M140.34,-99C149.13,-99 157.82,-99 165.79,-99"/>
<polygon fill="black" stroke="black" points="165.8,-102.5 175.8,-99 165.8,-95.5 165.8,-102.5"/>
</g>
<!-- 140468994101360 -->
<g id="node3" class="node">
<title>140468994101360</title>
<polygon fill="white" stroke="black" points="450.5,-45 282.5,-45 282.5,-9 450.5,-9 450.5,-45"/>
<text text-anchor="middle" x="366.5" y="-23.9" font-family="Times,serif" font-size="12.00">Insert Date Appeal to Prefecture</text>
</g>
<!-- 140468994103904 -->
<g id="node8" class="node">
<title>140468994103904</title>
<ellipse fill="white" stroke="black" cx="530" cy="-27" rx="27" ry="27"/>
</g>
<!-- 140468994101360&#45;&gt;140468994103904 -->
<g id="edge5" class="edge">
<title>140468994101360&#45;&gt;140468994103904</title>
<path fill="none" stroke="black" d="M450.62,-27C465.47,-27 480.22,-27 492.84,-27"/>
<polygon fill="black" stroke="black" points="492.91,-30.5 502.91,-27 492.91,-23.5 492.91,-30.5"/>
</g>
<!-- 140468994103952 -->
<g id="node4" class="node">
<title>140468994103952</title>
<polygon fill="white" stroke="black" points="467,-117 266,-117 266,-81 467,-81 467,-117"/>
<text text-anchor="middle" x="366.5" y="-95.9" font-family="Times,serif" font-size="12.00">Receive Result Appeal from Prefecture</text>
</g>
<!-- 140468994102992 -->
<g id="node7" class="node">
<title>140468994102992</title>
<ellipse fill="white" stroke="black" cx="530" cy="-99" rx="27" ry="27"/>
</g>
<!-- 140468994103952&#45;&gt;140468994102992 -->
<g id="edge6" class="edge">
<title>140468994103952&#45;&gt;140468994102992</title>
<path fill="none" stroke="black" d="M467.02,-99C476.04,-99 484.72,-99 492.59,-99"/>
<polygon fill="black" stroke="black" points="492.77,-102.5 502.77,-99 492.77,-95.5 492.77,-102.5"/>
</g>
<!-- 140468994102704 -->
<g id="node5" class="node">
<title>140468994102704</title>
<polygon fill="white" stroke="black" points="768,-81 593,-81 593,-45 768,-45 768,-81"/>
<text text-anchor="middle" x="680.5" y="-59.9" font-family="Times,serif" font-size="12.00">Notify Result Appeal to Offender</text>
</g>
<!-- 140468994103280 -->
<g id="node9" class="node">
<title>140468994103280</title>
<ellipse fill="white" stroke="black" cx="831" cy="-63" rx="27" ry="27"/>
</g>
<!-- 140468994102704&#45;&gt;140468994103280 -->
<g id="edge7" class="edge">
<title>140468994102704&#45;&gt;140468994103280</title>
<path fill="none" stroke="black" d="M768.31,-63C777.21,-63 785.87,-63 793.74,-63"/>
<polygon fill="black" stroke="black" points="793.94,-66.5 803.94,-63 793.94,-59.5 793.94,-66.5"/>
</g>
<!-- 140468994101552&#45;&gt;140468994103952 -->
<g id="edge1" class="edge">
<title>140468994101552&#45;&gt;140468994103952</title>
<path fill="none" stroke="black" d="M230.31,-99C237.79,-99 246.44,-99 255.68,-99"/>
<polygon fill="black" stroke="black" points="255.9,-102.5 265.9,-99 255.9,-95.5 255.9,-102.5"/>
</g>
<!-- 140468994102992&#45;&gt;140468994102704 -->
<g id="edge2" class="edge">
<title>140468994102992&#45;&gt;140468994102704</title>
<path fill="none" stroke="black" d="M556.53,-92.81C567.58,-90.13 581.21,-86.83 595.32,-83.41"/>
<polygon fill="black" stroke="black" points="596.25,-86.78 605.14,-81.03 594.6,-79.98 596.25,-86.78"/>
</g>
<!-- 140468994103904&#45;&gt;140468994102704 -->
<g id="edge3" class="edge">
<title>140468994103904&#45;&gt;140468994102704</title>
<path fill="none" stroke="black" d="M556.53,-33.19C567.58,-35.87 581.21,-39.17 595.32,-42.59"/>
<polygon fill="black" stroke="black" points="594.6,-46.02 605.14,-44.97 596.25,-39.22 594.6,-46.02"/>
</g>
<!-- 140468994103280&#45;&gt;140468994103328 -->
<g id="edge4" class="edge">
<title>140468994103280&#45;&gt;140468994103328</title>
<path fill="none" stroke="black" d="M858.03,-63C866,-63 874.95,-63 883.56,-63"/>
<polygon fill="black" stroke="black" points="883.82,-66.5 893.82,-63 883.82,-59.5 883.82,-66.5"/>
</g>
</g>
</svg>
