<?xml version="1.0" encoding="UTF-8" standalone="no"?>
<!DOCTYPE svg PUBLIC "-//W3C//DTD SVG 1.1//EN"
 "http://www.w3.org/Graphics/SVG/1.1/DTD/svg11.dtd">
<!-- Generated by graphviz version 2.43.0 (0)
 -->
<!-- Title: imported_1688044897.7121623 Pages: 1 -->
<svg width="804pt" height="179pt"
 viewBox="0.00 0.00 804.00 179.00" xmlns="http://www.w3.org/2000/svg" xmlns:xlink="http://www.w3.org/1999/xlink">
<g id="graph0" class="graph" transform="scale(1 1) rotate(0) translate(4 175)">
<title>imported_1688044897.7121623</title>
<polygon fill="white" stroke="transparent" points="-4,4 -4,-175 800,-175 800,4 -4,4"/>
<!-- 140468994102272 -->
<g id="node1" class="node">
<title>140468994102272</title>
<polygon fill="white" stroke="black" points="423.5,-171 365.5,-171 365.5,-135 423.5,-135 423.5,-171"/>
<text text-anchor="middle" x="394.5" y="-149.9" font-family="Times,serif" font-size="12.00">Payment</text>
</g>
<!-- 140468994103520 -->
<g id="node9" class="node">
<title>140468994103520</title>
<ellipse fill="white" stroke="black" cx="558" cy="-99" rx="27" ry="27"/>
</g>
<!-- 140468994102272&#45;&gt;140468994103520 -->
<g id="edge6" class="edge">
<title>140468994102272&#45;&gt;140468994103520</title>
<path fill="none" stroke="black" d="M423.71,-146.51C443.82,-141.6 471.36,-134.31 495,-126 504.54,-122.65 514.67,-118.5 523.92,-114.47"/>
<polygon fill="black" stroke="black" points="525.47,-117.61 533.18,-110.34 522.62,-111.21 525.47,-117.61"/>
</g>
<!-- 140468994103232 -->
<g id="node2" class="node">
<title>140468994103232</title>
<polygon fill="white" stroke="black" points="796,-54 621,-54 621,-18 796,-18 796,-54"/>
<text text-anchor="middle" x="708.5" y="-32.9" font-family="Times,serif" font-size="12.00">Notify Result Appeal to Offender</text>
</g>
<!-- 140468994104672 -->
<g id="node3" class="node">
<title>140468994104672</title>
<polygon fill="white" stroke="black" points="168,-81 0,-81 0,-45 168,-45 168,-81"/>
<text text-anchor="middle" x="84" y="-59.9" font-family="Times,serif" font-size="12.00">Insert Date Appeal to Prefecture</text>
</g>
<!-- 140468994102656 -->
<g id="node8" class="node">
<title>140468994102656</title>
<ellipse fill="white" stroke="black" cx="231" cy="-99" rx="27" ry="27"/>
</g>
<!-- 140468994104672&#45;&gt;140468994102656 -->
<g id="edge7" class="edge">
<title>140468994104672&#45;&gt;140468994102656</title>
<path fill="none" stroke="black" d="M157.92,-81.11C170.78,-84.3 183.61,-87.48 194.81,-90.26"/>
<polygon fill="black" stroke="black" points="194.04,-93.68 204.59,-92.69 195.73,-86.88 194.04,-93.68"/>
</g>
<!-- 140468994104384 -->
<g id="node10" class="node">
<title>140468994104384</title>
<ellipse fill="white" stroke="black" cx="231" cy="-27" rx="27" ry="27"/>
</g>
<!-- 140468994104672&#45;&gt;140468994104384 -->
<g id="edge8" class="edge">
<title>140468994104672&#45;&gt;140468994104384</title>
<path fill="none" stroke="black" d="M157.92,-44.89C170.78,-41.7 183.61,-38.52 194.81,-35.74"/>
<polygon fill="black" stroke="black" points="195.73,-39.12 204.59,-33.31 194.04,-32.32 195.73,-39.12"/>
</g>
<!-- 140468994102464 -->
<g id="node4" class="node">
<title>140468994102464</title>
<polygon fill="white" stroke="black" points="495,-45 294,-45 294,-9 495,-9 495,-45"/>
<text text-anchor="middle" x="394.5" y="-23.9" font-family="Times,serif" font-size="12.00">Receive Result Appeal from Prefecture</text>
</g>
<!-- 140468994103088 -->
<g id="node7" class="node">
<title>140468994103088</title>
<ellipse fill="white" stroke="black" cx="558" cy="-27" rx="27" ry="27"/>
</g>
<!-- 140468994102464&#45;&gt;140468994103088 -->
<g id="edge9" class="edge">
<title>140468994102464&#45;&gt;140468994103088</title>
<path fill="none" stroke="black" d="M495.02,-27C504.04,-27 512.72,-27 520.59,-27"/>
<polygon fill="black" stroke="black" points="520.77,-30.5 530.77,-27 520.77,-23.5 520.77,-30.5"/>
</g>
<!-- 140468994103712 -->
<g id="node5" class="node">
<title>140468994103712</title>
<polygon fill="white" stroke="black" points="755.5,-117 661.5,-117 661.5,-81 755.5,-81 755.5,-117"/>
<text text-anchor="middle" x="708.5" y="-95.9" font-family="Times,serif" font-size="12.00">Appeal to Judge</text>
</g>
<!-- 140468994102512 -->
<g id="node6" class="node">
<title>140468994102512</title>
<polygon fill="white" stroke="black" points="464.5,-117 324.5,-117 324.5,-81 464.5,-81 464.5,-117"/>
<text text-anchor="middle" x="394.5" y="-95.9" font-family="Times,serif" font-size="12.00">Send Appeal to Prefecture</text>
</g>
<!-- 140468994102512&#45;&gt;140468994103520 -->
<g id="edge10" class="edge">
<title>140468994102512&#45;&gt;140468994103520</title>
<path fill="none" stroke="black" d="M464.93,-99C484.14,-99 504.23,-99 520.72,-99"/>
<polygon fill="black" stroke="black" points="521,-102.5 531,-99 521,-95.5 521,-102.5"/>
</g>
<!-- 140468994103088&#45;&gt;140468994103232 -->
<g id="edge1" class="edge">
<title>140468994103088&#45;&gt;140468994103232</title>
<path fill="none" stroke="black" d="M585.21,-28.59C592.73,-29.04 601.4,-29.57 610.59,-30.13"/>
<polygon fill="black" stroke="black" points="610.53,-33.63 620.73,-30.74 610.96,-26.64 610.53,-33.63"/>
</g>
<!-- 140468994102656&#45;&gt;140468994102512 -->
<g id="edge2" class="edge">
<title>140468994102656&#45;&gt;140468994102512</title>
<path fill="none" stroke="black" d="M258.31,-99C273.68,-99 293.97,-99 314.15,-99"/>
<polygon fill="black" stroke="black" points="314.34,-102.5 324.34,-99 314.34,-95.5 314.34,-102.5"/>
</g>
<!-- 140468994103520&#45;&gt;140468994103232 -->
<g id="edge4" class="edge">
<title>140468994103520&#45;&gt;140468994103232</title>
<path fill="none" stroke="black" d="M583.1,-88.39C594.57,-83.38 608.47,-77.34 621,-72 631.65,-67.47 643.06,-62.67 653.99,-58.11"/>
<polygon fill="black" stroke="black" points="655.55,-61.25 663.44,-54.18 652.86,-54.79 655.55,-61.25"/>
</g>
<!-- 140468994103520&#45;&gt;140468994103712 -->
<g id="edge3" class="edge">
<title>140468994103520&#45;&gt;140468994103712</title>
<path fill="none" stroke="black" d="M585.21,-99C603.48,-99 628.54,-99 651.23,-99"/>
<polygon fill="black" stroke="black" points="651.45,-102.5 661.45,-99 651.45,-95.5 651.45,-102.5"/>
</g>
<!-- 140468994104384&#45;&gt;140468994102464 -->
<g id="edge5" class="edge">
<title>140468994104384&#45;&gt;140468994102464</title>
<path fill="none" stroke="black" d="M258.31,-27C265.79,-27 274.44,-27 283.68,-27"/>
<polygon fill="black" stroke="black" points="283.9,-30.5 293.9,-27 283.9,-23.5 283.9,-30.5"/>
</g>
</g>
</svg>
