<?xml version="1.0" encoding="UTF-8" standalone="no"?>
<!DOCTYPE svg PUBLIC "-//W3C//DTD SVG 1.1//EN"
 "http://www.w3.org/Graphics/SVG/1.1/DTD/svg11.dtd">
<!-- Generated by graphviz version 2.43.0 (0)
 -->
<!-- Title: imported_1688044904.088561 Pages: 1 -->
<svg width="661pt" height="134pt"
 viewBox="0.00 0.00 661.00 134.00" xmlns="http://www.w3.org/2000/svg" xmlns:xlink="http://www.w3.org/1999/xlink">
<g id="graph0" class="graph" transform="scale(1 1) rotate(0) translate(4 130)">
<title>imported_1688044904.088561</title>
<polygon fill="white" stroke="transparent" points="-4,4 -4,-130 657,-130 657,4 -4,4"/>
<!-- 140468994102464 -->
<g id="node1" class="node">
<title>140468994102464</title>
<polygon fill="white" stroke="black" points="653,-81 595,-81 595,-45 653,-45 653,-81"/>
<text text-anchor="middle" x="624" y="-59.9" font-family="Times,serif" font-size="12.00">Payment</text>
</g>
<!-- 140468994103856 -->
<g id="node2" class="node">
<title>140468994103856</title>
<polygon fill="white" stroke="black" points="451.5,-45 311.5,-45 311.5,-9 451.5,-9 451.5,-45"/>
<text text-anchor="middle" x="381.5" y="-23.9" font-family="Times,serif" font-size="12.00">Send Appeal to Prefecture</text>
</g>
<!-- 140468994104288 -->
<g id="node5" class="node">
<title>140468994104288</title>
<ellipse fill="white" stroke="black" cx="532" cy="-27" rx="27" ry="27"/>
</g>
<!-- 140468994103856&#45;&gt;140468994104288 -->
<g id="edge8" class="edge">
<title>140468994103856&#45;&gt;140468994104288</title>
<path fill="none" stroke="black" d="M451.53,-27C466.33,-27 481.4,-27 494.38,-27"/>
<polygon fill="black" stroke="black" points="494.75,-30.5 504.75,-27 494.75,-23.5 494.75,-30.5"/>
</g>
<!-- 140468994101552 -->
<g id="node3" class="node">
<title>140468994101552</title>
<polygon fill="white" stroke="black" points="469,-117 294,-117 294,-81 469,-81 469,-117"/>
<text text-anchor="middle" x="381.5" y="-95.9" font-family="Times,serif" font-size="12.00">Notify Result Appeal to Offender</text>
</g>
<!-- 140468994102800 -->
<g id="node8" class="node">
<title>140468994102800</title>
<ellipse fill="white" stroke="black" cx="532" cy="-99" rx="27" ry="27"/>
</g>
<!-- 140468994101552&#45;&gt;140468994102800 -->
<g id="edge7" class="edge">
<title>140468994101552&#45;&gt;140468994102800</title>
<path fill="none" stroke="black" d="M469.31,-99C478.21,-99 486.87,-99 494.74,-99"/>
<polygon fill="black" stroke="black" points="494.94,-102.5 504.94,-99 494.94,-95.5 494.94,-102.5"/>
</g>
<!-- 140468994104240 -->
<g id="node4" class="node">
<title>140468994104240</title>
<polygon fill="white" stroke="black" points="168,-81 0,-81 0,-45 168,-45 168,-81"/>
<text text-anchor="middle" x="84" y="-59.9" font-family="Times,serif" font-size="12.00">Insert Date Appeal to Prefecture</text>
</g>
<!-- 140468994101408 -->
<g id="node6" class="node">
<title>140468994101408</title>
<ellipse fill="white" stroke="black" cx="231" cy="-99" rx="27" ry="27"/>
</g>
<!-- 140468994104240&#45;&gt;140468994101408 -->
<g id="edge5" class="edge">
<title>140468994104240&#45;&gt;140468994101408</title>
<path fill="none" stroke="black" d="M157.92,-81.11C170.78,-84.3 183.61,-87.48 194.81,-90.26"/>
<polygon fill="black" stroke="black" points="194.04,-93.68 204.59,-92.69 195.73,-86.88 194.04,-93.68"/>
</g>
<!-- 140468994101888 -->
<g id="node7" class="node">
<title>140468994101888</title>
<ellipse fill="white" stroke="black" cx="231" cy="-27" rx="27" ry="27"/>
</g>
<!-- 140468994104240&#45;&gt;140468994101888 -->
<g id="edge6" class="edge">
<title>140468994104240&#45;&gt;140468994101888</title>
<path fill="none" stroke="black" d="M157.92,-44.89C170.78,-41.7 183.61,-38.52 194.81,-35.74"/>
<polygon fill="black" stroke="black" points="195.73,-39.12 204.59,-33.31 194.04,-32.32 195.73,-39.12"/>
</g>
<!-- 140468994104288&#45;&gt;140468994102464 -->
<g id="edge1" class="edge">
<title>140468994104288&#45;&gt;140468994102464</title>
<path fill="none" stroke="black" d="M557.59,-36.84C566.17,-40.27 576,-44.2 585.39,-47.95"/>
<polygon fill="black" stroke="black" points="584.36,-51.31 594.94,-51.78 586.95,-44.81 584.36,-51.31"/>
</g>
<!-- 140468994101408&#45;&gt;140468994101552 -->
<g id="edge2" class="edge">
<title>140468994101408&#45;&gt;140468994101552</title>
<path fill="none" stroke="black" d="M258.21,-99C265.73,-99 274.4,-99 283.59,-99"/>
<polygon fill="black" stroke="black" points="283.73,-102.5 293.73,-99 283.72,-95.5 283.73,-102.5"/>
</g>
<!-- 140468994101888&#45;&gt;140468994103856 -->
<g id="edge3" class="edge">
<title>140468994101888&#45;&gt;140468994103856</title>
<path fill="none" stroke="black" d="M258.21,-27C270.36,-27 285.53,-27 301.01,-27"/>
<polygon fill="black" stroke="black" points="301.19,-30.5 311.19,-27 301.19,-23.5 301.19,-30.5"/>
</g>
<!-- 140468994102800&#45;&gt;140468994102464 -->
<g id="edge4" class="edge">
<title>140468994102800&#45;&gt;140468994102464</title>
<path fill="none" stroke="black" d="M557.59,-89.16C566.17,-85.73 576,-81.8 585.39,-78.05"/>
<polygon fill="black" stroke="black" points="586.95,-81.19 594.94,-74.22 584.36,-74.69 586.95,-81.19"/>
</g>
</g>
</svg>
