<?xml version="1.0" encoding="UTF-8" standalone="no"?>
<!DOCTYPE svg PUBLIC "-//W3C//DTD SVG 1.1//EN"
 "http://www.w3.org/Graphics/SVG/1.1/DTD/svg11.dtd">
<!-- Generated by graphviz version 2.43.0 (0)
 -->
<!-- Title: imported_1688044904.0226693 Pages: 1 -->
<svg width="687pt" height="134pt"
 viewBox="0.00 0.00 687.00 134.00" xmlns="http://www.w3.org/2000/svg" xmlns:xlink="http://www.w3.org/1999/xlink">
<g id="graph0" class="graph" transform="scale(1 1) rotate(0) translate(4 130)">
<title>imported_1688044904.0226693</title>
<polygon fill="white" stroke="transparent" points="-4,4 -4,-130 683,-130 683,4 -4,4"/>
<!-- 140468994174016 -->
<g id="node1" class="node">
<title>140468994174016</title>
<polygon fill="white" stroke="black" points="679,-117 621,-117 621,-81 679,-81 679,-117"/>
<text text-anchor="middle" x="650" y="-95.9" font-family="Times,serif" font-size="12.00">Payment</text>
</g>
<!-- 140468994174208 -->
<g id="node2" class="node">
<title>140468994174208</title>
<polygon fill="white" stroke="black" points="482,-117 307,-117 307,-81 482,-81 482,-117"/>
<text text-anchor="middle" x="394.5" y="-95.9" font-family="Times,serif" font-size="12.00">Notify Result Appeal to Offender</text>
</g>
<!-- 140468994174832 -->
<g id="node7" class="node">
<title>140468994174832</title>
<ellipse fill="white" stroke="black" cx="558" cy="-99" rx="27" ry="27"/>
</g>
<!-- 140468994174208&#45;&gt;140468994174832 -->
<g id="edge6" class="edge">
<title>140468994174208&#45;&gt;140468994174832</title>
<path fill="none" stroke="black" d="M482.4,-99C495.89,-99 509.15,-99 520.66,-99"/>
<polygon fill="black" stroke="black" points="520.7,-102.5 530.7,-99 520.7,-95.5 520.7,-102.5"/>
</g>
<!-- 140468994174496 -->
<g id="node3" class="node">
<title>140468994174496</title>
<polygon fill="white" stroke="black" points="495,-45 294,-45 294,-9 495,-9 495,-45"/>
<text text-anchor="middle" x="394.5" y="-23.9" font-family="Times,serif" font-size="12.00">Receive Result Appeal from Prefecture</text>
</g>
<!-- 140468994174592 -->
<g id="node4" class="node">
<title>140468994174592</title>
<polygon fill="white" stroke="black" points="168,-81 0,-81 0,-45 168,-45 168,-81"/>
<text text-anchor="middle" x="84" y="-59.9" font-family="Times,serif" font-size="12.00">Insert Date Appeal to Prefecture</text>
</g>
<!-- 140468994173824 -->
<g id="node5" class="node">
<title>140468994173824</title>
<ellipse fill="white" stroke="black" cx="231" cy="-99" rx="27" ry="27"/>
</g>
<!-- 140468994174592&#45;&gt;140468994173824 -->
<g id="edge4" class="edge">
<title>140468994174592&#45;&gt;140468994173824</title>
<path fill="none" stroke="black" d="M157.92,-81.11C170.78,-84.3 183.61,-87.48 194.81,-90.26"/>
<polygon fill="black" stroke="black" points="194.04,-93.68 204.59,-92.69 195.73,-86.88 194.04,-93.68"/>
</g>
<!-- 140468994174544 -->
<g id="node6" class="node">
<title>140468994174544</title>
<ellipse fill="white" stroke="black" cx="231" cy="-27" rx="27" ry="27"/>
</g>
<!-- 140468994174592&#45;&gt;140468994174544 -->
<g id="edge5" class="edge">
<title>140468994174592&#45;&gt;140468994174544</title>
<path fill="none" stroke="black" d="M157.92,-44.89C170.78,-41.7 183.61,-38.52 194.81,-35.74"/>
<polygon fill="black" stroke="black" points="195.73,-39.12 204.59,-33.31 194.04,-32.32 195.73,-39.12"/>
</g>
<!-- 140468994173824&#45;&gt;140468994174208 -->
<g id="edge1" class="edge">
<title>140468994173824&#45;&gt;140468994174208</title>
<path fill="none" stroke="black" d="M258.31,-99C269.17,-99 282.49,-99 296.49,-99"/>
<polygon fill="black" stroke="black" points="296.78,-102.5 306.78,-99 296.78,-95.5 296.78,-102.5"/>
</g>
<!-- 140468994174544&#45;&gt;140468994174496 -->
<g id="edge2" class="edge">
<title>140468994174544&#45;&gt;140468994174496</title>
<path fill="none" stroke="black" d="M258.31,-27C265.79,-27 274.44,-27 283.68,-27"/>
<polygon fill="black" stroke="black" points="283.9,-30.5 293.9,-27 283.9,-23.5 283.9,-30.5"/>
</g>
<!-- 140468994174832&#45;&gt;140468994174016 -->
<g id="edge3" class="edge">
<title>140468994174832&#45;&gt;140468994174016</title>
<path fill="none" stroke="black" d="M585.03,-99C593,-99 601.95,-99 610.56,-99"/>
<polygon fill="black" stroke="black" points="610.82,-102.5 620.82,-99 610.82,-95.5 610.82,-102.5"/>
</g>
</g>
</svg>
