<?xml version="1.0" encoding="UTF-8" standalone="no"?>
<!DOCTYPE svg PUBLIC "-//W3C//DTD SVG 1.1//EN"
 "http://www.w3.org/Graphics/SVG/1.1/DTD/svg11.dtd">
<!-- Generated by graphviz version 2.43.0 (0)
 -->
<!-- Title: imported_1688044899.4529796 Pages: 1 -->
<svg width="1043pt" height="121pt"
 viewBox="0.00 0.00 1043.00 121.00" xmlns="http://www.w3.org/2000/svg" xmlns:xlink="http://www.w3.org/1999/xlink">
<g id="graph0" class="graph" transform="scale(1 1) rotate(0) translate(4 117)">
<title>imported_1688044899.4529796</title>
<polygon fill="white" stroke="transparent" points="-4,4 -4,-117 1039,-117 1039,4 -4,4"/>
<!-- 140464257979728 -->
<g id="node1" class="node">
<title>140464257979728</title>
<polygon fill="white" stroke="black" points="467,-72 266,-72 266,-36 467,-36 467,-72"/>
<text text-anchor="middle" x="366.5" y="-50.9" font-family="Times,serif" font-size="12.00">Receive Result Appeal from Prefecture</text>
</g>
<!-- 140464257980112 -->
<g id="node5" class="node">
<title>140464257980112</title>
<ellipse fill="white" stroke="black" cx="680.5" cy="-86" rx="27" ry="27"/>
</g>
<!-- 140464257979728&#45;&gt;140464257980112 -->
<g id="edge5" class="edge">
<title>140464257979728&#45;&gt;140464257980112</title>
<path fill="none" stroke="black" d="M467.08,-64.21C527.38,-70.4 600.67,-77.92 643.51,-82.31"/>
<polygon fill="black" stroke="black" points="643.15,-85.79 653.45,-83.33 643.86,-78.83 643.15,-85.79"/>
</g>
<!-- 140464257981264 -->
<g id="node7" class="node">
<title>140464257981264</title>
<ellipse fill="white" stroke="black" cx="530" cy="-27" rx="27" ry="27"/>
</g>
<!-- 140464257979728&#45;&gt;140464257981264 -->
<g id="edge6" class="edge">
<title>140464257979728&#45;&gt;140464257981264</title>
<path fill="none" stroke="black" d="M467.02,-37.36C476.23,-35.82 485.09,-34.34 493.09,-33"/>
<polygon fill="black" stroke="black" points="493.79,-36.44 503.07,-31.33 492.63,-29.53 493.79,-36.44"/>
</g>
<!-- 140464257979824 -->
<g id="node2" class="node">
<title>140464257979824</title>
<polygon fill="white" stroke="black" points="1035,-72 894,-72 894,-36 1035,-36 1035,-72"/>
<text text-anchor="middle" x="964.5" y="-50.9" font-family="Times,serif" font-size="12.00">Send for Credit Collection</text>
</g>
<!-- 140464257979632 -->
<g id="node3" class="node">
<title>140464257979632</title>
<polygon fill="white" stroke="black" points="140,-72 0,-72 0,-36 140,-36 140,-72"/>
<text text-anchor="middle" x="70" y="-50.9" font-family="Times,serif" font-size="12.00">Send Appeal to Prefecture</text>
</g>
<!-- 140464257982176 -->
<g id="node6" class="node">
<title>140464257982176</title>
<ellipse fill="white" stroke="black" cx="203" cy="-54" rx="27" ry="27"/>
</g>
<!-- 140464257979632&#45;&gt;140464257982176 -->
<g id="edge8" class="edge">
<title>140464257979632&#45;&gt;140464257982176</title>
<path fill="none" stroke="black" d="M140.34,-54C149.13,-54 157.82,-54 165.79,-54"/>
<polygon fill="black" stroke="black" points="165.8,-57.5 175.8,-54 165.8,-50.5 165.8,-57.5"/>
</g>
<!-- 140464257980592 -->
<g id="node4" class="node">
<title>140464257980592</title>
<polygon fill="white" stroke="black" points="768,-41 593,-41 593,-5 768,-5 768,-41"/>
<text text-anchor="middle" x="680.5" y="-19.9" font-family="Times,serif" font-size="12.00">Notify Result Appeal to Offender</text>
</g>
<!-- 140464257979968 -->
<g id="node8" class="node">
<title>140464257979968</title>
<ellipse fill="white" stroke="black" cx="831" cy="-27" rx="27" ry="27"/>
</g>
<!-- 140464257980592&#45;&gt;140464257979968 -->
<g id="edge7" class="edge">
<title>140464257980592&#45;&gt;140464257979968</title>
<path fill="none" stroke="black" d="M768.31,-25.34C777.21,-25.58 785.87,-25.81 793.74,-26.02"/>
<polygon fill="black" stroke="black" points="793.85,-29.53 803.94,-26.3 794.04,-22.53 793.85,-29.53"/>
</g>
<!-- 140464257980112&#45;&gt;140464257979824 -->
<g id="edge1" class="edge">
<title>140464257980112&#45;&gt;140464257979824</title>
<path fill="none" stroke="black" d="M707.52,-83.05C747.22,-78.54 824.55,-69.77 883.87,-63.04"/>
<polygon fill="black" stroke="black" points="884.43,-66.49 893.97,-61.89 883.64,-59.54 884.43,-66.49"/>
</g>
<!-- 140464257982176&#45;&gt;140464257979728 -->
<g id="edge2" class="edge">
<title>140464257982176&#45;&gt;140464257979728</title>
<path fill="none" stroke="black" d="M230.31,-54C237.79,-54 246.44,-54 255.68,-54"/>
<polygon fill="black" stroke="black" points="255.9,-57.5 265.9,-54 255.9,-50.5 255.9,-57.5"/>
</g>
<!-- 140464257981264&#45;&gt;140464257980592 -->
<g id="edge3" class="edge">
<title>140464257981264&#45;&gt;140464257980592</title>
<path fill="none" stroke="black" d="M557.21,-26.29C564.73,-26.09 573.4,-25.86 582.59,-25.61"/>
<polygon fill="black" stroke="black" points="582.82,-29.11 592.73,-25.34 582.63,-22.11 582.82,-29.11"/>
</g>
<!-- 140464257979968&#45;&gt;140464257979824 -->
<g id="edge4" class="edge">
<title>140464257979968&#45;&gt;140464257979824</title>
<path fill="none" stroke="black" d="M857.67,-32.27C865.49,-33.88 874.53,-35.73 883.98,-37.67"/>
<polygon fill="black" stroke="black" points="883.43,-41.13 893.93,-39.71 884.83,-34.27 883.43,-41.13"/>
</g>
</g>
</svg>
